<svg xmlns="http://www.w3.org/2000/svg" width="1225.92993" height="593.47899" viewBox="0 0 1225.92993 593.47899"><title>smart_home</title><g id="Layer_2" data-name="Layer 2"><g id="artwork"><rect x="674.00392" y="195.3982" width="263.30647" height="194.93182" fill="#fff" stroke="#000" stroke-miterlimit="10"/><rect x="937.31039" y="195.3982" width="264.75176" height="194.93182" fill="#fff" stroke="#000" stroke-miterlimit="10"/><polygon points="414.952 592.98 162.357 592.98 163.583 590.512 217.365 482.352 195.501 477.126 243.444 377.372 224.413 376.32 288.588 245.75 348.54 371.625 330.204 373.19 349.294 410.143 379.58 468.77 359.828 475.039 414.952 592.98" fill="#e6e6e6"/><polygon points="503.312 592.98 196.567 592.98 198.055 589.983 263.367 458.636 236.816 452.29 295.037 331.15 271.925 329.873 349.859 171.311 422.663 324.171 400.397 326.072 423.578 370.947 460.358 442.142 436.371 449.755 503.312 592.98" fill="#f2f2f2"/><polygon points="674.009 195.4 674.009 390.33 359.749 390.33 359.749 259.47 561.809 195.4 674.009 195.4" fill="#fff" stroke="#000" stroke-miterlimit="10"/><polygon points="921.051 195.398 642.469 195.398 642.469 103.83 921.051 15.497 921.051 195.398" fill="#fff" stroke="#000" stroke-linejoin="round"/><polygon points="1202.062 195.398 921.051 195.398 921.051 15.497 1202.062 93.66 1202.062 195.398" fill="#fff" stroke="#000" stroke-linejoin="round"/><rect x="1123.08322" y="149.7451" width="3.88046" height="7.76741" transform="translate(78.09631 -285.94272) rotate(15)" fill="#fff" stroke="#000" stroke-miterlimit="10"/><polyline points="1140.06 154.475 1149.86 149.262 1149.86 141.2" fill="none" stroke="#000" stroke-miterlimit="10"/><circle cx="1135.61129" cy="157.46425" r="10.9821" fill="#fff" stroke="#000" stroke-miterlimit="10"/><rect x="945.43128" y="129.89738" width="121.77617" height="3.69019" fill="#fff" stroke="#000" stroke-linecap="round" stroke-linejoin="round"/><rect x="945.43128" y="178.79236" width="121.77617" height="16.60584" fill="#fff" stroke="#000" stroke-linecap="round" stroke-linejoin="round"/><rect x="945.43128" y="171.41198" width="121.77617" height="7.38037" fill="#fff" stroke="#000" stroke-linecap="round" stroke-linejoin="round"/><path d="M945.43128,125.28465v53.50771h3.69019v-79.339a11.9931,11.9931,0,1,1,23.98621,0" fill="#fff" stroke="#000" stroke-linecap="round" stroke-linejoin="round"/><rect x="960.19203" y="133.58757" width="3.69019" height="45.20479" fill="#fff" stroke="#000" stroke-linecap="round" stroke-linejoin="round"/><rect x="974.95278" y="133.58757" width="3.69019" height="45.20479" fill="#fff" stroke="#000" stroke-linecap="round" stroke-linejoin="round"/><rect x="989.71352" y="133.58757" width="3.69019" height="45.20479" fill="#fff" stroke="#000" stroke-linecap="round" stroke-linejoin="round"/><rect x="1004.47427" y="133.58757" width="3.69019" height="45.20479" fill="#fff" stroke="#000" stroke-linecap="round" stroke-linejoin="round"/><rect x="1019.23502" y="133.58757" width="3.69019" height="45.20479" fill="#fff" stroke="#000" stroke-linecap="round" stroke-linejoin="round"/><rect x="1033.99577" y="133.58757" width="3.69019" height="45.20479" fill="#fff" stroke="#000" stroke-linecap="round" stroke-linejoin="round"/><rect x="1048.75652" y="133.58757" width="3.69019" height="45.20479" fill="#fff" stroke="#000" stroke-linecap="round" stroke-linejoin="round"/><rect x="1063.51726" y="129.89738" width="3.69019" height="48.89498" fill="#fff" stroke="#000" stroke-linecap="round" stroke-linejoin="round"/><line x1="1011.85465" y1="185.25018" x2="1000.78409" y2="185.25018" fill="none" stroke="#000" stroke-linecap="round" stroke-linejoin="round"/><path d="M976.79787,99.45334a15.6833,15.6833,0,1,0-31.36659,0v25.83131" fill="none" stroke="#000" stroke-linecap="round" stroke-linejoin="round"/><path d="M982.79442,111.44645c0-6.62362-3.51082-11.99311-7.84164-11.99311s-8.30292,7.38037-7.38038,15.68329" fill="none" stroke="#000" stroke-linecap="round" stroke-linejoin="round"/><polygon points="982.511 107.624 983.454 110.524 986.503 110.524 984.036 112.316 984.978 115.216 982.511 113.424 980.045 115.216 980.987 112.316 978.52 110.524 981.569 110.524 982.511 107.624" fill="#fff" stroke="#000" stroke-linecap="round" stroke-linejoin="round"/><path d="M973.73338,122.04206a4.58549,4.58549,0,1,1-3.83594-7.67464,4.58731,4.58731,0,0,0,3.83594,7.67464Z" fill="#fff" stroke="#000" stroke-linecap="round" stroke-linejoin="round"/><path d="M961.24925,111.44665c0-6.62361,6.61305-11.99311,14.77065-11.99311s15.63951,7.38038,13.90179,15.6833" fill="none" stroke="#000" stroke-linecap="round" stroke-linejoin="round"/><polygon points="991.383 115.137 988.187 115.137 986.589 117.904 988.187 120.672 991.383 120.672 992.981 117.904 991.383 115.137" fill="none" stroke="#000" stroke-linecap="round" stroke-linejoin="round"/><polygon points="964.343 115.137 957.886 115.137 961.115 109.915 964.343 115.137" fill="#fff" stroke="#000" stroke-linecap="round" stroke-linejoin="round"/><rect x="1088.0127" y="174.21185" width="92.41699" height="5.8584" fill="#fff"/><path d="M1179.92969,174.712v4.858h-91.417v-4.858h91.417m1-1h-93.417v6.858h93.417v-6.858Z"/><rect x="1164.88672" y="180.34564" width="5.67285" height="14.56934" fill="#fff"/><path d="M1170.06006,180.84549V194.415h-4.67285V180.84549h4.67285m1-1h-6.67285V195.415h6.67285V179.84549Z"/><rect x="1097.88281" y="180.34564" width="5.67188" height="14.56934" fill="#fff"/><path d="M1103.05518,180.84549V194.415h-4.67286V180.84549h4.67286m1-1h-6.67286V195.415h6.67286V179.84549Z"/><path d="M1130.62995,165.249h9.96268a8.92,8.92,0,0,1,8.92,8.92v0a0,0,0,0,1,0,0H1121.7099a0,0,0,0,1,0,0v0A8.92,8.92,0,0,1,1130.62995,165.249Z" fill="#fff" stroke="#000" stroke-miterlimit="10"/><circle cx="1149.86018" cy="141.19962" r="2.22422" fill="#fff" stroke="#000" stroke-miterlimit="10"/><path d="M752.54848,145.0485h61.22738a0,0,0,0,1,0,0v5.6854A17.93087,17.93087,0,0,1,795.845,168.66478H770.47936a17.93087,17.93087,0,0,1-17.93087-17.93087v-5.6854A0,0,0,0,1,752.54848,145.0485Z" fill="#fff" stroke="#000" stroke-linecap="round" stroke-linejoin="round"/><rect x="674.00392" y="134.98972" width="219.14366" height="6.99741" fill="#fff" stroke="#000" stroke-miterlimit="10"/><rect x="674.00392" y="141.98714" width="40.23513" height="17.49354" fill="#fff" stroke="#000" stroke-miterlimit="10"/><rect x="674.00392" y="159.48067" width="40.23513" height="17.49354" fill="#fff" stroke="#000" stroke-miterlimit="10"/><rect x="674.00392" y="176.97421" width="40.23513" height="17.49354" fill="#fff" stroke="#000" stroke-miterlimit="10"/><rect x="858.16051" y="142.42447" width="34.98707" height="52.48061" transform="translate(1751.3081 337.32956) rotate(-180)" fill="#fff" stroke="#000" stroke-miterlimit="10"/><line x1="699.80689" y1="147.52676" x2="688.43609" y2="147.52676" fill="none" stroke="#000" stroke-linecap="round" stroke-miterlimit="10"/><line x1="699.80689" y1="165.02029" x2="688.43609" y2="165.02029" fill="none" stroke="#000" stroke-linecap="round" stroke-miterlimit="10"/><line x1="699.80689" y1="182.51383" x2="688.43609" y2="182.51383" fill="none" stroke="#000" stroke-linecap="round" stroke-miterlimit="10"/><line x1="863.62724" y1="157.80421" x2="863.62724" y2="146.43341" fill="none" stroke="#000" stroke-linecap="round" stroke-miterlimit="10"/><rect x="748.1751" y="89.71234" width="69.97414" height="45.27739" fill="#fff" stroke="#000" stroke-miterlimit="10"/><rect x="765.66863" y="82.50911" width="34.98707" height="59.68383" transform="translate(670.81114 895.5132) rotate(-90)" fill="#fff" stroke="#000" stroke-miterlimit="10"/><line x1="758.46541" y1="111.322" x2="768.75573" y2="101.03168" fill="#fff" stroke="#000" stroke-linecap="round" stroke-linejoin="round"/><line x1="798.90635" y1="121.97247" x2="804.15441" y2="116.72441" fill="#fff" stroke="#000" stroke-linecap="round" stroke-linejoin="round"/><line x1="804.77183" y1="106.17684" x2="808.88796" y2="102.06071" fill="#fff" stroke="#000" stroke-linecap="round" stroke-linejoin="round"/><line x1="771.79137" y1="121.0978" x2="775.29008" y2="117.59909" fill="#fff" stroke="#000" stroke-linecap="round" stroke-linejoin="round"/><line x1="762.58154" y1="120.58328" x2="781.10411" y2="102.06071" fill="#fff" stroke="#000" stroke-linecap="round" stroke-linejoin="round"/><line x1="781.10411" y1="122.64134" x2="802.71377" y2="101.03168" fill="#fff" stroke="#000" stroke-linecap="round" stroke-linejoin="round"/><rect x="745.09893" y="129.84003" width="76.12988" height="5.14996" fill="#fff" stroke="#000" stroke-miterlimit="10"/><rect x="746.42575" y="140.67512" width="16.53139" height="8.74677" rx="4.37338" ry="4.37338" fill="#fff" stroke="#000" stroke-linecap="round" stroke-linejoin="round"/><rect x="803.3672" y="140.67512" width="16.53139" height="8.74677" rx="4.37338" ry="4.37338" transform="translate(1623.2658 290.09701) rotate(180)" fill="#fff" stroke="#000" stroke-linecap="round" stroke-linejoin="round"/><path d="M760.36089,108.31208h45.60256a2.56435,2.56435,0,0,1,2.56435,2.56435v37.75377a17.41056,17.41056,0,0,1-17.41056,17.41056H775.2071a17.41056,17.41056,0,0,1-17.41056-17.41056V110.87643A2.56435,2.56435,0,0,1,760.36089,108.31208Z" fill="#fff" stroke="#000" stroke-linecap="round" stroke-linejoin="round"/><rect x="779.66346" y="166.04075" width="6.99741" height="11.3708" fill="#fff" stroke="#000" stroke-linecap="round" stroke-linejoin="round"/><rect x="777.91411" y="177.41155" width="10.49612" height="10.49612" fill="#fff" stroke="#000" stroke-linecap="round" stroke-linejoin="round"/><path d="M761.29525,187.90767h43.73385a3.4987,3.4987,0,0,1,3.4987,3.4987v0a0,0,0,0,1,0,0H757.79654a0,0,0,0,1,0,0v0A3.4987,3.4987,0,0,1,761.29525,187.90767Z" fill="#fff" stroke="#000" stroke-linecap="round" stroke-linejoin="round"/><path d="M760.42057,191.40637h7.87209a0,0,0,0,1,0,0v0a3.4987,3.4987,0,0,1-3.4987,3.4987h-.87468a3.4987,3.4987,0,0,1-3.4987-3.4987v0A0,0,0,0,1,760.42057,191.40637Z" fill="#fff" stroke="#000" stroke-linecap="round" stroke-linejoin="round"/><path d="M779.22612,191.40637h7.87209a0,0,0,0,1,0,0v0a3.4987,3.4987,0,0,1-3.4987,3.4987h-.87468a3.4987,3.4987,0,0,1-3.4987-3.4987v0a0,0,0,0,1,0,0Z" fill="#fff" stroke="#000" stroke-linecap="round" stroke-linejoin="round"/><path d="M798.03168,191.40637h7.87209a0,0,0,0,1,0,0v0a3.4987,3.4987,0,0,1-3.4987,3.4987h-.87468a3.4987,3.4987,0,0,1-3.4987-3.4987v0A0,0,0,0,1,798.03168,191.40637Z" fill="#fff" stroke="#000" stroke-linecap="round" stroke-linejoin="round"/><line x1="783.16217" y1="119.68288" x2="783.16217" y2="150.29657" fill="none" stroke="#000" stroke-linecap="round" stroke-linejoin="round"/><line x1="793.65829" y1="119.68288" x2="793.65829" y2="150.29657" fill="none" stroke="#000" stroke-linecap="round" stroke-linejoin="round"/><line x1="772.66605" y1="119.68288" x2="772.66605" y2="150.29657" fill="none" stroke="#000" stroke-linecap="round" stroke-linejoin="round"/><rect x="751.52874" y="318.31404" width="28.8936" height="3.94004" fill="#fff" stroke="#000" stroke-linejoin="round"/><path d="M765.97553,308.44836h0a3.94,3.94,0,0,1,3.94,3.94v29.21415a0,0,0,0,1,0,0H762.0355a0,0,0,0,1,0,0V312.38839A3.94,3.94,0,0,1,765.97553,308.44836Z" fill="#fff" stroke="#000" stroke-linejoin="round"/><path d="M764.88124,315.68735h2.1886a1.1528,1.1528,0,0,1,1.1528,1.1528v2.27462a1.23831,1.23831,0,0,1-1.23831,1.23831h-2.01759a1.23831,1.23831,0,0,1-1.23831-1.23831v-2.27462A1.1528,1.1528,0,0,1,764.88124,315.68735Z" fill="#fff" stroke="#000" stroke-linejoin="round"/><path d="M763.76807,308.44836H768.183a2.33873,2.33873,0,0,1,2.33873,2.33873v4.64079a2.5122,2.5122,0,0,1-2.5122,2.5122h-4.068a2.5122,2.5122,0,0,1-2.5122-2.5122v-4.64079A2.33873,2.33873,0,0,1,763.76807,308.44836Z" fill="#fff" stroke="#000" stroke-linejoin="round"/><path d="M834.64041,337.54569l-10.47027,40.70456a6.16231,6.16231,0,0,1-6.0618,5.08207H714.71745a6.1623,6.1623,0,0,1-6.0618-5.08207l-10.47027-40.70456Z" fill="#fff" stroke="#000" stroke-linejoin="round"/><rect x="696.43596" y="334.92155" width="139.95388" height="5.24827" rx="2.62413" ry="2.62413" fill="#fff" stroke="#000" stroke-linejoin="round"/><path d="M730.30477,383.33232l-1.94184,4.37356-.21867.64728A2.88693,2.88693,0,0,1,725.4064,390.33H723.482a1.23572,1.23572,0,0,1-1.24208-1.24213V388.948a1.2357,1.2357,0,0,1,1.24208-1.24208h1.38206l.97091-4.37356Z" fill="#fff" stroke="#000" stroke-linejoin="round"/><path d="M801.64631,383.33232l1.94183,4.37356.21868.64728a2.88692,2.88692,0,0,0,2.73785,1.97686h1.92438a1.23572,1.23572,0,0,0,1.24208-1.24213V388.948a1.23571,1.23571,0,0,0-1.24208-1.24208H807.087l-.97092-4.37356Z" fill="#fff" stroke="#000" stroke-linejoin="round"/><path d="M787.19464,322.89661a1.54838,1.54838,0,1,1-2.18974,2.18974l-3.26921-3.26922-3.26922,3.26922a1.56395,1.56395,0,0,1-2.18974,0,1.55428,1.55428,0,0,1,0-2.18974l3.26922-3.26922-3.26922-3.26922a1.56381,1.56381,0,0,1,0-2.18983,1.55447,1.55447,0,0,1,2.18974,0l3.26922,3.26922,3.26921-3.26922a1.54841,1.54841,0,1,1,2.18974,2.18983l-3.26922,3.26922Z" fill="#fff" stroke="#000" stroke-linejoin="round"/><circle cx="781.73569" cy="319.62739" r="2.62669" fill="#fff" stroke="#000" stroke-linejoin="round"/><path d="M744.75643,322.89661a1.54838,1.54838,0,1,0,2.18974,2.18974l3.26922-3.26922,3.26922,3.26922a1.56395,1.56395,0,0,0,2.18974,0,1.5543,1.5543,0,0,0,0-2.18974l-3.26922-3.26922,3.26922-3.26922a1.56383,1.56383,0,0,0,0-2.18983,1.55447,1.55447,0,0,0-2.18974,0l-3.26922,3.26922-3.26922-3.26922a1.54841,1.54841,0,1,0-2.18974,2.18983l3.26922,3.26922Z" fill="#fff" stroke="#000" stroke-linejoin="round"/><circle cx="750.21539" cy="319.62739" r="2.62669" fill="#fff" stroke="#000" stroke-linejoin="round"/><path d="M893.87658,373.7622h12.28908c-.44689,5.62681-.02522,12.0015,1.53612,16.56782H892.34046C893.97567,386.03548,894.4877,379.70852,893.87658,373.7622Z" fill="#fff" stroke="#000" stroke-linejoin="round"/><path d="M881.19112,356.41878a18.83,18.83,0,0,0,37.66,0Z" fill="#fff" stroke="#000" stroke-linejoin="round"/><rect x="880.20007" y="353.44562" width="39.64211" height="3.96421" rx="1.9821" ry="1.9821" fill="#fff" stroke="#000" stroke-linejoin="round"/><rect x="891.10165" y="349.97694" width="2.97316" height="3.46868" fill="#fff" stroke="#000" stroke-linejoin="round"/><rect x="905.96744" y="349.97694" width="2.97316" height="3.46868" transform="translate(1814.90804 703.42256) rotate(-180)" fill="#fff" stroke="#000" stroke-linejoin="round"/><rect x="881.19112" y="318.75878" width="37.66" height="30.72263" rx="1.98211" ry="1.98211" fill="#fff" stroke="#000" stroke-linejoin="round"/><rect x="879.20902" y="316.77667" width="41.62421" height="5.94632" fill="#fff" stroke="#000" stroke-linejoin="round"/><rect x="879.20902" y="315.52708" width="41.62421" height="2.24064" fill="#fff" stroke="#000" stroke-linejoin="round"/><path d="M915.555,332.76468c0,7.20114-2.35082,13.61135-6.0168,17.70778H890.504c-3.666-4.09643-6.0168-10.50664-6.0168-17.70778,0-12.38363,6.95916-21.4388,15.53391-21.4388S915.555,320.38105,915.555,332.76468Z" fill="#fff" stroke="#000" stroke-linejoin="round"/><rect x="890.1106" y="387.14141" width="19.82105" height="3.1886" fill="#fff" stroke="#000" stroke-linejoin="round"/><rect x="718.88985" y="224.19742" width="37.23557" height="54.29245" fill="#fff" stroke="#000" stroke-linejoin="round"/><rect x="762.99544" y="224.19742" width="37.23557" height="42.22746" fill="#fff" stroke="#000" stroke-linejoin="round"/><rect x="706.93112" y="224.19742" width="119.80672" height="3.92112" fill="#fff" stroke="#000" stroke-linejoin="round"/><rect x="823.41997" y="220.57792" width="3.31787" height="11.71938" rx="1.65893" ry="1.65893" fill="#fff" stroke="#000" stroke-linejoin="round"/><rect x="706.08795" y="220.57792" width="3.34529" height="11.71938" rx="1.67264" ry="1.67264" fill="#fff" stroke="#000" stroke-linejoin="round"/><rect x="716.20746" y="224.19742" width="37.23557" height="60.32495" fill="#fff" stroke="#000" stroke-linejoin="round"/><rect x="760.58244" y="224.19742" width="37.23557" height="48.25996" fill="#fff" stroke="#000" stroke-linejoin="round"/><line x1="716.20746" y1="278.48987" x2="739.26667" y2="278.48987" fill="#fff" stroke="#000" stroke-linejoin="round"/><line x1="760.33995" y1="266.42488" x2="783.39917" y2="266.42488" fill="#fff" stroke="#000" stroke-linejoin="round"/><line x1="716.20746" y1="272.45738" x2="739.26667" y2="272.45738" fill="#fff" stroke="#000" stroke-linejoin="round"/><line x1="760.33995" y1="260.39239" x2="783.39917" y2="260.39239" fill="#fff" stroke="#000" stroke-linejoin="round"/><circle cx="1115.94659" cy="277.63632" r="9.55317" fill="#fff" stroke="#000" stroke-linecap="round" stroke-linejoin="round"/><path d="M1113.5583,258.39631h4.77659a0,0,0,0,1,0,0v19.10634a2.38829,2.38829,0,0,1-2.38829,2.38829h0a2.38829,2.38829,0,0,1-2.38829-2.38829V258.39631A0,0,0,0,1,1113.5583,258.39631Z" fill="#fff" stroke="#000" stroke-linecap="round" stroke-linejoin="round"/><polygon points="1096.84 261.018 1135.053 261.018 1125.04 242.83 1106.853 242.83 1096.84 261.018" fill="#fff" stroke="#000" stroke-linecap="round" stroke-linejoin="round"/><path d="M435.16314,322.17471c-12.12019-10.76162-29.95775-9.59316-42.07213,0-2.32226,1.839-4.70808,3.43-4.70808,6.246l10.29764,33.34372h41.19064V328.42071C439.87122,325.60467,437.3782,324.14146,435.16314,322.17471Z" fill="#fff" stroke="#000" stroke-linecap="round" stroke-linejoin="round"/><path d="M490.31611,322.17471c12.12019-10.76162,29.95775-9.59316,42.07213,0,2.32227,1.839,4.70808,3.43,4.70808,6.246l-10.29764,33.34372H485.608V328.42071C485.608,325.60467,488.10105,324.14146,490.31611,322.17471Z" fill="#fff" stroke="#000" stroke-linecap="round" stroke-linejoin="round"/><path d="M487.88966,312.18165c-14.60359-14.51332-35.6965-14.51332-50.30009,0-2.54664,2.53092-5.67417,4.3732-5.67417,7.96364l5.40774,43.59479h50.83293l5.40778-43.59478C493.56385,316.55485,490.4363,314.71257,487.88966,312.18165Z" fill="#fff" stroke="#000" stroke-linecap="round" stroke-linejoin="round"/><path d="M527.63274,375.36676H397.8465v-18.3575a644.8392,644.8392,0,0,1,129.78624,0Z" fill="#fff" stroke="#000" stroke-linecap="round" stroke-linejoin="round"/><path d="M483.2891,323.1074c-2.52362,4.507-5.76827,14.06072-5.04724,20.27965" fill="#fff" stroke="#000" stroke-linecap="round" stroke-linejoin="round"/><path d="M442.19015,323.1074c2.52362,4.507,5.76827,14.06072,5.04724,20.27965" fill="#fff" stroke="#000" stroke-linecap="round" stroke-linejoin="round"/><line x1="462.73963" y1="341.64361" x2="462.73963" y2="317.20447" fill="none" stroke="#000" stroke-linecap="round" stroke-linejoin="round"/><path d="M524.51386,333.03857c-1.80574,3.22493-4.12741,10.06094-3.61148,14.5108" fill="#fff" stroke="#000" stroke-linecap="round" stroke-linejoin="round"/><path d="M495.10611,333.03857c1.80574,3.22493,4.1274,10.06094,3.61148,14.5108" fill="#fff" stroke="#000" stroke-linecap="round" stroke-linejoin="round"/><path d="M400.96539,333.03857c1.80574,3.22493,4.12741,10.06094,3.61148,14.5108" fill="#fff" stroke="#000" stroke-linecap="round" stroke-linejoin="round"/><path d="M430.37315,333.03857c-1.80574,3.22493-4.12741,10.06094-3.61148,14.5108" fill="#fff" stroke="#000" stroke-linecap="round" stroke-linejoin="round"/><path d="M540.61136,347.18689v31.74353A11.39877,11.39877,0,0,1,529.22259,390.33H396.25665a11.39877,11.39877,0,0,1-11.38878-11.3996V347.18689a5.54357,5.54357,0,0,1,5.53754-5.54837h4.06665a5.54357,5.54357,0,0,1,5.53754,5.54837v28.18524h125.46V347.18689a5.54357,5.54357,0,0,1,5.53754-5.54837h4.06665A5.54357,5.54357,0,0,1,540.61136,347.18689Z" fill="#fff" stroke="#000" stroke-linecap="round" stroke-linejoin="round"/><rect x="543.97476" y="232.65993" width="106.64592" height="58.60535" fill="#fff" stroke="#000" stroke-linecap="round" stroke-linejoin="round"/><rect x="573.79786" y="209.62788" width="47" height="99.40428" transform="translate(856.62788 -337.96785) rotate(90)" fill="#fff" stroke="#000" stroke-linecap="round" stroke-linejoin="round"/><circle cx="597.29772" cy="287.32264" r="1.5"/><rect x="577.37786" y="351.72252" width="57.93971" height="19.30375" fill="#fff" stroke="#000" stroke-miterlimit="10"/><rect x="577.37786" y="371.02627" width="57.93971" height="19.30375" fill="#fff" stroke="#000" stroke-miterlimit="10"/><line x1="614.53485" y1="357.83537" x2="598.16058" y2="357.83537" fill="none" stroke="#000" stroke-linecap="round" stroke-miterlimit="10"/><line x1="614.53485" y1="377.13912" x2="598.16058" y2="377.13912" fill="none" stroke="#000" stroke-linecap="round" stroke-miterlimit="10"/><line x1="587.27187" y1="346.99844" x2="587.27187" y2="335.02535" fill="#fff" stroke="#000" stroke-linecap="round" stroke-miterlimit="10"/><circle cx="587.27187" cy="334.46198" r="1.94362" fill="#fff" stroke="#000" stroke-linecap="round" stroke-miterlimit="10"/><path d="M586.97411,340.238h30.34132a3.13878,3.13878,0,0,1,3.13878,3.13878v8.34571a0,0,0,0,1,0,0H583.83533a0,0,0,0,1,0,0v-8.34571A3.13878,3.13878,0,0,1,586.97411,340.238Z" fill="#fff" stroke="#000" stroke-linecap="round" stroke-miterlimit="10"/><circle cx="615.38391" cy="344.64262" r="1.35208"/><circle cx="610.65162" cy="344.64262" r="1.35208"/><rect x="775.82565" y="390.33002" width="426.2365" height="201.73823" fill="#fff" stroke="#000" stroke-miterlimit="10"/><rect x="359.74423" y="390.33002" width="416.04053" height="201.73823" fill="#fff" stroke="#000" stroke-miterlimit="10"/><rect x="984.78647" y="390.53108" width="17.07049" height="34.85081" fill="none" stroke="#000" stroke-linecap="round" stroke-miterlimit="10"/><rect x="881.34262" y="517.58103" width="74.20993" height="74.20993" fill="#fff" stroke="#000" stroke-miterlimit="10"/><rect x="1099.90396" y="517.58103" width="74.20993" height="74.20993" fill="#fff" stroke="#000" stroke-miterlimit="10"/><rect x="1099.90396" y="413.49919" width="74.20993" height="104.08184" fill="#fff" stroke="#000" stroke-miterlimit="10"/><rect x="1031.40947" y="537.89073" width="68.49449" height="20.30969" fill="#fff" stroke="#000" stroke-miterlimit="10"/><rect x="1031.40947" y="558.20042" width="68.49449" height="33.59054" fill="#fff" stroke="#000" stroke-miterlimit="10"/><line x1="1072.25737" y1="544.32213" x2="1059.05607" y2="544.32213" fill="none" stroke="#000" stroke-linecap="round" stroke-miterlimit="10"/><rect x="1031.40947" y="517.58103" width="68.49449" height="20.30969" fill="#fff" stroke="#000" stroke-miterlimit="10"/><line x1="1072.25737" y1="524.01243" x2="1059.05607" y2="524.01243" fill="none" stroke="#000" stroke-linecap="round" stroke-miterlimit="10"/><line x1="1072.25737" y1="564.63182" x2="1059.05607" y2="564.63182" fill="none" stroke="#000" stroke-linecap="round" stroke-miterlimit="10"/><rect x="826.52882" y="537.89073" width="54.98035" height="20.30969" fill="#fff" stroke="#000" stroke-miterlimit="10"/><rect x="826.52882" y="558.20042" width="54.98035" height="33.59054" fill="#fff" stroke="#000" stroke-miterlimit="10"/><line x1="859.31732" y1="544.32213" x2="848.72067" y2="544.32213" fill="none" stroke="#000" stroke-linecap="round" stroke-miterlimit="10"/><rect x="826.52882" y="517.58103" width="54.98035" height="20.30969" fill="#fff" stroke="#000" stroke-miterlimit="10"/><line x1="859.31732" y1="524.01243" x2="848.72067" y2="524.01243" fill="none" stroke="#000" stroke-linecap="round" stroke-miterlimit="10"/><line x1="859.31732" y1="564.63182" x2="848.72067" y2="564.63182" fill="none" stroke="#000" stroke-linecap="round" stroke-miterlimit="10"/><line x1="918.44759" y1="517.58103" x2="918.44759" y2="591.79096" fill="none" stroke="#000" stroke-miterlimit="10"/><line x1="923.52293" y1="548.08534" x2="923.52293" y2="561.28664" fill="none" stroke="#000" stroke-linecap="round" stroke-miterlimit="10"/><line x1="1106.12711" y1="494.74007" x2="1106.12711" y2="507.94137" fill="none" stroke="#000" stroke-linecap="round" stroke-miterlimit="10"/><line x1="1106.12711" y1="526.41336" x2="1106.12711" y2="539.61466" fill="none" stroke="#000" stroke-linecap="round" stroke-miterlimit="10"/><line x1="913.37224" y1="548.08534" x2="913.37224" y2="561.28664" fill="none" stroke="#000" stroke-linecap="round" stroke-miterlimit="10"/><rect x="955.19169" y="517.58103" width="76.24621" height="74.20993" fill="none" stroke="#000" stroke-linecap="round" stroke-miterlimit="10"/><rect x="966.28652" y="543.78021" width="54.05655" height="37.38185" fill="none" stroke="#000" stroke-linecap="round" stroke-miterlimit="10"/><line x1="1020.34307" y1="536.48969" x2="966.28652" y2="536.48969" fill="none" stroke="#000" stroke-linecap="round" stroke-miterlimit="10"/><circle cx="969.65419" cy="527.1839" r="2.84508" fill="none" stroke="#000" stroke-linecap="round" stroke-miterlimit="10"/><line x1="969.65419" y1="527.1839" x2="969.65419" y2="522.79773" fill="none" stroke="#000" stroke-linecap="round" stroke-miterlimit="10"/><circle cx="985.60212" cy="527.1839" r="2.84508" fill="none" stroke="#000" stroke-linecap="round" stroke-miterlimit="10"/><line x1="985.60212" y1="527.1839" x2="985.60212" y2="522.79773" fill="none" stroke="#000" stroke-linecap="round" stroke-miterlimit="10"/><circle cx="1001.55005" cy="527.1839" r="2.84508" fill="none" stroke="#000" stroke-linecap="round" stroke-miterlimit="10"/><line x1="1001.55005" y1="527.1839" x2="1001.55005" y2="522.79773" fill="none" stroke="#000" stroke-linecap="round" stroke-miterlimit="10"/><circle cx="1017.49799" cy="527.1839" r="2.84508" fill="none" stroke="#000" stroke-linecap="round" stroke-miterlimit="10"/><line x1="1017.49799" y1="527.1839" x2="1017.49799" y2="522.79773" fill="none" stroke="#000" stroke-linecap="round" stroke-miterlimit="10"/><path d="M1051.19107,517.581h25.60573a4.26762,4.26762,0,0,0,4.26762-4.26762l2.84508-24.18319h-39.83114l2.84509,24.18319A4.26762,4.26762,0,0,0,1051.19107,517.581Z" fill="#fff" stroke="#000" stroke-miterlimit="10"/><path d="M1075.911,491.52084l-1.3363,15.31514c-.19256,2.20693-1.57943,3.87016-3.22711,3.87016h-14.70768c-1.64768,0-3.03455-1.66323-3.22711-3.87016l-1.3363-15.31514" fill="#fff" stroke="#000" stroke-miterlimit="10"/><path d="M1084.0312,489.13022c0-4.51748-8.971-8.17961-20.03727-8.17961s-20.03726,3.66213-20.03726,8.17961" fill="none" stroke="#000" stroke-miterlimit="10"/><path d="M1067.01683,480.95061v-1.896a1.83744,1.83744,0,0,0-1.83745-1.83745h-2.3709a1.83745,1.83745,0,0,0-1.83745,1.83745v1.896" fill="none" stroke="#000" stroke-miterlimit="10"/><path d="M1059.08912,492.1242h9.80962a1.82263,1.82263,0,0,1,1.82263,1.82263v3.28963a1.82263,1.82263,0,0,1-1.82263,1.82263h-9.8096a1.82264,1.82264,0,0,1-1.82264-1.82264v-3.28961A1.82263,1.82263,0,0,1,1059.08912,492.1242Z" fill="none" stroke="#000" stroke-miterlimit="10"/><line x1="1067.01637" y1="503.35562" x2="1060.97103" y2="503.35562" fill="none" stroke="#000" stroke-linecap="round" stroke-miterlimit="10"/><line x1="1067.01637" y1="507.62325" x2="1060.97103" y2="507.62325" fill="none" stroke="#000" stroke-linecap="round" stroke-miterlimit="10"/><polygon points="964.871 448.143 1021.773 448.143 1007.547 425.382 979.096 425.382 964.871 448.143" fill="#fff" stroke="#000" stroke-linecap="round" stroke-miterlimit="10"/><circle cx="1002.37262" cy="454.0698" r="1.42254"/><circle cx="1011.09681" cy="454.0698" r="1.42254"/><circle cx="1019.821" cy="454.0698" r="1.42254"/><rect x="957.75128" y="448.14255" width="71.12704" height="11.38033" fill="none" stroke="#000" stroke-linecap="round" stroke-miterlimit="10"/><line x1="984.78647" y1="401.55434" x2="991.77379" y2="401.55434" fill="none" stroke="#000" stroke-linecap="round" stroke-miterlimit="10"/><line x1="984.78647" y1="407.2445" x2="991.77379" y2="407.2445" fill="none" stroke="#000" stroke-linecap="round" stroke-miterlimit="10"/><line x1="984.78647" y1="412.93466" x2="991.77379" y2="412.93466" fill="none" stroke="#000" stroke-linecap="round" stroke-miterlimit="10"/><line x1="861.95358" y1="513.00613" x2="861.95358" y2="517.58103" fill="none" stroke="#232629" stroke-miterlimit="10"/><line x1="865.0517" y1="491.8528" x2="859.3305" y2="491.8528" fill="none" stroke="#232629" stroke-miterlimit="10"/><line x1="865.0517" y1="496.2829" x2="859.3305" y2="496.2829" fill="none" stroke="#232629" stroke-miterlimit="10"/><rect x="842.14625" y="485.04041" width="22.90545" height="27.96572" fill="none" stroke="#232629" stroke-miterlimit="10"/><line x1="842.14625" y1="502.11107" x2="865.0517" y2="502.11107" fill="none" stroke="#232629" stroke-miterlimit="10"/><polyline points="864.783 491.853 870.897 491.853 870.897 505.684 864.783 505.684" fill="none" stroke="#232629" stroke-miterlimit="10"/><path d="M842.14625,485.04041h-4.58958a.41468.41468,0,0,0-.26794.73117l4.85752,6.44616" fill="none" stroke="#232629" stroke-miterlimit="10"/><path d="M840.1297,513.00613h26.93856a1.76316,1.76316,0,0,1,1.76316,1.76316V517.581a0,0,0,0,1,0,0H838.36654a0,0,0,0,1,0,0v-2.81175A1.76316,1.76316,0,0,1,840.1297,513.00613Z" fill="none" stroke="#232629" stroke-miterlimit="10"/><path d="M903.50325,470.75883h29.11412a6.15269,6.15269,0,0,1,6.15269,6.15269V517.581a0,0,0,0,1,0,0H897.35056a0,0,0,0,1,0,0V476.91151A6.15269,6.15269,0,0,1,903.50325,470.75883Z" fill="none" stroke="#232629" stroke-miterlimit="10"/><rect x="904.67942" y="485.04041" width="26.76178" height="26.53179" fill="none" stroke="#232629" stroke-miterlimit="10"/><circle cx="906.99104" cy="476.71334" r="1.42254" fill="#232629"/><circle cx="913.03684" cy="476.71334" r="1.42254" fill="#232629"/><line x1="929.12957" y1="476.71334" x2="920.5054" y2="476.71334" fill="none" stroke="#232629" stroke-linecap="round" stroke-miterlimit="10"/><path d="M910.9329,498.76852h14.25481a0,0,0,0,1,0,0v7.25509a5.03816,5.03816,0,0,1-5.03816,5.03816h-4.17848a5.03816,5.03816,0,0,1-5.03816-5.03816v-7.25509A0,0,0,0,1,910.9329,498.76852Z" fill="none" stroke="#232629" stroke-miterlimit="10"/><polygon points="917.273 491.503 918.848 491.503 920.27 485.04 915.851 485.04 917.273 491.503" fill="none" stroke="#232629" stroke-miterlimit="10"/><path d="M910.9329,503.83052c3.79344-1.77817,10.22451,1.54109,13.88459,0" fill="none" stroke="#232629" stroke-miterlimit="10"/><path d="M924.81749,505.29769h1.02244a2.27705,2.27705,0,0,0,2.48945-1.97377V502.337a2.27705,2.27705,0,0,0-2.48945-1.97378h-1.02244" fill="none" stroke="#232629" stroke-miterlimit="10"/><rect x="691" y="509.09858" width="58.83119" height="74.1273" fill="#fff" stroke="#000" stroke-miterlimit="10"/><rect x="715.7093" y="497.30458" width="9.41299" height="47.06496" transform="translate(1241.25285 -199.57873) rotate(90)" fill="#fff" stroke="#000" stroke-miterlimit="10"/><rect x="715.7093" y="506.71757" width="9.41299" height="47.06496" transform="translate(1250.66584 -190.16574) rotate(90)" fill="#fff" stroke="#000" stroke-miterlimit="10"/><rect x="712.17943" y="519.62367" width="16.47273" height="47.06496" transform="translate(1263.57194 -177.25965) rotate(90)" fill="#fff" stroke="#000" stroke-miterlimit="10"/><rect x="707.31104" y="540.96479" width="26.2095" height="47.06496" transform="translate(1284.91306 -155.91853) rotate(90)" fill="#fff" stroke="#000" stroke-miterlimit="10"/><rect x="698.42744" y="583.22588" width="3.42186" height="7.73572" rx="1.60189" ry="1.60189" fill="#fff" stroke="#000" stroke-miterlimit="10"/><path d="M696.481,583.22588h7.31483a0,0,0,0,1,0,0v.25427a2.33371,2.33371,0,0,1-2.33371,2.33371h-2.6474a2.33371,2.33371,0,0,1-2.33371-2.33371v-.25427A0,0,0,0,1,696.481,583.22588Z" fill="#fff" stroke="#000" stroke-miterlimit="10"/><rect x="738.98189" y="583.22588" width="3.42186" height="7.73572" rx="1.60189" ry="1.60189" transform="translate(1481.38565 1174.18748) rotate(-180)" fill="#fff" stroke="#000" stroke-miterlimit="10"/><path d="M739.36912,583.22588h2.6474a2.33371,2.33371,0,0,1,2.33371,2.33371v.25427a0,0,0,0,1,0,0h-7.31483a0,0,0,0,1,0,0v-.25427A2.33371,2.33371,0,0,1,739.36912,583.22588Z" transform="translate(1481.38565 1169.03975) rotate(-180)" fill="#fff" stroke="#000" stroke-miterlimit="10"/><line x1="724.27889" y1="555.24429" x2="716.5527" y2="555.24429" fill="none" stroke="#000" stroke-linecap="round" stroke-miterlimit="10"/><line x1="724.27889" y1="538.44557" x2="716.5527" y2="538.44557" fill="none" stroke="#000" stroke-linecap="round" stroke-miterlimit="10"/><line x1="724.42597" y1="528.89469" x2="716.69978" y2="528.89469" fill="none" stroke="#000" stroke-linecap="round" stroke-miterlimit="10"/><line x1="724.42597" y1="519.55524" x2="716.69978" y2="519.55524" fill="none" stroke="#000" stroke-linecap="round" stroke-miterlimit="10"/><rect x="704.70749" y="497.06543" width="30.08287" height="12.03315" fill="#fff" stroke="#000" stroke-linecap="round" stroke-miterlimit="10"/><path d="M737.1388,492.28526v3.74154a1.22488,1.22488,0,0,1-1.22488,1.22488h-32.33a1.22488,1.22488,0,0,1-1.22488-1.22488v-3.74154a1.56569,1.56569,0,0,1,1.56569-1.56569h31.64836A1.56569,1.56569,0,0,1,737.1388,492.28526Z" fill="#fff" stroke="#000" stroke-linecap="round" stroke-miterlimit="10"/><path d="M725.44549,490.71957v-3.13766a1.961,1.961,0,0,0-1.961-1.961h-7.471a1.961,1.961,0,0,0-1.961,1.961v3.13766" fill="none" stroke="#000" stroke-linecap="round" stroke-miterlimit="10"/><rect x="717.79744" y="494.77433" width="3.90299" height="4.5822" rx="0.59098" ry="0.59098" fill="#fff" stroke="#000" stroke-linecap="round" stroke-miterlimit="10"/><rect x="510.81976" y="390.53108" width="4.30659" height="25.83953" fill="none" stroke="#000" stroke-linecap="round" stroke-miterlimit="10"/><path d="M515.12644,415.89471a21.08129,21.08129,0,0,0,2.8262,10.22815c1.615,2.557.80748,8.344-4.9795,8.344s-6.59446-5.787-4.97949-8.344a21.08129,21.08129,0,0,0,2.8262-10.22815Z" fill="#fff" stroke="#000" stroke-linecap="round" stroke-miterlimit="10"/><rect x="508.66647" y="412.66477" width="8.61318" height="6.45988" rx="0.93221" ry="0.93221" fill="#fff" stroke="#000" stroke-linecap="round" stroke-miterlimit="10"/><line x1="508.66647" y1="437.00931" x2="506.34935" y2="439.32643" fill="#fff" stroke="#000" stroke-linecap="round" stroke-miterlimit="10"/><line x1="517.27982" y1="437.00931" x2="519.59694" y2="439.32643" fill="#fff" stroke="#000" stroke-linecap="round" stroke-miterlimit="10"/><line x1="512.97305" y1="438.64671" x2="512.97305" y2="441.42805" fill="#fff" stroke="#000" stroke-linecap="round" stroke-miterlimit="10"/><rect x="553.7502" y="422.61747" width="132.98573" height="75.28511" fill="none" stroke="#000" stroke-linecap="round" stroke-miterlimit="10"/><circle cx="562.74932" cy="428.91623" r="0.55411"/><circle cx="571.61503" cy="428.91623" r="0.55411"/><circle cx="580.48075" cy="428.91623" r="0.55411"/><circle cx="589.34646" cy="428.91623" r="0.55411"/><circle cx="598.21218" cy="428.91623" r="0.55411"/><circle cx="607.07789" cy="428.91623" r="0.55411"/><circle cx="615.94361" cy="428.91623" r="0.55411"/><circle cx="624.80932" cy="428.91623" r="0.55411"/><circle cx="633.67504" cy="428.91623" r="0.55411"/><circle cx="642.54076" cy="428.91623" r="0.55411"/><circle cx="651.40647" cy="428.91623" r="0.55411"/><circle cx="660.27219" cy="428.91623" r="0.55411"/><circle cx="669.1379" cy="428.91623" r="0.55411"/><circle cx="678.00362" cy="428.91623" r="0.55411"/><circle cx="562.74932" cy="437.78195" r="0.55411"/><circle cx="571.61503" cy="437.78195" r="0.55411"/><circle cx="580.48075" cy="437.78195" r="0.55411"/><circle cx="589.34646" cy="437.78195" r="0.55411"/><circle cx="598.21218" cy="437.78195" r="0.55411"/><circle cx="607.07789" cy="437.78195" r="0.55411"/><circle cx="615.94361" cy="437.78195" r="0.55411"/><circle cx="624.80932" cy="437.78195" r="0.55411"/><circle cx="633.67504" cy="437.78195" r="0.55411"/><circle cx="642.54076" cy="437.78195" r="0.55411"/><circle cx="651.40647" cy="437.78195" r="0.55411"/><circle cx="660.27219" cy="437.78195" r="0.55411"/><circle cx="669.1379" cy="437.78195" r="0.55411"/><circle cx="678.00362" cy="437.78195" r="0.55411"/><circle cx="562.74932" cy="446.64766" r="0.55411"/><circle cx="571.61503" cy="446.64766" r="0.55411"/><circle cx="580.48075" cy="446.64766" r="0.55411"/><circle cx="589.34646" cy="446.64766" r="0.55411"/><circle cx="598.21218" cy="446.64766" r="0.55411"/><circle cx="607.07789" cy="446.64766" r="0.55411"/><circle cx="615.94361" cy="446.64766" r="0.55411"/><circle cx="624.80932" cy="446.64766" r="0.55411"/><circle cx="633.67504" cy="446.64766" r="0.55411"/><circle cx="642.54076" cy="446.64766" r="0.55411"/><circle cx="651.40647" cy="446.64766" r="0.55411"/><circle cx="660.27219" cy="446.64766" r="0.55411"/><circle cx="669.1379" cy="446.64766" r="0.55411"/><circle cx="678.00362" cy="446.64766" r="0.55411"/><circle cx="562.74932" cy="455.51338" r="0.55411"/><circle cx="571.61503" cy="455.51338" r="0.55411"/><circle cx="580.48075" cy="455.51338" r="0.55411"/><circle cx="589.34646" cy="455.51338" r="0.55411"/><circle cx="598.21218" cy="455.51338" r="0.55411"/><circle cx="607.07789" cy="455.51338" r="0.55411"/><circle cx="615.94361" cy="455.51338" r="0.55411"/><circle cx="624.80932" cy="455.51338" r="0.55411"/><circle cx="633.67504" cy="455.51338" r="0.55411"/><circle cx="642.54076" cy="455.51338" r="0.55411"/><circle cx="651.40647" cy="455.51338" r="0.55411"/><circle cx="660.27219" cy="455.51338" r="0.55411"/><circle cx="669.1379" cy="455.51338" r="0.55411"/><circle cx="678.00362" cy="455.51338" r="0.55411"/><circle cx="562.74932" cy="464.37909" r="0.55411"/><circle cx="571.61503" cy="464.37909" r="0.55411"/><circle cx="580.48075" cy="464.37909" r="0.55411"/><circle cx="589.34646" cy="464.37909" r="0.55411"/><circle cx="598.21218" cy="464.37909" r="0.55411"/><circle cx="607.07789" cy="464.37909" r="0.55411"/><circle cx="615.94361" cy="464.37909" r="0.55411"/><circle cx="624.80932" cy="464.37909" r="0.55411"/><circle cx="633.67504" cy="464.37909" r="0.55411"/><circle cx="642.54076" cy="464.37909" r="0.55411"/><circle cx="651.40647" cy="464.37909" r="0.55411"/><circle cx="660.27219" cy="464.37909" r="0.55411"/><circle cx="669.1379" cy="464.37909" r="0.55411"/><circle cx="678.00362" cy="464.37909" r="0.55411"/><circle cx="562.74932" cy="473.24481" r="0.55411"/><circle cx="571.61503" cy="473.24481" r="0.55411"/><circle cx="580.48075" cy="473.24481" r="0.55411"/><circle cx="589.34646" cy="473.24481" r="0.55411"/><circle cx="598.21218" cy="473.24481" r="0.55411"/><circle cx="607.07789" cy="473.24481" r="0.55411"/><circle cx="615.94361" cy="473.24481" r="0.55411"/><circle cx="624.80932" cy="473.24481" r="0.55411"/><circle cx="633.67504" cy="473.24481" r="0.55411"/><circle cx="642.54076" cy="473.24481" r="0.55411"/><circle cx="651.40647" cy="473.24481" r="0.55411"/><circle cx="660.27219" cy="473.24481" r="0.55411"/><circle cx="669.1379" cy="473.24481" r="0.55411"/><circle cx="678.00362" cy="473.24481" r="0.55411"/><circle cx="562.74932" cy="482.11052" r="0.55411"/><circle cx="571.61503" cy="482.11052" r="0.55411"/><circle cx="580.48075" cy="482.11052" r="0.55411"/><circle cx="589.34646" cy="482.11052" r="0.55411"/><circle cx="598.21218" cy="482.11052" r="0.55411"/><circle cx="607.07789" cy="482.11052" r="0.55411"/><circle cx="615.94361" cy="482.11052" r="0.55411"/><circle cx="624.80932" cy="482.11052" r="0.55411"/><circle cx="633.67504" cy="482.11052" r="0.55411"/><circle cx="642.54076" cy="482.11052" r="0.55411"/><circle cx="651.40647" cy="482.11052" r="0.55411"/><circle cx="660.27219" cy="482.11052" r="0.55411"/><circle cx="669.1379" cy="482.11052" r="0.55411"/><circle cx="678.00362" cy="482.11052" r="0.55411"/><circle cx="562.74932" cy="490.97624" r="0.55411"/><circle cx="571.61503" cy="490.97624" r="0.55411"/><circle cx="580.48075" cy="490.97624" r="0.55411"/><circle cx="589.34646" cy="490.97624" r="0.55411"/><circle cx="598.21218" cy="490.97624" r="0.55411"/><circle cx="607.07789" cy="490.97624" r="0.55411"/><circle cx="615.94361" cy="490.97624" r="0.55411"/><circle cx="624.80932" cy="490.97624" r="0.55411"/><circle cx="633.67504" cy="490.97624" r="0.55411"/><circle cx="642.54076" cy="490.97624" r="0.55411"/><circle cx="651.40647" cy="490.97624" r="0.55411"/><circle cx="660.27219" cy="490.97624" r="0.55411"/><circle cx="669.1379" cy="490.97624" r="0.55411"/><circle cx="678.00362" cy="490.97624" r="0.55411"/><polygon points="620.331 441.671 628.924 450.264 627.647 450.327 625.333 450.435 624.369 452.319 623.813 453.404 623.489 453.578 622.308 453.569 620.193 453.557 619.228 455.441 618.925 456.039 618.588 456.7 617.714 456.697 617.173 456.691 615.058 456.679 614.094 458.562 614.037 458.68 613.451 459.824 612.036 459.815 611.936 459.812 609.924 459.8 609.148 461.32 608.962 461.681 608.316 462.946 606.898 462.94 606.159 462.934 604.786 462.925 604.257 463.958 603.824 464.806 603.182 466.068 601.76 466.058 600.381 466.049 599.651 466.046 599.369 466.599 598.69 467.927 598.044 469.186 596.683 469.147 594.754 469.087 594.204 469.072 593.489 468.513 620.331 441.671" fill="#fff" stroke="#000" stroke-linecap="round" stroke-linejoin="round"/><path d="M630.24858,440.46664h0c2.406,2.406,3.00689,5.706.60089,8.112l-1.805,1.80505-8.71289-8.71289,3.65266-3.65266a2.69823,2.69823,0,0,1,3.81587,0l2.44851,2.44851" fill="#fff" stroke="#000" stroke-linecap="round" stroke-linejoin="round"/><path d="M628.72228,447.29961l.77314-.77314c1.495-1.495.56389-3.48718-.68789-4.739l-1.769-1.769a1.26939,1.26939,0,0,0-1.78367-.10514l-1.9594,1.95941Z" fill="#fff" stroke="#000" stroke-linecap="round" stroke-linejoin="round"/><path d="M669.35663,479.74509l-6.62727,2.23033c-4.233-11.7449-5.0864-17.44851-5.37191-22.53908l2.65091-.89214C662.8587,462.77161,665.62733,467.83068,669.35663,479.74509Z" fill="#fff" stroke="#000" stroke-miterlimit="10"/><path d="M662.75656,435.85464l1.67274,4.97045-1.98818.6691c-1.65681.55759-1.54848-.21666-3.2053.34093s-4.09979,2.23189-2.92106,5.73439l3.69342,10.97475-2.65091.89214-4.76733-14.16579c-.89213-2.65091-8.51055,2.86412-9.49508,6.51549.21038-7.95773,3.75625-10.57867,9.05807-12.36293,2.6509-.89213,4.09106.09877,5.96772-.90169s.65955-1.32864,2.64773-1.99774Z" fill="#fff" stroke="#000" stroke-linecap="round" stroke-linejoin="round"/><line x1="359.74423" y1="592.06824" y2="592.06824" fill="#fff" stroke="#000" stroke-miterlimit="10"/><polygon points="1225.43 97 1225.43 112 921.05 15.5 616.67 112 616.67 97 921.05 0.5 1225.43 97" fill="#fff" stroke="#000" stroke-linejoin="round"/><polygon points="642.47 180.42 642.47 195.4 561.85 195.4 561.85 195.42 327.833 269.497 327.833 254.497 561.85 180.42 642.47 180.42" fill="#fff" stroke="#000" stroke-linejoin="round"/><path d="M549.41176,506.02543q-.14794-.38266-.29564-.7654a2.29161,2.29161,0,0,0-.73366-.95014c-.29235-1.56058.11026-3.44747.14289-4.906.04779-2.13125.02276-4.263-.02428-6.39394-.07815-3.54362.03262-7.19379-.74555-10.66806-.58243-2.60094-4.57824-1.5002-3.99556,1.10151,1.003,4.47746.677,9.56674.6454,14.13417-.023,3.31855-.77387,6.74313.69826,9.81149a1.92584,1.92584,0,0,0,1.57607.98732C548.15384,508.90943,550.11786,507.85351,549.41176,506.02543Z" fill="#fff"/><path d="M527.46321,590.89252a30.93189,30.93189,0,0,1-29.63037-39.83468l.41339-1.36958L487.364,555.62807a.548.548,0,0,1-.54165.00115l-.6596-.35041.50157-.54165a.6566.6566,0,0,1,.13971-.12482l35.60226-19.433,3.33349-22.77216-12.7488,4.27021-28.50127,19.48791-.00343,11.02308-.06871.268.03779.14085a1.02527,1.02527,0,0,0,.04695.1294l1.35584,7.88082,2.77352,16.0193a.58052.58052,0,0,1-.57372.67907H448.08358a.61711.61711,0,0,1-.16147-.02863l-.158-.07673a.51152.51152,0,0,1-.12368-.11222s-.03321-.04466-.03779-.05268a.71481.71481,0,0,1-.07329-.13856l-2.43455-7.78577-.52562.1168-.14887.03894-9.40729-.00229-.07787.49584a30.90588,30.90588,0,1,1-2.0704-16.85754l.19238.45348,6.63034-1.5425-3.21783-10.29362-48.41518-33.73913a.5768.5768,0,0,1-.20842-.6825.56437.56437,0,0,1,.53593-.37446L415.99231,505.17a.6033.6033,0,0,1,.221.07558l22.36793,13.15073.55195-.04352c2.16774-.17062,9.15078-.773,14.46879-1.23445l.88862-.07673,7.906-13.00988a.57813.57813,0,0,1,.36873-.26681l21.01667-4.63322a.6827.6827,0,0,1,.13169-.01489l24.02379,5.25961-2.82848-7.97472-13.49542-3.61176a.582.582,0,0,1-.41-.71113.57624.57624,0,0,1,.552-.43172.58378.58378,0,0,1,.158.02176l12.92057,3.45831-8.2175-11.5464a.5807.5807,0,0,1,.4718-.91611.56809.56809,0,0,1,.17635.02748l26.24421,8.33888a.58567.58567,0,0,1,.36187.33323l7.70561,18.42981a.58013.58013,0,0,1-.3527.77526l-4.25189,1.4234-2.517,17.19421.72717-.05039c.83938-.05954,1.58486-.08817,2.2811-.08817a30.9221,30.9221,0,0,1,0,61.84418Zm-27.61379-42.08029-.07787.197a29.76321,29.76321,0,1,0,27.69166-18.79854c-.8932,0-1.80931.04123-2.71969.12139l-.46149.04122-.75006,5.12334.85083,2.45288.47065-.05841a21.6121,21.6121,0,0,1,2.60976-.18436,22.3132,22.3132,0,1,1-14.13555,5.07409l-.65158-.96764Zm-95.43329-18.60158a29.75982,29.75982,0,1,0,29.29142,34.73768l.11566-.68364H426.113l-.09962.46378a22.00756,22.00756,0,0,1-21.68658,17.50568,22.26375,22.26375,0,1,1,19.85092-32.27106l.20727.41225,7.52583-1.75091-.284-.647A29.74531,29.74531,0,0,0,404.41613,530.21065Zm-.08932,8.65722a21.10205,21.10205,0,1,0,20.4441,26.12054l.17406-.72372H404.92572a4.61829,4.61829,0,0,1-1.06612-9.11185l19.3734-4.50954-.363-.67563A21.04894,21.04894,0,0,0,404.32681,538.86787Zm111.858,3.27624a21.07678,21.07678,0,1,0,11.27843-3.27624c-.576,0-1.21727.03665-1.95818.11108l-.73861.07329,6.64064,19.1501a3.94865,3.94865,0,0,1,.21414,1.35011,4.2055,4.2055,0,0,1-2.81932,3.99195,4.13812,4.13812,0,0,1-1.36157.23131,4.21415,4.21415,0,0,1-3.9782-2.83535L516.81,541.75018Zm-66.24036,29.00055h37.423l-3.9908-23.06875Zm-1.54135-.34354,34.16168-23.57376a.56686.56686,0,0,1,.25307-.08245l.50959-.06871V535.8596a.57809.57809,0,0,1,.25307-.47752l28.45318-19.457-3.89117-10.967-.61036.355a.54881.54881,0,0,1-.26681.09046.53065.53065,0,0,1-.12482-.01488l-23.23136-5.09585-20.65023,4.55191-7.93006,13.04882a.57632.57632,0,0,1-.44317.27826l-.5176.04466c-9.45882.82679-13.776,1.20354-15.62079,1.20354a3.86964,3.86964,0,0,1-.82335-.04924l-22.19387-13.06256-18.471-2.30974-1.14514,2.98308,41.01417,28.58258.30231-.134a.556.556,0,0,1,.23132-.05268h26.44347a.58116.58116,0,1,1,0,1.16231H437.69148ZM404.12183,556.282a3.45779,3.45779,0,0,0,.80389,6.82042H444.781l-4.74544-15.17762ZM517.204,539.342l.40767,1.17949.03893.06069a.5168.5168,0,0,1,.09734.27254l.00572.07787L524.5603,560.559a3.02974,3.02974,0,0,0,5.89859-1.00658,2.70993,2.70993,0,0,0-.14543-.95847l-7.69875-22.20532Zm-11.73306-45.32331a.56584.56584,0,0,1,.07214.13741l7.543,21.26517,17.17932-5.75431L522.901,492.05474l-24.3284-7.72966Z"/><rect x="356.74423" y="422.06824" width="6" height="170" fill="#fff" stroke="#000" stroke-miterlimit="10"/><rect x="307.06766" y="358.31213" width="8.59939" height="8.59939" transform="translate(-139.5906 204.26445) rotate(-30)" fill="#fff" stroke="#000" stroke-miterlimit="10"/><rect x="310.19771" y="342.01735" width="38.30603" height="20.42355" transform="translate(-131.98993 211.86512) rotate(-30)" fill="#fff" stroke="#000" stroke-miterlimit="10"/><polyline points="334.689 361.14 339.521 368.83 359.744 368.83" fill="none" stroke="#000" stroke-miterlimit="10"/><path d="M93.09561,361.438a9.11121,9.11121,0,0,0,9.1006-9.1006.4961.4961,0,0,0-.9922,0,8.1084,8.1084,0,0,1-16.2168,0,.4961.4961,0,0,0-.9922,0A9.11121,9.11121,0,0,0,93.09561,361.438Z" stroke="#000" stroke-miterlimit="10"/><path d="M133.63071,369.79934a.49589.49589,0,0,0,.4961-.4961V326.67819a19.17235,19.17235,0,0,0-38.3447,0v.834a.4961.4961,0,1,0,.9922,0v-.834a18.1797,18.1797,0,1,1,36.3594,0l.0009,42.62505A.49589.49589,0,0,0,133.63071,369.79934Z" stroke="#000" stroke-miterlimit="10"/><path d="M139.99791,369.79934h0a.49621.49621,0,0,0,.4961-.4961V326.67819a25.53955,25.53955,0,0,0-51.0791,0v.7022a.4961.4961,0,1,0,.9922,0v-.7022a24.54685,24.54685,0,0,1,49.0937,0l.001,42.62505A.49621.49621,0,0,0,139.99791,369.79934Z" stroke="#000" stroke-miterlimit="10"/><path d="M85.577,339.357a.49589.49589,0,0,0,.4961-.4961v-4.4815a7.0215,7.0215,0,1,1,14.043,0v4.4815a.4961.4961,0,1,0,.9922,0v-4.4815a8.0137,8.0137,0,1,0-16.0274,0v4.4815A.49589.49589,0,0,0,85.577,339.357Z" stroke="#000" stroke-miterlimit="10"/><path d="M85.08091,334.37939a8.0137,8.0137,0,1,1,16.0274,0,.49589.49589,0,0,1-.4961.4961H85.577A.49589.49589,0,0,1,85.08091,334.37939Zm8.0127-7.0224a7.03022,7.03022,0,0,0-7.0029,6.5263h14.0078A7.03139,7.03139,0,0,0,93.09361,327.357Z" stroke="#000" stroke-miterlimit="10"/><path d="M72.60052,347.39109a.4962.4962,0,0,1,.3095-.4599l12.38669-8.4795a.49726.49726,0,0,1,.2803-.0869h15.0352a.49671.49671,0,0,1,.2802.0869l12.4581,8.5303a.49612.49612,0,0,1-.2803.9052H73.11612a.08515.08515,0,0,1-.0196,0A.49574.49574,0,0,1,72.60052,347.39109Zm27.85839-8.0341H85.73031l-11.01169,7.538h36.749Z" stroke="#000" stroke-miterlimit="10"/><path d="M72.62,352.33639v-4.9453a.49589.49589,0,0,1,.4961-.4961h39.95409a.49589.49589,0,0,1,.4961.4961v4.9453a.49583.49583,0,0,1-.4961.4961H73.11612A.49583.49583,0,0,1,72.62,352.33639Zm39.95409-4.4492H73.61222v3.9532h38.96189Z" stroke="#000" stroke-miterlimit="10"/><path d="M148.79281,584.94879a.49583.49583,0,0,0,.4961-.4961v-59.8946a.4961.4961,0,1,0-.9922,0v59.8946A.49589.49589,0,0,0,148.79281,584.94879Z" stroke="#000" stroke-miterlimit="10"/><path d="M124.83581,584.94879a.49557.49557,0,0,0,.4961-.4961v-59.8946a.4961.4961,0,0,0-.9922,0v59.8946A.49557.49557,0,0,0,124.83581,584.94879Z" stroke="#000" stroke-miterlimit="10"/><path d="M143.18441,513.38874a.491.491,0,0,0,.4961-.48619V374.79189a.4962.4962,0,0,0-.9922,0V512.90255A.491.491,0,0,0,143.18441,513.38874Z" stroke="#000" stroke-miterlimit="10"/><path d="M130.44131,513.38394a.4907.4907,0,0,0,.4961-.4862V374.723a.4962.4962,0,0,0-.9922,0V512.89774A.4907.4907,0,0,0,130.44131,513.38394Z" stroke="#000" stroke-miterlimit="10"/><path d="M146.16741,518.70836a.33407.33407,0,0,0,.1113-.01885.79605.79605,0,0,0,.3725-.88269c-.3955-2.55977-2.0141-4.41808-3.8486-4.41808h-11.9775c-1.8145,0-3.3877,1.75827-3.8243,4.27455a.81437.81437,0,0,0,.3565.89724c.2685.10286.5361-.13626.6045-.52914.3242-1.86691,1.501-3.16995,2.8633-3.16995h11.9775c1.3765,0,2.5884,1.37695,2.8818,3.27578C145.73721,518.47786,145.94131,518.70836,146.16741,518.70836Z" stroke="#000" stroke-miterlimit="10"/><path d="M121.39051,521.47119a3.58736,3.58736,0,0,1,3.584-3.583h23.6787a3.583,3.583,0,1,1,0,7.166h-23.6787A3.58736,3.58736,0,0,1,121.39051,521.47119Zm3.584-2.5908a2.5908,2.5908,0,1,0,0,5.1816h23.6787a2.5908,2.5908,0,1,0,0-5.1816Z" stroke="#000" stroke-miterlimit="10"/><path d="M117.45011,592.48289c0-4.6416,3.3134-8.417,7.3857-8.417h23.957c4.0713,0,7.3838,3.7754,7.3838,8.417a.49583.49583,0,0,1-.4961.4961h-37.7343A.49551.49551,0,0,1,117.45011,592.48289Zm31.3427-7.4248h-23.957c-3.3818,0-6.1592,3.0655-6.3799,6.9287h36.7144C154.95011,588.12359,152.17371,585.05809,148.79281,585.05809Z" stroke="#000" stroke-miterlimit="10"/><path d="M127.60441,372.39109a2.8414,2.8414,0,0,1,2.8369-2.8398h12.7431a2.83885,2.83885,0,1,1,0,5.6777h-12.7431A2.84035,2.84035,0,0,1,127.60441,372.39109Zm2.8369-1.8476a1.84665,1.84665,0,0,0,0,3.6933h12.7431a1.84665,1.84665,0,1,0,0-3.6933Z" stroke="#000" stroke-miterlimit="10"/><path d="M1095.47205,307.0714v45.977H963.13663v-45.977c33.87156,0,31.50843-17.24138,66.16771-17.24138S1061.60048,307.0714,1095.47205,307.0714Z" fill="#fff" stroke="#000" stroke-miterlimit="10"/><path d="M973.49805,350.88275V322.62592a6.24412,6.24412,0,0,1,6.2373-6.23731h39.69336a6.24391,6.24391,0,0,1,6.23633,6.23731v28.25683Z" fill="#fff"/><path d="M1019.42822,316.88867a5.74347,5.74347,0,0,1,5.73682,5.73685v27.7576h-51.1665v-27.7576a5.74347,5.74347,0,0,1,5.73681-5.73685h39.69287m0-1H979.73535a6.73678,6.73678,0,0,0-6.73681,6.73685v28.7576h53.1665v-28.7576a6.73679,6.73679,0,0,0-6.73682-6.73685Z"/><path d="M1032.94336,350.88275V322.62592a6.24412,6.24412,0,0,1,6.2373-6.23731h39.69239a6.24412,6.24412,0,0,1,6.2373,6.23731v28.25683Z" fill="#fff"/><path d="M1078.87354,316.88867a5.74347,5.74347,0,0,1,5.73681,5.73685v27.7576h-51.167v-27.7576a5.74347,5.74347,0,0,1,5.73682-5.73685h39.69336m0-1h-39.69336a6.73679,6.73679,0,0,0-6.73682,6.73685v28.7576h53.167v-28.7576a6.73678,6.73678,0,0,0-6.73681-6.73685Z"/><path d="M1093.14648,389.33l-1.08886-2.12891c-2.124-4.13769-7.04785-6.81152-12.54395-6.81152H979.0957c-5.49707,0-10.4209,2.67383-12.54492,6.81054L965.46191,389.33H952.6084v-24.543H1106V389.33Z" fill="#fff"/><path d="M1105.5,365.28723V388.83h-12.04736l-.95069-1.85767c-2.20849-4.30237-7.30664-7.08234-12.98877-7.08234H979.0957c-5.68164,0-10.78027,2.78-12.98974,7.0835l-.9502,1.85651H953.10889V365.28723H1105.5m1-1H952.10889V389.83h13.65869l1.22851-2.401c2.03272-3.95911,6.80616-6.539,12.09961-6.539h100.41748c5.29346,0,10.0669,2.5799,12.09912,6.539l1.229,2.401H1106.5V364.28723Z"/><path d="M952.6084,365.06439V354.86224c0-6.499,6.57519-11.78613,14.65625-11.78613h124.08008c8.08105,0,14.65527,5.28711,14.65527,11.78613v10.20215Z" fill="#fff"/><path d="M1091.34424,343.57587c7.80566,0,14.15576,5.06292,14.15576,11.28607v9.70245H953.10889v-9.70245c0-6.22315,6.35009-11.28607,14.15576-11.28607h124.07959m0-1H967.26465c-8.36572,0-15.15576,5.50451-15.15576,12.28607v10.70245H1106.5V354.86194c0-6.78156-6.79-12.28607-15.15576-12.28607Z"/><path d="M574.35118,468.1294V447.61521c0-3.02668,2.01779-3.02668,2.69038-5.71707.752-3.008-3.02668-5.71707-2.35408-4.70817s1.34519,5.38077-2.35409,5.71707-3.02668-6.38967-1.68149-7.39856c-1.0089,0-3.363,2.01778-3.363,5.38077s3.02668,4.37187,3.02668,6.726V468.1294c0,3.02668-2.01779,3.02668-2.69038,5.71707-.752,3.008,3.02668,5.71707,2.35408,4.70817s-1.34519-5.38077,2.35409-5.71707,3.02668,6.38967,1.68149,7.39856c1.0089,0,3.363-2.01778,3.363-5.38077S574.35118,470.48349,574.35118,468.1294Z" fill="#fff" stroke="#000" stroke-linecap="round" stroke-linejoin="round"/><path d="M399.625,495.04926l-7.9375-1.34424,6.75073,4.647.00952-.02423a.494.494,0,0,0,.7356-.27673c.11914-.4.21655-.817.36108-1.20826a3.90676,3.90676,0,0,1,.47266-.92889A.52772.52772,0,0,0,399.625,495.04926Z" fill="#fff"/><rect x="1145.49329" y="384.9895" width="27.89113" height="4.40386" fill="none" stroke="#232629" stroke-linecap="round" stroke-linejoin="round"/><polygon points="1156.503 384.989 1162.375 384.989 1163.843 370.31 1155.035 370.31 1156.503 384.989" fill="none" stroke="#232629" stroke-linecap="round" stroke-linejoin="round"/><rect x="1144.35167" y="278.84683" width="30.63171" height="91.46313" rx="3.01529" ry="3.01529" fill="none" stroke="#232629" stroke-linecap="round" stroke-linejoin="round"/><rect x="1147.38103" y="281.81233" width="24.573" height="15.34576" rx="1.5" ry="1.5" fill="none" stroke="#232629" stroke-linecap="round" stroke-linejoin="round"/><path d="M1150.40332,292.71869l3.02246-2.30664c.76074-.57715,1.03809-.96875,1.03809-1.45313a.805.805,0,0,0-.90039-.81933c-.542,0-.96875.31152-1.60352,1.03808l-1.51074-1.25781a3.73894,3.73894,0,0,1,3.28808-1.73047c1.76465,0,2.97559,1.04981,2.97559,2.59571,0,1.292-.65723,1.97265-1.86816,2.82617l-1.38477.96972h3.334v1.82227h-6.39063Z" fill="#232629"/><path d="M1161.48633,288.20892h-3.73828v-1.88086h6.21777v1.68457l-3.56445,6.39063h-2.46875Z" fill="#232629"/><path d="M1164.91992,288.289a2.09994,2.09994,0,0,1,4.19922.02344,2.10046,2.10046,0,0,1-4.19922-.02344Zm3.06836,0a.96957.96957,0,1,0-1.93848.02344.96937.96937,0,1,0,1.93848-.02344Z" fill="#232629"/><circle cx="1149.30196" cy="302.31875" r="1.83494" fill="none" stroke="#232629" stroke-linecap="round" stroke-linejoin="round"/><circle cx="1155.90775" cy="302.31875" r="1.83494" fill="none" stroke="#232629" stroke-linecap="round" stroke-linejoin="round"/><circle cx="1162.51355" cy="302.31875" r="1.83494" fill="none" stroke="#232629" stroke-linecap="round" stroke-linejoin="round"/></g></g></svg>