<svg id="Capa_1" enable-background="new 0 0 512 512" height="512" viewBox="0 0 512 512" width="512" xmlns="http://www.w3.org/2000/svg"><g><g><g><g><g><g><g><g><g><g><g><g><g><g><g><g><g><g><g><g><g><circle cx="256" cy="256" fill="#046eff" r="256"/></g></g></g></g></g></g></g></g></g></g></g></g></g></g></g></g></g></g></g></g><path d="m414.03 214.513-110.787-110.788-224.091 241.619 166.431 166.431c3.692.148 7.4.235 11.13.224 141.384-.394 255.68-115.328 255.286-256.713-.026-9.226-.551-18.333-1.527-27.303l-54.956-54.956z" fill="#0051be"/><g><g><g><g><g><g><path d="m256 345.293 99.758-34.666-99.758-56.335-199.515 10.001v58.383l22.667 22.668z" fill="#dbe1e8"/></g></g></g></g><g><g><path d="m256 345.293v-91.001l199.516 10.001v58.383l-22.559 22.559z" fill="#b8c2cc"/></g></g></g><g><g><g><g><g><path d="m256 325.676h-178.028v-27.036h178.028l89.014 15.466z" fill="#0051be"/></g></g></g></g><g><g><path d="m256 298.64h178.028v27.036h-178.028z" fill="#00429c"/></g></g></g><g><g><g><g><g><path d="m256 270.293h-199.515v-97.266h199.515l99.758 55.639z" fill="#f7f9fa"/></g></g></g></g><g><g><path d="m256 173.027h199.516v97.266h-199.516z" fill="#dbe1e8"/></g></g></g><path d="m77.972 237.293h76.79v20h-76.79z" fill="#ff6379"/><circle cx="180.537" cy="247.293" fill="#00eecf" r="10"/></g><g><g><path d="m324.119 152.817-68.119 68.119c-37.621 0-68.119-30.498-68.119-68.119s30.498-68.118 68.119-68.118z" fill="#00ddc1"/><path d="m324.119 152.817c0 37.621-30.498 68.119-68.119 68.119v-136.237c37.621 0 68.119 30.497 68.119 68.118z" fill="#00baa0"/></g><g><path d="m256 111.628c-22.526 0-42.67 10.385-55.903 26.616l8.022 8.022c11.144-14.209 28.464-23.355 47.881-23.355l5.589-5.301zm-40.4 42.119 7.993 7.993c7.785-9.224 19.42-15.098 32.407-15.098l5.589-5.15-5.589-6.133c-16.097 0-30.551 7.131-40.4 18.388zm29.197 40.609c0 6.187 5.016 11.203 11.203 11.203l2.794-11.634-2.794-10.772c-6.187 0-11.203 5.016-11.203 11.203zm-13.615-25.027 7.975 7.975c4.334-4.282 10.284-6.93 16.843-6.93l5.589-5.298-5.589-5.986c-9.67 0-18.441 3.915-24.818 10.239z" fill="#f7f9fa"/><path d="m256 135.359v11.283c12.987 0 24.622 5.874 32.407 15.099l7.993-7.993c-9.849-11.258-24.303-18.389-40.4-18.389zm0 35.014c6.559 0 12.509 2.649 16.843 6.93l7.975-7.974c-6.377-6.324-15.148-10.239-24.818-10.239zm0-58.745v11.283c19.417 0 36.737 9.146 47.881 23.355l8.022-8.022c-13.233-16.231-33.377-26.616-55.903-26.616zm0 71.525v22.406c6.187 0 11.203-5.016 11.203-11.203s-5.016-11.203-11.203-11.203z" fill="#dbe1e8"/></g></g><g><g><path d="m233.721 421.932h-15c0-7.229 2.309-11.254 3.994-14.193 1.293-2.256 2.006-3.498 2.006-6.731s-.713-4.475-2.006-6.73c-1.686-2.939-3.994-6.965-3.994-14.194s2.309-11.253 3.994-14.192c1.293-2.255 2.006-3.497 2.006-6.729h15c0 7.229-2.309 11.253-3.994 14.192-1.293 2.255-2.006 3.497-2.006 6.729 0 3.233.713 4.476 2.006 6.731 1.686 2.939 3.994 6.964 3.994 14.193s-2.309 11.254-3.994 14.194c-1.293 2.255-2.006 3.497-2.006 6.73z" fill="#9de1f7"/></g><g><path d="m174.538 421.932h-15c0-7.229 2.309-11.254 3.994-14.193 1.293-2.256 2.006-3.498 2.006-6.731s-.713-4.475-2.006-6.73c-1.686-2.939-3.994-6.965-3.994-14.194s2.309-11.253 3.994-14.192c1.293-2.255 2.006-3.497 2.006-6.729h15c0 7.229-2.309 11.253-3.994 14.192-1.293 2.255-2.006 3.497-2.006 6.729 0 3.233.713 4.476 2.006 6.731 1.686 2.939 3.994 6.964 3.994 14.193s-2.309 11.254-3.994 14.194c-1.293 2.255-2.006 3.497-2.006 6.73z" fill="#9de1f7"/></g><g><path d="m352.087 421.932h-15c0-7.229 2.309-11.254 3.994-14.193 1.293-2.256 2.006-3.498 2.006-6.731s-.713-4.475-2.006-6.73c-1.686-2.939-3.994-6.965-3.994-14.194s2.309-11.253 3.994-14.192c1.293-2.255 2.006-3.497 2.006-6.729h15c0 7.229-2.309 11.253-3.994 14.192-1.293 2.255-2.006 3.497-2.006 6.729 0 3.233.713 4.476 2.006 6.731 1.686 2.939 3.994 6.964 3.994 14.193s-2.309 11.254-3.994 14.194c-1.293 2.255-2.006 3.497-2.006 6.73z" fill="#5ecdf3"/></g><g><path d="m292.904 421.932h-15c0-7.229 2.309-11.254 3.994-14.193 1.293-2.256 2.006-3.498 2.006-6.731s-.713-4.475-2.006-6.73c-1.686-2.939-3.994-6.965-3.994-14.194s2.309-11.253 3.994-14.192c1.293-2.255 2.006-3.497 2.006-6.729h15c0 7.229-2.309 11.253-3.994 14.192-1.293 2.255-2.006 3.497-2.006 6.729 0 3.233.713 4.476 2.006 6.731 1.686 2.939 3.994 6.964 3.994 14.193s-2.309 11.254-3.994 14.194c-1.293 2.255-2.006 3.497-2.006 6.73z" fill="#5ecdf3"/></g></g></g></svg>