<svg id="Capa_1" enable-background="new 0 0 512 512" height="512" viewBox="0 0 512 512" width="512" xmlns="http://www.w3.org/2000/svg"><g><g><g><g><g><g><g><g><g><g><g><g><g><g><g><g><g><g><g><g><g><g><circle cx="256" cy="256" fill="#046eff" r="256"/></g></g></g></g></g></g></g></g></g></g></g></g></g></g></g></g></g></g></g></g></g><path d="m251.577 164.609-154.265 81.352 99.46 99.46-42.969 42.969 122.79 122.79c132.064-10.515 235.781-121.2 235.406-255.894-.025-9.137-.539-18.157-1.497-27.044l-104.66-104.66z" fill="#0051be"/><g><path d="m271.595 358.197 16.903-61.31-36.921-63.046h-133.921v63.046c0 35.386 13.731 67.561 36.147 91.503z" fill="#9de1f7"/><path d="m251.577 233.841v124.356l97.774 30.194c22.416-23.943 36.147-56.117 36.147-91.503v-63.046h-133.921z" fill="#5ecdf3"/></g><g><path d="m251.577 430.808 36.921-133.921-20.551-35.092c-5.324-.898-10.792-1.372-16.371-1.372-53.999 0-97.774 43.775-97.774 97.774v30.194c24.438 26.101 59.199 42.417 97.775 42.417z" fill="#f7f9fa"/><path d="m349.35 388.391v-30.194c0-53.999-43.775-97.774-97.774-97.774v170.385c38.577 0 73.337-16.316 97.774-42.417z" fill="#dbe1e8"/></g><g><g><g><g><g><path d="m251.577 245.961h-154.265v-81.352l154.265-18.811 77.132 55.239z" fill="#dbe1e8"/></g></g></g></g><g><g><path d="m405.842 245.961h-154.265v-100.163l154.265 18.811z" fill="#b8c2cc"/></g></g></g><g><g><g><g><g><path d="m251.577 164.609h-154.265v-41.027h154.265l77.132 23.469z" fill="#7e8a95"/></g></g></g></g><g><g><path d="m251.577 123.582h154.265v41.027h-154.265z" fill="#4e5a61"/></g></g></g><g><g><path d="m277.813 335.72-26.237 52.473c-28.98 0-52.473-23.493-52.473-52.473s23.493-52.473 52.473-52.473z" fill="#0051be"/><path d="m304.05 335.72c0 28.98-23.493 52.473-52.473 52.473v-104.946c28.98 0 52.473 23.493 52.473 52.473z" fill="#00429c"/></g><g><path d="m270.038 335.72-18.461 36.921c-20.391 0-36.921-16.53-36.921-36.921s16.53-36.921 36.921-36.921z" fill="#ff6379"/><path d="m288.498 335.72c0 20.391-16.53 36.921-36.921 36.921v-73.843c20.391.001 36.921 16.531 36.921 36.922z" fill="#ff415b"/></g></g></g></svg>