<svg id="Capa_1" enable-background="new 0 0 512 512" height="512" viewBox="0 0 512 512" width="512" xmlns="http://www.w3.org/2000/svg"><g><g><g><g><g><g><g><g><g><g><g><g><g><g><g><g><g><g><g><g><circle cx="256" cy="256" fill="#ffe377" r="256"/></g></g></g></g></g></g></g></g></g></g></g></g></g></g></g></g></g></g></g><path d="m429.298 171.984-38.457-38.457-279.841 135.499 82.842 82.842-33.209 2.05-41.519-41.519-35.882 86.349 103.868 103.868c22.144 6.174 45.493 9.451 69.614 9.383 141.384-.394 255.68-115.328 255.285-256.712-.027-9.73-.616-19.327-1.699-28.772l-67.751-67.751z" fill="#ffd944"/><g><g><path d="m250.92 269.207-139.92-.181v-135.681l139.92.182 49.939 64.493z" fill="#046eff"/><path d="m287.248 169.278h142.398v64.178h-142.398z" fill="#00429c"/><path d="m416.743 158.763h25.805v85.207h-25.805z" fill="#0051be"/></g><g><path d="m215.216 368.419h-92.442v-32.494h59.948v-77.03h32.494z" fill="#046eff"/></g><path d="m102.122 398.747h-18.89v-93.15h18.89c13.615 0 24.653 11.037 24.653 24.653v43.845c-.001 13.615-11.038 24.652-24.653 24.652z" fill="#4e5a61"/><circle cx="198.84" cy="269.438" fill="#4e5a61" r="25.995"/><circle cx="141" cy="159.764" fill="#ff6379" r="10.515"/><path d="m355.98 269.207-105.06-.181v-135.681l139.921.182z" fill="#0051be"/></g></g></svg>