<svg id="Capa_1" enable-background="new 0 0 512 512" height="512" viewBox="0 0 512 512" width="512" xmlns="http://www.w3.org/2000/svg"><g><g><g><g><g><g><g><g><g><g><g><g><g><g><g><g><g><g><g><g><circle cx="256" cy="256" fill="#9de1f7" r="256"/></g></g></g></g></g></g></g></g></g></g></g></g></g></g></g></g></g></g></g><path d="m100.694 189.509 126.559 126.559-109.378 3.555-10.478 30.118 30.487 30.487-37.191 30.37 93.994 93.994c19.647 4.828 40.177 7.408 61.313 7.408 141.385 0 256-114.615 256-256 0-5.778-.211-11.506-.588-17.189l-116.055-116.056z" fill="#5ecdf3"/><g><path d="m123.686 310.537c-12.677 0-22.992 10.314-22.992 22.992s10.314 22.992 22.992 22.992c7.379 0 13.952-3.498 18.162-8.917 10.879 18.51 29.656 30.749 51.011 30.749 33.649 0 60.927-30.362 60.927-67.816zm0 31.802c-4.858 0-8.809-3.952-8.809-8.81s3.952-8.809 8.809-8.809 8.81 3.952 8.81 8.809-3.952 8.81-8.81 8.81z" fill="#f7f9fa"/><path d="m100.694 376.239h239.905v34.358h-239.905z" fill="#ff6379"/><path d="m167.263 163.896h51.226v51.226h-51.226z" fill="#0051be"/><path d="m100.694 189.509h239.905v-88.106h-176.514c-35.01 0-63.39 28.381-63.39 63.39v24.716z" fill="#ff6379"/><path d="m271.346 410.597h139.96v-245.804c0-35.01-28.381-63.39-63.39-63.39h-76.57z" fill="#ff415b"/><path d="m301.266 334.161h84.202v42.078h-84.202z" fill="#af3244"/><path d="m301.266 302.171h36.818v21.039h-36.818z" fill="#af3244"/><path d="m348.65 302.171h36.818v21.039h-36.818z" fill="#ffe377"/><path d="m345.083 239.546c-8.323 0-15.873 3.369-21.362 8.813l6.864 6.864c3.73-3.685 8.852-5.965 14.498-5.965 5.646 0 10.767 2.28 14.498 5.965l6.864-6.864c-5.489-5.444-13.039-8.813-21.362-8.813zm0 20.712c-5.326 0-9.643 4.317-9.643 9.643 0 5.325 4.317 9.643 9.643 9.643 5.326 0 9.643-4.317 9.643-9.643s-4.317-9.643-9.643-9.643zm0-61.566c-19.389 0-36.728 8.939-48.118 22.91l6.905 6.905c9.592-12.231 24.501-20.103 41.214-20.103 16.713 0 31.622 7.872 41.214 20.103l6.905-6.905c-11.392-13.97-28.73-22.91-48.12-22.91zm0 20.427c-13.856 0-26.297 6.138-34.774 15.828l6.88 6.88c6.701-7.94 16.716-12.996 27.894-12.996 11.178 0 21.194 5.056 27.894 12.996l6.88-6.88c-8.477-9.69-20.918-15.828-34.774-15.828z" fill="#00eecf"/></g></g></svg>