<svg id="Capa_1" enable-background="new 0 0 512 512" height="512" viewBox="0 0 512 512" width="512" xmlns="http://www.w3.org/2000/svg"><g><g><g><g><g><g><g><g><g><g><g><g><g><g><g><g><g><g><g><g><circle cx="256" cy="256" fill="#ff6379" r="256"/></g></g></g></g></g></g></g></g></g></g></g></g></g></g></g></g></g></g></g><path d="m336.77 131.85-58.251 26.866-9.165 17.943 90.87 90.87-18.476 18.476-190.518-190.519-10.926 166.046-62.332 111.465 135.46 135.46c13.846 2.318 28.063 3.543 42.568 3.543 141.385 0 256-114.615 256-256 0-2.857-.064-5.699-.157-8.533l-94.814-94.814z" fill="#ff415b"/><g><path d="m138.061 365.466h57.85v21.343h-57.85z" fill="#0051be"/><path d="m316.089 365.466h57.85v21.343h-57.85z" fill="#00429c"/><path d="m164.799 306.862h-38.109l10.253-204.84c.235-4.69 4.105-8.371 8.801-8.371 4.695 0 8.566 3.682 8.801 8.371z" fill="#0051be"/><g><g><g><g><g><path d="m256 372.997h-178.028v-110.924h178.028l89.014 63.452z" fill="#f7f9fa"/></g></g></g></g><g><g><path d="m256 262.073h178.028v110.924h-178.028z" fill="#dbe1e8"/></g></g></g><circle cx="389.046" cy="317.535" fill="#00ddc1" r="26.149"/><circle cx="332.105" cy="317.535" fill="#046eff" r="9.013"/><circle cx="293.991" cy="317.535" fill="#ff415b" r="9.013"/><g fill="#ffe377"><path d="m342.531 196.258c-14.778 0-28.183 5.982-37.929 15.648l12.187 12.188c6.624-6.543 15.718-10.592 25.742-10.592 10.024 0 19.118 4.048 25.742 10.592l12.188-12.187c-9.747-9.666-23.151-15.649-37.93-15.649z"/><path d="m342.531 123.721c-34.427 0-65.212 15.872-85.436 40.678l12.259 12.259c17.032-21.716 43.502-35.693 73.177-35.693 29.675 0 56.146 13.977 73.177 35.694l12.259-12.259c-20.223-24.807-51.009-40.679-85.436-40.679z"/><path d="m342.531 159.989c-24.602 0-46.692 10.898-61.743 28.103l12.215 12.215c11.897-14.097 29.68-23.074 49.527-23.074 19.848 0 37.63 8.977 49.528 23.075l12.215-12.216c-15.05-17.204-37.14-28.102-61.742-28.103z"/></g></g></g></svg>