<svg id="Capa_1" enable-background="new 0 0 512 512" height="512" viewBox="0 0 512 512" width="512" xmlns="http://www.w3.org/2000/svg"><g><g><g><g><g><g><g><g><g><g><g><g><g><g><g><g><g><g><g><circle cx="256" cy="256" fill="#ff6379" r="256"/></g></g></g></g></g></g></g></g></g></g></g></g></g></g></g></g></g></g><path d="m252.883 245.655-70.91-70.91-50.4 50.4 83.415 83.415-69.033 114.594 87.88 87.88c7.307.627 14.696.966 22.165.966 139.944 0 253.643-112.296 255.945-251.691l-167.179-167.18z" fill="#ff415b"/><g fill="#0051be"><path d="m365.633 205.197h20.378v69.754h-20.378z" transform="matrix(-1 0 0 -1 751.645 480.149)"/><path d="m411.022 184.727c-4.818-4.254-11.129-6.857-18.061-6.857-15.092 0-27.327 12.235-27.327 27.327 0 15.093 12.235 27.327 27.327 27.327 6.933 0 13.243-2.603 18.061-6.857z"/></g><g fill="#00429c"><path d="m420.196 276.285h20.378v69.754h-20.378z"/><path d="m395.185 255.815c4.818-4.254 11.129-6.857 18.061-6.857 15.092 0 27.327 12.235 27.327 27.327 0 15.093-12.235 27.327-27.327 27.327-6.933 0-13.243-2.603-18.061-6.857z"/></g><path d="m131.573 159.582h12.706v65.564h-12.706z" fill="#046eff"/><g><g><path d="m243.357 84.377h-84.782c-10.501 0-19.014 8.513-19.014 19.014v305.494c0 10.501 8.513 19.014 19.014 19.014h84.782l20.709-182.115z" fill="#0051be"/><path d="m328.138 84.377h-84.782v343.521h84.782c10.501 0 19.014-8.513 19.014-19.014v-305.493c0-10.501-8.513-19.014-19.014-19.014z" fill="#00429c"/><g><g><g><g><g><path d="m243.357 314.576h-83.089v-209.492h83.089l41.544 110.973z" fill="#f7f9fa"/></g></g></g></g><g><g><path d="m243.357 105.084h83.089v209.492h-83.089z" fill="#dbe1e8"/></g></g></g></g><g><path d="m260.44 373.375-17.083 30.42c-16.8 0-30.42-13.619-30.42-30.42 0-16.8 13.619-30.42 30.42-30.42z" fill="#046eff"/><path d="m273.776 373.375c0 16.8-13.619 30.42-30.42 30.42v-60.84c16.801 0 30.42 13.619 30.42 30.42z" fill="#0051be"/></g><g><g><path d="m278.194 210.381-34.837 62.034c-34.261 0-62.034-27.774-62.034-62.034s27.774-62.034 62.034-62.034z" fill="#00eecf"/><path d="m305.391 210.381c0 34.261-27.774 62.034-62.034 62.034v-124.069c34.26 0 62.034 27.774 62.034 62.035z" fill="#00ddc1"/><path d="m275.409 196.369h-32.052l-5.101-10.061 5.101-10.062h32.052z" fill="#4e5a61"/></g><g><g fill="#7e8a95"><path d="m222.383 176.246h20.973v20.123h-20.973z"/><path d="m222.383 191.205h9.128v39.486h-9.128z"/><circle cx="216.042" cy="230.691" r="15.469"/></g><path d="m266.282 191.205h9.128v39.486h-9.128z" fill="#4e5a61"/><circle cx="259.94" cy="230.691" fill="#4e5a61" r="15.469"/></g></g></g></g></svg>