<svg id="Capa_1" enable-background="new 0 0 512 512" height="512" viewBox="0 0 512 512" width="512" xmlns="http://www.w3.org/2000/svg"><g><g><g><g><g><g><g><g><g><g><g><g><g><g><g><g><g><g><g><circle cx="256" cy="256" fill="#00eecf" r="256"/></g></g></g></g></g></g></g></g></g></g></g></g></g></g></g></g></g></g><path d="m374.152 135.585-74.814-74.814-178.112 361.52 84.822 84.822c16.158 3.197 32.857 4.887 49.952 4.887 141.385 0 256-114.615 256-256 0-5.712-.207-11.375-.575-16.993l-120.651-120.651z" fill="#00ddc1"/><g><g><g><g><g><g><path d="m256 422.291h-134.774v-235.941h134.774l67.387 134.965z" fill="#dbe1e8"/></g></g></g></g><g><g><path d="m256 186.35h134.774v235.941h-134.774z" fill="#b8c2cc"/></g></g></g><g><path d="m299.857 302.411-43.477 77.419c-42.758 0-77.419-34.662-77.419-77.419s34.662-77.419 77.419-77.419z" fill="#7e8a95"/><path d="m333.8 302.411c0 42.758-34.662 77.419-77.419 77.419v-154.839c42.757 0 77.419 34.662 77.419 77.42z" fill="#4e5a61"/></g><g><g><g><g><g><path d="m256 186.35h-134.774v-67.994h134.774l67.387 38.895z" fill="#f7f9fa"/></g></g></g></g><g><g><path d="m256 118.356h134.774v67.994h-134.774z" fill="#dbe1e8"/></g></g></g><g><g><g><g><g><path d="m256 194.405h-134.774v-16.11h134.774l67.387 9.215z" fill="#7e8a95"/></g></g></g></g><g><g><path d="m256 178.295h134.774v16.11h-134.774z" fill="#4e5a61"/></g></g></g><path d="m218.944 162.551h-60.663c-7.857 0-14.226-6.369-14.226-14.226 0-7.857 6.369-14.226 14.226-14.226h60.663c7.857 0 14.226 6.369 14.226 14.226 0 7.857-6.369 14.226-14.226 14.226z" fill="#046eff"/><circle cx="353.137" cy="148.325" fill="#7e8a95" r="15.214"/><circle cx="304.085" cy="148.325" fill="#7e8a95" r="15.214"/><g><path d="m291.714 302.411-35.334 48.141-62.919-48.141c0-34.749 28.17-62.919 62.919-62.919z" fill="#f7f9fa"/><path d="m319.299 302.411-62.919 53.418v-116.337c34.749 0 62.919 28.17 62.919 62.919z" fill="#dbe1e8"/></g><g><path d="m256.38 302.411 19.684 27.867-19.684 35.052c-34.749 0-62.919-28.17-62.919-62.919z" fill="#9de1f7"/><path d="m319.299 302.411c0 34.749-28.17 62.919-62.919 62.919v-62.919z" fill="#5ecdf3"/></g><circle cx="182.373" cy="302.411" fill="#7e8a95" r="17.764"/></g><g><g><path d="m317.235 104.032-61.235 61.235c-33.819 0-61.235-27.416-61.235-61.235s27.416-61.234 61.235-61.234z" fill="#ff6379"/><path d="m317.235 104.032c0 33.819-27.416 61.235-61.235 61.235v-122.469c33.819 0 61.235 27.415 61.235 61.234z" fill="#ff415b"/></g><g><path d="m256 67.006c-20.249 0-38.357 9.336-50.253 23.926l7.211 7.211c10.018-12.773 25.587-20.995 43.042-20.995l5.024-4.765zm-36.317 37.862 7.185 7.185c6.998-8.292 17.457-13.572 29.132-13.572l5.024-4.629-5.024-5.514c-14.47 0-27.464 6.411-36.317 16.53zm26.246 36.505c0 5.562 4.509 10.071 10.071 10.071l2.512-10.458-2.512-9.684c-5.562 0-10.071 4.509-10.071 10.071zm-12.239-22.498 7.169 7.169c3.896-3.849 9.245-6.23 15.141-6.23l5.024-4.763-5.024-5.38c-8.693.001-16.577 3.519-22.31 9.204z" fill="#f7f9fa"/><path d="m256 88.338v10.143c11.674 0 22.134 5.28 29.132 13.573l7.185-7.185c-8.853-10.12-21.847-16.531-36.317-16.531zm0 31.476c5.896 0 11.245 2.381 15.141 6.23l7.169-7.169c-5.733-5.685-13.617-9.204-22.31-9.204zm0-52.808v10.143c17.454 0 33.024 8.222 43.042 20.995l7.211-7.211c-11.896-14.592-30.003-23.927-50.253-23.927zm0 64.296v20.141c5.562 0 10.071-4.509 10.071-10.071 0-5.561-4.509-10.07-10.071-10.07z" fill="#dbe1e8"/></g></g></g></svg>