<svg id="Capa_1" enable-background="new 0 0 512 512" height="512" viewBox="0 0 512 512" width="512" xmlns="http://www.w3.org/2000/svg"><g><g><g><g><g><g><g><g><g><g><g><g><g><g><g><g><g><g><g><g><circle cx="256" cy="256" fill="#9de1f7" r="256"/></g></g></g></g></g></g></g></g></g></g></g></g></g></g></g></g></g></g></g><path d="m151.527 372.448 31.831 31.831-15.541 31.721 75.693 75.693c4.139.199 8.302.307 12.49.307 141.385 0 256-114.615 256-256 0-4.188-.108-8.351-.307-12.49l-167.51-167.51z" fill="#5ecdf3"/><g><g><g><g><g><g><path d="m256 436h-88.183v-360h88.183l44.091 205.931z" fill="#7e8a95"/></g></g></g></g><g><g><path d="m256 76h88.183v360h-88.183z" fill="#4e5a61"/></g></g></g><g><g><g><g><g><path d="m256 378.609h-89.6c-11.617 0-21.034-9.417-21.034-21.034v-203.15c0-11.617 9.417-21.034 21.034-21.034h89.6l55.317 140.272z" fill="#b8c2cc"/></g></g></g></g><g><g><path d="m345.6 378.609h-89.6v-245.218h89.6c11.617 0 21.034 9.417 21.034 21.034v203.15c0 11.617-9.417 21.034-21.034 21.034z" fill="#7e8a95"/></g></g></g><g><g><g><g><g><g><path d="m256 352.664h-82.88v-193.328h82.88l41.44 110.589z" fill="#0051be"/></g></g></g></g></g><g><g><path d="m256 159.336h82.88v193.328h-82.88z" fill="#00429c"/></g></g></g><circle cx="295.693" cy="315.492" fill="#00ddc1" r="17.249"/><circle cx="216.705" cy="315.492" fill="#ff415b" r="17.249"/><g><path d="m256 193.215c-21.92 0-41.523 10.106-54.4 25.901l7.806 7.806c10.844-13.827 27.699-22.727 46.594-22.727l5.439-5.159zm-39.314 40.987 7.778 7.778c7.575-8.976 18.898-14.692 31.536-14.692l5.439-5.011-5.439-5.969c-15.664 0-29.73 6.939-39.314 17.894zm28.412 39.517c0 6.021 4.881 10.902 10.902 10.902l2.719-11.321-2.719-10.483c-6.021 0-10.902 4.881-10.902 10.902zm-13.249-24.355 7.76 7.76c4.217-4.166 10.008-6.744 16.391-6.744l5.439-5.156-5.439-5.823c-9.41 0-17.945 3.809-24.151 9.963z" fill="#f7f9fa"/><path d="m256 216.308v10.979c12.638 0 23.961 5.716 31.536 14.693l7.778-7.778c-9.584-10.955-23.649-17.894-39.314-17.894zm0 34.073c6.383 0 12.173 2.578 16.391 6.744l7.76-7.76c-6.206-6.154-14.741-9.963-24.151-9.964zm0-57.166v10.979c18.895 0 35.75 8.9 46.594 22.727l7.806-7.806c-12.877-15.794-32.479-25.9-54.4-25.9zm0 69.602v21.803c6.021 0 10.902-4.881 10.902-10.902 0-6.02-4.881-10.901-10.902-10.901z" fill="#dbe1e8"/></g></g></g></svg>