<svg id="Capa_1" enable-background="new 0 0 512 512" height="512" viewBox="0 0 512 512" width="512" xmlns="http://www.w3.org/2000/svg"><g><g><g><g><g><g><g><g><g><g><g><g><g><g><g><g><g><g><g><g><g><g><g><circle cx="256" cy="256" fill="#046eff" r="256"/></g></g></g></g></g></g></g></g></g></g></g></g></g></g></g></g></g></g></g></g></g></g><path d="m130.431 381.569 130.367 130.367c137.654-2.54 248.62-113.646 251.147-251.13l-130.376-130.375z" fill="#0051be"/><g><g><g><path d="m344.791 256-88.791 177.582c-98.076 0-177.582-79.506-177.582-177.582s79.506-177.582 177.582-177.582z" fill="#f7f9fa"/><path d="m433.582 256c0 98.076-79.506 177.582-177.582 177.582v-355.164c98.076 0 177.582 79.506 177.582 177.582z" fill="#dbe1e8"/></g><g><path d="m331.278 256-75.278 150.555c-83.149 0-150.555-67.406-150.555-150.555s67.406-150.555 150.555-150.555z" fill="#b8c2cc"/><path d="m406.555 256c0 83.149-67.406 150.555-150.555 150.555v-301.11c83.149 0 150.555 67.406 150.555 150.555z" fill="#7e8a95"/></g></g><g><path d="m275.307 338.395-19.307 38.615c-21.326 0-38.615-17.288-38.615-38.615 0-21.326 17.288-38.615 38.615-38.615z" fill="#7e8a95"/><path d="m294.615 338.395c0 21.326-17.288 38.615-38.615 38.615v-77.229c21.326 0 38.615 17.288 38.615 38.614z" fill="#4e5a61"/></g><g><g><g><g><g><path d="m256 264.721h-83.018v-71.957h83.018l41.509 41.162z" fill="#00eecf"/></g></g></g></g><g><g><g><path d="m256 192.764h83.018v71.957h-83.018z" fill="#00ddc1"/></g></g></g></g><path d="m172.982 165.204h67.135v14.855h-67.135z" fill="#7e8a95"/><path d="m271.697 165.204h67.135v14.855h-67.135z" fill="#4e5a61"/><g><path d="m265.654 338.395-9.654 19.308c-10.663 0-19.307-8.644-19.307-19.307s8.644-19.307 19.307-19.307z" fill="#ff6379"/><path d="m275.307 338.395c0 10.663-8.644 19.307-19.307 19.307v-38.615c10.663.001 19.307 8.645 19.307 19.308z" fill="#ff415b"/></g></g></g></svg>