<svg id="Capa_1" enable-background="new 0 0 512 512" height="512" viewBox="0 0 512 512" width="512" xmlns="http://www.w3.org/2000/svg"><g><g><g><g><g><g><g><g><g><g><g><g><g><g><g><g><g><g><g><g><circle cx="256" cy="256" fill="#9de1f7" r="256"/></g></g></g></g></g></g></g></g></g></g></g></g></g></g></g></g></g></g></g><path d="m408.769 204.153-.059-.111-287.933 17.657 87.589 91.031-87.589 87.589 110.488 110.488c8.141.78 16.389 1.193 24.735 1.193 125.31 0 229.575-90.04 251.668-208.948z" fill="#5ecdf3"/><g><path d="m256 71.677-152.849 132.545.105-.044 17.52 17.52h135.224l26.514-55.522z" fill="#0051be"/><path d="m256 71.677v150.021h135.224l17.545-17.545z" fill="#00429c"/></g><g><g><path d="m256 400.318h-135.224v-178.62l135.224-117.261 54.178 163.174z" fill="#f7f9fa"/><path d="m391.224 400.318v-178.62l-135.224-117.261v295.881z" fill="#dbe1e8"/></g><g><path d="m330 277.996-74 93.501c-51.639 0-93.501-41.862-93.501-93.501s41.862-93.501 93.501-93.501z" fill="#ff6379"/><path d="m349.501 277.996c0-51.639-41.862-93.501-93.501-93.501v187.003c51.639-.001 93.501-41.863 93.501-93.502z" fill="#ff415b"/></g><g><g><g><g><g><path d="m256 280.788h-9.195v-69.486h9.195l4.598 37.198z" fill="#f7f9fa"/></g></g></g></g><g><g><path d="m256 211.302h9.195v69.486h-9.195z" fill="#dbe1e8"/></g></g></g><g><path d="m256 324.136c-23.687 0-42.958-19.271-42.958-42.958 0-17.066 10.111-32.518 25.759-39.366l-7.373-16.848c-22.341 9.778-36.777 31.843-36.777 56.214 0 33.827 27.52 61.348 61.348 61.348l6-10.026z" fill="#f7f9fa"/><path d="m317.348 281.178c0-24.371-14.436-46.436-36.777-56.214l-7.373 16.848c15.648 6.848 25.759 22.301 25.759 39.366 0 23.687-19.271 42.958-42.957 42.958v18.39c33.827 0 61.348-27.521 61.348-61.348z" fill="#dbe1e8"/></g></g></g></svg>