<svg id="Capa_1" enable-background="new 0 0 512 512" height="512" viewBox="0 0 512 512" width="512" xmlns="http://www.w3.org/2000/svg"><g><g><g><g><g><g><g><g><g><g><g><g><g><g><g><g><g><g><circle cx="256" cy="256" fill="#00eecf" r="256"/></g></g></g></g></g></g></g></g></g></g></g></g></g></g></g></g></g><path d="m161.092 426.486 85.317 85.317c3.184.117 6.378.197 9.591.197 141.385 0 256-114.615 256-256 0-3.213-.08-6.407-.197-9.591l-160.953-160.952z" fill="#00ddc1"/><g><path d="m256 80.101h-81.888c-10.143 0-18.365 8.222-18.365 18.365v315.068c0 10.143 8.222 18.365 18.365 18.365h81.888l20.002-175.899z" fill="#0051be"/><path d="m337.888 80.101h-81.888v351.798h81.888c10.143 0 18.365-8.222 18.365-18.365v-315.068c0-10.143-8.223-18.365-18.365-18.365z" fill="#00429c"/><g><g><g><g><g><path d="m256 391.897h-80.252v-291.796h80.252l40.126 166.916z" fill="#f7f9fa"/></g></g></g></g><g><g><path d="m256 100.101h80.252v291.796h-80.252z" fill="#dbe1e8"/></g></g></g><path d="m256 90.783h-50.366l10.001 34.63h40.365l10.001-15.311z" fill="#0051be"/><path d="m256 125.413h40.365l10.001-34.63h-50.366z" fill="#00429c"/><g><g><g><g><g><g><path d="m256 114.574h-27.948v-9.121h27.948l13.974 4.883z" fill="#046eff"/></g></g></g></g></g><g><g><path d="m256 105.453h27.948v9.121h-27.948z" fill="#0051be"/></g></g></g><g><g><g><g><g><g><path d="m256.016 415.426h-27.947v-9.121h27.947l13.974 4.883z" fill="#046eff"/></g></g></g></g></g><g><g><path d="m256.016 406.305h27.948v9.121h-27.948z" fill="#0051be"/></g></g></g></g><g><g><path d="m278.202 331.972-22.202 28.053c-15.494 0-28.053-12.56-28.053-28.053s12.56-28.053 28.053-28.053z" fill="#046eff"/><path d="m284.053 331.972c0-15.494-12.56-28.053-28.053-28.053v56.107c15.493-.001 28.053-12.561 28.053-28.054z" fill="#0051be"/></g><g><g><path d="m256 297.109c37.868 0 68.567-30.698 68.567-68.567s-30.699-68.566-68.567-68.566l-59.816 68.567z" fill="#fc0"/><path d="m187.433 228.543c0-37.868 30.698-68.567 68.567-68.567v137.134c-37.868-.001-68.567-30.699-68.567-68.567z" fill="#ffd944"/></g><g><g><g><g><g><g><path d="m256 255.331h33.288v58.366h-33.288l-16.644-31.245z" fill="#fc0"/></g></g></g></g></g><g><g><g><path d="m222.712 255.331h33.288v58.366h-33.288z" fill="#ffd944"/></g></g></g></g><g><g><g><g><g><path d="m256 309.321h38.256v36.261h-38.256l-19.128-19.412z" fill="#00429c"/></g></g></g></g><g><g><path d="m217.744 309.321h38.256v36.262h-38.256z" fill="#0051be"/></g></g></g></g><g><g><path d="m287.856 230.543-31.856 40.251c-22.23 0-40.251-18.021-40.251-40.251s18.021-40.252 40.251-40.252z" fill="#ff6379"/><path d="m296.251 230.543c0-22.23-18.021-40.251-40.251-40.251v80.503c22.23-.001 40.251-18.022 40.251-40.252z" fill="#ff415b"/></g><g><g><g><g><g><path d="m256 231.745h-3.958v-29.913h3.958l1.979 16.013z" fill="#f7f9fa"/></g></g></g></g><g><g><path d="m256 201.832h3.958v29.913h-3.958z" fill="#dbe1e8"/></g></g></g><g><path d="m256 250.406c-10.197 0-18.493-8.296-18.493-18.493 0-7.347 4.353-13.999 11.089-16.947l-3.174-7.253c-9.618 4.209-15.832 13.708-15.832 24.2 0 14.562 11.847 26.41 26.41 26.41l2.583-4.316z" fill="#f7f9fa"/><path d="m282.41 231.913c0-10.492-6.214-19.99-15.832-24.2l-3.174 7.253c6.736 2.948 11.089 9.6 11.089 16.947 0 10.197-8.296 18.493-18.493 18.493v7.917c14.562-.001 26.41-11.848 26.41-26.41z" fill="#dbe1e8"/></g></g></g></g></svg>