<svg id="Capa_1" enable-background="new 0 0 512 512" height="512" viewBox="0 0 512 512" width="512" xmlns="http://www.w3.org/2000/svg"><g><g><g><g><g><g><g><g><g><g><g><g><g><g><g><g><g><g><g><g><g><g><circle cx="256" cy="256" fill="#9de1f7" r="256"/></g></g></g></g></g></g></g></g></g></g></g></g></g></g></g></g></g></g></g></g><path d="m147.324 439.703 69.28 69.28c12.842 1.983 25.998 3.017 39.396 3.017 141.385 0 256-114.615 256-256 0-13.398-1.034-26.554-3.018-39.396l-144.306-144.307z" fill="#5ecdf3"/><g><g><g><g><g><g><path d="m256 424.494h-98.675l-10.001-15.208v-306.572l10.001-15.208h98.675l54.338 192.767z" fill="#ff6379"/></g></g></g></g><g><g><g><path d="m354.675 424.494h-98.675v-336.988h98.675l10.001 15.208v306.572z" fill="#ff415b"/></g></g></g></g><g><g><g><g><g><path d="m256 102.714h-108.676v-30.417h108.676l54.338 17.4z" fill="#7e8a95"/></g></g></g></g><g><g><g><path d="m256 72.297h108.676v30.417h-108.676z" fill="#4e5a61"/></g></g></g></g><g><g><g><g><g><path d="m256 439.703h-108.676v-30.417h108.676l54.338 17.399z" fill="#7e8a95"/></g></g></g></g><g><g><g><path d="m256 409.286h108.676v30.417h-108.676z" fill="#4e5a61"/></g></g></g></g><g><path d="m296.434 256-40.434 72c-39.764 0-72-32.236-72-72s32.236-72 72-72z" fill="#ff415b"/><path d="m328 256c0 39.764-32.236 72-72 72v-144c39.764 0 72 32.236 72 72z" fill="#af3244"/></g><g><g><path d="m238.719 216.24v34.014c0 9.544 7.737 17.282 17.281 17.282l3.957-33.475-3.957-35.103c-9.544 0-17.281 7.737-17.281 17.282zm-5.583 34.352v-8.776h-10.136v8.776c0 16.473 12.133 30.164 27.932 32.61v25.055h5.068l2.722-16.879-2.722-17.923c-12.607 0-22.864-10.256-22.864-22.863z" fill="#f7f9fa"/><path d="m273.282 250.254v-34.014c0-9.544-7.737-17.281-17.282-17.281v68.577c9.544 0 17.282-7.738 17.282-17.282zm5.582-8.438v8.776c0 12.607-10.257 22.863-22.864 22.863v34.802h5.068v-25.055c15.799-2.446 27.932-16.137 27.932-32.61v-8.776z" fill="#dbe1e8"/></g><g><g><g><g><g><path d="m256 310.792h-17.436v-9.726h17.436l8.718 5.563z" fill="#f7f9fa"/></g></g></g></g><g><g><path d="m256 301.066h17.436v9.726h-17.436z" fill="#dbe1e8"/></g></g></g></g></g></g><g><g><circle cx="332.747" cy="146.685" fill="#af3244" r="12.677"/><circle cx="281.582" cy="146.685" fill="#af3244" r="12.677"/><g fill="#ff415b"><circle cx="230.418" cy="146.685" r="12.677"/><circle cx="179.253" cy="146.685" r="12.677"/></g></g><g><circle cx="332.747" cy="365.315" fill="#af3244" r="12.677"/><circle cx="281.582" cy="365.315" fill="#af3244" r="12.677"/><g fill="#ff415b"><circle cx="230.418" cy="365.315" r="12.677"/><circle cx="179.253" cy="365.315" r="12.677"/></g></g></g></g></svg>