<svg id="Capa_1" enable-background="new 0 0 512 512" height="512" viewBox="0 0 512 512" width="512" xmlns="http://www.w3.org/2000/svg"><g><g><g><g><g><g><g><g><g><g><g><g><g><g><g><g><g><g><g><g><circle cx="256" cy="256" fill="#ff6379" r="256"/></g></g></g></g></g></g></g></g></g></g></g></g></g></g></g></g></g></g></g><path d="m135.792 376.208 135.335 135.335c129.335-7.539 232.878-111.082 240.416-240.416l-135.335-135.335z" fill="#ff415b"/><g><g><path d="m351.468 256-95.468 170c-93.888 0-170-76.112-170-170s76.112-170 170-170z" fill="#046eff"/><path d="m426 256c0 93.888-76.112 170-170 170v-340c93.888 0 170 76.112 170 170z" fill="#0051be"/></g></g><path d="m218.086 208.623v59.57c0 3.389 2.747 6.136 6.136 6.136 3.388 0 6.136-2.747 6.136-6.136v-59.57c0-14.139 11.503-25.642 25.642-25.642l3.027-6.353-3.027-5.919c-20.906 0-37.914 17.008-37.914 37.914zm34.583 94.754v-55.527c0-3.389-2.747-6.136-6.136-6.136s-6.136 2.747-6.136 6.136v55.527c0 3.388 2.747 6.136 6.136 6.136s6.136-2.748 6.136-6.136zm-22.311 0c0-3.389-2.747-6.136-6.136-6.136s-6.136 2.747-6.136 6.136c0 20.906 17.008 37.914 37.913 37.914l3.027-6.317-3.026-5.955c-14.139 0-25.642-11.503-25.642-25.642zm10.039-94.754c0 3.389 2.747 6.136 6.136 6.136s6.136-2.747 6.136-6.136c0-1.837 1.494-3.331 3.33-3.331l3.027-5.679-3.026-6.592c-8.604 0-15.603 6.999-15.603 15.602zm-44.845-56.201c-2.308 2.481-2.167 6.363.314 8.672 2.481 2.308 6.363 2.168 8.672-.314 13.254-14.249 32.011-22.422 51.462-22.422l3.027-7.062-3.027-5.21c-22.848 0-44.88 9.599-60.448 26.336zm.222 56.201c0 3.388 2.747 6.136 6.136 6.136 3.388 0 6.136-2.747 6.136-6.136 0-26.442 21.512-47.954 47.954-47.954l3.027-6.389-3.027-5.882c-33.209 0-60.226 27.017-60.226 60.225zm-10.04 94.754v-94.753c0-3.389-2.747-6.136-6.136-6.136-3.388 0-6.136 2.747-6.136 6.136v94.753c0 45.511 37.026 82.537 82.538 82.537l3.027-4.969-3.027-7.303c-38.745 0-70.266-31.521-70.266-70.265zm22.312 0v-55.527c0-3.388-2.747-6.136-6.136-6.136s-6.136 2.747-6.136 6.136v55.527c0 33.208 27.017 60.225 60.225 60.225l3.027-6.282-3.026-5.99c-26.442 0-47.954-21.512-47.954-47.953z" fill="#f7f9fa"/><path d="m259.331 208.623v94.753c0 3.389 2.747 6.136 6.136 6.136s6.136-2.747 6.136-6.136v-94.753c0-8.603-6.999-15.602-15.603-15.603v12.272c1.837.001 3.331 1.495 3.331 3.331zm-3.331-82.537v12.272c38.745 0 70.266 31.521 70.266 70.265v94.753c0 38.745-31.521 70.265-70.266 70.265v12.272c45.512 0 82.538-37.026 82.538-82.537v-94.753c0-45.511-37.026-82.537-82.538-82.537zm25.643 82.537c0 3.389 2.747 6.136 6.136 6.136 3.388 0 6.136-2.747 6.136-6.136 0-20.906-17.008-37.914-37.914-37.914v12.272c14.139 0 25.642 11.503 25.642 25.642zm-19.508 148.843c0-3.389-2.747-6.136-6.135-6.136v12.272c3.389 0 6.135-2.747 6.135-6.136zm41.82-148.843v94.753c0 3.388 2.747 6.136 6.136 6.136 3.388 0 6.136-2.747 6.136-6.136v-94.753c0-33.209-27.017-60.226-60.226-60.226v12.272c26.441.001 47.954 21.512 47.954 47.954zm2.862 114.283c-3.002-1.57-6.71-.407-8.279 2.596-5.028 9.622-13.254 17.342-23.161 21.738-3.098 1.374-4.494 4.999-3.12 8.097 1.015 2.289 3.259 3.649 5.612 3.649.831 0 1.676-.17 2.485-.529 12.432-5.516 22.752-15.201 29.06-27.271 1.569-3.004.407-6.711-2.597-8.28zm-12.903-19.529c0-3.389-2.747-6.136-6.136-6.136-3.388 0-6.136 2.747-6.136 6.136 0 14.139-11.503 25.642-25.643 25.642v12.272c20.907-.001 37.915-17.009 37.915-37.914z" fill="#dbe1e8"/></g></svg>