<svg id="Capa_1" enable-background="new 0 0 512 512" height="512" viewBox="0 0 512 512" width="512" xmlns="http://www.w3.org/2000/svg"><g><g><g><g><g><g><g><g><g><g><g><g><g><g><g><g><g><g><g><g><g><circle cx="256" cy="256" fill="#00eecf" r="256"/></g></g></g></g></g></g></g></g></g></g></g></g></g></g></g></g></g></g></g></g><path d="m61.965 268.544 73.613 73.613-60.939 60.939 93.374 93.374c27.653 10.122 57.533 15.615 88.7 15.528 137.816-.384 249.873-109.604 255.078-246.064l-168.141-168.14z" fill="#00ddc1"/><g><g><g><g><g><g><g><path d="m255.431 219.153h-97.111v-99.891c0-16.767 13.592-30.36 30.36-30.36h66.752l48.556 74.507z" fill="#ffd944"/></g></g></g></g></g><g><g><path d="m352.542 219.153h-97.111v-130.251h66.752c16.767 0 30.36 13.592 30.36 30.36v99.891z" fill="#fc0"/></g></g></g><g><path d="m434.463 274.911c12.274 0 22.225-9.95 22.225-22.225 0-12.274-9.95-22.225-22.225-22.225h-26.891v44.449h26.891z" fill="#4e5a61"/><path d="m77.537 230.461c-12.274 0-22.225 9.95-22.225 22.225 0 12.274 9.95 22.225 22.225 22.225h26.891v-44.449h-26.891z" fill="#7e8a95"/></g><g><g><g><g><g><path d="m255.431 389.803h-168.8v-173.632c0-29.145 23.627-52.771 52.771-52.771h116.028l84.4 129.51z" fill="#f7f9fa"/></g></g></g></g><g><g><path d="m424.231 389.803h-168.8v-226.404h116.028c29.145 0 52.771 23.627 52.771 52.771v173.633z" fill="#dbe1e8"/></g></g></g><circle cx="160.26" cy="324.087" fill="#00eecf" r="9.815"/><circle cx="118.753" cy="324.087" fill="#ff415b" r="9.815"/><g><g><g><g><g><g><path d="m255.431 403.096h-180.792v-40.675h180.792l90.396 23.267z" fill="#0051be"/></g></g></g></g></g><g><g><path d="m255.431 362.421h180.792v40.676h-180.792z" fill="#00429c"/></g></g></g><path d="m284.828 276.601h110.006v57.301h-110.006z" fill="#7e8a95"/></g></g></svg>