<svg id="Capa_1" enable-background="new 0 0 512 512" height="512" viewBox="0 0 512 512" width="512" xmlns="http://www.w3.org/2000/svg"><g><g><g><g><g><g><g><g><g><g><g><g><g><g><g><g><g><g><g><g><g><circle cx="256" cy="256" fill="#ffe377" r="256"/></g></g></g></g></g></g></g></g></g></g></g></g></g></g></g></g></g></g></g></g><path d="m425.256 162.212-48.448-48.448-296.527 57.259 56.44 56.44-13.15 181.071 101.621 101.621c10.332 1.24 20.85 1.874 31.522 1.845 141.384-.394 255.68-115.328 255.286-256.713-.018-6.34-.275-12.624-.745-18.847l-79.535-79.535z" fill="#ffd944"/><g><path d="m80.281 156.905h33.185v14.118h-33.185z" fill="#b8c2cc"/><path d="m398.534 156.905h33.185v14.118h-33.185z" fill="#7e8a95"/><g><path d="m256 89.85h-62.139c-46.34 0-83.906 37.566-83.906 83.906l146.045 12.466 12.465-54.418z" fill="#f7f9fa"/><path d="m256 89.85v96.371l146.046-12.465c0-46.34-37.566-83.906-83.906-83.906z" fill="#dbe1e8"/></g><g><path d="m256 182.257-86.08-11.234h-59.966v204.638c0 25.675 20.814 46.489 46.489 46.489h99.557l12.465-135.402z" fill="#dbe1e8"/><path d="m256 422.15h99.557c25.675 0 46.489-20.814 46.489-46.489v-204.638h-59.966l-86.08 11.234z" fill="#b8c2cc"/></g><g><g><g><g><g><g><path d="m256 321.717h-86.079v-150.694h86.079l43.04 86.201z" fill="#00eecf"/></g></g></g></g></g><g><g><g><path d="m256 171.023h86.08v150.694h-86.08z" fill="#00ddc1"/></g></g></g></g><g><g><g><g><g><g><path d="m256 242.096h-62.682v-50.295h62.682l31.341 28.771z" fill="#046eff"/></g></g></g></g></g><g><g><g><g><path d="m256 191.801h62.682v50.295h-62.682z" fill="#0051be"/></g></g></g></g></g><g><path d="m263.117 283.02-7.117 14.234c-7.861 0-14.234-6.373-14.234-14.234s6.373-14.234 14.234-14.234z" fill="#7e8a95"/><path d="m270.234 283.02c0 7.861-6.373 14.234-14.234 14.234v-28.468c7.861 0 14.234 6.373 14.234 14.234z" fill="#4e5a61"/></g><circle cx="304.448" cy="283.02" fill="#4e5a61" r="14.234"/><circle cx="207.552" cy="283.02" fill="#7e8a95" r="14.234"/></g></g></svg>