<svg id="Capa_1" enable-background="new 0 0 512 512" height="512" viewBox="0 0 512 512" width="512" xmlns="http://www.w3.org/2000/svg"><g><g><g><g><g><g><g><g><g><g><g><g><g><g><g><g><g><g><g><g><g><g><g><circle cx="256" cy="256" fill="#046eff" r="256"/></g></g></g></g></g></g></g></g></g></g></g></g></g></g></g></g></g></g></g></g></g></g><path d="m133.579 381.066 130.784 130.784c62.938-2.046 125.253-27.161 173.16-75.336 47.546-47.812 72.296-109.689 74.323-172.155l-130.78-130.78z" fill="#0051be"/><g><g><path d="m343.5 256-87.5 175c-96.65 0-175-78.35-175-175s78.35-175 175-175z" fill="#f7f9fa"/><path d="m431 256c0 96.65-78.35 175-175 175v-350c96.65 0 175 78.35 175 175z" fill="#dbe1e8"/></g><path d="m284.138 256-28.138 56.275c-31.08 0-56.275-25.195-56.275-56.275s25.195-56.275 56.275-56.275z" fill="#dbe1e8"/><path d="m312.275 256c0 31.08-25.195 56.275-56.275 56.275v-112.55c31.08 0 56.275 25.195 56.275 56.275z" fill="#b8c2cc"/><g><path d="m265.751 256-9.735 12.301c-6.793 0-12.301-5.507-12.301-12.301 0-6.793 5.507-12.301 12.301-12.301z" fill="#ff6379"/><path d="m268.317 256c0-6.793-5.507-12.301-12.301-12.301v24.601c6.794.001 12.301-5.507 12.301-12.3z" fill="#ff415b"/></g><path d="m326.657 218.3h16.414c-9.588-22.053-27.315-39.778-49.37-49.361v16.413c13.968 7.481 25.471 18.98 32.956 32.948zm-189.236 0h15.617c11.085-30.183 35.082-54.183 65.262-65.272v-15.618c-38.337 12.221-68.663 42.55-80.879 80.89zm252.626 0h15.297c-13.813-54.688-56.954-97.824-111.644-111.631v15.296c46.521 13.097 83.245 49.816 96.347 96.335zm-46.976 75.4h-16.414c-7.485 13.967-18.987 25.467-32.956 32.949v16.413c22.055-9.584 39.782-27.309 49.37-49.362zm-174.109-75.4h16.414c7.479-13.957 18.969-25.45 32.924-32.932v-16.415c-22.04 9.587-39.755 27.304-49.338 49.347zm16.414 75.4h-16.414c9.583 22.042 27.297 39.76 49.338 49.347v-16.415c-13.955-7.482-25.445-18.975-32.924-32.932zm-32.338 0h-15.617c12.215 38.339 42.542 68.669 80.879 80.89v-15.618c-30.18-11.089-54.178-35.089-65.262-65.272zm-31.052 0h-15.297c13.81 54.677 56.936 97.807 111.611 111.623v-15.297c-46.506-13.105-83.215-49.818-96.314-96.326zm171.714 96.335v15.296c54.69-13.807 97.831-56.943 111.644-111.631h-15.297c-13.102 46.519-49.826 83.238-96.347 96.335zm-187.011-171.735h15.297c13.099-46.508 49.808-83.221 96.314-96.326v-15.297c-54.675 13.816-97.801 56.946-111.611 111.623zm252.306 0h15.617c-12.219-38.35-42.559-68.686-80.911-80.9v15.616c30.195 11.083 54.205 35.09 65.294 65.284zm15.617 75.4h-15.617c-11.089 30.194-35.099 54.201-65.295 65.285v15.615c38.353-12.213 68.692-42.549 80.912-80.9z" fill="#0051be"/></g></g></svg>