<svg id="Capa_1" enable-background="new 0 0 512 512" height="512" viewBox="0 0 512 512" width="512" xmlns="http://www.w3.org/2000/svg"><g><g><g><g><g><g><g><g><g><g><g><g><g><g><g><g><g><g><g><g><g><circle cx="256" cy="256" fill="#ffe377" r="256"/></g></g></g></g></g></g></g></g></g></g></g></g></g></g></g></g></g></g></g></g><path d="m423.957 218.151-121.174-121.174-90.083 82.805 85.09 85.089-219.505 92.238 153.773 153.773c8.117.753 16.339 1.141 24.656 1.118 130.527-.364 237.959-98.353 253.381-224.649l-76.379-76.379z" fill="#ffd944"/><g><g><path d="m317.235 136.482-61.235 61.235c-33.819 0-61.235-27.416-61.235-61.235s27.416-61.235 61.235-61.235z" fill="#ff6379"/><path d="m317.235 136.482c0 33.819-27.416 61.235-61.235 61.235v-122.47c33.819 0 61.235 27.416 61.235 61.235z" fill="#ff415b"/></g><g><path d="m256 99.455c-20.249 0-38.357 9.336-50.253 23.926l7.211 7.211c10.018-12.773 25.588-20.995 43.042-20.995l5.024-4.765zm-36.317 37.863 7.185 7.185c6.998-8.292 17.457-13.572 29.132-13.572l5.024-4.629-5.024-5.514c-14.47 0-27.464 6.41-36.317 16.53zm26.246 36.505c0 5.562 4.509 10.071 10.071 10.071l2.512-10.458-2.512-9.684c-5.562 0-10.071 4.509-10.071 10.071zm-12.239-22.498 7.169 7.169c3.896-3.849 9.245-6.23 15.141-6.23l5.024-4.763-5.024-5.38c-8.693 0-16.577 3.519-22.31 9.204z" fill="#f7f9fa"/><path d="m256 120.788v10.143c11.674 0 22.134 5.28 29.132 13.573l7.185-7.185c-8.853-10.121-21.847-16.531-36.317-16.531zm0 31.476c5.896 0 11.245 2.381 15.141 6.23l7.169-7.169c-5.733-5.685-13.617-9.204-22.31-9.204zm0-52.809v10.143c17.454 0 33.024 8.222 43.042 20.995l7.211-7.211c-11.895-14.591-30.003-23.927-50.253-23.927zm0 64.297v20.141c5.562 0 10.071-4.509 10.071-10.071 0-5.561-4.509-10.07-10.071-10.07z" fill="#dbe1e8"/></g></g><g><path d="m111.977 339.62h46.708v30.854h-46.708z" fill="#0051be"/><path d="m349.5 339.62h46.708v30.854h-46.708z" fill="#00429c"/><g><g><g><g><g><g><path d="m256 357.109h-177.715v-146.138h177.715l88.858 75.375z" fill="#046eff"/></g></g></g></g></g><g><g><g><path d="m256 210.971h177.715v146.138h-177.715z" fill="#0051be"/></g></g></g></g><g><g><g><g><g><path d="m256 339.62h-160.662v-111.161h160.662l80.331 57.335z" fill="#f7f9fa"/></g></g></g></g><g><g><path d="m256 228.459h160.662v111.161h-160.662z" fill="#dbe1e8"/></g></g></g><g><path d="m162.048 325.01h-46.708v-81.94h46.708zm-31.708-15h16.708v-51.94h-16.708z" fill="#046eff"/></g><g><path d="m329.498 325.01h-46.708v-81.94h46.708zm-31.708-15h16.708v-51.94h-16.708z" fill="#0051be"/></g><g><path d="m396.66 325.01h-46.708v-81.94h46.708zm-31.708-15h16.708v-51.94h-16.708z" fill="#0051be"/></g><g><g><path d="m228.758 325.01h-46.708v-15h31.708v-51.94h-31.708v-15h46.708z" fill="#046eff"/></g><g><path d="m182.05 276.54h39.208v15h-39.208z" fill="#046eff"/></g></g><g><path d="m256 273.54h-7.5v-30.47h7.5l3.75 15.235z" fill="#046eff"/></g><g><path d="m256 325.01h-7.5v-30.47h7.5l3.75 15.235z" fill="#046eff"/></g><g><path d="m256 243.07h7.5v30.469h-7.5z" fill="#0051be"/></g><g><path d="m256 294.54h7.5v30.469h-7.5z" fill="#0051be"/></g></g></g></svg>