<svg id="Capa_1" enable-background="new 0 0 512 512" height="512" viewBox="0 0 512 512" width="512" xmlns="http://www.w3.org/2000/svg"><g><path d="m256 0c-141.385 0-256 114.615-256 256 0 136.407 106.691 247.881 241.174 255.562h29.652c134.483-7.681 241.174-119.155 241.174-255.562 0-141.385-114.615-256-256-256z" fill="#9de1f7"/><path d="m306.119 181.086-91.412-91.412-29.02 246.67 37.412 37.412-13.637 13.637 34.853 34.853 6.142 89.316h20.37c127.628-7.29 230.21-108.064 240.338-234.911l-187.283-187.282z" fill="#5ecdf3"/><path d="m241.174 346.188v165.374c4.908.28 9.848.438 14.826.438.428 0 .852-.014 1.279-.016l5.427-74.156-6.706-91.64z" fill="#ff415b"/><path d="m256 512c4.978 0 9.918-.157 14.826-.438v-165.374h-14.826z" fill="#af3244"/><g><path d="m256 387.394h-46.539v-93.078h46.539l21.051 46.539z" fill="#ff6379"/><path d="m256 294.316h46.539v93.077h-46.539z" fill="#ff415b"/></g><g><g><g><path d="m292.406 102.129c0-10.122 8.205-18.327 18.327-18.327s18.327 8.205 18.327 18.327v144.138h-36.654z" fill="#4e5a61"/><path d="m182.94 102.129c0-10.122 8.205-18.327 18.327-18.327s18.327 8.205 18.327 18.327v144.138h-36.654z" fill="#7e8a95"/></g><path d="m152.806 260.719c0 56.992 46.202 103.194 103.194 103.194l32.353-85.554-29.975-85.554h-105.572z" fill="#ff6379"/></g><path d="m256 192.805h103.194v67.914c0 56.992-46.202 103.194-103.194 103.194z" fill="#ff415b"/></g></g></svg>