<svg id="Capa_1" enable-background="new 0 0 512 512" height="512" viewBox="0 0 512 512" width="512" xmlns="http://www.w3.org/2000/svg"><g><g><g><g><g><g><g><g><g><g><g><g><g><g><g><g><g><g><g><g><g><g><g><circle cx="256" cy="256" fill="#046eff" r="256"/></g></g></g></g></g></g></g></g></g></g></g></g></g></g></g></g></g></g></g></g></g></g><path d="m120.776 400.318 110.495 110.495c8.371.802 16.856 1.209 25.442 1.185 141.384-.394 255.68-115.328 255.285-256.712-.021-7.367-.37-14.655-1-21.863l-90.615-90.615z" fill="#0051be"/><g><path d="m256 71.678-152.848 132.544.104-.044 17.52 17.521h135.224l26.514-55.523z" fill="#ff6379"/><path d="m256 71.678v150.021h135.224l17.545-17.546z" fill="#ff415b"/></g><g><path d="m256 390.317-103.554 10.001h-31.67v-178.62l135.224-117.261 54.178 163.174z" fill="#f7f9fa"/><path d="m391.224 400.318v-178.619l-135.224-117.262v285.88l103.554 10.001z" fill="#dbe1e8"/></g><g><path d="m256 389.34-90.735 10.978h-12.819v-187.913h103.554l43.942 93.957z" fill="#ff6379"/><path d="m359.554 400.318h-12.819l-90.735-10.978v-176.935h103.554z" fill="#ff415b"/></g><g><path d="m256 400.318h-90.735v-51.86l90.735-4.642 43.942 21.741z" fill="#7e8a95"/><path d="m346.735 400.318h-90.735v-56.502l90.735 4.642z" fill="#4e5a61"/></g><g><path d="m256 348.458h-90.735v-15.404l36.005-6.001 54.73 6.001 23.94 7.666z" fill="#9de1f7"/><path d="m346.735 348.458h-90.735v-15.404l45.367-6.001 45.368 6.001z" fill="#5ecdf3"/></g><g><path d="m256 317.649-54.263 4.001-36.472-4.001v-15.404l37.171-7 53.564 7 43.942 7.667z" fill="#9de1f7"/><path d="m346.735 317.649-46.793 4.001-43.942-4.001v-15.404l43.942-7 46.793 7z" fill="#5ecdf3"/></g><g><path d="m256 286.841-53.564 7.001-37.171-7.001v-15.404l36.938-7.001 53.797 7.001 43.942 7.667z" fill="#9de1f7"/><path d="m346.735 286.841-46.793 7.001-43.942-7.001v-15.404l43.942-7.001 46.793 7.001z" fill="#5ecdf3"/></g><g><path d="m256 256.033-53.564 7.001-37.171-7.001v-15.404l36.938-8.001 53.797 8.001 43.942 7.666z" fill="#9de1f7"/><path d="m346.735 256.033-46.793 7.001-43.942-7.001v-15.404l43.942-8.001 46.793 8.001z" fill="#5ecdf3"/></g><g><path d="m256 240.629h-90.735v-15.404h90.735l43.942 7.666z" fill="#bdeaf9"/><path d="m256 225.225h90.735v15.404h-90.735z" fill="#9de1f7"/></g><g><path d="m256 271.437h-90.735v-15.404h90.735l43.942 7.666z" fill="#bdeaf9"/><path d="m256 256.033h90.735v15.404h-90.735z" fill="#9de1f7"/></g><g><path d="m256 302.245h-90.735v-15.404h90.735l43.942 7.667z" fill="#bdeaf9"/><path d="m256 286.841h90.735v15.404h-90.735z" fill="#9de1f7"/></g><g><path d="m256 333.054h-90.735v-15.405h90.735l43.942 7.667z" fill="#bdeaf9"/><path d="m256 317.649h90.735v15.404h-90.735z" fill="#9de1f7"/></g><g><g><path d="m431.896 192.538-58.118 68.119c-37.621 0-68.119-30.498-68.119-68.119s30.498-68.119 68.119-68.119z" fill="#ffe377"/><path d="m441.897 192.538c0 37.621-30.498 68.119-68.119 68.119v-136.238c37.621 0 68.119 30.498 68.119 68.119z" fill="#ffd944"/></g><g><path d="m373.778 151.348c-22.526 0-42.67 10.385-55.903 26.616l8.022 8.022c11.144-14.209 28.464-23.355 47.881-23.355l5.589-5.301zm-40.399 42.12 7.993 7.993c7.785-9.224 19.42-15.098 32.407-15.098l5.589-5.15-5.589-6.133c-16.098-.001-30.552 7.13-40.4 18.388zm29.197 40.608c0 6.187 5.016 11.203 11.203 11.203l2.795-11.634-2.795-10.772c-6.188 0-11.203 5.016-11.203 11.203zm-13.616-25.027 7.975 7.975c4.334-4.282 10.284-6.93 16.843-6.93l5.589-5.298-5.589-5.985c-9.67 0-18.44 3.914-24.818 10.238z" fill="#0051be"/><path d="m373.778 175.079v11.283c12.987 0 24.622 5.874 32.407 15.099l7.993-7.993c-9.848-11.258-24.302-18.389-40.4-18.389zm0 35.015c6.559 0 12.509 2.649 16.843 6.93l7.974-7.974c-6.377-6.324-15.148-10.239-24.818-10.239v11.283zm0-58.746v11.283c19.417 0 36.737 9.146 47.881 23.355l8.022-8.022c-13.233-16.23-33.377-26.616-55.903-26.616zm0 71.525v22.406c6.187 0 11.203-5.016 11.203-11.203s-5.015-11.203-11.203-11.203z" fill="#00429c"/></g></g><circle cx="210.633" cy="348.458" fill="#9de1f7" r="9"/><circle cx="301.367" cy="348.458" fill="#5ecdf3" r="9"/></g></svg>