<svg id="Capa_1" enable-background="new 0 0 512 512" height="512" viewBox="0 0 512 512" width="512" xmlns="http://www.w3.org/2000/svg"><g><g><g><g><g><g><g><g><g><g><g><g><g><g><g><g><g><g><g><g><circle cx="256" cy="256" fill="#ff6379" r="256"/></g></g></g></g></g></g></g></g></g></g></g></g></g></g></g></g></g></g></g><path d="m101.529 416.127 86.819 86.819c21.553 5.891 44.231 9.054 67.652 9.054 141.385 0 256-114.615 256-256 0-18.445-1.968-36.428-5.674-53.766l-101.108-101.108z" fill="#ff415b"/><g><g><g><g><g><g><path d="m256 416.127h-154.471v-271.589h154.471l77.235 155.357z" fill="#f7f9fa"/></g></g></g></g><g><g><path d="m256 144.538h154.471v271.59h-154.471z" fill="#dbe1e8"/></g></g></g><g><g><g><g><g><path d="m256 176.243h-154.471v-62.436c0-9.905 8.03-17.935 17.935-17.935h136.536l77.235 45.974z" fill="#00eecf"/></g></g></g></g><g><g><path d="m410.471 176.243h-154.471v-80.37h136.536c9.905 0 17.935 8.03 17.935 17.935z" fill="#00ddc1"/></g></g></g><g><circle cx="314.013" cy="133.165" fill="#ff415b" r="9.807"/></g><circle cx="367.603" cy="133.165" fill="#7e8a95" r="21.762"/><path d="m125.482 116.118h51.503v34.094h-51.503z" fill="#046eff"/><g><g><g><g><g><path d="m256 392.822h-127.019v-190.209h127.019l63.509 108.805z" fill="#9de1f7"/></g></g></g></g><g><g><path d="m256 202.613h127.019v190.209h-127.019z" fill="#5ecdf3"/></g></g></g><g><circle cx="192.108" cy="317.497" fill="#f7f9fa" r="54.356"/><circle cx="192.108" cy="317.497" fill="#dbe1e8" r="34.751"/></g><g fill="#dbe1e8"><path d="m309.15 371.852h-32.187l-7.342-60.297h46.872z"/><path d="m364.926 371.852h-32.186l-7.343-60.297h46.872z"/></g></g></g></svg>