<svg id="Capa_1" enable-background="new 0 0 512 512" height="512" viewBox="0 0 512 512" width="512" xmlns="http://www.w3.org/2000/svg"><g><g><g><g><g><g><g><g><g><g><g><g><g><g><g><g><g><g><g><circle cx="256" cy="256" fill="#ff6379" r="256"/></g></g></g></g></g></g></g></g></g></g></g></g></g></g></g></g></g></g><path d="m161.092 426.486 85.317 85.317c3.184.117 6.378.197 9.591.197 141.385 0 256-114.615 256-256 0-3.213-.08-6.407-.197-9.591l-160.953-160.952z" fill="#ff415b"/><g><path d="m256 80.101h-81.888c-10.143 0-18.365 8.222-18.365 18.365v315.068c0 10.143 8.222 18.365 18.365 18.365h81.888l20.002-175.899z" fill="#0051be"/><path d="m337.888 80.101h-81.888v351.798h81.888c10.143 0 18.365-8.222 18.365-18.365v-315.068c0-10.143-8.223-18.365-18.365-18.365z" fill="#00429c"/><g><g><g><g><g><path d="m256 391.897h-80.252v-291.796h80.252l40.126 166.916z" fill="#f7f9fa"/></g></g></g></g><g><g><path d="m256 100.101h80.252v291.796h-80.252z" fill="#dbe1e8"/></g></g></g><path d="m256 90.783h-50.366l10.001 34.63h40.365l10.001-15.311z" fill="#0051be"/><path d="m256 125.413h40.365l10.001-34.63h-50.366z" fill="#00429c"/><g><g><path d="m256.016 138.687-63.144 54.757.043-.019 7.239 7.238h55.862l10.954-22.937z" fill="#0051be"/><path d="m256.016 138.687v61.976h55.863l7.249-7.248z" fill="#00429c"/></g><g><path d="m256.016 264.453-13.831 10.001h-42.031v-73.791l55.862-48.442 22.382 67.409z" fill="#9de1f7"/><path d="m311.879 274.454v-73.791l-55.863-48.442v112.232l13.831 10.001z" fill="#5ecdf3"/></g><g><g><g><g><g><g><path d="m256.016 274.454h-13.831v-52.696h13.831l6.916 28.21z" fill="#bdeaf9"/></g></g></g></g></g><g><g><path d="m256.016 221.758h13.831v52.696h-13.831z" fill="#9de1f7"/></g></g></g><g><g><g><g><g><g><path d="m256.016 200.663h-13.831v-20.607h13.831l6.916 11.032z" fill="#bdeaf9"/></g></g></g></g></g><g><g><path d="m256.016 180.056h13.831v20.607h-13.831z" fill="#9de1f7"/></g></g></g></g><path d="m272.5 336.677-16.5 29.381c-16.227 0-29.381-13.155-29.381-29.381 0-16.227 13.155-29.381 29.381-29.381z" fill="#00eecf"/><g><g><g><g><g><g><path d="m256 114.574h-27.948v-9.121h27.948l13.974 4.883z" fill="#046eff"/></g></g></g></g></g><g><g><path d="m256 105.453h27.948v9.121h-27.948z" fill="#0051be"/></g></g></g><g><g><g><g><g><g><path d="m256.016 415.426h-27.947v-9.121h27.947l13.974 4.883z" fill="#046eff"/></g></g></g></g></g><g><g><path d="m256.016 406.305h27.948v9.121h-27.948z" fill="#0051be"/></g></g></g></g><path d="m285.381 336.677c0 16.227-13.155 29.381-29.381 29.381v-58.763c16.227 0 29.381 13.155 29.381 29.382z" fill="#00ddc1"/></g></svg>