<svg id="Capa_1" enable-background="new 0 0 512 512" height="512" viewBox="0 0 512 512" width="512" xmlns="http://www.w3.org/2000/svg"><g><g><g><g><g><g><g><g><g><g><g><g><g><g><g><g><g><g><g><g><g><circle cx="256" cy="256" fill="#00eecf" r="256"/></g></g></g></g></g></g></g></g></g></g></g></g></g></g></g></g></g></g></g></g><path d="m100.549 306.402 92.317 92.317-92.317 10.991 95.121 95.121c19.572 4.729 40.011 7.227 61.044 7.168 141.384-.394 255.68-115.328 255.286-256.713-.057-20.534-2.546-40.491-7.165-59.614l-93.383-93.383z" fill="#00ddc1"/><g><g><g><g><g><g><g><path d="m256 409.71h-155.451v-30.823h155.451l77.725 16.111z" fill="#0051be"/></g></g></g></g></g><g><g><path d="m256 378.887h155.451v30.823h-155.451z" fill="#00429c"/></g></g></g><g><g><g><g><g><path d="m256 359.242h-56.259l8.732-62.841h47.527l23.763 32.847z" fill="#046eff"/></g></g></g></g></g><path d="m312.259 359.242h-56.259v-62.841h47.527z" fill="#0051be"/><g><g><g><g><g><g><path d="m256 306.402h-155.451v-204.112h155.451l77.725 106.688z" fill="#0051be"/></g></g></g></g></g><g><g><path d="m256 102.29h155.451v204.113h-155.451z" fill="#00429c"/></g></g></g><g><g><g><g><g><path d="m256 286.612-135.322-.677v-164.192l135.322.676 63.912 93.411z" fill="#ff6379"/></g></g></g></g><g><g><g><path d="m256 122.419h135.322v164.193h-135.322z" fill="#ff415b"/></g></g></g></g><g><path d="m256 147.197c-29.422 0-55.733 13.565-73.017 34.765l10.477 10.477c14.556-18.559 37.179-30.505 62.54-30.505l7.3-6.924zm-52.768 55.014 10.44 10.44c10.168-12.048 25.366-19.72 42.328-19.72l7.3-6.726-7.3-8.011c-21.025-.001-39.904 9.313-52.768 24.017zm38.136 53.041c0 8.081 6.551 14.632 14.632 14.632l3.65-15.195-3.65-14.07c-8.081 0-14.632 6.552-14.632 14.633zm-17.784-32.689 10.416 10.416c5.661-5.592 13.433-9.052 22-9.052l7.3-6.92-7.3-7.817c-12.63 0-24.086 5.113-32.416 13.373z" fill="#f7f9fa"/><path d="m256 178.193v14.737c16.963 0 32.16 7.672 42.328 19.721l10.44-10.44c-12.863-14.703-31.743-24.017-52.768-24.018zm0 45.734c8.567 0 16.339 3.46 22 9.052l10.416-10.416c-8.329-8.261-19.786-13.373-32.416-13.373zm0-76.73v14.737c25.361 0 47.984 11.946 62.54 30.505l10.477-10.477c-17.284-21.2-43.595-34.765-73.017-34.765zm0 93.422v29.265c8.081 0 14.633-6.551 14.633-14.632s-6.551-14.633-14.633-14.633z" fill="#dbe1e8"/></g></g></g></svg>