<svg id="Capa_1" enable-background="new 0 0 512 512" height="512" viewBox="0 0 512 512" width="512" xmlns="http://www.w3.org/2000/svg"><g><g><g><g><g><g><g><g><g><g><g><g><g><g><g><g><g><g><g><g><g><g><g><circle cx="256" cy="256" fill="#046eff" r="256"/></g></g></g></g></g></g></g></g></g></g></g></g></g></g></g></g></g></g></g></g></g></g><path d="m69.333 374.252 131.846 131.846c17.889 3.904 36.468 5.954 55.535 5.901 141.384-.394 255.68-115.328 255.286-256.713-.049-17.599-1.875-34.778-5.304-51.369l-63.696-63.694z" fill="#0051be"/><g><g><path d="m105.942 370.233h54.15v14.727h-54.15z" fill="#b8c2cc"/><path d="m355.908 370.233h54.15v14.727h-54.15z" fill="#7e8a95"/></g><g><g><g><g><g><path d="m204.334 374.252h-135.001v-234.029h135.001l45.927 122.794z" fill="#f7f9fa"/></g></g></g></g><g><g><path d="m204.334 140.223h166.64v234.03h-166.64z" fill="#dbe1e8"/></g></g></g><path d="m370.974 140.223h72.027v234.03h-72.027z" fill="#b8c2cc"/><g><g><g><g><g><path d="m203.757 353.241h-109.825v-192.007h109.825l16.576 101.783z" fill="#7e8a95"/></g></g></g></g><g><g><path d="m203.757 161.234h111.154v192.008h-111.154z" fill="#4e5a61"/></g></g></g><g><g><g><g><g><path d="m203.757 333.893h-90.477v-153.311h90.477l15.91 76.655z" fill="#9de1f7"/></g></g></g></g><g><g><path d="m203.757 180.582h91.529v153.312h-91.529z" fill="#5ecdf3"/></g></g></g><path d="m331.128 180.582h23.628v153.312h-23.628z" fill="#4e5a61"/><path d="m385.157 161.234h43.66v84.9h-43.66z" fill="#00eecf"/><g fill="#0051be"><circle cx="406.987" cy="333.893" r="18.691"/><circle cx="406.987" cy="281.708" r="18.691"/></g></g></g></svg>