<svg id="Capa_1" enable-background="new 0 0 512 512" height="512" viewBox="0 0 512 512" width="512" xmlns="http://www.w3.org/2000/svg"><g><g><g><g><g><g><g><g><g><g><g><g><g><g><g><g><g><g><g><g><g><g><circle cx="256" cy="256" fill="#ffe377" r="256"/></g></g></g></g></g></g></g></g></g></g></g></g></g></g></g></g></g></g></g></g></g><path d="m132.256 379.744 132.111 132.111c134.814-4.336 243.163-112.841 247.48-247.495l-132.103-132.104z" fill="#ffd944"/><g><g><path d="m256 256-61.872-83.103-61.872-40.641c-68.342 68.342-68.342 179.146 0 247.487l61.872-40.642z" fill="#00ddc1"/><path d="m256 256 51.8 80.427 71.943 43.317c68.342-68.342 68.342-179.145 0-247.487l-71.943 48.55z" fill="#00baa0"/><path d="m256 431c44.786 0 89.573-17.086 123.743-51.256l-123.743-123.744zm123.744-298.744c-34.171-34.17-78.957-51.256-123.744-51.256v175z" fill="#00ddc1"/><path d="m132.256 132.256 123.744 123.744v-175c-44.786 0-89.573 17.085-123.744 51.256zm123.744 298.744v-175l-123.743 123.744c34.171 34.171 78.957 51.256 123.743 51.256z" fill="#00eecf"/></g><g><g><path d="m325.25 256-69.25 87.5c-48.325 0-87.5-39.175-87.5-87.5s39.175-87.5 87.5-87.5z" fill="#ff6379"/><path d="m343.5 256c0-48.325-39.175-87.5-87.5-87.5v175c48.325 0 87.5-39.175 87.5-87.5z" fill="#ff415b"/></g><g><g><g><g><g><path d="m256 258.613h-8.605v-65.026h8.605l4.302 34.811z" fill="#f7f9fa"/></g></g></g></g><g><g><path d="m256 193.587h8.605v65.026h-8.605z" fill="#dbe1e8"/></g></g></g><g><path d="m256 299.178c-22.166 0-40.2-18.034-40.2-40.2 0-15.97 9.462-30.431 24.106-36.839l-6.9-15.766c-20.907 9.15-34.416 29.799-34.416 52.606 0 31.656 25.754 57.41 57.41 57.41l5.615-9.382z" fill="#f7f9fa"/><path d="m313.41 258.978c0-22.807-13.509-43.456-34.416-52.606l-6.9 15.766c14.644 6.409 24.106 20.869 24.106 36.839 0 22.166-18.034 40.2-40.2 40.2v17.21c31.656.001 57.41-25.753 57.41-57.409z" fill="#dbe1e8"/></g></g><g><path d="m279.138 378.729-11.122-11.122-12.016 12.016-5.521 9.741 5.521 12.503zm0-245.458-23.138-23.138-5.521 11.479 5.521 10.765 12.016 12.016z" fill="#0051be"/><path d="m256 132.377v-22.244l-23.138 23.138 11.122 11.122zm-23.138 246.352 23.138 23.138v-22.244l-12.016-12.016z" fill="#046eff"/></g><g><circle cx="130.258" cy="256" fill="#046eff" r="14.137"/><circle cx="381.742" cy="256" fill="#0051be" r="14.137"/></g></g></g></svg>