<svg id="Capa_1" enable-background="new 0 0 512 512" height="512" viewBox="0 0 512 512" width="512" xmlns="http://www.w3.org/2000/svg"><g><g><g><g><g><g><g><g><g><g><g><g><g><g><g><g><g><g><circle cx="256" cy="256" fill="#ff6379" r="256"/></g></g></g></g></g></g></g></g></g></g></g></g></g></g></g></g></g><path d="m85.928 371.324 138.768 138.768c10.261 1.251 20.705 1.908 31.304 1.908 141.385 0 256-114.615 256-256 0-10.599-.657-21.043-1.908-31.304l-84.02-84.02z" fill="#ff415b"/><g><g><path d="m431.899 256v-101.89c0-10.143-8.222-18.365-18.365-18.365h-315.068c-10.143 0-18.365 8.222-18.365 18.365v101.89l175.899 20.002z" fill="#0051be"/><path d="m431.899 357.89v-101.89h-351.798v101.89c0 10.143 8.222 18.365 18.365 18.365h315.068c10.143 0 18.365-8.223 18.365-18.365z" fill="#00429c"/><g><g><g><g><g><path d="m100.103 256v-100.253h311.794v100.253l-166.914 40.126z" fill="#f7f9fa"/></g></g></g></g><g><g><path d="m100.103 256h311.794v100.253h-311.794z" fill="#dbe1e8"/></g></g></g></g><path d="m160.097 173.328-29.748 25.796v39.296h59.497v-39.296z" fill="#00ddc1"/><g><g><path d="m160.098 338.834c-18.035 0-32.708-14.673-32.708-32.708s14.672-32.707 32.708-32.707c18.035 0 32.707 14.672 32.707 32.707s-14.673 32.708-32.707 32.708zm0-50.415c-9.764 0-17.708 7.943-17.708 17.707 0 9.765 7.943 17.708 17.708 17.708 9.764 0 17.707-7.943 17.707-17.708 0-9.764-7.944-17.707-17.707-17.707z" fill="#5ecdf3"/></g><g><g><path d="m256 338.834c-18.035 0-32.708-14.673-32.708-32.708s14.672-32.707 32.708-32.707c18.035 0 32.707 14.672 32.707 32.707s-14.672 32.708-32.707 32.708z" fill="#00429c"/></g><circle cx="256" cy="301.7" fill="#ffd944" r="16.528"/><path d="m249.423 311.928h13.153v13.153h-13.153z" fill="#ffd944"/><g fill="#5ecdf3"><path d="m247.146 319.925h17.707v7.157h-17.707z"/><path d="m251.109 323.554h9.782v5.821h-9.782z"/></g></g><g><g><g><path d="m351.903 338.834c-18.035 0-32.708-14.673-32.708-32.708s14.672-32.707 32.708-32.707c18.035 0 32.707 14.672 32.707 32.707s-14.672 32.708-32.707 32.708z" fill="#00429c"/></g></g><path d="m367.153 310.831c0 8.422-6.828 15.25-15.25 15.25s-15.25-6.828-15.25-15.25 15.25-24.377 15.25-24.377 15.25 15.955 15.25 24.377z" fill="#5ecdf3"/></g></g><g><path d="m223.293 197.344h149.888v16h-149.888z" fill="#ffd944"/><path d="m223.293 222.42h70.574v16h-70.574z" fill="#ff6379"/></g></g></g></svg>