<svg id="Capa_1" enable-background="new 0 0 512 512" height="512" viewBox="0 0 512 512" width="512" xmlns="http://www.w3.org/2000/svg"><g><g><g><g><g><g><g><g><g><g><g><g><g><g><g><g><g><g><g><g><g><circle cx="256" cy="256" fill="#00eecf" r="256"/></g></g></g></g></g></g></g></g></g></g></g></g></g></g></g></g></g></g></g></g><path d="m336.985 68.077-37.586 12.377-12.737 19.106 77.645 77.645-281.207 179.218 154.946 154.947c6.166.427 12.389.647 18.667.629 141.384-.394 255.68-115.328 255.286-256.713-.052-18.699-2.127-36.918-5.982-54.467l-109.97-109.969z" fill="#00ddc1"/><g><path d="m190.48 95.45-121.376 105.254.082-.036 13.914 13.914h107.38l21.055-44.09z" fill="#0051be"/><path d="m190.48 95.45v119.132h107.381l13.933-13.933z" fill="#00429c"/></g><g><path d="m190.48 346.422-22.828 10.001h-84.552v-141.841l107.38-93.117 43.023 129.575z" fill="#ffe377"/><path d="m297.861 356.423v-141.841l-107.381-93.117v224.957l22.829 10.001z" fill="#ffd944"/></g><g><g><g><g><g><path d="m190.48 356.634h-22.828v-79.647h22.828l11.414 42.638z" fill="#0051be"/></g></g></g></g><g><g><path d="m190.48 276.987h22.828v79.647h-22.828z" fill="#00429c"/></g></g></g><g><g><g><g><g><path d="m190.48 234.057h-22.828v-36.063h22.828l11.414 19.306z" fill="#9de1f7"/></g></g></g></g><g><g><path d="m190.48 197.994h22.828v36.063h-22.828z" fill="#5ecdf3"/></g></g></g><g><g><path d="m336.985 147.113h-66.887c-8.285 0-15.001 6.716-15.001 15.001v257.352c0 8.285 6.716 15.001 15.001 15.001h66.887l16.338-143.677z" fill="#b8c2cc"/><path d="m403.873 147.113h-66.887v287.353h66.887c8.285 0 15.001-6.716 15.001-15.001v-257.352c-.001-8.284-6.717-15-15.001-15z" fill="#7e8a95"/><g><g><g><g><g><path d="m336.985 401.792h-65.551v-238.343h65.551l32.776 136.339z" fill="#f7f9fa"/></g></g></g></g><g><g><path d="m336.985 163.449h65.551v238.343h-65.551z" fill="#dbe1e8"/></g></g></g><path d="m336.985 155.838h-41.139l8.169 28.286h32.97l8.169-12.506z" fill="#b8c2cc"/><path d="m336.985 184.124h32.971l8.169-28.286h-41.14z" fill="#7e8a95"/><g><g><g><g><g><g><path d="m336.985 175.271h-22.828v-7.45h22.828l11.415 3.988z" fill="#7e8a95"/></g></g></g></g></g><g><g><path d="m336.985 167.821h22.828v7.45h-22.828z" fill="#4e5a61"/></g></g></g><g><g><g><g><g><g><path d="m336.999 421.011h-22.828v-7.45h22.828l11.414 3.988z" fill="#7e8a95"/></g></g></g></g></g><g><g><path d="m336.999 413.561h22.828v7.45h-22.828z" fill="#4e5a61"/></g></g></g></g><g><path d="m374.635 289.544c0-20.795-16.858-37.652-37.652-37.652l-11.805 31.216 10.937 52.308h38.52z" fill="#ff415b"/><path d="m336.982 335.415h-37.652v-45.871c0-20.795 16.858-37.652 37.653-37.652v83.523z" fill="#ff6379"/><g><g><g><g><g><path d="m336.985 343.019h-46.599v-15.207h46.599l23.3 8.141z" fill="#0051be"/></g></g></g></g><g><g><path d="m336.985 327.812h46.599v15.208h-46.599z" fill="#00429c"/></g></g></g></g><g><g><g><g><g><path d="m336.985 242.026h-7.5v-30h7.5l3.75 16.06z" fill="#ff6379"/></g></g></g></g><g><g><path d="m336.985 212.026h7.5v30h-7.5z" fill="#ff415b"/></g></g></g><g><path d="m305.746 217.28-6.513 3.719-6.513 3.719 14.877 26.052 6.513-3.719 6.513-3.719z" fill="#ff6379"/><path d="m368.225 217.28 6.513 3.719 6.513 3.719-14.877 26.052-6.513-3.719-6.513-3.719z" fill="#ff415b"/></g></g><g><path d="m336.985 113.043-6.001 6.44 6.001 5.422h.013c6.896 0 13.151 2.785 17.707 7.286l8.384-8.383c-6.704-6.649-15.925-10.764-26.091-10.764-.004-.001-.008-.001-.013-.001zm.014-49.897c-.005 0-.009 0-.013 0l-6.001 5.242 6.001 6.62h.013c20.413 0 38.622 9.615 50.337 24.553l8.433-8.433c-13.912-17.064-35.089-27.982-58.77-27.982zm0 24.948c-.005 0-.009 0-.013 0l-6.001 5.574 6.001 6.288h.013c13.653 0 25.885 6.176 34.069 15.873l8.403-8.403c-10.354-11.835-25.549-19.332-42.472-19.332z" fill="#00429c"/><path d="m278.229 91.127 8.433 8.433c11.713-14.935 29.916-24.548 50.324-24.553v-11.861c-23.677.004-44.848 10.921-58.757 27.981zm41.063 41.063c4.553-4.498 10.804-7.282 17.694-7.285v-11.862c-10.16.004-19.376 4.118-26.077 10.763zm-24.765-24.765 8.403 8.403c8.181-9.694 20.408-15.868 34.056-15.872v-11.862c-16.918.004-32.108 7.5-42.459 19.331z" fill="#0051be"/></g></g></svg>