<svg id="Capa_1" enable-background="new 0 0 512 512" height="512" viewBox="0 0 512 512" width="512" xmlns="http://www.w3.org/2000/svg"><g><g><g><g><g><g><g><g><g><g><g><g><g><g><g><g><g><g><g><g><g><g><circle cx="256" cy="256" fill="#ffe377" r="256"/></g></g></g></g></g></g></g></g></g></g></g></g></g></g></g></g></g></g></g></g></g><path d="m315.968 184.312-69.768-69.767-73.52 213.055-68.697 81.682 96.713 96.713c18.037 3.973 36.779 6.058 56.017 6.005 141.384-.394 255.68-115.328 255.286-256.713-.025-8.887-.504-17.667-1.412-26.318l-87.97-87.97z" fill="#ffd944"/><g><path d="m183.405 385.112h-62.795v-270.567h62.795l27.717 145.567z" fill="#dbe1e8"/><path d="m405.954 294.088c0 17.449-14.146 31.595-31.595 31.595s-31.595-14.146-31.595-31.595 31.595-50.505 31.595-50.505 31.595 33.056 31.595 50.505z" fill="#5ecdf3"/><path d="m246.2 385.112h-62.795v-270.567h62.795v116.441l-12.59 29.126 12.59 29.126z" fill="#b8c2cc"/><g><g><g><g><g><g><path d="m183.405 409.282h-79.422v-33.272h79.422l39.711 17.812z" fill="#7e8a95"/></g></g></g></g></g><g><g><path d="m183.405 376.01h79.422v33.272h-79.422z" fill="#4e5a61"/></g></g></g><path d="m246.2 289.238c-16.086 0-29.126-13.04-29.126-29.126s13.04-29.126 29.126-29.126z" fill="#ff415b"/><path d="m346.121 204.986h56.476v20.142h-56.476z" fill="#7e8a95"/><path d="m196.016 140.998h226.601v70.146h-226.601z" fill="#b8c2cc"/></g></g></svg>