<svg id="Capa_1" enable-background="new 0 0 512 512" height="512" viewBox="0 0 512 512" width="512" xmlns="http://www.w3.org/2000/svg"><g><g><path d="m256 .219c-141.385 0-256 114.615-256 256 0 136.407 106.691 247.881 241.174 255.562h29.652c134.483-7.681 241.174-119.155 241.174-255.562 0-141.385-114.615-256-256-256z" fill="#9de1f7"/></g><path d="m423.33 203.64-158.725-158.725-8.605 22.515v102.698l-186.392 168.105 173.548 173.548h27.67c130.493-7.453 234.811-112.633 240.887-243.489l-69.321-69.321z" fill="#5ecdf3"/><g><circle cx="139.24" cy="268.602" fill="#7e8a95" r="98.474"/><circle cx="372.76" cy="268.602" fill="#4e5a61" r="98.474"/><path d="m256 318.864h-116.76v-148.736h116.76l84.449 74.368z" fill="#7e8a95"/><g><g><g><g><g><path d="m256 167.116h-8.605v-122.201h8.605l4.302 65.418z" fill="#b8c2cc"/></g></g></g></g><g><g><path d="m256 44.915h8.605v122.201h-8.605z" fill="#7e8a95"/></g></g></g><g><g><g><g><g><path d="m256 177.117h-26.04v-32.481h26.04l13.02 17.388z" fill="#7e8a95"/></g></g></g></g><g><g><path d="m256 144.636h26.04v32.481h-26.04z" fill="#4e5a61"/></g></g></g><path d="m256 170.128h116.76v148.736h-116.76z" fill="#4e5a61"/><g fill="#dbe1e8"><path d="m123.887 218.348h30.705v100.506h-30.705z"/><path d="m123.887 218.348h30.705v100.506h-30.705z" transform="matrix(0 -1 1 0 -129.362 407.841)"/></g><g><g><g><g><g><g><g><path d="m256 283.954h-32.426v-31.593h32.426l16.213 16.913z" fill="#ff6379"/></g></g></g></g></g></g><g><g><path d="m256 252.361h32.426v31.593h-32.426z" fill="#ff415b"/></g></g></g><circle cx="372.408" cy="233.348" fill="#046eff" r="15"/><circle cx="372.408" cy="303.855" fill="#046eff" r="15"/><g fill="#00ddc1"><circle cx="337.155" cy="268.602" r="15"/><circle cx="407.661" cy="268.602" r="15"/></g></g></g></svg>