<svg id="Capa_1" enable-background="new 0 0 512 512" height="512" viewBox="0 0 512 512" width="512" xmlns="http://www.w3.org/2000/svg"><g><g><g><g><g><g><g><g><g><g><g><g><g><g><g><g><g><g><g><circle cx="256" cy="256" fill="#ff6379" r="256"/></g></g></g></g></g></g></g></g></g></g></g></g></g></g></g></g></g></g><path d="m256 132.416-175 36.292 50.35 50.35-36.879 36.879 83.87 83.87-69.546 69.546 97.88 97.88c15.964 3.117 32.45 4.767 49.325 4.767 141.385 0 256-114.615 256-256 0-25.763-3.822-50.629-10.901-74.083l-70.099-70.099z" fill="#ff415b"/><g><g><g><g><g><g><g><path d="m256 409.354h-147.204v-256.605h147.204l73.602 137.369z" fill="#0051be"/></g></g></g></g><g><g><path d="m256 152.749h147.204v256.605h-147.204z" fill="#00429c"/></g></g></g></g><g><g><g><g><g><g><path d="m256 388.351h-128.079v-217.374h128.079l73.602 119.141z" fill="#9de1f7"/></g></g></g></g><g><g><path d="m256 170.977h128.079v217.374h-128.079z" fill="#5ecdf3"/></g></g></g></g></g><g><g><g><g><g><path d="m256 255.937h-161.528v-123.521h161.528l80.765 66.125z" fill="#dbe1e8"/></g></g></g></g><g><g><path d="m256 132.416h161.529v123.521h-161.529z" fill="#b8c2cc"/></g></g></g><g><g><g><g><g><path d="m256 168.708h-174.999v-56.89h174.999l87.5 30.455z" fill="#f7f9fa"/></g></g></g></g><g><g><path d="m256 111.818h175v56.889h-175z" fill="#dbe1e8"/></g></g></g><g><g><g><g><g><g><g><g><path d="m320.108 458.12h-43.783v-156.489h43.783l21.891 89.516z" fill="#dbe1e8"/></g></g></g></g><g><g><path d="m320.108 301.631h43.782v156.489h-43.782z" fill="#b8c2cc"/></g></g></g></g><g><path d="m329.823 326.312-9.715 12.275c-6.779 0-12.275-5.496-12.275-12.275s5.496-12.275 12.275-12.275z" fill="#00ddc1"/><path d="m332.383 326.312c0-6.779-5.496-12.275-12.275-12.275v24.549c6.779.001 12.275-5.495 12.275-12.274z" fill="#00baa0"/></g><g><g><path d="m337.433 369.669-17.325 21.891c-12.09 0-21.891-9.801-21.891-21.891s9.801-21.891 21.891-21.891z" fill="#f7f9fa"/><path d="m341.999 369.669c0-12.09-9.801-21.891-21.891-21.891v43.782c12.09.001 21.891-9.8 21.891-21.891z" fill="#dbe1e8"/></g><g><path d="m334.2 371.728-14.092-14.092-3.363 6.992 3.363 6.557 7.318 7.318z" fill="#0051be"/><path d="m320.108 371.184v-13.548l-14.092 14.092 6.774 6.774z" fill="#046eff"/></g></g><g><g><path d="m302.782 421.643 17.325-21.891c12.09 0 21.891 9.801 21.891 21.891s-9.801 21.891-21.891 21.891z" fill="#dbe1e8"/><path d="m298.217 421.643c0 12.09 9.801 21.891 21.891 21.891v-43.782c-12.09 0-21.891 9.801-21.891 21.891z" fill="#f7f9fa"/></g><g><path d="m306.015 419.584 14.092 14.092 3.363-6.992-3.363-6.557-7.318-7.318z" fill="#046eff"/><path d="m320.108 420.128v13.548l14.092-14.092-6.774-6.774z" fill="#0051be"/></g></g></g><g><path d="m320.094 268.009-6.001 6.44 6.001 5.422h.013c6.896 0 13.151 2.785 17.707 7.286l8.384-8.383c-6.704-6.649-15.925-10.764-26.091-10.764-.004-.001-.008-.001-.013-.001zm.014-49.897c-.005 0-.009 0-.013 0l-6.001 5.242 6.001 6.62h.013c20.413 0 38.622 9.615 50.337 24.553l8.433-8.433c-13.912-17.064-35.089-27.982-58.77-27.982zm0 24.948c-.005 0-.009 0-.013 0l-6.001 5.574 6.001 6.288h.013c13.653 0 25.885 6.176 34.069 15.873l8.403-8.403c-10.353-11.835-25.549-19.332-42.472-19.332z" fill="#ffd944"/><path d="m261.338 246.093 8.433 8.433c11.713-14.935 29.916-24.548 50.324-24.553v-11.862c-23.676.005-44.848 10.922-58.757 27.982zm41.063 41.063c4.553-4.498 10.804-7.282 17.694-7.285v-11.862c-10.16.004-19.376 4.118-26.077 10.763zm-24.765-24.765 8.403 8.403c8.181-9.694 20.408-15.868 34.056-15.872v-11.862c-16.918.004-32.108 7.5-42.459 19.331z" fill="#ffe377"/></g></g></g></svg>