<svg id="Capa_1" enable-background="new 0 0 512 512" height="512" viewBox="0 0 512 512" width="512" xmlns="http://www.w3.org/2000/svg"><g><g><g><g><g><g><g><g><g><g><g><g><g><g><g><g><g><g><g><g><g><g><g><g><g><circle cx="256" cy="256" fill="#046eff" r="256"/></g></g></g></g></g></g></g></g></g></g></g></g></g></g></g></g></g></g></g></g></g></g></g></g><path d="m145.237 72.754 46.56 46.56-16.926 16.926 81.129 81.128-110.763 121.9 40.27 40.27-27.326 63.008 67.684 67.684c10.117 1.186 20.408 1.799 30.848 1.77 141.384-.394 255.68-115.328 255.286-256.713-.071-25.424-3.864-49.964-10.83-73.127l-134.406-134.406z" fill="#0051be"/><g><path d="m216.44 264.941c-23.55-37.549-69.851-50.923-69.851-50.923s-8.12 47.505 15.43 85.054 69.851 50.923 69.851 50.923 8.119-47.505-15.43-85.054z" fill="#00eecf"/><path d="m245.531 245.92c-14.707-41.812-56.929-65.049-56.929-65.049s-18.377 44.553-3.67 86.364c14.707 41.812 56.929 65.049 56.929 65.049s18.377-44.552 3.67-86.364z" fill="#00ddc1"/><g><path d="m295.56 264.941c23.55-37.549 69.851-50.923 69.851-50.923s8.12 47.505-15.43 85.054-69.851 50.923-69.851 50.923-8.119-47.505 15.43-85.054z" fill="#00ddc1"/><path d="m266.469 245.92c14.707-41.812 56.929-65.049 56.929-65.049s18.377 44.553 3.67 86.364c-14.707 41.812-56.929 65.049-56.929 65.049s-18.377-44.552-3.67-86.364z" fill="#00baa0"/></g><g><g><path d="m223.881 236.058c0 44.323 32.119 80.253 32.119 80.253l32.119-80.253-32.119-80.254s-32.119 35.931-32.119 80.254z" fill="#00eecf"/></g><g><path d="m256 316.311s32.119-35.931 32.119-80.253-32.119-80.254-32.119-80.254z" fill="#00ddc1"/></g></g><g><g><g><g><g><g><path d="m256 442.546h-97.819v-111.694h97.819l48.91 59.793z" fill="#ffe377"/></g></g></g></g></g><g><g><g><g><path d="m256 330.852h97.819v111.694h-97.819z" fill="#ffd944"/></g></g></g></g></g><g><g><g><g><g><g><path d="m256 338.587h-110.763v-32.97h110.763l55.382 17.65z" fill="#ffd944"/></g></g></g></g></g><g><g><g><g><path d="m256 305.617h110.763v32.97h-110.763z" fill="#fc0"/></g></g></g></g></g></g><g><g><g><g><g><path d="m256 72.754h-110.763v-25h110.763l55.382 13.383z" fill="#ff6379"/></g></g></g></g><g><g><g><g><path d="m256 47.754h110.763v25h-110.763z" fill="#ff415b"/></g></g></g></g></g><g><path d="m274.338 121.123-18.338 22.869c-12.63 0-22.869-10.239-22.869-22.869s22.869-36.557 22.869-36.557z" fill="#9de1f7"/><path d="m278.869 121.123c0 12.63-10.239 22.869-22.869 22.869v-59.426s22.869 23.927 22.869 36.557z" fill="#5ecdf3"/></g><path d="m319.903 84.566s-22.869 23.926-22.869 36.557 10.239 22.869 22.869 22.869 22.869-10.239 22.869-22.869-22.869-36.557-22.869-36.557z" fill="#5ecdf3"/><path d="m192.097 84.566s-22.869 23.926-22.869 36.557 10.239 22.869 22.869 22.869 22.869-10.239 22.869-22.869-22.869-36.557-22.869-36.557z" fill="#9de1f7"/><g><path d="m291.697 389.888-36.409 46.004c-25.408 0-46.004-20.597-46.004-46.004s20.597-46.004 46.004-46.004z" fill="#ff6379"/><path d="m301.292 389.888c0-25.408-20.597-46.004-46.004-46.004v92.009c25.407-.001 46.004-20.598 46.004-46.005z" fill="#ff415b"/></g><g><g><g><g><g><path d="m255.288 391.261h-4.524v-34.188h4.524l2.262 18.302z" fill="#f7f9fa"/></g></g></g></g><g><g><path d="m255.288 357.073h4.524v34.188h-4.524z" fill="#dbe1e8"/></g></g></g><g><path d="m255.288 412.589c-11.654 0-21.136-9.482-21.136-21.136 0-8.397 4.975-15.999 12.674-19.369l-3.628-8.289c-10.992 4.811-18.095 15.667-18.095 27.658 0 16.644 13.541 30.184 30.184 30.184l2.952-4.933z" fill="#f7f9fa"/><path d="m285.472 391.454c0-11.991-7.103-22.848-18.095-27.658l-3.628 8.289c7.699 3.369 12.674 10.972 12.674 19.369 0 11.654-9.482 21.136-21.136 21.136v9.048c16.645 0 30.185-13.541 30.185-30.184z" fill="#dbe1e8"/></g></g></svg>