<svg id="Capa_1" enable-background="new 0 0 512 512" height="512" viewBox="0 0 512 512" width="512" xmlns="http://www.w3.org/2000/svg"><g><g><g><g><g><g><g><g><g><g><g><g><g><g><g><g><g><g><g><g><g><g><g><circle cx="256" cy="256" fill="#ffe377" r="256"/></g></g></g></g></g></g></g></g></g></g></g></g></g></g></g></g></g></g></g></g></g></g><path d="m374.088 284.746-118.987-118.987-14.185 14.185-94.902-94.902-55.611 325.705 89.861 89.861c24.154 7.471 49.832 11.465 76.449 11.391 112.065-.312 207.096-72.591 241.501-172.958l-89.211-89.211z" fill="#ffd944"/><g><path d="m121.85 85.042h24.164v95.556h-24.164z" fill="#0051be"/><path d="m172.902 163.251h-73.465c-9.099 0-16.476 7.377-16.476 16.476v216.753c0 9.099 7.377 16.476 16.476 16.476h73.465l17.945-157.806z" fill="#046eff"/><path d="m246.366 163.251h-73.465v249.705h73.465c9.099 0 16.476-7.377 16.476-16.476v-216.753c0-9.099-7.376-16.476-16.476-16.476z" fill="#0051be"/><g><g><g><g><g><path d="m172.902 288.104h-58.971v-93.16h58.971l29.485 49.872z" fill="#f7f9fa"/></g></g></g></g><g><g><path d="m172.902 194.944h58.97v93.159h-58.97z" fill="#dbe1e8"/></g></g></g><g><g><g><g><g><path d="m203.514 346.494v-25.817h28.716v25.817l-15.373 12.909z" fill="#dbe1e8"/></g></g></g></g><g><g><path d="m203.514 346.494h28.716v25.818h-28.716z" fill="#ff6379"/></g></g></g><circle cx="132.341" cy="346.494" fill="#5ecdf3" r="25.818"/><g><path d="m184.922 241.524-12.021-23.958-4.317-4.318c-8.047-8.046-21.092-8.046-29.139 0-8.047 8.047-8.047 21.092 0 29.139l33.448 33.448.009-.009z" fill="#ff6379"/><path d="m206.358 213.248c-8.047-8.046-21.092-8.046-29.139 0l-4.317 4.318-.009 58.269.009-.009 33.456-33.439c8.046-8.046 8.046-21.092 0-29.139z" fill="#ff415b"/></g><g><path d="m419.36 412.956h-65.269l-20.674-29.727 20.674-36.414h37.355l27.914 32.953z" fill="#00429c"/><path d="m354.091 412.956h-65.27v-33.188l27.914-32.953h37.356z" fill="#0051be"/><g><path d="m413.407 300.528-59.317 74.949c-41.393 0-74.949-33.556-74.949-74.949s33.556-74.949 74.949-74.949z" fill="#046eff"/><path d="m429.039 300.528c0-41.393-33.556-74.949-74.949-74.949v149.897c41.394.001 74.949-33.555 74.949-74.948z" fill="#0051be"/></g><g><path d="m393.93 300.528-39.839 50.338c-27.801 0-50.338-22.537-50.338-50.338s22.537-50.338 50.338-50.338z" fill="#f7f9fa"/><path d="m404.429 300.528c0-27.801-22.537-50.338-50.338-50.338v100.677c27.801-.001 50.338-22.538 50.338-50.339z" fill="#dbe1e8"/></g><g><path d="m370.453 300.528-16.362 20.674c-11.418 0-20.674-9.256-20.674-20.674s9.256-20.674 20.674-20.674z" fill="#7e8a95"/><path d="m374.765 300.528c0-11.418-9.256-20.674-20.674-20.674v41.348c11.417 0 20.674-9.256 20.674-20.674z" fill="#4e5a61"/></g></g></g></g></svg>