<svg id="Capa_1" enable-background="new 0 0 512 512" height="512" viewBox="0 0 512 512" width="512" xmlns="http://www.w3.org/2000/svg"><g><g><g><g><g><g><g><g><g><g><g><g><g><g><g><g><g><g><g><g><g><circle cx="256" cy="256" fill="#ffe377" r="256"/></g></g></g></g></g></g></g></g></g></g></g></g></g></g></g></g></g></g></g><path d="m408.769 204.153-.059-.111-287.933 17.657 87.589 91.031-87.589 87.589 110.488 110.488c8.141.78 16.389 1.193 24.735 1.193 125.31 0 229.575-90.04 251.668-208.948z" fill="#ffd944"/><g><path d="m256 71.677-152.849 132.545.105-.044 17.52 17.52h135.224l26.514-55.522z" fill="#ff6379"/><path d="m256 71.677v150.021h135.224l17.545-17.545z" fill="#ff415b"/></g><g><path d="m256 400.318h-135.224v-178.62l135.224-117.261 54.178 163.174z" fill="#f7f9fa"/><path d="m391.224 400.318v-178.62l-135.224-117.261v295.881z" fill="#dbe1e8"/></g></g><g><path d="m256 203.339c-40.308 0-76.353 18.583-100.032 47.627l14.354 14.354c19.941-25.426 50.934-41.792 85.678-41.792l10.001-9.486zm-72.291 75.369 14.302 14.302c13.93-16.506 34.75-27.017 57.989-27.017l10.001-9.215-10.001-10.974c-28.804 0-54.669 12.76-72.291 32.904zm52.245 72.665c0 11.071 8.975 20.046 20.046 20.046l5-20.817-5-19.276c-11.071 0-20.046 8.976-20.046 20.047zm-24.363-44.783 14.27 14.27c7.755-7.661 18.403-12.401 30.139-12.401l10.001-9.48-10.001-10.71c-17.303 0-32.998 7.004-44.409 18.321z" fill="#00ddc1"/><path d="m256 245.804v20.189c23.239 0 44.059 10.511 57.989 27.017l14.302-14.302c-17.622-20.144-43.487-32.904-72.291-32.904zm0 62.654c11.737 0 22.384 4.74 30.14 12.401l14.27-14.27c-11.411-11.317-27.106-18.321-44.409-18.321v20.19zm0-105.119v20.189c34.744 0 65.738 16.365 85.679 41.792l14.354-14.354c-23.68-29.043-59.725-47.626-100.033-47.627zm0 127.987v40.093c11.071 0 20.047-8.975 20.047-20.046s-8.975-20.047-20.047-20.047z" fill="#00baa0"/></g></g></svg>