<svg id="Capa_1" enable-background="new 0 0 512 512" height="512" viewBox="0 0 512 512" width="512" xmlns="http://www.w3.org/2000/svg"><g><g><g><path d="m256 .219c-141.385 0-256 114.615-256 256 0 136.407 106.691 247.881 241.174 255.562h29.652c134.483-7.681 241.174-119.155 241.174-255.562 0-141.385-114.615-256-256-256z" fill="#ff6379"/></g></g><path d="m70.167 369.924 137.754 137.754c10.859 2.063 21.955 3.458 33.252 4.103h29.652c134.484-7.681 241.175-119.155 241.175-255.562 0-8.204-.402-16.313-1.157-24.32l-99.544-99.544z" fill="#ff415b"/><g><g><g><g><g><g><g><path d="m255.849 336.468h-155.451v-204.113h155.451l77.725 106.689z" fill="#7e8a95"/></g></g></g></g></g><g><g><path d="m255.849 132.355h155.451v204.113h-155.451z" fill="#4e5a61"/></g></g></g><g><g><g><g><g><path d="m255.849 316.677-135.322-.676v-164.193l135.322.676 63.912 93.411z" fill="#046eff"/></g></g></g></g></g><g><g><g><path d="m255.849 152.484h135.322v164.193h-135.322z" fill="#0051be"/></g></g></g><g><g><g><g><g><path d="m255.849 369.923h-185.681v-37.312h165.007l20.674 10.001 20.674 9.502z" fill="#b8c2cc"/></g></g></g></g><g><g><path d="m441.53 369.923h-185.681v-27.311l20.674-10.001h165.007z" fill="#7e8a95"/></g></g><g><path d="m272.211 332.611-16.362 20.674c-11.418 0-20.674-9.256-20.674-20.674z" fill="#0051be"/><path d="m276.523 332.611h-20.674v20.674c11.418 0 20.674-9.256 20.674-20.674z" fill="#00429c"/></g></g><g><path d="m341.217 207.541c0 9.764-7.944 17.708-17.707 17.708-9.764 0-17.708-7.943-17.708-17.708 0-9.764 7.943-17.707 17.707-17.707v-15c-18.035 0-32.707 14.672-32.707 32.707s14.672 32.708 32.708 32.708c18.034 0 32.707-14.673 32.707-32.708z" fill="#5ecdf3"/><path d="m323.51 174.833v15c9.764 0 17.707 7.943 17.707 17.707h15c0-18.035-14.672-32.707-32.707-32.707z" fill="#ffd944"/></g><path d="m212.555 185.675s-10.91 13.613-24.367 13.613-24.367-13.613-24.367-13.613 10.91-13.613 24.367-13.613 24.367 13.613 24.367 13.613z" fill="#f7f9fa"/><circle cx="188.188" cy="185.675" fill="#4e5a61" r="10.842"/><path d="m276.523 282.516h93.974v12.954h-93.974z" fill="#5ecdf3"/><path d="m276.523 256.063h70.326l2.989 6.476-2.989 6.477h-70.326z" fill="#00ddc1"/><path d="m346.849 256.063h23.648v12.954h-23.648z" fill="#ffd944"/><path d="m188.188 212.265-38.026 32.975v50.23h25.751v-30.993h24.55v30.993h25.751v-50.23z" fill="#00eecf"/></g></g></svg>