<svg id="Capa_1" enable-background="new 0 0 512 512" height="512" viewBox="0 0 512 512" width="512" xmlns="http://www.w3.org/2000/svg"><g><g><g><g><g><g><g><g><g><g><g><g><g><g><g><g><g><g><g><g><g><g><g><g><circle cx="256" cy="256" fill="#ffe377" r="256"/></g></g></g></g></g></g></g></g></g></g></g></g></g></g></g></g></g></g></g></g></g></g></g><path d="m75.874 388.289 115.459 115.459c20.88 5.435 42.79 8.313 65.38 8.25 141.384-.394 255.68-115.328 255.286-256.713-.061-21.91-2.878-43.167-8.113-63.45l-68.333-68.333z" fill="#ffd944"/><g><g><g><g><g><g><path d="m255.714 388.289h-179.84v-264.785h179.84l89.919 141.749z" fill="#0051be"/></g></g></g></g><g><g><path d="m255.714 123.504h179.84v264.785h-179.84z" fill="#00429c"/></g></g></g><g><g><g><g><g><path d="m255.714 345.161h-136.712v-178.529h136.712l89.919 98.621z" fill="#046eff"/></g></g></g></g><g><g><path d="m255.714 166.632h136.711v178.529h-136.711z" fill="#0051be"/></g></g></g><g><g><g><g><g><path d="m255.714 302.991h-68.356v-94.189h68.356l44.96 52.031z" fill="#f7f9fa"/></g></g></g></g><g><g><path d="m255.714 208.802h68.356v94.19h-68.356z" fill="#dbe1e8"/></g></g></g><g><path d="m211.991 250.847h14.474v14.474h-14.474z" fill="#b8c2cc"/><path d="m236.315 250.847h14.474v14.474h-14.474z" fill="#b8c2cc"/><path d="m260.639 250.847h14.474v14.474h-14.474z" fill="#7e8a95"/><path d="m284.963 250.847h14.474v14.474h-14.474z" fill="#7e8a95"/><path d="m211.991 227.566h14.474v14.474h-14.474z" fill="#b8c2cc"/><path d="m236.315 227.566h14.474v14.474h-14.474z" fill="#b8c2cc"/><g fill="#7e8a95"><path d="m260.639 227.566h14.474v14.474h-14.474z"/><path d="m284.963 227.566h14.474v14.474h-14.474z"/><path d="m211.991 272.655h38.798v11.572h-38.798z"/></g><path d="m260.639 272.655h38.798v11.572h-38.798z" fill="#00baa0"/></g><path d="m107.499 203.224h23.006v93.794h-23.006z" fill="#7e8a95"/></g></g></svg>