<svg id="Capa_1" enable-background="new 0 0 512 512" height="512" viewBox="0 0 512 512" width="512" xmlns="http://www.w3.org/2000/svg"><g><g><g><g><g><g><g><g><g><g><g><g><g><g><g><g><g><g><g><g><circle cx="256" cy="256" fill="#00eecf" r="256"/></g></g></g></g></g></g></g></g></g></g></g></g></g></g></g></g></g></g></g><path d="m408.769 204.153-.059-.111-287.933 17.656 52.223 100.302-91.278 39.786 79.246 79.247.261-.261 70.035 70.035c8.142.78 16.39 1.193 24.736 1.193 125.31 0 229.575-90.04 251.668-208.948z" fill="#00ddc1"/><g><path d="m256 71.677-152.849 132.545.105-.044 17.52 17.52h135.224l26.514-55.522z" fill="#ff6379"/><path d="m256 71.677v150.021h135.224l17.545-17.545z" fill="#ff415b"/></g><g><path d="m256 400.318h-135.224v-178.62l135.224-117.261 54.178 163.174z" fill="#f7f9fa"/><path d="m391.224 400.318v-178.62l-135.224-117.261v295.881z" fill="#dbe1e8"/></g><g><g><g><g><g><path d="m256 361.786h-174.278v-109.57h174.278l114.629 60.527z" fill="#046eff"/></g></g></g></g><g><g><path d="m256 252.216h174.278v109.57h-174.278z" fill="#0051be"/></g></g></g><g><g><path d="m140.029 275.586h13.486v63.587h-13.486z" fill="#f7f9fa"/></g><g><path d="m140.029 275.587h13.486v63.587h-13.486z" fill="#f7f9fa" transform="matrix(.5 -.866 .866 .5 -192.813 280.798)"/></g><g><path d="m114.979 300.637h63.587v13.486h-63.587z" fill="#f7f9fa" transform="matrix(.866 -.5 .5 .866 -134.027 114.569)"/></g></g><g><g><path d="m212.847 275.586h13.486v63.587h-13.486z" fill="#f7f9fa"/></g><g><path d="m212.848 275.587h13.486v63.587h-13.486z" fill="#f7f9fa" transform="matrix(.5 -.866 .866 .5 -156.404 343.86)"/></g><g><path d="m187.797 300.637h63.587v13.486h-63.587z" fill="#f7f9fa" transform="matrix(.866 -.5 .5 .866 -124.271 150.978)"/></g></g><g><g><path d="m285.666 275.586h13.486v63.587h-13.486z" fill="#dbe1e8"/></g><g><path d="m285.666 275.587h13.486v63.587h-13.486z" fill="#dbe1e8" transform="matrix(.5 -.866 .866 .5 -119.995 406.923)"/></g><g><path d="m260.616 300.637h63.587v13.486h-63.587z" fill="#dbe1e8" transform="matrix(.866 -.5 .5 .866 -114.515 187.388)"/></g></g><g><g><path d="m358.485 275.586h13.486v63.587h-13.486z" fill="#dbe1e8"/></g><g><path d="m358.485 275.587h13.486v63.587h-13.486z" fill="#dbe1e8" transform="matrix(.5 -.866 .866 .5 -83.586 469.986)"/></g><g><path d="m333.434 300.637h63.587v13.486h-63.587z" fill="#dbe1e8" transform="matrix(.866 -.5 .5 .866 -104.759 223.797)"/></g></g><g><path d="m276.984 192.692-20.984 26.514c-14.643 0-26.513-11.87-26.513-26.513s11.87-26.513 26.513-26.513z" fill="#9de1f7"/><path d="m282.514 192.692c0-14.643-11.87-26.513-26.513-26.513v53.026c14.642.001 26.513-11.87 26.513-26.513z" fill="#5ecdf3"/></g></g></svg>