<svg id="Capa_1" enable-background="new 0 0 512 512" height="512" viewBox="0 0 512 512" width="512" xmlns="http://www.w3.org/2000/svg"><g><g><g><g><g><g><g><g><g><g><g><g><g><g><g><g><g><g><g><g><circle cx="256" cy="256" fill="#ff6379" r="256"/></g></g></g></g></g></g></g></g></g></g></g></g></g></g></g></g></g></g></g><path d="m394.834 152.709-41.58-41.58-18.083 18.083-66.353-66.353-149.301 128.821 151.751 151.75-149.224 93.392 66.058 66.058c21.626 5.934 44.388 9.12 67.898 9.12 141.385 0 256-114.615 256-256 0-2.894-.066-5.772-.161-8.642l-103.839-103.839z" fill="#ff415b"/><g><g><path d="m268.836 77.385-18.437 23.295c-12.866 0-23.295-10.43-23.295-23.295s10.43-23.295 23.295-23.295z" fill="#0051be"/><path d="m273.695 77.385c0-12.866-10.43-23.295-23.295-23.295v46.591c12.865-.001 23.295-10.43 23.295-23.296z" fill="#00429c"/></g><path d="m170.135 211.339v-64.464h-76.089l6.29 16.438c11.068 28.924 38.829 48.026 69.799 48.026z" fill="#046eff"/><g><g><g><g><g><path d="m250.399 403.767h-75.077c-21.551 0-38.775-17.927-37.913-39.461l10.134-253.177 102.856-10.45 57.285 167.108z" fill="#f7f9fa"/></g></g></g></g><g><g><path d="m325.476 403.767h-75.077v-292.637h102.856l10.134 253.177c.862 21.533-16.362 39.46-37.913 39.46z" fill="#dbe1e8"/></g></g></g><path d="m275.006 98.059-24.607-16.781c-40.572 0-76.149 11.4-102.856 29.851h102.856z" fill="#046eff"/><path d="m353.255 111.13c-26.707-18.451-62.284-29.851-102.856-29.851v29.851z" fill="#0051be"/><g><path d="m408 325.498h-96.343v-181.979h96.343zm-72.919-23.425h49.494v-135.13h-49.494z" fill="#dbe1e8"/></g><g><g><g><g><g><g><path d="m250.399 436.822h-128.355v-39.782h128.355l64.178 21.297z" fill="#046eff"/></g></g></g></g></g><g><g><g><g><path d="m250.399 397.04h128.355v39.782h-128.355z" fill="#0051be"/></g></g></g></g></g><g><path d="m326.56 329.28h-47.936v-185.761h47.936v12.116l-11.713 6.558 11.713 6.558v16.656l-11.713 6.558 11.714 6.558v16.656l-11.714 6.558 11.713 6.559v16.655l-11.713 6.559 11.713 6.558.001 16.656-10.002 6.558 10.001 6.558v16.656l-10.001 6.558 10.001 6.558z" fill="#f7f9fa"/><g><path d="m302.592 155.635h23.968v13.116h-23.968z" fill="#b8c2cc"/></g><g><path d="m302.592 185.407h23.968v13.116h-23.968z" fill="#b8c2cc"/></g><g><path d="m302.592 215.179h23.968v13.116h-23.968z" fill="#b8c2cc"/></g><g><path d="m302.592 244.951h23.968v13.116h-23.968z" fill="#b8c2cc"/></g><g><path d="m302.592 274.724h23.968v13.116h-23.968z" fill="#b8c2cc"/></g><g><path d="m302.592 304.496h23.968v13.116h-23.968z" fill="#b8c2cc"/></g></g><circle cx="195" cy="301.526" fill="#b8c2cc" r="27.754"/><circle cx="195" cy="251.51" fill="#00ddc1" r="7.737"/></g></g></svg>