<svg id="Capa_1" enable-background="new 0 0 512 512" height="512" viewBox="0 0 512 512" width="512" xmlns="http://www.w3.org/2000/svg"><g><g><g><path d="m256 .219c-141.385 0-256 114.615-256 256 0 136.407 106.691 247.881 241.174 255.562h29.652c134.483-7.681 241.174-119.155 241.174-255.562 0-141.385-114.615-256-256-256z" fill="#9de1f7"/></g></g><path d="m339.194 97.932-54.412-54.412-140.873 135.606 70.246 70.246-14.609 20.891 78.37 78.37-116.498 116.498 41.563 41.563c12.424 2.617 25.177 4.343 38.193 5.087h29.652c134.483-7.681 241.174-119.155 241.174-255.562 0-9.448-.528-18.771-1.525-27.954l-148.487-148.487z" fill="#5ecdf3"/><g><g><path d="m212.462 233.437-12.916 12.915-12.916-12.915-11.956 11.955 24.872 24.872 24.871-24.872z" fill="#046eff"/><path d="m309.124 197.433-24.871 24.871 11.955 11.956 12.916-12.916 12.916 12.916 11.956-11.956z" fill="#0051be"/></g><g><path d="m315.528 60.389c-5.734 0-11.293.744-16.592 2.13-7.784-17.614-24.818-30.223-44.949-31.652l-20.523 81.723 20.523 78.534h61.541c36.102 0 65.368-29.266 65.368-65.368 0-36.101-29.266-65.367-65.368-65.367z" fill="#dbe1e8"/><path d="m253.987 30.868c-1.264-.09-2.54-.139-3.827-.139-29.444 0-53.313 23.869-53.313 53.313 0 6.116 1.043 11.986 2.939 17.457-7.06-4.08-15.247-6.426-23.987-6.426-26.524 0-48.026 21.502-48.026 48.026s21.502 48.026 48.026 48.026h78.187v-160.257z" fill="#f7f9fa"/></g><g><path d="m254.335 88.86c-22.526 0-42.67 10.385-55.903 26.616l8.022 8.022c11.144-14.209 28.464-23.355 47.881-23.355l5.589-5.301zm-40.4 42.119 7.993 7.993c7.785-9.224 19.42-15.098 32.407-15.098l5.589-5.15-5.589-6.133c-16.097 0-30.551 7.131-40.4 18.388zm29.197 40.609c0 6.187 5.016 11.203 11.203 11.203l2.795-11.634-2.795-10.772c-6.187 0-11.203 5.016-11.203 11.203zm-13.615-25.027 7.975 7.975c4.334-4.282 10.284-6.93 16.843-6.93l5.589-5.298-5.589-5.985c-9.67-.001-18.441 3.914-24.818 10.238z" fill="#00ddc1"/><path d="m254.335 112.591v11.283c12.987 0 24.622 5.874 32.407 15.099l7.993-7.993c-9.849-11.258-24.303-18.389-40.4-18.389zm0 35.014c6.559 0 12.509 2.649 16.843 6.93l7.975-7.974c-6.377-6.324-15.148-10.239-24.818-10.239zm0-58.745v11.283c19.417 0 36.737 9.146 47.881 23.355l8.022-8.022c-13.233-16.231-33.377-26.616-55.903-26.616zm0 71.525v22.406c6.187 0 11.203-5.016 11.203-11.203s-5.016-11.203-11.203-11.203z" fill="#00baa0"/></g><g><g><path d="m254.362 239.311-105.027 91.076.071-.031 12.04 12.04h92.916l18.219-38.152z" fill="#ff6379"/><path d="m254.362 239.311v103.085h92.917l12.056-12.056z" fill="#ff415b"/></g><g><path d="m254.335 465.131h-92.917v-122.735l92.917-80.575 37.227 112.122z" fill="#046eff"/><path d="m347.252 465.131v-122.735l-92.917-80.575v203.31z" fill="#0051be"/></g><path d="m254.335 465.131h-21.904v-60.838h21.904l9.142 30.419z" fill="#ffd944"/><path d="m178.278 401.307h32.68v25.087h-32.68z" fill="#00eecf"/><path d="m298.459 401.307h32.68v25.087h-32.68z" fill="#00ddc1"/><path d="m178.278 359.308h32.68v25.087h-32.68z" fill="#00eecf"/><path d="m298.459 359.308h32.68v25.087h-32.68z" fill="#00ddc1"/><path d="m254.709 384.395h-22.278v-25.087h22.278l8.768 12.543z" fill="#00eecf"/><path d="m254.335 404.293h21.904v60.838h-21.904z" fill="#fc0"/><path d="m254.335 359.308h21.904v25.087h-21.904z" fill="#00ddc1"/></g><circle cx="199.546" cy="225.07" fill="#046eff" r="5.91"/><circle cx="199.546" cy="205.142" fill="#046eff" r="5.91"/><g fill="#0051be"><circle cx="309.124" cy="261.946" r="5.91"/><circle cx="309.124" cy="242.018" r="5.91"/></g></g></g></svg>