<svg id="Capa_1" enable-background="new 0 0 512 512" height="512" viewBox="0 0 512 512" width="512" xmlns="http://www.w3.org/2000/svg"><g><g><g><g><g><g><g><g><g><g><g><g><g><g><g><g><g><g><g><g><g><g><g><g><g><g><g><circle cx="256" cy="256" fill="#046eff" r="256"/></g></g></g></g></g></g></g></g></g></g></g></g></g></g></g></g></g></g></g></g></g></g></g></g></g></g><path d="m133.747 438.083 68.175 68.175c17.66 3.799 35.989 5.794 54.792 5.741 141.384-.394 255.68-115.328 255.286-256.713-.051-18.307-2.038-36.155-5.739-53.363l-128.007-128.006z" fill="#0051be"/><g><g><g><g><g><g><path d="m256 438.083h-122.253v-312.119h122.253l61.127 167.088z" fill="#dbe1e8"/></g></g></g></g><g><g><path d="m256 125.964h122.254v312.12h-122.254z" fill="#b8c2cc"/></g></g></g><g><g><g><g><g><path d="m256 319.588h-16.816l-19.478-11.992-19.478 11.992h-20.694v-178.423l76.466-11.321 38.234 106.837z" fill="#7e8a95"/></g></g></g></g><g><g><path d="m332.467 319.588h-76.467v-189.744l76.467 11.321z" fill="#4e5a61"/></g></g></g><path d="m207.267 169.71h18.17v45.422h-18.17z" fill="#dbe1e8"/><path d="m285.149 169.71h18.17v45.422h-18.17z" fill="#b8c2cc"/><path d="m200.271 141.165h32.162v45.422h-32.162z" fill="#b8c2cc"/><path d="m278.153 141.165h32.162v45.422h-32.162z" fill="#7e8a95"/><path d="m239.184 319.588h-38.956l-9.611-72.839h58.179z" fill="#f7f9fa"/><g><g><g><g><g><path d="m256 141.165h-122.253v-67.248h122.253l61.127 36z" fill="#f7f9fa"/></g></g></g></g><g><g><path d="m256 73.917h122.254v67.248h-122.254z" fill="#dbe1e8"/></g></g></g><path d="m232.433 156.229h-32.162l-11.992-45.422h56.145z" fill="#5ecdf3"/><path d="m310.315 156.229h-32.162l-11.992-45.422h56.145z" fill="#ff415b"/></g></g></svg>