<svg id="Capa_1" enable-background="new 0 0 512 512" height="512" viewBox="0 0 512 512" width="512" xmlns="http://www.w3.org/2000/svg"><g><g><g><g><g><g><g><g><g><g><g><g><g><g><g><g><g><g><g><circle cx="256" cy="256" fill="#9de1f7" r="256"/></g></g></g></g></g></g></g></g></g></g></g></g></g></g></g></g></g></g><path d="m58.986 299.377 212.165 212.165c128.004-7.473 230.748-108.982 240.142-236.46l-19.082-19.082z" fill="#5ecdf3"/><g><path d="m423.831 256s-37.375 140.439-167.831 140.439-236.211-140.439-236.211-140.439 105.755-140.439 236.211-140.439 167.831 140.439 167.831 140.439z" fill="#f7f9fa"/><path d="m256.018 115.562v280.877c130.447-.013 236.193-140.439 236.193-140.439s-105.746-140.426-236.193-140.438z" fill="#dbe1e8"/><path d="m348.946 256c0 65.722-27.224 119-92.946 119s-119-53.278-119-119 53.278-119 119-119 92.946 53.278 92.946 119z" fill="#00eecf"/><path d="m256.018 137v238c65.713-.01 118.982-53.284 118.982-119s-53.269-118.99-118.982-119z" fill="#00ddc1"/><path d="m256 301.118 59.692 13.499c14.827-15.098 11.513-35.784 11.513-58.616 0-46.212-24.992-83.675-71.205-83.675s-83.675 37.462-83.675 83.674c0 22.833 9.156 43.519 23.983 58.616z" fill="#7e8a95"/><path d="m256.018 172.326v128.796l59.674 13.495c14.827-15.098 23.983-35.784 23.983-58.616 0-46.208-37.453-83.666-83.657-83.675z" fill="#4e5a61"/><g><path d="m256.018 193.123-67.472 58.51.045-.02 7.735 7.734h59.692l11.704-24.509z" fill="#ff6379"/><path d="m256.018 193.123v66.224h59.692l7.744-7.745z" fill="#ff415b"/></g><path d="m196.308 259.347v55.269c15.182 15.459 36.312 25.058 59.692 25.058 1.006 0 2.001-.041 2.998-.076l20.917-59.984-23.915-72.03z" fill="#f7f9fa"/><path d="m315.692 259.347-59.692-51.763v132.09c23.38 0 44.509-9.599 59.692-25.058z" fill="#dbe1e8"/><path d="m241.929 299.112v39.362c4.577.775 9.273 1.201 14.071 1.201.688 0 1.368-.035 2.052-.052l3.821-15.969-5.873-24.542z" fill="#ffe377"/><path d="m207.139 297.194h20.995v16.117h-20.995z" fill="#046eff"/><path d="m284.347 297.194h20.995v16.117h-20.995z" fill="#0051be"/><path d="m207.139 270.212h20.995v16.117h-20.995z" fill="#046eff"/><path d="m284.347 270.212h20.995v16.117h-20.995z" fill="#0051be"/><path d="m256.24 286.329h-14.311v-16.117h14.311l5.633 8.059z" fill="#046eff"/><path d="m256 270.212h14.071v16.117h-14.071z" fill="#0051be"/><path d="m256 339.675c4.798 0 9.494-.426 14.071-1.201v-39.362h-14.071z" fill="#fc0"/></g></g></svg>