<svg id="Capa_1" enable-background="new 0 0 512 512" height="512" viewBox="0 0 512 512" width="512" xmlns="http://www.w3.org/2000/svg"><g><g><g><g><g><g><g><g><g><g><g><g><g><g><g><g><g><g><g><g><g><g><g><g><g><circle cx="256" cy="256" fill="#ffe377" r="256"/></g></g></g></g></g></g></g></g></g></g></g></g></g></g></g></g></g></g></g></g></g></g></g></g><path d="m511.999 255.287c-.04-14.223-1.257-28.165-3.526-41.75l-141.423-141.424-222.1 369.15 66.947 66.948c14.556 2.528 29.53 3.831 44.816 3.789 141.385-.395 255.68-115.329 255.286-256.713z" fill="#fc0"/><g><g><g><g><g><path d="m256 441.263h-111.05v-239.048l111.05-10.001 55.525 137.971z" fill="#9de1f7"/></g></g></g></g><g><g><path d="m367.05 441.263h-111.05v-249.049l111.05 10.001z" fill="#5ecdf3"/></g></g></g><g><g><g><g><g><g><path d="m256 202.215h-111.05v-130.102h111.05l55.525 69.648z" fill="#bdeaf9"/></g></g></g></g></g><g><g><path d="m256 72.113h111.05v130.102h-111.05z" fill="#9de1f7"/></g></g></g><g><path d="m287.53 125.848-31.53 39.84c-22.003 0-39.839-17.837-39.839-39.839s17.836-39.84 39.839-39.84z" fill="#f7f9fa"/><path d="m295.84 125.848c0-22.003-17.837-39.839-39.839-39.839v79.679c22.002 0 39.839-17.837 39.839-39.84z" fill="#dbe1e8"/></g><g><path d="m268.949 125.848-12.949 16.362c-9.036 0-16.362-7.326-16.362-16.362s7.326-16.362 16.362-16.362z" fill="#046eff"/><path d="m272.362 125.848c0-9.036-7.326-16.362-16.362-16.362v32.724c9.037 0 16.362-7.325 16.362-16.362z" fill="#0051be"/></g><g><path d="m262.475 185.139-6.475 8.181c-4.518 0-8.181-3.663-8.181-8.181s3.663-8.181 8.181-8.181z" fill="#ff6379"/><path d="m264.181 185.139c0-4.518-3.663-8.181-8.181-8.181v16.362c4.518 0 8.181-3.663 8.181-8.181z" fill="#ff415b"/></g><g><g><g fill="#7e8a95"><circle cx="172.897" cy="378.5" r="9.25"/><circle cx="206.138" cy="378.5" r="9.25"/><circle cx="239.379" cy="378.5" r="9.25"/></g><circle cx="272.621" cy="378.5" fill="#4e5a61" r="9.25"/><circle cx="305.862" cy="378.5" fill="#4e5a61" r="9.25"/><circle cx="339.103" cy="378.5" fill="#4e5a61" r="9.25"/></g><g><g fill="#7e8a95"><circle cx="172.897" cy="409" r="9.25"/><circle cx="206.138" cy="409" r="9.25"/><circle cx="239.379" cy="409" r="9.25"/></g><circle cx="272.621" cy="409" fill="#4e5a61" r="9.25"/><circle cx="305.862" cy="409" fill="#4e5a61" r="9.25"/><circle cx="339.103" cy="409" fill="#4e5a61" r="9.25"/></g></g><g><g><path d="m255.681 346.085-5.915-10.915 5.915-10.915h10.915v10.915c0 6.028-4.887 10.915-10.915 10.915z" fill="#00429c"/><path d="m255.681 346.085c-6.028 0-10.915-4.887-10.915-10.915v-10.915h10.915z" fill="#0051be"/></g><g><path d="m255.714 245.24c-.011 0-.022-.001-.033-.001-1.012 0-2.012.053-3.002.136-1.619-1.015-2.701-2.811-2.701-4.858 0-3.162 2.573-5.735 5.736-5.735l5.001-7.786-5.001-7.214c-11.434 0-20.736 9.302-20.736 20.735 0 3.532.892 6.858 2.456 9.772-10.327 6.204-17.239 17.512-17.239 30.436v34.709c-3.431.68-6.019 3.705-6.019 7.336 0 4.131 3.349 7.48 7.48 7.48h34.057l5.001-43.252z" fill="#046eff"/><path d="m291.166 315.336v-34.612c0-12.903-6.888-24.196-17.187-30.407 1.574-2.921 2.47-6.258 2.47-9.801 0-11.434-9.302-20.735-20.736-20.735v15c3.163 0 5.736 2.573 5.736 5.735 0 2.051-1.085 3.848-2.708 4.863-.999-.085-2.007-.138-3.028-.139v85.01h34.63c4.131 0 7.48-3.349 7.48-7.48.001-3.854-2.913-7.024-6.657-7.434z" fill="#0051be"/></g></g></g></svg>