<svg id="Capa_1" enable-background="new 0 0 512 512" height="512" viewBox="0 0 512 512" width="512" xmlns="http://www.w3.org/2000/svg"><g><path d="m256 .219c-141.385 0-256 114.615-256 256 0 133.444 102.111 243.008 232.455 254.898l23.549-35.524 23.541 35.524c130.344-11.89 232.455-121.454 232.455-254.898 0-141.385-114.615-256-256-256z" fill="#00eecf"/><path d="m312.898 107.818-56.898 96.255v271.526l.004-.006 23.541 35.524c117.158-10.687 211.489-100.291 229.379-215.213-54.416-59.096-196.026-188.086-196.026-188.086z" fill="#00ddc1"/><path d="m232.455 290.041v221.076c2.894.264 5.797.498 8.719.665h19.899l5.577-76.21-10.65-145.531z" fill="#0051be"/><path d="m256 511.781h14.826c2.921-.167 5.824-.4 8.719-.665v-221.075h-23.545z" fill="#00429c"/><g><g><path d="m256 278.135h-56.898v-170.317h56.898l25.737 85.159z" fill="#dbe1e8"/><path d="m256 107.818h56.898v170.316h-56.898z" fill="#b8c2cc"/></g><g><path d="m256 131.907h-47.544v-15.663h47.544l21.506 7.831z" fill="#7e8a95"/><path d="m256 116.244h47.544v15.663h-47.544z" fill="#4e5a61"/></g><path d="m214.683 167.042h25.737v11.936h-25.737z" fill="#7e8a95"/><path d="m271.58 167.042h25.737v11.936h-25.737z" fill="#4e5a61"/><g><path d="m256 355.478h-73.907v-151.405h73.907l33.431 75.702z" fill="#046eff"/><path d="m256 204.073h73.907v151.405h-73.907z" fill="#0051be"/></g><g fill="#ffe377"><path d="m242.751 340.052v-70.361h13.874l4.854 16.887-5.475 26.969z"/><path d="m256.004 216.217v70.361h-35.181z"/></g><path d="m256 269.691h21.932l-21.928 43.856z" fill="#fc0"/></g></g></svg>