<svg id="Capa_1" enable-background="new 0 0 512 512" height="512" viewBox="0 0 512 512" width="512" xmlns="http://www.w3.org/2000/svg"><g><path d="m268.006.281-12.006 11.362-12.006-11.349c-136.126 6.291-244.377 118.821-243.993 256.419.394 141.384 115.328 255.68 256.713 255.286s255.68-115.328 255.286-256.713c-.383-137.119-108.5-248.753-243.994-255.005z" fill="#00eecf"/><path d="m268.006.281-12.006 11.362-.454-.43-9.546 235.566-87.973 137.003 126.616 126.616c128.203-14.277 227.723-123.169 227.356-255.112-.382-137.119-108.5-248.753-243.993-255.005z" fill="#00ddc1"/><g><g><path d="m390.191 291.979-134.191 134.192c-74.112 0-134.191-60.08-134.191-134.191s60.079-134.192 134.191-134.192" fill="#ffe377"/><path d="m390.191 291.979c0 74.112-60.08 134.191-134.191 134.191v-268.382c74.112 0 134.191 60.08 134.191 134.191z" fill="#ffd944"/></g><g><g><g><g><g><path d="m256 239.552h-65.148v-114.228h65.148l32.574 61.15z" fill="#ffe377"/></g></g></g></g><g><g><g><path d="m256 125.324h65.148v114.228h-65.148z" fill="#ffd944"/></g></g></g></g><g><g><g><g><g><path d="m256 246.779h-10v-126.764h10l5 67.861z" fill="#ffd944"/></g></g></g></g><g><g><g><g><path d="m256 120.015h10v126.764h-10z" fill="#fc0"/></g></g></g></g></g><g><path d="m256 334.595c-20.402 0-37-16.598-37-37s16.598-37 37-37l4-10.907-4-9.093c-31.43 0-57 25.57-57 57s25.57 57 57 57l4-11.909z" fill="#ffd944"/><path d="m293 297.595c0 20.402-16.598 37-37 37v20c31.43 0 57-25.57 57-57s-25.57-57-57-57v20c20.402 0 37 16.598 37 37z" fill="#fc0"/></g><g><g><g><g><g><path d="m256 133.89h-74.871v-70.968h74.871l37.436 37.991z" fill="#0051be"/></g></g></g></g><g><g><path d="m256 62.922h74.871v70.968h-74.871z" fill="#00429c"/></g></g></g></g><g><g><path d="m478.628 229.666-92.999 92.999c-51.362 0-92.999-41.637-92.999-92.999s41.637-92.999 92.999-92.999z" fill="#f7f9fa"/><path d="m478.628 229.666c0 51.362-41.637 92.999-92.999 92.999v-185.997c51.362 0 92.999 41.637 92.999 92.998z" fill="#dbe1e8"/></g><g><path d="m385.629 173.433c-30.753 0-58.254 14.178-76.32 36.337l10.951 10.951c15.214-19.399 38.861-31.885 65.369-31.885l7.63-7.237zm-55.155 57.503 10.912 10.912c10.628-12.593 26.513-20.613 44.243-20.613l7.63-7.031-7.63-8.373c-21.976 0-41.709 9.736-55.155 25.105zm39.861 55.44c0 8.447 6.847 15.294 15.294 15.294l3.815-15.883-3.815-14.707c-8.446.002-15.294 6.849-15.294 15.296zm-18.588-34.167 10.887 10.887c5.917-5.845 14.041-9.461 22.995-9.461l7.63-7.233-7.63-8.171c-13.201-.001-25.175 5.343-33.882 13.978z" fill="#046eff"/><path d="m385.63 205.831v15.404c17.73 0 33.615 8.02 44.243 20.613l10.912-10.912c-13.445-15.369-33.179-25.104-55.155-25.105zm0 47.803c8.955 0 17.078 3.616 22.995 9.462l10.887-10.887c-8.706-8.634-20.681-13.978-33.882-13.978zm0-80.201v15.404c26.508 0 50.155 12.486 65.369 31.885l10.951-10.951c-18.066-22.16-45.567-36.338-76.32-36.338zm0 97.649v30.589c8.447 0 15.295-6.848 15.295-15.294-.001-8.448-6.848-15.295-15.295-15.295z" fill="#0051be"/></g></g><path d="m243.994.289v79.645h12.006l6.003-40.71-5.019-39.211c-.328-.002-.655-.013-.984-.013-4.025 0-8.026.105-12.006.289z" fill="#0051be"/><path d="m268.006 79.934v-79.645c-3.98-.184-7.981-.289-12.006-.289v79.934z" fill="#00429c"/></g></svg>