<svg id="Capa_1" enable-background="new 0 0 512 512" height="512" viewBox="0 0 512 512" width="512" xmlns="http://www.w3.org/2000/svg"><g><g><g><g><g><g><g><g><g><g><g><g><g><g><g><g><g><g><g><circle cx="256" cy="256" fill="#5ecdf3" r="256"/></g></g></g></g></g></g></g></g></g></g></g></g></g></g></g></g></g></g><path d="m85.449 408.694 90.533 90.533c25.177 8.278 52.071 12.773 80.018 12.773 141.385 0 256-114.615 256-256 0-19.641-2.219-38.763-6.407-57.135l-119.805-119.804z" fill="#5ecdf3"/><g><g><path d="m380.594 367.896h-72.167v-15.585h56.582v-56.811h15.585z" fill="#00429c"/></g><path d="m313.779 340.788h25.661v37.889h-25.661z" fill="#00429c"/><g><path d="m202.168 125.11-131.893 114.373.09-.039 15.118 15.119h116.685l22.878-47.91z" fill="#ff6379"/><path d="m202.168 125.11v129.453h116.684l15.14-15.14z" fill="#ff415b"/></g><g><path d="m202.133 408.694h-116.684v-154.131l116.684-101.185 46.75 140.803z" fill="#f7f9fa"/><path d="m318.818 408.694v-154.131l-116.685-101.185v255.316z" fill="#dbe1e8"/></g><path d="m202.133 408.694h-27.506v-76.4h27.506l11.481 38.2z" fill="#ffd944"/><path d="m106.621 328.544h41.04v31.505h-41.04z" fill="#00eecf"/><path d="m257.545 328.544h41.04v31.505h-41.04z" fill="#00ddc1"/><path d="m106.621 271.208h41.04v31.505h-41.04z" fill="#00eecf"/><path d="m257.545 271.208h41.04v31.505h-41.04z" fill="#00ddc1"/><path d="m202.133 332.294h27.507v76.4h-27.507z" fill="#fc0"/><g><path d="m389.266 117.723-44.712 56.495c-31.202 0-56.495-25.294-56.495-56.495s25.294-56.495 56.495-56.495z" fill="#ffd944"/><path d="m401.049 117.723c0-31.202-25.294-56.495-56.495-56.495v112.991c31.201-.001 56.495-25.295 56.495-56.496z" fill="#fc0"/></g><path d="m202.133 302.712h-27.506v-31.504h27.506l11.481 15.752z" fill="#00eecf"/><path d="m202.133 271.208h27.507v31.505h-27.507z" fill="#00ddc1"/><g><path d="m344.554 305.892h-92.537v-167.986h92.537l27.702 85.523z" fill="#0051be"/><path d="m344.554 137.906h92.536v167.986h-92.536z" fill="#00429c"/><path d="m267.604 153.492h40.909v60.613h-40.909z" fill="#046eff"/><path d="m344.554 214.105h-20.455v-60.613h20.455l10.227 30.307z" fill="#046eff"/><path d="m380.595 153.492h40.909v60.613h-40.909z" fill="#0051be"/><path d="m267.604 229.692h40.909v60.613h-40.909z" fill="#046eff"/><path d="m344.554 290.305h-20.455v-60.613h20.455l10.227 31.69z" fill="#046eff"/><g fill="#0051be"><path d="m380.595 229.692h40.909v60.613h-40.909z"/><path d="m344.554 153.492h20.454v60.613h-20.454z"/><path d="m344.554 229.692h20.454v60.613h-20.454z"/></g></g></g></g></svg>