<svg id="Capa_1" enable-background="new 0 0 512 512" height="512" viewBox="0 0 512 512" width="512" xmlns="http://www.w3.org/2000/svg"><g><g><g><g><g><g><g><g><g><g><g><g><g><g><g><g><g><g><g><g><circle cx="256" cy="256" fill="#046eff" r="256"/></g></g></g></g></g></g></g></g></g></g></g></g></g></g></g></g></g></g></g><path d="m109.537 388.103 71.461 71.461-2.811 2.811 47.876 47.876c10.053 1.171 20.278 1.776 30.65 1.747 137.859-.384 249.942-109.672 255.083-246.191l-90.238-90.238z" fill="#0051be"/><g><g><path d="m256.043 32.041-165.601 143.604.112-.048 18.983 18.983h146.506l28.726-60.155z" fill="#ff6379"/><path d="m256.043 32.041v162.539h146.506l19.01-19.01z" fill="#ff415b"/></g><g><path d="m256.043 388.103h-146.506v-193.524l146.506-127.045 58.698 176.788z" fill="#bdeaf9"/><path d="m402.549 388.103v-193.523l-146.506-127.046v320.569z" fill="#9de1f7"/></g></g><g><g><g><path d="m256 196.071h65.551v238.343h-65.551z" fill="#dbe1e8"/></g></g><g><path d="m256 179.734h-66.887c-8.285 0-15.001 6.716-15.001 15.001v257.352c0 8.285 6.716 15.001 15.001 15.001h66.887l16.338-143.677z" fill="#b8c2cc"/><path d="m322.887 179.734h-66.887v287.353h66.887c8.285 0 15.001-6.716 15.001-15.001v-257.351c0-8.284-6.716-15.001-15.001-15.001z" fill="#7e8a95"/><g><g><g><g><g><path d="m256 434.414h-65.551v-238.343h65.551l32.776 136.339z" fill="#f7f9fa"/></g></g></g></g><g><g><path d="m256 196.071h65.551v238.343h-65.551z" fill="#dbe1e8"/></g></g></g><path d="m256 188.459h-41.139l8.169 28.287h32.97l8.169-12.506z" fill="#b8c2cc"/><path d="m256 216.746h32.97l8.169-28.287h-41.139z" fill="#7e8a95"/><g><g><g><g><g><g><path d="m256 207.892h-22.828v-7.45h22.828l11.414 3.989z" fill="#7e8a95"/></g></g></g></g></g><g><g><path d="m256 200.442h22.828v7.45h-22.828z" fill="#4e5a61"/></g></g></g><g><g><g><g><g><g><path d="m256.013 453.633h-22.828v-7.45h22.828l11.415 3.988z" fill="#7e8a95"/></g></g></g></g></g><g><g><path d="m256.013 446.183h22.828v7.45h-22.828z" fill="#4e5a61"/></g></g></g></g><g><g><g><g><g><g><path d="m256 404.408h-37.463v-35h37.463l18.731 18.736z" fill="#dbe1e8"/></g></g></g></g><g><g><path d="m256 369.408h37.463v35h-37.463z" fill="#b8c2cc"/></g></g></g><circle cx="218.537" cy="386.908" fill="#ff6379" r="17.5"/><circle cx="293.463" cy="386.908" fill="#00ddc1" r="17.5"/></g><g><path d="m256 242.688h-8.911c-11.81 0-21.417 9.607-21.417 21.417v40.243h15v-40.243c0-3.539 2.879-6.417 6.417-6.417h8.911l5.001-7.357z" fill="#0051be"/><path d="m256 285.779h-37.463v61.321h37.463l8.169-27.689z" fill="#ffd944"/><path d="m264.925 242.688h-8.925v15h8.925c3.538 0 6.417 2.878 6.417 6.417v40.243h15v-40.243c0-11.81-9.608-21.417-21.417-21.417z" fill="#00429c"/><path d="m256 285.779h37.463v61.322h-37.463z" fill="#fc0"/></g></g></g></svg>