<svg id="Capa_1" enable-background="new 0 0 512 512" height="512" viewBox="0 0 512 512" width="512" xmlns="http://www.w3.org/2000/svg"><g><g><g><g><g><g><g><g><g><g><g><g><g><g><g><g><g><g><g><g><circle cx="256" cy="256" fill="#ffe377" r="256"/></g></g></g></g></g></g></g></g></g></g></g></g></g></g></g></g></g></g></g><path d="m261.657 65.081-87.818 32.015 83.726 83.726-.252 7.122-72.122 281.922 40.324 40.324c10.229 1.214 20.637 1.838 31.198 1.808 139.515-.389 252.641-112.311 255.23-251.121l-163.782-163.781z" fill="#ffd944"/><path d="m262.215 469.867h-77.024v-285.479h77.024l58.819 142.739z" fill="#f7f9fa"/><path d="m262.215 184.388h77.024v285.478h-77.024z" fill="#dbe1e8"/><path d="m262.185 292.903h181.025v-60.205h-181.025l-9.072 30.102z" fill="#b8c2cc"/><path d="m262.215 292.903c-16.625 0-30.102-13.477-30.102-30.102 0-16.625 13.477-30.102 30.102-30.102z" fill="#dbe1e8"/><g><g fill="#0051be"><path d="m262.215 432.278h-16.32v-65.188h16.32l8.161 32.594z"/><path d="m274.891 367.988-12.676 25.351c-14.001 0-25.351-11.35-25.351-25.351s11.35-25.351 25.351-25.351z"/></g><g fill="#00429c"><path d="m262.215 367.09h16.321v65.189h-16.321z"/><path d="m287.567 367.988c0 14.001-11.35 25.351-25.351 25.351v-50.703c14 .001 25.351 11.351 25.351 25.352z"/></g></g><g><path d="m261 55.597c-35.122 0-66.529 16.192-87.161 41.499l12.507 12.507c17.375-22.155 44.38-36.415 74.654-36.415l8.714-8.265zm-62.99 65.671 12.462 12.462c12.137-14.382 30.279-23.54 50.528-23.54l8.714-8.029-8.714-9.564c-25.098 0-47.634 11.119-62.99 28.671zm45.523 63.315c0 9.647 7.82 17.467 17.467 17.467l4.357-18.139-4.357-16.795c-9.647 0-17.467 7.82-17.467 17.467zm-21.228-39.021 12.434 12.434c6.757-6.676 16.035-10.805 26.261-10.805l8.714-8.261-8.714-9.332c-15.077 0-28.752 6.103-38.695 15.964z" fill="#00ddc1"/><path d="m261 92.597v17.592c20.249 0 38.39 9.159 50.528 23.541l12.462-12.462c-15.355-17.552-37.892-28.67-62.99-28.671zm0 54.593c10.227 0 19.504 4.13 26.262 10.806l12.434-12.434c-9.943-9.861-23.618-15.964-38.695-15.964v17.592zm0-91.593v17.592c30.274 0 57.279 14.26 74.655 36.415l12.507-12.507c-20.633-25.308-52.04-41.5-87.162-41.5zm0 111.519v34.934c9.647 0 17.467-7.82 17.467-17.467s-7.82-17.467-17.467-17.467z" fill="#00baa0"/></g></g></svg>