<svg id="Capa_1" enable-background="new 0 0 512 512" height="512" viewBox="0 0 512 512" width="512" xmlns="http://www.w3.org/2000/svg"><g><g><g><g><g><g><g><g><g><g><g><g><g><g><g><g><g><g><g><circle cx="256" cy="256" fill="#00eecf" r="256"/></g></g></g></g></g></g></g></g></g></g></g></g></g></g></g></g></g></g><path d="m366.365 190.448-98.249-98.248-131.52 131.52 98.248 98.248-108.126 108.126 76.431 76.431c17.056 3.58 34.731 5.475 52.851 5.475 141.385 0 256-114.615 256-256 0-6.012-.224-11.972-.631-17.881l-96.337-96.337z" fill="#00ddc1"/><g><path d="m185.549 432.35-58.831-2.256 67.967-97.306 91.043-61.703 30.543 30.543z" fill="#ffd944"/><path d="m255.185 240.542-68.294 68.293 13.523 13.523-19.973 19.973-13.523-13.523-24.193 24.194 13.522 13.523-19.973 19.973-13.523-13.523-26.576 26.576 30.543 30.543 159.01-159.009z" fill="#ffe377"/><path d="m380.99 264.807-123.026 34.041c-43.373-43.373-43.373-113.694 0-157.067s113.694-43.373 157.067 0z" fill="#ffd944"/><path d="m415.031 298.849c-43.373 43.373-113.694 43.373-157.067 0l157.067-157.067c43.373 43.373 43.373 113.694 0 157.067z" fill="#fc0"/><path d="m373.785 218.186-35.159-35.159c-7.16-7.16-7.16-18.768 0-25.928 7.16-7.16 18.768-7.16 25.928 0l35.159 35.159c7.16 7.16 7.16 18.768 0 25.928-7.16 7.16-18.768 7.16-25.928 0z" fill="#00ddc1"/></g><g><g><path d="m296.437 159.041-92.999 92.999c-51.362 0-92.999-41.637-92.999-92.999s41.637-92.999 92.999-92.999z" fill="#046eff"/><path d="m296.437 159.041c0 51.362-41.637 92.999-92.999 92.999v-185.997c51.362 0 92.999 41.637 92.999 92.998z" fill="#0051be"/></g><g><path d="m203.438 102.808c-30.753 0-58.254 14.178-76.32 36.338l10.951 10.951c15.214-19.399 38.861-31.885 65.369-31.885l7.63-7.237zm-55.155 57.503 10.912 10.912c10.628-12.593 26.513-20.613 44.243-20.613l7.63-7.031-7.63-8.373c-21.977 0-41.71 9.736-55.155 25.105zm39.861 55.44c0 8.447 6.848 15.294 15.294 15.294l3.815-15.883-3.815-14.707c-8.447.002-15.294 6.849-15.294 15.296zm-18.589-34.167 10.887 10.887c5.917-5.845 14.041-9.461 22.995-9.461l7.63-7.233-7.63-8.171c-13.201 0-25.175 5.343-33.882 13.978z" fill="#f7f9fa"/><path d="m203.438 135.206v15.404c17.73 0 33.616 8.02 44.243 20.613l10.912-10.912c-13.445-15.369-33.178-25.104-55.155-25.105zm0 47.803c8.955 0 17.078 3.616 22.995 9.462l10.887-10.887c-8.706-8.634-20.681-13.978-33.882-13.978zm0-80.201v15.404c26.508 0 50.155 12.486 65.369 31.885l10.951-10.951c-18.066-22.16-45.567-36.338-76.32-36.338zm0 97.649v30.589c8.447 0 15.295-6.848 15.295-15.294 0-8.448-6.848-15.295-15.295-15.295z" fill="#dbe1e8"/></g></g></g></svg>