<svg id="Capa_1" enable-background="new 0 0 512 512" height="512" viewBox="0 0 512 512" width="512" xmlns="http://www.w3.org/2000/svg"><g><g><g><g><g><g><g><g><g><g><g><g><g><g><g><g><g><g><g><g><circle cx="256" cy="256" fill="#ff6379" r="256"/></g></g></g></g></g></g></g></g></g></g></g></g></g></g></g></g></g></g></g><path d="m89.716 296.796 110.905 110.905-34.821 34.822 68.557 68.557c7.137.598 14.352.92 21.643.92 141.385 0 256-114.615 256-256 0-16.947-1.664-33.504-4.806-49.531l-136.992-136.992z" fill="#ff415b"/><g><g><g><g><g><path d="m268.001 442.523h-102.201v-226.526h102.201l51.101 129.58z" fill="#dbe1e8"/></g></g></g></g><g><g><path d="m268.001 215.997h102.201v226.526h-102.201z" fill="#b8c2cc"/></g></g></g><g><g><g><g><g><path d="m268.001 215.997h-102.201v-146.52h102.201l51.101 83.814z" fill="#f7f9fa"/></g></g></g></g><g><g><path d="m268.001 69.477h102.201v146.521h-102.201z" fill="#dbe1e8"/></g></g></g><path d="m336.763 219.447h18.862v100.265h-18.862z" fill="#7e8a95"/><path d="m336.763 128.236h18.862v84.58h-18.862z" fill="#7e8a95"/><g><path d="m181.986 88.636h69.829v20.11h-69.829z" fill="#9de1f7"/><path d="m181.986 116.413h29.85v10.055h-29.85z" fill="#00eecf"/><path d="m221.966 116.413h29.85v10.055h-29.85z" fill="#ff6379"/></g><g><g><g><g><g><path d="m268.001 224.052h-102.201v-16.11h102.201l21.098 9.216z" fill="#7e8a95"/></g></g></g></g><g><g><path d="m268.001 207.942h102.201v16.11h-102.201z" fill="#4e5a61"/></g></g></g><g><g><path d="m225.119 247.945-76.321 76.321c-42.151 0-76.321-34.17-76.321-76.321s34.17-76.321 76.321-76.321z" fill="#046eff"/><path d="m225.119 247.945c0 42.151-34.17 76.321-76.321 76.321v-152.642c42.151 0 76.321 34.17 76.321 76.321z" fill="#0051be"/></g><g><path d="m148.799 201.796c-25.238 0-47.807 11.636-62.634 29.821l8.987 8.987c12.486-15.92 31.892-26.167 53.646-26.167l6.262-5.939zm-45.264 47.191 8.955 8.955c8.722-10.335 21.758-16.916 36.309-16.916l6.262-5.77-6.262-6.871c-18.036 0-34.23 7.989-45.264 20.602zm32.712 45.498c0 6.932 5.619 12.552 12.552 12.552l3.131-13.034-3.131-12.069c-6.932-.001-12.552 5.619-12.552 12.551zm-15.255-28.04 8.935 8.935c4.856-4.797 11.523-7.765 18.871-7.765l6.262-5.936-6.262-6.705c-10.834-.001-20.66 4.385-27.806 11.471z" fill="#f7f9fa"/><path d="m148.799 228.385v12.641c14.55 0 27.587 6.581 36.309 16.916l8.955-8.955c-11.034-12.613-27.229-20.602-45.264-20.602zm0 39.23c7.349 0 14.016 2.968 18.871 7.765l8.935-8.935c-7.145-7.086-16.972-11.471-27.806-11.472zm0-65.819v12.641c21.755 0 41.16 10.247 53.646 26.167l8.987-8.987c-14.826-18.185-37.395-29.821-62.633-29.821zm0 80.137v25.104c6.932 0 12.552-5.62 12.552-12.552s-5.62-12.552-12.552-12.552z" fill="#dbe1e8"/></g></g></g></svg>