<svg id="Capa_1" enable-background="new 0 0 512 512" height="512" viewBox="0 0 512 512" width="512" xmlns="http://www.w3.org/2000/svg"><g><g><g><g><g><g><g><g><g><g><g><g><g><g><g><g><g><g><g><g><circle cx="256" cy="256" fill="#9de1f7" r="256"/></g></g></g></g></g></g></g></g></g></g></g></g></g></g></g></g></g></g></g><path d="m72.948 367.476 141.079 141.079c13.659 2.254 27.676 3.445 41.973 3.445 141.385 0 256-114.615 256-256 0-23.387-3.154-46.035-9.029-67.559l-63.919-63.919z" fill="#5ecdf3"/><g><g><path d="m359.875 398.723 6.646-13.447c-33.483-16.551-71.701-25.299-110.521-25.299l-5.818 7.499 5.818 7.501c36.527 0 72.446 8.211 103.875 23.746z" fill="#7e8a95"/><path d="m256 359.977c-38.82 0-77.038 8.748-110.521 25.299l6.646 13.447c31.429-15.535 67.348-23.746 103.875-23.746z" fill="#b8c2cc"/></g><g><g><g><g><g><path d="m256 367.476h-183.052v-242.954h183.052l91.526 138.977z" fill="#7e8a95"/></g></g></g></g><g><g><path d="m256 124.522h183.052v242.955h-183.052z" fill="#4e5a61"/></g></g></g><g><g><g><g><g><g><path d="m256 353.81h-168.127v-215.622h168.127l84.063 111.214z" fill="#046eff"/></g></g></g></g></g><g><g><g><path d="m256 138.188h168.127v215.621h-168.127z" fill="#0051be"/></g></g></g></g></g><g><path d="m256 189.617c-31.839 0-60.311 14.679-79.015 37.621l11.338 11.338c15.752-20.084 40.233-33.011 67.677-33.011l7.9-7.493zm-57.103 59.533 11.297 11.297c11.003-13.038 27.449-21.34 45.805-21.34l7.9-7.279-7.9-8.669c-22.752 0-43.182 10.08-57.102 25.991zm41.269 57.399c0 8.745 7.089 15.835 15.834 15.835l3.95-16.443-3.95-15.227c-8.745 0-15.834 7.089-15.834 15.835zm-19.245-35.375 11.272 11.272c6.126-6.052 14.536-9.796 23.807-9.796l7.9-7.489-7.9-8.459c-13.668.001-26.065 5.533-35.079 14.472z" fill="#f7f9fa"/><path d="m256 223.159v15.948c18.356 0 34.802 8.303 45.806 21.341l11.297-11.298c-13.92-15.911-34.35-25.99-57.103-25.991zm0 49.491c9.271 0 17.681 3.744 23.807 9.796l11.272-11.271c-9.014-8.939-21.411-14.472-35.079-14.472zm0-83.033v15.948c27.444 0 51.926 12.927 67.678 33.011l11.338-11.338c-18.705-22.942-47.177-37.621-79.016-37.621zm0 101.097v31.669c8.745 0 15.835-7.09 15.835-15.835s-7.09-15.834-15.835-15.834z" fill="#dbe1e8"/></g><g><g><g><g><g><g><path d="m350.824 451.836h-43.783v-156.489h43.783l21.891 89.516z" fill="#dbe1e8"/></g></g></g></g><g><g><path d="m350.824 295.347h43.782v156.489h-43.782z" fill="#b8c2cc"/></g></g></g><g><g><g><path d="m364.686 361.834-13.862 21.521c-11.885 0-21.521-9.635-21.521-21.521s9.635-21.521 21.521-21.521z" fill="#00ddc1"/></g></g><g><path d="m372.344 361.834c0 11.885-9.635 21.521-21.521 21.521v-43.041c11.886-.001 21.521 9.634 21.521 21.52z" fill="#00baa0"/></g><path d="m350.824 354.021-8.486-4.782v25.19l8.486-4.783 2.447-7.812z" fill="#7e8a95"/><path d="m350.824 369.646 13.862-7.812-13.862-7.813z" fill="#4e5a61"/></g><g><path d="m317.841 316.922h22.925v9.849h-22.925z" fill="#7e8a95"/><path d="m360.882 316.922h22.925v9.849h-22.925z" fill="#4e5a61"/><path d="m317.841 398.175h22.925v9.849h-22.925z" fill="#7e8a95"/><path d="m360.882 398.175h22.925v9.849h-22.925z" fill="#4e5a61"/><path d="m317.841 418.181h22.925v9.849h-22.925z" fill="#7e8a95"/><path d="m360.882 418.181h22.925v9.849h-22.925z" fill="#4e5a61"/></g></g></g></svg>