<svg height="512pt" viewBox="-10 0 512 512" width="512pt" xmlns="http://www.w3.org/2000/svg"><path d="m456.082031 393.820312c22.425781-36.996093 35.339844-80.398437 35.339844-126.820312 0-135.3125-109.691406-245.003906-245.003906-245.003906-135.308594 0-245 109.691406-245 245.003906 0 48.347656 14.011719 93.417969 38.183593 131.386719zm0 0" fill="#60d882"/><path d="m456.152344 116.691406h-254.457032v75.113282h33.976563c3.246094 0 5.875 2.632812 5.875 5.875v314.257812c1.621094.03125 3.242187.0625 4.871094.0625 88.9375 0 166.804687-47.390625 209.734375-118.296875zm0 0" fill="#284cb2"/><path d="m274.011719 149.648438c0-18.125 14.832031-32.957032 32.957031-32.957032h-105.273438v75.113282h33.976563c3.246094 0 5.875 2.628906 5.875 5.875v314.257812c1.621094.03125 3.242187.0625 4.871094.0625 9.332031 0 18.535156-.527344 27.59375-1.542969zm0 0" fill="#1d3ba8"/><path d="m39.382812 398.035156c42.976563 67.761719 118.296876 112.972656 204.253907 113.929688v-153.789063h-204.253907zm0 0" fill="#d6eafc"/><path d="m152.683594 358.175781h-113.300782v39.859375c26.882813 42.386719 66.417969 75.949219 113.300782 95.375zm0 0" fill="#b7dbf6"/><path d="m237.761719 189.714844h-226.242188c-3.246093 0-5.875 2.632812-5.875 5.875v37.203125h47.8125v84.390625h-47.8125v37.207031c0 3.242187 2.628907 5.875 5.875 5.875h232.117188v-164.675781c0-3.242188-2.632813-5.875-5.875-5.875zm0 0" fill="#406bcc"/><path d="m54.65625 232.792969v-37.203125c0-3.242188 2.632812-5.875 5.875-5.875h-49.011719c-3.246093 0-5.875 2.632812-5.875 5.875v37.203125zm0 0" fill="#284cb2"/><path d="m54.65625 354.390625v-37.207031h-49.011719v37.207031c0 3.242187 2.628907 5.875 5.875 5.875h49.011719c-3.242188 0-5.875-2.632813-5.875-5.875zm0 0" fill="#284cb2"/><path d="m141.722656 488.550781h56.046875v-28.203125h-101.820312c14.101562 10.996094 29.441406 20.472656 45.773437 28.203125zm0 0" fill="#284cb2"/><path d="m197.769531 507.160156v-18.609375h-56.050781c17.632812 8.34375 36.414062 14.652344 56.050781 18.609375zm0 0" fill="#406bcc"/><path d="m85.25 451.511719c3.480469 3.046875 7.046875 5.992187 10.699219 8.835937h101.820312v-28.199218h-112.519531zm0 0" fill="#406bcc"/><path d="m191.640625 403.949219h-100.265625c-3.382812 0-6.128906 2.742187-6.128906 6.125v22.074219h112.523437v-22.074219c0-3.382813-2.746093-6.125-6.128906-6.125zm0 0" fill="#284cb2"/><path d="m51.609375 318.191406v-86.40625h54.386719v86.40625zm0 0" fill="#55f3ff"/><path d="m376.835938 474.425781c18.066406-11.386719 34.539062-25.0625 49.011718-40.625v-3.652343h-49.011718zm0 0" fill="#55f3ff"/><path d="m195.300781 231.785156h-43.714843v86.40625h43.714843c3.53125 0 6.394531-2.800781 6.394531-6.253906v-73.902344c0-3.449218-2.863281-6.25-6.394531-6.25zm0 0" fill="#55f3ff"/><path d="m354.734375 247.253906v-86.402344h54.082031v86.402344zm0 0" fill="#55f3ff"/><path d="m341.566406 403.949219h-62.664062c-2.699219 0-4.890625 2.1875-4.890625 4.890625v23.308594h72.445312v-23.308594c0-2.703125-2.1875-4.890625-4.890625-4.890625zm0 0" fill="#1d3ba8"/><path d="m274.011719 510.445312c25.542969-2.863281 49.898437-9.644531 72.445312-19.742187v-58.554687h-72.445312zm0 0" fill="#406bcc"/><path d="m313.769531 403.949219h-34.867187c-2.699219 0-4.890625 2.1875-4.890625 4.890625v23.308594h34.867187v-23.308594c0-2.703125 2.191406-4.890625 4.890625-4.890625zm0 0" fill="#122894"/><path d="m308.878906 432.148438h-34.867187v78.296874c11.902343-1.335937 23.542969-3.53125 34.867187-6.503906zm0 0" fill="#284cb2"/><g fill="#97cbef"><path d="m243.636719 361.582031c-4.328125 0-7.835938-3.507812-7.835938-7.835937v-64.421875c0-4.324219 3.507813-7.832031 7.835938-7.832031 4.324219 0 7.832031 3.507812 7.832031 7.832031v64.421875c0 4.328125-3.507812 7.835937-7.832031 7.835937zm0 0"/><path d="m448.316406 361.582031c-4.324218 0-7.832031-3.507812-7.832031-7.835937v-64.421875c0-4.324219 3.507813-7.832031 7.832031-7.832031 4.328125 0 7.832032 3.507812 7.832032 7.832031v64.421875c.003906 4.328125-3.503907 7.835937-7.832032 7.835937zm0 0"/><path d="m480.390625 361.582031c-4.324219 0-7.832031-3.507812-7.832031-7.835937v-64.421875c0-4.324219 3.507812-7.832031 7.832031-7.832031 4.328125 0 7.835937 3.507812 7.835937 7.832031v64.421875c0 4.328125-3.507812 7.835937-7.835937 7.835937zm0 0"/><path d="m412.746094 361.582031c-4.328125 0-7.832032-3.507812-7.832032-7.835937v-64.421875c0-4.324219 3.507813-7.832031 7.832032-7.832031 4.328125 0 7.835937 3.507812 7.835937 7.832031v64.421875c0 4.328125-3.507812 7.835937-7.835937 7.835937zm0 0"/><path d="m378.925781 361.582031c-4.328125 0-7.832031-3.507812-7.832031-7.835937v-64.421875c0-4.324219 3.503906-7.832031 7.832031-7.832031s7.832031 3.507812 7.832031 7.832031v64.421875c0 4.328125-3.503906 7.835937-7.832031 7.835937zm0 0"/><path d="m345.101562 361.582031c-4.328124 0-7.832031-3.507812-7.832031-7.835937v-64.421875c0-4.324219 3.507813-7.832031 7.832031-7.832031 4.328126 0 7.832032 3.507812 7.832032 7.832031v64.421875c.003906 4.328125-3.503906 7.835937-7.832032 7.835937zm0 0"/><path d="m311.28125 361.582031c-4.328125 0-7.835938-3.507812-7.835938-7.835937v-64.421875c0-4.324219 3.507813-7.832031 7.835938-7.832031 4.324219 0 7.832031 3.507812 7.832031 7.832031v64.421875c0 4.328125-3.507812 7.835937-7.832031 7.835937zm0 0"/><path d="m277.457031 361.582031c-4.324219 0-7.832031-3.507812-7.832031-7.835937v-64.421875c0-4.324219 3.507812-7.832031 7.832031-7.832031 4.328125 0 7.835938 3.507812 7.835938 7.832031v64.421875c0 4.328125-3.507813 7.835937-7.835938 7.835937zm0 0"/></g><path d="m123.515625 142.050781c0 10.957031-8.886719 19.84375-19.847656 19.84375-10.960938 0-19.84375-8.886719-19.84375-19.84375 0-10.960937 8.882812-19.847656 19.84375-19.847656 10.960937 0 19.847656 8.886719 19.847656 19.847656zm0 0" fill="#55f3ff"/><path d="m162 96.195312c6.207031-6.207031 5.121094-16.476562-2.15625-21.390624-16.378906-11.058594-35.792969-17.097657-56.175781-17.097657-20.378907 0-39.792969 6.039063-56.171875 17.097657-7.277344 4.914062-8.363282 15.183593-2.15625 21.390624l.195312.199219c4.722656 4.71875 12.164063 5.574219 17.695313 1.835938 11.792969-7.96875 25.769531-12.324219 40.4375-12.324219 14.671875 0 28.648437 4.355469 40.441406 12.324219 5.53125 3.738281 12.972656 2.882812 17.695313-1.835938zm0 0" fill="#55f3ff"/><path d="m203.269531 54.925781c5.851563-5.851562 5.324219-15.503906-1.148437-20.660156-27.691406-22.066406-62.09375-34.265625-98.453125-34.265625-36.355469 0-70.757813 12.199219-98.453125 34.265625-6.46875 5.15625-6.996094 14.808594-1.144532 20.660156l.3125.316407c5.03125 5.03125 12.996094 5.375 18.566407.953124 22.730469-18.03125 50.929687-27.996093 80.71875-27.996093 29.789062 0 57.988281 9.964843 80.71875 27.996093 5.570312 4.421876 13.535156 4.078126 18.566406-.953124zm0 0" fill="#55f3ff"/><path d="m477.957031 374.363281h-234.320312c-7.789063 0-14.101563-6.3125-14.101563-14.097656 0-7.789063 6.3125-14.101563 14.101563-14.101563h234.320312c7.785157 0 14.097657 6.3125 14.097657 14.101563 0 7.785156-6.3125 14.097656-14.097657 14.097656zm0 0" fill="#d6eafc"/><path d="m485.003906 297.15625h-248.417968c-4.328126 0-7.832032-3.503906-7.832032-7.832031 0-4.324219 3.503906-7.832031 7.832032-7.832031h248.417968c4.328125 0 7.832032 3.507812 7.832032 7.832031.003906 4.328125-3.503907 7.832031-7.832032 7.832031zm0 0" fill="#d6eafc"/><path d="m266.035156 360.265625c0-7.789063 6.3125-14.101563 14.097656-14.101563h-36.5c-7.785156 0-14.097656 6.3125-14.097656 14.101563 0 7.785156 6.3125 14.097656 14.097656 14.097656h36.5c-7.785156 0-14.097656-6.3125-14.097656-14.097656zm0 0" fill="#97cbef"/><path d="m265.25 289.324219c0-4.324219 3.507812-7.832031 7.835938-7.832031h-36.5c-4.328126 0-7.835938 3.507812-7.835938 7.832031 0 4.328125 3.507812 7.832031 7.835938 7.832031h36.5c-4.328126 0-7.835938-3.503906-7.835938-7.832031zm0 0" fill="#97cbef"/><path d="m456.484375 118.78125h-255.121094c-7.785156 0-14.101562-6.3125-14.101562-14.101562 0-7.785157 6.316406-14.097657 14.101562-14.097657h255.117188c7.789062 0 14.101562 6.3125 14.101562 14.097657 0 7.789062-6.3125 14.101562-14.097656 14.101562zm0 0" fill="#b7dbf6"/><path d="m456.484375 118.78125h-255.121094c-7.785156 0-14.101562-6.3125-14.101562-14.101562 0-7.785157 6.316406-14.097657 14.101562-14.097657h255.117188c7.789062 0 14.101562 6.3125 14.101562 14.097657 0 7.789062-6.3125 14.101562-14.097656 14.101562zm0 0" fill="#d6eafc"/><path d="m277.457031 104.679688c0-7.789063 6.3125-14.101563 14.101563-14.101563h-90.195313c-7.785156 0-14.101562 6.316406-14.101562 14.101563 0 7.789062 6.316406 14.101562 14.101562 14.101562h90.195313c-7.789063 0-14.101563-6.3125-14.101563-14.101562zm0 0" fill="#97cbef"/><path d="m90.375 14.070312c0-5.875 3.066406-11.023437 7.675781-13.964843-34.273437 1.191406-66.570312 13.234375-92.835937 34.160156-6.46875 5.15625-6.996094 14.808594-1.144532 20.660156l.3125.316407c5.03125 5.03125 12.996094 5.375 18.566407.953124 21.410156-16.984374 47.671875-26.804687 75.542969-27.890624-4.851563-2.890626-8.117188-8.175782-8.117188-14.234376zm0 0" fill="#06daf7"/><path d="m90.375 71.738281c0-5.796875 2.980469-10.886719 7.484375-13.847656-18.25 1.035156-35.550781 6.910156-50.363281 16.914063-7.277344 4.914062-8.363282 15.183593-2.15625 21.390624l.195312.199219c4.722656 4.71875 12.164063 5.574219 17.695313 1.835938 10.445312-7.0625 22.609375-11.277344 35.449219-12.144531-4.957032-2.867188-8.304688-8.210938-8.304688-14.347657zm0 0" fill="#06daf7"/><path d="m140.058594 419.429688c0-7.191407 4.71875-13.324219 11.210937-15.480469h-59.894531c-3.382812 0-6.125 2.742187-6.125 6.125v22.074219h54.808594zm0 0" fill="#1d3ba8"/><path d="m140.058594 432.148438h-54.8125v19.367187c3.480468 3.042969 7.050781 5.988281 10.703125 8.835937h44.109375zm0 0" fill="#284cb2"/><path d="m140.058594 460.347656h-44.109375c13.621093 10.617188 28.402343 19.804688 44.109375 27.386719zm0 0" fill="#1d3ba8"/><path d="m5.644531 318.191406v-86.40625h49.011719v86.40625zm0 0" fill="#06daf7"/><path d="m103.667969 318.191406v-86.402344h49.015625v86.402344zm0 0" fill="#06daf7"/><path d="m407.136719 247.253906v-86.402344h49.015625v86.402344zm0 0" fill="#06daf7"/><path d="m315.367188 160.851562h42.757812v86.402344h-42.757812c-3.453126 0-6.253907-2.796875-6.253907-6.25v-73.902344c0-3.453124 2.800781-6.25 6.253907-6.25zm0 0" fill="#06daf7"/><path d="m420.957031 403.949219h-39.230469c-2.703124 0-4.890624 2.1875-4.890624 4.890625v23.308594h49.011718v-23.308594c0-2.703125-2.1875-4.890625-4.890625-4.890625zm0 0" fill="#06daf7"/></svg>