<svg height="512pt" viewBox="0 -11 512 512" width="512pt" xmlns="http://www.w3.org/2000/svg"><path d="m421.378906 415.007812c42.480469-44.058593 68.625-103.972656 68.625-170.007812 0-135.308594-109.691406-245-245.003906-245-60.792969 0-116.402344 22.152344-159.230469 58.8125zm0 0" fill="#60d882"/><path d="m79.742188 425.867188c43.570312 39.832031 101.574218 64.136718 165.257812 64.136718s121.6875-24.304687 165.257812-64.136718zm0 0" fill="#b2603b"/><path d="m258.90625 425.867188h-179.164062c48.1875 44.054687 111.472656 67.023437 177.269531 63.84375-41.261719-2.085938-39.5-63.84375 1.894531-63.84375zm0 0" fill="#a54f2d"/><path d="m225.136719 222.742188v-.019532c-3.613281-.089844-7.203125-1.503906-9.964844-4.265625l-4.078125-4.078125v199.027344h213.316406v-190.664062zm0 0" fill="#d6eafc"/><path d="m298.066406 222.742188h-72.929687v-.019532c-3.613281-.09375-7.203125-1.503906-9.964844-4.265625l-4.078125-4.078125v199.027344h86.972656zm0 0" fill="#b7dbf6"/><path d="m12.4375 167.761719c-8.0625 24.285156-12.4375 50.25-12.4375 77.238281 0 65.234375 25.5 124.503906 67.066406 168.410156h146.195313v-196.863281l-124.804688-124.804687zm0 0" fill="#d6eafc"/><path d="m33.949219 162.71875c0-8.457031 2.433593-16.371094 6.621093-23.089844l-28.132812 28.132813c-8.058594 24.285156-12.4375 50.25-12.4375 77.238281 0 45.445312 12.386719 87.984375 33.949219 124.464844zm0 0" fill="#b7dbf6"/><path d="m427.894531 94.992188h-301.320312l103.914062 107.164062h205.640625v-98.929688c0-4.546874-3.6875-8.234374-8.234375-8.234374zm0 0" fill="#e5387f"/><path d="m275.847656 94.992188h-149.273437l103.914062 107.164062c-38.855469-40.074219-10.460937-107.164062 45.359375-107.164062zm0 0" fill="#d32976"/><path d="m10.890625 172.558594 77.566406-77.566406 128.882813 128.882812c5.710937 5.710938 14.972656 5.710938 20.683594 0 5.710937-5.714844 5.710937-14.972656 0-20.683594l-139.222657-139.222656c-4.03125-4.035156-9.828125-5.207031-14.898437-3.546875-33.804688 29.527344-59.425782 68.1875-73.011719 112.136719zm0 0" fill="#fe99b8"/><path d="m431.886719 198.90625h-198.148438l4.285157 4.285156c5.710937 5.710938 5.710937 14.96875 0 20.683594-2.953126 2.949219-6.851563 4.363281-10.71875 4.265625v.015625h204.582031c8.078125 0 14.625-6.546875 14.625-14.625s-6.546875-14.625-14.625-14.625zm0 0" fill="#f95d95"/><path d="m251.363281 384.15625h134.941407v29.253906h-134.941407zm0 0" fill="#f4b500"/><path d="m251.363281 354.90625h134.941407v29.25h-134.941407zm0 0" fill="#f9ce00"/><path d="m251.363281 325.652344h134.941407v29.253906h-134.941407zm0 0" fill="#f4b500"/><path d="m251.363281 296.402344h134.941407v29.25h-134.941407zm0 0" fill="#f9ce00"/><path d="m251.363281 384.15625h56.441407v29.253906h-56.441407zm0 0" fill="#f29b00"/><path d="m251.363281 354.90625h56.441407v29.25h-56.441407zm0 0" fill="#f4b500"/><path d="m251.363281 325.652344h56.441407v29.253906h-56.441407zm0 0" fill="#f29b00"/><path d="m251.363281 296.402344h56.441407v29.25h-56.441407zm0 0" fill="#f4b500"/><path d="m381.230469 267.152344h-124.792969c-2.800781 0-5.074219 2.269531-5.074219 5.070312v24.179688h134.941407v-24.179688c0-2.800781-2.269532-5.070312-5.074219-5.070312zm0 0" fill="#f4b500"/><path d="m312.878906 267.152344h-56.441406c-2.800781 0-5.070312 2.269531-5.070312 5.070312v24.179688h56.4375v-24.179688c0-2.800781 2.273437-5.070312 5.074218-5.070312zm0 0" fill="#f29b00"/><path d="m170.878906 267.152344h-65.003906c-2.800781 0-5.070312 2.269531-5.070312 5.070312v24.179688h75.144531v-24.179688c0-2.800781-2.269531-5.070312-5.070313-5.070312zm0 0" fill="#284cb2"/><path d="m100.804688 296.402344h75.144531v90.792968h-75.144531zm0 0" fill="#406bcc"/><path d="m143.449219 267.152344h-37.574219c-2.800781 0-5.070312 2.269531-5.070312 5.070312v24.179688h37.570312v-24.179688c0-2.800781 2.273438-5.070312 5.074219-5.070312zm0 0" fill="#1d3ba8"/><path d="m100.804688 296.402344h37.570312v90.792968h-37.570312zm0 0" fill="#284cb2"/><path d="m61.515625 267.152344h-55.476563c-2.167968 0-4.003906 1.363281-4.730468 3.277344.90625 8.804687 2.292968 17.46875 4.109375 25.972656h61.167969v-24.179688c0-2.800781-2.269532-5.070312-5.070313-5.070312zm0 0" fill="#06daf7"/><path d="m39.019531 267.152344h-32.980469c-2.167968 0-4.003906 1.363281-4.730468 3.277344.90625 8.804687 2.292968 17.46875 4.109375 25.972656h28.527343v-24.179688c.003907-2.800781 2.273438-5.070312 5.074219-5.070312zm0 0" fill="#05b8e2"/><path d="m103.085938 185.410156v-21.601562c0-2.113282-1.714844-3.828125-3.828126-3.828125h-21.601562c-2.109375 0-3.824219 1.714843-3.824219 3.828125v21.601562c0 2.109375 1.710938 3.824219 3.824219 3.824219h21.601562c2.113282 0 3.828126-1.714844 3.828126-3.824219zm0 0" fill="#f9ce00"/><path d="m88.457031 185.410156v-21.601562c0-2.113282 1.714844-3.828125 3.824219-3.828125h-14.625c-2.113281 0-3.824219 1.714843-3.824219 3.828125v21.601562c0 2.109375 1.710938 3.824219 3.824219 3.824219h14.625c-2.109375 0-3.824219-1.714844-3.824219-3.824219zm0 0" fill="#f4b500"/><path d="m33.777344 369.179688v-72.777344h-28.359375c5.558593 26.03125 15.25 50.527344 28.359375 72.777344zm0 0" fill="#06daf7"/><path d="m33.777344 369.179688c2.113281 3.589843 4.320312 7.121093 6.609375 10.589843h21.128906c2.800781 0 5.070313-2.273437 5.070313-5.074219v-78.292968h-32.808594zm0 0" fill="#55f3ff"/><path d="m365.1875 310.132812c-14.300781-7.367187-41.878906-22.636718-65.933594-42.152343-31.777344-25.78125-47.890625-51.257813-47.890625-75.726563v-129.722656c0-33.457031 27.121094-61.023438 61.027344-61.023438h138.585937c33.992188 0 61.023438 27.683594 61.023438 61.023438v129.726562c0 24.464844-16.109375 49.941407-47.886719 75.722657-24.054687 19.515625-51.636719 34.785156-65.933593 42.152343-10.332032 5.316407-22.664063 5.320313-32.992188 0zm0 0" fill="#284cb2"/><path d="m325.265625 250.285156c2.066406 0 4.039063.367188 5.882813 1.003906v-219.023437c-8.210938-.953125-14.589844-7.925781-14.589844-16.394531 0-6.160156 3.378906-11.523438 8.378906-14.363282h-12.546875c-33.90625 0-61.023437 27.566407-61.023437 61.023438v129.726562c0 24.464844 16.109374 49.941407 47.886718 75.722657 3.105469 2.523437 6.273438 4.972656 9.464844 7.34375-.925781-2.164063-1.4375-4.546875-1.4375-7.050781 0-9.933594 8.050781-17.988282 17.984375-17.988282zm0 0" fill="#1d3ba8"/><path d="m482.746094 62.53125c0-10.121094-4.882813-19.722656-13.066406-25.683594-5.46875-3.984375-11.9375-6.085937-18.703126-6.085937h-69.292968v112.859375h101.066406v-81.089844zm0 0" fill="#55f3ff"/><path d="m482.746094 192.257812v-48.636718h-101.0625v141.257812c-.613282 0-1.226563-.09375-1.820313-.261718 1.738281.488281 3.472657.257812 4.921875-.488282 31.355469-16.152344 97.960938-56.933594 97.960938-91.871094zm0 0" fill="#06daf7"/><path d="m381.683594 30.761719h-69.292969c-17.617187 0-31.773437 14.3125-31.773437 31.769531v81.089844h101.066406zm0 0" fill="#06daf7"/><path d="m317.753906 56.859375c0-9.570313 2.761719-18.519531 7.527344-26.097656h-12.890625c-17.617187 0-31.773437 14.3125-31.773437 31.769531v81.089844h37.136718c0-38.941406 0-78.238282 0-86.761719zm0 0" fill="#05b8e2"/><path d="m381.683594 284.878906v-141.257812h-101.066406v48.632812c0 9.730469 5.347656 19.335938 11.179687 27.066406 19.207031 25.449219 58.308594 50.136719 86.785156 64.804688.957031.496094 2.113281.753906 3.101563.753906zm0 0" fill="#55f3ff"/><path d="m317.753906 225.570312c0-11.394531 0-46.523437 0-81.949218h-37.136718v48.636718c0 9.726563 5.347656 19.332032 11.179687 27.0625 8.066406 10.6875 19.644531 21.234376 32.464844 30.964844-3.894531-7.855468-6.507813-16.257812-6.507813-24.714844zm0 0" fill="#06daf7"/><path d="m361.722656 181.972656-30.511718-30.511718c-7.003907-7-7.003907-18.351563-.003907-25.351563 7-7.003906 18.347657-7.007813 25.351563-.003906l17.835937 17.835937 41.652344-41.65625c7.003906-7 18.355469-7.003906 25.351563 0 7.003906 7 7.003906 18.351563.003906 25.351563l-54.328125 54.332031c-7 7-18.347657 7.003906-25.351563.003906zm0 0" fill="#e6fcff"/><path d="m387.65625 130.675781-13.261719 13.265625-17.835937-17.835937c-7.003906-7.003907-18.351563-7-25.351563.003906-7 7-7 18.351563.003907 25.351563l30.511718 30.511718c7.003906 7 18.351563 6.996094 25.351563-.003906l25.027343-25.027344c-15.804687 4.828125-30.472656-10.660156-24.445312-26.265625zm0 0" fill="#d6eafc"/><path d="m178.863281 384.15625h-80.976562c-3.996094 0-7.238281 3.242188-7.238281 7.238281v22.015625h95.453124v-22.015625c0-3.996093-3.238281-7.238281-7.238281-7.238281zm0 0" fill="#b7dbf6"/><path d="m138.636719 384.15625h-40.75c-3.996094 0-7.238281 3.242188-7.238281 7.238281v22.015625h40.75v-22.015625c0-3.996093 3.242187-7.238281 7.238281-7.238281zm0 0" fill="#97cbef"/><path d="m431.886719 411.242188h-27.164063v29.25h27.164063c8.078125 0 14.628906-6.546876 14.628906-14.625-.003906-8.078126-6.550781-14.625-14.628906-14.625zm0 0" fill="#60d882"/><path d="m97.324219 440.492188h135.625v-29.25h-167.898438c9.863281 10.671874 20.664063 20.46875 32.273438 29.25zm0 0" fill="#60d882"/><path d="m231.945312 411.242188h173.777344v29.25h-173.777344zm0 0" fill="#37c47a"/><path d="m130.234375 95.398438-31.433594-31.429688c-4.03125-4.035156-9.828125-5.207031-14.898437-3.546875-33.804688 29.527344-59.425782 68.1875-73.011719 112.136719l77.566406-77.566406 22.457031 22.457031c-4.550781-12.433594 6.445313-24.90625 19.320313-22.050781zm0 0" fill="#fc7ba7"/><path d="m88.457031 123.40625c-8.078125 0-14.625-6.546875-14.625-14.625v-36.640625c0-8.078125 6.546875-14.625 14.625-14.625s14.625 6.546875 14.625 14.625v36.640625c0 8.078125-6.546875 14.625-14.625 14.625zm0 0" fill="#f95d95"/><path d="m88.457031 94.992188c-8.078125 0-14.625-6.546876-14.625-14.625v28.414062c0 8.078125 6.546875 14.625 14.625 14.625s14.625-6.546875 14.625-14.625v-28.414062c0 8.078124-6.546875 14.625-14.625 14.625zm0 0" fill="#e5387f"/></svg>