<svg height="511pt" viewBox="-11 0 511 511.98339" width="511pt" xmlns="http://www.w3.org/2000/svg"><path d="m388.234375 466.105469c61.910156-44.464844 102.242187-117.074219 102.242187-199.113281 0-135.308594-109.6875-244.996094-244.992187-244.996094-135.308594 0-244.992187 109.6875-244.992187 244.996094 0 57.277343 19.660156 109.964843 52.597656 151.683593zm0 0" fill="#122894"/><path d="m253.109375 55.339844h-158.574219c-8.75 0-15.910156 7.160156-15.910156 15.910156v12.769531h165.21875c1.597656-10.171875 4.773438-19.816406 9.265625-28.679687zm0 0" fill="#06daf7"/><path d="m181.644531 55.339844h-87.113281c-8.746094 0-15.90625 7.160156-15.90625 15.910156v12.769531h103.019531zm0 0" fill="#55f3ff"/><path d="m133.828125 55.339844h-39.296875c-8.746094 0-15.90625 7.160156-15.90625 15.910156v12.769531h39.296875v-12.769531c0-8.75 7.160156-15.910156 15.90625-15.910156zm0 0" fill="#06daf7"/><path d="m242.660156 97.070312c0-5.164062.40625-10.230468 1.183594-15.175781h-167.015625c-14.011719 0-25.476563 11.460938-25.476563 25.472657v309.0625c44.796876 58.109374 115.085938 95.554687 194.132813 95.554687 54.285156 0 104.441406-17.667969 145.046875-47.550781v-284.636719c-14.777344 9.09375-32.175781 14.347656-50.800781 14.347656-53.609375 0-97.070313-43.460937-97.070313-97.074219zm0 0" fill="#d6eafc"/><path d="m111.738281 107.367188c0-14.011719 11.464844-25.472657 25.476563-25.472657h-60.386719c-14.011719 0-25.476563 11.460938-25.476563 25.472657v309.0625c16.828126 21.828124 37.253907 40.738281 60.386719 55.84375zm0 0" fill="#b7dbf6"/><path d="m242.660156 97.070312c0-5.164062.40625-10.230468 1.183594-15.175781h-133.605469c14.773438 15 25.863281 33.636719 31.8125 54.441407 5.34375 18.707031 22.46875 31.582031 41.921875 31.582031h89.410156c-18.90625-17.710938-30.722656-42.894531-30.722656-70.847657zm0 0" fill="#1d3ba8"/><path d="m242.660156 97.070312c0-5.164062.40625-10.230468 1.183594-15.175781h-133.605469c14.773438 15 25.863281 33.636719 31.8125 54.441407 5.34375 18.707031 22.46875 31.582031 41.921875 31.582031h89.410156c-18.90625-17.710938-30.722656-42.894531-30.722656-70.847657zm0 0" fill="#1d3ba8"/><path d="m182.082031 81.894531c21.769531 11.867188 36.539063 34.953125 36.539063 61.492188 0 8.632812-1.574219 16.898437-4.429688 24.53125h59.191406c-18.90625-17.710938-30.722656-42.898438-30.722656-70.847657 0-5.164062.40625-10.230468 1.183594-15.175781zm0 0" fill="#122894"/><path d="m243.597656 110.570312h-56.996094c-2.738281 0-4.957031 2.21875-4.957031 4.957032v18.757812c0 2.738282 2.222657 4.957032 4.957031 4.957032h65.671876c-4.292969-8.886719-7.265626-18.53125-8.675782-28.671876zm0 0" fill="#406bcc"/><path d="m252.125 138.914062c-4.273438-8.925781-7.15625-18.488281-8.527344-28.34375h-33.140625c4.59375 8.640626 7.429688 18.355469 8.035157 28.675782h33.78125c-.050782-.109375-.097657-.222656-.148438-.332032zm0 0" fill="#1d3ba8"/><path d="m226.476562 236.570312c-46.113281 0-85.628906 28.226563-102.222656 68.34375.996094.90625 1.632813 2.199219 1.632813 3.652344v77.175782c0 1.457031-.636719 2.75-1.632813 3.65625 16.59375 40.117187 56.109375 68.34375 102.222656 68.34375 61.074219 0 110.585938-49.511719 110.585938-110.585938s-49.511719-110.585938-110.585938-110.585938zm0 0" fill="#1d3ba8"/><path d="m245.484375 431.488281c0-7.5625 4.148437-14.144531 10.289063-17.621093l-53.230469-136.957032c-.824219.105469-1.660157.175782-2.515625.175782-11.1875 0-20.257813-9.070313-20.257813-20.257813 0-4.285156 1.339844-8.253906 3.605469-11.523437-26.691406 11.3125-48.027344 32.796874-59.121094 59.609374.996094.90625 1.636719 2.199219 1.636719 3.652344v77.175782c0 1.453124-.636719 2.75-1.636719 3.65625 16.597656 40.117187 56.109375 68.34375 102.222656 68.34375 12.816407 0 25.117188-2.1875 36.566407-6.199219-9.910157-1.324219-17.558594-9.785157-17.558594-20.054688zm0 0" fill="#122894"/><path d="m97.476562 366.273438h28.410157v-38.234376h-28.410157c-.089843 0-.175781-.023437-.265624-.027343v38.289062c.089843-.007812.175781-.027343.265624-.027343zm0 0" fill="#284cb2"/><path d="m111.617188 343.214844c6.699218 0 12.371093 4.410156 14.269531 10.484375v-25.660157h-28.410157c-.089843 0-.175781-.023437-.265624-.027343v26.183593c1.742187-6.324218 7.519531-10.980468 14.40625-10.980468zm0 0" fill="#1d3ba8"/><path d="m427.640625 50.757812c-28.035156-48.554687-90.125-65.191406-138.679687-37.15625-48.554688 28.035157-65.191407 90.121094-37.15625 138.679688 28.035156 48.554688 90.121093 65.191406 138.675781 37.15625 48.558593-28.035156 65.191406-90.125 37.160156-138.679688zm0 0" fill="#f9ce00"/><path d="m378.910156 124.625-39.402344-68.46875c-23.144531 4.4375-47.5625-5.882812-60.007812-27.441406-1.21875-2.117188-2.28125-4.277344-3.203125-6.472656-38.570313 30.785156-49.914063 85.949218-24.511719 129.996093.007813.015625.019532.03125.027344.046875 25.429688 44.046875 78.882812 61.824219 124.835938 43.820313-1.398438-1.855469-2.707032-3.8125-3.898438-5.878907-12.429688-21.523437-9.1875-47.78125 6.160156-65.601562zm0 0" fill="#f4b500"/><path d="m339.730469 68.902344c-4.398438 0-7.964844-3.566406-7.964844-7.964844v-17.988281c0-4.398438 3.566406-7.964844 7.964844-7.964844 4.398437 0 7.964843 3.566406 7.964843 7.964844v17.988281c0 4.398438-3.566406 7.964844-7.964843 7.964844zm0 0" fill="#97cbef"/><path d="m339.730469 44.402344c-4.398438 0-7.964844-3.566406-7.964844-7.964844v-7.328125c0-4.398437 3.566406-7.964844 7.964844-7.964844 4.398437 0 7.964843 3.566407 7.964843 7.964844v7.328125c0 4.398438-3.566406 7.964844-7.964843 7.964844zm0 0" fill="#97cbef"/><path d="m376.429688 80.242188c-1.824219 0-3.660157-.625-5.15625-1.898438-3.351563-2.847656-3.757813-7.875-.910157-11.226562l10.515625-12.371094c2.851563-3.347656 7.875-3.757813 11.230469-.90625 3.351563 2.847656 3.757813 7.875.910156 11.226562l-10.519531 12.371094c-1.574219 1.851562-3.816406 2.804688-6.070312 2.804688zm0 0" fill="#d6eafc"/><path d="m355.886719 44.402344h-32.3125c-4.398438 0-7.964844-3.566406-7.964844-7.964844 0-4.402344 3.566406-7.96875 7.964844-7.96875h32.3125c4.398437 0 7.964843 3.566406 7.964843 7.96875 0 4.398438-3.566406 7.964844-7.964843 7.964844zm0 0" fill="#d6eafc"/><path d="m339.730469 36.4375c0-4.402344 3.566406-7.96875 7.964843-7.96875h-24.121093c-4.398438 0-7.964844 3.566406-7.964844 7.96875 0 4.398438 3.566406 7.964844 7.964844 7.964844h24.121093c-4.398437 0-7.964843-3.566406-7.964843-7.964844zm0 0" fill="#b7dbf6"/><path d="m390.636719 114.632812c0 28.113282-22.789063 50.90625-50.90625 50.90625-28.117188 0-50.90625-22.792968-50.90625-50.90625 0-28.117187 22.789062-50.90625 50.90625-50.90625 28.117187 0 50.90625 22.789063 50.90625 50.90625zm0 0" fill="#d6eafc"/><path d="m369.46875 154.429688c-28.117188 0-50.910156-22.792969-50.910156-50.90625 0-16.085938 7.46875-30.417969 19.117187-39.746094-27.160156 1.082031-48.851562 23.429687-48.851562 50.855468 0 28.113282 22.792969 50.90625 50.90625 50.90625 12.03125 0 23.082031-4.183593 31.792969-11.160156-.683594.023438-1.367188.050782-2.054688.050782zm0 0" fill="#b7dbf6"/><path d="m339.730469 83.089844v31.542968h31.542969c0-17.421874-14.121094-31.542968-31.542969-31.542968zm0 0" fill="#f95d95"/><path d="m339.730469 176.160156c-33.925781 0-61.527344-27.601562-61.527344-61.527344 0-33.925781 27.601563-61.527343 61.527344-61.527343s61.527343 27.601562 61.527343 61.527343c0 33.925782-27.601562 61.527344-61.527343 61.527344zm0-101.8125c-22.214844 0-40.285157 18.070313-40.285157 40.285156 0 22.214844 18.070313 40.285157 40.285157 40.285157 22.214843 0 40.285156-18.070313 40.285156-40.285157 0-22.214843-18.070313-40.285156-40.285156-40.285156zm0 0" fill="#284cb2"/><path d="m339.730469 122.597656c-4.398438 0-7.964844-3.566406-7.964844-7.964844v-26.355468c0-4.398438 3.566406-7.964844 7.964844-7.964844 4.398437 0 7.964843 3.566406 7.964843 7.964844v26.355468c0 4.398438-3.566406 7.964844-7.964843 7.964844zm0 0" fill="#1d3ba8"/><path d="m339.730469 125.253906c-5.761719 0-10.621094-4.683594-10.621094-10.621094 0-5.09375 3.675781-9.492187 8.550781-10.40625 6.402344-1.304687 12.691406 3.601563 12.691406 10.40625 0 5.957032-4.871093 10.621094-10.621093 10.621094zm0 0" fill="#284cb2"/><path d="m226.476562 271.21875c-41.875 0-75.941406 34.066406-75.941406 75.9375s34.066406 75.9375 75.941406 75.9375c41.871094 0 75.9375-34.066406 75.9375-75.9375s-34.066406-75.9375-75.9375-75.9375zm0 0" fill="#06daf7"/><path d="m179.015625 331.511719c0-20.460938 6.855469-39.347657 18.378906-54.496094-27.480469 11.4375-46.859375 38.5625-46.859375 70.140625 0 41.871094 34.066406 75.9375 75.9375 75.9375 8.023438 0 15.753906-1.261719 23.019532-3.578125-40.28125-9.011719-70.476563-45.046875-70.476563-88.003906zm0 0" fill="#05b8e2"/><path d="m126.003906 302.546875h-28.527344c-2.820312 0-5.125 2.308594-5.125 5.128906v17.359375c0 2.820313 2.304688 5.128906 5.125 5.128906h28.527344c2.820313 0 5.128906-2.308593 5.128906-5.128906v-17.359375c0-2.820312-2.308593-5.128906-5.128906-5.128906zm0 0" fill="#406bcc"/><path d="m126.003906 364.148438h-28.527344c-2.820312 0-5.125 2.308593-5.125 5.128906v17.355468c0 2.820313 2.304688 5.128907 5.125 5.128907h28.527344c2.820313 0 5.128906-2.308594 5.128906-5.128907v-17.355468c0-2.820313-2.308593-5.128906-5.128906-5.128906zm0 0" fill="#406bcc"/><path d="m364.683594 170.484375c-9.710938 0-15.089844-11.191406-9.183594-18.78125-4.847656 2.066406-10.175781 3.21875-15.769531 3.21875-22.214844 0-40.285157-18.074219-40.285157-40.289063 0-17.199218 10.835938-31.90625 26.035157-37.675781-10.023438-1.367187-13.59375-13.996093-5.878907-20.453125-24.066406 8.359375-41.398437 31.25-41.398437 58.128906 0 33.925782 27.601563 61.527344 61.527344 61.527344 9.238281 0 18.003906-2.058594 25.875-5.722656-.304688.023438-.609375.046875-.921875.046875zm0 0" fill="#1d3ba8"/><g fill="#55f3ff"><path d="m275.042969 322.269531c-1.296875-7.253906-8.222657-12.082031-15.476563-10.785156-7.25 1.292969-12.078125 8.222656-10.78125 15.472656 1.292969 7.253907 8.222656 12.082031 15.472656 10.785157 7.25-1.292969 12.078126-8.222657 10.785157-15.472657zm0 0"/><path d="m242.917969 339.734375c-.753907-4.214844-4.78125-7.023437-9-6.269531-4.214844.753906-7.023438 4.78125-6.269531 8.996094.753906 4.21875 4.78125 7.027343 8.996093 6.273437 4.21875-.753906 7.027344-4.78125 6.273438-9zm0 0"/></g></svg>