<svg height="512pt" viewBox="-11 0 512 512" width="512pt" xmlns="http://www.w3.org/2000/svg"><path d="m245 21.996094c-135.308594 0-245 109.691406-245 245.003906 0 107.9375 69.800781 199.570312 166.726562 232.226562h156.546876c96.925781-32.65625 166.730468-124.289062 166.730468-232.226562 0-135.3125-109.691406-245.003906-245.003906-245.003906zm0 0" fill="#06daf7"/><path d="m393.898438 70.644531c-2.71875-.480469-4.984376-2.316406-5.949219-4.902343-14.324219-38.394532-51.320313-65.742188-94.707031-65.742188-43.117188 0-79.929688 27.003906-94.445313 65.019531-1.226563 3.214844-4.472656 5.183594-7.898437 4.824219-19.5625-2.070312-37.171876 9.816406-43.285157 27.464844-1.265625 3.65625-5.085937 5.683594-8.871093 4.875-31.136719-6.652344-60.457032 16.757812-61.554688 47.964844-1.011719 28.957031 22.160156 52.75 50.886719 52.75h253.128906c37.078125 0 68.058594-30.339844 67.636719-67.414063-.367188-32.46875-23.960938-59.351563-54.941406-64.839844zm0 0" fill="#f0f9ff"/><path d="m218.542969 135.484375c.371093-32.46875 23.960937-59.351563 54.941406-64.839844 2.71875-.480469 4.984375-2.316406 5.949219-4.902343 9.574218-25.664063 29.285156-46.375 54.257812-57.300782-12.386718-5.417968-26.0625-8.441406-40.449218-8.441406-43.117188 0-79.929688 27.003906-94.445313 65.019531-1.226563 3.214844-4.472656 5.183594-7.898437 4.824219-19.5625-2.070312-37.171876 9.816406-43.285157 27.464844-1.265625 3.65625-5.085937 5.683594-8.871093 4.875-31.136719-6.652344-60.457032 16.757812-61.554688 47.964844-1.011719 28.957031 22.160156 52.75 50.886719 52.75h158.105469c-37.078126 0-68.058594-30.339844-67.636719-67.414063zm0 0" fill="#ccebff"/><path d="m161.023438 398.390625v98.835937c26.195312 9.554688 54.476562 14.773438 83.976562 14.773438 28.257812 0 55.390625-4.800781 80.644531-13.601562v-100.007813l-82.308593-82.3125zm0 0" fill="#f0f9ff"/><path d="m208.019531 416.835938 68.035157-68.035157-32.71875-32.722656-82.3125 82.3125v98.835937c15.03125 5.484376 30.753906 9.53125 46.996093 11.992188zm0 0" fill="#ccebff"/><path d="m188.191406 338.027344v-26.324219h-37.320312v63.648437zm0 0" fill="#284cb2"/><path d="m150.871094 331.832031v43.519531l37.324218-37.324218-6.550781 6.550781c-11.355469 11.355469-30.773437 3.3125-30.773437-12.746094zm0 0" fill="#1d3ba8"/><path d="m256.773438 479.503906c0 7.417969-6.015626 13.433594-13.4375 13.433594-7.421876 0-13.4375-6.015625-13.4375-13.433594 0-7.421875 6.015624-13.4375 13.4375-13.4375 7.421874 0 13.4375 6.015625 13.4375 13.4375zm0 0" fill="#55f3ff"/><path d="m199.394531 125.386719c-5.714843-5.710938-14.976562-5.710938-20.691406 0l-35.296875 35.300781c-5.714844 5.714844-5.714844 14.976562 0 20.691406 5.710938 5.710938 14.976562 5.710938 20.6875 0l10.328125-10.328125v52.617188c0 8.078125 6.550781 14.628906 14.628906 14.628906 8.082031 0 14.628907-6.550781 14.628907-14.628906v-52.617188l10.328124 10.324219c5.714844 5.714844 14.976563 5.714844 20.6875 0 5.714844-5.714844 5.714844-14.976562 0-20.6875zm0 0" fill="#5488e2"/><path d="m343.269531 178.023438c-5.714843-5.714844-14.980469-5.714844-20.691406 0l-10.328125 10.324218v-52.617187c0-8.078125-6.550781-14.628907-14.628906-14.628907-8.082032 0-14.628906 6.550782-14.628906 14.628907v52.617187l-10.328126-10.324218c-5.710937-5.714844-14.976562-5.714844-20.6875 0-5.714843 5.710937-5.714843 14.972656 0 20.6875l35.296876 35.300781c5.714843 5.710937 14.976562 5.714843 20.691406 0l35.300781-35.300781c5.714844-5.710938 5.714844-14.972657.003906-20.6875zm0 0" fill="#fc7ba7"/><path d="m193.945312 284.609375h-48.824218c-2.113282 0-3.824219 1.714844-3.824219 3.828125v21.609375c0 2.109375 1.710937 3.824219 3.824219 3.824219h48.824218c2.113282 0 3.824219-1.714844 3.824219-3.824219v-21.609375c0-2.113281-1.710937-3.828125-3.824219-3.828125zm0 0" fill="#5488e2"/><path d="m169.53125 310.046875v-21.609375c0-2.113281 1.714844-3.828125 3.828125-3.828125h-28.238281c-2.113282 0-3.824219 1.714844-3.824219 3.828125v21.609375c0 2.109375 1.710937 3.824219 3.824219 3.824219h28.238281c-2.113281 0-3.828125-1.714844-3.828125-3.824219zm0 0" fill="#406bcc"/><path d="m253.679688 291.0625c-5.710938-5.710938-14.976563-5.710938-20.691407 0l-97.277343 97.28125c-9.21875 9.214844-2.691407 24.972656 10.34375 24.972656 3.878906 0 7.601562-1.539062 10.34375-4.285156l86.9375-86.933594 86.9375 86.933594c2.742187 2.746094 6.464843 4.285156 10.34375 4.285156 13.035156 0 19.5625-15.757812 10.34375-24.972656zm0 0" fill="#406bcc"/><path d="m282.609375 457.65625c3.132813-5.3125 1.371094-12.160156-3.9375-15.296875-22.292969-13.160156-48.34375-13.171875-70.664063 0-5.3125 3.136719-7.074218 9.984375-3.941406 15.296875 3.136719 5.308594 9.980469 7.074219 15.296875 3.9375 15.269531-9.015625 32.652344-9.03125 47.953125 0 5.308594 3.136719 12.15625 1.371094 15.292969-3.9375zm0 0" fill="#55f3ff"/><path d="m197.277344 429.058594c28.914062-19.667969 63.171875-19.691406 92.117187-.003906 5.097657 3.46875 12.046875 2.144531 15.515625-2.953126 3.46875-5.097656 2.144532-12.046874-2.953125-15.511718-36.417969-24.769532-80.757812-24.8125-117.242187 0-5.097656 3.46875-6.421875 10.414062-2.953125 15.515625 3.464843 5.089843 10.40625 6.425781 15.515625 2.953125zm0 0" fill="#55f3ff"/><path d="m236.078125 443.648438c0-5.140626 3.117187-9.308594 7.328125-11.164063-12.105469-.011719-24.222656 3.277344-35.398438 9.875-5.3125 3.136719-7.074218 9.984375-3.941406 15.296875 3.136719 5.308594 9.980469 7.074219 15.296875 3.9375 7.652344-4.519531 15.835938-6.773438 24.023438-6.765625-4.308594-1.898437-7.308594-6.207031-7.308594-11.179687zm0 0" fill="#06daf7"/><path d="m236.078125 403.21875c0-5.191406 3.179687-9.394531 7.460937-11.21875-20.257812-.042969-40.527343 6.148438-58.824218 18.589844-5.101563 3.46875-6.421875 10.414062-2.953125 15.515625 3.460937 5.089843 10.40625 6.425781 15.515625 2.953125 14.414062-9.804688 30.160156-14.726563 45.910156-14.757813-4.199219-1.941406-7.109375-6.1875-7.109375-11.082031zm0 0" fill="#06daf7"/><path d="m293.644531 331.027344-39.964843-39.964844c-5.710938-5.710938-14.976563-5.710938-20.6875 0l-97.28125 97.28125c-9.21875 9.214844-2.691407 24.976562 10.34375 24.976562 3.878906 0 7.601562-1.542968 10.34375-4.285156l86.9375-86.9375 29.683593 29.683594c-5.652343-13.015625 7.570313-26.328125 20.625-20.753906zm0 0" fill="#284cb2"/><path d="m243.335938 350.519531c-8.078126 0-14.628907-6.546875-14.628907-14.628906v-36.648437c0-8.082032 6.550781-14.628907 14.628907-14.628907 8.078124 0 14.628906 6.546875 14.628906 14.628907v36.648437c0 8.082031-6.550782 14.628906-14.628906 14.628906zm0 0" fill="#284cb2"/><path d="m243.335938 319.734375c-8.078126 0-14.628907-6.550781-14.628907-14.632813v30.789063c0 8.078125 6.550781 14.628906 14.628907 14.628906 8.078124 0 14.628906-6.550781 14.628906-14.628906v-30.789063c0 8.082032-6.550782 14.632813-14.628906 14.632813zm0 0" fill="#1d3ba8"/><path d="m201.09375 162.167969c0-9.171875 7.433594-16.609375 16.605469-16.609375.679687 0 1.339843.050781 1.996093.132812l-20.300781-20.304687c-5.714843-5.710938-14.980469-5.710938-20.691406 0l-35.300781 35.300781c-5.710938 5.714844-5.710938 14.976562 0 20.691406 5.714844 5.710938 14.980468 5.710938 20.691406 0l10.324219-10.328125v52.617188c0 8.078125 6.550781 14.628906 14.632812 14.628906 8.078125 0 14.628907-6.550781 14.628907-14.628906v-52.617188l.015624.019531c-1.640624-2.574218-2.601562-5.625-2.601562-8.902343zm0 0" fill="#406bcc"/><path d="m325.632812 214.558594c-9.171874 0-16.609374-7.4375-16.609374-16.609375 0-3.671875 1.207031-7.054688 3.226562-9.804688v-52.410156c0-8.082031-6.550781-14.632813-14.628906-14.632813-8.082032 0-14.628906 6.550782-14.628906 14.632813v52.613281l-10.328126-10.324218c-5.710937-5.714844-14.976562-5.714844-20.6875 0-5.714843 5.714843-5.714843 14.976562 0 20.691406l35.296876 35.296875c5.714843 5.714843 14.976562 5.714843 20.691406 0l19.570312-19.570313c-.621094.070313-1.257812.117188-1.902344.117188zm0 0" fill="#f95d95"/></svg>