<svg height="512pt" viewBox="-11 0 512 512" width="512pt" xmlns="http://www.w3.org/2000/svg"><path d="m245 21.996094c-135.308594 0-245 109.691406-245 245.003906 0 116.210938 80.914062 213.523438 189.476562 238.679688l28.878907 4.875c8.753906.945312 17.640625 1.445312 26.644531 1.445312 135.3125 0 245.003906-109.691406 245.003906-245 0-135.3125-109.691406-245.003906-245.003906-245.003906zm0 0" fill="#122894"/><path d="m300.773438 259.230469h-192.71875l-43.261719 173.734375c32.851562 35.648437 76.144531 61.515625 125.027343 72.773437l28.535157 4.816407-.007813.007812c8.753906.949219 17.644532 1.4375 26.652344 1.4375 40.058594 0 77.871094-9.617188 111.257812-26.664062zm0 0" fill="#284cb2"/><path d="m341.492188 425.167969c-5.746094 17.140625-21.921876 29.496093-41 29.496093-13.183594 0-24.984376-5.910156-32.917969-15.214843-4.703125 8.40625-13.6875 14.089843-24.007813 14.089843-13.9375 0-25.445312-10.371093-27.246094-23.8125h-24.671874c-1.800782 13.441407-13.308594 23.8125-27.246094 23.8125-10.433594 0-19.507813-5.808593-24.167969-14.367187-7.933594 9.46875-19.839844 15.492187-33.15625 15.492187-18.660156 0-34.558594-11.816406-40.621094-28.378906l-1.664062 6.679688c32.851562 35.648437 76.144531 61.515625 125.023437 72.769531l28.539063 4.816406-.011719.011719c8.757812.949219 17.648438 1.4375 26.65625 1.4375 40.058594 0 77.871094-9.617188 111.257812-26.664062zm0 0" fill="#1d3ba8"/><path d="m248.570312 259.230469h-89.3125l-23.976562 226.859375c17.417969 8.742187 35.75 15.316406 54.601562 19.65625l28.378907 4.789062c18.761719 2.050782 37.824219 1.953125 56.832031-.375zm0 0" fill="#406bcc"/><path d="m267.625 439.503906c-.015625-.019531-.03125-.035156-.050781-.054687-4.703125 8.40625-13.6875 14.089843-24.007813 14.089843-13.933594 0-25.445312-10.367187-27.246094-23.8125h-24.671874c-1.800782 13.445313-13.308594 23.8125-27.246094 23.8125-10.429688 0-19.5-5.804687-24.164063-14.355468l-4.957031 46.90625c17.421875 8.742187 35.75 15.316406 54.601562 19.65625l28.382813 4.789062c18.757813 2.050782 37.824219 1.953125 56.828125-.375zm0 0" fill="#284cb2"/><path d="m203.914062 25.226562c4.535157 0 9.035157.121094 13.5.34375v-12.070312c0-7.457031-6.042968-13.5-13.5-13.5-7.453124 0-13.5 6.042969-13.5 13.5v12.070312c4.46875-.222656 8.96875-.34375 13.5-.34375zm0 0" fill="#f29b00"/><path d="m203.914062 387.898438c-4.140624 0-7.5-3.355469-7.5-7.5v-129.832032c0-4.140625 3.359376-7.5 7.5-7.5 4.144532 0 7.5 3.359375 7.5 7.5v129.832032c0 4.144531-3.355468 7.5-7.5 7.5zm0 0" fill="#b7dbf6"/><path d="m203.914062 243.066406c-4.140624 0-7.5 3.359375-7.5 7.5v51.417969c0-4.144531 3.359376-7.5 7.5-7.5 4.144532 0 7.5 3.355469 7.5 7.5v-51.417969c0-4.140625-3.355468-7.5-7.5-7.5zm0 0" fill="#97cbef"/><path d="m281.917969 47.234375c-1.90625-8.339844-8.378907-14.875-16.699219-16.859375-19.476562-4.652344-40.042969-7.148438-61.304688-7.148438-21.261718 0-41.824218 2.496094-61.300781 7.148438-8.320312 1.984375-14.796875 8.519531-16.703125 16.859375l-43.226562 188.996094h242.464844zm0 0" fill="#f9ce00"/><path d="m196.855469 30.371094c9.09375-3.089844 18.527343-5.21875 28.214843-6.308594-6.964843-.546875-14.019531-.835938-21.15625-.835938-21.261718 0-41.824218 2.496094-61.300781 7.144532-8.320312 1.988281-14.796875 8.523437-16.703125 16.859375l-43.226562 189h72.050781l30.382813-188.996094c1.339843-8.339844 5.890624-14.875 11.738281-16.863281zm0 0" fill="#f4b500"/><path d="m325.148438 261.230469h-242.464844c-7.457032 0-13.5-6.042969-13.5-13.5s6.042968-13.5 13.5-13.5h242.464844c7.453124 0 13.5 6.042969 13.5 13.5s-6.046876 13.5-13.5 13.5zm0 0" fill="#f4b500"/><path d="m146.863281 247.730469c0-7.457031 6.046875-13.5 13.5-13.5h-77.679687c-7.457032 0-13.5 6.042969-13.5 13.5s6.042968 13.5 13.5 13.5h77.679687c-7.453125 0-13.5-6.042969-13.5-13.5zm0 0" fill="#f29b00"/><path d="m377.445312 173.019531v-19.492187c0-7.457032-6.042968-13.5-13.5-13.5-7.453124 0-13.5 6.042968-13.5 13.5v19.492187zm0 0" fill="#f95d95"/><path d="m363.945312 162.71875c-6.71875 0-12.277343-4.914062-13.308593-11.347656-.113281.703125-.191407 1.421875-.191407 2.15625v19.492187h27v-19.492187c0-.734375-.074218-1.453125-.1875-2.15625-1.03125 6.433594-6.589843 11.347656-13.3125 11.347656zm0 0" fill="#e5387f"/><path d="m383.113281 402.066406h-103.652343c-6.601563 0-12-5.398437-12-12v-207.046875c0-6.601562 5.398437-12 12-12h103.652343c6.601563 0 12 5.398438 12 12v207.046875c0 6.601563-5.398437 12-12 12zm0 0" fill="#d6eafc"/><path d="m325.148438 388.113281c0-8.953125 7.257812-16.214843 16.214843-16.214843v-70.734376c-8.957031 0-16.214843-7.261718-16.214843-16.21875 0-8.953124 7.257812-16.214843 16.214843-16.214843v-66.582031c-8.957031 0-16.214843-7.257813-16.214843-16.214844 0-6.695313 4.058593-12.441406 9.847656-14.917969h-55.535156c-6.601563 0-12 5.398437-12 12v207.046875c0 6.601562 5.398437 12 12 12h53.667968c-4.773437-2.820312-7.980468-8.003906-7.980468-13.949219zm0 0" fill="#b7dbf6"/><path d="m373.617188 236.230469c0 23.378906-18.953126 42.332031-42.332032 42.332031-23.375 0-42.328125-18.953125-42.328125-42.332031 0-23.378907 18.953125-42.328125 42.328125-42.328125 23.378906 0 42.332032 18.949218 42.332032 42.328125zm0 0" fill="#97cbef"/><path d="m373.617188 333.957031c0 23.378907-18.953126 42.332031-42.332032 42.332031-23.375 0-42.328125-18.953124-42.328125-42.332031 0-23.378906 18.953125-42.328125 42.328125-42.328125 23.378906 0 42.332032 18.949219 42.332032 42.328125zm0 0" fill="#97cbef"/><path d="m331.285156 367.898438c-18.710937 0-33.9375-15.226563-33.9375-33.941407 0-18.714843 15.226563-33.9375 33.9375-33.9375 18.714844 0 33.941406 15.222657 33.941406 33.9375 0 18.714844-15.226562 33.941407-33.941406 33.941407zm0-52.878907c-10.441406 0-18.9375 8.496094-18.9375 18.941407 0 10.441406 8.496094 18.9375 18.9375 18.9375 10.445313 0 18.941406-8.496094 18.941406-18.9375 0-10.445313-8.496093-18.941407-18.941406-18.941407zm0 0" fill="#406bcc"/><path d="m331.285156 242.289062c-4.140625 0-7.5-3.355468-7.5-7.5v-26.4375c0-4.144531 3.359375-7.5 7.5-7.5 4.144532 0 7.5 3.355469 7.5 7.5v26.4375c0 4.144532-3.355468 7.5-7.5 7.5zm0 0" fill="#406bcc"/><path d="m331.285156 225.039062c-4.140625 0-7.5-3.355468-7.5-7.5v17.25c0 4.144532 3.359375 7.5 7.5 7.5 4.144532 0 7.5-3.355468 7.5-7.5v-17.25c0 4.144532-3.355468 7.5-7.5 7.5zm0 0" fill="#284cb2"/><path d="m331.285156 268.730469c-31.417968 0-45.734375-38.992188-22.347656-59.472657 3.117188-2.730468 7.855469-2.417968 10.585938.699219 2.726562 3.113281 2.414062 7.851563-.703126 10.582031-13.089843 11.46875-5.015624 33.191407 12.464844 33.191407 17.511719 0 25.542969-21.738281 12.46875-33.191407-3.117187-2.730468-3.429687-7.46875-.703125-10.582031 2.730469-3.117187 7.46875-3.429687 10.585938-.703125 23.355469 20.460938 9.097656 59.476563-22.351563 59.476563zm0 0" fill="#406bcc"/><path d="m230.648438 409.566406h-18.695313c-4.140625 0-7.5-3.355468-7.5-7.5 0-4.144531 3.359375-7.5 7.5-7.5h18.695313c4.140624 0 7.5 3.355469 7.5 7.5 0 4.144532-3.359376 7.5-7.5 7.5zm0 0" fill="#97cbef"/><path d="m203.914062 366.898438c-7.972656 0-14.4375 6.464843-14.4375 14.441406v124.339844c9.425782 2.183593 19.066407 3.8125 28.878907 4.875v-129.214844c0-7.976563-6.464844-14.441406-14.441407-14.441406zm0 0" fill="#d6eafc"/><path d="m203.914062 449.558594c-7.972656 0-14.4375-6.464844-14.4375-14.4375v70.558594c9.425782 2.183593 19.066407 3.8125 28.878907 4.875v-75.433594c0 7.972656-6.464844 14.4375-14.441407 14.4375zm0 0" fill="#b7dbf6"/><path d="m399.117188 117.828125c2.808593-4.757813 1.226562-10.886719-3.527344-13.695313-19.964844-11.785156-43.292969-11.796874-63.277344 0-4.757812 2.808594-6.335938 8.9375-3.53125 13.695313 2.808594 4.753906 8.9375 6.335937 13.695312 3.527344 13.675782-8.074219 29.242188-8.089844 42.945313 0 4.753906 2.808593 10.886719 1.230469 13.695313-3.527344zm0 0" fill="#55f3ff"/><path d="m322.699219 92.21875c25.894531-17.609375 56.574219-17.628906 82.492187 0 4.566406 3.101562 10.789063 1.921875 13.894532-2.648438 3.105468-4.566406 1.921874-10.785156-2.644532-13.890624-32.613281-22.179688-72.316406-22.21875-104.988281.003906-4.566406 3.101562-5.75 9.324218-2.644531 13.890625 3.101562 4.558593 9.320312 5.757812 13.890625 2.644531zm0 0" fill="#55f3ff"/><path d="m357.445312 105.285156c0-4.601562 2.792969-8.332031 6.566407-9.996094-10.84375-.011718-21.691407 2.933594-31.703125 8.84375-4.753906 2.808594-6.332032 8.9375-3.527344 13.695313 2.808594 4.753906 8.9375 6.335937 13.695312 3.527344 6.855469-4.046875 14.183594-6.066407 21.515626-6.058594-3.859376-1.699219-6.546876-5.558594-6.546876-10.011719zm0 0" fill="#06daf7"/><path d="m357.445312 69.082031c0-4.652343 2.851563-8.414062 6.683594-10.046875-18.140625-.039062-36.292968 5.503906-52.675781 16.648438-4.566406 3.101562-5.75 9.324218-2.644531 13.890625 3.101562 4.558593 9.320312 5.757812 13.890625 2.644531 12.910156-8.777344 27.011719-13.183594 41.113281-13.210938-3.757812-1.742187-6.367188-5.542968-6.367188-9.925781zm0 0" fill="#06daf7"/><g fill="#284cb2"><path d="m328.566406 260.414062c0-2.722656 1.285156-5.144531 3.273438-6.703124-.1875.003906-.367188.019531-.554688.019531-17.480468 0-25.554687-21.722657-12.464844-33.191407 3.117188-2.730468 3.429688-7.46875.703126-10.585937-2.730469-3.113281-7.46875-3.429687-10.585938-.699219-23.386719 20.484375-9.070312 59.476563 22.347656 59.476563 1.140625 0 2.253906-.054688 3.351563-.15625-3.511719-1.054688-6.070313-4.304688-6.070313-8.160157zm0 0"/><path d="m325.816406 360.542969c0-3.410157 2.027344-6.339844 4.9375-7.671875-10.195312-.285156-18.40625-8.648438-18.40625-18.910156 0-10.265626 8.210938-18.628907 18.40625-18.914063-2.910156-1.332031-4.9375-4.261719-4.9375-7.671875 0-3.136719 1.71875-5.871094 4.261719-7.324219-18.152344.636719-32.730469 15.597657-32.730469 33.910157 0 18.308593 14.574219 33.269531 32.730469 33.90625-2.542969-1.453126-4.261719-4.1875-4.261719-7.324219zm0 0"/></g></svg>