<svg height="512.001pt" viewBox="0 0 512.001 512.001" width="512.001pt" xmlns="http://www.w3.org/2000/svg"><path d="m245 21.996094c-135.308594 0-245 109.691406-245 245.003906 0 .675781.0195312 1.347656.0273438 2.023438l242.9492182 242.953124c.675782.003907 1.347657.023438 2.023438.023438 135.3125 0 245.003906-109.691406 245.003906-245s-109.691406-245.003906-245.003906-245.003906zm0 0" fill="#122894"/><path d="m327.664062 312.019531c0 70.167969-56.878906 127.046875-127.046874 127.046875-70.167969 0-127.050782-56.878906-127.050782-127.046875s56.882813-127.050781 127.050782-127.050781c70.167968 0 127.046874 56.882812 127.046874 127.050781zm0 0" fill="#2bb381"/><path d="m200.617188 436.574219c37.53125 0 70.980468-17.429688 92.722656-44.628907v-113.511718l-92.722656-92.71875-92.722657 92.71875v113.511718c21.742188 27.199219 55.195313 44.628907 92.722657 44.628907zm0 0" fill="#d6eafc"/><path d="m162.796875 291.03125c0-8.066406 3.207031-15.800781 8.90625-21.503906l56.367187-56.363282-27.453124-27.449218-92.722657 92.722656v113.507812c14.082031 17.613282 33.074219 31.121094 54.902344 38.460938zm0 0" fill="#b7dbf6"/><path d="m200.617188 298.304688c-22.761719 0-41.214844 18.453124-41.214844 41.214843v89.6875c12.839844 4.757813 26.71875 7.367188 41.214844 7.367188 14.492187 0 28.375-2.609375 41.210937-7.367188v-89.6875c0-22.761719-18.449219-41.214843-41.210937-41.214843zm0 0" fill="#284cb2"/><path d="m200.617188 298.304688c-8.027344 0-15.515626 2.304687-21.847657 6.273437 13.082031 7.792969 21.847657 22.074219 21.847657 38.40625v93.589844c14.496093 0 28.375-2.609375 41.214843-7.367188v-89.6875c0-22.761719-18.453125-41.214843-41.214843-41.214843zm0 0" fill="#1d3ba8"/><path d="m253.132812 496.3125c14.351563-4.082031 28.015626-9.796875 40.785157-16.921875 2.550781-1.421875 5.695312-1.222656 8.054687.496094l36.679688 26.648437c4.199218 3.046875 9.988281 2.589844 13.65625-1.074218l37.417968-37.421876c6.285157-6.285156 7.066407-16.210937 1.84375-23.398437l-22.871093-31.480469c-1.71875-2.363281-1.917969-5.507812-.496094-8.054687 7.125-12.769531 12.839844-26.433594 16.921875-40.785157.796875-2.804687 3.164062-4.882812 6.042969-5.339843l44.75-7.085938c5.121093-.8125 8.894531-5.230469 8.894531-10.414062v-59.351563c0-5.1875-3.773438-9.601562-8.894531-10.414062l-44.75-7.085938c-2.878907-.457031-5.246094-2.535156-6.042969-5.339844-1.699219-5.972656-3.695312-11.816406-5.941406-17.535156h-.90625c-3.261719 0-6-2.339844-6.511719-5.5625l-2.484375-15.691406c-.363281-.664062-.710938-1.335938-1.078125-1.996094-.785156-1.40625-1.058594-2.992187-.871094-4.53125-.78125-.925781-1.820312-1.628906-3.019531-1.96875-6.894531-1.957031-13.578125-4.734375-19.871094-8.242187-.933594-.523438-1.96875-.78125-3.003906-.78125-1.285156 0-2.570312.398437-3.652344 1.183593l-18.339844 13.324219c-1.132812.824219-2.671874.699219-3.664062-.289062l-20.980469-20.984375c-.992187-.988282-1.113281-2.53125-.289062-3.664063l13.320312-18.339843c1.414063-1.945313 1.574219-4.554688.40625-6.652344-3.511719-6.292969-6.285156-12.976563-8.246093-19.871094-.28125-1-.820313-1.878906-1.523438-2.601562-1.546875.191406-3.140625-.078126-4.554688-.867188-.96875-.542969-1.949218-1.058594-2.925781-1.582031l-15.183593-2.402344c-3.222657-.511719-5.5625-3.25-5.5625-6.515625v-.648438c-5.582032-2.179687-11.289063-4.121093-17.113282-5.773437-2.804687-.796875-4.882812-3.164063-5.339844-6.046875l-6.078124-38.398438c-1.394532-8.78125-8.960938-15.242187-17.851563-15.242187h-46.492187c-8.886719 0-16.457032 6.464844-17.847657 15.242187l-6.082031 38.402344c-.457031 2.878906-2.535156 5.246094-5.339844 6.042969-14.351562 4.078125-28.015625 9.796875-40.78125 16.921875-2.550781 1.421875-5.695312 1.21875-8.058594-.496094l-36.679687-26.648437c-4.195313-3.046875-9.984375-2.59375-13.652344 1.074219l-41.964843 41.964843c-3.667969 3.667969-4.121094 9.457031-1.074219 13.65625l26.648437 36.679688c1.71875 2.359375 1.917969 5.503906.496094 8.054687-7.128906 12.769532-12.84375 26.433594-16.921875 40.785156-.796875 2.804688-3.164063 4.882813-6.042969 5.339844l-10.0546872 1.589844c0 .261719-.0117188.519531-.0117188.78125 0 135.308594 109.691406 245 245 245 .425781 0 .847656-.015625 1.269531-.015625l1.527344-9.628906c.453125-2.878907 2.53125-5.246094 5.335937-6.042969zm-52.515624-65.84375c-65.539063 0-118.667969-53.128906-118.667969-118.664062 0-65.539063 53.128906-118.667969 118.667969-118.667969 65.539062 0 118.667968 53.128906 118.667968 118.667969 0 65.539062-53.128906 118.664062-118.667968 118.664062zm0 0" fill="#60d882"/><path d="m507.554688 102.054688-22.375-3.546876c-1.441407-.226562-2.625-1.265624-3.023438-2.667968-2.042969-7.175782-4.898438-14.007813-8.460938-20.390625-.710937-1.277344-.609374-2.847657.246094-4.027344l11.4375-15.742187c2.609375-3.59375 2.222656-8.558594-.921875-11.699219l-18.710937-18.710938c-1.832032-1.832031-4.726563-2.0625-6.824219-.535156l-18.34375 13.324219c-1.179687.855468-2.75.957031-4.027344.246094-6.382812-3.5625-13.214843-6.421876-20.390625-8.460938-1.402344-.398438-2.441406-1.582031-2.667968-3.019531l-3.042969-19.203125c-.695313-4.390625-4.480469-7.621094-8.925781-7.621094h-23.246094c-4.441406 0-8.226563 3.230469-8.921875 7.621094l-3.042969 19.199218c-.226562 1.441407-1.265625 2.625-2.667969 3.023438-7.175781 2.039062-14.007812 4.898438-20.390625 8.460938-1.277344.710937-2.847656.609374-4.03125-.25l-18.339844-13.324219c-2.097656-1.523438-4.992187-1.292969-6.828124.539062l-20.980469 20.984375c-1.835938 1.832032-2.0625 4.726563-.539063 6.824219l13.324219 18.339844c.859375 1.183593.960937 2.753906.246094 4.027343-3.5625 6.386719-6.417969 13.21875-8.457031 20.394532-.402344 1.402344-1.585938 2.441406-3.023438 2.667968l-19.199219 3.042969c-4.390625.691407-7.625 4.476563-7.625 8.921875v23.246094c0 4.445312 3.234375 8.230469 7.625 8.925781l19.199219 3.042969c1.4375.226562 2.621094 1.265625 3.023438 2.667969 2.039062 7.175781 4.894531 14.007812 8.457031 20.390625.714843 1.277344.613281 2.847656-.246094 4.027344l-13.324219 18.339843c-1.523437 2.101563-1.296875 4.996094.539063 6.828125l20.980469 20.984375c1.835937 1.832031 4.730468 2.058594 6.828124.535157l18.339844-13.324219c1.179688-.855469 2.753906-.957031 4.03125-.246094 6.382813 3.5625 13.214844 6.421875 20.390625 8.460937 1.402344.398438 2.441407 1.582032 2.667969 3.019532l3.042969 19.199218c.695312 4.390626 4.480469 7.625 8.921875 7.625h23.246094c4.445312 0 8.230468-3.234374 8.925781-7.625l3.042969-19.199218c.226562-1.4375 1.265624-2.625 2.667968-3.023438 7.175782-2.039062 14.007813-4.894531 20.390625-8.457031 1.277344-.710937 2.847657-.613281 4.027344.246094l18.34375 13.324219c2.097656 1.523437 4.992187 1.296874 6.824219-.535157l18.710937-18.710937c3.144531-3.144532 3.535157-8.105469.921875-11.699219l-11.433594-15.742187c-.859374-1.179688-.960937-2.753907-.25-4.027344 3.5625-6.382813 6.421876-13.214844 8.460938-20.390625.398438-1.40625 1.582031-2.441407 3.023438-2.671875l22.375-3.542969c2.558593-.40625 4.445312-2.613281 4.445312-5.207031v-29.675782c0-2.589843-1.886719-4.796874-4.445312-5.203124zm-117.652344 45.992187c-14.308594 0-25.949219-11.640625-25.949219-25.949219s11.640625-25.945312 25.949219-25.945312 25.945312 11.636718 25.945312 25.945312-11.636718 25.949219-25.945312 25.949219zm0 0" fill="#f9ce00"/><path d="m412.664062 176.460938c-13.09375-3.757813-19.171874-18.929688-12.125-30.707032-3.25 1.46875-6.847656 2.292969-10.636718 2.292969-14.304688 0-25.945313-11.640625-25.945313-25.949219 0-8.84375 4.449219-16.664062 11.226563-21.351562-13.445313-4.808594-18.082032-21.207032-9.480469-32.339844-16.882813-3.792969-22.015625-25.371094-8.707031-36.394531-4.765625 1.746093-9.363282 3.847656-13.742188 6.292969-1.277344.714843-2.851562.609374-4.03125-.246094l-18.339844-13.324219c-2.097656-1.523437-4.992187-1.296875-6.824218.535156l-20.984375 20.984375c-1.835938 1.835938-2.0625 4.730469-.539063 6.828125l13.324219 18.339844c.859375 1.179687.960937 2.753906.25 4.027344-3.5625 6.382812-6.421875 13.214843-8.460937 20.390625-.398438 1.402344-1.582032 2.441406-3.019532 2.671875l-19.203125 3.039062c-4.390625.695313-7.621093 4.480469-7.621093 8.925781v23.246094c0 4.445313 3.230468 8.226563 7.621093 8.925782l19.203125 3.039062c1.4375.226562 2.621094 1.265625 3.019532 2.667969 2.039062 7.179687 4.898437 14.007812 8.460937 20.394531.710937 1.273438.609375 2.847656-.25 4.027344l-13.324219 18.339844c-1.523437 2.097656-1.296875 4.992187.539063 6.828124l20.984375 20.980469c1.832031 1.835938 4.726562 2.0625 6.824218.539063l18.339844-13.324219c1.183594-.859375 2.753906-.960937 4.03125-.25 6.382813 3.5625 13.214844 6.421875 20.390625 8.460937 1.402344.398438 2.441407 1.582032 2.667969 3.023438l3.042969 19.199219c.695312 4.390625 4.480469 7.621093 8.921875 7.621093h23.246094c4.445312 0 8.230468-3.230468 8.925781-7.621093l3.042969-19.199219c.226562-1.441406 1.265624-2.625 2.667968-3.023438 4.261719-1.210937 8.394532-2.714843 12.390625-4.480468-16.9375-.570313-26.058593-20.023438-15.886719-33.410156zm0 0" fill="#f4b500"/><path d="m389.902344 63.191406c-32.480469 0-58.910156 26.425782-58.910156 58.90625 0 32.480469 26.429687 58.910156 58.910156 58.910156 32.480468 0 58.90625-26.429687 58.90625-58.910156 0-32.480468-26.425782-58.90625-58.90625-58.90625zm0 84.855469c-14.308594 0-25.949219-11.640625-25.949219-25.949219s11.640625-25.945312 25.949219-25.945312 25.945312 11.636718 25.945312 25.945312-11.636718 25.949219-25.945312 25.949219zm0 0" fill="#f4b500"/><path d="m234.652344 446.726562c0-8.765624 2.683594-16.90625 7.269531-23.648437-12.863281 4.777344-26.777344 7.390625-41.304687 7.390625-65.539063 0-118.664063-53.128906-118.664063-118.664062 0-52.316407 33.851563-96.71875 80.847656-112.507813v-14.21875c-17.667969-.425781-31.863281-14.871094-31.863281-32.640625 0-8.792969 3.480469-16.769531 9.132812-22.640625-11.429687 3.804687-22.390624 8.636719-32.75 14.421875-2.550781 1.421875-5.695312 1.21875-8.058593-.496094l-36.679688-26.648437c-4.195312-3.046875-9.984375-2.59375-13.652343 1.074219l-41.96875 41.964843c-3.667969 3.667969-4.121094 9.457031-1.074219 13.65625l26.648437 36.679688c1.714844 2.359375 1.917969 5.503906.496094 8.054687-7.125 12.769532-12.84375 26.433594-16.921875 40.785156-.796875 2.804688-3.164063 4.882813-6.042969 5.339844l-10.0546872 1.589844c0 .261719-.0117188.519531-.0117188.78125 0 135.308594 109.691406 245 245 245 .425781 0 .847656-.015625 1.269531-.015625l1.523438-9.628906c.457031-2.878907 2.535156-5.246094 5.339843-6.042969 7.355469-2.089844 14.523438-4.617188 21.488282-7.535156-22.261719-1.113282-39.96875-19.515625-39.96875-42.050782zm0 0" fill="#37c47a"/><path d="m138.5 206.777344v-30.875h-42.042969v72.917968zm0 0" fill="#284cb2"/><path d="m96.457031 197.746094v51.074218l42.042969-42.042968-5.925781 5.925781c-13.328125 13.328125-36.117188 3.890625-36.117188-14.957031zm0 0" fill="#1d3ba8"/><path d="m212.269531 153.871094c-6.433593-6.433594-16.871093-6.433594-23.304687 0l-109.585938 109.585937c-10.382812 10.382813-3.027344 28.132813 11.652344 28.132813 4.371094 0 8.5625-1.734375 11.652344-4.824219l97.933594-97.933594 97.933593 97.933594c3.089844 3.089844 7.28125 4.824219 11.652344 4.824219 14.679687 0 22.035156-17.75 11.652344-28.132813zm0 0" fill="#406bcc"/><path d="m251.078125 192.679688-38.808594-38.808594c-6.433593-6.433594-16.871093-6.433594-23.304687 0l-109.585938 109.585937c-10.382812 10.382813-3.027344 28.132813 11.652344 28.132813 4.371094 0 8.5625-1.734375 11.652344-4.824219l97.933594-97.933594 26.515624 26.515625c-6.273437-14.910156 9.34375-29.777344 23.945313-22.667968zm0 0" fill="#284cb2"/><path d="m200.617188 220.851562c-9.101563 0-16.480469-7.378906-16.480469-16.480468v-41.285156c0-9.101563 7.378906-16.480469 16.480469-16.480469 9.101562 0 16.480468 7.378906 16.480468 16.480469v41.285156c0 9.101562-7.378906 16.480468-16.480468 16.480468zm0 0" fill="#284cb2"/><path d="m200.617188 188.183594c-9.101563 0-16.480469-7.378906-16.480469-16.480469v32.667969c0 9.101562 7.378906 16.480468 16.480469 16.480468 9.101562 0 16.480468-7.378906 16.480468-16.480468v-32.667969c0 9.101563-7.378906 16.480469-16.480468 16.480469zm0 0" fill="#1d3ba8"/><path d="m144.980469 146.605469h-55c-2.378907 0-4.308594 1.925781-4.308594 4.308593v24.339844c0 2.378906 1.929687 4.308594 4.308594 4.308594h54.996093c2.382813 0 4.3125-1.929688 4.3125-4.308594v-24.339844c0-2.382812-1.929687-4.308593-4.308593-4.308593zm0 0" fill="#5488e2"/><path d="m117.480469 175.253906v-24.339844c0-2.378906 1.929687-4.308593 4.308593-4.308593h-31.808593c-2.378907 0-4.308594 1.929687-4.308594 4.308593v24.339844c0 2.382813 1.929687 4.3125 4.308594 4.3125h31.808593c-2.378906-.003906-4.308593-1.929687-4.308593-4.3125zm0 0" fill="#406bcc"/><path d="m400.539062 145.753906c-3.25 1.46875-6.847656 2.292969-10.636718 2.292969-14.304688 0-25.945313-11.640625-25.945313-25.949219 0-8.84375 4.449219-16.664062 11.226563-21.351562-13.28125-4.75-18.164063-21.085938-9.484375-32.332032-20.441407 9.253907-34.703125 29.828126-34.703125 53.683594 0 32.480469 26.425781 58.910156 58.90625 58.910156 8.046875 0 15.71875-1.625 22.714844-4.5625-13.136719-3.808593-19.082032-18.988281-12.078126-30.691406zm0 0" fill="#f29b00"/></svg>