<svg height="512pt" viewBox="0 -11 512 512" width="512pt" xmlns="http://www.w3.org/2000/svg"><path d="m245 0c-66.425781 0-126.664062 26.445312-170.792969 69.371094l-49.898437 282.148437c39.628906 81.953125 123.558594 138.484375 220.691406 138.484375 135.3125 0 245.003906-109.691406 245.003906-245.003906 0-135.308594-109.691406-245-245.003906-245zm0 0" fill="#60d882"/><path d="m76.617188 67.046875h401.355468c18.714844 0 34.027344 15.3125 34.027344 34.027344v219.386719c0 18.714843-15.3125 34.027343-34.027344 34.027343h-17.507812v-108.179687c0-7.445313-6.089844-13.535156-13.535156-13.535156h-110.148438c-7.445312 0-13.535156 6.09375-13.535156 13.535156v33.046875h-283.324219c-7.75 0-14.039063 6.289062-14.039063 14.039062v61.09375h-.097656c-16.492187-32.953125-25.785156-70.132812-25.785156-109.488281 0-70.089844 29.4375-133.296875 76.617188-177.953125zm0 0" fill="#406bcc"/><path d="m122.695312 101.074219c0-18.714844 15.3125-34.027344 34.027344-34.027344h-80.105468c-47.179688 44.65625-76.617188 107.863281-76.617188 177.953125 0 39.355469 9.292969 76.535156 25.785156 109.488281h.097656v-61.089843c0-7.753907 6.289063-14.039063 14.039063-14.039063h82.773437zm0 0" fill="#284cb2"/><path d="m39.492188 277.925781h13.402343c0 8.410157 4.5625 12.972657 12.972657 12.972657h257.378906v32.078124h-299.402344v-29.398437c0-8.644531 7.007812-15.652344 15.648438-15.652344zm0 0" fill="#55f3ff"/><path d="m122.695312 290.898438c-30.011718 0-51.539062 0-56.828124 0-8.410157 0-12.972657-4.558594-12.972657-12.96875h-13.402343c-8.640626 0-15.648438 7.003906-15.648438 15.648437v29.398437h98.851562zm0 0" fill="#06daf7"/><path d="m23.84375 350.539062v-29.265624h299.402344v33.214843h-297.460938c-.65625-1.3125-1.308594-2.625-1.941406-3.949219zm0 0" fill="#06daf7"/><path d="m122.695312 321.273438h-98.851562v29.265624c.632812 1.324219 1.285156 2.636719 1.941406 3.949219h96.910156zm0 0" fill="#05b8e2"/><path d="m65.867188 262.699219h257.378906v30.457031c-99.507813 0-242.519532 0-257.378906 0-8.410157 0-15.226563-6.816406-15.226563-15.226562 0-8.414063 6.816406-15.230469 15.226563-15.230469zm0 0" fill="#284cb2"/><path d="m106.085938 277.929688c0-8.410157 6.816406-15.230469 15.226562-15.230469-29.289062 0-50.238281 0-55.449219 0-8.410156 0-15.226562 6.820312-15.226562 15.230469 0 8.410156 6.816406 15.226562 15.226562 15.226562h55.449219c-8.410156 0-15.226562-6.820312-15.226562-15.226562zm0 0" fill="#1d3ba8"/><path d="m23.84375 164.652344v-25.191406c4.144531-8.671876 8.792969-17.058594 13.890625-25.132813h36.429687c4.519532 0 8.214844 3.699219 8.214844 8.21875v42.105469c0 4.519531-3.695312 8.214844-8.214844 8.214844h-42.105468c-4.519532 0-8.214844-3.699219-8.214844-8.214844zm0 0" fill="#f95d95"/><path d="m47.699219 209.242188h10.828125c4.671875 0 8.457031-3.789063 8.457031-8.460938s-3.785156-8.460938-8.457031-8.460938h-10.828125c-4.671875 0-8.460938 3.789063-8.460938 8.460938s3.789063 8.460938 8.460938 8.460938zm0 0" fill="#122894"/><path d="m47.699219 236.6875h10.828125c4.671875 0 8.457031-3.785156 8.457031-8.457031 0-4.675781-3.785156-8.460938-8.457031-8.460938h-10.828125c-4.671875 0-8.460938 3.785157-8.460938 8.460938 0 4.671875 3.789063 8.457031 8.460938 8.457031zm0 0" fill="#122894"/><g fill="#d6eafc"><path d="m74.800781 432.394531c-4.671875 0-8.460937-3.785156-8.460937-8.457031 0-6.414062-6.765625-8.449219-6.765625-21.148438 0-7.761718 2.726562-12.023437 4.714843-15.136718 1.453126-2.261719 2.050782-3.199219 2.050782-6.011719 0-4.671875 3.789062-8.460937 8.460937-8.460937s8.460938 3.789062 8.460938 8.460937c0 15.792969-11.496094 16.570313-4.71875 27.160156 1.988281 3.113281 4.71875 7.371094 4.71875 15.136719 0 4.671875-3.789063 8.457031-8.460938 8.457031zm0 0"/><path d="m160.289062 432.394531c-4.675781 0-8.460937-3.785156-8.460937-8.457031 0-2.8125-.601563-3.75-2.050781-6.015625-1.992188-3.109375-4.71875-7.371094-4.71875-15.132813 0-12.558593 6.769531-14.808593 6.769531-21.148437 0-4.671875 3.785156-8.460937 8.460937-8.460937 4.671876 0 8.457032 3.789062 8.457032 8.460937 0 15.792969-11.496094 16.570313-4.714844 27.160156 1.988281 3.113281 4.714844 7.371094 4.714844 15.136719 0 4.671875-3.785156 8.457031-8.457032 8.457031zm0 0"/><path d="m245.773438 432.394531c-4.671876 0-8.460938-3.785156-8.460938-8.457031 0-2.8125-.597656-3.75-2.046875-6.015625-1.992187-3.109375-4.71875-7.371094-4.71875-15.132813 0-12.558593 6.765625-14.808593 6.765625-21.148437 0-4.671875 3.789062-8.460937 8.460938-8.460937 4.671874 0 8.460937 3.789062 8.460937 8.460937 0 15.792969-11.496094 16.570313-4.71875 27.160156 1.992187 3.113281 4.71875 7.371094 4.71875 15.136719 0 4.671875-3.789063 8.457031-8.460937 8.457031zm0 0"/></g><path d="m127.335938 152.058594h137.398437c4.671875 0 8.460937-3.789063 8.460937-8.460938s-3.789062-8.460937-8.460937-8.460937h-137.398437c-4.675782 0-8.460938 3.789062-8.460938 8.460937s3.785156 8.460938 8.460938 8.460938zm0 0" fill="#97cbef"/><path d="m467.136719 169.402344c3.167969-5.363282 1.386719-12.28125-3.980469-15.445313-22.515625-13.292969-48.828125-13.308593-71.375 0-5.363281 3.164063-7.144531 10.082031-3.976562 15.445313 3.164062 5.363281 10.078124 7.148437 15.449218 3.980468 15.421875-9.105468 32.980469-9.125 48.433594 0 5.363281 3.167969 12.28125 1.386719 15.449219-3.980468zm0 0" fill="#55f3ff"/><path d="m380.945312 140.519531c29.207032-19.867187 63.808594-19.886719 93.046876-.003906 5.148437 3.503906 12.167968 2.167969 15.667968-2.984375 3.503906-5.148438 2.167969-12.164062-2.980468-15.667969-36.785157-25.015625-81.570313-25.0625-118.421876.003907-5.152343 3.5-6.488281 10.515624-2.984374 15.667968 3.496093 5.144532 10.511718 6.492188 15.671874 2.984375zm0 0" fill="#55f3ff"/><path d="m412.242188 231.648438v-21.984376c0-8.410156 6.816406-15.226562 15.226562-15.226562s15.226562 6.816406 15.226562 15.226562v21.984376zm0 0" fill="#b7dbf6"/><path d="m427.46875 222.898438c-8.074219 0-14.664062-6.289063-15.179688-14.234376-.019531.332032-.046874.660157-.046874 1v21.984376h30.453124v-21.984376c0-.339843-.027343-.667968-.050781-1-.515625 7.945313-7.101562 14.234376-15.175781 14.234376zm0 0" fill="#97cbef"/><path d="m333.398438 490.003906h116.914062c7.445312 0 13.535156-6.09375 13.535156-13.535156v-233.542969c0-7.445312-6.089844-13.535156-13.535156-13.535156h-116.914062c-7.445313 0-13.535157 6.089844-13.535157 13.535156v233.542969c0 7.441406 6.089844 13.535156 13.535157 13.535156zm0 0" fill="#d6eafc"/><path d="m373.570312 452.335938c0-16.511719 10.351563-30.59375 24.914063-36.140626v-23.296874c-19.273437-2.199219-34.246094-18.550782-34.246094-38.410157s14.972657-36.214843 34.246094-38.410156v-12.878906c-14.5625-5.546875-24.914063-19.628907-24.914063-36.140625 0-18.355469 12.792969-33.710938 29.949219-37.667969h-70.121093c-7.445313 0-13.535157 6.09375-13.535157 13.539063v233.539062c0 7.441406 6.089844 13.535156 13.535157 13.535156h70.121093c-17.152343-3.957031-29.949219-19.316406-29.949219-37.667968zm0 0" fill="#b7dbf6"/><path d="m378.394531 333.398438 13.460938-13.460938 13.460937 13.460938c5.066406 5.066406 13.285156 5.066406 18.351563 0 5.066406-5.070313 5.066406-13.285157 0-18.351563l-22.636719-22.636719c-5.066406-5.0625-13.285156-5.0625-18.351562 0l-22.632813 22.636719c-5.070313 5.070313-5.070313 13.285156 0 18.351563 5.066406 5.066406 13.28125 5.066406 18.347656 0zm0 0" fill="#406bcc"/><path d="m401.03125 416.847656 22.636719-22.636718c5.066406-5.066407 5.066406-13.28125 0-18.347657-5.066407-5.066406-13.285157-5.066406-18.351563 0l-13.460937 13.460938-13.460938-13.460938c-5.066406-5.066406-13.285156-5.066406-18.347656 0-5.070313 5.066407-5.070313 13.28125 0 18.347657l22.632813 22.636718c5.066406 5.066406 13.285156 5.066406 18.351562 0zm0 0" fill="#406bcc"/><path d="m355.027344 268.613281c6.214844 0 11.265625-5.0625 11.265625-11.28125 0-5.320312-3.714844-9.96875-9.070313-11.054687-6.792968-1.378906-13.488281 3.804687-13.488281 11.054687 0 6.195313 5.039063 11.28125 11.292969 11.28125zm0 0" fill="#f95d95"/><path d="m420.136719 155.257812c0-5.191406 3.148437-9.402343 7.402343-11.277343-12.230468-.011719-24.464843 3.3125-35.757812 9.976562-5.363281 3.167969-7.144531 10.082031-3.976562 15.449219 3.164062 5.359375 10.078124 7.148438 15.449218 3.976562 7.730469-4.5625 15.996094-6.84375 24.265625-6.832031-4.351562-1.921875-7.382812-6.269531-7.382812-11.292969zm0 0" fill="#06daf7"/><path d="m420.136719 114.421875c0-5.246094 3.210937-9.492187 7.535156-11.335937-20.457031-.039063-40.933594 6.210937-59.414063 18.78125-5.152343 3.5-6.488281 10.515624-2.984374 15.667968 3.496093 5.144532 10.511718 6.492188 15.671874 2.984375 14.5625-9.90625 30.460938-14.875 46.371094-14.90625-4.242187-1.960937-7.179687-6.25-7.179687-11.191406zm0 0" fill="#06daf7"/><path d="m47.328125 164.847656c0-5.425781 4.398437-9.828125 9.828125-9.828125v-22.84375c-5.425781 0-9.828125-4.398437-9.828125-9.828125 0-3.3125 1.644531-6.238281 4.15625-8.019531h-13.75c-5.097656 8.074219-9.746094 16.460937-13.890625 25.132813v25.191406c0 4.519531 3.695312 8.214844 8.214844 8.214844h19.425781c-2.511719-1.78125-4.15625-4.707032-4.15625-8.019532zm0 0" fill="#e5387f"/><path d="m67.089844 143.597656c0 7.71875-6.257813 13.976563-13.976563 13.976563s-13.976562-6.257813-13.976562-13.976563 6.257812-13.976562 13.976562-13.976562 13.976563 6.257812 13.976563 13.976562zm0 0" fill="#d32976"/></svg>