<svg height="512pt" viewBox="-8 0 511 512" width="512pt" xmlns="http://www.w3.org/2000/svg"><path d="m456.847656 395.910156c23.207032-37.441406 36.617188-81.59375 36.617188-128.882812 0-135.324219-109.703125-245.027344-245.03125-245.027344-135.324219 0-245.027344 109.703125-245.027344 245.027344 0 47.289062 13.410156 91.441406 36.613281 128.882812zm0 0" fill="#ef4a8a"/><path d="m457.398438 252.320312-208.964844-208.960937-208.960938 208.960937v142.710938c22.90625 37.320312 55.53125 68.019531 94.347656 88.601562h229.230469c38.816407-20.582031 71.441407-51.28125 94.347657-88.601562zm0 0" fill="#d6eafc"/><path d="m86.667969 292.558594c0-13.550782 5.382812-26.546875 14.964843-36.128906l179.933594-179.9375-33.132812-33.132813-208.960938 208.960937v142.710938c12.871094 20.96875 28.8125 39.847656 47.195313 56.019531zm0 0" fill="#b7dbf6"/><path d="m347.660156 262.4375c-31.644531-54.804688-101.71875-73.578125-156.523437-41.9375-54.804688 31.640625-73.578125 101.71875-41.9375 156.523438 31.640625 54.800781 101.71875 73.578124 156.519531 41.9375 54.804688-31.644532 73.582031-101.71875 41.941406-156.523438zm0 0" fill="#f95d95"/><path d="m233.121094 419.394531c0-10.523437 8.410156-19.066406 18.875-19.3125v-23.542969c-10.734375-1.949218-18.875-11.34375-18.875-22.640624 0-11.300782 8.140625-20.691407 18.875-22.640626v-90.070312c-10.464844-.246094-18.875-8.789062-18.875-19.3125 0-7.058594 3.792968-13.21875 9.441406-16.59375-17.546875.886719-35.15625 5.835938-51.417969 15.226562-54.804687 31.640626-73.582031 101.71875-41.941406 156.523438 19.660156 34.050781 54.15625 54.1875 90.609375 56.972656-4.09375-3.546875-6.691406-8.769531-6.691406-14.609375zm0 0" fill="#e5387f"/><path d="m367.175781 481.394531c-70.953125-.015625-166.757812-.042969-237.59375-.0625 33.933594 18.859375 72.8125 29.894531 114.203125 30.664063 3.035156.003906 6.074219.003906 9.109375.003906 41.414063-.738281 80.320313-11.753906 114.28125-30.605469zm0 0" fill="#60d882"/><path d="m232.535156 481.359375c-36.316406-.007813-72.015625-.019531-102.953125-.027344 30.605469 17.011719 65.234375 27.652344 102.101563 30.140625-13.707032-4.832031-13.101563-25.957031.851562-30.113281zm0 0" fill="#37c47a"/><path d="m139.886719 108.304688v-50.917969h-61.269531v112.1875zm0 0" fill="#284cb2"/><path d="m130.914062 98.277344c-19.296874 19.296875-52.296874 5.628906-52.296874-21.664063v92.960938l61.269531-61.269531v-31.691407c0 8.125-3.226563 15.917969-8.972657 21.664063zm0 0" fill="#1d3ba8"/><path d="m5.484375 264.507812c-6.644531-6.644531-6.644531-17.421874 0-24.066406l230.914063-230.917968c3.191406-3.191407 7.523437-4.984376 12.035156-4.984376 4.515625 0 8.84375 1.792969 12.035156 4.984376l230.917969 230.917968c6.644531 6.644532 6.644531 17.421875 0 24.066406-6.648438 6.648438-17.425781 6.648438-24.070313 0l-218.882812-218.878906-218.878906 218.878906c-6.644532 6.648438-17.421876 6.648438-24.070313 0zm0 0" fill="#406bcc"/><path d="m145.023438 29.019531h-71.539063c-2.214844 0-4.007813 1.792969-4.007813 4.007813v22.621094c0 2.214843 1.792969 4.007812 4.007813 4.007812h71.539063c2.214843 0 4.007812-1.792969 4.007812-4.007812v-22.621094c0-2.214844-1.792969-4.007813-4.007812-4.007813zm0 0" fill="#5488e2"/><path d="m109.253906 55.648438v-22.621094c0-2.214844 1.792969-4.007813 4.007813-4.007813h-39.777344c-2.214844 0-4.007813 1.792969-4.007813 4.007813v22.621094c0 2.214843 1.792969 4.007812 4.007813 4.007812h39.773437c-2.210937 0-4.003906-1.792969-4.003906-4.007812zm0 0" fill="#406bcc"/><path d="m260.191406 129.3125h-23.511718c-1.96875 0-3.5625 1.597656-3.5625 3.5625v23.511719c0 1.96875 1.59375 3.5625 3.5625 3.5625h23.511718c1.96875 0 3.5625-1.59375 3.5625-3.5625v-23.511719c0-1.964844-1.59375-3.5625-3.5625-3.5625zm0 0" fill="#06daf7"/><path d="m248.4375 156.386719v-23.511719c0-1.96875 1.59375-3.5625 3.558594-3.5625h-15.316406c-1.96875 0-3.5625 1.59375-3.5625 3.5625v23.511719c0 1.96875 1.59375 3.5625 3.5625 3.5625h15.316406c-1.964844 0-3.558594-1.59375-3.558594-3.5625zm0 0" fill="#05b8e2"/><path d="m303.972656 53.027344-43.503906-43.503906c-3.191406-3.191407-7.519531-4.984376-12.035156-4.984376-4.511719 0-8.839844 1.792969-12.035156 4.984376l-230.914063 230.917968c-6.644531 6.644532-6.644531 17.421875 0 24.066406 6.648437 6.648438 17.425781 6.648438 24.070313 0l218.878906-218.878906 31.949218 31.945313c-6.851562-15.078125 8.3125-30.761719 23.589844-24.546875zm0 0" fill="#284cb2"/><path d="m248.433594 69.007812c-8.457032 0-15.316406-6.859374-15.316406-15.320312v-38.371094c0-8.457031 6.859374-15.316406 15.316406-15.316406 8.460937 0 15.320312 6.859375 15.320312 15.316406v38.375c0 8.457032-6.859375 15.316406-15.320312 15.316406zm0 0" fill="#284cb2"/><path d="m248.433594 39.042969c-8.457032 0-15.316406-6.859375-15.316406-15.320313v29.96875c0 8.457032 6.859374 15.316406 15.316406 15.316406 8.460937 0 15.320312-6.859374 15.320312-15.316406v-29.964844c0 8.457032-6.859375 15.316407-15.320312 15.316407zm0 0" fill="#1d3ba8"/><path d="m248.433594 403.914062c-46.683594 0-84.667969-37.980468-84.667969-84.667968 0-24.386719 10.542969-47.605469 28.921875-63.703125 6.363281-5.574219 16.042969-4.933594 21.617188 1.433593 5.574218 6.363282 4.929687 16.039063-1.433594 21.613282-11.738282 10.28125-18.46875 25.097656-18.46875 40.65625 0 29.792968 24.238281 54.03125 54.03125 54.03125 29.792968 0 54.035156-24.238282 54.035156-54.03125 0-15.558594-6.734375-30.378906-18.46875-40.652344-6.367188-5.574219-7.007812-15.253906-1.4375-21.617188 5.574219-6.367187 15.253906-7.007812 21.617188-1.433593 18.382812 16.09375 28.921874 39.3125 28.921874 63.703125 0 46.683594-37.980468 84.667968-84.667968 84.667968zm0 0" fill="#d6eafc"/><path d="m273.71875 366.976562c-7.550781 4.015626-16.152344 6.300782-25.285156 6.300782-29.792969 0-54.03125-24.238282-54.03125-54.03125 0-15.558594 6.730468-30.378906 18.46875-40.65625 6.363281-5.574219 7.007812-15.25 1.433594-21.617188-5.574219-6.363281-15.25-7.003906-21.617188-1.433594-18.378906 16.097657-28.921875 39.316407-28.921875 63.703126 0 46.6875 37.984375 84.667968 84.667969 84.667968 15.050781 0 29.1875-3.964844 41.445312-10.878906-14.835937 2.585938-24.871094-14.21875-16.160156-26.054688zm0 0" fill="#b7dbf6"/><path d="m248.4375 334.5625c-8.460938 0-15.320312-6.859375-15.320312-15.316406v-69.351563c0-8.460937 6.859374-15.320312 15.320312-15.320312 8.457031 0 15.316406 6.859375 15.316406 15.320312v69.351563c0 8.457031-6.859375 15.316406-15.316406 15.316406zm0 0" fill="#d6eafc"/><path d="m248.4375 291.707031c-8.460938 0-15.320312-6.855469-15.320312-15.316406v42.851563c0 8.460937 6.859374 15.320312 15.320312 15.320312 8.457031 0 15.316406-6.859375 15.316406-15.320312v-42.851563c0 8.460937-6.859375 15.316406-15.316406 15.316406zm0 0" fill="#b7dbf6"/></svg>