<svg height="511pt" viewBox="0 -10 511.99923 511" width="511pt" xmlns="http://www.w3.org/2000/svg"><path d="m18.101562 304.234375c26.316407 106.941406 122.835938 186.265625 237.898438 186.265625s211.582031-79.324219 237.898438-186.265625zm0 0" fill="#60d882"/><path d="m323.21875 304.234375h-305.117188c26.316407 106.941406 122.835938 186.265625 237.898438 186.265625 13.894531 0 27.511719-1.164062 40.773438-3.386719-98.273438-24.679687-86.507813-182.878906 26.445312-182.878906zm0 0" fill="#37c47a"/><path d="m256 .5c-135.308594 0-245 109.691406-245 245 0 20.246094 2.472656 39.914062 7.101562 58.734375h475.796876c4.628906-18.820313 7.101562-38.488281 7.101562-58.734375 0-135.308594-109.691406-245-245-245zm0 0" fill="#06daf7"/><g fill="#1d3ba8"><path d="m111.273438 443.1875c3.878906 2.84375 7.835937 5.578125 11.882812 8.195312h9.453125c0-39.011718 0-35.3125 0-67.902343h-21.335937zm0 0"/><path d="m379.390625 451.382812h9.453125c4.046875-2.617187 8.003906-5.351562 11.882812-8.195312 0-30.460938 0-29.597656 0-59.707031h-21.335937zm0 0"/><path d="m265.019531 451.382812c0-39.011718 0-35.3125 0-67.902343h-21.335937v67.902343zm0 0"/></g><path d="m111.273438 383.480469v39.417969c0-5.890626 4.777343-10.667969 10.667968-10.667969s10.667969 4.777343 10.667969 10.667969c0-12.328126 0-18.136719 0-39.417969zm0 0" fill="#122894"/><path d="m379.390625 383.480469v39.417969c0-5.890626 4.773437-10.667969 10.667969-10.667969 5.890625 0 10.667968 4.777343 10.667968 10.667969 0-12.324219 0-18.144532 0-39.417969zm0 0" fill="#122894"/><path d="m243.683594 383.480469v39.417969c0-5.890626 4.777344-10.667969 10.667968-10.667969 5.894532 0 10.667969 4.777343 10.667969 10.667969 0-12.328126 0-18.136719 0-39.417969zm0 0" fill="#122894"/><path d="m399.363281 444.179688c-52.703125 0-234.019531 0-286.726562 0 11.089843 8.015624 22.875 15.125 35.25 21.222656h216.226562c12.375-6.097656 24.160157-13.207032 35.25-21.222656zm0 0" fill="#284cb2"/><path d="m229.425781 444.179688c-48.976562 0-94.441406 0-116.789062 0 11.089843 8.015624 22.875 15.125 35.25 21.222656h81.910156c-1.640625 0-3.265625-.375-4.730469-1.117188-10.582031-5.347656-6.527344-20.105468 4.359375-20.105468zm0 0" fill="#1d3ba8"/><path d="m307.222656 485.121094c9.613282-2.042969 19.023438-4.648438 28.1875-7.785156 0-36.019532 0-71.152344 0-93.851563h-28.1875zm0 0" fill="#406bcc"/><path d="m176.589844 477.335938c9.164062 3.136718 18.570312 5.742187 28.1875 7.785156 0-38.6875 0-77.304688 0-101.640625h-28.1875zm0 0" fill="#406bcc"/><path d="m307.222656 383.480469v38.621093c0-7.707031 6.246094-13.953124 13.953125-13.953124h.28125c7.707031 0 13.953125 6.246093 13.953125 13.953124 0-14.789062 0-28.050781 0-38.621093zm0 0" fill="#284cb2"/><path d="m176.589844 383.480469v38.621093c0-7.707031 6.246094-13.953124 13.953125-13.953124h.28125c7.707031 0 13.953125 6.246093 13.953125 13.953124 0-14.789062 0-28.050781 0-38.621093zm0 0" fill="#284cb2"/><path d="m401.570312 58.5h-291.144531c-16.746093 0-31.683593 11.402344-36.332031 27.726562l-72.582031 254.949219c-3.328125 11.695313-1.101563 23.984375 6.109375 33.714844 7.210937 9.730469 18.226562 15.3125 30.222656 15.3125h436.308594c12 0 23.015625-5.582031 30.226562-15.308594 7.210938-9.730469 9.4375-22.019531 6.109375-33.71875l-72.582031-254.949219c-4.648438-16.324218-19.589844-27.726562-36.335938-27.726562zm0 0" fill="#d6eafc"/><path d="m210.984375 358.382812 18.082031-268.386718c-14.765625-4.394532-16.5-24.671875-2.625-31.496094h-116.015625c-16.746093 0-31.683593 11.402344-36.332031 27.726562l-72.582031 254.949219c-6.984375 24.527344 11.113281 49.027344 36.332031 49.027344h166.746094c-14.695313-7.988281-10.128906-30.175781 6.394531-31.820313zm0 0" fill="#b7dbf6"/><path d="m427.910156 160.140625-18.382812-64.578125c-1.441406-5.050781-5.996094-8.527344-11.175782-8.527344h-46.773437l13.164063 73.105469zm0 0" fill="#284cb2"/><path d="m480.5 344.871094-27.429688-96.355469h-72.410156l20.066406 111.433594h68.601563c7.742187 0 13.320313-7.53125 11.171875-15.078125zm0 0" fill="#284cb2"/><path d="m298.484375 248.515625 6.839844 111.433594h95.402343l-20.066406-111.433594zm0 0" fill="#406bcc"/><path d="m213.515625 248.515625h-82.175781l-20.066406 111.433594h95.402343zm0 0" fill="#1d3ba8"/><path d="m364.742188 160.140625-13.164063-73.105469h-63.003906l4.488281 73.105469zm0 0" fill="#406bcc"/><path d="m218.9375 160.140625 4.488281-73.105469h-63.003906l-13.167969 73.105469zm0 0" fill="#1d3ba8"/><path d="m293.0625 160.140625-4.488281-73.105469h-65.148438l-4.488281 73.105469zm0 0" fill="#284cb2"/><path d="m206.675781 359.949219h98.648438l-6.839844-111.433594h-84.96875zm0 0" fill="#284cb2"/><path d="m84.089844 160.140625-25.160156 88.375h72.410156l15.914062-88.375zm0 0" fill="#1d3ba8"/><path d="m380.660156 248.515625h72.410156l-25.160156-88.375h-63.167968zm0 0" fill="#406bcc"/><path d="m147.253906 160.140625-15.914062 88.375h82.175781l5.421875-88.375zm0 0" fill="#122894"/><path d="m293.0625 160.140625 5.421875 88.375h82.175781l-15.917968-88.375zm0 0" fill="#284cb2"/><path d="m218.9375 160.140625-5.421875 88.375h84.96875l-5.421875-88.375zm0 0" fill="#406bcc"/><path d="m84.089844 160.140625h63.164062l13.167969-73.105469h-46.773437c-5.179688 0-9.734376 3.476563-11.171876 8.527344zm0 0" fill="#122894"/><path d="m58.929688 248.515625-27.429688 96.355469c-2.148438 7.546875 3.429688 15.078125 11.171875 15.078125h68.601563l20.066406-111.433594zm0 0" fill="#122894"/></svg>