<svg height="512pt" viewBox="-8 0 511 512" width="512pt" xmlns="http://www.w3.org/2000/svg"><path d="m456.773438 396.03125c23.25-37.46875 36.691406-81.664062 36.691406-129.003906 0-135.324219-109.703125-245.027344-245.03125-245.027344-135.324219 0-245.027344 109.703125-245.027344 245.027344 0 47.339844 13.441406 91.535156 36.691406 129.003906zm0 0" fill="#06daf7"/><path d="m457.398438 252.320312-208.964844-208.960937-208.960938 208.960937v142.710938c22.90625 37.320312 55.53125 68.019531 94.347656 88.601562h229.230469c38.816407-20.582031 71.441407-51.28125 94.347657-88.601562zm0 0" fill="#d6eafc"/><path d="m86.667969 292.558594c0-13.550782 5.382812-26.546875 14.964843-36.128906l179.933594-179.9375-33.132812-33.132813-208.960938 208.960937v142.710938c12.871094 20.96875 28.8125 39.847656 47.195313 56.019531zm0 0" fill="#b7dbf6"/><path d="m139.886719 108.304688v-50.917969h-61.269531v112.1875zm0 0" fill="#284cb2"/><path d="m130.914062 98.277344c-19.296874 19.296875-52.296874 5.628906-52.296874-21.664063v92.960938l61.269531-61.269531v-31.691407c0 8.125-3.226563 15.917969-8.972657 21.664063zm0 0" fill="#1d3ba8"/><path d="m5.484375 264.507812c-6.644531-6.644531-6.644531-17.421874 0-24.066406l230.914063-230.917968c3.191406-3.191407 7.523437-4.984376 12.035156-4.984376 4.515625 0 8.84375 1.792969 12.035156 4.984376l230.917969 230.917968c6.644531 6.644532 6.644531 17.421875 0 24.066406-6.648438 6.648438-17.425781 6.648438-24.070313 0l-218.882812-218.878906-218.878906 218.878906c-6.644532 6.648438-17.421876 6.648438-24.070313 0zm0 0" fill="#406bcc"/><path d="m145.023438 29.019531h-71.539063c-2.214844 0-4.007813 1.792969-4.007813 4.007813v22.621094c0 2.214843 1.792969 4.007812 4.007813 4.007812h71.539063c2.214843 0 4.007812-1.792969 4.007812-4.007812v-22.621094c0-2.214844-1.792969-4.007813-4.007812-4.007813zm0 0" fill="#5488e2"/><path d="m109.253906 55.648438v-22.621094c0-2.214844 1.792969-4.007813 4.007813-4.007813h-39.777344c-2.214844 0-4.007813 1.792969-4.007813 4.007813v22.621094c0 2.214843 1.792969 4.007812 4.007813 4.007812h39.773437c-2.210937 0-4.003906-1.792969-4.003906-4.007812zm0 0" fill="#406bcc"/><path d="m260.191406 129.3125h-23.511718c-1.96875 0-3.5625 1.597656-3.5625 3.5625v23.511719c0 1.96875 1.59375 3.5625 3.5625 3.5625h23.511718c1.96875 0 3.5625-1.59375 3.5625-3.5625v-23.511719c0-1.964844-1.59375-3.5625-3.5625-3.5625zm0 0" fill="#06daf7"/><path d="m248.433594 156.386719v-23.511719c0-1.96875 1.597656-3.5625 3.5625-3.5625h-15.316406c-1.96875 0-3.5625 1.59375-3.5625 3.5625v23.511719c0 1.96875 1.59375 3.5625 3.5625 3.5625h15.316406c-1.964844 0-3.5625-1.59375-3.5625-3.5625zm0 0" fill="#05b8e2"/><path d="m303.972656 53.027344-43.503906-43.503906c-3.191406-3.191407-7.519531-4.984376-12.035156-4.984376-4.511719 0-8.84375 1.792969-12.035156 4.984376l-230.914063 230.917968c-6.644531 6.644532-6.644531 17.421875 0 24.066406 6.648437 6.648438 17.425781 6.648438 24.070313 0l218.878906-218.878906 31.949218 31.945313c-6.851562-15.078125 8.3125-30.761719 23.589844-24.546875zm0 0" fill="#284cb2"/><path d="m248.433594 69.007812c-8.457032 0-15.316406-6.859374-15.316406-15.320312v-38.371094c0-8.457031 6.859374-15.316406 15.316406-15.316406 8.460937 0 15.320312 6.859375 15.320312 15.316406v38.375c0 8.457032-6.859375 15.316406-15.320312 15.316406zm0 0" fill="#284cb2"/><path d="m248.433594 39.042969c-8.457032 0-15.316406-6.859375-15.316406-15.320313v29.96875c0 8.457032 6.859374 15.316406 15.316406 15.316406 8.460937 0 15.320312-6.859374 15.320312-15.316406v-29.964844c0 8.457032-6.859375 15.316407-15.320312 15.316407zm0 0" fill="#1d3ba8"/><path d="m248.433594 495.398438c-4.699219 0-8.507813-3.808594-8.507813-8.511719v-74.660157c0-4.699218 3.808594-8.507812 8.507813-8.507812 4.703125 0 8.511718 3.808594 8.511718 8.507812v74.660157c0 4.703125-3.808593 8.511719-8.511718 8.511719zm0 0" fill="#06daf7"/><path d="m248.433594 403.71875c-4.699219 0-8.507813 3.808594-8.507813 8.511719v37.753906c0-4.703125 3.808594-8.511719 8.507813-8.511719 4.703125 0 8.511718 3.808594 8.511718 8.511719v-37.753906c0-4.703125-3.808593-8.511719-8.511718-8.511719zm0 0" fill="#05b8e2"/><path d="m263.808594 231.484375h-30.75v-15.375c0-8.492187 6.886718-15.375 15.375-15.375 8.492187 0 15.375 6.882813 15.375 15.375zm0 0" fill="#284cb2"/><path d="m306.136719 267.746094h-115.402344v-26.066406c0-6.1875 5.011719-11.199219 11.195313-11.199219h93.011718c6.183594 0 11.195313 5.011719 11.195313 11.199219zm0 0" fill="#406bcc"/><path d="m256.054688 230.480469h-54.125c-6.183594 0-11.195313 5.011719-11.195313 11.199219v26.066406h54.125v-26.066406c0-6.1875 5.011719-11.199219 11.195313-11.199219zm0 0" fill="#284cb2"/><path d="m190.734375 267.746094h115.402344v37.261718h-115.402344zm0 0" fill="#284cb2"/><path d="m190.734375 305.007812h115.402344v37.265626h-115.402344zm0 0" fill="#f9ce00"/><path d="m190.734375 342.273438h115.402344v37.261718h-115.402344zm0 0" fill="#f4b500"/><path d="m190.734375 267.746094h54.125v37.261718h-54.125zm0 0" fill="#1d3ba8"/><path d="m190.734375 305.007812h54.125v37.265626h-54.125zm0 0" fill="#f4b500"/><path d="m190.734375 342.273438h54.125v37.261718h-54.125zm0 0" fill="#f29b00"/><path d="m294.941406 416.800781h-93.011718c-6.183594 0-11.195313-5.011719-11.195313-11.195312v-26.070313h115.402344v26.070313c0 6.183593-5.011719 11.195312-11.195313 11.195312zm0 0" fill="#f9ce00"/><path d="m244.859375 405.605469v-26.070313h-54.125v26.070313c0 6.183593 5.011719 11.195312 11.195313 11.195312h54.125c-6.183594 0-11.195313-5.011719-11.195313-11.195312zm0 0" fill="#f4b500"/><path d="m265.457031 315.132812h-20.597656l11.269531-23.820312c2.007813-4.246094.195313-9.320312-4.050781-11.332031-4.25-2.007813-9.324219-.195313-11.332031 4.054687l-17.019532 35.964844c-2.648437 5.707031 1.496094 12.152344 7.691407 12.152344h20.597656l-11.269531 23.816406c-2.011719 4.246094-.199219 9.320312 4.050781 11.332031 4.257813 2.011719 9.324219.1875 11.332031-4.054687l17.019532-35.964844c2.703124-5.804688-1.613282-12.148438-7.691407-12.148438zm0 0" fill="#d6eafc"/><path d="m367.175781 481.394531c-70.953125-.015625-166.757812-.042969-237.59375-.0625 33.933594 18.859375 72.8125 29.894531 114.203125 30.664063 3.035156.003906 6.074219.003906 9.109375.003906 41.414063-.738281 80.320313-11.753906 114.28125-30.605469zm0 0" fill="#60d882"/><path d="m232.535156 481.359375c-36.316406-.007813-72.015625-.019531-102.953125-.027344 30.605469 17.011719 65.234375 27.652344 102.101563 30.140625-13.707032-4.832031-13.101563-25.957031.851562-30.113281zm0 0" fill="#37c47a"/><path d="m247.910156 324.632812c0-4.390624 2.808594-8.113281 6.722656-9.5h-9.773437l11.269531-23.820312c2.007813-4.246094.195313-9.320312-4.050781-11.332031-4.25-2.007813-9.324219-.195313-11.332031 4.054687l-17.023438 35.964844c-2.644531 5.707031 1.5 12.152344 7.695313 12.152344h19.867187c-2.066406-1.847656-3.375-4.527344-3.375-7.519532zm0 0" fill="#b7dbf6"/></svg>