<svg height="512pt" viewBox="0 -11 512 512" width="512pt" xmlns="http://www.w3.org/2000/svg"><path d="m512 245c0 135.3125-109.691406 245.003906-245 245.003906-135.3125 0-245.003906-109.691406-245.003906-245.003906 0-135.308594 109.691406-245 245.003906-245 135.308594 0 245 109.691406 245 245zm0 0" fill="#ef4a8a"/><path d="m450.679688 245.007812c-8.300782 0-15.03125-6.730468-15.03125-15.03125v-102.449218c0-8.304688 6.730468-15.035156 15.03125-15.035156 8.304687 0 15.035156 6.730468 15.035156 15.035156v102.449218c0 8.300782-6.730469 15.03125-15.035156 15.03125zm0 0" fill="#284cb2"/><path d="m450.679688 186.960938c-8.300782 0-15.03125-6.730469-15.03125-15.035157v58.050781c0 8.300782 6.730468 15.03125 15.03125 15.03125 8.304687 0 15.035156-6.730468 15.035156-15.03125v-58.050781c0 8.300781-6.730469 15.035157-15.035156 15.035157zm0 0" fill="#1d3ba8"/><path d="m268.585938 391.472656c4.355468 0 8.507812.855469 12.304687 2.402344v-40.949219h-38.972656v52.351563c5.917969-8.351563 15.652343-13.804688 26.667969-13.804688zm0 0" fill="#60b4e2"/><path d="m298.152344 410.226562c1.992187 4.226563 3.109375 8.941407 3.109375 13.921876 0 10.0625-4.550781 19.058593-11.707031 25.054687h112.84375c16.71875-11.109375 32-24.210937 45.496093-38.976563zm0 0" fill="#97cbef"/><path d="m232.210938 307.984375v41.972656c0 2.867188 2.328124 5.195313 5.199218 5.195313h25.933594v-47.167969zm0 0" fill="#97cbef"/><path d="m261.40625 307.984375v47.167969h23.9375c2.867188 0 5.195312-2.328125 5.195312-5.195313v-41.96875h-29.132812zm0 0" fill="#b7dbf6"/><path d="m305.132812 295.507812v-16.65625h-87.457031v16.65625c0 8.089844 6.617188 14.707032 14.707031 14.707032h58.042969c8.089844 0 14.707031-6.621094 14.707031-14.707032zm0 0" fill="#d6eafc"/><path d="m249.050781 295.507812v-16.65625h-31.375v16.65625c0 8.089844 6.617188 14.707032 14.707031 14.707032h31.375c-8.085937 0-14.707031-6.621094-14.707031-14.707032zm0 0" fill="#b7dbf6"/><path d="m27.839844 133.652344h64.863281v90.199218h-64.863281zm0 0" fill="#b7dbf6"/><path d="m79.394531 179.828125c-8.085937 0-14.648437-6.511719-14.738281-14.578125h-8.628906c-.089844 8.066406-6.648438 14.578125-14.738282 14.578125-5.996093 0-11.144531-3.582031-13.449218-8.71875v52.742187h64.863281v-52.449218c-2.367187 4.980468-7.429687 8.425781-13.308594 8.425781zm0 0" fill="#97cbef"/><path d="m15.03125 239.441406c-8.300781 0-15.03125-6.730468-15.03125-15.035156v-91.3125c0-8.300781 6.730469-15.03125 15.03125-15.03125 8.304688 0 15.035156 6.730469 15.035156 15.03125v91.3125c0 8.304688-6.730468 15.035156-15.035156 15.035156zm0 0" fill="#d6eafc"/><path d="m15.03125 186.960938c-8.300781 0-15.03125-6.734376-15.03125-15.035157v52.480469c0 8.304688 6.730469 15.035156 15.03125 15.035156 8.304688 0 15.035156-6.730468 15.035156-15.035156v-52.480469c0 8.300781-6.730468 15.035157-15.035156 15.035157zm0 0" fill="#b7dbf6"/><path d="m60.273438 232.203125c-4.613282 0-8.351563-3.738281-8.351563-8.351563v-90.199218c0-4.613282 3.738281-8.351563 8.351563-8.351563 4.613281 0 8.351562 3.738281 8.351562 8.351563v90.199218c-.003906 4.613282-3.738281 8.351563-8.351562 8.351563zm0 0" fill="#97cbef"/><path d="m60.273438 183.695312c-4.613282 0-8.351563-3.738281-8.351563-8.351562v48.507812c0 4.613282 3.738281 8.351563 8.351563 8.351563 4.613281 0 8.351562-3.738281 8.351562-8.351563v-48.507812c-.003906 4.609375-3.738281 8.351562-8.351562 8.351562zm0 0" fill="#60b4e2"/><path d="m427.050781 93.734375-19.421875 28.355469v140.347656h14.425782c8.089843 0 14.707031-6.617188 14.707031-14.707031v-140.1875c0-6.332031-4.066407-11.75-9.710938-13.808594zm0 0" fill="#1d3ba8"/><path d="m422.054688 186.960938h-14.425782v75.476562h14.425782c8.089843 0 14.707031-6.617188 14.707031-14.707031v-75.476563c0 8.085938-6.617188 14.707032-14.707031 14.707032zm0 0" fill="#122894"/><path d="m389.308594 148.839844c-11.867188 17.324218-31.515625 27.683594-52.515625 27.683594h-53.679688c-10.792969 0-19.539062-8.75-19.539062-19.539063v-49.957031c0-7.835938-6.355469-14.191406-14.191407-14.191406h-158.90625v174.410156c0 7.640625 6.195313 13.832031 13.835938 13.832031h289.480469c7.640625 0 13.835937-6.191406 13.835937-13.832031v-145.15625zm0 0" fill="#1d3ba8"/><path d="m164.0625 257.539062v-139.195312c0-11.582031 7.179688-21.480469 17.328125-25.507812h-90.914063v174.410156c0 7.640625 6.195313 13.832031 13.835938 13.832031h75.484375c-9.234375-3.824219-15.734375-12.921875-15.734375-23.539063zm0 0" fill="#122894"/><path d="m155.714844 138.59375h-25.984375c-4.613281 0-8.351563-3.738281-8.351563-8.351562 0-4.609376 3.738282-8.351563 8.351563-8.351563h25.984375c4.609375 0 8.351562 3.738281 8.351562 8.351563-.003906 4.613281-3.742187 8.351562-8.351562 8.351562zm0 0" fill="#284cb2"/><path d="m443.46875 37.886719h-432.175781c-6.238281 0-11.292969 5.054687-11.292969 11.292969 0 25.339843 20.542969 45.886718 45.886719 45.886718h201.269531c7.835938 0 14.1875 6.351563 14.1875 14.1875v49.957032c0 10.792968 8.75 19.542968 19.542969 19.542968h55.90625c21 0 40.648437-10.359375 52.515625-27.6875l64.320312-93.910156c5.597656-8.171875-.253906-19.269531-10.160156-19.269531zm0 0" fill="#406bcc"/><path d="m325.511719 131.703125c0 9.183594-7.445313 16.625-16.625 16.625-9.179688 0-16.625-7.441406-16.625-16.625 0-9.179687 7.445312-16.625 16.625-16.625 9.179687 0 16.625 7.445313 16.625 16.625zm0 0" fill="#55f3ff"/><path d="m315.472656 135.15625c-5.542968 0-10.035156-4.496094-10.035156-10.039062 0-4.539063 3.011719-8.367188 7.148438-9.609376-1.191407-.269531-2.425782-.425781-3.699219-.425781-9.183594 0-16.625 7.441407-16.625 16.625 0 9.179688 7.445312 16.621094 16.625 16.621094 9.179687 0 16.625-7.441406 16.625-16.621094 0-1.273437-.15625-2.507812-.425781-3.699219-1.242188 4.132813-5.074219 7.148438-9.613282 7.148438zm0 0" fill="#06daf7"/><path d="m160.269531 66.476562c0-12.292968 6.785157-23 16.804688-28.589843h-165.78125c-6.238281 0-11.292969 5.054687-11.292969 11.292969 0 25.339843 20.542969 45.886718 45.886719 45.886718h131.1875c-10.019531-5.59375-16.804688-16.296875-16.804688-28.589844zm0 0" fill="#284cb2"/><path d="m338.117188 429.714844c0-8.402344 4.667968-15.714844 11.550781-19.488282h-51.515625c1.992187 4.226563 3.109375 8.941407 3.109375 13.921876 0 10.0625-4.550781 19.058593-11.707031 25.054687h60.113281c-6.882813-3.773437-11.550781-11.085937-11.550781-19.488281zm0 0" fill="#60b4e2"/><path d="m302.929688 424.148438c0 18.964843-15.378907 34.339843-34.34375 34.339843-18.96875 0-34.34375-15.375-34.34375-34.339843 0-18.96875 15.375-34.34375 34.34375-34.34375 18.964843 0 34.34375 15.375 34.34375 34.34375zm0 0" fill="#d6eafc"/><path d="m279.996094 435.671875c-12.667969 0-22.933594-10.269531-22.933594-22.933594 0-10.902343 7.609375-20.019531 17.800781-22.351562-21.261719-3.933594-40.621093 12.40625-40.621093 33.761719 0 18.964843 15.375 34.339843 34.34375 34.339843 21.367187 0 37.6875-19.371093 33.757812-40.621093-2.328125 10.195312-11.445312 17.804687-22.347656 17.804687zm0 0" fill="#b7dbf6"/></svg>