<svg height="512pt" viewBox="-8 0 511 512" width="512pt" xmlns="http://www.w3.org/2000/svg"><path d="m457.367188 395.085938c22.886718-37.265626 36.097656-81.117188 36.097656-128.058594 0-135.324219-109.703125-245.027344-245.03125-245.027344-135.324219 0-245.027344 109.703125-245.027344 245.027344 0 46.941406 13.210938 90.792968 36.097656 128.058594zm0 0" fill="#06daf7"/><path d="m457.398438 252.320312-208.964844-208.960937-208.960938 208.960937v142.710938c22.90625 37.320312 55.53125 68.019531 94.347656 88.601562h229.230469c38.816407-20.582031 71.441407-51.28125 94.347657-88.601562zm0 0" fill="#d6eafc"/><path d="m86.667969 292.558594c0-13.550782 5.382812-26.546875 14.964843-36.128906l179.933594-179.9375-33.132812-33.132813-208.960938 208.960937v142.710938c12.871094 20.96875 28.8125 39.847656 47.195313 56.019531zm0 0" fill="#b7dbf6"/><path d="m139.886719 108.304688v-50.917969h-61.269531v112.1875zm0 0" fill="#284cb2"/><path d="m130.914062 98.277344c-19.296874 19.296875-52.296874 5.628906-52.296874-21.664063v92.960938l61.269531-61.269531v-31.691407c0 8.125-3.226563 15.917969-8.972657 21.664063zm0 0" fill="#1d3ba8"/><path d="m5.484375 264.507812c-6.644531-6.644531-6.644531-17.421874 0-24.066406l230.914063-230.917968c3.191406-3.191407 7.523437-4.984376 12.035156-4.984376 4.515625 0 8.84375 1.792969 12.035156 4.984376l230.917969 230.917968c6.644531 6.644532 6.644531 17.421875 0 24.066406-6.648438 6.648438-17.425781 6.648438-24.070313 0l-218.882812-218.878906-218.878906 218.878906c-6.644532 6.648438-17.421876 6.648438-24.070313 0zm0 0" fill="#406bcc"/><path d="m145.023438 29.019531h-71.539063c-2.214844 0-4.007813 1.792969-4.007813 4.007813v22.621094c0 2.214843 1.792969 4.007812 4.007813 4.007812h71.539063c2.214843 0 4.007812-1.792969 4.007812-4.007812v-22.621094c0-2.214844-1.792969-4.007813-4.007812-4.007813zm0 0" fill="#5488e2"/><path d="m109.253906 55.648438v-22.621094c0-2.214844 1.792969-4.007813 4.007813-4.007813h-39.777344c-2.214844 0-4.007813 1.792969-4.007813 4.007813v22.621094c0 2.214843 1.792969 4.007812 4.007813 4.007812h39.773437c-2.210937 0-4.003906-1.792969-4.003906-4.007812zm0 0" fill="#406bcc"/><path d="m303.972656 53.027344-43.503906-43.503906c-3.191406-3.191407-7.519531-4.984376-12.035156-4.984376-4.511719 0-8.84375 1.792969-12.035156 4.984376l-230.914063 230.917968c-6.644531 6.644532-6.644531 17.421875 0 24.066406 6.648437 6.648438 17.425781 6.648438 24.070313 0l218.878906-218.878906 31.949218 31.945313c-6.851562-15.078125 8.3125-30.761719 23.589844-24.546875zm0 0" fill="#284cb2"/><path d="m248.433594 69.007812c-8.457032 0-15.316406-6.859374-15.316406-15.320312v-38.371094c0-8.457031 6.859374-15.316406 15.316406-15.316406 8.460937 0 15.320312 6.859375 15.320312 15.316406v38.375c0 8.457032-6.859375 15.316406-15.320312 15.316406zm0 0" fill="#284cb2"/><path d="m248.433594 39.042969c-8.457032 0-15.316406-6.859375-15.316406-15.320313v29.96875c0 8.457032 6.859374 15.316406 15.316406 15.316406 8.460937 0 15.320312-6.859374 15.320312-15.316406v-29.964844c0 8.457032-6.859375 15.316407-15.320312 15.316407zm0 0" fill="#1d3ba8"/><path d="m393.457031 328.398438h-290.042969c-7.144531 0-12.9375 5.792968-12.9375 12.9375v42.5c0 7.144531 5.792969 12.9375 12.9375 12.9375h290.042969c7.144531 0 12.9375-5.792969 12.9375-12.9375v-42.5c0-7.144532-5.792969-12.9375-12.9375-12.9375zm0 0" fill="#d6eafc"/><g fill="#f95d95"><path d="m150.859375 373.929688c-6.082031 0-11.34375-4.90625-11.34375-11.347657 0-7.265625 6.71875-12.507812 13.554687-11.117187 5.414063 1.097656 9.136719 5.816406 9.136719 11.117187 0 6.21875-5.042969 11.347657-11.347656 11.347657zm0 0"/><path d="m199.648438 373.929688c-6.246094 0-11.34375-5.066407-11.34375-11.347657 0-5.5625 4.046874-10.15625 9.121093-11.117187 7.050781-1.433594 13.570313 4.042968 13.570313 11.117187 0 6.148438-4.980469 11.347657-11.347656 11.347657zm0 0"/><path d="m248.4375 373.929688c-6.226562 0-11.34375-5.046876-11.34375-11.347657 0-7.253906 6.675781-12.511719 13.558594-11.117187 6.210937 1.257812 10.136718 7.269531 8.90625 13.332031-1.105469 5.453125-5.851563 9.132813-11.121094 9.132813zm0 0"/><path d="m297.226562 373.929688c-6.320312 0-11.34375-5.125-11.34375-11.347657 0-5.269531 3.632813-9.984375 9.121094-11.117187 7.050782-1.433594 13.570313 4.042968 13.570313 11.117187 0 6.191407-5.03125 11.347657-11.347657 11.347657zm0 0"/><path d="m346.015625 373.929688c-7.179687 0-12.542969-6.609376-11.128906-13.558594.964843-4.765625 4.703125-8.113282 8.90625-8.90625 6.902343-1.402344 13.570312 3.90625 13.570312 11.117187 0 6.25-5.09375 11.347657-11.347656 11.347657zm0 0"/></g><path d="m259.835938 439.273438h-22.800782c-4.699218 0-8.511718-3.8125-8.511718-8.511719s3.8125-8.507813 8.511718-8.507813h22.800782c4.699218 0 8.507812 3.808594 8.507812 8.507813s-3.808594 8.511719-8.507812 8.511719zm0 0" fill="#f4b500"/><path d="m338.070312 213.3125c0 49.507812-40.128906 89.636719-89.636718 89.636719-49.503906 0-89.632813-40.128907-89.632813-89.636719 0-49.503906 40.128907-89.632812 89.632813-89.632812 49.507812 0 89.636718 40.128906 89.636718 89.632812zm0 0" fill="#f4b500"/><path d="m252.648438 247.203125c0-8.949219 2.878906-17.222656 7.742187-23.964844l-18.234375-25.933593c-4.042969 1.332031-8.359375 2.066406-12.847656 2.066406-22.644532 0-41.003906-18.359375-41.003906-41.007813 0-4.738281.8125-9.289062 2.292968-13.523437-19.449218 16.441406-31.796875 41.011718-31.796875 68.472656 0 49.503906 40.128907 89.636719 89.632813 89.636719 18.351562 0 35.410156-5.519531 49.621094-14.980469-1.445313.152344-2.914063.238281-4.398438.238281-22.648438 0-41.007812-18.359375-41.007812-41.003906zm0 0" fill="#f29b00"/><path d="m276.851562 206.257812c-4.703124 0-8.511718-3.808593-8.511718-8.507812v-24.078125c0-10.976563-8.929688-19.90625-19.90625-19.90625-10.972656 0-19.90625 8.929687-19.90625 19.90625v24.078125c0 4.699219-3.808594 8.507812-8.507813 8.507812s-8.511719-3.808593-8.511719-8.507812v-24.078125c0-20.359375 16.566407-36.925781 36.925782-36.925781s36.925781 16.566406 36.925781 36.925781v24.078125c0 4.699219-3.808594 8.507812-8.507813 8.507812zm0 0" fill="#d6eafc"/><path d="m249.683594 136.777344c-21.011719-.703125-38.171875 16.191406-38.171875 36.894531v24.078125c0 4.699219 3.808593 8.511719 8.507812 8.511719s8.511719-3.8125 8.511719-8.511719v-24.078125c0-10.945313 8.933594-19.996094 20.066406-19.898437-6.0625-4.363282-5.410156-13.480469 1.085938-16.996094zm0 0" fill="#b7dbf6"/><path d="m282.105469 283.074219h-67.34375c-7.753907 0-14.09375-6.34375-14.09375-14.09375v-62.808594c0-7.75 6.339843-14.09375 14.09375-14.09375h67.34375c7.753906 0 14.097656 6.34375 14.097656 14.09375v62.808594c0 7.75-6.34375 14.09375-14.097656 14.09375zm0 0" fill="#406bcc"/><path d="m238.761719 271.75c0-5.320312 3.042969-9.921875 7.480469-12.1875v-39.65625c-4.757813-2.746094-7.96875-7.875-7.96875-13.765625 0-6.105469 3.445312-11.402344 8.492187-14.066406h-32.003906c-7.75 0-14.09375 6.34375-14.09375 14.097656v62.804687c0 7.753907 6.34375 14.09375 14.09375 14.09375h30.003906c-3.621094-2.457031-6.003906-6.609374-6.003906-11.320312zm0 0" fill="#284cb2"/><path d="m247.878906 218.070312c-7.425781.289063-13.480468 6.574219-13.5 14.003907-.011718 3.929687 1.59375 7.472656 4.179688 10.027343.84375.835938 1.367187 1.941407 1.367187 3.128907v7.71875c0 4.660156 3.589844 8.722656 8.246094 8.863281 4.820313.140625 8.769531-3.722656 8.769531-8.507812v-8.074219c0-1.1875.523438-2.296875 1.367188-3.128907 2.578125-2.546874 4.183594-6.074218 4.183594-9.984374 0-7.945313-6.597657-14.355469-14.613282-14.046876zm0 0" fill="#1d3ba8"/><path d="m247.878906 218.070312c-1.246094.050782-2.445312.28125-3.589844.640626 5.714844 1.785156 9.871094 7.105468 9.871094 13.40625 0 3.910156-1.605468 7.4375-4.183594 9.984374-.84375.835938-1.367187 1.941407-1.367187 3.132813v8.074219c0 3.164062-1.734375 5.921875-4.300781 7.386718 1.144531.667969 2.453125 1.074219 3.867187 1.117188 4.816407.144531 8.769531-3.71875 8.769531-8.503906v-8.074219c0-1.1875.519532-2.296875 1.367188-3.132813 2.578125-2.542968 4.179688-6.074218 4.179688-9.984374 0-7.945313-6.597657-14.355469-14.613282-14.046876zm0 0" fill="#122894"/><path d="m367.175781 481.394531c-70.953125-.015625-166.757812-.042969-237.59375-.0625 33.933594 18.859375 72.8125 29.894531 114.203125 30.664063 3.035156.003906 6.074219.003906 9.109375.003906 41.414063-.738281 80.320313-11.753906 114.28125-30.605469zm0 0" fill="#60d882"/><path d="m232.535156 481.359375c-36.316406-.007813-72.015625-.019531-102.953125-.027344 30.605469 17.011719 65.234375 27.652344 102.101563 30.140625-13.707032-4.832031-13.101563-25.957031.851562-30.113281zm0 0" fill="#37c47a"/></svg>