<svg height="511pt" viewBox="-10 1 511 511.99963" width="511pt" xmlns="http://www.w3.org/2000/svg"><path d="m437.34375 419.480469c33.300781-41.84375 53.210938-94.820313 53.210938-152.453125-.003907-135.324219-109.703126-245.027344-245.027344-245.027344-135.324219 0-245.027344 109.703125-245.027344 245.027344 0 52.691406 16.636719 101.496094 44.9375 141.453125zm0 0" fill="#f9ce00"/><path d="m133.96875 485.230469c74.164062.019531 149.089844.042969 222.964844.0625 31.761718-16.246094 59.523437-39.199219 81.378906-67.019531v-150.832032l-196.792969-196.792968-196.796875 196.792968v140.011719c22.878906 32.65625 53.519532 59.472656 89.246094 77.777344zm0 0" fill="#d6eafc"/><path d="m241.519531 70.648438-196.796875 196.792968v140.011719c12.609375 17.996094 27.570313 34.222656 44.445313 48.226563v-150.34375c0-12.761719 5.070312-25 14.09375-34.023438l169.460937-169.460938zm0 0" fill="#b7dbf6"/><path d="m139.292969 131.8125v-47.953125h-57.703125v105.652344zm0 0" fill="#284cb2"/><path d="m130.84375 122.367188c-18.175781 18.175781-49.253906 5.300781-49.253906-20.402344v87.546875l57.703125-57.699219v-29.847656c0 7.652344-3.039063 14.992187-8.449219 20.402344zm0 0" fill="#1d3ba8"/><path d="m12.714844 278.917969c-6.257813-6.257813-6.257813-16.40625 0-22.667969l217.46875-217.46875c3.003906-3.003906 7.082031-4.695312 11.335937-4.695312 4.25 0 8.328125 1.691406 11.332031 4.695312l217.46875 217.46875c6.261719 6.261719 6.261719 16.410156 0 22.667969-6.257812 6.261719-16.40625 6.261719-22.664062 0l-206.136719-206.132813-206.136719 206.132813c-6.257812 6.261719-16.40625 6.261719-22.667968 0zm0 0" fill="#406bcc"/><path d="m144.128906 57.144531h-67.375c-2.082031 0-3.773437 1.6875-3.773437 3.773438v21.304687c0 2.082032 1.691406 3.773438 3.773437 3.773438h67.375c2.082032 0 3.773438-1.691406 3.773438-3.773438v-21.304687c0-2.085938-1.691406-3.773438-3.773438-3.773438zm0 0" fill="#5488e2"/><path d="m110.441406 82.222656v-21.304687c0-2.085938 1.6875-3.773438 3.773438-3.773438h-37.460938c-2.082031 0-3.773437 1.6875-3.773437 3.773438v21.304687c0 2.082032 1.691406 3.773438 3.773437 3.773438h37.460938c-2.085938 0-3.773438-1.691406-3.773438-3.773438zm0 0" fill="#406bcc"/><path d="m293.820312 79.753906-40.96875-40.972656c-3.003906-3.003906-7.082031-4.695312-11.332031-4.695312-4.253906 0-8.328125 1.691406-11.335937 4.695312l-217.46875 217.46875c-6.257813 6.261719-6.257813 16.410156 0 22.667969 6.261718 6.261719 16.410156 6.257812 22.667968 0l206.136719-206.132813 30.085938 30.085938c-6.453125-14.199219 7.828125-28.972656 22.214843-23.117188zm0 0" fill="#284cb2"/><path d="m241.519531 94.800781c-7.96875 0-14.425781-6.457031-14.425781-14.421875v-36.140625c0-7.964843 6.457031-14.421875 14.425781-14.421875 7.964844 0 14.425781 6.457032 14.425781 14.421875v36.140625c0 7.964844-6.460937 14.421875-14.425781 14.421875zm0 0" fill="#284cb2"/><path d="m241.519531 66.582031c-7.96875 0-14.425781-6.457031-14.425781-14.425781v28.21875c0 7.96875 6.457031 14.425781 14.425781 14.425781 7.964844 0 14.425781-6.457031 14.425781-14.425781v-28.21875c0 7.96875-6.460937 14.425781-14.425781 14.425781zm0 0" fill="#1d3ba8"/><path d="m360.992188 483.179688c-67.335938-.019532-161.789063-.042969-231.050782-.0625 33.25 17.824218 71.089844 28.1875 111.292969 28.878906 2.800781.003906 5.601563.003906 8.402344.003906 40.222656-.664062 78.085937-11.011719 111.355469-28.820312zm0 0" fill="#60d882"/><path d="m240.070312 483.144531c-38.65625-.007812-77.234374-.019531-110.128906-.027343 33.003906 17.6875 70.527344 28.019531 110.390625 28.851562-8.792969-6.960938-8.722656-21.636719-.261719-28.824219zm0 0" fill="#37c47a"/><path d="m268.566406 333.464844c-4.90625-2.859375-8.007812-8.015625-8.007812-13.691406v-128.210938c0-10.253906-7.878906-19.074219-18.121094-19.554688-10.933594-.515624-19.957031 8.195313-19.957031 19.015626v128.746093c0 5.542969-2.875 10.75-7.679688 13.503907-17.371093 9.957031-28.660156 29.3125-26.910156 51.136718 2.101563 26.269532 23.46875 47.398438 49.757813 49.238282 31.46875 2.199218 57.675781-22.675782 57.675781-53.671876 0-19.855468-10.757813-37.191406-26.757813-46.511718zm0 0" fill="#f0f9ff"/><path d="m268.566406 333.464844c-4.90625-2.859375-8.007812-8.015625-8.007812-13.691406v-4.210938c-1.09375 1.863281-3.113282 3.125-5.433594 3.125-2.796875 0-5.164062-1.824219-5.980469-4.347656h-15.203125c-.820312 2.523437-3.1875 4.347656-5.984375 4.347656-2.351562 0-4.394531-1.292969-5.476562-3.199219v4.28125c0 5.542969-2.871094 10.75-7.679688 13.503907-17.367187 9.957031-28.65625 29.3125-26.910156 51.136718 2.101563 26.269532 23.472656 47.398438 49.761719 49.238282 31.464844 2.199218 57.675781-22.675782 57.675781-53.671876-.003906-19.855468-10.761719-37.191406-26.761719-46.511718zm0 0" fill="#e6fcff"/><path d="m241.519531 257.972656c-4.425781 0-8.015625-3.589844-8.015625-8.015625v-55.566406c0-4.429687 3.589844-8.015625 8.015625-8.015625s8.011719 3.589844 8.011719 8.015625v55.566406c0 4.425781-3.585938 8.015625-8.011719 8.015625zm0 0" fill="#06daf7"/><path d="m255.328125 350.441406c-3.59375-1.683594-5.796875-5.394531-5.796875-9.363281v-90.785156c0-4.386719-3.382812-8.214844-7.769531-8.34375-4.539063-.136719-8.257813 3.5-8.257813 8.007812v91.175781c0 4.035157-2.359375 7.664063-6 9.40625-11.363281 5.429688-19.085937 17.261719-18.492187 30.828126.71875 16.4375 13.945312 29.957031 30.363281 31.007812 18.941406 1.210938 34.679688-13.789062 34.679688-32.46875 0-13.027344-7.660157-24.269531-18.726563-29.464844zm0 0" fill="#f95d95"/><g fill="#06daf7"><path d="m190.105469 195.992188h-7.566407c-4.429687 0-8.015624-3.585938-8.015624-8.011719 0-4.429688 3.589843-8.015625 8.015624-8.015625h7.566407c4.425781 0 8.011719 3.585937 8.011719 8.015625.003906 4.425781-3.585938 8.011719-8.011719 8.011719zm0 0"/><path d="m190.105469 236.378906h-7.566407c-4.429687 0-8.015624-3.589844-8.015624-8.015625s3.589843-8.011719 8.015624-8.011719h7.566407c4.425781 0 8.011719 3.585938 8.011719 8.011719.003906 4.425781-3.585938 8.015625-8.011719 8.015625zm0 0"/><path d="m190.105469 276.761719h-7.566407c-4.429687 0-8.015624-3.589844-8.015624-8.015625 0-4.425782 3.589843-8.011719 8.015624-8.011719h7.566407c4.425781 0 8.011719 3.585937 8.011719 8.011719 0 4.425781-3.585938 8.015625-8.011719 8.015625zm0 0"/><path d="m190.105469 317.148438h-7.566407c-4.429687 0-8.015624-3.589844-8.015624-8.015626 0-4.425781 3.589843-8.015624 8.015624-8.015624h7.566407c4.425781 0 8.011719 3.589843 8.011719 8.015624.003906 4.425782-3.585938 8.015626-8.011719 8.015626zm0 0"/></g><path d="m459.839844 62.828125c3-5.082031 1.3125-11.632813-3.769532-14.632813-21.332031-12.59375-46.257812-12.609374-67.613281 0-5.082031 3-6.769531 9.550782-3.769531 14.632813 3 5.078125 9.546875 6.769531 14.632812 3.769531 14.613282-8.628906 31.246094-8.644531 45.886719 0 5.082031 3 11.632813 1.3125 14.632813-3.769531zm0 0" fill="#55f3ff"/><path d="m378.1875 35.464844c27.667969-18.820313 60.449219-18.839844 88.148438-.003906 4.878906 3.316406 11.527343 2.054687 14.84375-2.828126 3.320312-4.878906 2.054687-11.523437-2.824219-14.84375-34.851563-23.699218-77.273438-23.742187-112.1875.003907-4.878907 3.316406-6.144531 9.964843-2.824219 14.84375 3.3125 4.871093 9.957031 6.152343 14.84375 2.828125zm0 0" fill="#55f3ff"/><path d="m407.835938 121.792969v-20.828125c0-7.964844 6.457031-14.425782 14.425781-14.425782s14.425781 6.460938 14.425781 14.425782v20.828125zm0 0" fill="#b7dbf6"/><path d="m422.261719 113.503906c-7.648438 0-13.890625-5.957031-14.378907-13.480468-.019531.3125-.046874.625-.046874.941406v20.828125h28.851562v-20.828125c0-.316406-.027344-.628906-.046875-.941406-.488281 7.523437-6.730469 13.480468-14.378906 13.480468zm0 0" fill="#97cbef"/><path d="m333.144531 366.542969h110.757813c7.054687 0 12.824218-5.769531 12.824218-12.820313v-221.242187c0-7.054688-5.769531-12.824219-12.824218-12.824219h-110.757813c-7.054687 0-12.824219 5.769531-12.824219 12.824219v221.242187c0 7.050782 5.773438 12.820313 12.824219 12.820313zm0 0" fill="#d6eafc"/><path d="m371.203125 330.859375c0-15.640625 9.804687-28.980469 23.601563-34.238281v-22.070313c-18.257813-2.082031-32.441407-17.570312-32.441407-36.386719 0-18.8125 14.183594-34.304687 32.441407-36.386718v-12.199219c-13.796876-5.253906-23.601563-18.597656-23.601563-34.238281 0-17.386719 12.121094-31.9375 28.371094-35.683594h-66.429688c-7.050781 0-12.824219 5.769531-12.824219 12.824219v221.242187c0 7.050782 5.773438 12.820313 12.824219 12.820313h66.429688c-16.25-3.746094-28.371094-18.292969-28.371094-35.683594zm0 0" fill="#b7dbf6"/><path d="m375.773438 218.1875 12.75-12.753906 12.753906 12.753906c4.796875 4.800781 12.582031 4.800781 17.382812 0 4.800782-4.800781 4.800782-12.582031 0-17.386719l-21.445312-21.441406c-4.800782-4.800781-12.582032-4.800781-17.382813 0l-21.445312 21.441406c-4.800781 4.804688-4.800781 12.585938 0 17.386719s12.585937 4.800781 17.386719 0zm0 0" fill="#406bcc"/><path d="m397.214844 297.242188 21.445312-21.445313c4.800782-4.800781 4.800782-12.582031 0-17.382813-4.800781-4.800781-12.585937-4.800781-17.382812 0l-12.753906 12.75-12.75-12.75c-4.800782-4.800781-12.585938-4.800781-17.386719 0-4.800781 4.800782-4.800781 12.582032 0 17.382813l21.445312 21.445313c4.800781 4.800781 12.582031 4.800781 17.382813 0zm0 0" fill="#406bcc"/><path d="m353.632812 156.8125c5.890626 0 10.675782-4.796875 10.675782-10.6875 0-5.042969-3.519532-9.441406-8.589844-10.472656-6.441406-1.308594-12.78125 3.605468-12.78125 10.472656 0 5.871094 4.769531 10.6875 10.695312 10.6875zm0 0" fill="#f95d95"/><path d="m415.316406 49.425781c0-4.917969 2.980469-8.90625 7.011719-10.683593-11.585937-.011719-23.175781 3.136718-33.875 9.449218-5.082031 3-6.765625 9.550782-3.769531 14.636719 3 5.078125 9.550781 6.769531 14.636718 3.765625 7.324219-4.320312 15.15625-6.480469 22.988282-6.472656-4.121094-1.816406-6.992188-5.9375-6.992188-10.695313zm0 0" fill="#06daf7"/><path d="m415.316406 10.738281c0-4.96875 3.042969-8.988281 7.140625-10.73437475-19.382812-.04296875-38.78125 5.88281275-56.289062 17.78906275-4.878907 3.316406-6.144531 9.964843-2.824219 14.84375 3.3125 4.871093 9.957031 6.152343 14.84375 2.828125 13.796875-9.382813 28.859375-14.089844 43.933594-14.121094-4.019532-1.859375-6.804688-5.921875-6.804688-10.605469zm0 0" fill="#06daf7"/><path d="m255.328125 350.441406c-3.59375-1.683594-5.796875-5.394531-5.796875-9.363281v-25.832031c-1.164062 3.308594-4.308594 5.683594-8.011719 5.683594-3.707031 0-6.851562-2.375-8.015625-5.683594v25.890625c0 4.035156-2.359375 7.664062-6 9.402343-11.363281 5.429688-19.085937 17.261719-18.488281 30.832032.71875 16.433594 13.945313 29.957031 30.363281 31.003906 18.9375 1.210938 34.675782-13.789062 34.675782-32.464844 0-13.03125-7.660157-24.273437-18.726563-29.46875zm0 0" fill="#e5387f"/></svg>