<svg height="512pt" viewBox="-11 0 512 512" width="512pt" xmlns="http://www.w3.org/2000/svg"><path d="m88.699219 455.664062h312.605469c54.183593-44.9375 88.699218-112.769531 88.699218-188.664062 0-135.3125-109.691406-245.003906-245.003906-245.003906-135.308594 0-245 109.691406-245 245.003906 0 75.894531 34.515625 143.726562 88.699219 188.664062zm0 0" fill="#ef4a8a"/><path d="m401.890625 280.097656v-267.460937c0-6.949219-5.6875-12.636719-12.632813-12.636719h-288.511718c-6.949219 0-12.632813 5.6875-12.632813 12.636719v267.460937zm0 0" fill="#d6eafc"/><path d="m88.113281 455.167969c42.5 35.476562 97.199219 56.832031 156.886719 56.832031 59.691406 0 114.386719-21.355469 156.890625-56.832031v-175.070313h-313.777344zm0 0" fill="#d6eafc"/><path d="m189.414062 0h-88.667968c-6.949219 0-12.632813 5.6875-12.632813 12.636719v267.460937h88.667969v-267.460937c0-6.949219 5.6875-12.636719 12.632812-12.636719zm0 0" fill="#b7dbf6"/><path d="m176.78125 280.097656h-88.667969v175.070313c25.640625 21.402343 55.726563 37.65625 88.667969 47.191406zm0 0" fill="#b7dbf6"/><path d="m362.097656 130.601562c0-7.1875 0-12.78125 0-20.808593 0-7.847657-6.363281-14.214844-14.214844-14.214844-7.847656 0-14.210937 6.367187-14.210937 14.214844v20.808593zm0 0" fill="#06daf7"/><path d="m333.671875 160.921875v20.808594c0 7.847656 6.363281 14.210937 14.210937 14.210937 7.851563 0 14.214844-6.363281 14.214844-14.210937 0-2.746094 0-8.917969 0-20.808594-9.476562 0-18.953125 0-28.425781 0zm0 0" fill="#06daf7"/><path d="m333.671875 162.082031h28.425781c0-7.960937 0-21.847656 0-32.640625-9.433594 0-18.988281 0-28.425781 0zm0 0" fill="#05b8e2"/><path d="m401.890625 287.996094h-313.777344c-4.363281 0-7.898437-3.535156-7.898437-7.898438 0-4.359375 3.535156-7.894531 7.898437-7.894531h313.777344c4.363281 0 7.894531 3.535156 7.894531 7.894531 0 4.363282-3.53125 7.898438-7.894531 7.898438zm0 0" fill="#97cbef"/><path d="m168.546875 280.097656c0-4.359375 3.535156-7.894531 7.898437-7.894531h-88.332031c-4.363281 0-7.898437 3.535156-7.898437 7.894531 0 4.363282 3.535156 7.898438 7.898437 7.898438h88.332031c-4.363281 0-7.898437-3.535156-7.898437-7.898438zm0 0" fill="#60b4e2"/><path d="m148.683594 280.097656c0-56.128906 0-129.019531 0-134.410156 0-7.851562-6.363282-14.214844-14.214844-14.214844s-14.214844 6.363282-14.214844 14.214844v134.410156zm0 0" fill="#406bcc"/><path d="m120.253906 280.097656v134.414063c0 7.851562 6.363282 14.214843 14.214844 14.214843s14.214844-6.363281 14.214844-14.214843c0-7.984375 0-79.660157 0-134.414063zm0 0" fill="#284cb2"/><path d="m134.46875 354.414062c-7.851562 0-14.214844-6.363281-14.214844-14.214843v74.3125c0 7.851562 6.363282 14.214843 14.214844 14.214843s14.214844-6.363281 14.214844-14.214843c0-5.195313 0-37.378907 0-74.3125 0 7.851562-6.363282 14.214843-14.214844 14.214843zm0 0" fill="#122894"/><path d="m359.070312 64.539062c0 6.179688-5.007812 11.1875-11.1875 11.1875-6.175781 0-11.1875-5.007812-11.1875-11.1875 0-6.175781 5.011719-11.183593 11.1875-11.183593 6.179688 0 11.1875 5.007812 11.1875 11.183593zm0 0" fill="#f95d95"/></svg>