<svg height="512pt" viewBox="-8 0 511 512" width="512pt" xmlns="http://www.w3.org/2000/svg"><path d="m457.378906 395.0625c22.882813-37.261719 36.085938-81.101562 36.085938-128.035156 0-135.324219-109.703125-245.027344-245.03125-245.027344-135.324219 0-245.027344 109.703125-245.027344 245.027344 0 46.933594 13.203125 90.773437 36.085938 128.035156zm0 0" fill="#60d882"/><path d="m457.398438 252.320312-208.964844-208.960937-208.960938 208.960937v142.710938c22.90625 37.320312 55.53125 68.019531 94.347656 88.601562h229.230469c38.816407-20.582031 71.441407-51.28125 94.347657-88.601562zm0 0" fill="#d6eafc"/><path d="m86.667969 292.558594c0-13.550782 5.382812-26.546875 14.964843-36.128906l179.933594-179.9375-33.132812-33.132813-208.960938 208.960937v142.710938c12.871094 20.96875 28.8125 39.847656 47.195313 56.019531zm0 0" fill="#b7dbf6"/><path d="m139.886719 108.304688v-50.917969h-61.269531v112.1875zm0 0" fill="#284cb2"/><path d="m130.914062 98.277344c-19.296874 19.296875-52.296874 5.628906-52.296874-21.664063v92.960938l61.269531-61.269531v-31.691407c0 8.125-3.226563 15.917969-8.972657 21.664063zm0 0" fill="#1d3ba8"/><path d="m5.484375 264.507812c-6.644531-6.644531-6.644531-17.421874 0-24.066406l230.914063-230.917968c3.191406-3.191407 7.523437-4.984376 12.035156-4.984376 4.515625 0 8.84375 1.792969 12.035156 4.984376l230.917969 230.917968c6.644531 6.644532 6.644531 17.421875 0 24.066406-6.648438 6.648438-17.425781 6.648438-24.070313 0l-218.882812-218.878906-218.878906 218.878906c-6.644532 6.648438-17.421876 6.648438-24.070313 0zm0 0" fill="#406bcc"/><path d="m145.023438 29.019531h-71.539063c-2.214844 0-4.007813 1.792969-4.007813 4.007813v22.621094c0 2.214843 1.792969 4.007812 4.007813 4.007812h71.539063c2.214843 0 4.007812-1.792969 4.007812-4.007812v-22.621094c0-2.214844-1.792969-4.007813-4.007812-4.007813zm0 0" fill="#5488e2"/><path d="m109.253906 55.648438v-22.621094c0-2.214844 1.792969-4.007813 4.007813-4.007813h-39.777344c-2.214844 0-4.007813 1.792969-4.007813 4.007813v22.621094c0 2.214843 1.792969 4.007812 4.007813 4.007812h39.773437c-2.210937 0-4.003906-1.792969-4.003906-4.007812zm0 0" fill="#406bcc"/><path d="m260.191406 129.3125h-23.511718c-1.96875 0-3.5625 1.597656-3.5625 3.5625v23.511719c0 1.96875 1.59375 3.5625 3.5625 3.5625h23.511718c1.96875 0 3.5625-1.59375 3.5625-3.5625v-23.511719c0-1.964844-1.59375-3.5625-3.5625-3.5625zm0 0" fill="#06daf7"/><path d="m303.972656 53.027344-43.503906-43.503906c-3.191406-3.191407-7.519531-4.984376-12.035156-4.984376-4.511719 0-8.84375 1.792969-12.035156 4.984376l-230.914063 230.917968c-6.644531 6.644532-6.644531 17.421875 0 24.066406 6.648437 6.648438 17.425781 6.648438 24.070313 0l218.878906-218.878906 31.949218 31.945313c-6.851562-15.078125 8.3125-30.761719 23.589844-24.546875zm0 0" fill="#284cb2"/><path d="m248.433594 69.007812c-8.457032 0-15.316406-6.859374-15.316406-15.320312v-38.371094c0-8.457031 6.859374-15.316406 15.316406-15.316406 8.460937 0 15.320312 6.859375 15.320312 15.316406v38.375c0 8.457032-6.859375 15.316406-15.320312 15.316406zm0 0" fill="#284cb2"/><path d="m248.433594 39.042969c-8.457032 0-15.316406-6.859375-15.316406-15.320313v29.96875c0 8.457032 6.859374 15.316406 15.316406 15.316406 8.460937 0 15.320312-6.859374 15.320312-15.316406v-29.964844c0 8.457032-6.859375 15.316407-15.320312 15.316407zm0 0" fill="#1d3ba8"/><path d="m238.726562 263.496094h-53.613281c-2.933593 0-5.3125 2.378906-5.3125 5.3125v25.320312h58.925781zm0 0" fill="#1d3ba8"/><path d="m259.542969 394.003906c-11.496094 0-20.816407-9.320312-20.816407-20.816406v-79.058594h-58.925781v156.542969h137.265625v-56.671875h-57.523437zm0 0" fill="#406bcc"/><path d="m238.726562 294.128906h-58.925781v156.542969h58.925781c0-16.929687 0-137.972656 0-156.542969zm0 0" fill="#284cb2"/><path d="m207.261719 386.371094c-4.699219 0-8.511719-3.808594-8.511719-8.511719v-13.445313c0-4.699218 3.808594-8.507812 8.511719-8.507812 4.699219 0 8.507812 3.808594 8.507812 8.507812v13.445313c0 4.703125-3.808593 8.511719-8.507812 8.511719zm0 0" fill="#b7dbf6"/><path d="m496.371094 373.1875v-122.699219c0-11.496093-9.320313-20.8125-20.816406-20.8125h-216.015626c-11.496093 0-20.8125 9.316407-20.8125 20.8125v122.699219c0 11.496094 9.316407 20.816406 20.816407 20.816406h216.011719c11.496093 0 20.816406-9.320312 20.816406-20.816406zm0 0" fill="#06daf7"/><path d="m317.066406 373.1875v-122.699219c0-11.496093 9.320313-20.8125 20.816406-20.8125h-78.339843c-11.496094 0-20.816407 9.316407-20.816407 20.8125v122.699219c0 11.496094 9.320313 20.816406 20.816407 20.816406h78.339843c-11.496093 0-20.816406-9.320312-20.816406-20.816406zm0 0" fill="#05b8e2"/><path d="m238.726562 263.496094h257.644532v30.636718h-257.644532zm0 0" fill="#05b8e2"/><path d="m238.726562 263.496094h78.339844v30.636718h-78.339844zm0 0" fill="#07a3d3"/><path d="m439.140625 48.59375c-30.226563-36.699219-84.476563-41.949219-121.175781-11.722656-36.699219 30.222656-41.949219 84.472656-11.726563 121.171875 30.226563 36.699219 84.476563 41.949219 121.175781 11.726562 36.699219-30.222656 41.949219-84.476562 11.726563-121.175781zm0 0" fill="#f95d95"/><path d="m395.433594 146.855469c-7.644532-9.28125-11.078125-20.644531-10.53125-31.777344.476562-9.632813-6.550782-18.164063-16.097656-19.542969-11.027344-1.59375-21.523438-7.144531-29.167969-16.425781-12.878907-15.636719-13.808594-37.183594-3.871094-53.582031-7.960937 3.789062-15.507813 8.867187-22.316406 15.3125-30.972657 29.320312-35.726563 77.539062-10.972657 112.269531 29.285157 41.101563 86.664063 48.167969 124.945313 16.636719 2.339844-1.925782 4.550781-3.957032 6.636719-6.070313-14.308594.851563-28.8125-4.90625-38.625-16.820312zm0 0" fill="#e5387f"/><path d="m269.8125 329.246094c-6.367188 0-11.34375-5.210938-11.34375-11.347656 0-7.160157 6.589844-12.535157 13.570312-11.128907 5.410157 1.101563 9.132813 5.839844 9.132813 11.128907 0 6.472656-5.304687 11.347656-11.359375 11.347656zm0 0" fill="#f95d95"/><path d="m216.703125 379.648438h-9.441406c-4.699219 0-8.511719-3.808594-8.511719-8.507813 0-4.703125 3.808594-8.511719 8.511719-8.511719h9.441406c4.699219 0 8.511719 3.808594 8.511719 8.511719 0 4.699219-3.8125 8.507813-8.511719 8.507813zm0 0" fill="#d6eafc"/><path d="m320.121094 450.671875h-143.371094c-4.1875 0-7.578125 3.390625-7.578125 7.578125v25.382812h158.527344v-25.382812c0-4.1875-3.394531-7.578125-7.578125-7.578125zm0 0" fill="#b7dbf6"/><path d="m240.109375 450.671875h-63.359375c-4.1875 0-7.578125 3.390625-7.578125 7.578125v25.382812h63.359375v-25.382812c.003906-4.1875 3.394531-7.578125 7.578125-7.578125zm0 0" fill="#97cbef"/><path d="m367.175781 481.394531c-70.953125-.015625-166.757812-.042969-237.59375-.0625 33.933594 18.859375 72.8125 29.894531 114.203125 30.664063 3.035156.003906 6.074219.003906 9.109375.003906 41.414063-.738281 80.320313-11.753906 114.28125-30.605469zm0 0" fill="#97cbef"/><path d="m232.535156 481.359375c-36.316406-.007813-72.015625-.019531-102.953125-.027344 30.605469 17.011719 65.234375 27.652344 102.101563 30.140625-13.707032-4.832031-13.101563-25.957031.851562-30.113281zm0 0" fill="#60b4e2"/><path d="m351.105469 108.074219c-4.699219 0-8.511719-3.808594-8.511719-8.511719v-26.105469c0-16.597656 13.503906-30.097656 30.101562-30.097656 16.597657 0 30.097657 13.5 30.097657 30.097656 0 4.699219-3.808594 8.511719-8.507813 8.511719-4.699218 0-8.511718-3.8125-8.511718-8.511719 0-7.210937-5.867188-13.078125-13.078126-13.078125-7.210937 0-13.078124 5.867188-13.078124 13.078125v26.109375c0 4.699219-3.8125 8.507813-8.511719 8.507813zm0 0" fill="#d6eafc"/><path d="m363.371094 52.078125c0-3.8125 2.277344-7 5.4375-8.460937-14.765625 1.914062-26.214844 14.558593-26.214844 29.839843v26.109375c0 4.699219 3.8125 8.507813 8.511719 8.507813s8.511719-3.808594 8.511719-8.507813v-26.109375c0-6.085937 4.183593-11.199219 9.820312-12.652343-3.578125-1.335938-6.066406-4.792969-6.066406-8.726563zm0 0" fill="#b7dbf6"/><path d="m398.277344 156.214844h-51.167969c-5.886719 0-10.707031-4.820313-10.707031-10.710938v-38.636718c0-5.890626 4.816406-10.710938 10.707031-10.710938h51.167969c5.890625 0 10.710937 4.820312 10.710937 10.710938v38.636718c0 5.890625-4.820312 10.710938-10.710937 10.710938zm0 0" fill="#284cb2"/><path d="m361.34375 146.792969c0-4.96875 3.171875-9.066407 7.441406-10.648438-3.546875-1.949219-5.90625-5.734375-5.90625-9.957031 0-4.359375 2.449219-8.046875 5.933594-9.953125-4.398438-1.605469-7.46875-5.839844-7.46875-10.652344 0-3.984375 2.039062-7.40625 5.046875-9.425781h-19.28125c-5.886719 0-10.707031 4.820312-10.707031 10.710938v38.636718c0 5.890625 4.816406 10.710938 10.707031 10.710938h19.269531c-3.058594-2.058594-5.035156-5.554688-5.035156-9.421875zm0 0" fill="#1d3ba8"/><path d="m372.691406 137.535156c-6.371094 0-11.347656-5.210937-11.347656-11.347656 0-7.164062 6.589844-12.535156 13.570312-11.132812 5.410157 1.101562 9.132813 5.84375 9.132813 11.132812 0 6.46875-5.304687 11.347656-11.355469 11.347656zm0 0" fill="#406bcc"/></svg>