<svg height="512pt" viewBox="-11 0 512 512" width="512pt" xmlns="http://www.w3.org/2000/svg"><path d="m245 21.996094c-135.308594 0-245 109.691406-245 245.003906 0 45.375 12.351562 87.863281 33.851562 124.304688l260.367188 115.75c111.722656-22.785157 195.785156-121.601563 195.785156-240.054688 0-135.3125-109.691406-245.003906-245.003906-245.003906zm0 0" fill="#ef4a8a"/><path d="m249.496094 0c-24.230469 0-149.234375 0-168.785156 0-10.238282 0-18.613282 8.375-18.613282 18.609375v11.199219h206.007813v-11.199219c0-10.234375-8.375-18.609375-18.609375-18.609375zm0 0" fill="#284cb2"/><path d="m127.695312 0c-22.273437 0-40.476562 0-46.984374 0-10.238282 0-18.613282 8.375-18.613282 18.609375v11.199219h46.988282v-11.199219c0-10.234375 8.375-18.609375 18.609374-18.609375zm0 0" fill="#1d3ba8"/><path d="m283.996094 23.183594h-238.484375c-7.285157 0-13.246094 5.960937-13.246094 13.25v352.167968c42.230469 73.722657 121.679687 123.398438 212.734375 123.398438 17.933594 0 35.40625-1.945312 52.242188-5.601562v-469.96875c0-7.285157-5.960938-13.246094-13.246094-13.246094zm0 0" fill="#d6eafc"/><path d="m94.503906 36.429688c0-7.285157 5.960938-13.246094 13.246094-13.246094h-62.238281c-7.285157 0-13.246094 5.960937-13.246094 13.246094v352.167968c15.914063 27.789063 37.121094 52.152344 62.238281 71.734375zm0 0" fill="#b7dbf6"/><path d="m165.101562 376.109375c-42.6875 0-78.136718 35.3125-76.730468 79.28125 35.480468 29.53125 79.4375 49.21875 127.683594 54.898437 15.835937-14.074218 25.839843-34.578124 25.839843-57.386718 0-42.34375-34.449219-76.792969-76.792969-76.792969zm0 0" fill="#55f3ff"/><path d="m212.089844 235.769531c-24.675782 0-44.679688-19.988281-44.710938-44.652343-.757812-.023438-1.511718-.058594-2.277344-.058594-42.34375 0-76.792968 34.449218-76.792968 76.792968s34.449218 76.792969 76.792968 76.792969 76.796876-34.449219 76.796876-76.792969c0-13.390624-3.457032-25.988281-9.507813-36.960937-6.09375 3.113281-12.988281 4.878906-20.300781 4.878906zm0 0" fill="#55f3ff"/><path d="m188.441406 324.644531c-2.863281-4.957031-2.945312-10.742187-.757812-15.589843-6.171875-.5-12.003906-3.914063-15.332032-9.679688-4.453124-7.714844-3.023437-17.191406 2.875-23.289062l-12.195312-21.117188c-8.226562 2.058594-17.152344-1.445312-21.601562-9.15625-3.332032-5.765625-3.371094-12.523438-.71875-18.117188-5.289063-.53125-10.261719-3.496093-13.125-8.453124-3.546876-6.140626-2.847657-13.566407 1.179687-18.886719-.019531-.03125-.039063-.0625-.058594-.097657-.667969.359376-1.339843.707032-2.003906 1.089844-36.667969 21.171875-49.277344 68.230469-28.105469 104.902344s68.230469 49.28125 104.902344 28.109375c.746094-.433594 1.46875-.890625 2.195312-1.34375-6.71875.964844-13.652343-2.132813-17.253906-8.371094zm0 0" fill="#05b8e2"/><path d="m224.851562 112.125h-101.632812c-8.230469 0-14.902344-6.671875-14.902344-14.902344 0-8.234375 6.671875-14.90625 14.902344-14.90625h101.632812c8.230469 0 14.90625 6.671875 14.90625 14.90625 0 8.230469-6.671874 14.902344-14.90625 14.902344zm0 0" fill="#55f3ff"/><path d="m148.71875 82.316406h-25.5c-8.230469 0-14.902344 6.671875-14.902344 14.90625 0 8.230469 6.671875 14.902344 14.902344 14.902344h25.5zm0 0" fill="#06daf7"/><path d="m409.859375 140.742188v-21.515626c0-8.234374-6.671875-14.90625-14.90625-14.90625-8.230469 0-14.902344 6.671876-14.902344 14.90625v21.515626zm0 0" fill="#1d3ba8"/><path d="m394.953125 131.742188c-7.828125 0-14.234375-6.039063-14.84375-13.710938-.03125.394531-.058594.789062-.058594 1.195312v21.515626h29.808594v-21.515626c0-.40625-.03125-.800781-.0625-1.195312-.609375 7.671875-7.015625 13.710938-14.84375 13.710938zm0 0" fill="#122894"/><path d="m418.65625 83.714844c-7.511719-4.433594-15.488281-6.683594-23.703125-6.683594-8.21875 0-16.191406 2.25-23.707031 6.683594-5.25 3.101562-12.015625 1.355468-15.117188-3.894532-3.101562-5.25-1.355468-12.019531 3.894532-15.117187 10.960937-6.46875 22.710937-9.75 34.929687-9.75s23.96875 3.28125 34.925781 9.75c5.25 3.101563 6.992188 9.867187 3.894532 15.117187-3.097657 5.253907-9.867188 6.996094-15.117188 3.894532zm0 0" fill="#55f3ff"/><path d="m440.488281 51.550781c-14.210937-9.667969-29.53125-14.566406-45.535156-14.566406s-31.320313 4.898437-45.535156 14.566406c-5.039063 3.421875-11.90625 2.121094-15.335938-2.921875-3.429687-5.042968-2.121093-11.910156 2.921875-15.339844 17.6875-12.027343 37.726563-18.386718 57.949219-18.386718 20.226563 0 40.265625 6.359375 57.953125 18.390625 5.042969 3.429687 6.351562 10.296875 2.917969 15.339843-3.421875 5.03125-10.285157 6.351563-15.335938 2.917969zm0 0" fill="#55f3ff"/><path d="m416.113281 393.605469h-114.429687c-7.285156 0-13.246094-5.960938-13.246094-13.25v-228.574219c0-7.285156 5.960938-13.25 13.246094-13.25h114.429687c7.285157 0 13.25 5.960938 13.25 13.25v228.574219c0 7.285156-5.960937 13.25-13.25 13.25zm0 0" fill="#284cb2"/><path d="m335.710938 380.355469v-228.574219c0-7.285156 5.960937-13.246094 13.246093-13.246094h-47.273437c-7.285156 0-13.246094 5.960938-13.246094 13.246094v228.574219c0 7.285156 5.960938 13.25 13.246094 13.25h47.273437c-7.285156 0-13.246093-5.964844-13.246093-13.25zm0 0" fill="#1d3ba8"/><path d="m376.023438 242.898438c0 11.203124-9.082032 20.285156-20.285157 20.285156s-20.285156-9.082032-20.285156-20.285156c0-11.203126 9.082031-20.285157 20.285156-20.285157s20.285157 9.082031 20.285157 20.285157zm0 0" fill="#d6eafc"/><path d="m362.277344 252.886719c-9.125 0-16.523438-7.398438-16.523438-16.523438 0-5.589843 2.78125-10.519531 7.027344-13.511719-9.796875 1.4375-17.328125 9.851563-17.328125 20.046876 0 11.203124 9.082031 20.285156 20.285156 20.285156 10.195313 0 18.613281-7.527344 20.046875-17.324219-2.988281 4.246094-7.921875 7.027344-13.507812 7.027344zm0 0" fill="#b7dbf6"/><path d="m367.746094 251.179688c-4.574219 0-8.28125-3.707032-8.28125-8.28125v-62.570313c0-3.285156 1.941406-6.257813 4.949218-7.582031 3.007813-1.320313 6.511719-.738282 8.929688 1.484375l22.105469 20.296875c3.371093 3.09375 3.59375 8.332031.5 11.699218-3.089844 3.367188-8.332031 3.589844-11.695313.496094l-8.230468-7.550781v43.726563c0 4.574218-3.703126 8.28125-8.277344 8.28125zm0 0" fill="#d6eafc"/><path d="m393.675781 300.71875h-34.777343c-4.570313 0-8.277344-3.703125-8.277344-8.277344 0-4.574218 3.707031-8.28125 8.277344-8.28125h34.777343c4.570313 0 8.277344 3.707032 8.277344 8.28125 0 4.574219-3.707031 8.277344-8.277344 8.277344zm0 0" fill="#122894"/><path d="m358.898438 302.375h-34.773438c-5.488281 0-9.9375-4.445312-9.9375-9.933594 0-5.488281 4.449219-9.9375 9.9375-9.9375h34.773438c5.488281 0 9.9375 4.449219 9.9375 9.9375 0 5.488282-4.449219 9.933594-9.9375 9.933594zm0 0" fill="#f9ce00"/><path d="m393.675781 332.460938h-52.167969c-4.574218 0-8.28125-3.707032-8.28125-8.28125 0-4.574219 3.707032-8.28125 8.28125-8.28125h52.167969c4.570313 0 8.277344 3.707031 8.277344 8.28125 0 4.574218-3.707031 8.28125-8.277344 8.28125zm0 0" fill="#122894"/><path d="m341.507812 334.117188h-17.382812c-5.488281 0-9.9375-4.449219-9.9375-9.9375 0-5.488282 4.449219-9.9375 9.9375-9.9375h17.382812c5.484376 0 9.933594 4.449218 9.933594 9.9375 0 5.488281-4.449218 9.9375-9.933594 9.9375zm0 0" fill="#f9ce00"/><path d="m393.675781 364.199219h-18.449219c-4.574218 0-8.28125-3.707031-8.28125-8.28125 0-4.570313 3.707032-8.277344 8.28125-8.277344h18.449219c4.570313 0 8.277344 3.703125 8.277344 8.277344s-3.707031 8.28125-8.277344 8.28125zm0 0" fill="#122894"/><path d="m375.226562 365.855469h-51.101562c-5.488281 0-9.9375-4.449219-9.9375-9.9375s4.449219-9.933594 9.9375-9.933594h51.101562c5.484376 0 9.933594 4.445313 9.933594 9.933594s-4.445312 9.9375-9.933594 9.9375zm0 0" fill="#f9ce00"/><path d="m405.535156 163.46875c0 5.84375-4.738281 10.578125-10.582031 10.578125-5.839844 0-10.578125-4.734375-10.578125-10.578125s4.738281-10.582031 10.578125-10.582031c5.84375 0 10.582031 4.738281 10.582031 10.582031zm0 0" fill="#f95d95"/><path d="m196.585938 233.003906c-5.523438-2.042968-10.53125-5.144531-14.777344-9.058594-5.195313-1.984374-10.824219-3.078124-16.707032-3.078124-25.90625 0-46.984374 21.078124-46.984374 46.984374 0 25.910157 21.078124 46.988282 46.984374 46.988282 25.910157 0 46.988282-21.078125 46.988282-46.988282 0-13.808593-5.992188-26.242187-15.503906-34.847656zm0 0" fill="#05b8e2"/><path d="m172.351562 299.371094c-4.453124-7.710938-3.023437-17.1875 2.875-23.285156l-12.195312-21.121094c-8.226562 2.058594-17.152344-1.441406-21.601562-9.152344-3.328126-5.761719-3.371094-12.507812-.726563-18.097656-21.730469 13.203125-29.066406 41.5-16.292969 63.632812 12.777344 22.128906 40.957032 29.921875 63.253906 17.703125-6.164062-.503906-11.988281-3.917969-15.3125-9.679687zm0 0" fill="#07a3d3"/><path d="m180.007812 267.851562c0 8.230469-6.675781 14.90625-14.90625 14.90625-8.230468 0-14.902343-6.675781-14.902343-14.90625 0-8.230468 6.671875-14.902343 14.902343-14.902343 8.230469 0 14.90625 6.671875 14.90625 14.902343zm0 0" fill="#284cb2"/><path d="m165.101562 405.914062c-39.816406 0-61.285156 46.507813-36.25 76.847657 12.554688 6.773437 25.773438 12.476562 39.527344 17 24.382813-1.6875 43.710938-22.050781 43.710938-46.859375 0-25.910156-21.078125-46.988282-46.988282-46.988282zm0 0" fill="#05b8e2"/><path d="m391.253906 26.71875c0-5.273438 3.210938-9.796875 7.78125-11.722656-1.359375-.058594-2.71875-.09375-4.082031-.09375-20.222656 0-40.261719 6.359375-57.949219 18.386718-5.042968 3.429688-6.351562 10.296876-2.921875 15.339844 3.429688 5.039063 10.292969 6.34375 15.335938 2.921875 14.210937-9.667969 29.53125-14.566406 45.53125-14.566406.527343 0 1.050781.019531 1.574219.027344-3.1875-2.308594-5.269532-6.054688-5.269532-10.292969zm0 0" fill="#06daf7"/><path d="m391.253906 66.179688c0-4.8125 2.671875-8.996094 6.613282-11.15625-.96875-.042969-1.941407-.070313-2.917969-.070313-12.214844 0-23.96875 3.28125-34.925781 9.75-5.25 3.101563-6.996094 9.867187-3.894532 15.117187 3.097656 5.25 9.867188 6.996094 15.117188 3.894532 7.515625-4.433594 15.488281-6.683594 23.703125-6.683594.859375 0 1.710937.039062 2.5625.089844-3.742188-2.214844-6.257813-6.277344-6.257813-10.941406zm0 0" fill="#06daf7"/><path d="m175.210938 461.152344-12.191407-21.121094c-15.957031 3.992188-29.378906-12.398438-22.320312-27.273438-13.347657-1.335937-19.984375-16.722656-11.945313-27.335937-.019531-.035156-.042968-.066406-.0625-.097656-26.628906 14.355469-41.191406 41.96875-40.339844 70.050781 28.113282 23.40625 61.546876 40.632812 98.21875 49.609375-.839843-3.679687-.417968-7.5 1.101563-10.867187-16.402344-1.324219-23.90625-21.132813-12.460937-32.964844zm0 0" fill="#05b8e2"/><path d="m175.210938 461.152344-12.191407-21.121094c-15.96875 3.996094-29.363281-12.390625-22.332031-27.25-24.308594 14.769531-30.070312 47.789062-11.921875 69.933594 12.578125 6.792968 25.8125 12.515625 39.589844 17.050781 6.582031-.449219 13.160156-2.289063 19.292969-5.648437-16.367188-1.339844-23.894532-21.121094-12.4375-32.964844zm0 0" fill="#07a3d3"/><path d="m180.007812 452.902344c0 8.230468-6.675781 14.90625-14.90625 14.90625-8.230468 0-14.902343-6.675782-14.902343-14.90625 0-8.230469 6.671875-14.902344 14.902343-14.902344 8.230469 0 14.90625 6.671875 14.90625 14.902344zm0 0" fill="#284cb2"/><path d="m256.800781 191.515625c0 24.945313-20.222656 45.167969-45.167969 45.167969-24.945312 0-45.167968-20.222656-45.167968-45.167969s20.222656-45.167969 45.167968-45.167969c24.945313 0 45.167969 20.222656 45.167969 45.167969zm0 0" fill="#406bcc"/><path d="m218.601562 221.816406c-4.28125-7.414062-2.90625-16.527344 2.761719-22.386718l-11.722656-20.300782c-7.910156 1.980469-16.488281-1.386718-20.769531-8.800781-3.195313-5.539063-3.238282-12.023437-.695313-17.398437-20.886719 12.691406-27.941406 39.894531-15.660156 61.167968 12.28125 21.273438 39.371094 28.765625 60.804687 17.019532-5.925781-.484376-11.523437-3.761719-14.71875-9.300782zm0 0" fill="#284cb2"/><path d="m225.960938 191.515625c0 7.910156-6.417969 14.328125-14.328126 14.328125-7.914062 0-14.328124-6.417969-14.328124-14.328125 0-7.914063 6.414062-14.328125 14.328124-14.328125 7.910157 0 14.328126 6.414062 14.328126 14.328125zm0 0" fill="#1d3ba8"/></svg>