<svg height="512pt" viewBox="-8 0 511 512" width="512pt" xmlns="http://www.w3.org/2000/svg"><path d="m456.148438 397.03125c23.636718-37.679688 37.316406-82.242188 37.316406-130.003906 0-135.324219-109.703125-245.027344-245.03125-245.027344-135.324219 0-245.027344 109.703125-245.027344 245.027344 0 47.761718 13.679688 92.324218 37.316406 130.003906zm0 0" fill="#ef4a8a"/><path d="m457.398438 252.320312-208.964844-208.960937-208.960938 208.960937v142.710938c22.90625 37.320312 55.53125 68.019531 94.347656 88.601562h229.230469c38.816407-20.582031 71.441407-51.28125 94.347657-88.601562zm0 0" fill="#284cb2"/><path d="m86.667969 292.558594c0-13.550782 5.382812-26.546875 14.964843-36.128906l179.933594-179.9375-33.132812-33.132813-208.960938 208.960937v142.710938c12.871094 20.96875 28.8125 39.847656 47.195313 56.019531zm0 0" fill="#1d3ba8"/><path d="m367.175781 481.394531c-70.953125-.015625-166.757812-.042969-237.59375-.0625 33.933594 18.859375 72.8125 29.894531 114.203125 30.664063 3.035156.003906 6.074219.003906 9.109375.003906 41.414063-.738281 80.320313-11.753906 114.28125-30.605469zm0 0" fill="#5488e2"/><path d="m232.535156 481.359375c-36.316406-.007813-72.015625-.019531-102.953125-.027344 30.605469 17.011719 65.234375 27.652344 102.101563 30.140625-13.707032-4.832031-13.101563-25.957031.851562-30.113281zm0 0" fill="#406bcc"/><path d="m139.886719 108.304688v-50.917969h-61.269531v112.1875zm0 0" fill="#284cb2"/><path d="m130.914062 98.277344c-19.296874 19.296875-52.296874 5.628906-52.296874-21.664063v92.960938l61.269531-61.269531v-31.691407c0 8.125-3.226563 15.917969-8.972657 21.664063zm0 0" fill="#1d3ba8"/><path d="m145.023438 29.019531h-71.539063c-2.214844 0-4.007813 1.792969-4.007813 4.007813v22.621094c0 2.214843 1.792969 4.007812 4.007813 4.007812h71.539063c2.214843 0 4.007812-1.792969 4.007812-4.007812v-22.621094c0-2.214844-1.792969-4.007813-4.007812-4.007813zm0 0" fill="#5488e2"/><path d="m109.253906 55.648438v-22.621094c0-2.214844 1.792969-4.007813 4.007813-4.007813h-39.777344c-2.214844 0-4.007813 1.792969-4.007813 4.007813v22.621094c0 2.214843 1.792969 4.007812 4.007813 4.007812h39.773437c-2.210937 0-4.003906-1.792969-4.003906-4.007812zm0 0" fill="#406bcc"/><path d="m260.191406 129.3125h-23.511718c-1.96875 0-3.5625 1.597656-3.5625 3.5625v23.511719c0 1.96875 1.59375 3.5625 3.5625 3.5625h23.511718c1.96875 0 3.5625-1.59375 3.5625-3.5625v-23.511719c0-1.964844-1.59375-3.5625-3.5625-3.5625zm0 0" fill="#06daf7"/><path d="m248.433594 156.386719v-23.511719c0-1.964844 1.59375-3.5625 3.5625-3.5625h-15.320313c-1.964843 0-3.558593 1.597656-3.558593 3.5625v23.511719c0 1.96875 1.59375 3.5625 3.558593 3.5625h15.320313c-1.964844 0-3.5625-1.59375-3.5625-3.5625zm0 0" fill="#05b8e2"/><path d="m5.484375 264.507812c-6.644531-6.644531-6.644531-17.421874 0-24.066406l230.914063-230.917968c3.191406-3.191407 7.523437-4.984376 12.035156-4.984376 4.515625 0 8.84375 1.792969 12.035156 4.984376l230.917969 230.917968c6.644531 6.644532 6.644531 17.421875 0 24.066406-6.648438 6.648438-17.425781 6.648438-24.070313 0l-218.882812-218.878906-218.878906 218.878906c-6.644532 6.648438-17.421876 6.648438-24.070313 0zm0 0" fill="#d6eafc"/><path d="m303.972656 53.027344-43.503906-43.503906c-3.191406-3.191407-7.519531-4.984376-12.035156-4.984376-4.511719 0-8.84375 1.792969-12.035156 4.984376l-230.914063 230.917968c-6.644531 6.644532-6.644531 17.421875 0 24.066406 6.648437 6.648438 17.425781 6.648438 24.070313 0l218.878906-218.878906 31.949218 31.945313c-6.851562-15.078125 8.3125-30.761719 23.589844-24.546875zm0 0" fill="#b7dbf6"/><path d="m248.433594 69.007812c-8.457032 0-15.316406-6.859374-15.316406-15.320312v-38.371094c0-8.457031 6.859374-15.316406 15.316406-15.316406 8.460937 0 15.320312 6.859375 15.320312 15.316406v38.375c0 8.457032-6.859375 15.316406-15.320312 15.316406zm0 0" fill="#b7dbf6"/><path d="m248.433594 39.042969c-8.457032 0-15.316406-6.859375-15.316406-15.320313v29.96875c0 8.457032 6.859374 15.316406 15.316406 15.316406 8.460937 0 15.320312-6.859374 15.320312-15.316406v-29.964844c0 8.457032-6.859375 15.316407-15.320312 15.316407zm0 0" fill="#97cbef"/><g fill="#55f3ff"><path d="m269.996094 397.070312c0 11.90625-9.652344 21.558594-21.5625 21.558594-11.90625 0-21.558594-9.652344-21.558594-21.558594s9.652344-21.558593 21.558594-21.558593c11.910156 0 21.5625 9.652343 21.5625 21.558593zm0 0"/><path d="m311.800781 347.257812c6.742188-6.742187 5.5625-17.902343-2.339843-23.238281-17.792969-12.015625-38.882813-18.574219-61.027344-18.574219-22.136719 0-43.230469 6.558594-61.019532 18.574219-7.90625 5.335938-9.085937 16.496094-2.34375 23.238281l.214844.214844c5.125 5.125 13.210938 6.054688 19.21875 1.992188 12.8125-8.65625 27.996094-13.386719 43.929688-13.386719 15.9375 0 31.121094 4.730469 43.933594 13.386719 6.007812 4.058594 14.09375 3.132812 19.222656-1.996094zm0 0"/><path d="m356.632812 302.425781c6.359376-6.355469 5.785157-16.84375-1.246093-22.445312-30.085938-23.972657-67.457031-37.222657-106.953125-37.222657-39.492188 0-76.867188 13.25-106.949219 37.21875-7.03125 5.601563-7.605469 16.09375-1.246094 22.449219l.339844.339844c5.464844 5.464844 14.117187 5.839844 20.171875 1.039063 24.691406-19.589844 55.324219-30.414063 87.683594-30.414063 32.363281 0 62.996094 10.824219 87.6875 30.414063 6.054687 4.800781 14.707031 4.425781 20.171875-1.039063zm0 0"/></g><path d="m233.996094 258.042969c0-6.382813 3.328125-11.972657 8.335937-15.171875-37.230469 1.292968-72.316406 14.375-100.847656 37.109375-7.03125 5.601562-7.601563 16.089843-1.246094 22.445312l.34375.34375c5.460938 5.460938 14.113281 5.839844 20.167969 1.035157 23.257812-18.453126 51.785156-29.121094 82.0625-30.300782-5.273438-3.136718-8.816406-8.878906-8.816406-15.460937zm0 0" fill="#06daf7"/><path d="m233.996094 320.6875c0-6.292969 3.234375-11.828125 8.128906-15.042969-19.828125 1.125-38.621094 7.507813-54.710938 18.375-7.90625 5.335938-9.085937 16.496094-2.34375 23.238281l.214844.214844c5.128906 5.128906 13.210938 6.054688 19.21875 1.992188 11.351563-7.667969 24.5625-12.246094 38.511719-13.191406-5.386719-3.113282-9.019531-8.917969-9.019531-15.585938zm0 0" fill="#06daf7"/></svg>