<svg height="512pt" viewBox="-11 0 512 512" width="512pt" xmlns="http://www.w3.org/2000/svg"><path d="m421.746094 436.652344c42.269531-44.023438 68.257812-103.800782 68.257812-169.652344 0-135.3125-109.691406-245.003906-245.003906-245.003906-135.308594 0-245 109.691406-245 245.003906 0 65.851562 25.984375 125.628906 68.253906 169.652344zm0 0" fill="#ef4a8a"/><path d="m245 512c70.449219 0 133.941406-29.746094 178.636719-77.347656v-386.859375c0-26.285157-21.503907-47.792969-47.792969-47.792969h-261.6875c-26.285156 0-47.792969 21.507812-47.792969 47.792969v386.859375c44.695313 47.601562 108.1875 77.347656 178.636719 77.347656zm0 0" fill="#284cb2"/><path d="m128.660156 0h-14.503906c-26.285156 0-47.792969 21.507812-47.792969 47.792969v386.859375c17.40625 18.539062 37.664063 34.363281 60.074219 46.78125-1.621094-4.789063-2.515625-9.90625-2.515625-15.226563v-418.414062c0-7.398438 1.703125-14.417969 4.738281-20.6875-7.484375 0-13.550781-6.070313-13.550781-13.554688s6.066406-13.550781 13.550781-13.550781zm0 0" fill="#122894"/><path d="m375.160156 27.105469h-260.320312c-11.800782 0-21.371094 9.566406-21.371094 21.371093v382.972657c0 11.800781 9.570312 21.367187 21.371094 21.367187h260.320312c11.804688 0 21.371094-9.566406 21.371094-21.367187v-382.972657c0-11.804687-9.566406-21.371093-21.371094-21.371093zm0 0" fill="#55f3ff"/><path d="m375.160156 27.105469h-260.320312c-11.800782 0-21.367188 9.566406-21.367188 21.371093v16.308594c39.65625-2.917968 96.191406 5.890625 138.90625 65.085938 47.324219 65.589844 108.847656 91.269531 164.152344 83.472656v-164.867188c0-11.804687-9.566406-21.371093-21.371094-21.371093zm0 0" fill="#a6ffff"/><path d="m114.839844 27.105469c-11.800782 0-21.367188 9.566406-21.367188 21.371093v382.972657c0 11.800781 9.566406 21.367187 21.367188 21.367187h9.082031v-405.023437c0-7.398438 1.707031-14.417969 4.738281-20.6875zm0 0" fill="#06daf7"/><path d="m93.46875 48.476562v16.308594c9.347656-.6875 19.632812-.71875 30.453125.402344v-17.394531c0-7.398438 1.703125-14.417969 4.738281-20.6875h-13.820312c-11.800782 0-21.371094 9.566406-21.371094 21.371093zm0 0" fill="#55f3ff"/><path d="m260.300781 484.027344c0 8.453125-6.847656 15.300781-15.300781 15.300781-8.449219 0-15.300781-6.847656-15.300781-15.300781 0-8.449219 6.851562-15.300782 15.300781-15.300782 8.453125 0 15.300781 6.851563 15.300781 15.300782zm0 0" fill="#5488e2"/><path d="m341.761719 404.855469c0-5.96875-4.839844-10.808594-10.808594-10.808594h-32.667969c-5.972656 0-10.8125 4.839844-10.8125 10.808594 0 5.972656 4.839844 10.8125 10.8125 10.8125h32.667969c5.96875 0 10.808594-4.839844 10.808594-10.8125zm0 0" fill="#60d882"/><path d="m368.121094 46.304688c0-3.742188-3.03125-6.777344-6.777344-6.777344h-20.484375c-3.746094 0-6.777344 3.035156-6.777344 6.777344 0 3.746093 3.035157 6.78125 6.777344 6.78125h20.484375c3.746094 0 6.777344-3.035157 6.777344-6.78125zm0 0" fill="#06daf7"/><path d="m148.894531 404.855469c0-5.96875 4.839844-10.808594 10.8125-10.808594h32.664063c5.972656 0 10.8125 4.839844 10.8125 10.808594 0 5.972656-4.839844 10.8125-10.8125 10.8125h-32.664063c-5.972656 0-10.8125-4.839844-10.8125-10.8125zm0 0" fill="#f95d95"/><path d="m312.300781 404.855469c0-5.96875 4.839844-10.808594 10.808594-10.808594h-24.828125c-5.96875 0-10.808594 4.839844-10.808594 10.808594 0 5.972656 4.839844 10.8125 10.808594 10.8125h24.828125c-5.96875 0-10.808594-4.839844-10.808594-10.8125zm0 0" fill="#fff"/><path d="m178.355469 404.855469c0-5.96875-4.835938-10.808594-10.808594-10.808594h24.828125c5.972656 0 10.808594 4.839844 10.808594 10.808594 0 5.972656-4.835938 10.8125-10.808594 10.8125h-24.828125c5.972656 0 10.808594-4.839844 10.808594-10.8125zm0 0" fill="#fff"/><path d="m230.550781 359.84375v-71.058594c0-6.945312-5.628906-12.582031-12.578125-12.582031h-83.867187c-6.945313 0-12.578125 5.636719-12.578125 12.582031v71.058594c0 6.945312 5.628906 12.578125 12.578125 12.578125h83.867187c6.949219 0 12.578125-5.632813 12.578125-12.578125zm0 0" fill="#406bcc"/><path d="m368.476562 359.84375v-71.058594c0-6.945312-5.632812-12.582031-12.582031-12.582031h-83.867187c-6.945313 0-12.578125 5.636719-12.578125 12.582031v71.058594c0 6.945312 5.632812 12.578125 12.578125 12.578125h83.867187c6.949219 0 12.582031-5.632813 12.582031-12.578125zm0 0" fill="#f95d95"/><path d="m150.535156 359.84375v-71.058594c0-6.949218 5.632813-12.582031 12.582032-12.582031h-29.007813c-6.949219 0-12.582031 5.632813-12.582031 12.582031v71.058594c0 6.945312 5.632812 12.578125 12.582031 12.578125h29.007813c-6.949219 0-12.582032-5.632813-12.582032-12.578125zm0 0" fill="#284cb2"/><path d="m288.460938 359.84375v-71.058594c0-6.949218 5.632812-12.582031 12.578124-12.582031h-29.011718c-6.945313 0-12.578125 5.632813-12.578125 12.582031v71.058594c0 6.945312 5.632812 12.578125 12.578125 12.578125h29.011718c-6.945312 0-12.578124-5.632813-12.578124-12.578125zm0 0" fill="#e5387f"/><path d="m329.085938 323.003906-23.144532-14.625c-2.351562-1.488281-5.421875.203125-5.421875 2.988282l.003907 29.25c0 2.785156 3.070312 4.476562 5.421874 2.988281l23.144532-14.625c2.191406-1.386719 2.191406-4.589844-.003906-5.976563zm0 0" fill="#e6fcff"/><path d="m356.988281 292.695312c0-4.15625-3.371093-7.527343-7.527343-7.527343h-.167969c-4.160157 0-7.527344 3.371093-7.527344 7.527343 0 4.160157 3.367187 7.53125 7.527344 7.53125h.167969c4.15625 0 7.527343-3.371093 7.527343-7.53125zm0 0" fill="#e6fcff"/><path d="m211.667969 321.773438c-6.269531-11.757813-19.863281-19.902344-35.628907-19.902344-15.660156 0-29.179687 8.039062-35.507812 19.675781-.941406 1.734375-.941406 3.796875 0 5.535156 6.328125 11.632813 19.847656 19.671875 35.507812 19.671875 15.765626 0 29.359376-8.144531 35.628907-19.898437.84375-1.582031.84375-3.503907 0-5.082031zm0 0" fill="#fff"/><path d="m191.6875 324.3125c0 8.640625-7.007812 15.648438-15.648438 15.648438-8.640624 0-15.644531-7.007813-15.644531-15.648438s7.003907-15.648438 15.644531-15.648438c8.640626 0 15.648438 7.007813 15.648438 15.648438zm0 0" fill="#a6ffff"/><path d="m181.699219 328.636719c-5.511719 0-9.984375-4.46875-9.984375-9.984375 0-4.65625 3.191406-8.558594 7.503906-9.664063-1.027344-.210937-2.089844-.324219-3.179688-.324219-8.640624 0-15.644531 7.007813-15.644531 15.648438s7.003907 15.648438 15.644531 15.648438c8.644532 0 15.648438-7.007813 15.648438-15.648438 0-1.089844-.113281-2.152344-.324219-3.175781-1.105469 4.308593-5.007812 7.5-9.664062 7.5zm0 0" fill="#06daf7"/><path d="m249.175781 88.816406-63.453125 63.453125v94.902344h126.910156v-94.902344zm0 0" fill="#d6eafc"/><path d="m220.585938 178.710938c0-7.621094 3.027343-14.9375 8.421874-20.328126l44.867188-44.867187-24.699219-24.699219-63.453125 63.453125v94.902344h34.863282zm0 0" fill="#b7dbf6"/><path d="m257.140625 69.367188c-4.398437-4.398438-11.53125-4.398438-15.925781 0l-74.882813 74.882812c-7.09375 7.09375-2.070312 19.226562 7.960938 19.226562 2.988281 0 5.851562-1.1875 7.964843-3.300781l66.917969-66.917969 66.921875 66.917969c2.113282 2.113281 4.976563 3.300781 7.960938 3.300781 10.035156 0 15.058594-12.132812 7.964844-19.226562zm0 0" fill="#406bcc"/><path d="m287.902344 100.128906-30.761719-30.761718c-4.398437-4.398438-11.53125-4.398438-15.925781 0l-74.882813 74.882812c-7.09375 7.09375-2.070312 19.226562 7.960938 19.226562 2.988281 0 5.851562-1.1875 7.964843-3.300781l66.917969-66.917969 22.851563 22.847657c-4.351563-10.019531 5.824218-20.265625 15.875-15.976563zm0 0" fill="#284cb2"/><path d="m249.175781 115.136719c-6.21875 0-11.261719-5.042969-11.261719-11.265625v-28.210938c0-6.21875 5.042969-11.261718 11.261719-11.261718 6.222657 0 11.261719 5.042968 11.261719 11.261718v28.214844c0 6.21875-5.039062 11.261719-11.261719 11.261719zm0 0" fill="#284cb2"/><path d="m249.175781 91.4375c-6.21875 0-11.261719-5.042969-11.261719-11.261719v23.699219c0 6.21875 5.042969 11.261719 11.261719 11.261719 6.222657 0 11.261719-5.042969 11.261719-11.261719v-23.699219c0 6.21875-5.042969 11.261719-11.261719 11.261719zm0 0" fill="#1d3ba8"/><path d="m249.175781 163.476562c-12.605469 0-22.824219 10.21875-22.824219 22.824219v49.675781c7.109376 2.632813 14.796876 4.082032 22.824219 4.082032 8.027344 0 15.71875-1.445313 22.828125-4.082032v-49.675781c0-12.605469-10.21875-22.824219-22.828125-22.824219zm0 0" fill="#284cb2"/><path d="m249.175781 163.476562c-4.445312 0-8.589843 1.273438-12.101562 3.472657 7.246093 4.316406 12.101562 12.226562 12.101562 21.273437v51.835938c8.027344 0 15.71875-1.445313 22.828125-4.082032v-49.671874c0-12.609376-10.21875-22.828126-22.828125-22.828126zm0 0" fill="#1d3ba8"/><path d="m316.5625 232.230469h-134.417969c-6.09375 0-11.351562 4.679687-11.621093 10.769531-.285157 6.460938 4.867187 11.785156 11.265624 11.785156h134.773438c6.230469 0 11.277344-5.046875 11.277344-11.277344 0-6.226562-5.046875-11.277343-11.277344-11.277343zm0 0" fill="#60d882"/><path d="m210.359375 243c.269531-6.085938 5.527344-10.769531 11.621094-10.769531h-39.835938c-6.09375 0-11.351562 4.679687-11.621093 10.769531-.285157 6.460938 4.871093 11.789062 11.269531 11.789062h39.835937c-6.402344 0-11.554687-5.328124-11.269531-11.789062zm0 0" fill="#37c47a"/></svg>