<svg height="512pt" viewBox="-11 0 512 512" width="512pt" xmlns="http://www.w3.org/2000/svg"><path d="m90.984375 457.523438c42.082031 34.0625 95.660156 54.476562 154.015625 54.476562s111.9375-20.414062 154.019531-54.476562l31.222657-30.171876c37.230468-42.972656 59.761718-99.03125 59.761718-160.351562 0-135.3125-109.691406-245.003906-245-245.003906-135.3125 0-245.003906 109.691406-245.003906 245.003906 0 61.320312 22.527344 117.378906 59.757812 160.351562zm0 0" fill="#122894"/><path d="m89.210938 414.679688c0-49.117188 22.855468-92.992188 58.480468-121.566407-6.257812-2.0625-11.835937-6.296875-15.476562-12.402343-2.921875-4.898438-4.191406-10.316407-3.984375-15.621094-44.453125 34.777344-73.078125 88.902344-73.078125 149.589844 0 2.46875.0625 4.921874.15625 7.371093 12.132812 14.828125 25.976562 28.199219 41.21875 39.832031-4.746094-14.898437-7.316406-30.753906-7.316406-47.203124zm0 0" fill="#b7dbf6"/><path d="m361.773438 265.089844c.203124 5.304687-1.0625 10.722656-3.984376 15.621094-3.640624 6.101562-9.214843 10.34375-15.472656 12.40625 35.621094 28.578124 58.476563 72.449218 58.476563 121.5625 0 16.449218-2.570313 32.304687-7.316407 47.203124 15.242188-11.632812 29.082032-25.003906 41.21875-39.832031.09375-2.445312.15625-4.902343.15625-7.371093 0-60.6875-28.625-114.8125-73.078124-149.589844zm0 0" fill="#d6eafc"/><path d="m393.8125 296.945312c-9.386719-11.835937-20.140625-22.542968-32.039062-31.855468.488281 12.601562-7.417969 24.054687-19.457032 28.027344 9.199219 7.378906 17.535156 15.785156 24.859375 25.03125-2.261719-15.160157 12.703125-26.699219 26.636719-21.203126zm0 0" fill="#b7dbf6"/><path d="m96.195312 296.945312c9.386719-11.835937 20.140626-22.542968 32.039063-31.855468-.488281 12.601562 7.417969 24.054687 19.457031 28.027344-9.199218 7.378906-17.535156 15.785156-24.855468 25.03125 2.257812-15.160157-12.707032-26.699219-26.640626-21.203126zm0 0" fill="#97cbef"/><path d="m370.804688 0h-251.609376c-8.324218 0-15.136718 6.8125-15.136718 15.136719v126.148437c0 8.324219 6.8125 15.136719 15.136718 15.136719h103.4375c2.21875 0 4.3125 1.019531 5.679688 2.769531l14.914062 19.097656c2.183594 2.796876 6.414063 2.796876 8.597657 0l14.492187-18.558593c1.628906-2.089844 4.132813-3.308594 6.78125-3.308594h97.707032c8.328124 0 15.136718-6.8125 15.136718-15.140625v-126.144531c0-8.324219-6.808594-15.136719-15.136718-15.136719zm0 0" fill="#d6eafc"/><path d="m156.777344 141.285156v-126.148437c0-8.324219 6.8125-15.136719 15.140625-15.136719h-52.722657c-8.324218 0-15.136718 6.8125-15.136718 15.136719v126.144531c0 8.328125 6.8125 15.140625 15.136718 15.140625h52.722657c-8.328125 0-15.140625-6.8125-15.140625-15.136719zm0 0" fill="#b7dbf6"/><path d="m191.070312 68.550781-25.515624-25.515625c-1.316407-1.316406-3.449219-1.316406-4.765626 0l-25.511718 25.515625c-.632813.632813-.988282 1.488281-.988282 2.382813v40.042968c0 1.863282 1.507813 3.371094 3.367188 3.371094h51.03125c1.863281 0 3.371094-1.507812 3.371094-3.371094v-40.046874c-.003906-.890626-.359375-1.75-.988282-2.378907zm0 0" fill="#284cb2"/><path d="m156.957031 78.28125c0-.890625.355469-1.75.984375-2.378906l20.242188-20.242188-12.628906-12.625c-1.316407-1.316406-3.449219-1.316406-4.765626 0l-25.511718 25.515625c-.632813.632813-.988282 1.488281-.988282 2.382813v40.042968c0 1.859376 1.507813 3.367188 3.367188 3.367188h19.300781zm0 0" fill="#1d3ba8"/><path d="m247.710938 61.164062v-19.9375c0-1.949218-1.578126-3.53125-3.527344-3.53125h-19.941406c-1.949219 0-3.527344 1.582032-3.527344 3.53125v19.9375c0 1.953126 1.578125 3.53125 3.527344 3.53125h19.941406c1.949218 0 3.527344-1.578124 3.527344-3.53125zm0 0" fill="#f95d95"/><path d="m301.710938 61.164062v-19.9375c0-1.949218-1.578126-3.53125-3.527344-3.53125h-19.941406c-1.949219 0-3.527344 1.582032-3.527344 3.53125v19.9375c0 1.953126 1.578125 3.53125 3.527344 3.53125h19.941406c1.949218 0 3.527344-1.578124 3.527344-3.53125zm0 0" fill="#60d882"/><path d="m247.710938 115.164062v-19.9375c0-1.949218-1.578126-3.53125-3.527344-3.53125h-19.941406c-1.949219 0-3.527344 1.582032-3.527344 3.53125v19.9375c0 1.953126 1.578125 3.53125 3.527344 3.53125h19.941406c1.949218 0 3.527344-1.578124 3.527344-3.53125zm0 0" fill="#f9ce00"/><path d="m301.710938 115.164062v-19.9375c0-1.949218-1.578126-3.53125-3.527344-3.53125h-19.941406c-1.949219 0-3.527344 1.582032-3.527344 3.53125v19.9375c0 1.953126 1.578125 3.53125 3.527344 3.53125h19.941406c1.949218 0 3.527344-1.578124 3.527344-3.53125zm0 0" fill="#06daf7"/><path d="m355.710938 61.164062v-19.9375c0-1.949218-1.578126-3.53125-3.527344-3.53125h-19.941406c-1.949219 0-3.527344 1.582032-3.527344 3.53125v19.9375c0 1.953126 1.578125 3.53125 3.527344 3.53125h19.941406c1.949218 0 3.527344-1.578124 3.527344-3.53125zm0 0" fill="#406bcc"/><path d="m355.710938 115.164062v-19.9375c0-1.949218-1.578126-3.53125-3.527344-3.53125h-19.941406c-1.949219 0-3.527344 1.582032-3.527344 3.53125v19.9375c0 1.953126 1.578125 3.53125 3.527344 3.53125h19.941406c1.949218 0 3.527344-1.578124 3.527344-3.53125zm0 0" fill="#f4b500"/><path d="m234.210938 61.164062v-19.9375c0-1.949218 1.582031-3.53125 3.53125-3.53125h-13.5c-1.949219 0-3.53125 1.582032-3.53125 3.53125v19.9375c0 1.953126 1.582031 3.53125 3.53125 3.53125h13.5c-1.949219 0-3.53125-1.578124-3.53125-3.53125zm0 0" fill="#e5387f"/><path d="m288.210938 61.164062v-19.9375c0-1.949218 1.582031-3.53125 3.53125-3.53125h-13.5c-1.949219 0-3.53125 1.582032-3.53125 3.53125v19.9375c0 1.953126 1.582031 3.53125 3.53125 3.53125h13.5c-1.949219 0-3.53125-1.578124-3.53125-3.53125zm0 0" fill="#37c47a"/><path d="m234.210938 115.164062v-19.9375c0-1.949218 1.582031-3.53125 3.53125-3.53125h-13.5c-1.949219 0-3.53125 1.582032-3.53125 3.53125v19.9375c0 1.953126 1.582031 3.53125 3.53125 3.53125h13.5c-1.949219 0-3.53125-1.578124-3.53125-3.53125zm0 0" fill="#f4b500"/><path d="m288.210938 115.164062v-19.9375c0-1.949218 1.582031-3.53125 3.53125-3.53125h-13.5c-1.949219 0-3.53125 1.582032-3.53125 3.53125v19.9375c0 1.953126 1.582031 3.53125 3.53125 3.53125h13.5c-1.949219 0-3.53125-1.578124-3.53125-3.53125zm0 0" fill="#05b8e2"/><path d="m342.210938 61.164062v-19.9375c0-1.949218 1.582031-3.53125 3.53125-3.53125h-13.5c-1.949219 0-3.53125 1.582032-3.53125 3.53125v19.9375c0 1.953126 1.582031 3.53125 3.53125 3.53125h13.5c-1.949219 0-3.53125-1.578124-3.53125-3.53125zm0 0" fill="#284cb2"/><path d="m342.210938 115.164062v-19.9375c0-1.949218 1.582031-3.53125 3.53125-3.53125h-13.5c-1.949219 0-3.53125 1.582032-3.53125 3.53125v19.9375c0 1.953126 1.582031 3.53125 3.53125 3.53125h13.5c-1.949219 0-3.53125-1.578124-3.53125-3.53125zm0 0" fill="#f29b00"/><path d="m137.902344 245.652344c.964844-.761719 1.988281-1.476563 3.074218-2.125 31.375-18.71875 67.347657-28.613282 104.023438-28.613282 36.679688 0 72.652344 9.894532 104.027344 28.613282 2.84375 1.695312 5.28125 3.8125 7.292968 6.214844.402344-.5625.78125-1.148438 1.121094-1.773438 4.550782-8.339844 1.484375-18.792969-6.855468-23.347656-32.25-17.605469-68.757813-26.914063-105.585938-26.914063-34.65625 0-69.25 8.292969-100.050781 23.984375-8.464844 4.3125-11.832031 14.675782-7.519531 23.144532.144531.28125.3125.542968.472656.816406zm0 0" fill="#55f3ff"/><path d="m206.085938 201.1875c-21.25 3.816406-41.929688 10.71875-61.136719 20.503906-8.464844 4.3125-11.832031 14.675782-7.519531 23.144532.144531.28125.3125.542968.472656.816406.964844-.761719 1.988281-1.476563 3.074218-2.125 21.359376-12.742188 44.851563-21.390625 69.242188-25.617188-8.554688-.824218-11.304688-11.996094-4.132812-16.722656zm0 0" fill="#06daf7"/><path d="m334.304688 295.566406c-4.996094 0-10.058594-1.308594-14.664063-4.054687-22.496094-13.421875-48.304687-20.515625-74.640625-20.515625s-52.144531 7.09375-74.640625 20.515625c-13.601563 8.113281-31.207031 3.664062-39.320313-9.9375-8.113281-13.601563-3.667968-31.207031 9.933594-39.320313 31.378906-18.71875 67.351563-28.613281 104.027344-28.613281 36.679688 0 72.652344 9.894531 104.027344 28.613281 13.601562 8.113282 18.050781 25.71875 9.933594 39.320313-5.367188 8.996093-14.886719 13.992187-24.65625 13.992187zm0 0" fill="#406bcc"/><path d="m333.5625 276.628906c-1.410156 0-2.84375-.316406-4.199219-.976562l-9.878906-4.84375c-4.742187-2.324219-6.703125-8.046875-4.378906-12.789063 2.324219-4.742187 8.050781-6.699219 12.789062-4.378906l9.882813 4.839844c4.738281 2.324219 6.699218 8.050781 4.375 12.792969-1.660156 3.386718-5.054688 5.355468-8.589844 5.355468zm0 0" fill="#d6eafc"/><path d="m292.585938 244.789062c0 12.433594-10.082032 22.515626-22.519532 22.515626-12.433594 0-22.515625-10.082032-22.515625-22.515626 0-12.4375 10.082031-22.519531 22.515625-22.519531 12.4375 0 22.519532 10.082031 22.519532 22.519531zm0 0" fill="#284cb2"/><path d="m192.46875 243.835938c0-11.4375 6.203125-21.421876 15.421875-26.789063-23.558594 4.363281-46.234375 12.867187-66.914063 25.207031-13.605468 8.113282-18.050781 25.71875-9.9375 39.320313 8.117188 13.601562 25.71875 18.050781 39.324219 9.933593 14.128907-8.429687 29.566407-14.359374 45.621094-17.605468-13.503906-3.339844-23.515625-15.53125-23.515625-30.066406zm0 0" fill="#284cb2"/><path d="m277.933594 251.574219c-8.089844 0-14.652344-6.558594-14.652344-14.652344 0-6.890625 4.769531-12.65625 11.179688-14.21875-1.421876-.28125-2.890626-.433594-4.394532-.433594-12.433594 0-22.515625 10.082031-22.515625 22.519531s10.082031 22.519532 22.515625 22.519532c12.4375 0 22.519532-10.082032 22.519532-22.519532 0-1.503906-.152344-2.972656-.433594-4.390624-1.558594 6.410156-7.324219 11.175781-14.21875 11.175781zm0 0" fill="#1d3ba8"/></svg>