<svg height="512pt" viewBox="0 -11 512.001 512" width="512pt" xmlns="http://www.w3.org/2000/svg"><path d="m245 0c-38.183594 0-74.324219 8.738281-106.539062 24.320312l-83.40625 375.414063c29.429687 36.089844 68.941406 63.632813 114.234374 78.339844l171.648438-7.574219c87.628906-37.328125 149.066406-124.238281 149.066406-225.5 0-135.308594-109.691406-245-245.003906-245zm0 0" fill="#f9ce00"/><path d="m269.625 408.984375c-3.816406 3.804687-8.523438 6.066406-13.625 6.066406s-9.808594-2.261719-13.625-6.066406v58.972656h27.246094v-58.972656zm0 0" fill="#284cb2"/><path d="m256 415.050781c-5.101562 0-9.808594-2.261719-13.625-6.066406v45.566406c0-7.375 6.097656-13.113281 13.472656-13.046875h.152344.152344c7.375-.066406 13.46875 5.671875 13.46875 13.046875v-45.566406c-3.8125 3.804687-8.519532 6.066406-13.621094 6.066406zm0 0" fill="#1d3ba8"/><path d="m331.804688 462.753906h-151.609376c-7.523437 0-13.621093 6.101563-13.621093 13.625 0 .277344.023437.542969.039062.8125 24.613281 8.308594 50.972657 12.8125 78.386719 12.8125 35.035156 0 68.339844-7.371094 98.480469-20.617187-2.382813-3.96875-6.710938-6.632813-11.675781-6.632813zm0 0" fill="#406bcc"/><path d="m473.515625 23.265625h-332.820313c-16.648437 7.847656-32.269531 17.519531-46.613281 28.746094l-65.210937 77.53125c-18.421875 34.402343-28.871094 73.707031-28.871094 115.457031 0 59.578125 21.273438 114.183594 56.628906 156.652344h166.609375c4.949219 0 9.535157 2.902344 11.367188 7.503906 3.386719 8.5 11.6875 14.507812 21.394531 14.507812s18.007812-6.007812 21.394531-14.507812c1.828125-4.601562 6.417969-7.503906 11.367188-7.503906h184.753906c21.253906 0 38.484375-17.230469 38.484375-38.484375v-301.417969c0-21.253906-17.230469-38.484375-38.484375-38.484375zm0 0" fill="#406bcc"/><path d="m82.722656 388.03125c0-7.523438 6.097656-13.621094 13.621094-13.621094-1.085938-3.558594-1.675781-7.332031-1.675781-11.242187v-301.417969c0-4.027344.621093-7.910156 1.769531-11.558594-.816406.625-1.617188 1.269532-2.425781 1.90625l-65.113281 77.414063c-18.433594 34.40625-28.898438 73.722656-28.898438 115.488281 0 59.578125 21.273438 114.183594 56.628906 156.652344h39.714844c-7.523438 0-13.621094-6.101563-13.621094-13.621094zm0 0" fill="#284cb2"/><path d="m473.515625 50.515625c-17.820313 0-262.671875 0-377.503906 0-28.535157 21.890625-52.117188 49.910156-68.765625 82.105469v224.757812c2.984375 5.769532 6.195312 11.402344 9.613281 16.894532.53125.074218 1.070313.128906 1.625.128906h435.03125c6.207031 0 11.238281-5.03125 11.238281-11.238282v-301.414062c0-6.203125-5.03125-11.234375-11.238281-11.234375zm0 0" fill="#d6eafc"/><path d="m96.34375 50.515625c-.105469 0-.214844 0-.320312 0-28.0625 21.527344-51.804688 49.324219-68.777344 82.148437v224.699219c2.972656 5.742188 6.210937 11.433594 9.621094 16.910157 1.710937.246093-1.667969.074218 59.472656.128906-1.082032-3.554688-1.667969-7.328125-1.667969-11.238282v-301.414062c-.003906-3.910156.585937-7.679688 1.671875-11.234375zm0 0" fill="#b7dbf6"/><path d="m264.828125 398.925781c0 4.878907-3.953125 8.832031-8.828125 8.832031s-8.828125-3.953124-8.828125-8.832031c0-4.875 3.953125-8.828125 8.828125-8.828125s8.828125 3.953125 8.828125 8.828125zm0 0" fill="#f95d95"/><path d="m444.414062 198.105469h-165.964843c-5.34375 0-9.71875-4.375-9.71875-9.71875v-98.875c0-5.347657 4.375-9.722657 9.71875-9.722657h165.964843c5.347657 0 9.722657 4.375 9.722657 9.722657v98.875c0 5.34375-4.375 9.71875-9.722657 9.71875zm0 0" fill="#60d882"/><path d="m444.414062 345.128906h-165.964843c-5.34375 0-9.71875-4.375-9.71875-9.722656v-98.875c0-5.34375 4.375-9.71875 9.71875-9.71875h165.964843c5.347657 0 9.722657 4.375 9.722657 9.71875v98.875c0 5.347656-4.375 9.722656-9.722657 9.722656zm0 0" fill="#f9ce00"/><path d="m233.550781 79.789062h-165.964843c-1.617188 0-3.144532.40625-4.488282 1.113282-1.570312 1.738281-3.113281 3.5-4.628906 5.28125-.382812 1.039062-.605469 2.15625-.605469 3.328125v98.875c0 5.34375 4.375 9.71875 9.722657 9.71875h165.964843c5.34375 0 9.71875-4.375 9.71875-9.71875v-98.875c0-5.347657-4.375-9.722657-9.71875-9.722657zm0 0" fill="#06daf7"/><path d="m67.585938 79.789062c-1.597657 0-3.105469.398438-4.441407 1.089844-1.585937 1.757813-3.152343 3.539063-4.691406 5.347656-.375 1.027344-.589844 2.132813-.589844 3.285157v98.875c0 5.34375 4.375 9.71875 9.722657 9.71875h27.082031v-118.316407zm0 0" fill="#05b8e2"/><path d="m233.550781 345.128906h-165.964843c-5.347657 0-9.722657-4.375-9.722657-9.722656v-98.875c0-5.34375 4.375-9.71875 9.722657-9.71875h165.964843c5.34375 0 9.71875 4.375 9.71875 9.71875v98.875c0 5.347656-4.375 9.722656-9.71875 9.722656zm0 0" fill="#f95d95"/><path d="m67.585938 226.8125c-5.347657 0-9.722657 4.375-9.722657 9.71875v98.875c0 5.347656 4.375 9.722656 9.722657 9.722656h27.082031v-118.316406zm0 0" fill="#ef4a8a"/><path d="m292.441406 198.875-33.332031-33.332031c-1.714844-1.714844-4.503906-1.714844-6.21875 0l-33.332031 33.332031c-.824219.824219-1.289063 1.941406-1.289063 3.109375v43.949219c0 2.433594 1.96875 4.402344 4.402344 4.402344h66.65625c2.433594 0 4.402344-1.972657 4.402344-4.402344v-43.949219c0-1.167969-.464844-2.285156-1.289063-3.109375zm0 0" fill="#06daf7"/><path d="m267.34375 250.304688c.414062 0 .820312.011718 1.230469.03125v-20.664063c0-6.945313-5.628907-12.574219-12.574219-12.574219s-12.574219 5.628906-12.574219 12.574219v20.628906h23.917969zm0 0" fill="#06daf7"/><path d="m306.035156 171.257812c-22.761718-27.640624-63.621094-31.59375-91.257812-8.828124-27.640625 22.761718-31.59375 63.617187-8.832032 91.257812 22.761719 27.640625 63.621094 31.59375 91.257813 8.828125 27.640625-22.761719 31.59375-63.621094 8.832031-91.257813zm0 0" fill="#284cb2"/><path d="m273.125 245.261719c-5.757812-6.992188-8.34375-15.546875-7.929688-23.929688.359376-7.257812-4.933593-13.683593-12.125-14.722656-8.304687-1.199219-16.207031-5.378906-21.964843-12.367187-9.703125-11.777344-10.402344-28.003907-2.917969-40.355469-5.996094 2.851562-11.679688 6.675781-16.804688 11.53125-23.328124 22.082031-26.90625 58.398437-8.265624 84.554687 22.058593 30.953125 65.269531 36.277344 94.101562 12.53125 1.761719-1.453125 3.425781-2.980468 4.996094-4.574218-10.777344.640624-21.699219-3.695313-29.089844-12.667969zm0 0" fill="#1d3ba8"/><path d="m292.441406 198.875-33.332031-33.332031c-1.714844-1.714844-4.503906-1.714844-6.21875 0l-33.332031 33.332031c-.824219.824219-1.289063 1.941406-1.289063 3.109375v43.949219c0 2.433594 1.96875 4.402344 4.402344 4.402344h66.65625c2.433594 0 4.402344-1.972657 4.402344-4.402344v-43.949219c0-1.167969-.464844-2.285156-1.289063-3.109375zm0 0" fill="#55f3ff"/><path d="m243.425781 208.652344c0-1.164063.464844-2.285156 1.289063-3.109375l27.195312-27.199219-12.800781-12.800781c-1.71875-1.714844-4.503906-1.714844-6.222656 0l-33.328125 33.332031c-.824219.824219-1.289063 1.941406-1.289063 3.109375v43.949219c0 2.433594 1.96875 4.402344 4.398438 4.402344h20.757812zm0 0" fill="#06daf7"/><path d="m267.34375 250.304688c.414062 0 .820312.011718 1.230469.03125v-20.664063c0-6.945313-5.628907-12.574219-12.574219-12.574219s-12.574219 5.628906-12.574219 12.574219v20.628906h23.917969zm0 0" fill="#05b8e2"/><path d="m164.375 289.136719c-3.878906 0-7.023438-3.144531-7.023438-7.019531v-15.285157c0-5.949219-4.839843-10.792969-10.789062-10.792969-5.953125 0-10.792969 4.84375-10.792969 10.792969v15.285157c0 3.875-3.144531 7.019531-7.023437 7.019531s-7.019532-3.144531-7.019532-7.019531v-15.285157c0-13.695312 11.140626-24.835937 24.835938-24.835937 13.691406 0 24.835938 11.140625 24.835938 24.835937v15.285157c0 3.875-3.144532 7.019531-7.023438 7.019531zm0 0" fill="#d6eafc"/><path d="m366.167969 257.003906c3.535156 0 6.398437-2.863281 6.398437-6.398437v-2.210938c0-3.535156-2.867187-6.398437-6.398437-6.398437s-6.398438 2.863281-6.398438 6.398437v2.210938c0 3.535156 2.867188 6.398437 6.398438 6.398437zm0 0" fill="#fff"/><path d="m366.167969 327.925781c3.535156 0 6.398437-2.863281 6.398437-6.398437v-2.210938c0-3.53125-2.867187-6.398437-6.398437-6.398437s-6.398438 2.867187-6.398438 6.398437v2.210938c0 3.535156 2.867188 6.398437 6.398438 6.398437zm0 0" fill="#d6eafc"/><path d="m341.957031 270.984375c1.765625-3.0625.71875-6.972656-2.34375-8.742187l-1.914062-1.105469c-3.058594-1.765625-6.972657-.71875-8.738281 2.34375-1.769532 3.058593-.71875 6.972656 2.339843 8.738281l1.917969 1.105469c3.058594 1.765625 6.96875.71875 8.738281-2.339844zm0 0" fill="#d6eafc"/><path d="m403.375 306.445312c1.769531-3.0625.71875-6.972656-2.339844-8.742187l-1.917968-1.105469c-3.058594-1.765625-6.96875-.71875-8.738282 2.34375-1.765625 3.058594-.71875 6.972656 2.34375 8.738282l1.914063 1.105468c3.0625 1.765625 6.972656.71875 8.738281-2.339844zm0 0" fill="#fff"/><path d="m341.957031 298.941406c-1.769531-3.0625-5.679687-4.109375-8.738281-2.34375l-1.917969 1.105469c-3.058593 1.765625-4.109375 5.679687-2.339843 8.742187 1.765624 3.058594 5.679687 4.105469 8.738281 2.339844l1.914062-1.105468c3.0625-1.765626 4.109375-5.679688 2.34375-8.738282zm0 0" fill="#d6eafc"/><path d="m403.378906 263.480469c-1.769531-3.0625-5.679687-4.109375-8.742187-2.34375l-1.914063 1.105469c-3.0625 1.769531-4.109375 5.679687-2.339844 8.742187 1.765626 3.058594 5.675782 4.105469 8.738282 2.339844l1.914062-1.105469c3.058594-1.765625 4.109375-5.679688 2.34375-8.738281zm0 0" fill="#fff"/><path d="m144.3125 249.777344c0-3.617188 2.46875-6.648438 5.816406-7.519532-15.082031-2.179687-28.402344 9.574219-28.402344 24.574219v15.285157c0 3.875 3.140626 7.019531 7.019532 7.019531s7.023437-3.144531 7.023437-7.019531v-15.285157c0-6.269531 5.382813-11.328125 11.789063-10.742187-1.964844-1.410156-3.246094-3.710938-3.246094-6.3125zm0 0" fill="#b7dbf6"/><path d="m167.671875 327.925781h-42.222656c-4.859375 0-8.835938-3.976562-8.835938-8.835937v-31.882813c0-4.859375 3.976563-8.835937 8.835938-8.835937h42.222656c4.859375 0 8.835937 3.976562 8.835937 8.835937v31.882813c0 4.859375-3.976562 8.835937-8.835937 8.835937zm0 0" fill="#284cb2"/><path d="m137.195312 320.152344c0-4.097656 2.617188-7.480469 6.136719-8.789063-2.925781-1.609375-4.871093-4.730469-4.871093-8.214843 0-3.597657 2.019531-6.636719 4.894531-8.210938-3.628907-1.324219-6.160157-4.816406-6.160157-8.789062 0-3.285157 1.683594-6.113282 4.164063-7.777344h-15.910156c-4.859375 0-8.835938 3.976562-8.835938 8.835937v31.882813c0 4.859375 3.976563 8.835937 8.835938 8.835937h15.898437c-2.519531-1.699219-4.152344-4.582031-4.152344-7.773437zm0 0" fill="#1d3ba8"/><path d="m146.558594 312.511719c-5.257813 0-9.363282-4.300781-9.363282-9.363281 0-5.910157 5.4375-10.34375 11.195313-9.183594 4.464844.90625 7.539063 4.820312 7.539063 9.183594 0 5.339843-4.378907 9.363281-9.371094 9.363281zm0 0" fill="#406bcc"/><path d="m389.6875 127.398438-19.71875-25.472657c-1.925781-2.484375-5.675781-2.484375-7.597656 0l-19.722656 25.472657c-15.132813 19.546874-1.203126 47.953124 23.519531 47.953124 24.722656 0 38.652343-28.40625 23.519531-47.953124zm0 0" fill="#d6eafc"/><path d="m360.402344 137.507812 6.480468-31.554687c.378907-1.84375 1.742188-3.171875 3.378907-3.644531l-.296875-.382813c-1.921875-2.484375-5.671875-2.484375-7.597656 0l-19.71875 25.472657c-15.132813 19.546874-1.203126 47.953124 23.519531 47.953124 5.28125 0 10.066406-1.304687 14.1875-3.535156-13.433594-4.4375-23.242188-18.3125-19.953125-34.308594zm0 0" fill="#b7dbf6"/><path d="m385.066406 284.960938c0 10.4375-8.460937 18.898437-18.898437 18.898437s-18.898438-8.460937-18.898438-18.898437 8.460938-18.894532 18.898438-18.894532 18.898437 8.457032 18.898437 18.894532zm0 0" fill="#fff"/><path d="m372.867188 290.460938c-6.738282 0-12.199219-5.460938-12.199219-12.199219 0-5.714844 3.9375-10.5 9.246093-11.820313-1.210937-.246094-2.464843-.375-3.746093-.375-10.4375 0-18.898438 8.457032-18.898438 18.894532s8.460938 18.898437 18.898438 18.898437 18.894531-8.460937 18.894531-18.898437c0-1.28125-.128906-2.535157-.375-3.746094-1.320312 5.308594-6.105469 9.246094-11.820312 9.246094zm0 0" fill="#d6eafc"/><path d="m173.40625 146.359375c2.144531-3.628906.9375-8.3125-2.691406-10.453125-15.238282-8.996094-33.042969-9.007812-48.300782 0-3.628906 2.140625-4.835937 6.820312-2.691406 10.453125 2.140625 3.628906 6.820313 4.835937 10.453125 2.691406 10.4375-6.160156 22.320313-6.175781 32.777344 0 3.628906 2.144531 8.308594.941407 10.453125-2.691406zm0 0" fill="#fff"/><path d="m115.078125 126.8125c19.765625-13.441406 43.179687-13.457031 62.96875-.003906 3.484375 2.371094 8.234375 1.46875 10.601563-2.015625 2.371093-3.488281 1.46875-8.234375-2.019532-10.605469-24.890625-16.929688-55.199218-16.960938-80.136718.003906-3.488282 2.367188-4.390626 7.117188-2.019532 10.601563 2.367188 3.480469 7.113282 4.394531 10.605469 2.019531zm0 0" fill="#fff"/><g fill="#d6eafc"><path d="m155.636719 167.34375c0 5.011719-4.0625 9.074219-9.074219 9.074219-5.007812 0-9.070312-4.0625-9.070312-9.074219 0-5.007812 4.0625-9.070312 9.070312-9.070312 5.011719 0 9.074219 4.0625 9.074219 9.070312zm0 0"/><path d="m141.496094 137.207031c0-3.5 1.984375-6.535156 4.890625-8.046875-8.203125.03125-16.402344 2.273438-23.972657 6.746094-3.628906 2.140625-4.835937 6.820312-2.691406 10.453125 2.140625 3.628906 6.820313 4.835937 10.453125 2.691406 4.78125-2.824219 9.867188-4.339843 14.980469-4.578125-2.21875-1.652344-3.660156-4.289062-3.660156-7.265625zm0 0"/><path d="m141.496094 109.550781c0-3.519531 2.007812-6.5625 4.9375-8.066406-13.757813.023437-27.515625 4.253906-39.941406 12.707031-3.484376 2.367188-4.390626 7.117188-2.019532 10.601563 2.367188 3.480469 7.113282 4.394531 10.605469 2.019531 9.425781-6.414062 19.6875-9.761719 29.988281-10.058594-2.167968-1.660156-3.570312-4.261718-3.570312-7.203125zm0 0"/></g><path d="m233.125 476.378906c0-6.058594 3.609375-11.269531 8.785156-13.625h-61.714844c-7.523437 0-13.625 6.097656-13.625 13.625 0 .273438.027344.542969.042969.8125 23.664063 7.984375 48.949219 12.445313 75.230469 12.777344-5.140625-2.371094-8.71875-7.554688-8.71875-13.589844zm0 0" fill="#284cb2"/></svg>