<svg height="511pt" viewBox="-10 0 511 511.99971" width="511pt" xmlns="http://www.w3.org/2000/svg"><path d="m87.601562 454.316406h315.800782c53.257812-44.945312 87.097656-112.171875 87.097656-187.316406 0-135.3125-109.6875-245.003906-245-245.003906-135.308594 0-245 109.691406-245 245.003906 0 75.144531 33.839844 142.371094 87.101562 187.316406zm0 0" fill="#ef4a8a"/><path d="m425.613281 204.113281c-9.199219 0-16.722656 7.523438-16.722656 16.71875v18.578125c0 9.199219 7.523437 16.722656 16.722656 16.722656 9.195313 0 16.71875-7.523437 16.71875-16.722656v-18.578125c0-9.195312-7.523437-16.71875-16.71875-16.71875zm0 0" fill="#d6eafc"/><path d="m425.613281 308.980469c-9.199219 0-16.722656 7.523437-16.722656 16.722656v53.671875c0 9.195312 7.523437 16.722656 16.722656 16.722656 9.195313 0 16.71875-7.527344 16.71875-16.722656v-53.671875c0-9.199219-7.523437-16.722656-16.71875-16.722656zm0 0" fill="#284cb2"/><path d="m425.613281 352.539062c-9.199219 0-16.722656-7.523437-16.722656-16.722656v43.558594c0 9.199219 7.523437 16.722656 16.722656 16.722656 9.195313 0 16.71875-7.523437 16.71875-16.722656v-43.558594c0 9.199219-7.523437 16.722656-16.71875 16.722656zm0 0" fill="#1d3ba8"/><path d="m343.8125 115.777344c-204.75 1.054687-199.476562-2.382813-217.160156 3.097656h-.519532c27.882813-8.550781 33.367188-33.25 34.0625-36.730469l4.359376-65.035156c.65625-4.585937 4.113281-8.65625 8.972656-9.730469 43.882812-9.679687 102.679687-9.539062 144.179687-1.320312 3.890625.773437 6.867188 3.914062 7.425781 7.839844l4.726563 67.769531s3.707031 26.742187 32.101563 36.527343c-5.789063-1.566406-11.867188-2.417968-18.148438-2.417968zm0 0" fill="#284cb2"/><path d="m210.125 82.144531 3.28125-73.035156c.335938-3.140625 1.664062-6.039063 3.644531-7.898437-15.289062 1.171874-30.105469 3.210937-43.523437 6.167968-4.859375 1.074219-8.316406 5.144532-8.972656 9.730469l-4.359376 65.035156c-.695312 3.480469-6.179687 28.179688-34.0625 36.730469h.519532c11.097656-3.4375 13.160156-3.367188 63.75-3.09375 15.867187-10.292969 19.253906-30.511719 19.722656-33.636719zm0 0" fill="#1d3ba8"/><path d="m245.5 512c40.378906 0 78.46875-9.773438 112.050781-27.074219-12.234375 2.667969-25.367187.554688-210.363281 1.308594-4.777344 0-9.441406-.496094-13.953125-1.421875 33.632813 17.371094 71.800781 27.1875 112.265625 27.1875zm0 0" fill="#284cb2"/><path d="m245.5 512c40.378906 0 78.46875-9.773438 112.050781-27.074219-12.234375 2.667969-25.367187.554688-210.363281 1.308594-4.777344 0-9.441406-.496094-13.953125-1.421875 33.632813 17.371094 71.800781 27.1875 112.265625 27.1875zm0 0" fill="#284cb2"/><path d="m195.152344 486.089844c-14.550782.023437-30.492188.070312-47.964844.140625-4.777344 0-9.441406-.496094-13.953125-1.417969 16.507813 8.523438 34.109375 15.226562 52.535156 19.84375-1.867187-7.90625 2.347657-15.582031 9.382813-18.566406zm0 0" fill="#1d3ba8"/><path d="m343.8125 113.355469h-196.625c-38.332031 0-69.519531 31.183593-69.519531 69.519531v236.257812c0 12.601563 3.386719 24.421876 9.273437 34.625 16.121094 13.699219 34.035156 25.355469 53.347656 34.554688 2.269532.222656 4.570313.34375 6.898438.34375h196.625c2.328125 0 4.628906-.121094 6.894531-.34375 19.316407-9.199219 37.230469-20.855469 53.351563-34.554688 5.886718-10.203124 9.273437-22.023437 9.273437-34.625v-236.257812c0-38.335938-31.183593-69.519531-69.519531-69.519531zm0 0" fill="#b7dbf6"/><path d="m180.714844 471.628906c0-8.757812 5.976562-16.097656 14.066406-18.226562v-305.097656c-8.089844-2.128907-14.066406-9.472657-14.066406-18.230469 0-7.269531 4.117187-13.570313 10.144531-16.71875h-43.671875c-38.332031 0-69.519531 31.183593-69.519531 69.519531v236.257812c0 12.601563 3.386719 24.421876 9.273437 34.625 16.121094 13.699219 34.035156 25.355469 53.347656 34.554688 2.269532.222656 4.570313.34375 6.898438.34375h44.296875c-6.359375-3.035156-10.769531-9.507812-10.769531-17.027344zm0 0" fill="#97cbef"/><path d="m147.1875 146.796875c-19.894531 0-36.078125 16.183594-36.078125 36.078125v236.257812c0 19.894532 16.183594 36.078126 36.078125 36.078126h196.625c19.894531 0 36.078125-16.183594 36.078125-36.078126v-236.257812c0-19.894531-16.183594-36.078125-36.078125-36.078125zm0 0" fill="#d6eafc"/><path d="m191.050781 455.199219c-1.230469-1.027344-2.226562-2.296875-2.976562-3.710938-5.109375-9.671875-8.019531-20.675781-8.019531-32.355469v-236.257812c0-13.203125 3.699218-25.554688 10.117187-36.078125h-42.984375c-19.921875 0-36.074219 16.152344-36.074219 36.078125v236.257812c0 19.925782 16.152344 36.078126 36.074219 36.078126h43.882812c-.007812-.003907-.011718-.007813-.019531-.011719zm0 0" fill="#b7dbf6"/><path d="m217.292969 226.703125-30.003907-30c-1.546874-1.546875-4.050781-1.546875-5.597656 0l-30 30c-.742187.742187-1.160156 1.75-1.160156 2.800781v47.082032c0 2.1875 1.773438 3.960937 3.957031 3.960937h60.003907c2.1875 0 3.960937-1.773437 3.960937-3.960937v-47.082032c0-1.050781-.417969-2.058594-1.160156-2.800781zm0 0" fill="#284cb2"/><path d="m179.863281 236.503906c0-1.050781.417969-2.058594 1.160157-2.800781l21.636718-21.632813-15.367187-15.367187c-1.546875-1.546875-4.054688-1.546875-5.601563 0l-30 30c-.746094.742187-1.160156 1.75-1.160156 2.800781v47.085938c0 2.1875 1.769531 3.957031 3.957031 3.957031h25.375zm0 0" fill="#1d3ba8"/><path d="m276.980469 344.214844v-23.441406c0-2.292969-1.859375-4.152344-4.152344-4.152344h-23.445313c-2.292968 0-4.148437 1.859375-4.148437 4.152344v23.441406c0 2.292968 1.855469 4.152344 4.148437 4.152344h23.445313c2.292969 0 4.152344-1.859376 4.152344-4.152344zm0 0" fill="#f95d95"/><path d="m340.472656 344.214844v-23.441406c0-2.292969-1.859375-4.152344-4.152344-4.152344h-23.445312c-2.289062 0-4.148438 1.859375-4.148438 4.152344v23.441406c0 2.292968 1.855469 4.152344 4.148438 4.152344h23.445312c2.292969 0 4.152344-1.859376 4.152344-4.152344zm0 0" fill="#60d882"/><path d="m276.980469 407.707031v-23.441406c0-2.292969-1.859375-4.152344-4.152344-4.152344h-23.445313c-2.292968 0-4.148437 1.859375-4.148437 4.152344v23.441406c0 2.292969 1.855469 4.152344 4.148437 4.152344h23.445313c2.292969 0 4.152344-1.859375 4.152344-4.152344zm0 0" fill="#f9ce00"/><path d="m340.472656 407.707031v-23.441406c0-2.292969-1.859375-4.152344-4.152344-4.152344h-23.445312c-2.289062 0-4.148438 1.859375-4.148438 4.152344v23.441406c0 2.292969 1.855469 4.152344 4.148438 4.152344h23.445312c2.292969 0 4.152344-1.859375 4.152344-4.152344zm0 0" fill="#06daf7"/><path d="m261.105469 344.214844v-23.441406c0-2.292969 1.859375-4.152344 4.152343-4.152344h-15.875c-2.292968 0-4.148437 1.859375-4.148437 4.152344v23.441406c0 2.292968 1.855469 4.152344 4.148437 4.152344h15.875c-2.292968 0-4.152343-1.859376-4.152343-4.152344zm0 0" fill="#e5387f"/><path d="m324.597656 344.214844v-23.441406c0-2.292969 1.859375-4.152344 4.152344-4.152344h-15.875c-2.292969 0-4.148438 1.859375-4.148438 4.152344v23.441406c0 2.292968 1.855469 4.152344 4.148438 4.152344h15.875c-2.292969 0-4.152344-1.859376-4.152344-4.152344zm0 0" fill="#37c47a"/><path d="m261.105469 407.707031v-23.441406c0-2.292969 1.859375-4.152344 4.152343-4.152344h-15.875c-2.292968 0-4.148437 1.859375-4.148437 4.152344v23.441406c0 2.292969 1.855469 4.152344 4.148437 4.152344h15.875c-2.292968 0-4.152343-1.859375-4.152343-4.152344zm0 0" fill="#f4b500"/><path d="m324.597656 407.707031v-23.441406c0-2.292969 1.859375-4.152344 4.152344-4.152344h-15.875c-2.292969 0-4.148438 1.859375-4.148438 4.152344v23.441406c0 2.292969 1.855469 4.152344 4.148438 4.152344h15.875c-2.292969 0-4.152344-1.859375-4.152344-4.152344zm0 0" fill="#05b8e2"/><path d="m214.140625 341.3125h-29.648437c-4.871094 0-8.820313-3.949219-8.820313-8.816406 0-4.871094 3.949219-8.820313 8.820313-8.820313h29.648437c4.871094 0 8.820313 3.949219 8.820313 8.820313 0 4.867187-3.949219 8.816406-8.820313 8.816406zm0 0" fill="#97cbef"/><path d="m184.492188 343.078125h-29.652344c-5.84375 0-10.582032-4.738281-10.582032-10.582031 0-5.847656 4.738282-10.582032 10.582032-10.582032h29.652344c5.84375 0 10.582031 4.738282 10.582031 10.582032s-4.738281 10.582031-10.582031 10.582031zm0 0" fill="#284cb2"/><path d="m214.140625 375.117188h-44.480469c-4.871094 0-8.816406-3.949219-8.816406-8.820313s3.949219-8.816406 8.816406-8.816406h44.480469c4.871094 0 8.820313 3.949219 8.820313 8.816406 0 4.871094-3.949219 8.820313-8.820313 8.820313zm0 0" fill="#97cbef"/><path d="m169.660156 376.878906h-14.820312c-5.84375 0-10.582032-4.738281-10.582032-10.582031s4.738282-10.582031 10.582032-10.582031h14.820312c5.84375 0 10.582032 4.738281 10.582032 10.582031 0 5.847656-4.738282 10.582031-10.582032 10.582031zm0 0" fill="#284cb2"/><path d="m214.140625 408.917969h-15.730469c-4.871094 0-8.816406-3.945313-8.816406-8.816407 0-4.871093 3.945312-8.816406 8.816406-8.816406h15.730469c4.871094 0 8.820313 3.945313 8.820313 8.816406 0 4.871094-3.949219 8.816407-8.820313 8.816407zm0 0" fill="#97cbef"/><path d="m198.410156 410.683594h-43.570312c-5.84375 0-10.582032-4.738282-10.582032-10.582032s4.738282-10.582031 10.582032-10.582031h43.570312c5.84375 0 10.582032 4.738281 10.582032 10.582031s-4.738282 10.582032-10.582032 10.582032zm0 0" fill="#284cb2"/><g fill="#06daf7"><path d="m268.949219 248.121094c-2.476563-4.191406-1.085938-9.597656 3.109375-12.074219 17.089844-10.09375 37.078125-10.105469 54.191406-.003906 4.191406 2.476562 5.585938 7.882812 3.109375 12.078125-2.476563 4.195312-7.882813 5.585937-12.074219 3.113281-11.230468-6.632813-24.386718-7.011719-36.261718 0-4.191407 2.472656-9.597657 1.082031-12.074219-3.113281zm0 0"/><path d="m334.109375 222.40625c-21.949219-14.925781-47.9375-14.941406-69.90625 0-4.027344 2.742188-9.511719 1.695312-12.25-2.332031-2.738281-4.027344-1.695313-9.511719 2.332031-12.253907 27.875-18.953124 61.820313-18.988281 89.742188.003907 4.027344 2.742187 5.074218 8.226562 2.332031 12.25-2.734375 4.023437-8.21875 5.078125-12.25 2.332031zm0 0"/><path d="m299.160156 285.105469c-6.503906 0-11.757812-5.273438-11.757812-11.757813 0-7.492187 6.890625-12.96875 14.050781-11.527344 5.625 1.152344 9.453125 6.007813 9.453125 11.527344 0 6.460938-5.222656 11.757813-11.746094 11.757813zm0 0"/></g><path d="m293.152344 238.042969c0-4.023438 1.996094-7.453125 4.949218-9.554688-8.925781.183594-17.820312 2.699219-26.042968 7.554688-4.195313 2.480469-5.585938 7.886719-3.109375 12.078125 2.476562 4.195312 7.882812 5.585937 12.078125 3.109375 5.003906-2.957031 10.238281-4.582031 15.457031-4.996094-2.058594-2.117187-3.332031-5.003906-3.332031-8.191406zm0 0" fill="#05b8e2"/><path d="m293.152344 203.109375c0-3.988281 1.960937-7.386719 4.867187-9.496094-15.085937.226563-30.132812 4.960938-43.734375 14.207031-4.023437 2.742188-5.070312 8.226563-2.332031 12.253907 2.742187 4.023437 8.226563 5.070312 12.25 2.332031 10.160156-6.910156 21.179687-10.613281 32.257813-11.128906-2.046876-2.117188-3.308594-4.996094-3.308594-8.167969zm0 0" fill="#05b8e2"/></svg>