<svg height="512pt" viewBox="0 0 512.00039 512" width="512pt" xmlns="http://www.w3.org/2000/svg"><path d="m449.851562 416.820312c32.058594-41.421874 51.148438-93.386718 51.148438-149.820312 0-135.3125-109.691406-245-245-245s-245 109.6875-245 245c0 37.734375 8.539062 73.472656 23.777344 105.398438zm0 0" fill="#f9ce00"/><path d="m451.265625 119.027344c-8.332031-10.980469-17.566406-21.234375-27.597656-30.652344h-227.285157v75.242188h34.035157c3.25 0 5.882812 2.632812 5.882812 5.882812v322.746094h116.207031c39.273438-16.847656 73.253907-43.667969 98.757813-77.273438zm0 0" fill="#d6eafc"/><path d="m268.820312 492.246094v-390.707032c0-7.242187 5.925782-13.164062 13.164063-13.164062h-85.601563v75.242188h34.03125c3.25 0 5.886719 2.632812 5.886719 5.882812v322.746094zm0 0" fill="#b7dbf6"/><path d="m33.792969 370.292969c25.03125 53.753906 68.988281 96.910156 123.308593 120.910156h81.289063v-160.9375h-204.597656zm0 0" fill="#d6eafc"/><path d="m147.28125 330.265625h-113.488281v40.03125c23.503906 50.472656 63.695312 91.601563 113.488281 116.300781zm0 0" fill="#b7dbf6"/><path d="m232.507812 161.523438h-226.621093c-3.25 0-5.886719 2.632812-5.886719 5.882812v37.21875h48.09375v84.628906h-48.09375v37.21875c0 3.25 2.636719 5.882813 5.886719 5.882813h232.503906v-164.949219c0-3.25-2.632813-5.882812-5.882813-5.882812zm0 0" fill="#406bcc"/><g fill="#284cb2"><path d="m49.09375 204.625v-37.21875c0-3.25 2.636719-5.882812 5.886719-5.882812h-49.09375c-3.25 0-5.886719 2.632812-5.886719 5.882812v37.21875zm0 0"/><path d="m49.09375 326.472656v-37.21875h-49.09375v37.21875c0 3.25 2.636719 5.886719 5.886719 5.886719h49.09375c-3.25 0-5.886719-2.636719-5.886719-5.886719zm0 0"/><path d="m79.738281 437.148438c8.230469 8.523437 17.074219 16.449218 26.457031 23.710937h86.253907v-28.246094h-112.710938zm0 0"/></g><path d="m157.101562 491.203125h35.347657v-30.34375h-86.253907c15.585938 12.0625 32.660157 22.28125 50.90625 30.34375zm0 0" fill="#406bcc"/><path d="m79.738281 404.363281h112.710938v28.25h-112.710938zm0 0" fill="#406bcc"/><path d="m186.3125 376.117188h-100.4375c-3.390625 0-6.136719 2.746093-6.136719 6.136718v22.109375h112.710938v-22.109375c0-3.390625-2.746094-6.136718-6.136719-6.136718zm0 0" fill="#284cb2"/><path d="m45.136719 290.214844v-86.550782h56.960937v86.550782zm0 0" fill="#55f3ff"/><path d="m371.816406 454.722656c0 3.390625 2.75 6.136719 6.136719 6.136719h27.851563c5.203124-4.027344 10.25-8.25 15.109374-12.671875v-43.824219h-49.09375v50.359375zm0 0" fill="#55f3ff"/><path d="m189.742188 203.664062h-45.40625v86.550782h45.40625c3.667968 0 6.640624-2.804688 6.640624-6.261719v-74.027344c0-3.457031-2.972656-6.261719-6.640624-6.261719zm0 0" fill="#55f3ff"/><path d="m336.492188 376.117188h-62.773438c-2.703125 0-4.898438 2.191406-4.898438 4.898437v23.347656h72.570313v-23.347656c0-2.707031-2.195313-4.898437-4.898437-4.898437zm0 0" fill="#1d3ba8"/><path d="m416.015625 376.117188h-39.300781c-2.703125 0-4.894532 2.191406-4.894532 4.898437v23.347656h49.09375v-23.347656c0-2.707031-2.195312-4.898437-4.898437-4.898437zm0 0" fill="#06daf7"/><path d="m268.820312 404.363281h72.570313v86.839844h-72.570313zm0 0" fill="#406bcc"/><path d="m310.003906 376.117188h-36.285156c-2.703125 0-4.898438 2.191406-4.898438 4.898437v23.347656h36.285157v-23.347656c0-2.707031 2.191406-4.898437 4.898437-4.898437zm0 0" fill="#122894"/><path d="m268.820312 404.363281h36.285157v86.839844h-36.285157zm0 0" fill="#284cb2"/><path d="m238.390625 333.679688c-4.332031 0-7.84375-3.515626-7.84375-7.847657v-64.53125c0-4.335937 3.511719-7.847656 7.84375-7.847656 4.335937 0 7.847656 3.511719 7.847656 7.847656v64.53125c0 4.332031-3.511719 7.847657-7.847656 7.847657zm0 0" fill="#97cbef"/><path d="m274.367188 333.679688c-4.335938 0-7.847657-3.515626-7.847657-7.847657v-64.53125c0-4.335937 3.511719-7.847656 7.847657-7.847656 4.332031 0 7.84375 3.511719 7.84375 7.847656v64.53125c0 4.332031-3.511719 7.847657-7.84375 7.847657zm0 0" fill="#97cbef"/><path d="m451.597656 90.46875h-255.546875c-7.800781 0-14.125-6.324219-14.125-14.125s6.324219-14.125 14.125-14.125h255.546875c7.804688 0 14.125 6.324219 14.125 14.125s-6.320312 14.125-14.125 14.125zm0 0" fill="#b7dbf6"/><path d="m263.257812 76.34375c0-7.800781 6.324219-14.125 14.125-14.125h-81.335937c-7.796875 0-14.121094 6.324219-14.121094 14.125s6.324219 14.125 14.121094 14.125h81.335937c-7.800781 0-14.125-6.324219-14.125-14.125zm0 0" fill="#97cbef"/><path d="m152.441406 489.082031c31.460938 14.695313 66.546875 22.917969 103.558594 22.917969 36.96875 0 72.015625-8.203125 103.449219-22.867188-60.964844-.011718-141.125-.035156-207.007813-.050781zm0 0" fill="#60d882"/><path d="m268.617188 489.109375c-39.332032-.007813-79.914063-.019531-116.175782-.027344 31.460938 14.695313 66.546875 22.917969 103.558594 22.917969 4.191406 0 8.355469-.121094 12.496094-.328125-8.929688-4.34375-8.703125-18.269531.121094-22.5625zm0 0" fill="#37c47a"/><path d="m338.347656 318.234375h-99.957031c-7.800781 0-14.121094 6.324219-14.121094 14.125s6.320313 14.121094 14.121094 14.121094h99.957031zm0 0" fill="#b7dbf6"/><path d="m318.691406 253.453125h-87.359375c-4.335937 0-7.847656 3.511719-7.847656 7.847656 0 4.332031 3.511719 7.847657 7.847656 7.847657h87.359375zm0 0" fill="#b7dbf6"/><path d="m267.175781 332.359375c0-7.800781 6.324219-14.125 14.125-14.125h-42.910156c-7.800781 0-14.121094 6.324219-14.121094 14.125s6.320313 14.121094 14.121094 14.121094h42.910156c-7.800781 0-14.125-6.320313-14.125-14.121094zm0 0" fill="#97cbef"/><path d="m266.394531 261.300781c0-4.335937 3.511719-7.847656 7.847657-7.847656h-42.910157c-4.335937 0-7.847656 3.511719-7.847656 7.847656 0 4.332031 3.511719 7.847657 7.847656 7.847657h42.90625c-4.332031-.003907-7.84375-3.515626-7.84375-7.847657zm0 0" fill="#97cbef"/><path d="m464.558594 349.316406h-113.136719c-26.160156 0-47.441406-21.285156-47.441406-47.441406v-254.433594c0-26.160156 21.28125-47.441406 47.441406-47.441406h113.136719c26.160156 0 47.441406 21.28125 47.441406 47.441406v254.433594c0 26.15625-21.28125 47.441406-47.441406 47.441406zm0 0" fill="#284cb2"/><path d="m357.957031 335.722656c0-7.296875 4.476563-13.546875 10.832031-16.167968v-288.738282c-4.785156-3.121094-7.957031-8.511718-7.957031-14.652344 0-7.292968 4.46875-13.539062 10.816407-16.164062h-20.226563c-26.160156 0-47.441406 21.28125-47.441406 47.441406v254.433594c0 26.160156 21.28125 47.441406 47.441406 47.441406h13.027344c-3.957031-3.207031-6.492188-8.101562-6.492188-13.59375zm0 0" fill="#1d3ba8"/><path d="m464.558594 28.25h-15.582032c-3.382812 0-6.351562 2.148438-7.507812 5.324219-3.039062 8.332031-11.050781 14.324219-20.402344 14.324219h-26.15625c-9.347656 0-17.359375-5.992188-20.398437-14.324219-1.160157-3.175781-4.128907-5.324219-7.507813-5.324219h-15.582031c-10.601563 0-19.195313 8.589844-19.195313 19.191406v254.433594c0 10.597656 8.59375 19.191406 19.195313 19.191406h113.136719c10.601562 0 19.191406-8.59375 19.191406-19.191406v-254.433594c.003906-10.601562-8.589844-19.191406-19.191406-19.191406zm0 0" fill="#d6eafc"/><path d="m361.511719 301.875v-254.433594c0-6.828125 1.464843-13.320312 4.074219-19.191406h-14.164063c-10.601563 0-19.195313 8.589844-19.195313 19.191406v254.433594c0 10.597656 8.59375 19.191406 19.195313 19.191406h14.164063c-2.609376-5.871094-4.074219-12.363281-4.074219-19.191406zm0 0" fill="#b7dbf6"/><path d="m467.207031 120.675781c0 32.644531-26.464843 59.109375-59.113281 59.109375-32.644531 0-59.109375-26.464844-59.109375-59.109375 0-32.648437 26.464844-59.113281 59.109375-59.113281 32.648438 0 59.113281 26.464844 59.113281 59.113281zm0 0" fill="#06daf7"/><path d="m437.535156 170.714844c-17.808594 0-32.246094-14.4375-32.246094-32.246094 0-5.691406 1.480469-11.035156 4.066407-15.675781-.257813.003906-.515625.019531-.777344.019531-17.808594 0-32.246094-14.4375-32.246094-32.25 0-10.671875 5.1875-20.132812 13.179688-26-23.539063 7.792969-40.527344 29.960938-40.527344 56.113281 0 32.644531 26.464844 59.109375 59.109375 59.109375 11.613281 0 22.4375-3.363281 31.570312-9.148437-.703124.046875-1.410156.078125-2.128906.078125zm0 0" fill="#05b8e2"/><path d="m467.207031 247.628906c0 32.644532-26.464843 59.109375-59.113281 59.109375-32.644531 0-59.109375-26.464843-59.109375-59.109375 0-32.644531 26.464844-59.109375 59.109375-59.109375 32.648438 0 59.113281 26.464844 59.113281 59.109375zm0 0" fill="#ef4a8a"/><path d="m437.535156 297.667969c-17.808594 0-32.246094-14.4375-32.246094-32.246094 0-5.691406 1.480469-11.035156 4.066407-15.675781-.257813.003906-.515625.019531-.777344.019531-17.808594 0-32.246094-14.4375-32.246094-32.246094 0-10.675781 5.1875-20.132812 13.179688-26.003906-23.539063 7.792969-40.527344 29.960937-40.527344 56.113281 0 32.644532 26.464844 59.109375 59.109375 59.109375 11.613281 0 22.4375-3.363281 31.570312-9.148437-.703124.046875-1.410156.078125-2.128906.078125zm0 0" fill="#e5387f"/><path d="m427.898438 122.808594c-4.335938 0-7.847657-3.511719-7.847657-7.84375v-17.078125c0-6.652344-5.410156-12.0625-12.058593-12.0625-6.652344 0-12.0625 5.410156-12.0625 12.0625v17.078125c0 4.332031-3.511719 7.84375-7.847657 7.84375-4.332031 0-7.84375-3.511719-7.84375-7.84375v-17.078125c0-15.304688 12.449219-27.753907 27.753907-27.753907 15.300781 0 27.753906 12.449219 27.753906 27.753907v17.078125c0 4.332031-3.515625 7.84375-7.847656 7.84375zm0 0" fill="#d6eafc"/><path d="m405.476562 78.828125c0-4.042969 2.761719-7.433594 6.5-8.40625-16.855468-2.433594-31.738281 10.699219-31.738281 27.464844v17.078125c0 4.332031 3.511719 7.84375 7.84375 7.84375 4.335938 0 7.847657-3.511719 7.847657-7.84375v-17.078125c0-7.007813 6.019531-12.664063 13.171874-12.003907-2.191406-1.578124-3.625-4.148437-3.625-7.054687zm0 0" fill="#b7dbf6"/><path d="m388.082031 252.34375c-4.332031 0-7.84375-3.515625-7.84375-7.847656v-24.074219c0-15.300781 12.449219-27.753906 27.753907-27.753906 15.300781 0 27.753906 12.453125 27.753906 27.753906 0 4.335937-3.515625 7.847656-7.847656 7.847656-4.335938 0-7.847657-3.511719-7.847657-7.847656 0-6.648437-5.410156-12.058594-12.058593-12.058594-6.652344 0-12.0625 5.410157-12.0625 12.058594v24.074219c0 4.332031-3.511719 7.847656-7.847657 7.847656zm0 0" fill="#d6eafc"/><path d="m399.390625 200.710938c0-3.515626 2.101563-6.453126 5.019531-7.800782-13.617187 1.761719-24.171875 13.425782-24.171875 27.515625v24.070313c0 4.335937 3.511719 7.847656 7.84375 7.847656 4.335938 0 7.847657-3.511719 7.847657-7.847656v-24.070313c0-5.613281 3.859374-10.328125 9.058593-11.667969-3.300781-1.234374-5.597656-4.421874-5.597656-8.046874zm0 0" fill="#b7dbf6"/><path d="m431.582031 166.15625h-47.179687c-5.433594 0-9.875-4.445312-9.875-9.875v-35.628906c0-5.429688 4.441406-9.875 9.875-9.875h47.179687c5.429688 0 9.875 4.445312 9.875 9.875v35.628906c0 5.429688-4.445312 9.875-9.875 9.875zm0 0" fill="#284cb2"/><path d="m397.523438 157.46875c0-4.578125 2.925781-8.359375 6.859374-9.820312-3.269531-1.796876-5.441406-5.285157-5.441406-9.179688 0-4.019531 2.257813-7.417969 5.46875-9.179688-4.054687-1.480468-6.886718-5.382812-6.886718-9.820312 0-3.671875 1.882812-6.828125 4.652343-8.691406h-17.773437c-5.433594 0-9.875 4.445312-9.875 9.875v35.628906c0 5.429688 4.441406 9.875 9.875 9.875h17.761718c-2.816406-1.898438-4.640624-5.125-4.640624-8.6875zm0 0" fill="#1d3ba8"/><path d="m137.09375 460.859375h-30.898438c9.742188 7.539063 20.066407 14.359375 30.898438 20.382813zm0 0" fill="#284cb2"/><path d="m137.09375 432.613281h-57.355469v4.535157c8.230469 8.523437 17.074219 16.449218 26.457031 23.710937h30.898438zm0 0" fill="#1d3ba8"/><path d="m79.738281 404.363281h57.355469v28.25h-57.355469zm0 0" fill="#284cb2"/><path d="m137.09375 389.21875c0-6.347656 4.449219-11.695312 10.382812-13.101562h-61.601562c-3.386719 0-6.136719 2.746093-6.136719 6.136718v22.109375h57.355469zm0 0" fill="#1d3ba8"/><path d="m407.988281 148.929688c-5.875 0-10.464843-4.804688-10.464843-10.460938 0-6.605469 6.078124-11.558594 12.515624-10.265625 4.988282 1.015625 8.421876 5.386719 8.421876 10.265625 0 5.964844-4.894532 10.460938-10.472657 10.460938zm0 0" fill="#406bcc"/><path d="m431.582031 296.730469h-47.179687c-5.433594 0-9.875-4.445313-9.875-9.875v-35.628907c0-5.429687 4.441406-9.875 9.875-9.875h47.179687c5.429688 0 9.875 4.445313 9.875 9.875v35.628907c0 5.429687-4.445312 9.875-9.875 9.875zm0 0" fill="#284cb2"/><path d="m397.523438 288.042969c0-4.578125 2.925781-8.359375 6.859374-9.820313-3.269531-1.796875-5.441406-5.285156-5.441406-9.179687 0-4.019531 2.257813-7.417969 5.46875-9.179688-4.054687-1.476562-6.886718-5.378906-6.886718-9.820312 0-3.671875 1.882812-6.828125 4.652343-8.6875h-17.773437c-5.433594 0-9.875 4.441406-9.875 9.875v35.625c0 5.429687 4.441406 9.875 9.875 9.875h17.761718c-2.816406-1.898438-4.640624-5.121094-4.640624-8.6875zm0 0" fill="#1d3ba8"/><path d="m407.988281 279.503906c-5.875 0-10.464843-4.800781-10.464843-10.460937 0-6.605469 6.078124-11.558594 12.515624-10.265625 4.988282 1.015625 8.421876 5.390625 8.421876 10.265625 0 5.96875-4.894532 10.460937-10.472657 10.460937zm0 0" fill="#406bcc"/><path d="m0 290.214844v-86.550782h49.09375v86.550782zm0 0" fill="#06daf7"/><path d="m98.191406 290.214844v-86.550782h49.09375v86.550782zm0 0" fill="#06daf7"/></svg>