<svg height="512pt" viewBox="0 -11 512 512" width="512pt" xmlns="http://www.w3.org/2000/svg"><path d="m245 0c-35.503906 0-69.242188 7.566406-99.699219 21.152344l-93.878906 374.023437c44.824219 57.695313 114.859375 94.828125 193.578125 94.828125 21.050781 0 41.476562-2.65625 60.96875-7.648437l92.1875-46.132813c55.988281-44.902344 91.847656-113.867187 91.847656-191.222656 0-135.308594-109.691406-245-245.003906-245zm0 0" fill="#f9ce00"/><path d="m512 70.820312c0-27.714843-22.675781-50.390624-50.386719-50.390624h-314.667969c-86.496093 37.824218-146.945312 124.132812-146.945312 224.570312 0 57.476562 19.796875 110.320312 52.9375 152.109375h408.675781c27.710938 0 50.386719-22.675781 50.386719-50.390625zm0 0" fill="#284cb2"/><path d="m53.476562 382.820312c0-7.890624 6.398438-14.289062 14.289063-14.289062-3.199219-6.609375-4.996094-14.011719-4.996094-21.8125v-265.457031c-39.023437 43.390625-62.769531 100.789062-62.769531 163.738281 0 57.476562 19.796875 110.320312 52.9375 152.109375h14.828125c-7.890625 0-14.289063-6.398437-14.289063-14.289063zm0 0" fill="#122894"/><path d="m424.964844 49.007812h-326.988282c-59.492187 44.699219-97.976562 115.851563-97.976562 195.992188 0 45.054688 12.175781 87.261719 33.394531 123.53125h391.570313c12.441406 0 22.53125-10.085938 22.53125-22.53125v-274.460938c0-12.441406-10.089844-22.53125-22.53125-22.53125zm0 0" fill="#122894"/><path d="m33.394531 368.53125h34.371094c-3.199219-6.609375-4.996094-14.011719-4.996094-21.808594v-265.457031c-38.902343 42.933594-62.769531 101.125-62.769531 163.734375 0 43.546875 11.449219 86.03125 33.394531 123.53125zm0 0" fill="#012481"/><path d="m277.445312 131.800781c0 14.492188-11.75 26.242188-26.242187 26.242188s-26.242187-11.75-26.242187-26.242188c0-14.492187 11.75-26.242187 26.242187-26.242187s26.242187 11.75 26.242187 26.242187zm0 0" fill="#f9ce00"/><path d="m246.144531 146.109375c0-7.902344 6.40625-14.308594 14.308594-14.308594-7.902344 0-14.308594-6.40625-14.308594-14.308593 0-4.960938 2.527344-9.332032 6.363281-11.898438-.433593-.019531-.867187-.03125-1.304687-.03125-14.492187 0-26.242187 11.746094-26.242187 26.242188 0 14.492187 11.75 26.238281 26.242187 26.238281.4375 0 .871094-.011719 1.304687-.03125-3.835937-2.570313-6.363281-6.9375-6.363281-11.902344zm0 0" fill="#f4b500"/><path d="m345.574219 131.800781c0 14.492188-11.75 26.242188-26.242188 26.242188-14.492187 0-26.242187-11.75-26.242187-26.242188 0-14.492187 11.75-26.242187 26.242187-26.242187 14.492188 0 26.242188 11.75 26.242188 26.242187zm0 0" fill="#406bcc"/><path d="m314.269531 146.109375c0-7.902344 6.410157-14.308594 14.3125-14.308594-7.902343 0-14.3125-6.40625-14.3125-14.308593 0-4.960938 2.53125-9.332032 6.367188-11.898438-.433594-.019531-.867188-.03125-1.308594-.03125-14.492187 0-26.238281 11.746094-26.238281 26.242188 0 14.492187 11.75 26.238281 26.238281 26.238281.441406 0 .875-.011719 1.308594-.03125-3.835938-2.570313-6.367188-6.9375-6.367188-11.902344zm0 0" fill="#284cb2"/><path d="m126.566406 153.117188-66.902344 66.902343v100.054688h133.804688v-100.054688zm0 0" fill="#d6eafc"/><path d="m96.425781 247.894531c0-8.035156 3.191407-15.746093 8.875-21.429687l47.308594-47.308594-26.042969-26.039062-66.902344 66.902343v100.058594h36.761719zm0 0" fill="#b7dbf6"/><path d="m134.964844 132.613281c-4.636719-4.636719-12.15625-4.636719-16.792969 0l-78.949219 78.949219c-7.480468 7.480469-2.183594 20.269531 8.394532 20.269531 3.148437 0 6.167968-1.25 8.394531-3.476562l70.554687-70.558594 70.554688 70.558594c2.230468 2.226562 5.246094 3.476562 8.398437 3.476562 10.578125 0 15.875-12.789062 8.394531-20.269531zm0 0" fill="#406bcc"/><path d="m167.394531 165.046875-32.429687-32.433594c-4.636719-4.636719-12.15625-4.636719-16.792969 0l-78.949219 78.949219c-7.480468 7.480469-2.183594 20.269531 8.394532 20.269531 3.148437 0 6.167968-1.25 8.398437-3.476562l70.554687-70.558594 24.089844 24.09375c-4.589844-10.566406 6.140625-21.367187 16.734375-16.84375zm0 0" fill="#284cb2"/><path d="m126.566406 180.867188c-6.558594 0-11.871094-5.316407-11.871094-11.875v-29.742188c0-6.558594 5.316407-11.875 11.871094-11.875 6.558594 0 11.875 5.316406 11.875 11.875v29.742188c0 6.558593-5.316406 11.875-11.875 11.875zm0 0" fill="#284cb2"/><path d="m126.566406 155.878906c-6.558594 0-11.871094-5.316406-11.871094-11.871094v24.984376c0 6.558593 5.316407 11.875 11.871094 11.875 6.558594 0 11.875-5.316407 11.875-11.875v-24.984376c0 6.558594-5.316406 11.871094-11.875 11.871094zm0 0" fill="#1d3ba8"/><g fill="#06daf7"><path d="m91.105469 64.015625c-2.910157-4.921875-1.273438-11.269531 3.648437-14.179687 20.0625-11.847657 43.527344-11.859376 63.617188 0 4.925781 2.90625 6.5625 9.253906 3.65625 14.175781-2.910156 4.925781-9.253906 6.558593-14.179688 3.652343-13.183594-7.78125-28.628906-8.226562-42.566406 0-4.921875 2.910157-11.269531 1.277344-14.175781-3.648437zm0 0"/><path d="m167.601562 33.828125c-25.765624-17.523437-56.277343-17.542969-82.066406-.003906-4.730468 3.21875-11.167968 1.988281-14.382812-2.738281-3.214844-4.726563-1.988282-11.167969 2.738281-14.382813 32.722656-22.25 72.574219-22.292969 105.351563.003906 4.726562 3.214844 5.953124 9.652344 2.738281 14.378907-3.207031 4.722656-9.648438 5.960937-14.378907 2.742187zm0 0"/><path d="m126.570312 107.429688c-7.632812 0-13.800781-6.191407-13.800781-13.804688 0-8.792969 8.089844-15.21875 16.492188-13.527344 6.605469 1.351563 11.097656 7.050782 11.097656 13.527344 0 7.585938-6.128906 13.804688-13.789063 13.804688zm0 0"/></g><path d="m119.519531 52.183594c0-4.726563 2.34375-8.75 5.808594-11.214844-10.476563.214844-20.917969 3.167969-30.574219 8.867188-4.921875 2.910156-6.558594 9.257812-3.648437 14.179687 2.90625 4.925781 9.253906 6.558594 14.175781 3.648437 5.878906-3.46875 12.023438-5.378906 18.152344-5.863281-2.421875-2.488281-3.914063-5.878906-3.914063-9.617187zm0 0" fill="#05b8e2"/><path d="m119.519531 11.171875c0-4.679687 2.300781-8.675781 5.714844-11.1445312-17.710937.2656252-35.375 5.8203122-51.34375 16.6757812-4.726563 3.214844-5.953125 9.65625-2.738281 14.382813 3.214844 4.726562 9.65625 5.953124 14.382812 2.738281 11.925782-8.109375 24.863282-12.457031 37.871094-13.066407-2.402344-2.484374-3.886719-5.859374-3.886719-9.585937zm0 0" fill="#05b8e2"/><path d="m126.566406 231.832031c-13.292968 0-24.066406 10.773438-24.066406 24.066407v52.371093c7.496094 2.777344 15.601562 4.304688 24.066406 4.304688s16.570313-1.527344 24.066406-4.304688v-52.371093c0-13.292969-10.773437-24.066407-24.066406-24.066407zm0 0" fill="#284cb2"/><path d="m126.566406 231.832031c-4.6875 0-9.058594 1.34375-12.757812 3.664063 7.636718 4.550781 12.757812 12.886718 12.757812 22.425781v54.652344c8.464844 0 16.570313-1.527344 24.066406-4.304688v-52.371093c0-13.292969-10.773437-24.066407-24.066406-24.066407zm0 0" fill="#1d3ba8"/><path d="m197.613281 304.320312h-141.71875c-6.425781 0-11.96875 4.9375-12.253906 11.355469-.296875 6.8125 5.132813 12.425781 11.878906 12.425781h142.09375c6.566407 0 11.890625-5.324218 11.890625-11.890624 0-6.566407-5.324218-11.890626-11.890625-11.890626zm0 0" fill="#60d882"/><path d="m85.640625 315.675781c.285156-6.417969 5.828125-11.351562 12.253906-11.351562h-42c-6.425781 0-11.96875 4.933593-12.253906 11.351562-.296875 6.8125 5.132813 12.429688 11.878906 12.429688h42c-6.746093 0-12.179687-5.617188-11.878906-12.429688zm0 0" fill="#37c47a"/><path d="m405.609375 226.925781h-97.625c-4.46875 0-8.089844-3.621093-8.089844-8.089843 0-4.464844 3.621094-8.089844 8.089844-8.089844h97.625c4.46875 0 8.089844 3.621094 8.089844 8.089844s-3.621094 8.089843-8.089844 8.089843zm0 0" fill="#284cb2"/><path d="m307.984375 229.621094h-47.378906c-5.957031 0-10.785157-4.828125-10.785157-10.785156 0-5.957032 4.828126-10.78125 10.785157-10.78125h47.378906c5.957031 0 10.785156 4.828124 10.785156 10.78125 0 5.957031-4.828125 10.785156-10.785156 10.785156zm0 0" fill="#f9ce00"/><path d="m405.609375 264.277344h-61.226563c-4.46875 0-8.085937-3.625-8.085937-8.089844 0-4.46875 3.617187-8.089844 8.085937-8.089844h61.226563c4.46875 0 8.089844 3.621094 8.089844 8.089844 0 4.464844-3.621094 8.089844-8.089844 8.089844zm0 0" fill="#284cb2"/><path d="m344.382812 266.972656h-83.777343c-5.957031 0-10.785157-4.828125-10.785157-10.785156s4.828126-10.785156 10.785157-10.785156h83.777343c5.957032 0 10.785157 4.828125 10.785157 10.785156s-4.828125 10.785156-10.785157 10.785156zm0 0" fill="#f9ce00"/><path d="m312.503906 256.1875c0-5.957031 4.828125-10.785156 10.785156-10.785156h-62.683593c-5.957031 0-10.785157 4.828125-10.785157 10.785156s4.828126 10.785156 10.785157 10.785156h62.683593c-5.957031 0-10.785156-4.828125-10.785156-10.785156zm0 0" fill="#f4b500"/><path d="m405.609375 301.625h-97.625c-4.46875 0-8.089844-3.621094-8.089844-8.089844 0-4.464844 3.621094-8.085937 8.089844-8.085937h97.625c4.46875 0 8.089844 3.621093 8.089844 8.085937 0 4.46875-3.621094 8.089844-8.089844 8.089844zm0 0" fill="#284cb2"/><path d="m307.984375 304.320312h-47.378906c-5.957031 0-10.785157-4.828124-10.785157-10.785156 0-5.957031 4.828126-10.785156 10.785157-10.785156h47.378906c5.957031 0 10.785156 4.832031 10.785156 10.785156 0 5.957032-4.828125 10.785156-10.785156 10.785156zm0 0" fill="#f9ce00"/><path d="m293.921875 218.835938c0-5.957032 4.832031-10.785157 10.785156-10.785157h-44.101562c-5.957031 0-10.785157 4.828125-10.785157 10.785157 0 5.957031 4.828126 10.785156 10.785157 10.785156h44.101562c-5.953125 0-10.785156-4.828125-10.785156-10.785156zm0 0" fill="#f4b500"/><path d="m293.921875 293.535156c0-5.957031 4.832031-10.785156 10.785156-10.785156h-44.101562c-5.957031 0-10.785157 4.832031-10.785157 10.785156 0 5.957032 4.828126 10.785156 10.785157 10.785156h44.101562c-5.953125 0-10.785156-4.828124-10.785156-10.785156zm0 0" fill="#f4b500"/><path d="m264.914062 131.800781c0-3.949219-3.199218-7.148437-7.144531-7.148437h-13.128906c-3.949219 0-7.148437 3.199218-7.148437 7.148437s3.199218 7.148438 7.148437 7.148438h13.128906c3.945313 0 7.144531-3.199219 7.144531-7.148438zm0 0" fill="#fce275"/><path d="m333.042969 131.800781c0-3.949219-3.199219-7.148437-7.148438-7.148437h-13.128906c-3.949219 0-7.148437 3.199218-7.148437 7.148437s3.199218 7.148438 7.148437 7.148438h13.128906c3.949219 0 7.148438-3.199219 7.148438-7.148438zm0 0" fill="#5488e2"/><path d="m496.53125 208.769531c0 8.910157-7.222656 16.132813-16.128906 16.132813-8.910156 0-16.132813-7.222656-16.132813-16.132813 0-8.910156 7.222657-16.132812 16.132813-16.132812 8.90625 0 16.128906 7.222656 16.128906 16.132812zm0 0" fill="#5488e2"/><path d="m396.746094 325.082031c-7.761719-.175781-14.0625 6.101563-13.984375 13.800781-.078125-7.542968-6.257813-13.59375-13.800781-13.515624-7.542969.082031-13.59375 6.261718-13.515626 13.800781-.078124-7.542969-6.257812-13.59375-13.800781-13.511719-7.542969.078125-13.59375 6.257812-13.515625 13.800781l-.753906-54.3125c-.078125-7.421875-5.914062-13.699219-13.335938-13.867187-7.757812-.179688-14.0625 6.097656-13.984374 13.796875l1.078124 84.929687c.054688 5.351563-6.710937 7.71875-10.003906 3.496094l-12.195312-15.628906c-5.375-5.261719-14.101563-5.570313-19.460938-.292969-5.457031 5.375-5.425781 14.160156.023438 19.496094l7.910156 10.21875c8.875 11.414062 17.269531 23.195312 25.160156 35.308593 6.054688 9.296876 9.335938 20.128907 9.453125 31.222657l.046875 29.480469c37.082032-8.847657 70.898438-26.117188 99.296875-49.691407 6.226563-11.527343 9.460938-24.476562 9.320313-37.65625l-.601563-57.007812c-.078125-7.421875-5.914062-13.695313-13.335937-13.867188zm0 0" fill="#ffc2c4"/><path d="m342.390625 465.429688c-17.101563 0-32.203125-8.511719-41.332031-21.523438.597656 3.257812.925781 6.578125.960937 9.917969l.046875 29.480469c18.75-4.472657 36.65625-11.105469 53.457032-19.609376-4.1875 1.125-8.589844 1.734376-13.132813 1.734376zm0 0" fill="#f4b5ba"/><path d="m413.699219 131.800781c0 14.492188-11.75 26.242188-26.242188 26.242188-14.492187 0-26.242187-11.75-26.242187-26.242188 0-14.492187 11.75-26.242187 26.242187-26.242187 14.492188 0 26.242188 11.75 26.242188 26.242187zm0 0" fill="#406bcc"/><path d="m382.398438 146.109375c0-7.902344 6.40625-14.308594 14.308593-14.308594-7.902343 0-14.308593-6.40625-14.308593-14.308593 0-4.960938 2.527343-9.332032 6.363281-11.898438-.433594-.019531-.867188-.03125-1.304688-.03125-14.492187 0-26.242187 11.746094-26.242187 26.242188 0 14.492187 11.75 26.238281 26.242187 26.238281.4375 0 .871094-.011719 1.304688-.03125-3.835938-2.570313-6.363281-6.9375-6.363281-11.902344zm0 0" fill="#284cb2"/><path d="m401.171875 131.800781c0-3.949219-3.203125-7.148437-7.148437-7.148437h-13.128907c-3.949219 0-7.148437 3.199218-7.148437 7.148437s3.199218 7.148438 7.148437 7.148438h13.128907c3.949218 0 7.148437-3.199219 7.148437-7.148438zm0 0" fill="#5488e2"/></svg>