<svg height="512pt" viewBox="-11 0 512 512" width="512pt" xmlns="http://www.w3.org/2000/svg"><path d="m413.316406 445.019531c47.21875-44.660156 76.6875-107.898437 76.6875-178.019531 0-135.3125-109.691406-245.003906-245.003906-245.003906-135.308594 0-245 109.691406-245 245.003906 0 135.308594 109.691406 245 245 245 10.605469 0 21.050781-.675781 31.296875-1.980469zm0 0" fill="#ef4a8a"/><path d="m385.835938 365.5625c-2.148438-7.902344-2.90625-16.117188-2.238282-24.277344l4-37.683594c1.953125-23.644531-1.648437-47.335937-12.117187-68.625-27.046875-55.015624-20.839844-59.007812-21.679688-113.605468 0-11.152344-9.042969-20.195313-20.195312-20.195313-11.15625 0-20.199219 9.042969-20.199219 20.195313 0 222.03125.414062 205.738281-.953125 212.25v29.074218c0 24.496094-19.929687 44.425782-44.425781 44.425782-16.269532 0-72.375 0-110.550782 0 16.984376 23.617187 40.21875 42.113281 67.179688 53.3125.167969.070312.335938.136718.503906.210937 20.832032 8.796875 44.09375 26.355469 47.980469 48.140625l.375 1.554688c54.863281-6.359375 104.191406-30.832032 141.859375-67.296875zm0 0" fill="#ffc2c4"/><path d="m82.464844 101.882812-6.152344-5.699218c-9.484375-8.789063-24.429688-8.21875-33.214844 1.265625-8.785156 9.480469-8.214844 24.429687 1.265625 33.214843l38.101563 35.304688zm0 0" fill="#ffc2c4"/><path d="m56.863281 112.996094c-5.816406-5.390625-8.261719-13.09375-7.269531-20.4375-2.375 1.214844-4.585938 2.828125-6.496094 4.890625-8.785156 9.480469-8.214844 24.429687 1.265625 33.214843l38.101563 35.304688v-29.25zm0 0" fill="#f4b5ba"/><path d="m268.984375 0c-15.320313 0-127.957031 0-143.136719 0-24.496094 0-44.421875 19.929688-44.421875 44.425781v319.222657c0 24.496093 19.925781 44.425781 44.421875 44.425781h143.136719c24.496094 0 44.421875-19.925781 44.421875-44.425781v-319.222657c0-24.496093-19.925781-44.425781-44.421875-44.425781zm0 0" fill="#284cb2"/><path d="m135.921875 363.648438v-319.222657c0-24.496093 19.929687-44.425781 44.425781-44.425781-25.605468 0-48.269531 0-54.5 0-24.496094 0-44.425781 19.929688-44.425781 44.425781v319.222657c0 24.496093 19.929687 44.425781 44.425781 44.425781h54.5c-24.496094 0-44.425781-19.929688-44.425781-44.425781zm0 0" fill="#1d3ba8"/><path d="m288.796875 363.648438c0 10.945312-8.871094 19.8125-19.8125 19.8125-15.152344 0-127.820313 0-143.136719 0-10.941406 0-19.8125-8.871094-19.8125-19.8125 0-10.085938 0-308.949219 0-319.222657 0-10.941406 8.871094-19.8125 19.8125-19.8125h10.917969c4.09375 0 7.414063 3.320313 7.414063 7.414063v4.703125c0 6.304687 5.160156 11.464843 11.464843 11.464843h83.542969c6.304688 0 11.464844-5.160156 11.464844-11.464843v-4.703125c0-4.09375 3.320312-7.414063 7.414062-7.414063h10.917969c10.941406 0 19.8125 8.871094 19.8125 19.8125zm0 0" fill="#d6eafc"/><path d="m135.921875 363.648438v-319.222657c0-6.78125 1.535156-13.210937 4.265625-18.96875-1.027344-.535156-2.1875-.84375-3.425781-.84375h-10.914063c-10.941406 0-19.8125 8.871094-19.8125 19.8125v319.222657c0 10.945312 8.871094 19.8125 19.8125 19.8125h14.753906c-2.988281-5.96875-4.679687-12.695313-4.679687-19.8125zm0 0" fill="#b7dbf6"/><path d="m222.597656 31.789062h-24.542968c-3.964844 0-7.175782-3.214843-7.175782-7.175781 0-3.960937 3.210938-7.171875 7.175782-7.171875h24.542968c3.960938 0 7.175782 3.210938 7.175782 7.171875 0 3.960938-3.214844 7.175781-7.175782 7.175781zm0 0" fill="#406bcc"/><path d="m172.878906 31.785156c-4.007812 0-7.171875-3.285156-7.171875-7.171875 0-3.558593 2.617188-6.4375 5.777344-7.03125.917969-.191406 1.875-.191406 2.800781 0 3.222656.601563 5.769532 3.539063 5.769532 7.03125 0 3.917969-3.175782 7.171875-7.175782 7.171875zm0 0" fill="#406bcc"/><path d="m116.671875 225.84375c-7.734375 8.339844-20.761719 8.839844-29.105469 1.105469l-34.496094-31.960938c-8.34375-7.730469-8.839843-20.761719-1.109374-29.105469 7.730468-8.34375 20.761718-8.839843 29.101562-1.109374l34.5 31.964843c8.339844 7.730469 8.835938 20.761719 1.109375 29.105469zm0 0" fill="#ffc2c4"/><path d="m101.757812 212.421875-34.496093-31.964844c-5.773438-5.34375-7.78125-13.226562-5.921875-20.335937-3.476563 1.003906-6.742188 2.914062-9.378906 5.761718-7.734376 8.34375-7.234376 21.375 1.105468 29.105469l34.5 31.964844c8.339844 7.730469 21.371094 7.234375 29.101563-1.109375 2.386719-2.574219 3.980469-5.59375 4.8125-8.765625-6.707031 1.933594-14.226563.433594-19.722657-4.65625zm0 0" fill="#f4b5ba"/><path d="m116.671875 338.191406c-7.734375 8.34375-20.761719 8.839844-29.105469 1.109375l-34.496094-31.964843c-8.34375-7.730469-8.839843-20.761719-1.109374-29.105469 7.730468-8.339844 20.761718-8.839844 29.101562-1.109375l34.5 31.964844c8.339844 7.730468 8.835938 20.761718 1.109375 29.105468zm0 0" fill="#ffc2c4"/><path d="m101.757812 324.769531-34.496093-31.964843c-5.773438-5.34375-7.78125-13.226563-5.921875-20.335938-3.476563 1.003906-6.742188 2.914062-9.378906 5.761719-7.734376 8.34375-7.234376 21.375 1.105468 29.105469l34.5 31.964843c8.34375 7.730469 21.371094 7.234375 29.105469-1.109375 2.382813-2.574218 3.976563-5.59375 4.808594-8.765625-6.707031 1.933594-14.226563.433594-19.722657-4.65625zm0 0" fill="#f4b5ba"/><path d="m116.671875 282.015625c-7.734375 8.34375-20.761719 8.839844-29.105469 1.109375l-34.496094-31.964844c-8.34375-7.726562-8.839843-20.757812-1.109374-29.101562 7.730468-8.34375 20.761718-8.839844 29.101562-1.109375l34.5 31.964843c8.339844 7.730469 8.835938 20.757813 1.109375 29.101563zm0 0" fill="#ffc2c4"/><path d="m101.757812 268.597656-34.496093-31.964844c-5.773438-5.347656-7.78125-13.226562-5.921875-20.339843-3.476563 1.003906-6.742188 2.917969-9.378906 5.765625-7.734376 8.34375-7.234376 21.371094 1.105468 29.101562l34.5 31.964844c8.339844 7.730469 21.371094 7.234375 29.101563-1.109375 2.386719-2.570313 3.980469-5.59375 4.8125-8.765625-6.707031 1.9375-14.226563.4375-19.722657-4.652344zm0 0" fill="#f4b5ba"/><g fill="#b7dbf6"><path d="m169.078125 356.28125c-4.25 0-7.5-3.488281-7.5-7.488281 0-4.144531 3.367187-7.5 7.5-7.5 4.152344 0 7.5 3.355469 7.5 7.5 0 4.136719-3.359375 7.488281-7.5 7.488281zm0 0"/><path d="m197.417969 356.28125c-4.1875 0-7.5-3.398438-7.5-7.488281 0-3.507813 2.421875-6.613281 6.03125-7.359375 4.507812-.90625 8.96875 2.515625 8.96875 7.359375 0 3.945312-3.199219 7.488281-7.5 7.488281zm0 0"/><path d="m225.75 356.28125c-4.148438 0-7.5-3.375-7.5-7.488281 0-4.683594 4.265625-8.285157 8.96875-7.359375 3.671875.777344 6.03125 3.910156 6.03125 7.359375 0 4.121093-3.355469 7.488281-7.5 7.488281zm0 0"/></g><path d="m245.378906 131.183594-43.867187-43.863282c-2.261719-2.261718-5.925781-2.261718-8.1875 0l-43.863281 43.863282c-1.085938 1.085937-1.699219 2.558594-1.699219 4.09375v57.84375c0 3.199218 2.59375 5.792968 5.792969 5.792968h87.726562c3.199219 0 5.792969-2.59375 5.792969-5.792968v-57.84375c0-1.535156-.609375-3.007813-1.695313-4.09375zm0 0" fill="#06daf7"/><path d="m181.019531 144.277344c0-1.535156.613281-3.007813 1.699219-4.09375l35.828125-35.828125-17.035156-17.035157c-2.261719-2.261718-5.925781-2.261718-8.1875 0l-43.863281 43.863282c-1.085938 1.085937-1.699219 2.558594-1.699219 4.09375v57.84375c0 3.199218 2.59375 5.792968 5.792969 5.792968h27.464843zm0 0" fill="#05b8e2"/><path d="m212.5 198.871094c.542969 0 1.082031.015625 1.621094.042968v-27.195312c0-9.140625-7.410156-16.550781-16.550782-16.550781-9.140624 0-16.550781 7.410156-16.550781 16.550781v27.152344zm0 0" fill="#07a3d3"/><path d="m233.25 238.34375c-12.128906 0-22.050781 9.921875-22.050781 22.046875s9.921875 22.046875 22.050781 22.046875c12.125 0 22.046875-9.921875 22.046875-22.046875s-9.921875-22.046875-22.046875-22.046875zm0 0" fill="#55f3ff"/><path d="m240.523438 267.890625c-8.125 0-14.773438-6.648437-14.773438-14.773437 0-7.007813 4.945312-12.902344 11.515625-14.398438-1.300781-.242188-2.644531-.375-4.015625-.375-12.128906 0-22.050781 9.921875-22.050781 22.046875 0 12.128906 9.921875 22.050781 22.050781 22.050781 12.125 0 22.046875-9.921875 22.046875-22.050781 0-1.371094-.132813-2.710937-.375-4.015625-1.496094 6.570312-7.394531 11.515625-14.398437 11.515625zm0 0" fill="#06daf7"/><path d="m387.675781 370.386719c-8.339843 57.527343-57.851562 101.71875-117.6875 101.71875-10.332031 0-20.355469-1.316407-29.910156-3.792969 15.84375 9.6875 30.09375 23.84375 33.0625 40.472656l.375 1.554688c54.859375-6.359375 104.191406-30.832032 141.859375-67.296875zm0 0" fill="#f4b5ba"/><path d="m160.757812 238.34375c-12.125 0-22.046874 9.921875-22.046874 22.046875s9.921874 22.046875 22.046874 22.046875c12.128907 0 22.050782-9.921875 22.050782-22.046875s-9.921875-22.046875-22.050782-22.046875zm0 0" fill="#f95d95"/><path d="m168.03125 267.890625c-8.125 0-14.773438-6.648437-14.773438-14.773437 0-7.007813 4.949219-12.902344 11.519532-14.398438-1.304688-.242188-2.644532-.375-4.019532-.375-12.125 0-22.046874 9.921875-22.046874 22.046875 0 12.128906 9.921874 22.050781 22.046874 22.050781 12.128907 0 22.050782-9.921875 22.050782-22.050781 0-1.371094-.132813-2.710937-.378906-4.015625-1.492188 6.570312-7.390626 11.515625-14.398438 11.515625zm0 0" fill="#e5387f"/></svg>