<svg height="512pt" viewBox="0 -11 512 512" width="512pt" xmlns="http://www.w3.org/2000/svg"><path d="m245 0c-42.203125 0-81.914062 10.671875-116.582031 29.464844l-51.195313 394.054687c34.554688 32.492188 78.542969 55.054688 127.417969 63.160157l101.25-4.308594c105.851563-27.070313 184.113281-123.082032 184.113281-237.371094 0-135.308594-109.691406-245-245.003906-245zm0 0" fill="#60d882"/><path d="m195.789062 485.054688c15.898438 3.242187 32.355469 4.949218 49.210938 4.949218 24.117188 0 47.410156-3.503906 69.421875-9.996094-4.234375-13.179687-8.851563-32.800781-8.851563-56.515624h-99.140624c0 26.242187-6.042969 48.371093-10.640626 61.5625zm0 0" fill="#b7dbf6"/><path d="m247.171875 489.980469c3.652344-16.71875 7.125-39.941407 6.433594-66.492188h-47.175781c0 26.246094-6.042969 48.375-10.640626 61.566407 15.898438 3.242187 32.355469 4.949218 49.210938 4.949218.726562 0 1.449219-.015625 2.171875-.023437zm0 0" fill="#97cbef"/><path d="m484.894531 28.332031h-354.328125c-32.527344 17.214844-60.707031 41.539063-82.484375 70.898438l-19.75 31.335937-.003906-.007812c-18.082031 34.160156-28.328125 73.101562-28.328125 114.441406 0 42.726562 10.945312 82.886719 30.171875 117.855469h481.828125v-307.417969c0-14.90625-12.199219-27.105469-27.105469-27.105469zm0 0" fill="#284cb2"/><path d="m47.984375 99.386719-19.613281 31.113281c-18.101563 34.171875-28.371094 73.132812-28.371094 114.5 0 42.726562 10.945312 82.886719 30.171875 117.855469h47.589844v-296.875c-10.910157 10.195312-20.875 21.382812-29.777344 33.40625zm0 0" fill="#1d3ba8"/><path d="m79.007812 425.183594h405.886719c14.90625 0 27.105469-12.199219 27.105469-27.109375v-37.277344h-482.949219c12.992188 24.183594 29.933594 45.929687 49.957031 64.386719zm0 0" fill="#d6eafc"/><path d="m77.761719 424.011719v-63.214844h-48.710938c12.722657 23.675781 29.234375 45.007813 48.710938 63.214844zm0 0" fill="#b7dbf6"/><path d="m28.332031 130.566406v197.757813c0 2.285156 1.855469 4.140625 4.140625 4.140625h447.054688c2.285156 0 4.140625-1.855469 4.140625-4.140625v-231.222657h-433.988281c-7.980469 10.523438-15.125 21.710938-21.347657 33.464844zm0 0" fill="#06daf7"/><path d="m77.761719 97.101562h-28.082031c-7.980469 10.523438-15.125 21.710938-21.347657 33.464844v197.757813c0 2.285156 1.855469 4.140625 4.140625 4.140625h45.289063zm0 0" fill="#05b8e2"/><path d="m479.527344 56.664062h-391.21875c-15.019532 12.511719-28.519532 26.78125-40.179688 42.496094h435.539063v-38.355468c0-2.285157-1.855469-4.140626-4.140625-4.140626zm0 0" fill="#1d3ba8"/><path d="m48.125 99.160156h29.636719v-33.179687c-10.84375 10.136719-20.773438 21.238281-29.636719 33.179687zm0 0" fill="#122894"/><path d="m85.503906 85.644531c-4.304687 0-7.742187-3.5-7.742187-7.730469 0-4.816406 4.453125-8.5625 9.246093-7.574218 3.542969.664062 6.214844 3.867187 6.214844 7.574218 0 4.199219-3.40625 7.730469-7.71875 7.730469zm0 0" fill="#406bcc"/><path d="m110.945312 85.644531c-4.386718 0-7.738281-3.59375-7.738281-7.730469 0-4.792968 4.445313-8.566406 9.246094-7.574218 3.679687.691406 6.222656 4.023437 6.222656 7.574218 0 4.300782-3.511719 7.730469-7.730469 7.730469zm0 0" fill="#406bcc"/><path d="m450.136719 85.644531h-76.265625c-4.269532 0-7.730469-3.460937-7.730469-7.730469 0-4.269531 3.460937-7.730468 7.730469-7.730468h76.265625c4.265625 0 7.726562 3.460937 7.726562 7.730468 0 4.269532-3.460937 7.730469-7.726562 7.730469zm0 0" fill="#406bcc"/><path d="m409.78125 77.914062c0-4.269531 3.460938-7.730468 7.730469-7.730468h-43.640625c-4.269532 0-7.730469 3.460937-7.730469 7.730468 0 4.269532 3.460937 7.726563 7.730469 7.726563h43.640625c-4.269531.003906-7.730469-3.457031-7.730469-7.726563zm0 0" fill="#284cb2"/><path d="m256 406.894531c-7.824219 0-14.164062-6.34375-14.164062-14.167969 0-7.824218 6.339843-14.164062 14.164062-14.164062s14.164062 6.339844 14.164062 14.164062c0 7.824219-6.339843 14.167969-14.164062 14.167969zm0 0" fill="#b7dbf6"/><path d="m151.484375 298.820312h-28.511719c-5.03125 0-9.109375-4.082031-9.109375-9.113281s4.078125-9.109375 9.109375-9.109375h19.398438v-23.804687c0-5.03125 4.082031-9.109375 9.113281-9.109375h32.988281c5.03125 0 9.109375 4.078125 9.109375 9.109375s-4.078125 9.113281-9.109375 9.113281h-23.878906v23.800781c0 5.035157-4.078125 9.113281-9.109375 9.113281zm0 0" fill="#a6ffff"/><path d="m389.027344 298.820312h-28.511719c-5.03125 0-9.109375-4.082031-9.109375-9.113281v-23.800781h-23.878906c-5.03125 0-9.109375-4.082031-9.109375-9.113281s4.078125-9.109375 9.109375-9.109375h32.988281c5.035156 0 9.113281 4.078125 9.113281 9.109375v23.804687h19.398438c5.035156 0 9.113281 4.078125 9.113281 9.109375 0 5.035157-4.082031 9.113281-9.113281 9.113281zm0 0" fill="#a6ffff"/><path d="m184.472656 187.101562h-32.988281c-5.035156 0-9.113281-4.078124-9.113281-9.109374v-23.804688h-19.398438c-5.03125 0-9.113281-4.078125-9.113281-9.109375s4.082031-9.109375 9.113281-9.109375h28.511719c5.03125 0 9.109375 4.078125 9.109375 9.109375v23.800781h23.878906c5.03125 0 9.109375 4.078125 9.109375 9.113282 0 5.03125-4.078125 9.109374-9.109375 9.109374zm0 0" fill="#a6ffff"/><path d="m389.027344 226.566406h-61.5c-5.03125 0-9.109375-4.082031-9.109375-9.113281s4.078125-9.109375 9.109375-9.109375h61.5c5.035156 0 9.113281 4.078125 9.113281 9.109375 0 5.035156-4.082031 9.113281-9.113281 9.113281zm0 0" fill="#a6ffff"/><path d="m184.472656 226.429688h-61.5c-5.03125 0-9.113281-4.078126-9.113281-9.109376s4.082031-9.109374 9.113281-9.109374h61.5c5.03125 0 9.109375 4.078124 9.109375 9.109374s-4.078125 9.109376-9.109375 9.109376zm0 0" fill="#a6ffff"/><g fill="#55f3ff"><path d="m161.734375 256.792969c0-5.03125 4.082031-9.109375 9.113281-9.109375h-19.363281c-5.03125 0-9.113281 4.078125-9.113281 9.109375v23.804687h-19.398438c-5.03125 0-9.109375 4.078125-9.109375 9.109375 0 5.035157 4.078125 9.113281 9.109375 9.113281h28.511719c5.03125 0 9.109375-4.082031 9.109375-9.113281v-23.800781h10.253906c-5.03125 0-9.113281-4.078125-9.113281-9.113281zm0 0"/><path d="m161.734375 177.992188c0-5.035157 4.082031-9.113282 9.113281-9.113282h-10.253906v-23.800781c0-5.03125-4.078125-9.109375-9.109375-9.109375h-28.511719c-5.03125 0-9.109375 4.078125-9.109375 9.109375s4.078125 9.109375 9.109375 9.109375h19.398438v23.804688c0 5.03125 4.082031 9.109374 9.113281 9.109374h19.363281c-5.03125 0-9.113281-4.078124-9.113281-9.109374zm0 0"/><path d="m161.734375 217.320312c0-5.03125 4.082031-9.109374 9.113281-9.109374h-47.875c-5.03125 0-9.113281 4.078124-9.113281 9.109374s4.082031 9.109376 9.113281 9.109376h47.875c-5.03125 0-9.113281-4.078126-9.113281-9.109376zm0 0"/><path d="m106.574219 170.589844c-14.066407 0-25.511719-11.445313-25.511719-25.511719s11.445312-25.511719 25.511719-25.511719c14.066406 0 25.511719 11.445313 25.511719 25.511719-.003907 14.066406-11.445313 25.511719-25.511719 25.511719zm0-32.800782c-4.019531 0-7.289063 3.269532-7.289063 7.289063s3.269532 7.289063 7.289063 7.289063 7.289062-3.269532 7.289062-7.289063-3.269531-7.289063-7.289062-7.289063zm0 0"/><path d="m106.574219 315.21875c-14.066407 0-25.511719-11.445312-25.511719-25.511719 0-14.066406 11.445312-25.511719 25.511719-25.511719 14.066406 0 25.511719 11.445313 25.511719 25.511719-.003907 14.066407-11.445313 25.511719-25.511719 25.511719zm0-32.800781c-4.019531 0-7.289063 3.269531-7.289063 7.289062s3.269532 7.289063 7.289063 7.289063 7.289062-3.269532 7.289062-7.289063-3.269531-7.289062-7.289062-7.289062zm0 0"/><path d="m405.425781 315.21875c-14.066406 0-25.511719-11.445312-25.511719-25.511719 0-14.066406 11.445313-25.511719 25.511719-25.511719 14.066407 0 25.511719 11.445313 25.511719 25.511719 0 14.066407-11.445312 25.511719-25.511719 25.511719zm0-32.800781c-4.019531 0-7.289062 3.269531-7.289062 7.289062s3.269531 7.289063 7.289062 7.289063 7.289063-3.269532 7.289063-7.289063-3.269532-7.289062-7.289063-7.289062zm0 0"/></g><path d="m360.515625 187.234375h-32.988281c-5.035156 0-9.113282-4.078125-9.113282-9.109375s4.082032-9.109375 9.113282-9.109375h23.878906v-23.804687c0-5.03125 4.078125-9.109376 9.109375-9.109376h28.511719c5.03125 0 9.109375 4.078126 9.109375 9.109376s-4.078125 9.113281-9.109375 9.113281h-19.398438v23.800781c0 5.03125-4.078125 9.109375-9.113281 9.109375zm0 0" fill="#a6ffff"/><path d="m342.167969 256.792969c0-5.03125 4.078125-9.109375 9.109375-9.109375h-23.75c-5.03125 0-9.109375 4.078125-9.109375 9.109375s4.078125 9.113281 9.109375 9.113281h23.75c-5.03125 0-9.109375-4.078125-9.109375-9.113281zm0 0" fill="#55f3ff"/><path d="m342.167969 217.453125c0-5.03125 4.078125-9.109375 9.109375-9.109375h-23.75c-5.03125 0-9.109375 4.078125-9.109375 9.109375 0 5.035156 4.078125 9.113281 9.109375 9.113281h23.75c-5.03125 0-9.109375-4.078125-9.109375-9.113281zm0 0" fill="#55f3ff"/><path d="m342.167969 178.125c0-5.03125 4.078125-9.109375 9.109375-9.109375h-23.75c-5.03125 0-9.109375 4.078125-9.109375 9.109375s4.078125 9.109375 9.109375 9.109375h23.75c-5.03125 0-9.109375-4.078125-9.109375-9.109375zm0 0" fill="#55f3ff"/><path d="m405.425781 170.722656c-14.066406 0-25.511719-11.445312-25.511719-25.511718 0-14.066407 11.445313-25.511719 25.511719-25.511719 14.066407 0 25.511719 11.445312 25.511719 25.511719 0 14.066406-11.445312 25.511718-25.511719 25.511718zm0-32.796875c-4.019531 0-7.289062 3.269531-7.289062 7.289063 0 4.015625 3.269531 7.289062 7.289062 7.289062s7.289063-3.269531 7.289063-7.289062c0-4.023438-3.269532-7.289063-7.289063-7.289063zm0 0" fill="#55f3ff"/><path d="m305.582031 196.785156-45.207031-45.207031c-2.328125-2.328125-6.105469-2.328125-8.4375 0l-45.207031 45.207031c-1.121094 1.121094-1.746094 2.636719-1.746094 4.222656v59.613282c0 3.292968 2.667969 5.964844 5.964844 5.964844h90.414062c3.296875 0 5.96875-2.671876 5.96875-5.964844v-59.613282c0-1.585937-.628906-3.101562-1.75-4.222656zm0 0" fill="#f9ce00"/><path d="m239.257812 210.28125c0-1.582031.628907-3.101562 1.746094-4.21875l36.925782-36.925781-17.554688-17.558594c-2.328125-2.328125-6.105469-2.328125-8.4375 0l-45.207031 45.207031c-1.121094 1.121094-1.746094 2.640625-1.746094 4.222656v59.613282c0 3.292968 2.667969 5.964844 5.964844 5.964844h28.308593zm0 0" fill="#f4b500"/><path d="m271.699219 266.542969c.558593 0 1.117187.015625 1.667969.042969v-28.027344c0-9.417969-7.632813-17.054688-17.054688-17.054688-9.417969 0-17.054688 7.636719-17.054688 17.054688v27.984375zm0 0" fill="#f29b00"/></svg>