<svg height="512pt" viewBox="-11 0 512 512" width="512pt" xmlns="http://www.w3.org/2000/svg"><path d="m413.316406 445.019531c47.21875-44.660156 76.6875-107.898437 76.6875-178.019531 0-135.3125-109.691406-245.003906-245.003906-245.003906-135.308594 0-245 109.691406-245 245.003906 0 135.308594 109.691406 245 245 245 10.605469 0 21.050781-.675781 31.296875-1.980469zm0 0" fill="#ef4a8a"/><path d="m385.835938 365.5625c-2.148438-7.902344-2.90625-16.117188-2.238282-24.277344l4-37.683594c1.953125-23.644531-1.648437-47.335937-12.117187-68.625-27.046875-55.015624-20.839844-59.007812-21.679688-113.605468 0-11.152344-9.042969-20.195313-20.195312-20.195313-11.15625 0-20.199219 9.042969-20.199219 20.195313 0 222.03125.414062 205.738281-.957031 212.25v29.074218c0 24.496094-19.925781 44.425782-44.421875 44.425782-16.269532 0-72.375 0-110.554688 0 16.984375 23.617187 40.21875 42.113281 67.183594 53.3125.167969.070312.332031.136718.5.210937 20.832031 8.796875 44.09375 26.355469 47.980469 48.140625l.375 1.554688c54.863281-6.359375 104.191406-30.832032 141.859375-67.296875zm0 0" fill="#ffc2c4"/><path d="m82.464844 101.882812-6.152344-5.699218c-9.484375-8.789063-24.429688-8.21875-33.214844 1.265625-8.785156 9.480469-8.214844 24.429687 1.265625 33.214843l38.101563 35.304688zm0 0" fill="#ffc2c4"/><path d="m56.863281 112.996094c-5.816406-5.390625-8.261719-13.09375-7.269531-20.4375-2.375 1.214844-4.585938 2.828125-6.496094 4.890625-8.785156 9.480469-8.214844 24.429687 1.265625 33.214843l38.101563 35.304688v-29.25zm0 0" fill="#f4b5ba"/><path d="m268.984375 0c-15.320313 0-127.957031 0-143.136719 0-24.496094 0-44.425781 19.929688-44.425781 44.425781v319.222657c0 24.496093 19.929687 44.425781 44.425781 44.425781h143.136719c24.496094 0 44.421875-19.925781 44.421875-44.425781v-319.222657c0-24.496093-19.925781-44.425781-44.421875-44.425781zm0 0" fill="#284cb2"/><path d="m135.921875 363.648438v-319.222657c0-24.496093 19.929687-44.425781 44.425781-44.425781-25.605468 0-48.269531 0-54.5 0-24.496094 0-44.425781 19.929688-44.425781 44.425781v319.222657c0 24.496093 19.929687 44.425781 44.425781 44.425781h54.5c-24.496094 0-44.425781-19.929688-44.425781-44.425781zm0 0" fill="#1d3ba8"/><path d="m288.796875 363.648438c0 10.945312-8.871094 19.8125-19.8125 19.8125-15.152344 0-127.820313 0-143.136719 0-10.941406 0-19.8125-8.871094-19.8125-19.8125 0-10.085938 0-308.949219 0-319.222657 0-10.941406 8.871094-19.8125 19.8125-19.8125h10.914063c4.09375 0 7.414062 3.320313 7.414062 7.414063v4.703125c0 6.304687 5.164063 11.464843 11.46875 11.464843h83.539063c6.308594 0 11.46875-5.160156 11.46875-11.464843v-4.703125c0-4.09375 3.320312-7.414063 7.414062-7.414063h10.914063c10.945312 0 19.8125 8.871094 19.8125 19.8125.003906 68.710938.003906 255.175781.003906 319.222657zm0 0" fill="#d6eafc"/><path d="m135.921875 363.648438v-319.222657c0-6.78125 1.535156-13.210937 4.265625-18.96875-1.027344-.535156-2.1875-.84375-3.425781-.84375h-10.914063c-10.941406 0-19.8125 8.871094-19.8125 19.8125v319.222657c0 10.945312 8.871094 19.8125 19.8125 19.8125h14.753906c-2.988281-5.96875-4.679687-12.695313-4.679687-19.8125zm0 0" fill="#b7dbf6"/><path d="m197.527344 157.398438v-65.324219h-32.855469c-16.03125 0-28.851563 13.03125-28.851563 28.851562v36.472657zm0 0" fill="#06daf7"/><path d="m158.78125 118.066406c0-10.164062 4.234375-19.398437 11.058594-25.992187h-5.167969c-16.03125 0-28.851563 13.03125-28.851563 28.851562v36.472657h22.964844c-.003906-16.582032-.003906-32.800782-.003906-39.332032zm0 0" fill="#05b8e2"/><path d="m135.820312 157.398438v24.851562c0 11.566406 7.617188 23.609375 22.640626 35.796875 11.371093 9.226563 24.40625 16.445313 31.167968 19.929687 2.472656 1.269532 5.1875 1.898438 7.898438 1.882813v-82.460937zm0 0" fill="#f9ce00"/><path d="m158.78125 194.859375c0-8.878906 0-23.300781 0-37.460937h-22.960938v24.851562c0 11.566406 7.617188 23.609375 22.640626 35.796875 6.398437 5.195313 13.328124 9.75 19.371093 13.363281-12.644531-12.429687-19.050781-24.691406-19.050781-36.550781zm0 0" fill="#f4b500"/><path d="m197.425781 157.398438v-65.324219h32.855469c16.03125 0 28.851562 13.03125 28.851562 28.851562v36.472657zm0 0" fill="#f9ce00"/><path d="m259.132812 157.398438v24.851562c0 11.566406-7.617187 23.609375-22.640624 35.796875-11.371094 9.226563-24.410157 16.445313-31.167969 19.929687-2.472657 1.269532-5.1875 1.898438-7.898438 1.882813v-82.460937zm0 0" fill="#06daf7"/><path d="m222.597656 31.789062h-24.542968c-3.964844 0-7.175782-3.214843-7.175782-7.175781 0-3.960937 3.210938-7.171875 7.175782-7.171875h24.542968c3.960938 0 7.175782 3.210938 7.175782 7.171875 0 3.960938-3.214844 7.175781-7.175782 7.175781zm0 0" fill="#406bcc"/><path d="m172.878906 31.785156c-4.007812 0-7.171875-3.285156-7.171875-7.171875 0-3.558593 2.617188-6.4375 5.777344-7.03125.917969-.191406 1.875-.191406 2.800781 0 3.222656.601563 5.769532 3.539063 5.769532 7.03125 0 3.917969-3.171876 7.171875-7.175782 7.171875zm0 0" fill="#406bcc"/><path d="m116.671875 225.84375c-7.730469 8.339844-20.761719 8.839844-29.105469 1.105469l-34.496094-31.960938c-8.34375-7.730469-8.839843-20.761719-1.109374-29.105469 7.730468-8.34375 20.761718-8.839843 29.101562-1.109374l34.5 31.964843c8.339844 7.730469 8.835938 20.761719 1.109375 29.105469zm0 0" fill="#ffc2c4"/><path d="m101.757812 212.421875-34.496093-31.964844c-5.769531-5.34375-7.78125-13.226562-5.921875-20.335937-3.476563 1.003906-6.738282 2.914062-9.378906 5.761718-7.730469 8.34375-7.234376 21.375 1.109374 29.105469l34.496094 31.964844c8.34375 7.730469 21.371094 7.234375 29.105469-1.109375 2.382813-2.574219 3.980469-5.59375 4.808594-8.765625-6.707031 1.933594-14.226563.433594-19.722657-4.65625zm0 0" fill="#f4b5ba"/><path d="m116.671875 338.191406c-7.730469 8.34375-20.761719 8.839844-29.105469 1.109375l-34.496094-31.964843c-8.34375-7.730469-8.839843-20.761719-1.109374-29.105469 7.730468-8.339844 20.761718-8.839844 29.101562-1.109375l34.5 31.964844c8.339844 7.730468 8.835938 20.761718 1.109375 29.105468zm0 0" fill="#ffc2c4"/><path d="m101.757812 324.769531-34.496093-31.960937c-5.769531-5.347656-7.78125-13.226563-5.921875-20.339844-3.476563 1.003906-6.738282 2.914062-9.378906 5.765625-7.730469 8.339844-7.234376 21.371094 1.109374 29.101563l34.496094 31.964843c8.34375 7.730469 21.371094 7.234375 29.105469-1.109375 2.382813-2.574218 3.980469-5.59375 4.808594-8.765625-6.707031 1.933594-14.226563.433594-19.722657-4.65625zm0 0" fill="#f4b5ba"/><path d="m116.671875 282.015625c-7.730469 8.34375-20.761719 8.839844-29.105469 1.109375l-34.496094-31.964844c-8.34375-7.726562-8.839843-20.757812-1.109374-29.101562 7.730468-8.34375 20.761718-8.839844 29.101562-1.109375l34.5 31.964843c8.339844 7.730469 8.835938 20.757813 1.109375 29.101563zm0 0" fill="#ffc2c4"/><path d="m101.757812 268.597656-34.496093-31.964844c-5.769531-5.347656-7.78125-13.226562-5.921875-20.335937-3.476563 1.003906-6.742188 2.914063-9.378906 5.761719-7.730469 8.34375-7.234376 21.375 1.109374 29.105468l34.496094 31.964844c8.34375 7.730469 21.371094 7.230469 29.105469-1.109375 2.382813-2.574219 3.980469-5.59375 4.808594-8.765625-6.707031 1.933594-14.226563.433594-19.722657-4.65625zm0 0" fill="#f4b5ba"/><g fill="#b7dbf6"><path d="m169.078125 356.28125c-4.25 0-7.5-3.488281-7.5-7.488281 0-4.144531 3.367187-7.5 7.5-7.5 4.152344 0 7.5 3.355469 7.5 7.5 0 4.136719-3.359375 7.488281-7.5 7.488281zm0 0"/><path d="m197.417969 356.28125c-4.1875 0-7.5-3.398438-7.5-7.488281 0-3.507813 2.421875-6.613281 6.03125-7.359375 4.507812-.90625 8.96875 2.515625 8.96875 7.359375 0 3.945312-3.199219 7.488281-7.5 7.488281zm0 0"/><path d="m225.75 356.28125c-4.148438 0-7.5-3.375-7.5-7.488281 0-4.683594 4.265625-8.285157 8.96875-7.359375 3.671875.777344 6.03125 3.910156 6.03125 7.359375 0 4.121093-3.355469 7.488281-7.5 7.488281zm0 0"/></g><path d="m234.734375 148.773438-34.128906-34.128907c-1.761719-1.757812-4.613281-1.757812-6.371094 0l-34.132813 34.128907c-.84375.847656-1.320312 1.992187-1.320312 3.1875v45.007812c0 2.488281 2.019531 4.503906 4.507812 4.503906h68.261719c2.484375 0 4.503907-2.015625 4.503907-4.503906v-45.007812c0-1.195313-.476563-2.339844-1.320313-3.1875zm0 0" fill="#406bcc"/><path d="m184.660156 157.628906c0-1.195312.476563-2.34375 1.320313-3.1875l27.210937-27.210937-12.585937-12.585938c-1.761719-1.757812-4.613281-1.757812-6.371094 0l-34.132813 34.128907c-.84375.84375-1.320312 1.992187-1.320312 3.1875v45.007812c0 2.484375 2.019531 4.503906 4.507812 4.503906h21.371094zm0 0" fill="#284cb2"/><path d="m209.152344 201.441406c.421875 0 .84375.011719 1.261718.03125v-21.160156c0-7.113281-5.765624-12.875-12.878906-12.875-7.109375 0-12.875 5.761719-12.875 12.875v21.128906zm0 0" fill="#1d3ba8"/><path d="m223.523438 272.46875h-51.972657c-7.640625 0-13.832031 6.191406-13.832031 13.832031 0 7.636719 6.195312 13.832031 13.832031 13.832031h51.972657c7.636718 0 13.828124-6.195312 13.828124-13.832031 0-7.640625-6.191406-13.832031-13.828124-13.832031zm0 0" fill="#60d882"/><path d="m193.433594 286.300781c0-7.640625 6.191406-13.832031 13.828125-13.832031h-35.710938c-7.640625 0-13.832031 6.191406-13.832031 13.832031 0 7.636719 6.195312 13.832031 13.832031 13.832031h35.710938c-7.636719 0-13.828125-6.195312-13.828125-13.832031zm0 0" fill="#37c47a"/><path d="m387.675781 370.386719c-8.339843 57.527343-57.851562 101.71875-117.6875 101.71875-10.332031 0-20.355469-1.316407-29.910156-3.792969 15.84375 9.6875 30.09375 23.84375 33.0625 40.472656l.375 1.554688c54.859375-6.359375 104.191406-30.832032 141.859375-67.296875zm0 0" fill="#f4b5ba"/></svg>