<svg height="511pt" viewBox="-10 0 511 511.99069" width="511pt" xmlns="http://www.w3.org/2000/svg"><path d="m98.539062 463.03125 292.015626 1.402344c60.605468-44.601563 99.941406-116.425782 99.941406-197.445313 0-135.308593-109.691406-245-245-245s-245 109.691407-245 245c0 80.171875 38.511718 151.347657 98.042968 196.042969zm0 0" fill="#f9ce00"/><path d="m361.035156 483.074219c11.285156-6.046875 22.042969-12.953125 32.183594-20.628907l-.015625-360.855468c0-30.179688-24.46875-54.644532-54.648437-54.640625l-188.015626.007812c-30.183593 0-54.644531 24.46875-54.644531 54.648438l.015625 359.414062c10.132813 7.820313 20.894532 14.863281 32.195313 21.046875zm0 0" fill="#284cb2"/><path d="m150.539062 46.957031c-30.183593 0-54.644531 24.46875-54.644531 54.648438l.015625 359.414062c17.546875 13.550781 36.980469 24.765625 57.84375 33.199219-.074218-1.171875-.125-2.347656-.125-3.535156l-.019531-389.078125c-.003906-30.179688 24.460937-54.648438 54.640625-54.648438v-.007812c-.035156 0 .039062 0 0 0zm0 0" fill="#1d3ba8"/><path d="m364.660156 481.089844-.019531-379.496094c0-14.40625-11.679687-26.082031-26.082031-26.082031l-34.867188.003906c-3.574218 0-6.816406 2.050781-8.390625 5.261719-3.441406 7.023437-10.652343 11.859375-19 11.859375l-63.5.003906c-8.347656 0-15.5625-4.835937-19-11.859375-1.574219-3.210938-4.820312-5.261719-8.394531-5.261719l-34.867188.003907c-14.402343 0-26.082031 11.675781-26.078124 26.082031l.015624 378.445312c35.699219 20.324219 77 31.941407 121.019532 31.941407 43.257812 0 83.886718-11.226563 119.164062-30.902344zm0 0" fill="#d6eafc"/><path d="m150.539062 75.519531c-14.40625 0-26.082031 11.679688-26.082031 26.085938l.019531 378.445312c9.382813 5.34375 19.15625 10.074219 29.265626 14.160157-.074219-1.167969-.113282-2.34375-.113282-3.53125l-.019531-389.074219c0-9.449219 2.394531-18.335938 6.613281-26.085938zm0 0" fill="#b7dbf6"/><path d="m423.445312 28.503906c-15.742187-27.265625-50.609374-36.609375-77.875-20.867187-27.261718 15.742187-36.605468 50.605469-20.863281 77.871093 15.742188 27.265626 50.605469 36.609376 77.871094 20.867188s36.609375-50.609375 20.867187-77.871094zm0 0" fill="#60d882"/><path d="m380.980469 87.917969c-5.832031-10.097657-4.773438-22.28125 1.707031-31.121094l-2.832031-4.902344c-10.894531 1.195313-22.921875-5.621093-28.753907-15.722656-6.132812-10.625-4.648437-23.550781 2.753907-32.46875-2.816407 1.074219-5.582031 2.378906-8.273438 3.933594-27.265625 15.742187-36.609375 50.609375-20.867187 77.875 15.742187 27.265625 50.609375 36.605469 77.875 20.863281 2.316406-1.335938 4.496094-2.8125 6.550781-4.410156-11.007813 1.347656-22.265625-3.835938-28.160156-14.046875zm0 0" fill="#37c47a"/><path d="m364.421875 75.972656-13.503906-13.503906c-3.101563-3.097656-3.101563-8.121094-.003907-11.21875 3.097657-3.097656 8.121094-3.101562 11.222657 0l7.894531 7.894531 18.429688-18.4375c3.101562-3.097656 8.125-3.097656 11.222656 0 3.097656 3.097657 3.097656 8.121094 0 11.21875l-24.042969 24.046875c-3.097656 3.097656-8.121094 3.097656-11.21875 0zm0 0" fill="#d6eafc"/><path d="m190.054688 370.6875v-27.359375c0-2.675781-2.167969-4.84375-4.84375-4.84375h-27.359376c-2.675781 0-4.84375 2.167969-4.84375 4.84375v27.359375c0 2.675781 2.167969 4.84375 4.84375 4.84375h27.359376c2.675781 0 4.84375-2.167969 4.84375-4.84375zm0 0" fill="#f95d95"/><path d="m264.152344 370.6875v-27.359375c0-2.675781-2.167969-4.84375-4.84375-4.84375h-27.359375c-2.675781 0-4.84375 2.167969-4.84375 4.84375v27.359375c0 2.675781 2.167969 4.84375 4.84375 4.84375h27.359375c2.675781 0 4.84375-2.167969 4.84375-4.84375zm0 0" fill="#60d882"/><path d="m190.054688 444.785156v-27.359375c0-2.675781-2.167969-4.84375-4.84375-4.84375h-27.359376c-2.675781 0-4.84375 2.167969-4.84375 4.84375v27.359375c0 2.675782 2.167969 4.84375 4.84375 4.84375h27.359376c2.675781 0 4.84375-2.167968 4.84375-4.84375zm0 0" fill="#f9ce00"/><path d="m264.152344 444.785156v-27.359375c0-2.675781-2.167969-4.84375-4.84375-4.84375h-27.359375c-2.675781 0-4.84375 2.167969-4.84375 4.84375v27.359375c0 2.675782 2.167969 4.84375 4.84375 4.84375h27.359375c2.675781 0 4.84375-2.167968 4.84375-4.84375zm0 0" fill="#06daf7"/><path d="m171.53125 370.6875v-27.359375c0-2.675781 2.167969-4.84375 4.84375-4.84375h-18.523438c-2.675781 0-4.84375 2.167969-4.84375 4.84375v27.359375c0 2.675781 2.167969 4.84375 4.84375 4.84375h18.523438c-2.675781 0-4.84375-2.167969-4.84375-4.84375zm0 0" fill="#e5387f"/><path d="m245.628906 370.6875v-27.359375c0-2.675781 2.167969-4.84375 4.84375-4.84375h-18.523437c-2.675781 0-4.847657 2.167969-4.847657 4.84375v27.359375c0 2.675781 2.171876 4.84375 4.847657 4.84375h18.523437c-2.675781 0-4.84375-2.167969-4.84375-4.84375zm0 0" fill="#37c47a"/><path d="m171.53125 444.785156v-27.359375c0-2.675781 2.167969-4.84375 4.84375-4.84375h-18.523438c-2.675781 0-4.84375 2.167969-4.84375 4.84375v27.359375c0 2.675782 2.167969 4.84375 4.84375 4.84375h18.523438c-2.675781 0-4.84375-2.167968-4.84375-4.84375zm0 0" fill="#f4b500"/><path d="m245.628906 444.785156v-27.359375c0-2.675781 2.167969-4.84375 4.84375-4.84375h-18.523437c-2.675781 0-4.847657 2.167969-4.847657 4.84375v27.359375c0 2.675782 2.171876 4.84375 4.847657 4.84375h18.523437c-2.675781 0-4.84375-2.167968-4.84375-4.84375zm0 0" fill="#05b8e2"/><path d="m338.25 370.6875v-27.359375c0-2.675781-2.167969-4.84375-4.84375-4.84375h-27.359375c-2.675781 0-4.84375 2.167969-4.84375 4.84375v27.359375c0 2.675781 2.167969 4.84375 4.84375 4.84375h27.359375c2.675781 0 4.84375-2.167969 4.84375-4.84375zm0 0" fill="#406bcc"/><path d="m338.25 444.785156v-27.359375c0-2.675781-2.167969-4.84375-4.84375-4.84375h-27.359375c-2.675781 0-4.84375 2.167969-4.84375 4.84375v27.359375c0 2.675782 2.167969 4.84375 4.84375 4.84375h27.359375c2.675781 0 4.84375-2.167968 4.84375-4.84375zm0 0" fill="#f4b500"/><path d="m319.726562 370.6875v-27.359375c0-2.675781 2.167969-4.84375 4.84375-4.84375h-18.523437c-2.675781 0-4.84375 2.167969-4.84375 4.84375v27.359375c0 2.675781 2.167969 4.84375 4.84375 4.84375h18.523437c-2.675781 0-4.84375-2.167969-4.84375-4.84375zm0 0" fill="#284cb2"/><path d="m319.726562 444.785156v-27.359375c0-2.675781 2.167969-4.84375 4.84375-4.84375h-18.523437c-2.675781 0-4.84375 2.167969-4.84375 4.84375v27.359375c0 2.675782 2.167969 4.84375 4.84375 4.84375h18.523437c-2.675781 0-4.84375-2.167968-4.84375-4.84375zm0 0" fill="#f29b00"/><path d="m267.597656 78.296875h-24.546875c-3.960937 0-7.171875-3.210937-7.171875-7.175781 0-3.960938 3.210938-7.171875 7.171875-7.171875h24.546875c3.960938 0 7.171875 3.210937 7.171875 7.171875 0 3.964844-3.210937 7.175781-7.171875 7.175781zm0 0" fill="#406bcc"/><path d="m217.878906 78.296875c-4.007812 0-7.171875-3.289063-7.171875-7.175781 0-3.558594 2.617188-6.4375 5.777344-7.03125.917969-.191406 1.875-.191406 2.800781 0 3.226563.605468 5.769532 3.539062 5.769532 7.03125 0 3.917968-3.175782 7.175781-7.175782 7.175781zm0 0" fill="#406bcc"/><path d="m312.308594 269.511719v-120.238281c0-5.410157-4.425782-9.835938-9.835938-9.835938h-113.953125c-5.410156 0-9.835937 4.425781-9.835937 9.835938v120.238281c0 5.410156 4.425781 9.839843 9.835937 9.839843h113.953125c5.410156 0 9.835938-4.429687 9.835938-9.839843zm0 0" fill="#f95d95"/><path d="m312.308594 269.511719v-120.238281c0-5.410157-4.425782-9.835938-9.835938-9.835938h-113.953125c-5.410156 0-9.835937 4.425781-9.835937 9.835938v120.238281c0 5.410156 4.425781 9.839843 9.835937 9.839843h113.953125c5.410156 0 9.835938-4.429687 9.835938-9.839843zm0 0" fill="#f95d95"/><path d="m206.304688 269.511719v-120.238281c0-5.410157 4.425781-9.835938 9.835937-9.835938h-27.621094c-5.410156 0-9.835937 4.425781-9.835937 9.835938v120.238281c0 5.410156 4.425781 9.835937 9.835937 9.835937h27.621094c-5.410156.003906-9.835937-4.425781-9.835937-9.835937zm0 0" fill="#e5387f"/><path d="m264.746094 256.5625h-38.90625c-14.488282 0-35.414063 9.382812-40.148438 22.367188.898438.269531 1.847656.421874 2.828125.421874h113.953125c.980469 0 1.929688-.152343 2.824219-.421874-4.738281-12.984376-26.0625-22.367188-40.550781-22.367188zm0 0" fill="#06daf7"/><path d="m242.347656 272.453125v-15.890625h-16.507812c-14.488282 0-35.414063 9.382812-40.148438 22.367188.898438.269531 1.847656.421874 2.828125.421874h50.921875c-.59375-.734374-.964844-1.65625-.964844-2.671874 0-2.222657 1.703126-4.023438 3.871094-4.226563zm0 0" fill="#05b8e2"/><path d="m239.464844 158.636719c-17.5 2.386719-19.164063 12.308593-19.171875 15.949219 0 .765624-.421875 1.472656-1.109375 1.804687-9.105469 4.429687-4.195313 25.773437-4.195313 25.773437.914063.0625 1.871094.429688 2.585938.777344.175781-1.089844.460937-2.160156.863281-3.195312.304688-.789063.691406-1.582032 1.167969-2.335938.835937-1.304687 1.214843-2.847656 1.101562-4.386718-.328125-4.453126-.171875-13.226563 5.707031-15.871094 4.976563-2.242188 11.085938-.945313 14.980469.351562 2.53125.839844 5.273438.839844 7.800781 0 3.894532-1.296875 10.003907-2.59375 14.980469-.351562 5.863281 2.636718 6.035157 11.367187 5.710938 15.832031-.109375 1.550781.257812 3.109375 1.097656 4.425781.496094.777344.886719 1.601563 1.199219 2.414063.390625 1.011719.664062 2.054687.835937 3.117187.898438-.4375 2.183594-.910156 3.285157-.753906.132812-4.667969.5625-9.699219.5625-9.699219 5.1875-25.402343-18.558594-36.417969-37.402344-33.851562zm0 0" fill="#1d3ba8"/><path d="m269.664062 256.199219c-.847656-.230469-1.699218-.445313-2.5625-.644531-3.371093-3.371094-4.226562-9.765626-4.382812-14.238282-1.757812 2.046875-3.605469 3.761719-5.371094 5.132813-3.4375 2.671875-7.683594 4.121093-12.054687 4.121093-4.371094 0-8.613281-1.449218-12.050781-4.121093-1.765626-1.371094-3.613282-3.085938-5.371094-5.132813-.15625 4.472656-1.011719 10.867188-4.382813 14.238282-.863281.199218-1.714843.417968-2.5625.644531 13.265625 13.886719 35.46875 13.886719 48.738281 0zm0 0" fill="#f4b5ba"/><path d="m245.628906 252.933594c0-.800782-.035156-1.59375-.097656-2.371094-.082031 0-.15625.007812-.238281.007812-4.371094 0-8.613281-1.449218-12.050781-4.121093-1.765626-1.371094-3.613282-3.085938-5.371094-5.136719-.15625 4.476562-1.011719 10.871094-4.382813 14.242188-.863281.199218-1.714843.414062-2.5625.644531 5.839844 6.109375 13.40625 9.527343 21.183594 10.261719 2.21875-3.855469 3.519531-8.511719 3.519531-13.527344zm0 0" fill="#e8aab1"/><path d="m277.660156 202.789062c-1.363281-1.246093-4.078125-.613281-5.253906.152344.257812 1.601563.273438 3.238282.050781 4.855469l-1.382812 10.089844c0 .8125-.027344 1.613281-.074219 2.394531 3.378906 1.019531 5.054688-2.011719 5.339844-4.09375.121094-.894531.320312-1.777344.59375-2.640625.898437-2.804687 4.140625-7.625.726562-10.757813zm0 0" fill="#f4b5ba"/><path d="m212.929688 202.789062c1.363281-1.246093 4.078124-.613281 5.25.152344-.253907 1.601563-.269532 3.238282-.046876 4.855469l1.382813 10.089844c0 .8125.027344 1.613281.074219 2.394531-3.378906 1.019531-5.054688-2.011719-5.339844-4.09375-.121094-.894531-.320312-1.777344-.59375-2.640625-.902344-2.804687-4.140625-7.625-.726562-10.757813zm0 0" fill="#f4b5ba"/><path d="m273.269531 257.277344c-2.007812-.65625-4.058593-1.238282-6.167969-1.722656-11.683593 12.882812-31.929687 12.882812-43.613281 0-2.109375.488281-4.160156 1.066406-6.171875 1.722656-.503906.167968-.710937.789062-.398437 1.222656 6.367187 8.78125 16.703125 14.492188 28.378906 14.492188 11.671875 0 22.011719-5.710938 28.378906-14.492188.308594-.433594.101563-1.054688-.40625-1.222656zm0 0" fill="#05b8e2"/><path d="m267.878906 301.851562c0-4.144531-3.359375-7.5-7.5-7.5h-29.5c-4.144531 0-7.5 3.355469-7.5 7.5 0 4.140626 3.355469 7.5 7.5 7.5h29.5c4.140625 0 7.5-3.359374 7.5-7.5zm0 0" fill="#b7dbf6"/><path d="m243.546875 301.851562c0-4.144531 3.355469-7.5 7.5-7.5h-20.167969c-4.144531 0-7.5 3.355469-7.5 7.5 0 4.140626 3.355469 7.5 7.5 7.5h20.167969c-4.144531 0-7.5-3.359374-7.5-7.5zm0 0" fill="#97cbef"/><path d="m239.367188 269.242188c0-2.042969 1.449218-3.746094 3.375-4.144532-7.109376-.613281-14.035157-3.789062-19.253907-9.542968-2.109375.488281-4.160156 1.066406-6.171875 1.722656-.507812.167968-.714844.789062-.398437 1.222656 5.613281 7.746094 14.324219 13.097656 24.3125 14.253906-1.125-.761718-1.863281-2.050781-1.863281-3.511718zm0 0" fill="#07a3d3"/><path d="m237.828125 169.1875c0-5.109375 3.355469-9.4375 7.984375-10.894531-2.144531-.046875-4.273438.0625-6.347656.34375-17.5 2.386719-19.164063 12.308593-19.171875 15.949219 0 .761718-.425781 1.472656-1.109375 1.804687-9.105469 4.429687-4.195313 25.773437-4.195313 25.773437.914063.0625 1.871094.429688 2.585938.777344.171875-1.089844.457031-2.160156.859375-3.195312.308594-.789063.691406-1.585938 1.171875-2.335938.832031-1.308594 1.210937-2.847656 1.097656-4.386718-.324219-4.453126-.167969-13.230469 5.710937-15.875 4.976563-2.238282 11.085938-.941407 14.980469.351562.019531.007812.039063.011719.058594.019531-2.226563-2.085937-3.625-5.042969-3.625-8.332031zm0 0" fill="#122894"/><path d="m218.875 213.207031c-.691406.550781-1.554688.894531-2.507812.894531-1.203126 0-2.273438-.539062-3.015626-1.375.113282.285157.21875.5625.300782.820313.277344.863281.476562 1.746094.597656 2.640625.285156 2.082031 1.960938 5.113281 5.339844 4.097656-.046875-.785156-.074219-1.585937-.074219-2.398437zm0 0" fill="#e8aab1"/><path d="m274.195312 214.101562c-.941406 0-1.796874-.335937-2.484374-.875l-.640626 4.660157c0 .8125-.023437 1.613281-.070312 2.398437 3.375 1.015625 5.054688-2.015625 5.335938-4.097656.125-.894531.324218-1.777344.597656-2.640625.085937-.273437.203125-.570313.328125-.882813-.742188.871094-1.832031 1.4375-3.066407 1.4375zm0 0" fill="#e8aab1"/><path d="m272.289062 199.617188c-.3125-.816407-.707031-1.644532-1.203124-2.421876-.84375-1.324218-1.214844-2.886718-1.101563-4.445312.324219-4.480469.152344-13.25-5.734375-15.894531-4.996094-2.25-11.128906-.949219-15.039062.351562-2.539063.84375-5.292969.84375-7.832032 0-3.910156-1.300781-10.042968-2.601562-15.042968-.351562-5.898438 2.652343-6.058594 11.464843-5.730469 15.933593.113281 1.546876-.265625 3.09375-1.101563 4.40625-.484375.753907-.867187 1.554688-1.175781 2.34375-1 2.570313-1.289063 5.355469-.917969 8.082032l1.390625 10.132812c0 14.566406 7.777344 24.46875 14.390625 29.605469 3.453125 2.679687 7.714844 4.136719 12.101563 4.136719s8.648437-1.457032 12.101562-4.136719c6.613281-5.136719 14.390625-15.039063 14.390625-29.605469l1.390625-10.128906c.371094-2.703125.089844-5.460938-.886719-8.007812zm0 0" fill="#ffc2c4"/><path d="m246.699219 247.359375c-4.390625-5.136719-9.550781-15.039063-9.550781-29.605469l-.921876-10.132812c-.25-2.726563-.054687-5.511719.609376-8.078125.203124-.792969.457031-1.59375.777343-2.347657.554688-1.3125.808594-2.859374.734375-4.40625-.210937-4.261718-.117187-12.449218 3.28125-15.507812-.082031-.027344-.167968-.046875-.25-.074219-3.914062-1.300781-10.042968-2.601562-15.042968-.351562-5.902344 2.652343-6.058594 11.460937-5.730469 15.933593.113281 1.546876-.265625 3.09375-1.101563 4.40625-.484375.753907-.867187 1.554688-1.175781 2.347657-1 2.566406-1.292969 5.351562-.917969 8.078125l1.390625 10.132812c0 14.570313 7.777344 24.46875 14.390625 29.605469 3.453125 2.679687 7.714844 4.136719 12.101563 4.136719 1.933593 0 3.84375-.296875 5.671875-.847656-1.535156-.691407-2.988282-1.792969-4.265625-3.289063zm0 0" fill="#f4b5ba"/></svg>