<svg height="512pt" viewBox="-11 0 512 512" width="512pt" xmlns="http://www.w3.org/2000/svg"><path d="m76.492188 444.839844h337.015624c47.109376-44.648438 76.496094-107.8125 76.496094-177.839844 0-135.3125-109.691406-245.003906-245.003906-245.003906-135.308594 0-245 109.691406-245 245.003906 0 70.027344 29.386719 133.191406 76.492188 177.839844zm0 0" fill="#ef4a8a"/><path d="m381.453125 0h-272.902344c-18.773437 0-34.128906 15.359375-34.128906 34.128906v408.710938c44.109375 42.800781 104.261719 69.160156 170.578125 69.160156s126.46875-26.359375 170.582031-69.160156v-408.710938c0-18.769531-15.359375-34.128906-34.128906-34.128906zm0 0" fill="#d6eafc"/><path d="m133.992188 16.253906c0-7.25 4.339843-13.476562 10.5625-16.253906h-36.003907c-18.773437 0-34.128906 15.359375-34.128906 34.128906v408.710938c20.265625 19.664062 43.921875 35.84375 70 47.601562v-456.3125c0-.558594.015625-1.113281.042969-1.664062-6.171875-2.796875-10.472656-8.996094-10.472656-16.210938zm0 0" fill="#b7dbf6"/><path d="m282.3125 437.355469h37.011719c0-40.980469-33.339844-74.324219-74.324219-74.324219v37.011719c20.574219 0 37.3125 16.738281 37.3125 37.3125zm0 0" fill="#284cb2"/><path d="m207.535156 437.355469h-37.011718c0-40.980469 33.34375-74.324219 74.324218-74.324219v37.011719c-20.574218 0-37.3125 16.738281-37.3125 37.3125zm0 0" fill="#284cb2"/><path d="m224.828125 405.753906c-17.816406 0-26.8125-21.546875-14.402344-34.238281-23.691406 12.4375-39.902343 37.273437-39.902343 65.839844h37.011718c0-13.308594 7.011719-25.007813 17.527344-31.613281-.078125 0-.152344.011718-.234375.011718zm0 0" fill="#1d3ba8"/><path d="m207.535156 437.507812h-37.011718c0 40.980469 33.34375 74.324219 74.324218 74.324219v-37.011719c-20.574218 0-37.3125-16.738281-37.3125-37.3125zm0 0" fill="#1d3ba8"/><path d="m136.265625 281.230469c-12.125 0-22.046875 9.921875-22.046875 22.046875 0 12.128906 9.921875 22.046875 22.046875 22.046875 12.128906 0 22.050781-9.921875 22.050781-22.046875s-9.921875-22.046875-22.050781-22.046875zm0 0" fill="#f4b500"/><path d="m144.464844 308.933594c-7.617188 0-13.851563-6.234375-13.851563-13.851563 0-6.375 4.371094-11.765625 10.261719-13.359375-1.488281-.320312-3.027344-.492187-4.609375-.492187-12.125 0-22.046875 9.921875-22.046875 22.050781 0 12.125 9.921875 22.046875 22.046875 22.046875 12.128906 0 22.050781-9.921875 22.050781-22.046875 0-1.582031-.171875-3.121094-.492187-4.609375-1.59375 5.886719-6.984375 10.261719-13.359375 10.261719zm0 0" fill="#f29b00"/><path d="m359.53125 388.664062h-11.214844c-8.976562 0-16.253906-7.273437-16.253906-16.253906 0-8.976562 7.277344-16.253906 16.253906-16.253906h11.214844c8.976562 0 16.253906 7.277344 16.253906 16.253906 0 8.980469-7.277344 16.253906-16.253906 16.253906zm0 0" fill="#f95d95"/><path d="m353.921875 372.410156c0-7.105468 4.574219-13.136718 10.929687-15.34375-1.667968-.578125-3.457031-.910156-5.324218-.910156h-11.210938c-8.976562 0-16.253906 7.277344-16.253906 16.253906 0 8.980469 7.277344 16.253906 16.253906 16.253906h11.210938c1.867187 0 3.65625-.328124 5.324218-.90625-6.355468-2.207031-10.929687-8.234374-10.929687-15.347656zm0 0" fill="#e5387f"/><path d="m378.015625 32.507812h-266.027344c-2.785156 0-5.058593 2.277344-5.058593 5.058594v181.398438c0 2.78125 2.273437 5.054687 5.054687 5.054687h266.03125c2.78125 0 5.054687-2.273437 5.054687-5.054687v-181.398438c.003907-2.78125-2.273437-5.058594-5.054687-5.058594zm0 0" fill="#406bcc"/><path d="m111.988281 32.507812c-2.785156 0-5.058593 2.277344-5.058593 5.058594v181.398438c0 2.777344 2.273437 5.054687 5.054687 5.054687h32.4375v-189.890625c0-.542968.015625-1.082031.039063-1.621094zm0 0" fill="#284cb2"/><path d="m111.71875 224.019531c7.476562 14.933594 22.933594 25.253907 40.691406 25.253907h185.183594c17.757812 0 33.210938-10.320313 40.691406-25.253907zm0 0" fill="#284cb2"/><path d="m144.464844 224.019531h-32.746094c7.476562 14.933594 22.933594 25.253907 40.691406 25.253907h32.746094c-17.757812 0-33.214844-10.320313-40.691406-25.253907zm0 0" fill="#1d3ba8"/><path d="m292.808594 111.363281-43.863282-43.867187c-2.261718-2.261719-5.929687-2.261719-8.191406 0l-43.863281 43.867187c-1.085937 1.085938-1.695313 2.558594-1.695313 4.09375v68.84375c0 3.195313 2.589844 5.789063 5.789063 5.789063h87.730469c3.199218 0 5.789062-2.59375 5.789062-5.789063v-68.84375c0-1.535156-.609375-3.007812-1.695312-4.09375zm0 0" fill="#06daf7"/><path d="m228.449219 124.457031c0-1.535156.613281-3.007812 1.699219-4.09375l35.828124-35.832031-17.03125-17.035156c-2.261718-2.261719-5.929687-2.261719-8.191406 0l-43.863281 43.867187c-1.085937 1.085938-1.695313 2.558594-1.695313 4.09375v68.84375c0 3.195313 2.589844 5.789063 5.789063 5.789063h27.464844zm0 0" fill="#05b8e2"/><path d="m282.3125 437.507812h37.011719c0 40.980469-33.339844 74.324219-74.324219 74.324219v-37.011719c20.574219 0 37.3125-16.738281 37.3125-37.3125zm0 0" fill="#284cb2"/><path d="m267.351562 467.367188c-6.234374 4.679687-13.972656 7.453124-22.351562 7.453124v37.011719c18.257812 0 34.984375-6.628906 47.9375-17.585937-16.738281 6.316406-32.636719-10.6875-25.585938-26.878906zm0 0" fill="#1d3ba8"/><path d="m208.957031 437.355469c0-3.117188.40625-6.144531 1.160157-9.03125h-38.996094c-.378906 3.042969-.597656 6.132812-.597656 9.277343 0 2.972657.195312 5.902344.535156 8.785157h39.058594c-.753907-2.886719-1.160157-5.910157-1.160157-9.03125zm0 0" fill="#284cb2"/><path d="m244.699219 401.617188c3.226562 0 6.355469.4375 9.332031 1.242187v-39.085937c-2.988281-.363282-6.019531-.574219-9.105469-.574219-3.03125 0-6.015625.203125-8.953125.558593v38.941407c2.792969-.707031 5.714844-1.082031 8.726563-1.082031zm0 0" fill="#406bcc"/><path d="m318.730469 428.324219h-39.449219c.753906 2.886719 1.15625 5.914062 1.15625 9.03125 0 3.121093-.402344 6.144531-1.15625 9.03125h39.507812c.34375-2.882813.535157-5.8125.535157-8.785157 0-3.144531-.21875-6.234374-.59375-9.277343zm0 0" fill="#406bcc"/><path d="m244.699219 473.09375c-3.011719 0-5.933594-.375-8.726563-1.082031v39.433593c2.9375.351563 5.921875.554688 8.953125.554688 3.085938 0 6.121094-.210938 9.105469-.574219v-39.574219c-2.976562.804688-6.105469 1.242188-9.332031 1.242188zm0 0" fill="#284cb2"/><path d="m259.929688 190.050781c.542968 0 1.082031.015625 1.621093.039063v-27.195313c0-9.136719-7.410156-16.546875-16.550781-16.546875s-16.550781 7.410156-16.550781 16.546875v27.15625zm0 0" fill="#07a3d3"/><path d="m244.699219 399.308594c-20.980469 0-38.046875 17.066406-38.046875 38.046875s17.066406 38.046875 38.046875 38.046875c20.976562 0 38.046875-17.066406 38.046875-38.046875s-17.070313-38.046875-38.046875-38.046875zm0 0" fill="#1d3ba8"/><path d="m261.429688 468.332031c-23.519532 0-42.648438-19.132812-42.648438-42.652343 0-7.269532 1.832031-14.121094 5.054688-20.117188-10.339844 6.808594-17.183594 18.511719-17.183594 31.792969 0 20.980469 17.066406 38.046875 38.046875 38.046875 8.472656 0 16.308593-2.785156 22.640625-7.488282-1.933594.269532-3.90625.417969-5.910156.417969zm0 0" fill="#122894"/><path d="m141.683594 388.664062h-11.210938c-8.976562 0-16.253906-7.273437-16.253906-16.253906 0-8.976562 7.277344-16.253906 16.253906-16.253906h11.210938c8.976562 0 16.253906 7.277344 16.253906 16.253906 0 8.980469-7.277344 16.253906-16.253906 16.253906zm0 0" fill="#06daf7"/><path d="m136.078125 372.410156c0-7.105468 4.570313-13.136718 10.929687-15.34375-1.667968-.578125-3.457031-.910156-5.324218-.910156h-11.210938c-8.976562 0-16.253906 7.277344-16.253906 16.253906 0 8.980469 7.277344 16.253906 16.253906 16.253906h11.210938c1.867187 0 3.65625-.328124 5.324218-.90625-6.359374-2.207031-10.929687-8.234374-10.929687-15.347656zm0 0" fill="#05b8e2"/><path d="m208.757812 281.230469c-12.128906 0-22.050781 9.921875-22.050781 22.046875 0 12.128906 9.921875 22.046875 22.050781 22.046875 12.125 0 22.046876-9.921875 22.046876-22.046875s-9.921876-22.046875-22.046876-22.046875zm0 0" fill="#f4b500"/><path d="m216.953125 308.933594c-7.617187 0-13.851563-6.234375-13.851563-13.851563 0-6.375 4.375-11.765625 10.261719-13.359375-1.488281-.320312-3.027343-.492187-4.605469-.492187-12.128906 0-22.050781 9.921875-22.050781 22.050781 0 12.125 9.921875 22.046875 22.050781 22.046875 12.125 0 22.046876-9.921875 22.046876-22.046875 0-1.582031-.171876-3.121094-.492188-4.609375-1.59375 5.886719-6.984375 10.261719-13.359375 10.261719zm0 0" fill="#f29b00"/><path d="m281.246094 281.230469c-12.128906 0-22.050782 9.921875-22.050782 22.046875 0 12.128906 9.921876 22.046875 22.050782 22.046875 12.125 0 22.046875-9.921875 22.046875-22.046875s-9.921875-22.046875-22.046875-22.046875zm0 0" fill="#f4b500"/><path d="m289.441406 308.933594c-7.617187 0-13.847656-6.234375-13.847656-13.851563 0-6.375 4.371094-11.765625 10.257812-13.359375-1.488281-.320312-3.027343-.492187-4.605468-.492187-12.128906 0-22.050782 9.921875-22.050782 22.050781 0 12.125 9.921876 22.046875 22.050782 22.046875 12.125 0 22.046875-9.921875 22.046875-22.046875 0-1.582031-.171875-3.121094-.492188-4.609375-1.589843 5.886719-6.980469 10.261719-13.359375 10.261719zm0 0" fill="#f29b00"/><path d="m353.734375 281.230469c-12.125 0-22.046875 9.921875-22.046875 22.046875 0 12.128906 9.921875 22.046875 22.046875 22.046875s22.046875-9.921875 22.046875-22.046875c.003906-12.125-9.917969-22.046875-22.046875-22.046875zm0 0" fill="#f4b500"/><path d="m361.933594 308.933594c-7.617188 0-13.851563-6.234375-13.851563-13.851563 0-6.375 4.371094-11.765625 10.261719-13.359375-1.488281-.320312-3.027344-.492187-4.609375-.492187-12.125 0-22.046875 9.921875-22.046875 22.050781 0 12.125 9.921875 22.046875 22.046875 22.046875s22.046875-9.921875 22.046875-22.046875c0-1.582031-.171875-3.121094-.492188-4.609375-1.589843 5.886719-6.980468 10.261719-13.355468 10.261719zm0 0" fill="#f29b00"/></svg>