<svg height="512pt" viewBox="0 -11 512 512" width="512pt" xmlns="http://www.w3.org/2000/svg"><path d="m245 0c-54.726562 0-105.261719 17.949219-146.042969 48.277344l34.867188 400.0625h247.882812c65.324219-44.003906 108.292969-118.652344 108.292969-203.339844 0-135.308594-109.691406-245-245-245zm0 0" fill="#60d882"/><path d="m133.828125 448.339844 1.371094 15.730468c33.027343 16.589844 70.324219 25.929688 109.800781 25.929688 50.621094 0 97.65625-15.355469 136.707031-41.660156zm0 0" fill="#122894"/><path d="m452.769531 46.917969c-40.214843 0-285.332031 0-351.929687 0-61.113282 44.546875-100.839844 116.667969-100.839844 198.082031 0 61.148438 22.414062 117.050781 59.460938 159.972656h393.308593c15.800781 0 28.65625-12.855468 28.65625-28.65625v-300.746094c0-15.796874-12.855469-28.652343-28.65625-28.652343zm0 0" fill="#284cb2"/><path d="m0 245c0 61.140625 22.402344 117.050781 59.4375 159.972656h35.953125c-15.796875 0-28.652344-12.855468-28.652344-28.65625.324219-224.246094-.375-282.027344.03125-299.40625-41.390625 43.871094-66.769531 103.015625-66.769531 168.089844zm0 0" fill="#1d3ba8"/><path d="m501.695312 404.890625h-442.304687c21.527344 24.960937 47.996094 45.535156 77.894531 60.191406h325.101563c27.398437 0 49.613281-22.3125 49.613281-49.839843 0-5.714844-4.613281-10.351563-10.304688-10.351563zm0 0" fill="#d6eafc"/><path d="m139.839844 404.890625v16.933594c0 7.238281 5.898437 13.164062 13.105468 13.164062h175.441407c7.207031 0 13.101562-5.925781 13.101562-13.164062v-16.933594zm0 0" fill="#b7dbf6"/><path d="m212.035156 421.824219v-16.933594h-72.191406v16.933594c0 7.238281 5.894531 13.164062 13.101562 13.164062h72.191407c-7.207031 0-13.101563-5.925781-13.101563-13.164062zm0 0" fill="#97cbef"/><path d="m28.582031 359.925781c2.769531 5.203125 5.726563 10.296875 8.851563 15.269531 9.835937.023438 67.925781.007813 406.648437.007813 4.183594 0 7.574219-3.390625 7.574219-7.574219 0-29.855468 0-203.269531 0-227.933594h-423.074219zm0 0" fill="#122894"/><path d="m66.738281 316.808594c0-18.140625 0-157.628906 0-176.632813h-38.15625v219.75c2.769531 5.207031 5.726563 10.296875 8.851563 15.269531 3.011718.007813 10.570312.007813 29.304687.011719zm0 0" fill="#012481"/><path d="m444.09375 76.6875h-.011719c-36.765625 0-317.628906 0-377.082031 0-15.066406 15.925781-28.027344 33.867188-38.417969 53.386719v11.664062h423.074219v-57.476562c0-4.144531-3.398438-7.570313-7.5625-7.574219zm0 0" fill="#06daf7"/><path d="m28.582031 130.089844v11.648437h38.15625v-64.792969c-14.960937 15.867188-27.824219 33.726563-38.15625 53.144532zm0 0" fill="#05b8e2"/><g fill="#d6eafc"><path d="m65.53125 117.808594c-4.480469 0-8.1875-3.644532-8.1875-8.1875 0-5.117188 4.742188-9.0625 9.792969-8.027344 3.699219.691406 6.585937 4.058594 6.585937 8.027344 0 4.429687-3.578125 8.1875-8.191406 8.1875zm0 0"/><path d="m96.597656 117.808594c-4.574218 0-8.1875-3.738282-8.1875-8.1875 0-5.1875 4.792969-9.058594 9.792969-8.027344 3.800781.726562 6.585937 4.140625 6.585937 8.027344 0 4.433594-3.597656 8.1875-8.191406 8.1875zm0 0"/><path d="m127.683594 117.808594c-4.628906 0-8.1875-3.773438-8.1875-8.1875 0-5.1875 4.789062-9.058594 9.785156-8.027344 3.867188.722656 6.59375 4.242188 6.59375 8.027344 0 4.613281-3.792969 8.1875-8.191406 8.1875zm0 0"/></g><path d="m410.433594 117.808594h-245.316406c-4.519532 0-8.1875-3.667969-8.1875-8.1875 0-4.523438 3.667968-8.191406 8.1875-8.191406h245.316406c4.523437 0 8.191406 3.667968 8.191406 8.191406 0 4.523437-3.667969 8.1875-8.191406 8.1875zm0 0" fill="#55f3ff"/><path d="m164.351562 226.859375-43.863281-43.867187c-2.261719-2.261719-5.925781-2.261719-8.1875 0l-43.867187 43.867187c-1.085938 1.085937-1.695313 2.558594-1.695313 4.09375v57.84375c0 3.195313 2.589844 5.789063 5.789063 5.789063h87.730468c3.199219 0 5.792969-2.59375 5.792969-5.789063v-57.84375c0-1.535156-.613281-3.007813-1.699219-4.09375zm0 0" fill="#06daf7"/><path d="m99.996094 238.703125c0-1.539063.609375-3.007813 1.695312-4.09375l35.207032-35.207031-16.410157-16.410156c-2.261719-2.261719-5.925781-2.261719-8.1875 0l-43.867187 43.867187c-1.085938 1.085937-1.695313 2.558594-1.695313 4.09375v57.84375c0 3.195313 2.589844 5.789063 5.789063 5.789063h27.46875zm0 0" fill="#05b8e2"/><path d="m131.472656 294.546875c.546875 0 1.085938.015625 1.621094.039063v-27.195313c0-9.136719-7.410156-16.546875-16.546875-16.546875-9.140625 0-16.550781 7.410156-16.550781 16.546875v27.15625zm0 0" fill="#07a3d3"/><path d="m396.433594 176.484375-176.863282.011719c-5.160156 0-9.347656 4.183594-9.347656 9.347656l.003906 138.753906c0 5.164063 4.1875 9.347656 9.351563 9.347656l176.863281-.007812c5.160156 0 9.347656-4.1875 9.347656-9.351562l-.003906-138.75c0-5.164063-4.1875-9.351563-9.351562-9.351563zm0 0" fill="#284cb2"/><path d="m247.140625 324.597656-.003906-138.753906c0-5.164062 4.1875-9.347656 9.351562-9.351562l.035157.003906c-.011719 0-.023438-.003906-.035157-.003906h-36.917969c-5.160156.003906-9.347656 4.1875-9.347656 9.351562l.003906 138.753906c0 5.160156 4.1875 9.347656 9.351563 9.347656h36.878906c-5.148437-.023437-9.3125-4.199218-9.316406-9.347656zm0 0" fill="#1d3ba8"/><path d="m346.539062 246.832031c-.003906-21.265625-17.234374-38.503906-38.5-38.523437h-.066406c-21.25.019531-38.476562 17.238281-38.5 38.488281v.09375c.023438 21.25 17.25 38.46875 38.5 38.488281h.0625c21.265625-.019531 38.496094-17.257812 38.503906-38.527344zm0 0" fill="#f95d95"/><path d="m312 208.515625c-1.308594-.136719-2.640625-.207031-3.988281-.207031h-.015625c-21.257813.003906-38.496094 17.226562-38.523438 38.480468v.105469c.027344 21.242188 17.242188 38.457031 38.484375 38.480469h.097657c1.332031 0 2.648437-.070312 3.949218-.203125-4.996094-4.070313-8.195312-10.261719-8.195312-17.203125 0-4.945312 1.613281-9.507812 4.347656-13.195312 3.523438-4.753907 3.523438-11.109376 0-15.863282-2.734375-3.6875-4.347656-8.25-4.347656-13.191406-.003906-6.945312 3.195312-13.136719 8.191406-17.203125zm0 0" fill="#e5387f"/><path d="m324.472656 243.867188-23.054687-14.570313c-2.34375-1.480469-5.402344.203125-5.402344 2.976563v29.136718c0 2.773438 3.058594 4.457032 5.402344 2.976563l23.054687-14.570313c2.183594-1.378906 2.183594-4.570312 0-5.949218zm0 0" fill="#e6fcff"/><path d="m390.769531 340.574219h-132.734375c-8.265625 0-14.964844-6.699219-14.964844-14.960938 0-8.265625 6.699219-14.964843 14.964844-14.964843h132.734375c8.261719 0 14.964844 6.699218 14.964844 14.964843 0 8.261719-6.703125 14.960938-14.964844 14.960938zm0 0" fill="#ccebff"/><path d="m306.816406 325.609375c0-8.261719 6.699219-14.960937 14.964844-14.960937h-63.746094c-8.265625 0-14.964844 6.699218-14.964844 14.960937 0 8.265625 6.699219 14.964844 14.964844 14.964844h63.746094c-8.265625 0-14.964844-6.699219-14.964844-14.964844zm0 0" fill="#b8dff4"/><path d="m258.035156 340.574219h-32.789062c-8.261719 0-14.964844-6.699219-14.964844-14.960938 0-8.265625 6.699219-14.964843 14.964844-14.964843h32.789062c8.265625 0 14.960938 6.699218 14.960938 14.964843 0 8.261719-6.695313 14.960938-14.960938 14.960938zm0 0" fill="#f95d95"/><path d="m242.847656 325.609375c0-8.261719 6.699219-14.960937 14.960938-14.960937h-32.5625c-8.261719 0-14.964844 6.699218-14.964844 14.960937 0 8.265625 6.699219 14.964844 14.964844 14.964844h32.5625c-8.261719 0-14.960938-6.699219-14.960938-14.964844zm0 0" fill="#e5387f"/><path d="m390.707031 195.847656c0-4.144531-3.359375-7.5-7.5-7.5h-.167969c-4.144531 0-7.5 3.355469-7.5 7.5 0 4.140625 3.355469 7.5 7.5 7.5h.167969c4.140625 0 7.5-3.359375 7.5-7.5zm0 0" fill="#e5387f"/></svg>