<svg height="512pt" viewBox="0 -1 512.00011 512" width="512pt" xmlns="http://www.w3.org/2000/svg"><path d="m244.480469 21.949219c-135.023438 0-244.480469 109.460937-244.480469 244.480469 0 33.957031 6.925781 66.289062 19.4375 95.675781l355.300781 111.230469c68.625-43.292969 114.21875-119.769532 114.21875-206.90625 0-135.019532-109.457031-244.480469-244.476562-244.480469zm0 0" fill="#06daf7"/><path d="m41.894531 403.324219c30.074219 44.417969 74.378907 78.40625 126.363281 95.449219h152.441407c11.300781-3.703126 22.234375-8.207032 32.738281-13.449219v-113.222657h-311.542969zm0 0" fill="#60d882"/><path d="m112.78125 472.417969v-100.316407h-70.886719v31.222657c18.667969 27.570312 42.820313 51.121093 70.886719 69.09375zm0 0" fill="#37c47a"/><path d="m317.933594 416.832031c-10.121094 0-19.410156 3.59375-26.710938 9.578125-.578125.472656-1.386718.472656-1.960937 0-7.300781-5.984375-16.589844-9.578125-26.714844-9.578125-18.453125 0-34.152344 11.917969-40.039063 28.574219-.222656.628906-.808593 1.0625-1.46875 1.046875-.339843-.007813-.679687-.011719-1.019531-.011719-23.492187 0-42.53125 19.296875-42.53125 43.105469 0 3.167969.347657 6.25.988281 9.226563h142.222657c11.296875-3.703126 22.230469-8.210938 32.738281-13.449219v-49.097657c-7.605469-11.679687-20.660156-19.394531-35.503906-19.394531zm0 0" fill="#37c47a"/><path d="m254.9375 495.859375c.292969-.175781.585938-.351563.878906-.519531.574219-.328125.847656-1.003906.710938-1.660156-3.625-17.285157 3.59375-35.625 19.363281-45.214844 8.648437-5.261719 18.453125-7.019532 27.800781-5.699219.734375.105469 1.425782-.316406 1.671875-1.015625 3.128907-8.910156 9.199219-16.804688 17.847657-22.066406 1.160156-.703125 2.34375-1.324219 3.539062-1.902344-2.84375-.613281-5.789062-.949219-8.816406-.949219-10.121094 0-19.410156 3.59375-26.710938 9.578125-.578125.472656-1.386718.472656-1.960937 0-7.300781-5.984375-16.589844-9.578125-26.714844-9.578125-18.453125 0-34.152344 11.917969-40.039063 28.574219-.222656.628906-.808593 1.0625-1.46875 1.046875-.339843-.007813-.679687-.011719-1.023437-.011719-23.488281 0-42.53125 19.296875-42.53125 43.105469 0 3.167969.351563 6.253906.992187 9.226563h72.277344c1.324219-1.039063 2.710938-2.019532 4.183594-2.914063zm0 0" fill="#2bb381"/><path d="m41.894531 261.328125h311.542969v121.523437h-311.542969zm0 0" fill="#406bcc"/><path d="m41.894531 23.308594h311.542969v238.019531h-311.542969zm0 0" fill="#406bcc"/><path d="m98.167969 368.335938c0-8.015626 6.5-14.515626 14.515625-14.515626v-92.492187h-70.789063v121.523437h70.789063c-8.015625 0-14.515625-6.496093-14.515625-14.515624zm0 0" fill="#284cb2"/><path d="m98.265625 43.550781c0-7.984375 6.449219-14.457031 14.417969-14.511719v-5.730468h-70.789063v238.019531h70.789063v-203.265625c-7.96875-.054688-14.417969-6.527344-14.417969-14.511719zm0 0" fill="#284cb2"/><path d="m154.035156 493.625c27.976563 11.148438 58.492188 17.285156 90.445313 17.285156 31.949219 0 62.464843-6.136718 90.441406-17.285156zm0 0" fill="#284cb2"/><path d="m256.941406 493.625h-102.90625c27.976563 11.148438 58.492188 17.285156 90.445313 17.285156 4.164062 0 8.300781-.113281 12.414062-.316406-6.433593-3.425781-6.296875-13.550781.046875-16.96875zm0 0" fill="#1d3ba8"/><path d="m363.816406 0h-332.300781c-7.167969 0-13.027344 5.941406-13.027344 13.203125v346.609375c7.519531 18.1875 17.171875 35.261719 28.644531 50.925781v-381.707031h301.066407v458.828125c9.929687-4.660156 19.5-9.957031 28.648437-15.859375v-458.796875c0-7.261719-5.867187-13.203125-13.03125-13.203125zm0 0" fill="#284cb2"/><path d="m314.882812 261.328125h-234.433593c-2.578125 0-4.671875 2.121094-4.671875 4.734375v83.023438c0 2.613281 2.09375 4.734374 4.671875 4.734374h234.433593c2.578126 0 4.667969-2.121093 4.667969-4.734374v-83.023438c0-2.613281-2.089843-4.734375-4.667969-4.734375zm0 0" fill="#06daf7"/><path d="m75.777344 266.0625v83.023438c0 2.613281 2.09375 4.734374 4.671875 4.734374h32.234375v-92.492187h-32.234375c-2.578125 0-4.671875 2.121094-4.671875 4.734375zm0 0" fill="#05b8e2"/><path d="m314.882812 58.066406h-234.433593c-2.578125 0-4.671875 2.121094-4.671875 4.734375v164.761719c0 2.613281 2.09375 4.734375 4.671875 4.734375h234.433593c2.578126 0 4.667969-2.121094 4.667969-4.734375v-164.761719c0-2.613281-2.089843-4.734375-4.667969-4.734375zm0 0" fill="#06daf7"/><path d="m112.683594 58.066406h-32.234375c-2.578125 0-4.671875 2.121094-4.671875 4.734375v164.761719c0 2.613281 2.09375 4.734375 4.671875 4.734375h32.234375zm0 0" fill="#05b8e2"/><path d="m197.664062 390.917969c-4.394531 0-7.957031-3.609375-7.957031-8.066407v-37.773437c0-4.457031 3.5625-8.066406 7.957031-8.066406 4.394532 0 7.957032 3.609375 7.957032 8.066406v37.773437c0 4.457032-3.5625 8.066407-7.957032 8.066407zm0 0" fill="#b7dbf6"/><path d="m197.664062 361.480469c-4.394531 0-7.957031-3.609375-7.957031-8.066407v29.4375c0 4.457032 3.5625 8.066407 7.957031 8.066407 4.398438 0 7.960938-3.609375 7.960938-8.066407v-29.4375c0 4.457032-3.5625 8.066407-7.960938 8.066407zm0 0" fill="#97cbef"/><path d="m211.457031 393.605469h-27.582031c-5.863281 0-10.609375-4.8125-10.609375-10.753907 0-5.9375 4.75-10.75 10.609375-10.75h27.582031c5.859375 0 10.609375 4.8125 10.609375 10.75.003906 5.941407-4.75 10.753907-10.609375 10.753907zm0 0" fill="#d6eafc"/><path d="m195.675781 382.851562c0-5.9375 4.75-10.75 10.609375-10.75h-22.410156c-5.863281 0-10.609375 4.8125-10.609375 10.75 0 5.941407 4.75 10.753907 10.609375 10.753907h22.410156c-5.859375 0-10.609375-4.8125-10.609375-10.753907zm0 0" fill="#b7dbf6"/><path d="m112.78125 0h-81.265625c-7.167969 0-13.027344 5.941406-13.027344 13.203125v346.609375c7.519531 18.1875 17.171875 35.261719 28.644531 50.925781v-381.707031h65.652344c-13.164062-5.183594-13.183594-23.839844-.003906-29.03125zm0 0" fill="#1d3ba8"/><path d="m355.75 269.394531h-316.167969c-4.398437 0-7.957031-3.609375-7.957031-8.066406 0-4.453125 3.5625-8.0625 7.957031-8.0625h316.167969c4.394531 0 7.957031 3.609375 7.957031 8.0625 0 4.457031-3.5625 8.066406-7.957031 8.066406zm0 0" fill="#1d3ba8"/><path d="m488.664062 144.425781c3.019532-5.113281 1.320313-11.707031-3.792968-14.726562-21.464844-12.671875-46.550782-12.683594-68.042969 0-5.113281 3.019531-6.8125 9.613281-3.792969 14.726562 3.015625 5.113281 9.609375 6.816407 14.726563 3.792969 14.703125-8.679688 31.441406-8.695312 46.175781 0 5.113281 3.019531 11.707031 1.324219 14.726562-3.792969zm0 0" fill="#a6ffff"/><path d="m406.496094 116.890625c27.84375-18.9375 60.828125-18.960937 88.703125-.003906 4.910156 3.339843 11.597656 2.066406 14.9375-2.84375 3.339843-4.910157 2.066406-11.597657-2.84375-14.9375-35.066407-23.851563-77.761719-23.890625-112.894531 0-4.910157 3.339843-6.183594 10.03125-2.84375 14.941406 3.335937 4.902344 10.023437 6.1875 14.941406 2.84375zm0 0" fill="#a6ffff"/><path d="m438.527344 203.765625v-20.960937c0-8.015626 6.664062-14.515626 14.878906-14.515626 8.21875 0 14.882812 6.5 14.882812 14.515626v20.960937zm0 0" fill="#b7dbf6"/><path d="m453.40625 195.421875c-7.886719 0-14.324219-5.992187-14.828125-13.566406-.019531.316406-.050781.628906-.050781.949219v20.960937h29.761718v-20.960937c0-.320313-.03125-.632813-.050781-.949219-.503906 7.574219-6.941406 13.566406-14.832031 13.566406zm0 0" fill="#97cbef"/><path d="m360.96875 450.058594h114.90625c7.195312 0 13.082031-5.882813 13.082031-13.078125v-222.285157c0-7.195312-5.886719-13.082031-13.082031-13.082031h-114.90625c-7.195312 0-13.082031 5.886719-13.082031 13.082031v222.285157c0 7.195312 5.886719 13.078125 13.082031 13.078125zm0 0" fill="#d6eafc"/><path d="m400.507812 414.148438c0-15.738282 10.140626-29.164063 24.40625-34.449219v-22.210938c-18.878906-2.09375-33.550781-17.683593-33.550781-36.617187 0-18.929688 14.671875-34.519532 33.550781-36.613282v-12.277343c-14.265624-5.289063-24.40625-18.714844-24.40625-34.453125 0-17.5 12.535157-32.140625 29.339844-35.910156h-68.699218c-7.292969 0-13.261719 5.804687-13.261719 12.902343v222.636719c0 7.097656 5.96875 12.90625 13.261719 12.90625h68.699218c-16.804687-3.773438-29.339844-18.414062-29.339844-35.914062zm0 0" fill="#b7dbf6"/><path d="m405.457031 300.765625 13.152344-12.832031 13.152344 12.832031c4.949219 4.832031 12.980469 4.832031 17.929687 0 4.953125-4.828125 4.953125-12.664063 0-17.492187l-22.117187-21.582032c-4.949219-4.828125-12.980469-4.828125-17.929688 0l-22.121093 21.582032c-4.949219 4.828124-4.949219 12.664062 0 17.492187 4.953124 4.832031 12.984374 4.832031 17.933593 0zm0 0" fill="#406bcc"/><path d="m427.574219 380.320312 22.121093-21.578124c4.949219-4.832032 4.949219-12.664063 0-17.496094-4.953124-4.828125-12.980468-4.828125-17.933593 0l-13.152344 12.832031-13.152344-12.832031c-4.949219-4.828125-12.980469-4.828125-17.929687 0-4.953125 4.832031-4.953125 12.664062 0 17.496094l22.117187 21.578124c4.953125 4.832032 12.980469 4.832032 17.929688 0zm0 0" fill="#406bcc"/><path d="m382.625 239.003906c6.074219 0 11.007812-4.824218 11.007812-10.753906 0-5.074219-3.628906-9.5-8.859374-10.535156-6.640626-1.316406-13.183594 3.625-13.183594 10.535156 0 5.90625 4.921875 10.753906 11.035156 10.753906zm0 0" fill="#f95d95"/><path d="m197.675781 350.863281c6.078125 0 11.011719-4.828125 11.011719-10.753906 0-5.074219-3.628906-9.503906-8.863281-10.539063-6.636719-1.316406-13.179688 3.628907-13.179688 10.539063 0 5.90625 4.921875 10.753906 11.03125 10.753906zm0 0" fill="#f95d95"/><g fill="#55f3ff"><path d="m443.859375 130.941406c0-4.949218 3-8.964844 7.058594-10.75-11.660157-.011718-23.328125 3.15625-34.089844 9.507813-5.113281 3.019531-6.8125 9.613281-3.792969 14.726562 3.019532 5.113281 9.609375 6.816407 14.726563 3.792969 7.371093-4.347656 15.25-6.523438 23.136719-6.511719-4.152344-1.832031-7.039063-5.976562-7.039063-10.765625zm0 0"/><path d="m443.859375 92.011719c0-5.003907 3.0625-9.046875 7.183594-10.804688-19.507813-.042969-39.023438 5.917969-56.644531 17.898438-4.910157 3.339843-6.183594 10.03125-2.84375 14.941406 3.335937 4.902344 10.023437 6.1875 14.9375 2.84375 13.882812-9.441406 29.042968-14.179687 44.210937-14.210937-4.042969-1.871094-6.84375-5.957032-6.84375-10.667969zm0 0"/><path d="m291.058594 93.875c-2.683594-7.671875-11.078125-11.71875-18.75-9.035156-7.671875 2.679687-11.714844 11.074218-9.035156 18.746094 2.683593 7.671874 11.078124 11.71875 18.75 9.035156 7.671874-2.683594 11.714843-11.074219 9.035156-18.746094zm0 0"/><path d="m259.125 118.53125c-1.558594-4.460938-6.4375-6.816406-10.902344-5.253906-4.460937 1.558594-6.8125 6.4375-5.253906 10.898437 1.5625 4.460938 6.441406 6.816407 10.902344 5.253907 4.460937-1.558594 6.8125-6.4375 5.253906-10.898438zm0 0"/></g></svg>