<svg height="512pt" viewBox="0 -11 512 512" width="512pt" xmlns="http://www.w3.org/2000/svg"><path d="m484.234375 298.003906c3.765625-17.070312 5.769531-34.800781 5.769531-53.003906 0-135.308594-109.691406-245-245.003906-245-135.308594 0-245 109.691406-245 245 0 18.203125 2.003906 35.933594 5.765625 53.003906zm0 0" fill="#60d882"/><path d="m57.75 402.976562c44.941406 53.214844 112.144531 87.027344 187.25 87.027344 75.109375 0 142.308594-33.808594 187.25-87.027344zm0 0" fill="#b2603b"/><path d="m167.738281 402.976562h-109.988281c19.085938 22.601563 42.203125 41.683594 68.21875 56.183594-6.789062-24.988281 7.488281-56.183594 41.769531-56.183594zm0 0" fill="#a54f2d"/><path d="m423.566406 440.230469c-8.632812 0-15.632812-6.996094-15.632812-15.628907v-13.636718h31.265625v13.636718c0 8.632813-7 15.628907-15.632813 15.628907zm0 0" fill="#b7dbf6"/><path d="m423.566406 424.601562v-13.636718h-15.632812v13.636718c0 8.632813 7 15.628907 15.632812 15.628907 2.851563 0 5.515625-.773438 7.816406-2.105469-4.667968-2.703125-7.816406-7.742188-7.816406-13.523438zm0 0" fill="#97cbef"/><path d="m40.664062 268.734375c-8.632812 0-15.632812 7-15.632812 15.632813v13.636718h31.265625v-13.636718c0-8.632813-7-15.632813-15.632813-15.632813zm0 0" fill="#d6eafc"/><path d="m40.664062 291.835938c-7.21875 0-13.277343-4.898438-15.074218-11.550782-.355469 1.304688-.558594 2.667969-.558594 4.082032v13.636718h31.265625v-13.636718c0-1.414063-.207031-2.777344-.558594-4.082032-1.796875 6.652344-7.855469 11.550782-15.074219 11.550782zm0 0" fill="#b7dbf6"/><path d="m103.191406 268.734375c-8.632812 0-15.632812 7-15.632812 15.632813v13.636718h31.265625v-13.636718c0-8.632813-7-15.632813-15.632813-15.632813zm0 0" fill="#d6eafc"/><path d="m103.191406 291.835938c-7.21875 0-13.277344-4.898438-15.074218-11.550782-.355469 1.304688-.558594 2.667969-.558594 4.082032v13.636718h31.265625v-13.636718c0-1.414063-.207031-2.777344-.558594-4.082032-1.796875 6.652344-7.855469 11.550782-15.074219 11.550782zm0 0" fill="#b7dbf6"/><path d="m165.71875 268.734375c-8.632812 0-15.628906 7-15.628906 15.632813v13.636718h31.261718v-13.636718c0-8.632813-7-15.632813-15.632812-15.632813zm0 0" fill="#d6eafc"/><path d="m165.71875 291.835938c-7.21875 0-13.277344-4.898438-15.074219-11.550782-.351562 1.304688-.554687 2.667969-.554687 4.082032v13.636718h31.261718v-13.636718c0-1.414063-.203124-2.777344-.554687-4.082032-1.800781 6.652344-7.859375 11.550782-15.078125 11.550782zm0 0" fill="#b7dbf6"/><path d="m422.019531 281.578125c-4.796875 0-8.683593-3.886719-8.683593-8.683594v-66.585937c0-4.796875 3.886718-8.6875 8.683593-8.6875s8.683594 3.890625 8.683594 8.6875v66.585937c.003906 4.796875-3.886719 8.683594-8.683594 8.683594zm0 0" fill="#b7dbf6"/><path d="m422.019531 197.621094c-4.796875 0-8.683593 3.890625-8.683593 8.683594v41.980468c0-4.796875 3.890624-8.683594 8.683593-8.683594 4.796875 0 8.683594 3.886719 8.683594 8.683594v-41.980468c.003906-4.792969-3.886719-8.683594-8.683594-8.683594zm0 0" fill="#97cbef"/><g fill="#a6ffff"><path d="m258.679688 227.878906c0 10.25-8.308594 18.558594-18.558594 18.558594s-18.558594-8.308594-18.558594-18.558594 8.308594-18.558594 18.558594-18.558594 18.558594 8.308594 18.558594 18.558594zm0 0"/><path d="m182.304688 181.566406c-3.578126-5.300781-2.183594-12.5 3.113281-16.078125 32.851562-22.183593 76.425781-22.269531 109.402343 0 5.300782 3.578125 6.695313 10.777344 3.117188 16.078125-3.578125 5.296875-10.78125 6.695313-16.078125 3.113282-24.976563-16.867188-58.304687-17-83.480469 0-5.34375 3.609374-12.527344 2.140624-16.074218-3.113282zm0 0"/><path d="m317.414062 149.339844c-45.03125-35.878906-109.484374-35.941406-154.589843 0-5.003907 3.984375-12.289063 3.160156-16.273438-1.839844-3.984375-5.003906-3.160156-12.285156 1.84375-16.269531 53.476563-42.613281 129.878907-42.6875 183.453125 0 5 3.984375 5.828125 11.269531 1.839844 16.269531-3.988281 5.007812-11.277344 5.820312-16.273438 1.839844zm0 0"/><path d="m352.574219 114.125c-64.578125-54.984375-160.457031-54.878906-224.910157 0-4.871093 4.144531-12.175781 3.558594-16.324218-1.308594-4.144532-4.871094-3.558594-12.179687 1.3125-16.324218 73.234375-62.355469 181.839844-62.234376 254.9375 0 4.867187 4.144531 5.453125 11.453124 1.308594 16.324218-4.160157 4.878906-11.464844 5.441406-16.324219 1.308594zm0 0"/></g><path d="m446.9375 268.519531h-49.832031c-11.867188 0-21.484375 9.621094-21.484375 21.484375v8h92.800781v-8c0-11.863281-9.621094-21.484375-21.484375-21.484375zm0 0" fill="#1d3ba8"/><path d="m434.820312 268.519531h-37.714843c-11.867188 0-21.484375 9.621094-21.484375 21.484375v8h37.714844v-8c0-11.863281 9.621093-21.484375 21.484374-21.484375zm0 0" fill="#122894"/><path d="m422.019531 213.832031c-8.632812 0-15.628906-6.996093-15.628906-15.632812v-131.085938c0-8.636719 6.996094-15.632812 15.628906-15.632812 8.636719 0 15.632813 6.996093 15.632813 15.632812v131.085938c0 8.636719-7 15.632812-15.632813 15.632812zm0 0" fill="#d6eafc"/><path d="m422.019531 145.539062c-8.632812 0-15.628906-7-15.628906-15.632812v68.292969c0 8.636719 6.996094 15.632812 15.628906 15.632812 8.636719 0 15.632813-6.996093 15.632813-15.632812v-68.292969c0 8.632812-7 15.632812-15.632813 15.632812zm0 0" fill="#b7dbf6"/><path d="m506.046875 322.65625c-57.808594 46.644531-162.109375 77.78125-281.183594 77.78125-70.875 0-136.519531-11.035156-190.238281-29.800781 8.9375 14.933593 19.425781 28.835937 31.234375 41.484375h372.046875c40.75 0 74.09375-33.339844 74.09375-74.089844v-16.050781c0-2.027344-.410156-3.960938-1.136719-5.734375-.957031 2.355468-2.53125 4.5625-4.816406 6.410156zm0 0" fill="#1d3ba8"/><path d="m135.652344 404.285156c0-4.53125 3.367187-8.261718 7.730468-8.859375-39.609374-4.96875-76.355468-13.46875-108.757812-24.789062 8.9375 14.933593 19.425781 28.835937 31.234375 41.484375h74.425781c-2.761718-1.523438-4.632812-4.460938-4.632812-7.835938zm0 0" fill="#122894"/><path d="m496.011719 296.84375h-490.496094c5.96875 27.703125 16.621094 53.664062 31.089844 77.011719 53.347656 18.355469 118.25 29.121093 188.257812 29.121093 119.074219 0 223.375-31.136718 281.183594-77.78125 11.699219-9.441406 4.996094-28.351562-10.035156-28.351562zm0 0" fill="#284cb2"/><path d="m115.699219 349.910156c0-22.835937 12.625-42.714844 31.269531-53.066406h-141.453125c5.96875 27.703125 16.621094 53.664062 31.089844 77.011719 30.589843 10.523437 64.984375 18.546875 101.953125 23.484375-13.925782-11.117188-22.859375-28.222656-22.859375-47.429688zm0 0" fill="#1d3ba8"/><path d="m322.050781 352.398438h-136.066406c-4.796875 0-8.6875-3.886719-8.6875-8.683594 0-4.792969 3.890625-8.683594 8.6875-8.683594h136.066406c4.796875 0 8.683594 3.890625 8.683594 8.683594 0 4.796875-3.886719 8.683594-8.683594 8.683594zm0 0" fill="#1d3ba8"/><path d="m322.050781 335.03125h-37c4.796875 0 8.683594 3.886719 8.683594 8.683594s-3.886719 8.683594-8.683594 8.683594h37c4.796875 0 8.683594-3.886719 8.683594-8.683594s-3.886719-8.683594-8.683594-8.683594zm0 0" fill="#122894"/><path d="m69.285156 355.292969c-6.378906 0-11.578125-5.148438-11.578125-11.578125 0-7.449219 6.847657-12.757813 13.835938-11.347656 5.421875 1.101562 9.308593 5.808593 9.308593 11.347656 0 6.480468-5.28125 11.578125-11.566406 11.578125zm0 0" fill="#05b8e2"/><path d="m103.191406 355.292969c-6.390625 0-11.582031-5.191407-11.582031-11.578125 0-7.398438 6.828125-12.761719 13.851563-11.347656 5.597656 1.152343 9.308593 5.984374 9.308593 11.347656 0 6.324218-5.125 11.578125-11.578125 11.578125zm0 0" fill="#05b8e2"/><path d="m137.105469 355.292969c-6.382813 0-11.578125-5.203125-11.578125-11.578125 0-5.433594 3.765625-10.207032 9.308594-11.347656 7.035156-1.429688 13.847656 3.976562 13.847656 11.347656 0 6.46875-5.277344 11.578125-11.578125 11.578125zm0 0" fill="#06daf7"/><path d="m348.679688 343.714844c0 8.632812-6.996094 15.632812-15.628907 15.632812-8.636719 0-15.632812-7-15.632812-15.632812 0-8.632813 6.996093-15.628906 15.632812-15.628906 8.632813 0 15.628907 6.996093 15.628907 15.628906zm0 0" fill="#f95d95"/><path d="m226.054688 160.386719c0-4.566407 2.1875-8.613281 5.5625-11.183594-16.246094 1.40625-32.195313 6.832031-46.195313 16.285156-5.300781 3.578125-6.695313 10.777344-3.117187 16.078125 3.546874 5.253906 10.730468 6.722656 16.078124 3.117188 10.445313-7.054688 22.296876-11.152344 34.371094-12.332032-4.015625-2.480468-6.699218-6.902343-6.699218-11.964843zm0 0" fill="#55f3ff"/><path d="m226.054688 111.488281c0-5.132812 2.757812-9.609375 6.863281-12.0625-30.0625 1.460938-59.753907 12.0625-84.523438 31.804688-5.003906 3.984375-5.828125 11.269531-1.84375 16.269531s11.273438 5.824219 16.273438 1.839844c20.226562-16.113282 44.34375-24.96875 68.851562-26.625-3.40625-2.566406-5.621093-6.632813-5.621093-11.226563zm0 0" fill="#55f3ff"/><path d="m226.054688 61.488281c0-4.789062 2.398437-9.015625 6.054687-11.554687-42.726563 1.71875-85.003906 17.222656-119.457031 46.558594-4.871094 4.144531-5.457032 11.453124-1.3125 16.320312 4.148437 4.871094 11.453125 5.457031 16.324218 1.3125 30.117188-25.644531 67.097657-39.324219 104.535157-41.015625-3.707031-2.535156-6.144531-6.792969-6.144531-11.621094zm0 0" fill="#55f3ff"/></svg>