<svg height="512pt" viewBox="-11 0 512 512" width="512pt" xmlns="http://www.w3.org/2000/svg"><path d="m473.191406 356.351562c10.847656-27.6875 16.8125-57.824218 16.8125-89.351562 0-135.3125-109.691406-245.003906-245.003906-245.003906-135.308594 0-245 109.691406-245 245.003906 0 31.53125 5.960938 61.667969 16.808594 89.351562zm0 0" fill="#ef4a8a"/><path d="m40.71875 39.917969h408.5625c.320312 0 .636719.011719.949219.023437 0-9.574218 0-15.867187 0-17.828125.003906-12.164062-9.949219-22.113281-22.113281-22.113281h-366.234376c-12.164062 0-22.113281 9.949219-22.113281 22.113281v17.828125c.316407-.011718.628907-.023437.949219-.023437zm0 0" fill="#284cb2"/><path d="m96.402344 22.113281c0-12.164062 9.949218-22.113281 22.113281-22.113281h-56.632813c-12.160156 0-22.113281 9.949219-22.113281 22.113281v17.828125c.316407-.011718.632813-.023437.949219-.023437h55.683594c0-5.96875 0-11.910157 0-17.804688zm0 0" fill="#1d3ba8"/><path d="m449.285156 37.839844h-408.566406c-13.570312 0-24.667969 11.101562-24.667969 24.667968v37.214844h457.898438v-37.214844c.003906-13.566406-11.097657-24.667968-24.664063-24.667968zm0 0" fill="#406bcc"/><path d="m97.351562 37.839844h-56.632812c-13.570312 0-24.667969 11.101562-24.667969 24.667968v37.214844h56.628907v-37.214844c0-13.566406 11.101562-24.667968 24.671874-24.667968zm0 0" fill="#284cb2"/><path d="m62.285156 78.132812c-5.730468 0-10.394531-4.644531-10.394531-10.394531 0-6.648437 6.128906-11.457031 12.421875-10.1875 4.960938 1.007813 8.367188 5.304688 8.367188 10.1875 0 5.648438-4.585938 10.394531-10.394532 10.394531zm0 0" fill="#f95d95"/><path d="m99.878906 78.144531c-5.746094 0-10.398437-4.703125-10.398437-10.40625 0-6.636719 6.132812-11.457031 12.433593-10.1875 5.0625 1.046875 8.359376 5.410157 8.359376 10.1875 0 5.789063-4.714844 10.40625-10.394532 10.40625zm0 0" fill="#f9ce00"/><path d="m137.480469 78.132812c-5.816407 0-10.40625-4.738281-10.40625-10.394531 0-6.625 6.121093-11.460937 12.433593-10.1875 5.023438 1.019531 8.367188 5.390625 8.367188 10.1875 0 5.621094-4.570312 10.394531-10.394531 10.394531zm0 0" fill="#60d882"/><path d="m473.953125 354.351562c0-75.121093 0-190.132812 0-230.71875h-457.902344v230.71875c35.1875 92.171876 124.414063 157.648438 228.949219 157.648438s193.765625-65.476562 228.953125-157.648438zm0 0" fill="#d6eafc"/><path d="m72.679688 123.632812h-56.628907v230.71875c12.566407 32.921876 32.035157 62.4375 56.628907 86.78125 0-94.957031 0-224.765624 0-317.5zm0 0" fill="#b7dbf6"/><path d="m69.183594 97.644531h404.769531v28.070313h-404.769531zm0 0" fill="#55f3ff"/><path d="m16.050781 97.644531h56.632813v28.070313h-56.632813zm0 0" fill="#06daf7"/><path d="m158.511719 198.070312-63.207031 63.207032v94.535156h126.417968v-94.535156zm0 0" fill="#06daf7"/><path d="m130.035156 287.617188c0-7.59375 3.015625-14.878907 8.386719-20.25l44.695313-44.691407-24.605469-24.605469-63.207031 63.207032v94.535156h34.730468zm0 0" fill="#05b8e2"/><path d="m225.636719 340.929688h-133.894531c-6.070313 0-11.308594 4.664062-11.574219 10.726562-.285157 6.4375 4.847656 11.742188 11.222656 11.742188h134.246094c6.207031 0 11.234375-5.03125 11.234375-11.234376 0-6.203124-5.027344-11.234374-11.234375-11.234374zm0 0" fill="#b7dbf6"/><path d="m119.847656 351.65625c.265625-6.0625 5.503906-10.726562 11.574219-10.726562h-39.679687c-6.070313 0-11.308594 4.664062-11.578126 10.726562-.28125 6.4375 4.851563 11.742188 11.226563 11.742188h39.679687c-6.375 0-11.507812-5.304688-11.222656-11.742188zm0 0" fill="#97cbef"/><path d="m166.445312 178.699219c-4.378906-4.382813-11.484374-4.382813-15.863281 0l-74.59375 74.589843c-7.066406 7.070313-2.058593 19.152344 7.933594 19.152344 2.976563 0 5.828125-1.183594 7.933594-3.285156l66.660156-66.660156 66.660156 66.660156c2.101563 2.101562 4.957031 3.285156 7.929688 3.285156 9.996093 0 15-12.082031 7.933593-19.152344zm0 0" fill="#406bcc"/><path d="m197.089844 209.339844-30.644532-30.640625c-4.378906-4.382813-11.484374-4.382813-15.863281 0l-74.59375 74.589843c-7.066406 7.066407-2.058593 19.152344 7.933594 19.152344 2.976563 0 5.828125-1.183594 7.933594-3.289062l66.660156-66.660156 22.757813 22.761718c-4.332032-9.980468 5.804687-20.183594 15.816406-15.914062zm0 0" fill="#284cb2"/><path d="m158.511719 224.289062c-6.195313 0-11.214844-5.023437-11.214844-11.21875v-28.101562c0-6.195312 5.019531-11.21875 11.214844-11.21875 6.195312 0 11.21875 5.023438 11.21875 11.21875v28.101562c0 6.195313-5.019531 11.21875-11.21875 11.21875zm0 0" fill="#284cb2"/><path d="m158.511719 200.683594c-6.195313 0-11.214844-5.023438-11.214844-11.21875v23.605468c0 6.195313 5.019531 11.21875 11.214844 11.21875 6.195312 0 11.21875-5.023437 11.21875-11.21875v-23.605468c0 6.195312-5.019531 11.21875-11.21875 11.21875zm0 0" fill="#1d3ba8"/><path d="m176.164062 288.207031c-3.839843 0-6.957031-3.117187-6.957031-6.960937v-15.140625c0-5.898438-4.796875-10.695313-10.691406-10.695313-5.898437 0-10.695313 4.796875-10.695313 10.695313v15.140625c0 3.84375-3.117187 6.960937-6.960937 6.960937-3.839844 0-6.957031-3.117187-6.957031-6.960937v-15.140625c0-13.574219 11.039062-24.613281 24.613281-24.613281 13.570313 0 24.609375 11.039062 24.609375 24.613281v15.140625c0 3.84375-3.117188 6.960937-6.960938 6.960937zm0 0" fill="#d6eafc"/><path d="m156.285156 249.203125c0-3.585937 2.449219-6.589844 5.761719-7.453125-14.945313-2.160156-28.144531 9.488281-28.144531 24.351562v15.144532c0 3.84375 3.117187 6.957031 6.957031 6.957031 3.84375 0 6.960937-3.113281 6.960937-6.957031v-15.144532c0-6.210937 5.335938-11.226562 11.679688-10.644531-1.945312-1.398437-3.214844-3.675781-3.214844-6.253906zm0 0" fill="#b7dbf6"/><path d="m179.433594 326.640625h-41.839844c-4.816406 0-8.753906-3.941406-8.753906-8.753906v-31.59375c0-4.816407 3.9375-8.757813 8.753906-8.757813h41.839844c4.8125 0 8.753906 3.941406 8.753906 8.757813v31.59375c0 4.8125-3.941406 8.753906-8.753906 8.753906zm0 0" fill="#284cb2"/><path d="m149.234375 318.9375c0-4.058594 2.589844-7.414062 6.082031-8.707031-2.898437-1.59375-4.828125-4.6875-4.828125-8.140625 0-3.566406 2.003907-6.578125 4.851563-8.140625-3.597656-1.308594-6.105469-4.769531-6.105469-8.707031 0-3.257813 1.667969-6.054688 4.125-7.707032h-15.761719c-4.816406 0-8.757812 3.941406-8.757812 8.757813v31.59375c0 4.8125 3.941406 8.753906 8.757812 8.753906h15.75c-2.496094-1.683594-4.113281-4.539063-4.113281-7.703125zm0 0" fill="#1d3ba8"/><path d="m158.511719 311.367188c-5.210938 0-9.277344-4.257813-9.277344-9.277344 0-5.855469 5.386719-10.25 11.09375-9.101563 4.425781.902344 7.46875 4.777344 7.46875 9.101563 0 5.292968-4.339844 9.277344-9.285156 9.277344zm0 0" fill="#406bcc"/><path d="m184.5 391.0625h-51.972656c-7.636719 0-13.832032 6.191406-13.832032 13.828125 0 7.640625 6.195313 13.832031 13.832032 13.832031h51.972656c7.636719 0 13.828125-6.191406 13.828125-13.832031 0-7.636719-6.191406-13.828125-13.828125-13.828125zm0 0" fill="#60d882"/><path d="m428.820312 252.566406c0 4.316406-3.5 7.816406-7.816406 7.816406h-141.617187c-4.316407 0-7.816407-3.5-7.816407-7.816406 0-4.320312 3.5-7.820312 7.816407-7.820312h141.617187c4.316406 0 7.816406 3.5 7.816406 7.820312zm0 0" fill="#b7dbf6"/><path d="m428.820312 220.554688c0 4.316406-3.5 7.816406-7.816406 7.816406h-141.617187c-4.316407 0-7.816407-3.5-7.816407-7.816406 0-4.320313 3.5-7.820313 7.816407-7.820313h141.617187c4.316406 0 7.816406 3.5 7.816406 7.820313zm0 0" fill="#b7dbf6"/><path d="m350.195312 188.539062c0-4.316406-3.5-7.816406-7.816406-7.816406h-62.992187c-4.316407 0-7.816407 3.5-7.816407 7.816406 0 4.320313 3.5 7.820313 7.816407 7.820313h62.992187c4.316406 0 7.816406-3.5 7.816406-7.820313zm0 0" fill="#97cbef"/><g fill="#b7dbf6"><path d="m428.820312 288.066406c0 4.320313-3.5 7.820313-7.816406 7.820313h-141.617187c-4.316407 0-7.816407-3.5-7.816407-7.820313 0-4.316406 3.5-7.816406 7.816407-7.816406h141.617187c4.316406 0 7.816406 3.5 7.816406 7.816406zm0 0"/><path d="m428.820312 321.824219c0 4.316406-3.5 7.816406-7.816406 7.816406h-141.617187c-4.316407 0-7.816407-3.5-7.816407-7.816406 0-4.320313 3.5-7.820313 7.816407-7.820313h141.617187c4.316406 0 7.816406 3.5 7.816406 7.820313zm0 0"/><path d="m428.820312 355.578125c0 4.320313-3.5 7.820313-7.816406 7.820313h-141.617187c-4.316407 0-7.816407-3.5-7.816407-7.820313 0-4.316406 3.5-7.816406 7.816407-7.816406h141.617187c4.316406 0 7.816406 3.5 7.816406 7.816406zm0 0"/></g><path d="m321.859375 412.390625c-4.25 0-7.5-3.488281-7.5-7.492187 0-4.144532 3.367187-7.5 7.5-7.5 4.152344 0 7.5 3.359374 7.5 7.5 0 4.140624-3.359375 7.492187-7.5 7.492187zm0 0" fill="#97cbef"/><path d="m350.199219 412.390625c-4.1875 0-7.5-3.402344-7.5-7.492187 0-3.507813 2.421875-6.609376 6.03125-7.359376 4.507812-.90625 8.96875 2.519532 8.96875 7.359376 0 3.949218-3.199219 7.492187-7.5 7.492187zm0 0" fill="#b7dbf6"/><path d="m378.53125 412.390625c-4.148438 0-7.5-3.375-7.5-7.492187 0-4.679688 4.265625-8.28125 8.96875-7.359376 3.671875.78125 6.03125 3.914063 6.03125 7.359376 0 4.125-3.355469 7.492187-7.5 7.492187zm0 0" fill="#b7dbf6"/></svg>