<svg height="512pt" viewBox="0 -5 512.00008 512" width="512pt" xmlns="http://www.w3.org/2000/svg"><path d="m407.332031 439.496094c50.703125-44.886719 82.671875-110.457032 82.671875-183.496094 0-135.3125-109.691406-245.003906-245.003906-245.003906-135.308594 0-245 109.691406-245 245.003906 0 36.050781 7.789062 70.277344 21.773438 101.097656zm0 0" fill="#122894"/><path d="m34.5 130.601562v250.796876c19.757812 33.097656 47.097656 61.144531 79.625 81.738281h261.753906c6.746094-4.273438 13.273438-8.863281 19.554688-13.757813v-367.164062h-323.121094c-14.527344 14.441406-27.25 30.691406-37.8125 48.386718zm0 0" fill="#122894"/><path d="m290.125 82.214844v380.921875h85.753906c6.75-4.273438 13.273438-8.863281 19.558594-13.757813v-367.164062zm0 0" fill="#012481"/><path d="m34.5 78.878906h360.933594v42.917969h-360.933594zm0 0" fill="#406bcc"/><path d="m34.5 121.800781h360.933594v42.917969h-360.933594zm0 0" fill="#284cb2"/><path d="m34.5 78.878906h50.703125v42.917969h-50.703125zm0 0" fill="#284cb2"/><path d="m34.5 121.800781h50.703125v42.917969h-50.703125zm0 0" fill="#1d3ba8"/><path d="m107.984375 439.945312-22.089844-7.265624v9.613281c8.882813 7.597656 18.316407 14.566406 28.230469 20.84375h14.539062c6.128907 0 11.144532-5.015625 11.144532-11.144531v-7.050782c-.308594 0-.527344 0-.640625 0-10.613281 0-21.105469-1.679687-31.183594-4.996094zm0 0" fill="#406bcc"/><path d="m112.851562 451.992188v-10.597657c-1.632812-.449219-3.257812-.921875-4.867187-1.449219l-22.089844-7.265624v9.617187c8.882813 7.59375 18.316407 14.5625 28.230469 20.839844h9.871094c-6.128906 0-11.144532-5.015625-11.144532-11.144531zm0 0" fill="#284cb2"/><path d="m321.949219 439.945312c-10.078125 3.316407-20.570313 4.996094-31.183594 4.996094-.113281 0-.332031 0-.640625 0v7.050782c0 6.128906 5.015625 11.144531 11.148438 11.144531h31.621093c6.132813 0 11.148438-5.015625 11.148438-11.144531v-19.3125zm0 0" fill="#406bcc"/><path d="m321.949219 439.945312c-10.078125 3.316407-20.570313 4.996094-31.183594 4.996094-.113281 0-.332031 0-.640625 0v7.050782c0 6.128906 5.015625 11.144531 11.148438 11.144531h31.621093c6.132813 0 11.148438-5.015625 11.148438-11.144531v-19.3125zm0 0" fill="#406bcc"/><path d="m317.082031 451.992188v-10.597657c-8.574219 2.34375-17.398437 3.546875-26.316406 3.546875-.113281 0-.332031 0-.640625 0v7.050782c0 6.128906 5.015625 11.144531 11.144531 11.144531h26.957031c-6.128906 0-11.144531-5.015625-11.144531-11.144531zm0 0" fill="#284cb2"/><path d="m349.871094 352.453125-5.824219-9.808594-32.332031-33.421875h-193.496094l-32.332031 33.421875-5.824219 9.808594s-13.53125 26.582031.746094 62.347656v.613281l32.347656 10.640626c8.410156 2.765624 17.160156 4.167968 26.011719 4.167968h74.5625l1.238281-.613281 1.234375.613281h74.5625c8.851563 0 17.601563-1.402344 26.011719-4.167968l32.347656-10.640626v-.613281c14.277344-35.765625.746094-62.347656.746094-62.347656zm0 0" fill="#e5387f"/><path d="m85.886719 342.644531-5.824219 9.808594s-13.53125 26.582031.746094 62.347656v.613281l32.347656 10.640626c8.410156 2.765624 17.160156 4.167968 26.011719 4.167968h45.261719v-17.574218c-.570313.109374-1.15625.171874-1.761719.171874-5.199219 0-9.414063-4.214843-9.414063-9.417968 0-5.199219 4.214844-9.417969 9.414063-9.417969.605469 0 1.191406.0625 1.761719.171875v-84.9375h-66.210938zm0 0" fill="#d32976"/><path d="m305.660156 428.867188c-8.046875-10.34375-20.59375-17.035157-34.632812-17.035157h-117.433594c-13.609375 0-25.820312 6.28125-33.882812 16.085938 6.363281 1.527343 12.882812 2.308593 19.457031 2.308593h74.5625l1.238281-.613281 1.234375.613281h74.5625c5.011719 0 9.988281-.46875 14.894531-1.359374zm0 0" fill="#284cb2"/><path d="m171.621094 421.054688c0-4.332032 2.855468-8 6.785156-9.222657h-24.8125c-13.609375 0-25.820312 6.28125-33.882812 16.085938 6.363281 1.53125 12.882812 2.308593 19.457031 2.308593h39.097656c-3.855469-1.269531-6.644531-4.890624-6.644531-9.171874zm0 0" fill="#1d3ba8"/><path d="m310.933594 310.234375 4.917968 5.082031c10.824219-1.242187 18.941407-6.40625 18.941407-12.585937 0-7.113281-10.742188-12.878907-23.992188-12.878907-.625 0-1.242187.011719-1.855469.039063-2.578124.105469-4.875 1.230469-6.519531 2.976563zm0 0" fill="#406bcc"/><path d="m314.394531 301.554688c0-4.683594 2.859375-8.699219 6.921875-10.402344-3.175781-.832032-6.742187-1.300782-10.511718-1.300782-.625 0-1.246094.011719-1.859376.039063-2.574218.105469-4.875 1.230469-6.519531 2.976563l8.507813 17.367187 4.917968 5.082031c3.648438-.417968 6.972657-1.289062 9.800782-2.488281-6.21875-.007813-11.257813-5.054687-11.257813-11.273437zm0 0" fill="#284cb2"/><path d="m114.082031 315.316406 4.917969-5.082031 8.507812-17.367187c-1.644531-1.742188-3.945312-2.871094-6.519531-2.976563-.613281-.023437-1.230469-.039063-1.855469-.039063-13.25 0-23.992187 5.765626-23.992187 12.878907 0 6.179687 8.117187 11.34375 18.941406 12.585937zm0 0" fill="#406bcc"/><path d="m115.539062 301.554688c0-4.683594-2.855468-8.699219-6.921874-10.402344 3.175781-.832032 6.742187-1.300782 10.515624-1.300782.625 0 1.242188.011719 1.855469.039063 2.574219.105469 4.875 1.230469 6.519531 2.976563l-8.507812 17.367187-4.917969 5.082031c-3.648437-.417968-6.976562-1.289062-9.800781-2.488281 6.21875-.007813 11.257812-5.054687 11.257812-11.273437zm0 0" fill="#284cb2"/><path d="m214.96875 371.972656c51.984375 0 98.386719-11.535156 128.828125-29.585937l-32.082031-33.164063h-193.496094l-32.082031 33.164063c30.441406 18.050781 76.84375 29.585937 128.832031 29.585937zm0 0" fill="#f95d95"/><path d="m172.691406 309.222656h-54.472656l-32.082031 33.164063c17.871093 10.597656 41.242187 18.941406 68.011719 24.035156v-20.40625c-15.746094-20.886719 18.535156-36.789063 18.542968-36.792969zm0 0" fill="#e5387f"/><path d="m282.480469 346.015625h-135.027344c-5.949219 0-10.769531 4.820313-10.769531 10.769531v3.324219c0 1 .136718 2 .414062 2.960937l3.390625 11.847657c2.695313 9.421875 10.460938 16.515625 20.085938 18.355469 11.820312 2.261718 30.085937 4.660156 54.394531 4.660156s42.574219-2.398438 54.394531-4.660156c9.625-1.839844 17.390625-8.933594 20.085938-18.355469l3.390625-11.847657c.277344-.960937.417968-1.960937.417968-2.960937v-3.324219c-.003906-5.945312-4.828124-10.769531-10.777343-10.769531zm0 0" fill="#d6eafc"/><path d="m164.863281 379.082031-3.875-13.554687c-.316406-1.101563-.476562-2.242188-.476562-3.386719v-3.804687c0-6.804688 5.515625-12.320313 12.320312-12.320313h-25.382812c-5.945313 0-10.769531 4.820313-10.769531 10.769531v3.324219c0 1.003906.140624 2 .414062 2.964844l3.390625 11.84375c2.695313 9.421875 10.464844 16.515625 20.085937 18.355469 4.601563.878906 10.1875 1.777343 16.714844 2.550781-5.921875-3.835938-10.410156-9.714844-12.421875-16.742188zm0 0" fill="#b7dbf6"/><path d="m214.96875 371.972656c-31.957031 0-57.683594-2.46875-76.859375-5.363281l2.378906 8.308594c2.695313 9.421875 10.460938 16.515625 20.085938 18.355469 11.820312 2.261718 30.085937 4.660156 54.394531 4.660156s42.574219-2.398438 54.394531-4.660156c9.621094-1.839844 17.390625-8.933594 20.085938-18.355469l2.378906-8.308594c-19.179687 2.894531-44.90625 5.363281-76.859375 5.363281zm0 0" fill="#b7dbf6"/><path d="m140.484375 374.917969c2.699219 9.421875 10.464844 16.515625 20.089844 18.355469 7.597656 1.449218 12.816406 2.03125 16.710937 2.550781-5.921875-3.835938-10.410156-9.714844-12.421875-16.742188l-2.726562-9.53125c-8.898438-.851562-16.914063-1.867187-24.027344-2.941406zm0 0" fill="#97cbef"/><path d="m228.4375 364.386719c-4.296875-7.445313-13.8125-9.996094-21.257812-5.695313-7.441407 4.296875-9.992188 13.8125-5.695313 21.257813 4.296875 7.441406 13.816406 9.992187 21.257813 5.695312 7.445312-4.296875 9.996093-13.816406 5.695312-21.257812zm0 0" fill="#284cb2"/><path d="m214.96875 372.175781c-2.878906-4.984375-2.671875-10.894531.003906-15.550781-2.644531-.003906-5.328125.65625-7.785156 2.074219-7.445312 4.296875-9.996094 13.816406-5.699219 21.257812 4.296875 7.445313 13.816407 9.996094 21.261719 5.695313 2.457031-1.417969 4.367188-3.414063 5.6875-5.707032-5.371094-.007812-10.589844-2.78125-13.46875-7.769531zm0 0" fill="#1d3ba8"/><path d="m333.484375 400.609375c0 4.820313-3.910156 8.730469-8.730469 8.730469-4.824218 0-8.734375-3.910156-8.734375-8.730469 0-4.824219 3.910157-8.730469 8.734375-8.730469 4.820313 0 8.730469 3.90625 8.730469 8.730469zm0 0" fill="#d6eafc"/><path d="m113.914062 400.609375c0 4.820313-3.910156 8.730469-8.730468 8.730469-4.824219 0-8.734375-3.910156-8.734375-8.730469 0-4.824219 3.910156-8.730469 8.734375-8.730469 4.820312 0 8.730468 3.90625 8.730468 8.730469zm0 0" fill="#d6eafc"/><path d="m111.722656 340.40625c-11.441406-7.609375-25.453125-6.667969-31.289062 2.109375-5.839844 8.777344-1.296875 22.0625 10.144531 29.675781 11.441406 7.609375 25.449219 6.667969 31.289063-2.109375 5.835937-8.777343 1.296874-22.0625-10.144532-29.675781zm0 0" fill="#55f3ff"/><path d="m93.855469 335.320312c-5.613281.40625-10.527344 2.832032-13.425781 7.191407-3.046876 4.578125-3.261719 10.386719-1.152344 15.972656 2.492187 2.324219 5.832031 3.75 9.507812 3.75 7.695313 0 13.933594-6.238281 13.933594-13.933594 0-5.90625-3.675781-10.953125-8.863281-12.980469zm0 0" fill="#06daf7"/><path d="m349.511719 342.503906c-5.835938-8.777344-19.847657-9.722656-31.289063-2.109375-11.441406 7.609375-15.980468 20.894531-10.144531 29.671875 5.839844 8.777344 19.847656 9.722656 31.289063 2.109375 11.441406-7.609375 15.984374-20.894531 10.144531-29.671875zm0 0" fill="#55f3ff"/><path d="m336.078125 335.320312c5.613281.40625 10.527344 2.832032 13.425781 7.191407 3.046875 4.578125 3.261719 10.386719 1.148438 15.972656-2.488282 2.324219-5.828125 3.75-9.503906 3.75-7.695313 0-13.933594-6.238281-13.933594-13.933594 0-5.90625 3.675781-10.953125 8.863281-12.980469zm0 0" fill="#06daf7"/><path d="m359.574219 420.078125c-1.429688-4.34375-6.105469-6.707031-10.449219-5.277344l-32.347656 10.640625c-8.410156 2.769532-17.160156 4.167969-26.011719 4.167969-4.277344 0-147.324219 0-151.597656 0-8.851563 0-17.601563-1.398437-26.011719-4.167969l-32.347656-10.640625c-4.34375-1.429687-9.023438.933594-10.449219 5.277344-1.429687 4.34375.933594 9.023437 5.277344 10.449219l32.347656 10.644531c10.078125 3.3125 20.570313 4.996094 31.183594 4.996094h151.597656c10.613281 0 21.101563-1.683594 31.183594-4.996094l32.347656-10.644531c4.34375-1.425782 6.707031-6.105469 5.277344-10.449219zm0 0" fill="#d6eafc"/><path d="m293.570312 272.183594c-.53125-1.085938-1.128906-2.125-1.75-3.140625-4.386718-3.277344-9.785156-5.152344-15.472656-5.152344h-122.761718c-5.6875 0-11.082032 1.875-15.472657 5.152344-.621093 1.015625-1.21875 2.054687-1.75 3.140625l-18.144531 37.039062h193.496094zm0 0" fill="#55f3ff"/><path d="m20.796875 354.890625c7.398437 16.75 16.613281 32.519531 27.40625 47.050781v-323.0625h-27.40625zm0 0" fill="#b7dbf6"/><path d="m381.730469 459.324219c9.648437-6.5 18.800781-13.671875 27.40625-21.441407v-359.003906h-27.40625zm0 0" fill="#d6eafc"/><path d="m225.117188 156.570312v-22.179687c0-5.605469-4.546876-10.148437-10.148438-10.148437-5.605469 0-10.152344 4.542968-10.152344 10.148437v22.179687zm0 0" fill="#97cbef"/><path d="m20.796875 24.742188h388.339844v57.472656h-388.339844zm0 0" fill="#b7dbf6"/><path d="m20.796875 24.742188h64.40625v57.472656h-64.40625zm0 0" fill="#97cbef"/><path d="m416.230469 27.40625h-402.527344c-7.566406 0-13.703125-6.136719-13.703125-13.703125 0-7.570313 6.136719-13.703125 13.703125-13.703125h402.527344c7.566406 0 13.703125 6.136719 13.703125 13.703125s-6.136719 13.703125-13.703125 13.703125zm0 0" fill="#d6eafc"/><path d="m73 13.703125c0-7.566406 6.136719-13.703125 13.703125-13.703125h-73c-7.566406 0-13.703125 6.132812-13.703125 13.703125 0 7.566406 6.136719 13.703125 13.703125 13.703125h73c-7.566406 0-13.703125-6.136719-13.703125-13.703125zm0 0" fill="#b7dbf6"/><path d="m245 501c50.636719 0 97.679688-15.363281 136.730469-41.675781h-273.460938c39.054688 26.3125 86.097657 41.675781 136.730469 41.675781zm0 0" fill="#60d882"/><path d="m178.273438 459.324219h-70.003907c20.632813 13.902343 43.496094 24.742187 67.9375 31.878906-12.460937-7.265625-10.582031-26.375 2.066407-31.878906zm0 0" fill="#37c47a"/><path d="m490.136719 92.988281c2.828125-4.792969 1.238281-10.96875-3.550781-13.796875-20.109376-11.871094-43.609376-11.886718-63.746094 0-4.789063 2.828125-6.378906 9.003906-3.550782 13.796875 2.824219 4.789063 9 6.382813 13.796876 3.550781 13.773437-8.132812 29.453124-8.148437 43.257812 0 4.789062 2.828126 10.964844 1.238282 13.792969-3.550781zm0 0" fill="#a6ffff"/><path d="m413.160156 67.191406c26.085938-17.742187 56.988282-17.761718 83.101563-.003906 4.597656 3.125 10.867187 1.933594 13.992187-2.664062 3.128906-4.601563 1.9375-10.867188-2.664062-13.996094-32.851563-22.339844-72.847656-22.382813-105.761719.003906-4.597656 3.128906-5.792969 9.394531-2.664063 13.996094 3.125 4.589844 9.390626 5.796875 13.996094 2.664062zm0 0" fill="#a6ffff"/><path d="m442.902344 148.949219v-19.855469c0-7.59375 6.386718-13.75 14.269531-13.75 7.878906 0 14.265625 6.15625 14.265625 13.75v19.855469zm0 0" fill="#b7dbf6"/><path d="m457.167969 141.046875c-7.5625 0-13.738281-5.679687-14.222657-12.855469-.019531.300782-.046874.597656-.046874.902344v19.851562h28.539062v-19.851562c0-.304688-.027344-.601562-.046875-.902344-.484375 7.175782-6.65625 12.855469-14.222656 12.855469zm0 0" fill="#97cbef"/><path d="m368.789062 382.269531h110.019532c6.847656 0 12.449218-5.601562 12.449218-12.449219v-210.457031c0-6.847656-5.601562-12.453125-12.449218-12.453125h-110.019532c-6.847656 0-12.449218 5.605469-12.449218 12.453125v210.457031c0 6.847657 5.601562 12.449219 12.449218 12.449219zm0 0" fill="#d6eafc"/><path d="m406.667969 348.253906c0-14.910156 9.695312-27.632812 23.339843-32.640625v-21.039062c-18.058593-1.984375-32.085937-16.753907-32.085937-34.6875 0-17.9375 14.027344-32.703125 32.085937-34.6875v-11.632813c-13.644531-5.007812-23.339843-17.730468-23.339843-32.636718 0-16.578126 11.988281-30.449219 28.058593-34.019532h-65.703124c-6.976563 0-12.683594 5.5-12.683594 12.222656v210.914063c0 6.722656 5.707031 12.222656 12.683594 12.222656h65.703124c-16.070312-3.570312-28.058593-17.441406-28.058593-34.015625zm0 0" fill="#b7dbf6"/><path d="m411.1875 240.839844 12.613281-12.15625 12.613281 12.15625c4.746094 4.578125 12.445313 4.578125 17.195313 0 4.746094-4.574219 4.746094-11.996094 0-16.570313l-21.210937-20.445312c-4.75-4.574219-12.449219-4.574219-17.195313 0l-21.210937 20.445312c-4.75 4.574219-4.75 11.996094 0 16.570313 4.746093 4.578125 12.445312 4.578125 17.195312 0zm0 0" fill="#406bcc"/><path d="m432.398438 316.203125 21.210937-20.441406c4.746094-4.578125 4.746094-11.996094 0-16.574219-4.75-4.574219-12.449219-4.574219-17.195313 0l-12.613281 12.160156-12.613281-12.160156c-4.75-4.574219-12.449219-4.574219-17.195312 0-4.75 4.578125-4.75 11.996094 0 16.574219l21.210937 20.441406c4.746094 4.578125 12.445313 4.578125 17.195313 0zm0 0" fill="#406bcc"/><path d="m389.289062 182.332031c5.824219 0 10.558594-4.574219 10.558594-10.1875 0-4.808593-3.480468-9.003906-8.5-9.984375-6.367187-1.246094-12.640625 3.4375-12.640625 9.984375 0 5.59375 4.722657 10.1875 10.582031 10.1875zm0 0" fill="#f95d95"/><path d="m214.976562 141.003906c5.828126 0 10.558594-4.570312 10.558594-10.1875 0-4.804687-3.476562-9-8.496094-9.980468-6.367187-1.25-12.640624 3.433593-12.640624 9.980468 0 5.59375 4.71875 10.1875 10.578124 10.1875zm0 0" fill="#f95d95"/><path d="m448.164062 80.351562c0-4.636718 2.8125-8.398437 6.613282-10.070312-10.925782-.011719-21.851563 2.957031-31.933594 8.910156-4.792969 2.828125-6.382812 9.003906-3.554688 13.792969 2.824219 4.789063 9 6.386719 13.796876 3.554687 6.902343-4.074218 14.285156-6.109374 21.671874-6.105468-3.890624-1.710938-6.59375-5.59375-6.59375-10.082032zm0 0" fill="#55f3ff"/><path d="m448.164062 43.882812c0-4.6875 2.867188-8.476562 6.730469-10.121093-18.273437-.039063-36.558593 5.542969-53.066406 16.769531-4.597656 3.128906-5.792969 9.394531-2.664063 13.996094 3.125 4.589844 9.390626 5.796875 13.996094 2.664062 13.003906-8.847656 27.207032-13.285156 41.417969-13.3125-3.792969-1.753906-6.414063-5.582031-6.414063-9.996094zm0 0" fill="#55f3ff"/><path d="m245.296875 174.871094h-60.65625c-5.605469 0-10.152344-4.546875-10.152344-10.152344s4.546875-10.148438 10.152344-10.148438h60.65625c5.601563 0 10.148437 4.542969 10.148437 10.148438s-4.546874 10.152344-10.148437 10.152344zm0 0" fill="#d6eafc"/><path d="m209.167969 164.71875c0-5.605469 4.546875-10.148438 10.152343-10.148438h-34.679687c-5.605469 0-10.152344 4.542969-10.152344 10.148438s4.546875 10.152344 10.152344 10.152344h34.679687c-5.605468 0-10.152343-4.546875-10.152343-10.152344zm0 0" fill="#b7dbf6"/><path d="m172.691406 309.222656 12.324219-45.332031h-31.429687c-5.6875 0-11.082032 1.875-15.472657 5.152344-.621093 1.015625-1.21875 2.054687-1.75 3.140625l-18.144531 37.039062zm0 0" fill="#06daf7"/><path d="m153.585938 265.890625h122.761718c6.582032 0 12.773438 2.507813 17.46875 6.796875l-.246094-.503906c-6.449218-13.164063-19.828124-21.507813-34.488281-21.507813-4.898437 0-83.328125 0-88.230469 0-14.65625 0-28.039062 8.34375-34.484374 21.507813l-.25.503906c4.691406-4.289062 10.886718-6.796875 17.46875-6.796875zm0 0" fill="#f95d95"/><path d="m178.742188 258.28125c0-3.601562 2.402343-6.636719 5.6875-7.605469-7.285157 0-12.433594 0-13.578126 0-14.660156 0-28.039062 8.34375-34.488281 21.507813l-.246093.503906c4.691406-4.289062 10.886718-6.796875 17.46875-6.796875h30.84375c-3.285157-.96875-5.6875-4.007813-5.6875-7.609375zm0 0" fill="#e5387f"/><path d="m171.117188 437.890625c0-3.746094 2.304687-6.949219 5.574218-8.277344-20.632812 0-36.160156 0-37.523437 0-8.851563 0-17.601563-1.402343-26.011719-4.167969l-32.347656-10.640624c-4.34375-1.429688-9.023438.933593-10.449219 5.273437-1.429687 4.34375.933594 9.023437 5.277344 10.453125l32.347656 10.640625c10.078125 3.316406 20.570313 4.996094 31.183594 4.996094h37.523437c-3.269531-1.332031-5.574218-4.53125-5.574218-8.277344zm0 0" fill="#97cbef"/></svg>