<svg height="512pt" viewBox="-11 0 512 512" width="512pt" xmlns="http://www.w3.org/2000/svg"><path d="m79.921875 448.03125 327.730469 2.167969c50.511718-44.878907 82.351562-110.316407 82.351562-183.199219 0-135.3125-109.691406-245.003906-245.003906-245.003906-135.308594 0-245 109.691406-245 245.003906 0 71.714844 30.816406 136.226562 79.921875 181.03125zm0 0" fill="#f9ce00"/><path d="m383.574219 26.039062h-279.507813v441.378907c39.863282 28.082031 88.46875 44.582031 140.933594 44.582031 51.4375 0 99.160156-15.863281 138.574219-42.945312zm0 0" fill="#284cb2"/><path d="m136.066406 26.039062h-32v441.378907c10.128906 7.136719 20.824219 13.519531 32 19.078125zm0 0" fill="#1d3ba8"/><path d="m395.773438 0h-303.90625c-7.792969 0-14.109376 6.316406-14.109376 14.109375v431.90625c8.824219 8.246094 18.253907 15.847656 28.222657 22.726563v-440.519532h275.679687v442.148438c9.949219-6.699219 19.382813-14.109375 28.222656-22.15625v-434.105469c0-7.792969-6.316406-14.109375-14.109374-14.109375zm0 0" fill="#406bcc"/><path d="m317.132812 171.417969h-146.625c-6.898437 0-12.542968-5.644531-12.542968-12.542969v-61.667969c0-6.898437 5.644531-12.542969 12.542968-12.542969h146.625c6.898438 0 12.542969 5.644532 12.542969 12.542969v61.667969c0 6.898438-5.644531 12.542969-12.542969 12.542969zm0 0" fill="#1d3ba8"/><path d="m189.214844 158.875v-61.667969c0-6.898437 5.644531-12.542969 12.542968-12.542969h-31.25c-6.898437 0-12.542968 5.644532-12.542968 12.542969v61.667969c0 6.898438 5.644531 12.542969 12.542968 12.542969h31.25c-6.898437 0-12.542968-5.644531-12.542968-12.542969zm0 0" fill="#122894"/><path d="m197.960938 298.9375c0 12.699219-10.296876 22.996094-22.996094 22.996094-12.699219 0-22.996094-10.296875-22.996094-22.996094s10.296875-22.996094 22.996094-22.996094c12.699218 0 22.996094 10.296875 22.996094 22.996094zm0 0" fill="#d6eafc"/><path d="m183.816406 304.226562c-7.808594 0-14.140625-6.332031-14.140625-14.140624 0-6.46875 4.347657-11.910157 10.277344-13.59375-1.605469-.355469-3.273437-.550782-4.988281-.550782-12.699219 0-22.992188 10.296875-22.992188 22.996094s10.292969 22.996094 22.992188 22.996094c12.699218 0 22.996094-10.296875 22.996094-22.996094 0-1.710938-.191407-3.378906-.546876-4.988281-1.683593 5.933593-7.128906 10.277343-13.597656 10.277343zm0 0" fill="#b7dbf6"/><path d="m464.441406 386.003906v-113.03125c0-10.589844-8.582031-19.175781-19.175781-19.175781h-198.992187c-10.589844 0-19.175782 8.585937-19.175782 19.175781v113.03125c0 10.589844 8.585938 19.175782 19.175782 19.175782h198.996093c10.585938 0 19.171875-8.585938 19.171875-19.175782zm0 0" fill="#06daf7"/><path d="m286.097656 386.003906v-113.03125c0-10.589844 8.585938-19.175781 19.175782-19.175781h-59c-10.589844 0-19.175782 8.585937-19.175782 19.175781v113.03125c0 10.589844 8.585938 19.175782 19.175782 19.175782h59c-10.589844 0-19.175782-8.585938-19.175782-19.175782zm0 0" fill="#05b8e2"/><path d="m227.097656 284.953125h237.34375v28.222656h-237.34375zm0 0" fill="#05b8e2"/><path d="m227.097656 284.953125h59v28.222656h-59zm0 0" fill="#07a3d3"/><path d="m258.441406 354.980469c-5.761718 0-10.441406-4.691407-10.441406-10.453125 0-4.929688 3.441406-9.238282 8.40625-10.242188 6.296875-1.277344 12.5 3.527344 12.5 10.242188 0 5.742187-4.667969 10.453125-10.464844 10.453125zm0 0" fill="#f95d95"/><path d="m406.976562 82.507812c-27.839843-33.808593-77.816406-38.640624-111.625-10.800781-33.804687 27.84375-38.640624 77.820313-10.800781 111.625 27.84375 33.808594 77.820313 38.640625 111.625 10.800781 33.808594-27.84375 38.644531-77.820312 10.800781-111.625zm0 0" fill="#06daf7"/><path d="m366.71875 173.023438c-7.042969-8.550782-10.207031-19.015626-9.703125-29.269532.4375-8.875-6.035156-16.734375-14.828125-18.007812-10.160156-1.46875-19.828125-6.578125-26.871094-15.128906-11.863281-14.40625-12.71875-34.253907-3.566406-49.359376-7.332031 3.488282-14.285156 8.167969-20.558594 14.105469-28.527344 27.007813-32.90625 71.429688-10.105468 103.425781 26.980468 37.859376 79.835937 44.367188 115.097656 15.324219 2.160156-1.777343 4.195312-3.644531 6.113281-5.59375-13.179687.785157-26.539063-4.523437-35.578125-15.496093zm0 0" fill="#05b8e2"/><path d="m174.953125 259.566406c-5.761719 0-10.441406-4.691406-10.441406-10.453125 0-4.929687 3.441406-9.234375 8.40625-10.242187 6.296875-1.277344 12.5 3.527344 12.5 10.242187 0 5.742188-4.667969 10.453125-10.464844 10.453125zm0 0" fill="#f95d95"/><path d="m365.65625 133.585938c-4.328125 0-7.835938-3.511719-7.835938-7.839844v-17.0625c0-6.644532-5.40625-12.046875-12.050781-12.046875s-12.046875 5.402343-12.046875 12.046875v17.0625c0 4.328125-3.511718 7.839844-7.839844 7.839844-4.332031 0-7.839843-3.511719-7.839843-7.839844v-17.0625c0-15.289063 12.4375-27.726563 27.726562-27.726563 15.289063 0 27.726563 12.4375 27.726563 27.726563v17.0625c0 4.332031-3.507813 7.839844-7.839844 7.839844zm0 0" fill="#d6eafc"/><path d="m343.257812 89.644531c0-4.039062 2.761719-7.421875 6.496094-8.394531-16.839844-2.433594-31.710937 10.6875-31.710937 27.4375v17.058594c0 4.332031 3.511719 7.839844 7.839843 7.839844 4.332032 0 7.839844-3.507813 7.839844-7.839844v-17.058594c0-7 6.011719-12.652344 13.160156-11.992188-2.191406-1.578124-3.625-4.144531-3.625-7.050781zm0 0" fill="#b7dbf6"/><path d="m369.339844 176.890625h-47.136719c-5.425781 0-9.863281-4.441406-9.863281-9.867187v-35.589844c0-5.425782 4.4375-9.867188 9.863281-9.867188h47.136719c5.425781 0 9.863281 4.441406 9.863281 9.867188v35.589844c0 5.425781-4.4375 9.867187-9.863281 9.867187zm0 0" fill="#284cb2"/><path d="m335.316406 168.210938c0-4.574219 2.917969-8.351563 6.851563-9.8125-3.265625-1.792969-5.4375-5.28125-5.4375-9.167969 0-4.015625 2.253906-7.414063 5.460937-9.171875-4.046875-1.476563-6.878906-5.375-6.878906-9.8125 0-3.667969 1.878906-6.820313 4.652344-8.679688h-17.761719c-5.425781 0-9.867187 4.4375-9.867187 9.863282v35.59375c0 5.425781 4.441406 9.863281 9.867187 9.863281h17.746094c-2.8125-1.894531-4.632813-5.113281-4.632813-8.675781zm0 0" fill="#1d3ba8"/><path d="m345.765625 159.679688c-5.867187 0-10.449219-4.796876-10.449219-10.449219 0-6.601563 6.070313-11.550781 12.5-10.253907 4.984375 1.011719 8.414063 5.378907 8.414063 10.253907 0 5.960937-4.890625 10.449219-10.464844 10.449219zm0 0" fill="#406bcc"/><path d="m125.417969 14.109375c0-6.761719 4.597656-12.4375 10.832031-14.109375h-44.382812c-7.792969 0-14.109376 6.316406-14.109376 14.109375v431.90625c8.820313 8.246094 18.253907 15.847656 28.222657 22.730469v-440.523438h30.265625c-6.230469-1.675781-10.828125-7.347656-10.828125-14.113281zm0 0" fill="#284cb2"/></svg>