<svg height="512pt" viewBox="-8 0 511 512" width="512pt" xmlns="http://www.w3.org/2000/svg"><path d="m456.148438 397.03125c23.636718-37.679688 37.316406-82.242188 37.316406-130.003906 0-135.324219-109.703125-245.027344-245.03125-245.027344-135.324219 0-245.027344 109.703125-245.027344 245.027344 0 47.761718 13.679688 92.324218 37.316406 130.003906zm0 0" fill="#ef4a8a"/><path d="m457.398438 252.320312-208.964844-208.960937-208.960938 208.960937v142.710938c22.90625 37.320312 55.53125 68.019531 94.347656 88.601562h229.230469c38.816407-20.582031 71.441407-51.28125 94.347657-88.601562zm0 0" fill="#d6eafc"/><path d="m86.667969 292.558594c0-13.550782 5.382812-26.546875 14.964843-36.128906l179.933594-179.9375-33.132812-33.132813-208.960938 208.960937v142.710938c12.871094 20.96875 28.8125 39.847656 47.195313 56.019531zm0 0" fill="#b7dbf6"/><path d="m367.175781 481.394531c-70.953125-.015625-166.757812-.042969-237.59375-.0625 33.933594 18.859375 72.8125 29.894531 114.203125 30.664063 3.035156.003906 6.074219.003906 9.109375.003906 41.414063-.738281 80.320313-11.753906 114.28125-30.605469zm0 0" fill="#60d882"/><path d="m232.535156 481.359375c-36.316406-.007813-72.015625-.019531-102.953125-.027344 30.605469 17.011719 65.234375 27.652344 102.101563 30.140625-13.707032-4.832031-13.101563-25.957031.851562-30.113281zm0 0" fill="#37c47a"/><path d="m139.886719 108.304688v-50.917969h-61.269531v112.1875zm0 0" fill="#284cb2"/><path d="m130.914062 98.277344c-19.296874 19.296875-52.296874 5.628906-52.296874-21.664063v92.960938l61.269531-61.269531v-31.691407c0 8.125-3.226563 15.917969-8.972657 21.664063zm0 0" fill="#1d3ba8"/><path d="m5.484375 264.507812c-6.644531-6.644531-6.644531-17.421874 0-24.066406l230.914063-230.917968c3.191406-3.191407 7.523437-4.984376 12.035156-4.984376 4.515625 0 8.84375 1.792969 12.035156 4.984376l230.917969 230.917968c6.644531 6.644532 6.644531 17.421875 0 24.066406-6.648438 6.648438-17.425781 6.648438-24.070313 0l-218.882812-218.878906-218.878906 218.878906c-6.644532 6.648438-17.421876 6.648438-24.070313 0zm0 0" fill="#406bcc"/><path d="m145.023438 29.019531h-71.539063c-2.214844 0-4.007813 1.792969-4.007813 4.007813v22.621094c0 2.214843 1.792969 4.007812 4.007813 4.007812h71.539063c2.214843 0 4.007812-1.792969 4.007812-4.007812v-22.621094c0-2.214844-1.792969-4.007813-4.007812-4.007813zm0 0" fill="#5488e2"/><path d="m109.253906 55.648438v-22.621094c0-2.214844 1.792969-4.007813 4.007813-4.007813h-39.777344c-2.214844 0-4.007813 1.792969-4.007813 4.007813v22.621094c0 2.214843 1.792969 4.007812 4.007813 4.007812h39.773437c-2.210937 0-4.003906-1.792969-4.003906-4.007812zm0 0" fill="#406bcc"/><path d="m303.972656 53.027344-43.503906-43.503906c-3.191406-3.191407-7.519531-4.984376-12.035156-4.984376-4.511719 0-8.84375 1.792969-12.035156 4.984376l-230.914063 230.917968c-6.644531 6.644532-6.644531 17.421875 0 24.066406 6.648437 6.648438 17.425781 6.648438 24.070313 0l218.878906-218.878906 31.949218 31.945313c-6.851562-15.078125 8.3125-30.761719 23.589844-24.546875zm0 0" fill="#284cb2"/><path d="m248.433594 69.007812c-8.457032 0-15.316406-6.859374-15.316406-15.320312v-38.371094c0-8.457031 6.859374-15.316406 15.316406-15.316406 8.460937 0 15.320312 6.859375 15.320312 15.316406v38.375c0 8.457032-6.859375 15.316406-15.320312 15.316406zm0 0" fill="#284cb2"/><path d="m248.433594 39.042969c-8.457032 0-15.316406-6.859375-15.316406-15.320313v29.96875c0 8.457032 6.859374 15.316406 15.316406 15.316406 8.460937 0 15.320312-6.859374 15.320312-15.316406v-29.964844c0 8.457032-6.859375 15.316407-15.320312 15.316407zm0 0" fill="#1d3ba8"/><path d="m260.191406 106.382812h-23.511718c-1.96875 0-3.5625 1.59375-3.5625 3.558594v23.511719c0 1.96875 1.59375 3.5625 3.5625 3.5625h23.511718c1.96875 0 3.5625-1.59375 3.5625-3.5625v-23.511719c0-1.964844-1.59375-3.558594-3.5625-3.558594zm0 0" fill="#55f3ff"/><path d="m248.433594 133.453125v-23.511719c0-1.964844 1.597656-3.558594 3.5625-3.558594h-15.316406c-1.96875 0-3.5625 1.59375-3.5625 3.558594v23.511719c0 1.96875 1.59375 3.5625 3.5625 3.5625h15.316406c-1.964844 0-3.5625-1.59375-3.5625-3.5625zm0 0" fill="#06daf7"/><path d="m307.246094 415.292969h-117.621094c-16.636719 0-30.171875-13.535157-30.171875-30.175781v-117.617188c0-16.640625 13.535156-30.175781 30.171875-30.175781h117.621094c16.636718 0 30.171875 13.539062 30.171875 30.175781v117.617188c0 16.640624-13.535157 30.175781-30.171875 30.175781zm0 0" fill="#406bcc"/><path d="m207.6875 252.570312c0-7.824218 5.839844-14.265624 13.398438-15.246093h-31.460938c-16.636719 0-30.175781 13.539062-30.175781 30.175781v117.617188c0 16.640624 13.539062 30.179687 30.175781 30.179687h31.460938c-7.554688-.980469-13.398438-7.425781-13.398438-15.246094 0-8.5 6.890625-15.390625 15.390625-15.390625v-116.699218c-8.5 0-15.390625-6.890626-15.390625-15.390626zm0 0" fill="#284cb2"/><path d="m190.085938 267.960938h116.699218v116.699218h-116.699218zm0 0" fill="#284cb2"/><path d="m190.085938 267.960938h32.992187v116.699218h-32.992187zm0 0" fill="#1d3ba8"/><g fill="#55f3ff"><path d="m159.449219 284.277344h-31.460938c-4.699219 0-8.511719-3.808594-8.511719-8.511719 0-4.699219 3.8125-8.507813 8.511719-8.507813h31.460938c4.699219 0 8.511719 3.808594 8.511719 8.507813 0 4.703125-3.8125 8.511719-8.511719 8.511719zm0 0"/><path d="m127.988281 423.804688h-30.480469c-4.699218 0-8.507812-3.808594-8.507812-8.511719 0-4.699219 3.808594-8.507813 8.507812-8.507813h21.96875v-29.933594c0-4.699218 3.8125-8.511718 8.511719-8.511718h31.460938c4.699219 0 8.511719 3.808594 8.511719 8.511718 0 4.699219-3.808594 8.507813-8.511719 8.507813h-22.949219v29.933594c0 4.703125-3.8125 8.511719-8.511719 8.511719zm0 0"/><path d="m368.882812 284.277344h-31.464843c-4.699219 0-8.507813-3.808594-8.507813-8.511719 0-4.699219 3.808594-8.507813 8.507813-8.507813h31.464843c4.699219 0 8.507813 3.808594 8.507813 8.507813 0 4.703125-3.808594 8.511719-8.507813 8.511719zm0 0"/><path d="m399.363281 423.804688h-30.480469c-4.699218 0-8.511718-3.808594-8.511718-8.511719v-29.933594h-22.953125c-4.699219 0-8.507813-3.808594-8.507813-8.507813 0-4.699218 3.808594-8.511718 8.507813-8.511718h31.464843c4.699219 0 8.507813 3.808594 8.507813 8.511718v29.933594h21.972656c4.699219 0 8.507813 3.808594 8.507813 8.507813 0 4.703125-3.808594 8.511719-8.507813 8.511719zm0 0"/><path d="m399.363281 351.667969h-61.945312c-4.699219 0-8.507813-3.808594-8.507813-8.511719 0-4.699219 3.808594-8.507812 8.507813-8.507812h61.945312c4.699219 0 8.507813 3.808593 8.507813 8.507812 0 4.703125-3.808594 8.511719-8.507813 8.511719zm0 0"/><path d="m399.363281 317.972656h-61.945312c-4.699219 0-8.507813-3.808594-8.507813-8.511718 0-4.699219 3.808594-8.507813 8.507813-8.507813h61.945312c4.699219 0 8.507813 3.808594 8.507813 8.507813 0 4.703124-3.808594 8.511718-8.507813 8.511718zm0 0"/></g><path d="m351.164062 275.765625c0-4.699219 3.808594-8.507813 8.507813-8.507813h-22.253906c-4.699219 0-8.507813 3.808594-8.507813 8.507813 0 4.703125 3.808594 8.511719 8.507813 8.511719h22.253906c-4.699219 0-8.507813-3.808594-8.507813-8.511719zm0 0" fill="#06daf7"/><path d="m351.164062 343.15625c0-4.699219 3.808594-8.507812 8.507813-8.507812h-22.253906c-4.699219 0-8.507813 3.808593-8.507813 8.507812 0 4.703125 3.808594 8.511719 8.507813 8.511719h22.253906c-4.699219 0-8.507813-3.808594-8.507813-8.511719zm0 0" fill="#06daf7"/><path d="m351.164062 376.851562c0-4.699218 3.808594-8.507812 8.507813-8.507812h-22.253906c-4.699219 0-8.507813 3.808594-8.507813 8.507812 0 4.699219 3.808594 8.511719 8.507813 8.511719h22.253906c-4.699219 0-8.507813-3.8125-8.507813-8.511719zm0 0" fill="#06daf7"/><path d="m351.164062 309.460938c0-4.699219 3.808594-8.507813 8.507813-8.507813h-22.253906c-4.699219 0-8.507813 3.808594-8.507813 8.507813 0 4.699218 3.808594 8.511718 8.507813 8.511718h22.253906c-4.699219 0-8.507813-3.808594-8.507813-8.511718zm0 0" fill="#06daf7"/><path d="m159.449219 351.667969h-61.941407c-4.699218 0-8.507812-3.808594-8.507812-8.511719 0-4.699219 3.808594-8.507812 8.507812-8.507812h61.941407c4.699219 0 8.511719 3.808593 8.511719 8.507812 0 4.703125-3.8125 8.511719-8.511719 8.511719zm0 0" fill="#55f3ff"/><path d="m159.449219 317.972656h-61.941407c-4.699218 0-8.507812-3.808594-8.507812-8.511718 0-4.699219 3.808594-8.507813 8.507812-8.507813h61.941407c4.699219 0 8.511719 3.808594 8.511719 8.507813 0 4.703124-3.8125 8.511718-8.511719 8.511718zm0 0" fill="#55f3ff"/><path d="m139.191406 275.765625c0-4.699219 3.808594-8.507813 8.511719-8.507813h-19.714844c-4.699219 0-8.507812 3.808594-8.507812 8.507813 0 4.703125 3.808593 8.511719 8.507812 8.511719h19.714844c-4.703125 0-8.511719-3.808594-8.511719-8.511719zm0 0" fill="#06daf7"/><path d="m139.191406 343.15625c0-4.699219 3.808594-8.507812 8.511719-8.507812h-50.195313c-4.699218 0-8.507812 3.808593-8.507812 8.507812 0 4.703125 3.808594 8.511719 8.507812 8.511719h50.195313c-4.703125 0-8.511719-3.808594-8.511719-8.511719zm0 0" fill="#06daf7"/><path d="m139.191406 309.460938c0-4.699219 3.808594-8.507813 8.511719-8.507813h-50.195313c-4.699218 0-8.507812 3.808594-8.507812 8.507813 0 4.699218 3.808594 8.511718 8.507812 8.511718h50.195313c-4.703125 0-8.511719-3.808594-8.511719-8.511718zm0 0" fill="#06daf7"/><path d="m197.890625 455.265625c-4.699219 0-8.507813-3.808594-8.507813-8.507813v-31.464843c0-4.699219 3.808594-8.507813 8.507813-8.507813 4.703125 0 8.511719 3.808594 8.511719 8.507813v31.464843c0 4.699219-3.808594 8.507813-8.511719 8.507813zm0 0" fill="#06daf7"/><path d="m298.980469 455.265625c-4.703125 0-8.511719-3.808594-8.511719-8.507813v-31.464843c0-4.699219 3.808594-8.507813 8.511719-8.507813 4.699219 0 8.507812 3.808594 8.507812 8.507813v31.464843c0 4.699219-3.808593 8.507813-8.507812 8.507813zm0 0" fill="#06daf7"/><path d="m197.890625 245.835938c-4.699219 0-8.507813-3.8125-8.507813-8.511719v-22.953125h-29.933593c-4.699219 0-8.511719-3.808594-8.511719-8.507813v-29.480469c0-4.699218 3.8125-8.511718 8.511719-8.511718s8.511719 3.8125 8.511719 8.511718v20.96875h29.929687c4.703125 0 8.511719 3.808594 8.511719 8.511719v31.460938c0 4.699219-3.808594 8.511719-8.511719 8.511719zm0 0" fill="#06daf7"/><path d="m298.980469 245.835938c-4.703125 0-8.511719-3.8125-8.511719-8.511719v-31.460938c0-4.703125 3.808594-8.511719 8.511719-8.511719h29.929687v-20.96875c0-4.699218 3.808594-8.511718 8.507813-8.511718 4.703125 0 8.511719 3.8125 8.511719 8.511718v29.480469c0 4.699219-3.808594 8.507813-8.511719 8.507813h-29.929688v22.953125c0 4.699219-3.808593 8.511719-8.507812 8.511719zm0 0" fill="#55f3ff"/><path d="m265.285156 245.835938c-4.703125 0-8.511718-3.8125-8.511718-8.511719v-61.941407c0-4.699218 3.808593-8.511718 8.511718-8.511718 4.699219 0 8.507813 3.8125 8.507813 8.511718v61.941407c0 4.699219-3.808594 8.511719-8.507813 8.511719zm0 0" fill="#06daf7"/><path d="m231.589844 245.835938c-4.703125 0-8.511719-3.8125-8.511719-8.511719v-61.941407c0-4.699218 3.808594-8.511718 8.511719-8.511718 4.699218 0 8.507812 3.8125 8.507812 8.511718v61.941407c0 4.699219-3.808594 8.511719-8.507812 8.511719zm0 0" fill="#06daf7"/><path d="m265.285156 455.265625c-4.703125 0-8.511718-3.808594-8.511718-8.507813v-31.464843c0-4.699219 3.808593-8.507813 8.511718-8.507813 4.699219 0 8.507813 3.808594 8.507813 8.507813v31.464843c0 4.699219-3.808594 8.507813-8.507813 8.507813zm0 0" fill="#06daf7"/><path d="m231.589844 455.265625c-4.703125 0-8.511719-3.808594-8.511719-8.507813v-31.464843c0-4.699219 3.808594-8.507813 8.511719-8.507813 4.699218 0 8.507812 3.808594 8.507812 8.507813v31.464843c0 4.699219-3.808594 8.507813-8.507812 8.507813zm0 0" fill="#06daf7"/><path d="m284.199219 326.308594c0 19.753906-16.011719 35.765625-35.765625 35.765625-19.75 0-35.761719-16.011719-35.761719-35.765625 0-19.75 16.011719-35.761719 35.761719-35.761719 19.753906 0 35.765625 16.011719 35.765625 35.761719zm0 0" fill="#f9ce00"/><path d="m240.21875 345.117188c0-4.890626 1.886719-9.335938 4.949219-12.679688v-12.257812c-3.0625-3.34375-4.949219-7.785157-4.949219-12.679688 0-7.414062 4.304688-13.808594 10.539062-16.871094-.769531-.050781-1.542968-.082031-2.324218-.082031-19.75 0-35.761719 16.011719-35.761719 35.761719s16.011719 35.761718 35.761719 35.761718c.78125 0 1.554687-.03125 2.320312-.082031-6.230468-3.0625-10.535156-9.457031-10.535156-16.871093zm0 0" fill="#f4b500"/><path d="m284.199219 334.820312h-71.527344c-4.699219 0-8.511719-3.808593-8.511719-8.511718 0-4.699219 3.808594-8.507813 8.511719-8.507813h71.527344c4.699219 0 8.507812 3.808594 8.507812 8.507813 0 4.703125-3.808593 8.511718-8.507812 8.511718zm0 0" fill="#f4b500"/><path d="m234.832031 326.308594c0-4.699219 3.808594-8.507813 8.511719-8.507813h-30.671875c-4.699219 0-8.507813 3.808594-8.507813 8.507813 0 4.703125 3.808594 8.511718 8.507813 8.511718h30.671875c-4.703125 0-8.511719-3.808593-8.511719-8.511718zm0 0" fill="#f29b00"/><path d="m314.839844 205.863281c0-3.914062 2.484375-7.238281 5.957031-8.511719h-21.816406c-4.703125 0-8.511719 3.8125-8.511719 8.511719v31.460938c0 4.699219 3.808594 8.511719 8.511719 8.511719 4.699219 0 8.507812-3.8125 8.507812-8.511719v-22.953125h13.308594c-3.472656-1.269532-5.957031-4.59375-5.957031-8.507813zm0 0" fill="#06daf7"/><path d="m139.191406 376.851562c0-4.699218 3.808594-8.507812 8.511719-8.507812h-19.714844c-4.699219 0-8.507812 3.808594-8.507812 8.507812v29.933594h-21.972657c-4.699218 0-8.507812 3.808594-8.507812 8.507813s3.808594 8.511719 8.507812 8.511719h30.480469c4.699219 0 8.511719-3.8125 8.511719-8.511719v-29.929688h11.203125c-4.703125 0-8.511719-3.8125-8.511719-8.511719zm0 0" fill="#06daf7"/></svg>