<svg height="512pt" viewBox="-11 0 512 512" width="512pt" xmlns="http://www.w3.org/2000/svg"><path d="m79.070312 447.238281 327.722657 3.726563c51.011719-44.898438 83.210937-110.667969 83.210937-183.964844 0-135.3125-109.691406-245.003906-245.003906-245.003906-135.308594 0-245 109.691406-245 245.003906 0 71.292969 30.464844 135.464844 79.070312 180.238281zm0 0" fill="#60d882"/><path d="m158.621094 24.121094h-57.503906v441.179687c17.554687 12.757813 36.867187 23.242188 57.503906 31.023438zm0 0" fill="#f9ce00"/><path d="m129.871094 24.121094v459.167968c9.246094 4.933594 18.84375 9.300782 28.75 13.035157v-472.203125zm0 0" fill="#f4b500"/><path d="m154.613281 494.78125c27.964844 11.105469 58.457031 17.21875 90.378907 17.21875h.019531c51.964843-.003906 100.140625-16.195312 139.785156-43.789062v-444.089844h-230.183594zm0 0" fill="#284cb2"/><path d="m193.546875 24.121094h-38.933594v470.660156c12.503907 4.964844 25.515625 8.925781 38.933594 11.792969zm0 0" fill="#1d3ba8"/><path d="m394.910156 0h-303.902344c-7.792968 0-14.113281 6.316406-14.113281 14.109375v431.105469c8.816407 8.316406 18.25 15.980468 28.222657 22.929687v-439.921875h275.679687v442.714844c9.945313-6.632812 19.375-13.972656 28.222656-21.949219v-434.878906c0-7.792969-6.316406-14.109375-14.109375-14.109375zm0 0" fill="#406bcc"/><path d="m328.8125 158.875v-61.667969c0-6.898437-5.644531-12.542969-12.542969-12.542969h-110.640625c-6.898437 0-12.542968 5.644532-12.542968 12.542969v61.667969c0 6.898438 5.644531 12.542969 12.542968 12.542969h110.640625c6.898438 0 12.542969-5.644531 12.542969-12.542969zm0 0" fill="#1d3ba8"/><path d="m226.234375 158.875v-61.667969c0-6.898437 5.644531-12.542969 12.542969-12.542969h-33.148438c-6.898437 0-12.542968 5.644532-12.542968 12.542969v61.667969c0 6.898438 5.640624 12.542969 12.542968 12.542969h33.148438c-6.898438 0-12.542969-5.644531-12.542969-12.542969zm0 0" fill="#122894"/><path d="m182.675781 281.378906h-7.753906c3.410156 4.21875 5.582031 10.515625 5.582031 17.558594s-2.171875 13.339844-5.582031 17.558594h7.753906c9.695313 0 17.558594-7.859375 17.558594-17.558594 0-9.695312-7.863281-17.558594-17.558594-17.558594zm0 0" fill="#97cbef"/><path d="m463.578125 386.003906v-113.03125c0-10.589844-8.585937-19.175781-19.175781-19.175781h-198.996094c-10.589844 0-19.171875 8.585937-19.171875 19.175781v113.03125c0 10.589844 8.582031 19.175782 19.175781 19.175782h198.992188c10.589844 0 19.175781-8.585938 19.175781-19.175782zm0 0" fill="#06daf7"/><path d="m285.234375 386.003906v-113.03125c0-10.589844 8.582031-19.175781 19.171875-19.175781h-59c-10.589844 0-19.171875 8.585937-19.171875 19.175781v113.03125c0 10.589844 8.582031 19.175782 19.171875 19.175782h59c-10.589844 0-19.171875-8.585938-19.171875-19.175782zm0 0" fill="#05b8e2"/><path d="m226.234375 284.953125h237.34375v28.222656h-237.34375zm0 0" fill="#05b8e2"/><path d="m226.234375 284.953125h59v28.222656h-59zm0 0" fill="#07a3d3"/><path d="m257.578125 354.980469c-5.761719 0-10.441406-4.691407-10.441406-10.453125 0-4.929688 3.441406-9.238282 8.40625-10.242188 6.296875-1.277344 12.5 3.527344 12.5 10.242188 0 5.742187-4.667969 10.453125-10.464844 10.453125zm0 0" fill="#f95d95"/><path d="m406.113281 82.507812c-27.839843-33.804687-77.816406-38.640624-111.621093-10.800781-33.808594 27.84375-38.644532 77.820313-10.804688 111.625 27.84375 33.808594 77.820312 38.644531 111.625 10.800781 33.808594-27.839843 38.644531-77.816406 10.800781-111.625zm0 0" fill="#f95d95"/><path d="m365.855469 173.023438c-7.042969-8.550782-10.207031-19.015626-9.699219-29.269532.4375-8.875-6.039062-16.734375-14.832031-18.007812-10.160157-1.46875-19.824219-6.578125-26.867188-15.128906-11.867187-14.40625-12.71875-34.25-3.566406-49.359376-7.335937 3.488282-14.285156 8.167969-20.558594 14.105469-28.53125 27.007813-32.910156 71.429688-10.109375 103.425781 26.980469 37.859376 79.835938 44.367188 115.101563 15.324219 2.15625-1.777343 4.191406-3.644531 6.113281-5.59375-13.183594.785157-26.542969-4.523437-35.582031-15.496093zm0 0" fill="#ef4a8a"/><path d="m182.59375 298.9375c0-12.699219-7.050781-22.996094-15.742188-22.996094-8.695312 0-15.746093 10.296875-15.746093 22.996094s7.050781 22.996094 15.746093 22.996094c8.691407 0 15.742188-10.296875 15.742188-22.996094zm0 0" fill="#d6eafc"/><path d="m183.496094 259.566406c-5.761719 0-10.4375-4.691406-10.4375-10.453125 0-4.929687 3.4375-9.234375 8.402344-10.242187 6.296874-1.277344 12.5 3.527344 12.5 10.242187 0 5.742188-4.667969 10.453125-10.464844 10.453125zm0 0" fill="#f95d95"/><path d="m325.015625 132.542969c-4.328125 0-7.835937-3.511719-7.835937-7.839844v-24.050781c0-15.289063 12.4375-27.726563 27.726562-27.726563s27.726562 12.4375 27.726562 27.726563c0 4.328125-3.507812 7.839844-7.839843 7.839844-4.328125 0-7.839844-3.507813-7.839844-7.839844 0-6.644532-5.402344-12.046875-12.046875-12.046875s-12.050781 5.402343-12.050781 12.046875v24.050781c0 4.328125-3.507813 7.839844-7.839844 7.839844zm0 0" fill="#d6eafc"/><path d="m336.316406 80.960938c0-3.515626 2.097656-6.449219 5.011719-7.796876-13.605469 1.761719-24.152344 13.414063-24.152344 27.488282v24.050781c0 4.332031 3.511719 7.839844 7.839844 7.839844 4.332031 0 7.839844-3.511719 7.839844-7.839844v-24.050781c0-5.605469 3.855469-10.316406 9.050781-11.65625-3.296875-1.230469-5.589844-4.417969-5.589844-8.035156zm0 0" fill="#b7dbf6"/><path d="m368.476562 176.890625h-47.136718c-5.429688 0-9.867188-4.441406-9.867188-9.867187v-35.59375c0-5.425782 4.4375-9.867188 9.867188-9.867188h47.136718c5.425782 0 9.863282 4.441406 9.863282 9.867188v35.59375c0 5.425781-4.4375 9.867187-9.863282 9.867187zm0 0" fill="#284cb2"/><path d="m334.449219 168.210938c0-4.574219 2.921875-8.351563 6.855469-9.8125-3.269532-1.792969-5.441407-5.28125-5.441407-9.171876 0-4.015624 2.257813-7.410156 5.464844-9.167968-4.050781-1.480469-6.878906-5.378906-6.878906-9.8125 0-3.667969 1.878906-6.820313 4.648437-8.683594h-17.757812c-5.429688 0-9.867188 4.441406-9.867188 9.867188v35.59375c0 5.425781 4.4375 9.867187 9.867188 9.867187h17.746094c-2.8125-1.898437-4.636719-5.117187-4.636719-8.679687zm0 0" fill="#1d3ba8"/><path d="m344.902344 159.679688c-5.867188 0-10.453125-4.796876-10.453125-10.453126 0-6.597656 6.070312-11.546874 12.5-10.253906 4.984375 1.015625 8.414062 5.382813 8.414062 10.253906 0 5.964844-4.886719 10.453126-10.460937 10.453126zm0 0" fill="#406bcc"/><path d="m144.984375 14.109375c0-6.441406 4.035156-11.929687 9.714844-14.109375h-63.691407c-7.796874 0-14.113281 6.316406-14.113281 14.109375v431.105469c8.816407 8.316406 18.25 15.980468 28.222657 22.929687v-439.921875h49.582031c-5.675781-2.179687-9.714844-7.667968-9.714844-14.113281zm0 0" fill="#284cb2"/><path d="m169.34375 301.128906c-7.316406 0-13.25-5.933594-13.25-13.25 0-4.160156 1.917969-7.867187 4.917969-10.292968-5.804688 3.386718-9.90625 11.667968-9.90625 21.351562 0 12.699219 7.050781 22.996094 15.746093 22.996094 8.695313 0 15.742188-10.296875 15.742188-22.996094 0-2.375-.246094-4.664062-.703125-6.820312-1.769531 5.238281-6.710937 9.011718-12.546875 9.011718zm0 0" fill="#b7dbf6"/></svg>