<svg height="511pt" viewBox="-10 0 511 511.98924" width="511pt" xmlns="http://www.w3.org/2000/svg"><path d="m83.585938 450.847656 328.210937-3.96875c48.390625-44.753906 78.699219-108.777344 78.699219-179.890625 0-135.3125-109.691406-245-245-245s-245 109.6875-245 245c0 73.238281 32.148437 138.960938 83.089844 183.859375zm0 0" fill="#f9ce00"/><path d="m81.359375 448.875c43.441406 39.222656 100.996094 63.113281 164.136719 63.113281 65.265625 0 124.570312-25.527343 168.480468-67.132812v-384.390625h-332.617187zm0 0" fill="#284cb2"/><path d="m172.597656 60.464844h-91.238281v388.410156c25.972656 23.453125 56.996094 41.414062 91.238281 52.074219zm0 0" fill="#1d3ba8"/><path d="m156.082031 205.710938c-14.90625 8.605468-20.03125 27.730468-11.425781 42.636718s27.734375 20.03125 42.636719 11.425782c14.90625-8.605469 20.03125-27.734376 11.425781-42.636719-8.605469-14.90625-27.730469-20.03125-42.636719-11.425781zm0 0" fill="#1d3ba8"/><path d="m188.539062 249.207031c-1.515624-2.625-1.1875-5.660156.375-7.875l-15.53125-26.898437c-2.753906.253906-5.535156-1.066406-7.011718-3.621094-1.800782-3.125-1-6.828125 1.394531-9.035156-4.003906.5-7.976563 1.792968-11.683594 3.933594-14.90625 8.605468-20.03125 27.730468-11.425781 42.636718s27.734375 20.03125 42.636719 11.425782c3.238281-1.871094 6.015625-4.238282 8.289062-6.949219-2.765625.265625-5.5625-1.054688-7.042969-3.617188zm0 0" fill="#122894"/><path d="m189.195312 222.625c-5.582031-9.671875-17.949218-12.984375-27.621093-7.402344-9.671875 5.585938-12.984375 17.953125-7.402344 27.621094 5.585937 9.671875 17.953125 12.988281 27.621094 7.402344 9.671875-5.582032 12.984375-17.949219 7.402343-27.621094zm0 0" fill="#06daf7"/><path d="m166.203125 235.910156c-4.363281-7.558594-3.273437-16.742187 2.011719-23.070312-2.273438.394531-4.519532 1.167968-6.636719 2.390625-9.671875 5.582031-12.984375 17.949219-7.402344 27.621093 5.582031 9.671876 17.953125 12.984376 27.625 7.402344 2.113281-1.222656 3.90625-2.785156 5.386719-4.554687-8.121094 1.414062-16.621094-2.234375-20.984375-9.789063zm0 0" fill="#05b8e2"/><path d="m344.457031 115.96875h-193.574219c-4.902343 0-8.878906 3.972656-8.878906 8.875v42.648438c0 4.902343 3.976563 8.878906 8.878906 8.878906h193.574219c4.902344 0 8.875-3.976563 8.875-8.878906v-42.648438c0-4.902344-3.972656-8.875-8.875-8.875zm0 0" fill="#f9ce00"/><path d="m175.304688 115.96875h-24.421876c-4.902343 0-8.878906 3.972656-8.878906 8.878906v42.644532c0 4.902343 3.972656 8.875 8.875 8.878906h24.429688c-4.902344 0-8.878906-3.976563-8.878906-8.878906v-42.644532c0-4.90625 3.972656-8.878906 8.875-8.878906zm0 0" fill="#f4b500"/><g fill="#f29b00"><path d="m186.300781 157.160156c-6.066406 0-10.992187-4.921875-10.992187-10.992187 0-7.070313 6.5-12.109375 13.132812-10.773438 5.328125 1.082031 8.851563 5.710938 8.851563 10.773438 0 5.96875-4.863281 10.992187-10.992188 10.992187zm0 0"/><path d="m227.210938 157.160156c-7.019532 0-12.132813-6.472656-10.769532-13.136718.765625-4.117188 4.050782-7.6875 8.617188-8.628907 6.792968-1.367187 13.144531 3.863281 13.144531 10.773438 0 5.921875-4.804687 10.992187-10.992187 10.992187zm0 0"/><path d="m268.125 157.160156c-5.910156 0-10.992188-4.789062-10.992188-10.992187 0-6.875 6.332032-12.152344 13.136719-10.773438 4.867188.914063 8.847657 5.328125 8.847657 10.773438 0 5.972656-4.851563 10.992187-10.992188 10.992187zm0 0"/><path d="m309.039062 157.160156c-6.140624 0-10.992187-5.019531-10.992187-10.992187 0-5.214844 3.773437-9.820313 8.847656-10.773438 6.554688-1.332031 13.136719 3.628907 13.136719 10.773438 0 6.167969-5.039062 10.992187-10.992188 10.992187zm0 0"/></g><path d="m323.648438 423.371094h-75.980469c-11.167969 0-20.222657 9.054687-20.222657 20.222656s9.054688 20.21875 20.222657 20.21875h75.980469c11.167968 0 20.21875-9.050781 20.21875-20.21875s-9.050782-20.222656-20.21875-20.222656zm0 0" fill="#60d882"/><path d="m278.882812 443.59375c0-11.167969 9.050782-20.222656 20.21875-20.222656h-51.433593c-11.167969 0-20.222657 9.054687-20.222657 20.222656s9.054688 20.21875 20.222657 20.21875h51.433593c-11.167968 0-20.21875-9.050781-20.21875-20.21875zm0 0" fill="#37c47a"/><path d="m424.027344 22.222656h-352.71875c-5.558594 0-10.066406 4.503906-10.066406 10.066406v20.308594c0 5.558594 4.507812 10.066406 10.066406 10.066406h352.71875c5.558594 0 10.066406-4.507812 10.066406-10.066406v-20.3125c0-5.558594-4.507812-10.0625-10.066406-10.0625zm0 0" fill="#406bcc"/><path d="m154.578125 42.441406c0-11.167968 9.050781-20.21875 20.21875-20.21875h-103.488281c-5.558594 0-10.066406 4.503906-10.066406 10.0625v20.3125c0 5.558594 4.507812 10.066406 10.066406 10.066406h103.488281c-11.167969 0-20.21875-9.054687-20.21875-20.222656zm0 0" fill="#284cb2"/><path d="m468.230469 31.332031c-17.304688-29.972656-55.625-40.242187-85.597657-22.9375-29.96875 17.304688-40.238281 55.628907-22.933593 85.597657 17.304687 29.972656 55.628906 40.238281 85.597656 22.9375 29.96875-17.304688 40.238281-55.628907 22.933594-85.597657zm0 0" fill="#60d882"/><path d="m421.554688 96.644531c-6.410157-11.105469-5.246094-24.496093 1.878906-34.210937l-3.113282-5.390625c-11.976562 1.3125-25.199218-6.179688-31.609374-17.28125-6.742188-11.679688-5.109376-25.890625 3.027343-35.691407-3.09375 1.179688-6.132812 2.617188-9.09375 4.324219-29.972656 17.304688-40.238281 55.628907-22.9375 85.601563 17.304688 29.96875 55.628907 40.238281 85.601563 22.933594 2.542968-1.46875 4.941406-3.09375 7.199218-4.847657-12.101562 1.480469-24.476562-4.214843-30.953124-15.4375zm0 0" fill="#37c47a"/><path d="m403.351562 83.511719-14.84375-14.84375c-3.40625-3.40625-3.40625-8.925781 0-12.332031s8.925782-3.410157 12.332032 0l8.675781 8.675781 20.261719-20.265625c3.410156-3.40625 8.929687-3.40625 12.335937 0s3.40625 8.925781 0 12.332031l-26.425781 26.433594c-3.410156 3.40625-8.929688 3.40625-12.335938 0zm0 0" fill="#d6eafc"/><path d="m232.070312 205.710938c-14.90625 8.605468-20.03125 27.730468-11.425781 42.636718s27.730469 20.03125 42.636719 11.425782c14.90625-8.605469 20.03125-27.734376 11.425781-42.636719-8.605469-14.90625-27.734375-20.03125-42.636719-11.425781zm0 0" fill="#1d3ba8"/><path d="m264.527344 249.207031c-1.519532-2.625-1.191406-5.660156.375-7.875l-15.53125-26.898437c-2.753906.253906-5.539063-1.066406-7.011719-3.621094-1.804687-3.125-1-6.828125 1.390625-9.035156-4.003906.5-7.972656 1.792968-11.679688 3.933594-14.90625 8.605468-20.03125 27.730468-11.425781 42.636718s27.730469 20.03125 42.636719 11.425782c3.238281-1.871094 6.011719-4.238282 8.289062-6.949219-2.765624.265625-5.566406-1.054688-7.042968-3.617188zm0 0" fill="#122894"/><path d="m265.179688 222.625c-5.585938-9.671875-17.949219-12.984375-27.621094-7.402344-9.671875 5.585938-12.984375 17.953125-7.402344 27.621094 5.585938 9.671875 17.949219 12.988281 27.621094 7.402344 9.671875-5.582032 12.984375-17.949219 7.402344-27.621094zm0 0" fill="#06daf7"/><path d="m242.191406 235.910156c-4.363281-7.558594-3.277344-16.742187 2.011719-23.070312-2.277344.394531-4.523437 1.167968-6.640625 2.390625-9.671875 5.582031-12.984375 17.949219-7.398438 27.621093 5.582032 9.671876 17.949219 12.984376 27.621094 7.402344 2.117188-1.222656 3.910156-2.785156 5.386719-4.554687-8.121094 1.414062-16.621094-2.234375-20.980469-9.789063zm0 0" fill="#05b8e2"/><path d="m308.046875 205.710938c-14.902344 8.605468-20.027344 27.730468-11.425781 42.636718 8.605468 14.90625 27.734375 20.03125 42.640625 11.425782 14.902343-8.605469 20.027343-27.734376 11.425781-42.636719-8.605469-14.90625-27.734375-20.03125-42.640625-11.425781zm0 0" fill="#1d3ba8"/><path d="m340.503906 249.207031c-1.515625-2.625-1.1875-5.660156.375-7.875l-15.527344-26.898437c-2.757812.253906-5.539062-1.066406-7.015624-3.621094-1.800782-3.125-1-6.828125 1.394531-9.035156-4.003907.5-7.976563 1.792968-11.683594 3.933594-14.90625 8.605468-20.03125 27.730468-11.425781 42.636718 8.605468 14.90625 27.734375 20.03125 42.636718 11.425782 3.238282-1.871094 6.015626-4.238282 8.289063-6.949219-2.765625.265625-5.5625-1.054688-7.042969-3.617188zm0 0" fill="#122894"/><path d="m341.15625 222.625c-5.582031-9.671875-17.949219-12.984375-27.621094-7.402344-9.671875 5.585938-12.984375 17.953125-7.402344 27.621094 5.585938 9.671875 17.953126 12.988281 27.625 7.402344 9.667969-5.582032 12.984376-17.949219 7.398438-27.621094zm0 0" fill="#06daf7"/><path d="m318.167969 235.910156c-4.359375-7.558594-3.273438-16.742187 2.015625-23.070312-2.277344.394531-4.523438 1.167968-6.640625 2.390625-9.671875 5.582031-12.984375 17.949219-7.398438 27.621093 5.582031 9.671876 17.949219 12.984376 27.621094 7.402344 2.117187-1.222656 3.90625-2.785156 5.386719-4.554687-8.121094 1.414062-16.621094-2.234375-20.984375-9.789063zm0 0" fill="#05b8e2"/><path d="m156.082031 276c-14.90625 8.605469-20.03125 27.734375-11.425781 42.640625 8.605469 14.902344 27.734375 20.027344 42.636719 11.421875 14.90625-8.601562 20.03125-27.730469 11.425781-42.636719s-27.730469-20.03125-42.636719-11.425781zm0 0" fill="#1d3ba8"/><path d="m188.539062 319.496094c-1.515624-2.625-1.1875-5.660156.375-7.871094l-15.53125-26.902344c-2.753906.253906-5.535156-1.066406-7.011718-3.621094-1.800782-3.121093-1-6.824218 1.394531-9.035156-4.003906.503906-7.976563 1.792969-11.683594 3.933594-14.90625 8.605469-20.03125 27.734375-11.425781 42.640625 8.605469 14.902344 27.734375 20.03125 42.636719 11.421875 3.238281-1.867188 6.015625-4.234375 8.289062-6.945312-2.765625.265624-5.5625-1.058594-7.042969-3.621094zm0 0" fill="#122894"/><path d="m189.195312 292.914062c-5.585937-9.671874-17.949218-12.984374-27.621093-7.402343-9.671875 5.585937-12.984375 17.953125-7.402344 27.625 5.585937 9.671875 17.949219 12.984375 27.621094 7.398437 9.671875-5.582031 12.984375-17.949218 7.402343-27.621094zm0 0" fill="#06daf7"/><path d="m166.203125 306.199219c-4.363281-7.554688-3.273437-16.742188 2.011719-23.066407-2.273438.394532-4.519532 1.164063-6.636719 2.386719-9.671875 5.585938-12.984375 17.953125-7.402344 27.625 5.582031 9.667969 17.953125 12.984375 27.625 7.402344 2.113281-1.222656 3.90625-2.785156 5.386719-4.554687-8.121094 1.414062-16.621094-2.238282-20.984375-9.792969zm0 0" fill="#05b8e2"/><path d="m232.070312 276c-14.90625 8.605469-20.03125 27.734375-11.425781 42.640625 8.605469 14.902344 27.730469 20.027344 42.636719 11.421875 14.90625-8.601562 20.03125-27.730469 11.425781-42.636719s-27.734375-20.03125-42.636719-11.425781zm0 0" fill="#1d3ba8"/><path d="m264.527344 319.496094c-1.519532-2.625-1.191406-5.660156.375-7.871094l-15.53125-26.902344c-2.753906.253906-5.539063-1.066406-7.011719-3.621094-1.804687-3.121093-1-6.824218 1.390625-9.035156-4.003906.503906-7.972656 1.792969-11.679688 3.933594-14.90625 8.605469-20.03125 27.734375-11.425781 42.640625 8.605469 14.902344 27.730469 20.03125 42.636719 11.421875 3.238281-1.867188 6.011719-4.234375 8.289062-6.945312-2.765624.265624-5.566406-1.058594-7.042968-3.621094zm0 0" fill="#122894"/><path d="m265.179688 292.914062c-5.585938-9.671874-17.949219-12.984374-27.621094-7.398437-9.671875 5.582031-12.984375 17.949219-7.402344 27.621094 5.585938 9.671875 17.949219 12.984375 27.621094 7.398437 9.671875-5.582031 12.984375-17.949218 7.402344-27.621094zm0 0" fill="#06daf7"/><path d="m242.191406 306.199219c-4.363281-7.554688-3.277344-16.742188 2.011719-23.066407-2.277344.394532-4.523437 1.164063-6.640625 2.386719-9.671875 5.585938-12.984375 17.953125-7.398438 27.625 5.582032 9.667969 17.949219 12.984375 27.621094 7.402344 2.117188-1.222656 3.910156-2.785156 5.386719-4.554687-8.121094 1.414062-16.621094-2.238282-20.980469-9.792969zm0 0" fill="#05b8e2"/><path d="m308.046875 276c-14.902344 8.605469-20.027344 27.734375-11.425781 42.640625 8.605468 14.902344 27.734375 20.027344 42.640625 11.421875 14.902343-8.601562 20.027343-27.730469 11.425781-42.636719-8.605469-14.90625-27.734375-20.03125-42.640625-11.425781zm0 0" fill="#1d3ba8"/><path d="m340.503906 319.496094c-1.515625-2.625-1.1875-5.660156.375-7.871094l-15.527344-26.902344c-2.757812.253906-5.539062-1.066406-7.015624-3.621094-1.800782-3.121093-1-6.824218 1.394531-9.035156-4.003907.503906-7.976563 1.792969-11.683594 3.933594-14.90625 8.605469-20.03125 27.734375-11.425781 42.640625 8.605468 14.902344 27.734375 20.03125 42.636718 11.421875 3.238282-1.867188 6.015626-4.234375 8.289063-6.945312-2.765625.265624-5.5625-1.058594-7.042969-3.621094zm0 0" fill="#122894"/><path d="m341.15625 292.914062c-5.582031-9.671874-17.949219-12.984374-27.621094-7.402343-9.671875 5.585937-12.984375 17.953125-7.402344 27.625 5.585938 9.671875 17.953126 12.984375 27.625 7.398437 9.667969-5.582031 12.984376-17.949218 7.398438-27.621094zm0 0" fill="#06daf7"/><path d="m318.167969 306.199219c-4.359375-7.554688-3.273438-16.742188 2.015625-23.066407-2.277344.394532-4.523438 1.164063-6.640625 2.386719-9.671875 5.585938-12.984375 17.953125-7.398438 27.625 5.582031 9.667969 17.949219 12.984375 27.621094 7.402344 2.117187-1.222656 3.90625-2.785156 5.386719-4.554687-8.121094 1.414062-16.621094-2.238282-20.984375-9.792969zm0 0" fill="#05b8e2"/><path d="m156.082031 346.285156c-14.90625 8.605469-20.03125 27.730469-11.425781 42.636719s27.734375 20.03125 42.636719 11.425781c14.90625-8.605468 20.03125-27.734375 11.425781-42.636718-8.605469-14.90625-27.730469-20.03125-42.636719-11.425782zm0 0" fill="#1d3ba8"/><path d="m188.539062 389.78125c-1.515624-2.628906-1.1875-5.660156.375-7.875l-15.53125-26.898438c-2.753906.253907-5.535156-1.066406-7.011718-3.621093-1.800782-3.125-1-6.828125 1.394531-9.035157-4.003906.5-7.976563 1.792969-11.683594 3.933594-14.90625 8.605469-20.03125 27.730469-11.425781 42.636719s27.734375 20.03125 42.636719 11.425781c3.238281-1.871094 6.015625-4.238281 8.289062-6.949218-2.765625.265624-5.5625-1.054688-7.042969-3.617188zm0 0" fill="#122894"/><path d="m189.195312 363.195312c-5.582031-9.671874-17.949218-12.984374-27.621093-7.398437-9.671875 5.582031-12.984375 17.949219-7.402344 27.621094 5.585937 9.671875 17.953125 12.984375 27.621094 7.402343 9.671875-5.585937 12.984375-17.953124 7.402343-27.625zm0 0" fill="#06daf7"/><path d="m166.203125 376.480469c-4.363281-7.554688-3.273437-16.738281 2.011719-23.066407-2.273438.394532-4.519532 1.167969-6.636719 2.390626-9.671875 5.582031-12.984375 17.949218-7.402344 27.621093s17.953125 12.988281 27.625 7.402344c2.113281-1.222656 3.90625-2.78125 5.386719-4.554687-8.121094 1.414062-16.621094-2.234376-20.984375-9.792969zm0 0" fill="#05b8e2"/><path d="m232.070312 346.285156c-14.90625 8.605469-20.03125 27.730469-11.425781 42.636719s27.730469 20.03125 42.636719 11.425781c14.90625-8.605468 20.03125-27.734375 11.425781-42.636718-8.605469-14.90625-27.734375-20.03125-42.636719-11.425782zm0 0" fill="#1d3ba8"/><path d="m264.527344 389.78125c-1.519532-2.628906-1.191406-5.660156.375-7.875l-15.53125-26.898438c-2.753906.253907-5.539063-1.066406-7.011719-3.621093-1.804687-3.125-1-6.828125 1.390625-9.035157-4.003906.5-7.972656 1.792969-11.679688 3.933594-14.90625 8.605469-20.03125 27.730469-11.425781 42.636719s27.730469 20.03125 42.636719 11.425781c3.238281-1.871094 6.011719-4.238281 8.289062-6.949218-2.765624.265624-5.566406-1.054688-7.042968-3.617188zm0 0" fill="#122894"/><path d="m265.179688 363.195312c-5.585938-9.667968-17.949219-12.984374-27.621094-7.398437-9.671875 5.582031-12.984375 17.949219-7.402344 27.621094 5.585938 9.671875 17.949219 12.984375 27.621094 7.402343 9.671875-5.585937 12.984375-17.953124 7.402344-27.625zm0 0" fill="#06daf7"/><path d="m242.191406 376.480469c-4.363281-7.554688-3.277344-16.738281 2.011719-23.066407-2.277344.394532-4.523437 1.167969-6.640625 2.390626-9.671875 5.582031-12.984375 17.949218-7.398438 27.621093 5.582032 9.671875 17.949219 12.988281 27.621094 7.402344 2.117188-1.222656 3.910156-2.78125 5.386719-4.554687-8.121094 1.414062-16.621094-2.234376-20.980469-9.792969zm0 0" fill="#05b8e2"/><path d="m308.046875 346.285156c-14.902344 8.605469-20.027344 27.730469-11.425781 42.636719 8.605468 14.90625 27.734375 20.03125 42.640625 11.425781 14.902343-8.605468 20.027343-27.734375 11.425781-42.636718-8.605469-14.90625-27.734375-20.03125-42.640625-11.425782zm0 0" fill="#1d3ba8"/><path d="m340.503906 389.78125c-1.515625-2.628906-1.1875-5.660156.375-7.875l-15.527344-26.898438c-2.757812.253907-5.539062-1.066406-7.015624-3.621093-1.800782-3.125-1-6.828125 1.394531-9.035157-4.003907.5-7.976563 1.792969-11.683594 3.933594-14.90625 8.605469-20.03125 27.730469-11.425781 42.636719 8.605468 14.90625 27.734375 20.03125 42.636718 11.425781 3.238282-1.871094 6.015626-4.238281 8.289063-6.949218-2.765625.265624-5.5625-1.054688-7.042969-3.617188zm0 0" fill="#122894"/><path d="m341.15625 363.195312c-5.582031-9.671874-17.949219-12.984374-27.621094-7.398437-9.671875 5.582031-12.984375 17.949219-7.402344 27.621094 5.585938 9.671875 17.953126 12.984375 27.625 7.402343 9.671876-5.585937 12.984376-17.953124 7.398438-27.625zm0 0" fill="#06daf7"/><path d="m318.167969 376.480469c-4.359375-7.554688-3.273438-16.738281 2.015625-23.066407-2.277344.394532-4.523438 1.167969-6.640625 2.390626-9.671875 5.582031-12.984375 17.949218-7.398438 27.621093 5.582031 9.671875 17.949219 12.988281 27.621094 7.402344 2.117187-1.222656 3.90625-2.78125 5.386719-4.554687-8.121094 1.414062-16.621094-2.234376-20.984375-9.792969zm0 0" fill="#05b8e2"/><path d="m156.082031 416.566406c-14.90625 8.605469-20.03125 27.734375-11.425781 42.640625 8.605469 14.902344 27.734375 20.027344 42.636719 11.425781 14.90625-8.605468 20.03125-27.734374 11.425781-42.640624-8.605469-14.902344-27.730469-20.027344-42.636719-11.425782zm0 0" fill="#1d3ba8"/><path d="m188.539062 460.0625c-1.515624-2.625-1.1875-5.660156.375-7.871094l-15.53125-26.898437c-2.753906.25-5.535156-1.070313-7.011718-3.621094-1.800782-3.125-1-6.828125 1.394531-9.035156-4.003906.5-7.976563 1.789062-11.683594 3.929687-14.90625 8.605469-20.03125 27.734375-11.425781 42.640625 8.605469 14.902344 27.734375 20.03125 42.636719 11.425781 3.238281-1.871093 6.015625-4.238281 8.289062-6.949218-2.765625.265625-5.5625-1.054688-7.042969-3.621094zm0 0" fill="#122894"/><path d="m189.195312 433.476562c-5.585937-9.671874-17.949218-12.984374-27.621093-7.398437-9.671875 5.582031-12.984375 17.949219-7.402344 27.621094 5.585937 9.671875 17.949219 12.984375 27.621094 7.402343 9.671875-5.585937 12.984375-17.953124 7.402343-27.625zm0 0" fill="#06daf7"/><path d="m166.203125 446.765625c-4.363281-7.554687-3.273437-16.742187 2.011719-23.066406-2.273438.394531-4.519532 1.167969-6.636719 2.386719-9.671875 5.585937-12.984375 17.953124-7.402344 27.625 5.582031 9.671874 17.953125 12.984374 27.625 7.402343 2.113281-1.222656 3.90625-2.785156 5.386719-4.554687-8.121094 1.414062-16.621094-2.238282-20.984375-9.792969zm0 0" fill="#05b8e2"/></svg>