<svg height="512pt" viewBox="0 -1 512.00015 512" width="512pt" xmlns="http://www.w3.org/2000/svg"><path d="m506.457031 317.511719c3.621094-16.753907 5.542969-34.136719 5.542969-51.972657 0-135.3125-109.691406-245-245-245-135.3125 0-245 109.691407-245 245 0 135.308594 109.6875 245 245 245 84.570312 0 159.132812-42.851562 203.160156-108.023437zm0 0" fill="#122894"/><path d="m219.9375 178.226562h55.667969v44.488282h-55.667969zm0 0" fill="#97cbef"/><path d="m219.9375 178.226562h24.859375v44.488282h-24.859375zm0 0" fill="#60b4e2"/><path d="m278.871094 154.433594c-1.722656-15.652344-14.988282-27.832032-31.101563-27.832032s-29.375 12.179688-31.097656 27.832032zm0 0" fill="#e5387f"/><g fill="#55f3ff"><path d="m262.445312 89.472656c0 8.105469-6.570312 14.675782-14.671874 14.675782-8.105469 0-14.675782-6.570313-14.675782-14.675782 0-8.101562 6.570313-14.671875 14.675782-14.671875 8.101562 0 14.671874 6.570313 14.671874 14.671875zm0 0"/><path d="m273.96875 68.9375c-15.605469-10.535156-36.539062-10.707031-52.394531 0-5.417969 3.660156-12.777344 2.234375-16.433594-3.183594-3.660156-5.414062-2.234375-12.773437 3.183594-16.429687 23.648437-15.972657 55.058593-16.097657 78.894531 0 5.417969 3.65625 6.839844 11.015625 3.183594 16.429687-3.675782 5.445313-11.042969 6.828125-16.433594 3.183594zm0 0"/><path d="m297.921875 41.148438c-29.210937-23.273438-71.042969-23.3125-100.300781 0-5.113282 4.074218-12.558594 3.230468-16.632813-1.882813-4.074219-5.109375-3.230469-12.554687 1.882813-16.628906 37.84375-30.15625 91.890625-30.207031 129.800781 0 5.113281 4.074219 5.957031 11.519531 1.882813 16.628906-4.085938 5.128906-11.535157 5.945313-16.632813 1.882813zm0 0"/></g><path d="m299.945312 181.773438h-152.777343c-31.527344 0-61.410157-12.019532-84.15625-33.851563-6.558594-6.292969-6.773438-16.714844-.476563-23.273437 6.296875-6.558594 16.71875-6.773438 23.277344-.476563 16.582031 15.914063 38.371094 24.679687 61.355469 24.679687h152.777343c9.09375 0 16.460938 7.371094 16.460938 16.460938.003906 9.09375-7.367188 16.460938-16.460938 16.460938zm0 0" fill="#f95d95"/><path d="m179.675781 165.3125c0-9.089844 7.367188-16.460938 16.460938-16.460938h-48.96875c-22.984375 0-44.773438-8.765624-61.355469-24.679687-6.558594-6.296875-16.980469-6.085937-23.277344.476563-6.296875 6.558593-6.082031 16.980468.476563 23.273437 22.742187 21.832031 52.628906 33.855469 84.15625 33.855469h48.96875c-9.09375-.003906-16.460938-7.371094-16.460938-16.464844zm0 0" fill="#e5387f"/><path d="m507.394531 312.972656h-103.074219v93.300782h63.238282c19.320312-27.484376 33.128906-59.117188 39.835937-93.300782zm0 0" fill="#406bcc"/><path d="m440.386719 382.792969v-46.339844c0-12.96875 10.511719-23.480469 23.480469-23.480469h-59.546876v93.300782h59.546876c-12.96875 0-23.480469-10.511719-23.480469-23.480469zm0 0" fill="#284cb2"/><path d="m315.375 324.117188c5.945312 10.910156 9.328125 23.414062 9.328125 36.691406 0 12.328125-2.933594 23.980468-8.109375 34.324218h61.105469v-71.015624zm0 0" fill="#97cbef"/><path d="m364.105469 395.132812c-9.414063-3.90625-15.554688-13.820312-14.257813-24.703124.371094-3.136719.566406-6.328126.566406-9.566407 0-3.871093-.277343-7.675781-.804687-11.402343-1.578125-11.117188 4.632813-21.359376 14.265625-25.347657h-48.5c5.945312 10.914063 9.328125 23.414063 9.328125 36.691407 0 12.332031-2.933594 23.984374-8.113281 34.324218h47.515625zm0 0" fill="#60b4e2"/><path d="m198.941406 245.859375v54.855469c13.464844-10.539063 30.40625-16.839844 48.828125-16.839844 18.425781 0 35.367188 6.300781 48.832031 16.839844v-54.855469zm0 0" fill="#97cbef"/><path d="m234.089844 264.777344c0-7.9375 4.113281-14.910156 10.324218-18.917969h-45.472656v54.855469c12.738282-9.972656 28.585938-16.140625 45.855469-16.777344-6.421875-3.960938-10.707031-11.058594-10.707031-19.160156zm0 0" fill="#60b4e2"/><path d="m170.839844 360.808594c0-13.113282 3.199218-25.46875 8.832031-36.363282-27.960937 1.648438-55.328125 9.703126-79.738281 23.570313-15.3125 8.703125-29.25 19.578125-41.402344 32.191406 1.75.382813 3.46875 1.03125 5.09375 2l53.742188 32.03125c1.886718 1.125 3.464843 2.566407 4.730468 4.203125 16.363282-12.546875 36.054688-20.527344 56.847656-22.691406-5.183593-10.542969-8.105468-22.398438-8.105468-34.941406zm0 0" fill="#60b4e2"/><path d="m316.4375 321.148438c-21.898438-37.925782-70.394531-50.921876-108.320312-29.023438-37.929688 21.898438-50.921876 70.394531-29.023438 108.324219 21.894531 37.925781 70.394531 50.917969 108.320312 29.023437 37.925782-21.898437 50.921876-70.398437 29.023438-108.324218zm0 0" fill="#b7dbf6"/><path d="m284.34375 400.1875c-3.820312-6.613281-3.597656-14.429688-.136719-20.652344l-34.539062-59.820312c-7.117188-.113282-14-3.832032-17.816407-10.445313-5.320312-9.210937-2.824218-20.769531 5.402344-27.066406-9.980468 1.332031-19.871094 4.582031-29.132812 9.929687-37.925782 21.898438-50.921875 70.398438-29.023438 108.324219 21.898438 37.929688 70.394532 50.925781 108.324219 29.027344 9.382813-5.417969 17.230469-12.464844 23.410156-20.574219-9.636719 4.207032-21.105469.601563-26.488281-8.722656zm0 0" fill="#97cbef"/><path d="m393.679688 418.660156c-8.824219 0-15.980469-7.152344-15.980469-15.976562v-85.808594c0-8.824219 7.15625-15.976562 15.980469-15.976562 8.824218 0 15.976562 7.152343 15.976562 15.976562v85.808594c0 8.824218-7.152344 15.976562-15.976562 15.976562zm0 0" fill="#5488e2"/><path d="m393.679688 365.660156c-8.824219 0-15.980469-7.152344-15.980469-15.976562v53c0 8.824218 7.15625 15.976562 15.980469 15.976562 8.824218 0 15.976562-7.152344 15.976562-15.976562v-53c0 8.824218-7.152344 15.976562-15.976562 15.976562zm0 0" fill="#406bcc"/><path d="m301.960938 219.167969h-108.378907c-7.980469 0-14.449219 6.46875-14.449219 14.445312v.167969c0 7.980469 6.46875 14.449219 14.449219 14.449219h108.378907c7.980468 0 14.449218-6.46875 14.449218-14.449219v-.167969c0-7.980469-6.46875-14.445312-14.449218-14.445312zm0 0" fill="#d6eafc"/><path d="m227.964844 233.78125v-.167969c0-7.980469 6.464844-14.449219 14.445312-14.449219h-48.828125c-7.980469 0-14.449219 6.46875-14.449219 14.449219v.167969c0 7.976562 6.46875 14.445312 14.449219 14.445312h48.828125c-7.980468 0-14.445312-6.464843-14.445312-14.445312zm0 0" fill="#97cbef"/><path d="m285.082031 339.25c-11.898437-20.609375-38.253906-27.671875-58.863281-15.769531-20.609375 11.898437-27.671875 38.253906-15.773438 58.863281 11.902344 20.613281 38.253907 27.671875 58.867188 15.773438 20.609375-11.898438 27.671875-38.253907 15.769531-58.867188zm0 0" fill="#d6eafc"/><path d="m238.453125 366.1875c-9.039063-15.660156-7.128906-34.625 3.347656-48.058594-5.335937.746094-10.621093 2.5-15.574219 5.359375-20.613281 11.898438-27.675781 38.253907-15.773437 58.867188 11.898437 20.609375 38.253906 27.671875 58.863281 15.773437 4.953125-2.859375 9.117188-6.5625 12.429688-10.8125-16.871094 2.355469-34.253906-5.472656-43.292969-21.128906zm0 0" fill="#b7dbf6"/><path d="m118.550781 411.875-53.742187-32.035156c-8.070313-4.808594-18.503906-2.164063-23.3125 5.902344l-39.097656 65.597656c-4.804688 8.0625-2.164063 18.503906 5.902343 23.308594l53.746094 32.03125c8.066406 4.808593 18.503906 2.167968 23.3125-5.898438l39.09375-65.597656c4.808594-8.066406 2.164063-18.503906-5.902344-23.308594zm0 0" fill="#d6eafc"/><path d="m39.792969 476.1875 41.132812-69.011719c3.300781-5.539062 9.121094-8.625 15.125-8.714843l-31.242187-18.621094c-8.070313-4.808594-18.503906-2.164063-23.3125 5.902344l-39.097656 65.59375c-4.804688 8.066406-2.164063 18.503906 5.902343 23.3125l30.652344 18.269531c-2.417969-5.1875-2.3125-11.441407.839844-16.730469zm0 0" fill="#b7dbf6"/><path d="m244.535156 49.609375c0-5.101563 2.609375-9.59375 6.5625-12.222656-14.910156-.695313-29.976562 3.296875-42.773437 11.9375-5.417969 3.65625-6.84375 11.015625-3.183594 16.429687 3.65625 5.417969 11.015625 6.84375 16.433594 3.1875 8.546875-5.773437 18.566406-8.378906 28.433593-7.910156-3.335937-2.691406-5.472656-6.804688-5.472656-11.421875zm0 0" fill="#06daf7"/><path d="m244.535156 11.949219c0-4.898438 2.410156-9.226563 6.101563-11.8906252-23.9375-.6523438-48.050781 6.8671872-67.765625 22.5742182-5.113282 4.078126-5.957032 11.523438-1.882813 16.632813 4.074219 5.113281 11.519531 5.957031 16.632813 1.882813 15.371094-12.246094 34.210937-18.039063 52.871094-17.414063-3.605469-2.671875-5.957032-6.949219-5.957032-11.785156zm0 0" fill="#06daf7"/></svg>