<svg height="511pt" viewBox="-1 0 511 511.9695" width="511pt" xmlns="http://www.w3.org/2000/svg"><path d="m101.753906 465.386719h287.433594c61.359375-44.523438 101.269531-116.796875 101.269531-198.402344 0-135.304687-109.683593-244.988281-244.984375-244.988281-135.304687 0-244.988281 109.683594-244.988281 244.988281 0 81.605469 39.910156 153.878906 101.269531 198.402344zm0 0" fill="#f9ce00"/><path d="m483.320312 270.691406c-8.230468 0-15.601562-3.65625-20.589843-9.425781-12.878907 38.644531-35.769531 72.757813-65.609375 99.257813 8.644531 5.296874 14.707031 14.394531 15.871094 24.96875 35.621093-30.511719 62.820312-70.472657 77.761718-115.835938-2.363281.671875-4.855468 1.035156-7.433594 1.035156zm0 0" fill="#284cb2"/><path d="m428.925781 325.886719c-9.402343 12.597656-20.0625 24.210937-31.804687 34.636719 8.644531 5.300781 14.707031 14.394531 15.871094 24.96875 14.34375-12.285157 27.316406-26.105469 38.679687-41.191407-12.246094 5.929688-26.011719-5.058593-22.746094-18.414062zm0 0" fill="#122894"/><path d="m381.742188 354.503906c-6.433594 0-12.441407 1.804688-17.546876 4.9375 11.917969 5.183594 20.3125 17.085938 20.3125 30.859375v31.335938c17.277344-1.40625 30.863282-15.867188 30.863282-33.503907-.003906-18.574218-15.058594-33.628906-33.628906-33.628906zm0 0" fill="#406bcc"/><path d="m400.398438 378.710938c5.527343 0 10.617187 1.875 14.675781 5.019531-2.160157-16.492188-16.253907-29.226563-33.332031-29.226563-6.433594 0-12.441407 1.804688-17.546876 4.9375 10.390626 4.519532 18.09375 14.144532 19.902344 25.660156 4.28125-3.960937 10.003906-6.390624 16.300782-6.390624zm0 0" fill="#284cb2"/><path d="m353.042969 354.503906c-8.46875 0-202.945313 0-217.074219 0-18.5 0-33.632812 15.132813-33.632812 33.628906v68.585938h284.335937v-68.585938c0-18.496093-15.132813-33.628906-33.628906-33.628906zm0 0" fill="#f95d95"/><path d="m240.050781 354.503906c-49.230469 0-97.320312 0-104.082031 0-18.5 0-33.632812 15.132813-33.632812 33.628906v68.585938h104.082031v-68.585938c0-18.496093 15.136719-33.628906 33.632812-33.628906zm0 0" fill="#e5387f"/><g fill="#f9ce00"><path d="m397.265625 35.40625c-4.4375-.671875-7.496094-4.808594-6.828125-9.246094l2.023438-13.445312c.671874-4.4375 4.808593-7.488282 9.246093-6.824219 4.4375.667969 7.492188 4.804687 6.824219 9.242187l-2.019531 13.445313c-.667969 4.414063-4.78125 7.496094-9.246094 6.828125zm0 0"/><path d="m429.265625 54.675781c-2.667969-3.609375-1.902344-8.695312 1.707031-11.359375l10.9375-8.078125c3.605469-2.667969 8.699219-1.902343 11.363282 1.710938 2.664062 3.609375 1.898437 8.695312-1.710938 11.363281l-10.9375 8.074219c-3.621094 2.675781-8.707031 1.882812-11.359375-1.710938zm0 0"/><path d="m458.53125 102.199219-13.445312-2.023438c-4.4375-.671875-7.492188-4.808593-6.824219-9.246093s4.804687-7.492188 9.242187-6.824219l13.445313 2.023437c4.4375.667969 7.496093 4.804688 6.828125 9.242188-.664063 4.414062-4.78125 7.496094-9.246094 6.828125zm0 0"/></g><path d="m509.453125 245.644531c0 15.03125-12.183594 27.214844-27.214844 27.214844-15.035156 0-27.21875-12.183594-27.21875-27.214844 0-15.035156 12.183594-27.21875 27.21875-27.21875 15.03125 0 27.214844 12.183594 27.214844 27.21875zm0 0" fill="#5488e2"/><path d="m509.019531 240.8125c-1.8125 8.28125-9.179687 14.484375-18 14.484375-10.183593 0-18.4375-8.253906-18.4375-18.4375 0-8.824219 6.203125-16.1875 14.484375-18-1.566406-.28125-3.179687-.433594-4.828125-.433594-15.03125 0-27.21875 12.183594-27.21875 27.21875 0 15.03125 12.1875 27.214844 27.21875 27.214844s27.21875-12.183594 27.21875-27.214844c-.003906-1.652343-.15625-3.261719-.4375-4.832031zm0 0" fill="#406bcc"/><path d="m407.757812 94.253906c-52.058593-90.164062-167.355468-121.054687-257.519531-68.996094-90.164062 52.058594-121.054687 167.351563-69 257.515626 52.058594 90.167968 167.355469 121.058593 257.519531 69 90.164063-52.058594 121.054688-167.351563 69-257.519532zm0 0" fill="#d6eafc"/><path d="m282.449219 296.464844c-11.566407-20.035156-12.960938-43.136719-5.828125-63.367188-5.253906-.644531-10.160156-3.644531-13.011719-8.585937-3-5.199219-3.023437-11.300781-.601563-16.332031-10.539062.132812-20.839843-5.273438-26.488281-15.050782-5.640625-9.773437-5.175781-21.386718.199219-30.445312-5.558594-.421875-10.820312-3.492188-13.816406-8.679688-2.855469-4.949218-3-10.707031-.921875-15.585937-21.097657-3.929688-40.414063-16.691407-51.984375-36.734375-17.324219-30.003906-11.863282-66.894532 10.988281-90.691406-10.476563 3.761718-20.761719 8.503906-30.738281 14.265624-90.167969 52.058594-121.0625 167.355469-69.003906 257.523438 52.058593 90.164062 167.355468 121.058594 257.523437 69 9.976563-5.757812 19.226563-12.296875 27.722656-19.488281-32.035156 7.890625-66.714843-5.824219-84.039062-35.828125zm0 0" fill="#b7dbf6"/><path d="m292.089844 161.039062c-15.175782-26.285156-48.785156-35.292968-75.070313-20.117187-26.285156 15.175781-35.289062 48.785156-20.113281 75.070313 15.175781 26.285156 48.785156 35.289062 75.070312 20.113281 26.285157-15.175781 35.289063-48.785157 20.113282-75.066407zm0 0" fill="#b7dbf6"/><path d="m276.613281 233.121094c.003907-.007813.007813-.015625.007813-.023438-11.953125-1.46875-18.789063-14.167968-13.613282-24.917968-23.511718.300781-38.304687-25.246094-26.289062-45.492188-11.90625-.910156-19.453125-13.195312-14.738281-24.265625-.015625-.003906-.03125-.007813-.046875-.007813-29.832032 13.472657-41.195313 49.570313-25.023438 77.585938 16.179688 28.019531 53.117188 36.210938 79.703125 17.121094zm0 0" fill="#97cbef"/><path d="m268.070312 174.90625c-7.515624-13.019531-24.164062-17.476562-37.179687-9.960938-13.019531 7.515626-17.480469 24.160157-9.964844 37.179688s24.164063 17.476562 37.179688 9.960938c13.019531-7.515626 17.480469-24.160157 9.964843-37.179688zm0 0" fill="#97cbef"/><path d="m258.113281 212.089844c1.707031-.984375 3.265625-2.132813 4.667969-3.402344.078125-.167969.148438-.339844.226562-.507812-10.539062.136718-20.839843-5.269532-26.488281-15.050782-5.640625-9.769531-5.175781-21.386718.199219-30.441406-.199219-.015625-.398438-.042969-.59375-.066406-1.785156.582031-3.539062 1.351562-5.230469 2.328125-13.019531 7.515625-17.480469 24.160156-9.960937 37.179687 7.515625 13.015625 24.160156 17.476563 37.179687 9.960938zm0 0" fill="#60b4e2"/><path d="m98.863281 463.277344c11.488281 8.59375 23.765625 16.191406 36.6875 22.691406h219.839844c11.886719-5.976562 23.21875-12.894531 33.898437-20.65625l-2.617187-11.84375h-284.335937zm0 0" fill="#e5387f"/><path d="m199.996094 468.09375c0-5.839844 2.585937-11.0625 6.660156-14.625h-104.320312l-3.476563 9.808594c11.492187 8.59375 23.769531 16.191406 36.691406 22.691406h76.238281c-6.933593-2.96875-11.792968-9.855469-11.792968-17.875zm0 0" fill="#d32976"/><path d="m129.296875 482.71875c34.570313 18.65625 74.132813 29.25 116.171875 29.25s81.601562-10.59375 116.175781-29.25zm0 0" fill="#f95d95"/><path d="m206.464844 482.71875h-77.167969c23.597656 12.730469 49.519531 21.707031 76.964844 26.125-10.414063-5.351562-9.820313-21.109375.203125-26.125zm0 0" fill="#e5387f"/><path d="m360.851562 90.292969c-7.976562-3.84375-17.558593-.496094-21.40625 7.480469-3.84375 7.976562-.496093 17.5625 7.480469 21.40625 7.976563 3.847656 17.5625.5 21.40625-7.476563 3.847657-7.976563.496094-17.5625-7.480469-21.410156zm0 0" fill="#f0f9ff"/><path d="m330.234375 121.839844c-4.636719-2.238282-10.210937-.289063-12.445313 4.347656-2.238281 4.640625-.289062 10.210938 4.347657 12.449219 4.640625 2.234375 10.210937.289062 12.449219-4.351563 2.234374-4.636718.289062-10.210937-4.351563-12.445312zm0 0" fill="#f0f9ff"/></svg>