<svg height="512pt" viewBox="-11 0 512 512" width="512pt" xmlns="http://www.w3.org/2000/svg"><path d="m245.003906 512c63.527344 0 121.402344-24.179688 164.9375-63.839844h-329.878906c43.535156 39.660156 101.410156 63.839844 164.941406 63.839844zm0 0" fill="#b2603b"/><path d="m471.996094 359.296875c11.597656-28.488281 18.007812-59.644531 18.007812-92.296875 0-135.3125-109.691406-245.003906-245.003906-245.003906-135.308594 0-245 109.691406-245 245.003906 0 32.65625 6.40625 63.808594 18.003906 92.296875zm0 0" fill="#06daf7"/><path d="m169.191406 448.160156h-89.128906c24.042969 21.90625 52.472656 39.074219 83.804688 50.070313-19.933594-11.871094-15.832032-42.75 5.324218-50.070313zm0 0" fill="#a54f2d"/><path d="m472.128906 36.652344c0-20.160156-16.492187-36.652344-36.652344-36.652344h-380.949218c-20.160156 0-36.652344 16.492188-36.652344 36.652344v322.335937c15.070312 37.167969 38.992188 69.792969 69.15625 95.265625h315.941406c30.167969-25.472656 54.089844-58.097656 69.15625-95.265625zm0 0" fill="#d6eafc"/><path d="m129.714844 418.796875v-380.847656c0-20.960938 16.988281-37.949219 37.945312-37.949219h-113.132812c-20.160156 0-36.652344 16.492188-36.652344 36.652344v322.335937c15.070312 37.167969 38.992188 69.792969 69.15625 95.265625h67.105469c-14.277344-5.449218-24.421875-19.265625-24.421875-35.457031zm0 0" fill="#b7dbf6"/><path d="m379.90625 50.542969c-5.375 0-9.714844-4.394531-9.714844-9.714844 0-4.472656 3.109375-8.566406 7.820313-9.519531 5.863281-1.191406 11.609375 3.289062 11.609375 9.519531-.003906 5.472656-4.476563 9.714844-9.714844 9.714844zm0 0" fill="#f95d95"/><path d="m432.566406 53.941406h-13.511718c-7.246094 0-13.117188-5.871094-13.117188-13.113281s5.871094-13.113281 13.117188-13.113281h13.511718c7.242188 0 13.113282 5.871094 13.113282 13.113281s-5.871094 13.113281-13.113282 13.113281zm0 0" fill="#55f3ff"/><path d="m424.273438 40.828125c0-6.417969 4.613281-11.75 10.703124-12.882813-.785156-.148437-1.585937-.230468-2.410156-.230468h-13.511718c-7.246094 0-13.117188 5.871094-13.117188 13.113281s5.871094 13.113281 13.117188 13.113281h13.511718c.824219 0 1.625-.085937 2.410156-.230468-6.089843-1.132813-10.703124-6.464844-10.703124-12.882813zm0 0" fill="#06daf7"/><path d="m421.167969 125.53125c-56.125-97.207031-180.425781-130.511719-277.632813-74.386719-97.207031 56.125-130.511718 180.425781-74.386718 277.632813 56.125 97.207031 180.425781 130.511718 277.632812 74.386718s130.511719-180.421874 74.386719-277.632812zm0 0" fill="#284cb2"/><path d="m292.996094 357.652344c-10.628906-18.410156-11.410156-39.792969-4.003906-58.082032-6.902344-1.03125-13.292969-5.074218-17.046876-11.574218-3.894531-6.75-4.082031-14.632813-1.203124-21.285156-4.453126-.425782-8.644532-2.910157-11.046876-7.070313-2.261718-3.917969-2.445312-8.46875-.90625-12.382813-9.371093-.453124-18.335937-5.496093-23.363281-14.207031-4.910156-8.503906-4.925781-18.507812-.933593-26.738281-3.871094-.789062-7.40625-3.152344-9.535157-6.839844-2.632812-4.558594-2.445312-9.96875-.011719-14.242187-7.6875-.460938-15.011718-4.640625-19.140624-11.792969-3.734376-6.46875-4.058594-13.980469-1.539063-20.453125-19.5-2.757813-37.582031-14.117187-48.195313-32.496094-15.667968-27.136719-9.960937-60.734375 11.875-81.34375-8.28125 3.410157-16.433593 7.398438-24.402343 12-97.210938 56.125-130.515625 180.429688-74.394531 277.640625 56.125 97.207032 180.425781 130.515625 277.636718 74.390625 7.96875-4.601562 15.5-9.667969 22.597656-15.132812-28.769531 8.605469-60.71875-3.25-76.386718-30.390625zm0 0" fill="#1d3ba8"/><path d="m318.515625 184.800781c-23.390625-40.511719-75.195313-54.394531-115.710937-31-40.511719 23.390625-54.394532 75.195313-31.003907 115.707031 23.390625 40.515626 75.199219 54.394532 115.710938 31.003907 40.515625-23.390625 54.394531-75.195313 31.003906-115.710938zm0 0" fill="#122894"/><path d="m288.964844 299.632812c.007812-.019531.015625-.039062.023437-.0625-6.902343-1.027343-13.292969-5.074218-17.042969-11.574218-3.898437-6.746094-4.085937-14.632813-1.203124-21.285156-4.453126-.425782-8.648438-2.910157-11.050782-7.070313-2.261718-3.917969-2.441406-8.46875-.90625-12.382813-9.367187-.453124-18.332031-5.496093-23.359375-14.207031-4.910156-8.5-4.929687-18.507812-.933593-26.734375-3.875-.792968-7.40625-3.15625-9.535157-6.84375-2.632812-4.554687-2.449219-9.96875-.011719-14.242187-7.6875-.457031-15.011718-4.640625-19.140624-11.792969-3.730469-6.457031-4.058594-13.953125-1.554688-20.417969-.476562.265625-.964844.507813-1.4375.78125-40.515625 23.390625-54.398438 75.199219-31.007812 115.714844 23.390624 40.511719 75.199218 54.394531 115.714843 31.003906.492188-.285156.960938-.59375 1.445313-.886719zm0 0" fill="#012481"/><path d="m289.976562 53.679688c-29.804687.386718-53.519531 25.234374-53.519531 55.046874v74.390626c2.769531-.53125 5.621094-.820313 8.546875-.820313 9.566406 0 18.4375 3.003906 25.742188 8.105469l.242187-.316406c10.835938-14.328126 25.34375-25.304688 41.753907-32.609376 18.972656-8.445312 32.199218-27.453124 32.199218-49.558593 0-30.195313-24.675781-54.632813-54.964844-54.238281zm0 0" fill="#06daf7"/><path d="m283.320312 167.101562c-23.292968 0-42.671874-16.691406-46.863281-38.765624v54.78125c2.769531-.53125 5.621094-.820313 8.546875-.820313 9.5625 0 18.4375 3.003906 25.742188 8.105469l.242187-.316406c7.976563-10.546876 17.949219-19.273438 29.203125-26.0625-5.246094 1.984374-10.929687 3.078124-16.871094 3.078124zm0 0" fill="#05b8e2"/><path d="m93.539062 130.203125c-8.839843 28.46875 7.464844 58.699219 35.8125 67.914063l70.753907 22.988281c.347656-2.800781.953125-5.601563 1.855469-8.382813 2.957031-9.097656 8.558593-16.609375 15.667968-21.976562l-.230468-.332032c-10.277344-14.730468-16.230469-31.921874-18.109376-49.785156-2.167968-20.652344-16.15625-39.105468-37.183593-45.9375-28.714844-9.332031-59.578125 6.585938-68.566407 35.511719zm0 0" fill="#06daf7"/><path d="m199.355469 171.585938c-7.199219 22.152343-29.0625 35.425781-51.351563 32.589843l52.101563 16.929688c.347656-2.800781.953125-5.601563 1.859375-8.382813 2.953125-9.097656 8.554687-16.609375 15.664062-21.976562l-.226562-.332032c-7.566406-10.84375-12.785156-23.027343-15.761719-35.824218.265625 5.601562-.449219 11.34375-2.285156 16.996094zm0 0" fill="#05b8e2"/><path d="m106.894531 342.542969c24.34375 17.207031 58.132813 11.042969 75.65625-13.074219l43.726563-60.183594c-2.554688-1.195312-5.035156-2.640625-7.398438-4.359375-7.738281-5.621093-13.148437-13.269531-16.058594-21.691406l-.382812.117187c-17.1875 5.222657-35.378906 5.574219-52.949219 1.835938-20.308593-4.316406-42.183593 3.285156-55.175781 21.167969-17.75 24.433593-12.152344 58.703125 12.582031 76.1875zm0 0" fill="#06daf7"/><path d="m178.949219 254.695312c18.84375 13.691407 24.710937 38.589844 15.128906 58.910157l32.199219-44.320313c-2.554688-1.195312-5.035156-2.640625-7.398438-4.355468-7.738281-5.625-13.152344-13.273438-16.058594-21.691407l-.382812.113281c-12.65625 3.84375-25.851562 5.042969-38.945312 3.917969 5.410156 1.480469 10.652343 3.933594 15.457031 7.425781zm0 0" fill="#05b8e2"/><path d="m312.183594 393.207031c23.890625-17.832031 28.46875-51.875 10.945312-75.992187l-43.726562-60.183594c-1.925782 2.058594-4.066406 3.972656-6.429688 5.6875-7.738281 5.625-16.683594 8.410156-25.59375 8.570312l-.007812.402344c-.34375 17.960938-5.632813 35.371094-14.613282 50.925782-10.386718 17.980468-9.914062 41.132812 3.082032 59.019531 17.75 24.429687 52.074218 29.691406 76.34375 11.570312zm0 0" fill="#06daf7"/><path d="m250.902344 297.535156c18.84375-13.691406 44.335937-11.578125 60.699218 3.816406l-32.199218-44.320312c-1.925782 2.058594-4.0625 3.972656-6.429688 5.6875-7.738281 5.625-16.683594 8.410156-25.589844 8.570312l-.011718.402344c-.253906 13.222656-3.191406 26.144532-8.308594 38.25 3.082031-4.6875 7.035156-8.914062 11.839844-12.40625zm0 0" fill="#05b8e2"/><path d="m425.285156 216.953125c-9.578125-28.226563-40.539062-43.101563-68.890625-33.890625l-70.75 22.988281c1.363281 2.46875 2.519531 5.09375 3.421875 7.875 2.957032 9.097657 2.839844 18.464844.246094 26.988281l.378906.128907c16.972656 5.878906 31.894532 16.285156 43.914063 29.636719 13.890625 15.433593 36.058593 22.136718 57.082031 15.308593 28.71875-9.332031 44.332031-40.351562 34.597656-69.035156zm0 0" fill="#06daf7"/><path d="m315.355469 245.671875c-7.195313-22.152344 2.691406-45.742187 22.386719-56.550781l-52.097657 16.929687c1.363281 2.46875 2.519531 5.09375 3.421875 7.875 2.957032 9.097657 2.839844 18.464844.242188 26.988281l.378906.128907c12.496094 4.328125 23.875 11.117187 33.808594 19.722656-3.507813-4.375-6.304688-9.441406-8.140625-15.09375zm0 0" fill="#05b8e2"/><path d="m268.664062 267.863281c-22.335937 12.894531-50.996093 5.214844-63.894531-17.121093-12.894531-22.332032-5.214843-50.996094 17.121094-63.890626 22.335937-12.894531 50.996094-5.214843 63.890625 17.121094 12.898438 22.335938 5.21875 50.996094-17.117188 63.890625zm0 0" fill="#284cb2"/><path d="m270.699219 266.617188c-4.394531-.464844-8.519531-2.933594-10.894531-7.042969-2.265626-3.917969-2.445313-8.46875-.90625-12.382813-9.371094-.453125-18.335938-5.496094-23.363282-14.207031-4.910156-8.503906-4.925781-18.507813-.933594-26.738281-3.871093-.789063-7.40625-3.152344-9.535156-6.839844-2.621094-4.542969-2.449218-9.929688-.035156-14.195312-1.058594.507812-2.105469 1.046874-3.140625 1.640624-22.332031 12.894532-30.011719 41.558594-17.117187 63.890626 12.894531 22.335937 41.554687 30.015624 63.890624 17.121093.691407-.398437 1.371094-.816406 2.035157-1.246093zm0 0" fill="#1d3ba8"/><path d="m265.796875 215.511719c-6.53125-11.316407-21.050781-15.207031-32.367187-8.671875-11.3125 6.53125-15.203126 21.050781-8.671876 32.363281 6.53125 11.316406 21.050782 15.207031 32.367188 8.675781 11.316406-6.535156 15.203125-21.054687 8.671875-32.367187zm0 0" fill="#406bcc"/><path d="m257.125 247.878906c.40625-.234375.796875-.480468 1.183594-.734375-9.15625-.628906-17.851563-5.632812-22.777344-14.160156-4.90625-8.503906-4.925781-18.507813-.929688-26.738281-.019531-.003906-.035156-.007813-.054687-.011719-.375.191406-.746094.390625-1.117187.605469-11.316407 6.53125-15.203126 21.050781-8.671876 32.367187 6.53125 11.3125 21.050782 15.203125 32.367188 8.671875zm0 0" fill="#284cb2"/></svg>