<svg height="512pt" viewBox="-9 0 512 512.01682" width="512pt" xmlns="http://www.w3.org/2000/svg"><path d="m353.835938 25.457031-218.203126.273438c-80.402343 40.183593-135.6249995 123.273437-135.6249995 219.269531 0 135.3125 109.6914065 245.003906 244.9999995 245.003906 135.3125 0 245.003907-109.691406 245.003907-245.003906 0-96.214844-55.472657-179.464844-136.175781-219.542969zm0 0" fill="#122894"/><path d="m331.664062 223.644531c-14.050781-9.359375-22.304687-25.285156-22.304687-42.164062v-24.207031h-129.617187v24.214843c0 16.957031-8.394532 32.863281-22.492188 42.285157-42.335938 28.289062-70.175781 76.570312-70.023438 131.34375.238282 87.160156 72.210938 157.980468 159.367188 156.871093 85.949219-1.09375 155.285156-71.105469 155.285156-157.3125 0-54.675781-27.890625-102.832031-70.214844-131.03125zm0 0" fill="#f9ce00"/><g fill="#f4b500"><path d="m87.222656 355.117188c.214844 78.023437 57.914063 142.941406 132.523438 154.902343-34.117188-11.929687-60.507813-76.855469-60.609375-154.902343-.066407-54.773438 12.660156-103.054688 32.007812-131.34375 6.445313-9.421876 10.28125-25.328126 10.28125-42.285157v-24.214843h-21.683593v24.214843c0 16.957031-8.394532 32.863281-22.496094 42.285157-42.332032 28.289062-70.171875 76.570312-70.023438 131.34375zm0 0"/><path d="m292.164062 363.328125c-4.589843 0-8.308593-3.71875-8.308593-8.308594v-76.011719c0-7.65625-3.617188-15.023437-9.675781-19.703124-10.097657-7.804688-16.128907-20.085938-16.128907-32.851563v-69.179687c0-4.589844 3.71875-8.308594 8.308594-8.308594s8.308594 3.71875 8.308594 8.308594v69.179687c0 7.65625 3.617187 15.023437 9.675781 19.703125 10.097656 7.804688 16.128906 20.085938 16.128906 32.851562v76.011719c0 4.589844-3.71875 8.308594-8.308594 8.308594zm0 0"/><path d="m196.9375 363.328125c-4.589844 0-8.308594-3.71875-8.308594-8.308594v-76.011719c0-12.765624 6.027344-25.046874 16.128906-32.851562 6.058594-4.679688 9.675782-12.046875 9.675782-19.703125v-69.179687c0-4.589844 3.71875-8.308594 8.308594-8.308594 4.589843 0 8.308593 3.71875 8.308593 8.308594v69.179687c0 12.765625-6.03125 25.046875-16.128906 32.851563-6.058594 4.679687-9.675781 12.046874-9.675781 19.703124v76.011719c0 4.589844-3.71875 8.308594-8.308594 8.308594zm0 0"/></g><path d="m266.359375 182.511719c4.589844 0 8.308594 3.71875 8.308594 8.308593v-33.546874c0-4.589844-3.71875-8.308594-8.308594-8.308594s-8.308594 3.71875-8.308594 8.308594v33.546874c0-4.589843 3.71875-8.308593 8.308594-8.308593zm0 0" fill="#f29b00"/><path d="m222.742188 148.964844c-4.589844 0-8.3125 3.71875-8.3125 8.308594v33.546874c0-4.589843 3.722656-8.308593 8.3125-8.308593 4.585937 0 8.308593 3.71875 8.308593 8.308593v-33.546874c0-4.589844-3.71875-8.308594-8.308593-8.308594zm0 0" fill="#f29b00"/><path d="m472.828125 360.273438c-32.570313-39.550782-91.039063-45.207032-130.585937-12.636719-39.550782 32.570312-45.207032 91.035156-12.636719 130.585937 32.570312 39.550782 91.035156 45.207032 130.585937 12.636719 39.550782-32.574219 45.207032-91.039063 12.636719-130.585937zm0 0" fill="#06daf7"/><path d="m425.742188 466.164062c-8.238282-10.003906-11.941407-22.25-11.347657-34.246093.511719-10.378907-7.0625-19.574219-17.347656-21.0625-11.886719-1.71875-23.195313-7.695313-31.433594-17.699219-13.882812-16.851562-14.882812-40.070312-4.175781-57.742188-8.578125 4.082032-16.710938 9.550782-24.046875 16.5-33.378906 31.597657-38.5 83.5625-11.828125 120.992188 31.566406 44.289062 93.398438 51.90625 134.652344 17.929688 2.523437-2.078126 4.90625-4.265626 7.152344-6.542969-15.421876.914062-31.050782-5.292969-41.625-18.128907zm0 0" fill="#05b8e2"/><path d="m415.527344 458.882812c0 7.894532-6.398438 14.292969-14.292969 14.292969s-14.292969-6.398437-14.292969-14.292969c0-7.894531 6.398438-14.292968 14.292969-14.292968s14.292969 6.398437 14.292969 14.292968zm0 0" fill="#d6eafc"/><path d="m439.40625 420.148438c-22.933594-15.484376-53.320312-15.542969-76.339844-.003907-5.070312 3.425781-6.40625 10.308594-2.984375 15.382813 3.425781 5.066406 10.308594 6.402344 15.382813 2.980468 15.386718-10.386718 35.972656-10.511718 51.542968 0 5.097657 3.445313 11.976563 2.058594 15.378907-2.980468 3.421875-5.070313 2.089843-11.957032-2.980469-15.378906zm0 0" fill="#d6eafc"/><path d="m464.171875 394.132812c-36.703125-29.242187-89.109375-29.292968-125.871094 0-4.785156 3.8125-5.574219 10.78125-1.761719 15.566407 2.1875 2.746093 5.414063 4.175781 8.671876 4.175781 2.417968 0 4.859374-.789062 6.894531-2.414062 28.671875-22.84375 69.648437-22.796876 98.257812 0 4.785157 3.8125 11.757813 3.023437 15.570313-1.761719 3.8125-4.785157 3.023437-11.753907-1.761719-15.566407zm0 0" fill="#d6eafc"/><path d="m297.792969 355.574219h-31.4375c-4.589844 0-8.308594-3.71875-8.308594-8.308594s3.71875-8.308594 8.308594-8.308594h31.4375c4.589843 0 8.308593 3.71875 8.308593 8.308594s-3.71875 8.308594-8.308593 8.308594zm0 0" fill="#f29b00"/><path d="m222.742188 355.574219h-31.433594c-4.589844 0-8.308594-3.71875-8.308594-8.308594s3.71875-8.308594 8.308594-8.308594h31.433594c4.585937 0 8.308593 3.71875 8.308593 8.308594s-3.71875 8.308594-8.308593 8.308594zm0 0" fill="#f29b00"/><path d="m266.355469 358.34375h-43.613281c-6.117188 0-11.078126-4.960938-11.078126-11.078125s4.960938-11.078125 11.078126-11.078125h43.613281c6.117187 0 11.078125 4.960938 11.078125 11.078125s-4.960938 11.078125-11.078125 11.078125zm0 0" fill="#f4b500"/><path d="m179.742188 97.046875h129.617187v35.070313h-129.617187zm0 0" fill="#97cbef"/><path d="m179.742188 97.046875h51.308593v35.070313h-51.308593zm0 0" fill="#60b4e2"/><path d="m309.359375 159.488281h-129.617187c-8.257813 0-14.953126-6.695312-14.953126-14.953125 0-8.261718 6.695313-14.957031 14.953126-14.957031h129.617187c8.257813 0 14.953125 6.695313 14.953125 14.957031 0 8.257813-6.695312 14.953125-14.953125 14.953125zm0 0" fill="#d6eafc"/><path d="m216.789062 144.535156c0-8.261718 6.695313-14.957031 14.953126-14.957031h-52c-8.257813 0-14.953126 6.695313-14.953126 14.957031 0 8.257813 6.695313 14.953125 14.953126 14.953125h52c-8.257813 0-14.953126-6.695312-14.953126-14.953125zm0 0" fill="#b7dbf6"/><path d="m149.898438 27.695312v56.195313c0 8.675781 7.097656 15.777344 15.773437 15.777344h157.753906c8.679688 0 15.777344-7.101563 15.777344-15.777344v-56.195313c-45.816406 0-143.613281 0-189.304687 0zm0 0" fill="#b7dbf6"/><path d="m214.707031 83.890625v-56.195313c-25.121093 0-48.347656 0-64.808593 0v56.195313c0 8.675781 7.097656 15.773437 15.773437 15.773437h64.808594c-8.675781.003907-15.773438-7.097656-15.773438-15.773437zm0 0" fill="#97cbef"/><path d="m142.816406 29.910156h203.46875c3.636719 0 6.96875-1.300781 9.558594-3.457031-33.28125-16.914063-70.941406-26.453125-110.832031-26.453125-40.113281 0-77.976563 9.640625-111.394531 26.730469 2.539062 1.988281 5.726562 3.179687 9.199218 3.179687zm0 0" fill="#d6eafc"/><path d="m392.492188 383.160156c0-5.019531 3.164062-9.289062 7.601562-10.957031-21.894531.246094-43.730469 7.535156-61.792969 21.929687-4.785156 3.8125-5.574219 10.78125-1.761719 15.566407 2.1875 2.746093 5.414063 4.175781 8.671876 4.175781 2.421874 0 4.859374-.789062 6.898437-2.414062 14.195313-11.316407 31.414063-17.003907 48.652344-17.105469-4.789063-1.46875-8.269531-5.925781-8.269531-11.195313zm0 0" fill="#b7dbf6"/><path d="m392.492188 419.847656c0-5.46875 3.75-10.046875 8.8125-11.335937-13.351563-.015625-26.71875 3.855469-38.238282 11.632812-5.070312 3.421875-6.40625 10.308594-2.980468 15.378907 3.421874 5.070312 10.304687 6.40625 15.378906 2.984374 7.308594-4.933593 15.789062-7.546874 24.347656-7.8125-4.292969-1.734374-7.320312-5.933593-7.320312-10.847656zm0 0" fill="#b7dbf6"/><path d="m289.816406 449.289062c-7.6875-2.6875-16.101562 1.367188-18.789062 9.054688-2.6875 7.691406 1.367187 16.101562 9.054687 18.789062s16.101563-1.367187 18.789063-9.054687-1.367188-16.101563-9.054688-18.789063zm0 0" fill="#fce275"/><path d="m261.601562 432.445312c-4.46875-1.566406-9.359374.792969-10.921874 5.261719-1.5625 4.472657.792968 9.363281 5.265624 10.925781 4.46875 1.5625 9.359376-.792968 10.921876-5.265624 1.5625-4.46875-.792969-9.359376-5.265626-10.921876zm0 0" fill="#fce275"/><path d="m204.078125 14.957031c0-5.066406 2.382813-9.570312 6.082031-12.472656-27.207031 3.875-52.984375 12.199219-76.542968 24.246094 2.539062 1.988281 5.726562 3.179687 9.199218 3.179687h71.867188c-6.171875-2.171875-10.605469-8.039062-10.605469-14.953125zm0 0" fill="#b7dbf6"/></svg>