<svg height="512pt" viewBox="-11 0 512 512.00137" width="512pt" xmlns="http://www.w3.org/2000/svg"><path d="m448.339844 403.71875c26.304687-39.046875 41.664062-86.085938 41.664062-136.710938 0-135.304687-109.6875-244.988281-244.992187-244.988281-135.304688 0-244.9882815 109.683594-244.9882815 244.988281 0 46.09375 12.7343745 89.203126 34.8671875 126.027344zm0 0" fill="#60d882"/><path d="m449.632812 116.480469h-253.949218v74.964843h33.910156c3.238281 0 5.859375 2.625 5.859375 5.863282v314.488281c3.175781.125 6.355469.203125 9.558594.203125 85.523437 0 160.800781-43.832031 204.621093-110.246094zm0 0" fill="#d6eafc"/><path d="m449.632812 116.480469h-253.949218v74.964843h33.910156c3.238281 0 5.859375 2.625 5.859375 5.863282v314.488281c3.175781.125 6.355469.203125 9.558594.203125 85.523437 0 160.800781-43.832031 204.621093-110.246094zm0 0" fill="#d6eafc"/><path d="m267.855469 500.191406v-358.542968c0-12.335938 8.800781-22.710938 20.429687-25.167969h-92.601562v74.964843h33.910156c3.238281 0 5.859375 2.625 5.859375 5.863282v314.488281c3.175781.125 6.355469.203125 9.558594.203125 8.484375 0 16.859375-.4375 25.121093-1.277344-1.457031-3.222656-2.277343-6.785156-2.277343-10.53125zm0 0" fill="#b7dbf6"/><path d="m33.691406 391.003906c41.386719 70.386719 116.921875 118.265625 203.847656 120.875v-154.394531h-203.847656zm0 0" fill="#d6eafc"/><path d="m146.769531 357.484375h-113.078125v33.519531c26.054688 44.304688 65.640625 79.6875 113.078125 100.480469zm0 0" fill="#b7dbf6"/><path d="m231.675781 189.359375h-225.792969c-3.234374 0-5.8593745 2.625-5.8593745 5.863281v37.132813h48.9140625v84.214843h-48.9140625v37.136719c0 3.238281 2.6250005 5.863281 5.8593745 5.863281h231.65625v-164.347656c0-3.238281-2.625-5.863281-5.863281-5.863281zm0 0" fill="#406bcc"/><path d="m48.9375 232.355469v-37.132813c0-3.234375 2.625-5.859375 5.863281-5.859375h-48.917969c-3.234374 0-5.8593745 2.625-5.8593745 5.859375v37.132813zm0 0" fill="#284cb2"/><path d="m48.9375 353.707031v-37.132812h-48.9140625v37.132812c0 3.238281 2.6250005 5.863281 5.8593745 5.863281h48.917969c-3.238281 0-5.863281-2.625-5.863281-5.863281zm0 0" fill="#284cb2"/><path d="m138.3125 487.601562h53.453125v-28.144531h-98.367187c13.84375 10.921875 28.890624 20.378907 44.914062 28.144531zm0 0" fill="#284cb2"/><path d="m135.617188 459.457031h-42.21875c13.058593 10.304688 27.207031 19.285157 42.21875 26.789063zm0 0" fill="#1d3ba8"/><path d="m191.765625 506.179688v-18.578126h-53.449219c16.828125 8.15625 34.738282 14.429688 53.449219 18.578126zm0 0" fill="#406bcc"/><path d="m79.46875 447.59375c4.492188 4.121094 9.136719 8.082031 13.929688 11.863281h98.367187v-28.144531h-112.296875zm0 0" fill="#406bcc"/><path d="m135.617188 431.3125h-56.148438v16.28125c4.492188 4.121094 9.136719 8.082031 13.929688 11.863281h42.21875zm0 0" fill="#284cb2"/><path d="m185.648438 403.167969h-100.066407c-3.375 0-6.113281 2.738281-6.113281 6.113281v22.03125h112.296875v-22.03125c0-3.375-2.738281-6.113281-6.117187-6.113281zm0 0" fill="#284cb2"/><path d="m135.617188 415.167969c0-6.601563 5.398437-12 12-12h-62.035157c-3.375 0-6.113281 2.738281-6.113281 6.113281v22.03125h56.148438zm0 0" fill="#1d3ba8"/><path d="m.0234375 317.578125v-86.230469h52.9765625v86.230469zm0 0" fill="#06daf7"/><path d="m370.476562 477.460938c17.914063-10.699219 34.34375-23.621094 48.914063-38.386719v-7.761719h-48.914063zm0 0" fill="#55f3ff"/><path d="m94.472656 317.578125v-86.230469h54.632813v86.230469zm0 0" fill="#06daf7"/><path d="m189.441406 231.347656h-42.671875v86.234375h42.671875c3.449219 0 6.242188-2.796875 6.242188-6.242187v-73.753906c0-3.445313-2.792969-6.238282-6.242188-6.238282zm0 0" fill="#55f3ff"/><path d="m48.9375 317.578125v-86.230469h48.914062v86.230469zm0 0" fill="#55f3ff"/><path d="m349.738281 246.785156v-86.234375h52.695313v86.234375zm0 0" fill="#55f3ff"/><path d="m335.277344 403.167969h-62.539063c-2.695312 0-4.878906 2.183593-4.878906 4.878906v23.265625h72.300781v-23.265625c0-2.695313-2.1875-4.878906-4.882812-4.878906zm0 0" fill="#284cb2"/><path d="m414.511719 403.167969h-39.15625c-2.695313 0-4.878907 2.183593-4.878907 4.878906v23.265625h48.914063v-23.265625c0-2.695313-2.183594-4.878906-4.878906-4.878906zm0 0" fill="#06daf7"/><path d="m267.855469 510.929688c25.425781-2.351563 49.730469-8.570313 72.304687-18.09375v-61.523438h-72.304687zm0 0" fill="#406bcc"/><path d="m308.886719 403.167969h-36.148438c-2.695312 0-4.878906 2.183593-4.878906 4.878906v23.265625h36.148437v-23.265625c0-2.695313 2.183594-4.878906 4.878907-4.878906zm0 0" fill="#1d3ba8"/><path d="m304.007812 431.3125h-36.152343v79.617188c12.339843-1.140626 24.414062-3.199219 36.152343-6.097657zm0 0" fill="#284cb2"/><g fill="#97cbef"><path d="m237.539062 360.882812c-4.316406 0-7.816406-3.5-7.816406-7.816406v-64.292968c0-4.320313 3.5-7.820313 7.816406-7.820313 4.320313 0 7.820313 3.5 7.820313 7.820313v64.292968c0 4.316406-3.5 7.816406-7.820313 7.816406zm0 0"/><path d="m441.816406 360.882812c-4.320312 0-7.820312-3.5-7.820312-7.816406v-64.292968c0-4.320313 3.5-7.820313 7.820312-7.820313 4.316406 0 7.816406 3.5 7.816406 7.820313v64.292968c0 4.316406-3.5 7.816406-7.816406 7.816406zm0 0"/><path d="m473.828125 360.882812c-4.320313 0-7.820313-3.5-7.820313-7.816406v-64.292968c0-4.320313 3.5-7.820313 7.820313-7.820313 4.316406 0 7.816406 3.5 7.816406 7.820313v64.292968c0 4.316406-3.5 7.816406-7.816406 7.816406zm0 0"/><path d="m406.316406 360.882812c-4.320312 0-7.820312-3.5-7.820312-7.816406v-64.292968c0-4.320313 3.5-7.820313 7.820312-7.820313 4.316406 0 7.816406 3.5 7.816406 7.820313v64.292968c0 4.316406-3.5 7.816406-7.816406 7.816406zm0 0"/><path d="m372.5625 360.882812c-4.320312 0-7.820312-3.5-7.820312-7.816406v-64.292968c0-4.320313 3.5-7.820313 7.820312-7.820313 4.316406 0 7.816406 3.5 7.816406 7.820313v64.292968c0 4.316406-3.5 7.816406-7.816406 7.816406zm0 0"/><path d="m338.804688 360.882812c-4.316407 0-7.816407-3.5-7.816407-7.816406v-64.292968c0-4.320313 3.5-7.820313 7.816407-7.820313 4.320312 0 7.820312 3.5 7.820312 7.820313v64.292968c0 4.316406-3.5 7.816406-7.820312 7.816406zm0 0"/><path d="m305.050781 360.882812c-4.320312 0-7.816406-3.5-7.816406-7.816406v-64.292968c0-4.320313 3.496094-7.820313 7.816406-7.820313 4.316407 0 7.816407 3.5 7.816407 7.820313v64.292968c0 4.316406-3.5 7.816406-7.816407 7.816406zm0 0"/><path d="m271.296875 360.882812c-4.320313 0-7.820313-3.5-7.820313-7.816406v-64.292968c0-4.320313 3.5-7.820313 7.820313-7.820313 4.316406 0 7.816406 3.5 7.816406 7.820313v64.292968c0 4.316406-3.5 7.816406-7.816406 7.816406zm0 0"/></g><path d="m449.964844 118.566406h-254.613282c-7.773437 0-14.074218-6.300781-14.074218-14.074218 0-7.769532 6.300781-14.070313 14.074218-14.070313h254.613282c7.769531 0 14.070312 6.300781 14.070312 14.070313 0 7.773437-6.296875 14.074218-14.070312 14.074218zm0 0" fill="#b7dbf6"/><path d="m271.777344 104.492188c0-7.769532 6.300781-14.070313 14.070312-14.070313h-90.496094c-7.773437 0-14.074218 6.300781-14.074218 14.070313 0 7.773437 6.300781 14.074218 14.074218 14.074218h90.496094c-7.769531 0-14.070312-6.300781-14.070312-14.074218zm0 0" fill="#97cbef"/><path d="m471.394531 373.640625h-233.855469c-7.769531 0-14.070312-6.296875-14.070312-14.070313 0-7.773437 6.300781-14.074218 14.070312-14.074218h233.855469c7.769531 0 14.070313 6.300781 14.070313 14.074218 0 7.773438-6.300782 14.070313-14.070313 14.070313zm0 0" fill="#b7dbf6"/><path d="m478.429688 296.589844h-247.925782c-4.316406 0-7.816406-3.5-7.816406-7.816406 0-4.320313 3.5-7.820313 7.816406-7.820313h247.925782c4.316406 0 7.816406 3.5 7.816406 7.820313 0 4.316406-3.5 7.816406-7.816406 7.816406zm0 0" fill="#b7dbf6"/><path d="m265.234375 359.375c0-7.773438 6.300781-14.074219 14.074219-14.074219h-41.574219c-7.769531 0-14.070313 6.300781-14.070313 14.074219s6.296876 14.070312 14.070313 14.070312h41.574219c-7.773438 0-14.074219-6.300781-14.074219-14.070312zm0 0" fill="#97cbef"/><path d="m264.453125 288.578125c0-4.320313 3.5-7.820313 7.816406-7.820313h-41.570312c-4.316407 0-7.816407 3.5-7.816407 7.820313 0 4.316406 3.5 7.816406 7.816407 7.816406h41.570312c-4.316406 0-7.816406-3.5-7.816406-7.816406zm0 0" fill="#97cbef"/><path d="m236.753906 63.453125c-35.035156-60.679687-112.621094-81.46875-173.300781-46.433594-60.675781 35.03125-81.464844 112.621094-46.433594 173.296875 18.03125 31.234375 47.339844 51.898438 79.8125 59.820313h60.222657c11.394531-2.796875 22.589843-7.222657 33.261718-13.382813 60.679688-35.035156 81.46875-112.621094 46.4375-173.300781zm0 0" fill="#f95d95"/><path d="m157.027344 250.136719c10.917968-2.675781 21.652344-6.851563 31.917968-12.613281-10.378906-.472657-20.300781-6.050782-25.882812-15.714844-8.445312-14.628906-5.796875-36.644532 8.273438-45.671875l-66.25-114.742188c-14.851563 7.671875-33.261719 2.382813-41.707032-12.25-6.011718-10.410156-5.402344-22.828125.523438-32.378906-.148438.085937-.300782.167969-.449219.253906-60.675781 35.03125-81.464844 112.621094-46.433594 173.296875 18.039063 31.246094 47.363281 51.90625 79.847657 59.820313zm0 0" fill="#e5387f"/><path d="m112.8125 190.558594v38.171875h28.144531v-38.171875c-4.558593.882812-9.257812 1.359375-14.070312 1.359375-4.8125.003906-9.515625-.476563-14.074219-1.359375zm0 0" fill="#97cbef"/><path d="m162.085938 239.675781c0-7.769531-6.300782-14.070312-14.074219-14.070312h-42.253907c-7.769531 0-14.070312 6.300781-14.070312 14.070312 0 4.09375 1.753906 7.765625 4.542969 10.335938 9.816406 2.4375 20.082031 3.738281 30.65625 3.738281 10.570312 0 20.835937-1.300781 30.65625-3.738281 2.785156-2.570313 4.542969-6.242188 4.542969-10.335938zm0 0" fill="#d6eafc"/><path d="m167.652344 182.789062c-33.996094 22.476563-79.933594 13.109376-102.414063-20.882812-22.476562-33.992188-13.109375-79.933594 20.882813-102.414062 33.992187-22.476563 79.933594-13.109376 102.410156 20.882812 22.480469 33.992188 13.109375 79.933594-20.878906 102.414062zm0 0" fill="#d6eafc"/><path d="m147.925781 178.800781c-3.414062-5.164062-3.492187-11.558593-.761719-16.65625-5.910156.324219-11.832031-2.390625-15.332031-7.683593-4.925781-7.449219-3.304687-17.324219 3.480469-22.84375l-14.746094-22.300782c-7.734375 4.078125-17.453125 1.703125-22.375-5.746094-3.503906-5.292968-3.679687-11.808593-1.066406-17.117187-5.761719.519531-11.613281-2.058594-15.027344-7.222656-3.277344-4.957031-3.46875-11.042969-1.058594-16.03125-29.78125 23.53125-37.109374 66.480469-15.800781 98.707031 21.292969 32.199219 63.640625 42.285156 96.941407 24.148438-5.507813.234374-10.992188-2.324219-14.253907-7.253907zm0 0" fill="#b7dbf6"/><path d="m101.644531 82.96875c-21.046875 13.917969-26.847656 42.367188-12.929687 63.414062 13.917968 21.046876 42.363281 26.847657 63.410156 12.929688 21.046875-13.921875 26.847656-42.367188 12.929688-63.414062-13.917969-21.046876-42.363282-26.847657-63.410157-12.929688zm0 0" fill="#406bcc"/><path d="m147.164062 162.144531c-5.910156.328125-11.832031-2.386719-15.332031-7.679687-4.925781-7.453125-3.304687-17.328125 3.480469-22.847656l-14.746094-22.300782c-7.734375 4.078125-17.453125 1.703125-22.375-5.746094-3.503906-5.292968-3.679687-11.804687-1.066406-17.117187-.023438.003906-.050781.003906-.078125.003906-17.21875 14.796875-21.175781 40.503907-8.332031 59.925781 12.851562 19.433594 38.082031 25.851563 58.445312 15.769532.003906 0 .003906-.003906.003906-.007813zm0 0" fill="#284cb2"/><path d="m141.132812 121.140625c0 7.867187-6.378906 14.246094-14.246093 14.246094-7.867188 0-14.246094-6.378907-14.246094-14.246094s6.378906-14.246094 14.246094-14.246094c7.867187 0 14.246093 6.378907 14.246093 14.246094zm0 0" fill="#06daf7"/><path d="m122.308594 240.933594c0-6.867188 4.152344-12.761719 10.078125-15.328125h-26.628907c-7.769531 0-14.070312 6.300781-14.070312 14.074219 0 4.089843 1.753906 7.761718 4.542969 10.332031 9.816406 2.4375 20.082031 3.738281 30.65625 3.738281.46875 0 .933593-.015625 1.398437-.019531-3.652344-3.066407-5.976562-7.65625-5.976562-12.796875zm0 0" fill="#b7dbf6"/><path d="m400.71875 246.785156v-86.234375h48.914062v86.234375zm0 0" fill="#06daf7"/><path d="m309.128906 160.554688h42.675782v86.230468h-42.675782c-3.445312 0-6.242187-2.792968-6.242187-6.238281v-73.753906c0-3.445313 2.792969-6.238281 6.242187-6.238281zm0 0" fill="#06daf7"/></svg>