<svg height="512pt" viewBox="0 -11 512 512" width="512pt" xmlns="http://www.w3.org/2000/svg"><path d="m256 0c-135.308594 0-245 109.691406-245 245 0 124.164062 92.363281 226.738281 212.128906 242.800781l68.085938-.328125c118.625-17.078125 209.785156-119.121094 209.785156-242.472656 0-135.308594-109.691406-245-245-245zm0 0" fill="#ef4a8a"/><path d="m216.59375 486.832031c12.832031 2.074219 25.988281 3.171875 39.40625 3.171875 14.238281 0 28.191406-1.230468 41.765625-3.5625v-137.707031h-81.175781v138.097656zm0 0" fill="#d6eafc"/><path d="m236.402344 419.140625h41.550781c8.613281 0 16.078125 4.875 19.8125 12.007813v-82.414063h-81.175781v82.414063c3.734375-7.132813 11.199218-12.007813 19.8125-12.007813zm0 0" fill="#b7dbf6"/><path d="m266.214844 393.421875v96.351563c10.707031-.4375 21.238281-1.5625 31.550781-3.332032v-102.207031h-22.367187c-5.074219 0-9.183594 4.113281-9.183594 9.1875zm0 0" fill="#b7dbf6"/><path d="m275.398438 384.234375c-5.074219 0-9.183594 4.113281-9.183594 9.1875v25.71875h11.738281c8.613281 0 16.082031 4.875 19.8125 12.007813v-46.914063zm0 0" fill="#97cbef"/><path d="m186.65625 309.835938v22.121093c0 10.523438 8.613281 19.136719 19.136719 19.136719h100.414062c10.523438 0 19.136719-8.613281 19.136719-19.136719v-22.121093zm0 0" fill="#1d3ba8"/><path d="m228.421875 331.957031v-22.121093h-41.765625v22.121093c0 10.523438 8.613281 19.136719 19.136719 19.136719h41.765625c-10.523438 0-19.136719-8.613281-19.136719-19.136719zm0 0" fill="#122894"/><path d="m337.84375 312.195312h-163.6875c-29.597656 0-53.816406-24.21875-53.816406-53.816406v-130.054687c0-29.597657 24.21875-53.8125 53.816406-53.8125h163.6875c29.597656 0 53.816406 24.214843 53.816406 53.8125v130.054687c0 29.597656-24.21875 53.816406-53.816406 53.816406zm0 0" fill="#284cb2"/><path d="m215.5 293.636719c0-10.789063 8.695312-19.535157 19.460938-19.640625v-160.992188c-10.765626-.101562-19.460938-8.851562-19.460938-19.636718 0-8.945313 5.984375-16.480469 14.160156-18.855469h-55.503906c-29.597656 0-53.816406 24.214843-53.816406 53.8125v130.054687c0 29.597656 24.21875 53.8125 53.816406 53.8125h54.578125c-7.695313-2.660156-13.234375-9.953125-13.234375-18.554687zm0 0" fill="#1d3ba8"/><path d="m291.074219 83.351562c-4.882813 0-8.84375-3.957031-8.84375-8.839843 0-14.464844-11.765625-26.234375-26.230469-26.234375s-26.234375 11.769531-26.234375 26.234375c0 4.882812-3.957031 8.839843-8.839844 8.839843-4.882812 0-8.839843-3.957031-8.839843-8.839843 0-24.214844 19.699218-43.914063 43.910156-43.914063 24.214844 0 43.914062 19.699219 43.914062 43.914063.003906 4.882812-3.953125 8.839843-8.835937 8.839843zm0 0" fill="#d6eafc"/><path d="m72.332031 294.636719h-31.664062c-4.882813 0-8.84375-3.957031-8.84375-8.839844s3.960937-8.84375 8.84375-8.84375h22.824219v-31.09375c0-4.882813 3.957031-8.839844 8.839843-8.839844h48.007813c4.882812 0 8.84375 3.957031 8.84375 8.839844s-3.960938 8.839844-8.84375 8.839844h-39.167969v31.097656c0 4.882813-3.957031 8.839844-8.839844 8.839844zm0 0" fill="#a6ffff"/><path d="m471.332031 294.636719h-31.664062c-4.882813 0-8.839844-3.957031-8.839844-8.839844v-31.097656h-39.171875c-4.882812 0-8.839844-3.957031-8.839844-8.839844s3.957032-8.839844 8.839844-8.839844h48.011719c4.882812 0 8.839843 3.957031 8.839843 8.839844v31.097656h22.824219c4.882813 0 8.84375 3.957031 8.84375 8.839844s-3.960937 8.839844-8.84375 8.839844zm0 0" fill="#a6ffff"/><path d="m120.339844 149.683594h-48.007813c-4.882812 0-8.839843-3.957032-8.839843-8.839844v-31.097656h-22.824219c-4.882813 0-8.84375-3.957032-8.84375-8.839844s3.960937-8.839844 8.84375-8.839844h31.664062c4.882813 0 8.839844 3.957032 8.839844 8.839844v31.097656h39.167969c4.882812 0 8.84375 3.957032 8.84375 8.839844-.003906 4.882812-3.960938 8.839844-8.84375 8.839844zm0 0" fill="#a6ffff"/><path d="m439.667969 149.683594h-48.011719c-4.882812 0-8.839844-3.957032-8.839844-8.839844s3.957032-8.839844 8.839844-8.839844h39.171875v-31.097656c0-4.882812 3.957031-8.839844 8.839844-8.839844h31.664062c4.882813 0 8.84375 3.957032 8.84375 8.839844s-3.957031 8.839844-8.84375 8.839844h-22.824219v31.097656c0 4.882812-3.957031 8.839844-8.839843 8.839844zm0 0" fill="#a6ffff"/><path d="m471.332031 219.695312h-79.675781c-4.882812 0-8.839844-3.957031-8.839844-8.839843 0-4.882813 3.957032-8.84375 8.839844-8.84375h79.675781c4.882813 0 8.84375 3.960937 8.84375 8.84375 0 4.882812-3.960937 8.839843-8.84375 8.839843zm0 0" fill="#a6ffff"/><path d="m471.332031 184.6875h-79.675781c-4.882812 0-8.839844-3.957031-8.839844-8.839844 0-4.882812 3.957032-8.839844 8.839844-8.839844h75.765625l29.195313-32.113281c3.285156-3.613281 8.875-3.878906 12.488281-.59375 3.613281 3.285157 3.878906 8.875.59375 12.488281l-31.824219 35.007813c-1.675781 1.839844-4.050781 2.890625-6.542969 2.890625zm0 0" fill="#a6ffff"/><path d="m415.582031 245.859375c0-4.882813 3.957031-8.839844 8.839844-8.839844h-32.765625c-4.882812 0-8.839844 3.957031-8.839844 8.839844s3.957032 8.839844 8.839844 8.839844h32.765625c-4.882813 0-8.839844-3.957031-8.839844-8.839844zm0 0" fill="#55f3ff"/><path d="m415.582031 140.84375c0-4.882812 3.957031-8.839844 8.839844-8.839844h-32.765625c-4.882812 0-8.839844 3.957032-8.839844 8.839844s3.957032 8.839844 8.839844 8.839844h32.765625c-4.882813 0-8.839844-3.957032-8.839844-8.839844zm0 0" fill="#55f3ff"/><path d="m415.582031 210.855469c0-4.882813 3.957031-8.839844 8.839844-8.839844h-32.765625c-4.882812 0-8.839844 3.957031-8.839844 8.839844 0 4.882812 3.957032 8.839843 8.839844 8.839843h32.765625c-4.882813 0-8.839844-3.957031-8.839844-8.839843zm0 0" fill="#55f3ff"/><path d="m415.582031 175.847656c0-4.882812 3.957031-8.839844 8.839844-8.839844h-32.765625c-4.882812 0-8.839844 3.960938-8.839844 8.839844 0 4.882813 3.957032 8.84375 8.839844 8.84375h32.765625c-4.882813-.003906-8.839844-3.960937-8.839844-8.84375zm0 0" fill="#55f3ff"/><path d="m8.839844 254.699219c-2.125 0-4.25-.757813-5.945313-2.296875-3.613281-3.285156-3.878906-8.875-.59375-12.488282l31.824219-35.007812c1.675781-1.839844 4.050781-2.890625 6.542969-2.890625h79.675781c4.882812 0 8.839844 3.957031 8.839844 8.839844 0 4.882812-3.957032 8.839843-8.839844 8.839843h-75.765625l-29.195313 32.113282c-1.746093 1.917968-4.140624 2.890625-6.542968 2.890625zm0 0" fill="#a6ffff"/><path d="m120.339844 184.6875h-79.671875c-4.882813 0-8.84375-3.957031-8.84375-8.839844 0-4.882812 3.960937-8.839844 8.84375-8.839844h79.671875c4.882812 0 8.84375 3.957032 8.84375 8.839844-.003906 4.882813-3.960938 8.839844-8.84375 8.839844zm0 0" fill="#a6ffff"/><g fill="#55f3ff"><path d="m86.546875 245.859375c0-4.882813 3.957031-8.839844 8.839844-8.839844h-23.054688c-4.882812 0-8.839843 3.957031-8.839843 8.839844v31.097656h-22.824219c-4.882813 0-8.84375 3.957031-8.84375 8.839844s3.960937 8.839844 8.84375 8.839844h31.664062c4.882813 0 8.839844-3.957031 8.839844-8.839844v-31.097656h14.214844c-4.882813 0-8.839844-3.957031-8.839844-8.839844zm0 0"/><path d="m86.546875 140.84375c0-4.882812 3.957031-8.839844 8.839844-8.839844h-14.214844v-31.097656c0-4.882812-3.957031-8.839844-8.839844-8.839844h-31.664062c-4.882813 0-8.84375 3.957032-8.84375 8.839844s3.960937 8.839844 8.84375 8.839844h22.824219v31.097656c0 4.882812 3.957031 8.839844 8.839843 8.839844h23.054688c-4.882813 0-8.839844-3.957032-8.839844-8.839844zm0 0"/><path d="m86.546875 210.855469c0-4.882813 3.957031-8.839844 8.839844-8.839844h-54.71875c-2.492188 0-4.867188 1.050781-6.542969 2.890625l-31.824219 35.007812c-3.285156 3.613282-3.019531 9.203126.59375 12.488282 1.691407 1.539062 3.820313 2.296875 5.945313 2.296875 2.402344 0 4.796875-.972657 6.542968-2.890625l29.195313-32.113282h50.808594c-4.882813 0-8.839844-3.957031-8.839844-8.839843zm0 0"/><path d="m86.546875 175.847656c0-4.882812 3.957031-8.839844 8.839844-8.839844h-54.71875c-4.882813 0-8.84375 3.960938-8.84375 8.839844 0 4.882813 3.960937 8.84375 8.84375 8.84375h54.71875c-4.882813-.003906-8.839844-3.960937-8.839844-8.84375zm0 0"/><path d="m24.753906 125.660156c-13.648437 0-24.753906-11.105468-24.753906-24.753906s11.105469-24.753906 24.753906-24.753906c13.648438 0 24.753906 11.105468 24.753906 24.753906s-11.105468 24.753906-24.753906 24.753906zm0-31.824218c-3.898437 0-7.074218 3.171874-7.074218 7.070312 0 3.902344 3.175781 7.074219 7.074218 7.074219 3.898438 0 7.074219-3.171875 7.074219-7.074219 0-3.898438-3.175781-7.070312-7.074219-7.070312zm0 0"/><path d="m24.753906 310.550781c-13.648437 0-24.753906-11.105469-24.753906-24.753906s11.105469-24.753906 24.753906-24.753906c13.648438 0 24.753906 11.105469 24.753906 24.753906s-11.105468 24.753906-24.753906 24.753906zm0-31.828125c-3.898437 0-7.074218 3.171875-7.074218 7.074219 0 3.898437 3.175781 7.070313 7.074218 7.070313 3.898438 0 7.074219-3.171876 7.074219-7.070313 0-3.902344-3.175781-7.074219-7.074219-7.074219zm0 0"/><path d="m487.246094 125.660156c-13.648438 0-24.753906-11.105468-24.753906-24.753906s11.105468-24.753906 24.753906-24.753906c13.648437 0 24.753906 11.105468 24.753906 24.753906s-11.105469 24.753906-24.753906 24.753906zm0-31.824218c-3.898438 0-7.074219 3.171874-7.074219 7.070312 0 3.902344 3.175781 7.074219 7.074219 7.074219 3.898437 0 7.070312-3.171875 7.070312-7.074219 0-3.898438-3.171875-7.070312-7.070312-7.070312zm0 0"/><path d="m487.246094 310.550781c-13.648438 0-24.753906-11.105469-24.753906-24.753906s11.105468-24.753906 24.753906-24.753906c13.648437 0 24.753906 11.105469 24.753906 24.753906s-11.105469 24.753906-24.753906 24.753906zm0-31.828125c-3.898438 0-7.074219 3.171875-7.074219 7.074219 0 3.898437 3.175781 7.070313 7.074219 7.070313 3.898437 0 7.070312-3.171876 7.070312-7.070313 0-3.902344-3.171875-7.074219-7.070312-7.074219zm0 0"/></g><path d="m309.617188 274.480469h-107.234376c-15.171874 0-27.511718-12.339844-27.511718-27.511719v-107.234375c0-15.171875 12.34375-27.511719 27.511718-27.511719h107.234376c15.167968 0 27.511718 12.339844 27.511718 27.511719v107.234375c0 15.171875-12.339844 27.511719-27.511718 27.511719zm0 0" fill="#06daf7"/><path d="m218.851562 126.121094c0-7.132813 5.324219-13.007813 12.214844-13.898438h-28.683594c-15.167968 0-27.511718 12.339844-27.511718 27.511719v107.234375c0 15.171875 12.339844 27.511719 27.511718 27.511719h28.683594c-6.890625-.890625-12.214844-6.765625-12.214844-13.898438 0-7.75 6.28125-14.03125 14.03125-14.03125v-106.398437c-7.75 0-14.03125-6.28125-14.03125-14.03125zm0 0" fill="#05b8e2"/><path d="m202.800781 140.152344h106.398438v106.398437h-106.398438zm0 0" fill="#05b8e2"/><path d="m202.800781 140.152344h30.082031v106.398437h-30.082031zm0 0" fill="#07a3d3"/><path d="m288.605469 193.351562c0 18.007813-14.597657 32.605469-32.605469 32.605469s-32.609375-14.597656-32.609375-32.605469c0-18.007812 14.601563-32.609374 32.609375-32.609374s32.605469 14.601562 32.605469 32.609374zm0 0" fill="#d6eafc"/><path d="m248.511719 210.5c0-4.460938 1.714843-8.511719 4.507812-11.5625v-11.171875c-2.792969-3.050781-4.507812-7.101563-4.507812-11.5625 0-6.761719 3.921875-12.589844 9.605469-15.382813-.703126-.046874-1.40625-.078124-2.117188-.078124-18.007812 0-32.609375 14.601562-32.609375 32.609374 0 18.007813 14.597656 32.605469 32.609375 32.605469.710938 0 1.414062-.03125 2.113281-.074219-5.679687-2.792968-9.601562-8.621093-9.601562-15.382812zm0 0" fill="#b7dbf6"/><path d="m288.605469 201.109375h-65.210938c-4.285156 0-7.757812-3.472656-7.757812-7.757813 0-4.285156 3.472656-7.757812 7.757812-7.757812h65.210938c4.285156 0 7.757812 3.472656 7.757812 7.757812 0 4.285157-3.472656 7.757813-7.757812 7.757813zm0 0" fill="#b7dbf6"/><path d="m243.597656 193.351562c0-4.285156 3.472656-7.757812 7.757813-7.757812h-27.960938c-4.285156 0-7.757812 3.472656-7.757812 7.757812 0 4.285157 3.472656 7.757813 7.757812 7.757813h27.960938c-4.285157 0-7.757813-3.472656-7.757813-7.757813zm0 0" fill="#97cbef"/><path d="m260.6875 30.847656c-26.144531-2.78125-48.601562 17.792969-48.601562 43.664063 0 4.882812 3.957031 8.839843 8.839843 8.839843 4.882813 0 8.839844-3.960937 8.839844-8.839843 0-14.941407 12.535156-26.9375 27.523437-26.203125-6.929687-4.847656-4.792968-15.585938 3.398438-17.460938zm0 0" fill="#b7dbf6"/></svg>