<svg height="512pt" viewBox="-5 0 512 512" width="512pt" xmlns="http://www.w3.org/2000/svg"><path d="m424.492188 411.738281c40.640624-43.734375 65.511718-102.328125 65.511718-166.738281 0-135.308594-109.691406-245-245-245-135.3125 0-245.003906 109.691406-245.003906 245 0 64.410156 24.871094 123.003906 65.511719 166.738281zm0 0" fill="#f9ce00"/><path d="m242.363281 407.933594v-209.75l-132.972656-132.972656-88.273437 80.160156c-37.484376 84.109375-25.800782 187.679687 40.9375 262.5625zm0 0" fill="#d6eafc"/><path d="m65.511719 411.738281c44.738281 48.136719 108.589843 78.265625 179.492187 78.265625 70.898438 0 134.75-30.128906 179.488282-78.265625zm0 0" fill="#b2603b"/><path d="m184.136719 411.738281h-118.625c29.0625 31.269531 66.199219 54.929688 108.085937 67.675781-37.53125-11.957031-29.195312-67.675781 10.539063-67.675781zm0 0" fill="#a54f2d"/><path d="m251.351562 201.875v-.019531c-3.734374-.09375-7.441406-1.554688-10.296874-4.40625l-4.210938-4.214844v205.628906h220.386719v-196.988281zm0 0" fill="#b7dbf6"/><path d="m52.550781 143.648438c0-11.421876 4.027344-21.949219 10.71875-30.242188l-48.96875 48.96875c-9.25 25.816406-14.300781 53.628906-14.300781 82.625 0 57.242188 19.65625 109.878906 52.550781 151.585938zm0 0" fill="#b7dbf6"/><path d="m460.832031 69.890625h-311.308593l107.359374 110.71875h212.457032v-102.210937c0-4.699219-3.808594-8.507813-8.507813-8.507813zm0 0" fill="#e5387f"/><path d="m303.742188 69.890625h-154.21875l107.359374 110.71875c-40.148437-41.402344-10.808593-110.71875 46.859376-110.71875zm0 0" fill="#d32976"/><path d="m120.824219 37.839844c-.910157-.914063-1.917969-1.667969-2.980469-2.300782-49.09375 29.871094-86.847656 76.515626-105.324219 131.972657l97.621094-97.621094 133.15625 133.15625c5.898437 5.902344 15.46875 5.898437 21.367187 0 5.902344-5.902344 5.902344-15.46875 0-21.371094zm0 0" fill="#fe99b8"/><path d="m152.800781 69.8125-31.976562-31.972656c-.910157-.914063-1.917969-1.667969-2.980469-2.300782-49.09375 29.871094-86.847656 76.515626-105.324219 131.972657l97.621094-97.621094 21.921875 21.921875c-6.5625-13.386719 7.066406-27.726562 20.738281-22zm0 0" fill="#fc7ba7"/><path d="m464.957031 177.25h-204.71875l4.425781 4.425781c5.902344 5.902344 5.902344 15.46875 0 21.371094-3.046874 3.050781-7.078124 4.507813-11.074218 4.40625v.019531h211.367187c8.347657 0 15.109375-6.765625 15.109375-15.113281 0-8.34375-6.765625-15.109375-15.109375-15.109375zm0 0" fill="#f95d95"/><path d="m203.546875 368.644531h-83.664063c-4.128906 0-7.476562 3.347657-7.476562 7.476563v22.746094h98.613281v-22.746094c0-4.128906-3.34375-7.476563-7.472656-7.476563zm0 0" fill="#b7dbf6"/><path d="m203.546875 368.644531h-83.664063c-4.128906 0-7.476562 3.347657-7.476562 7.476563v22.746094h98.613281v-22.746094c0-4.128906-3.34375-7.476563-7.472656-7.476563zm0 0" fill="#b7dbf6"/><path d="m162.355469 368.644531h-42.472657c-4.128906 0-7.476562 3.347657-7.476562 7.476563v22.746094h42.472656v-22.746094c.003906-4.128906 3.347656-7.476563 7.476563-7.476563zm0 0" fill="#97cbef"/><path d="m195.292969 247.757812h-67.15625c-2.894531 0-5.242188 2.347657-5.242188 5.238282v24.984375h77.640625v-24.984375c0-2.890625-2.347656-5.238282-5.242187-5.238282zm0 0" fill="#284cb2"/><path d="m166.953125 247.757812h-38.816406c-2.894531 0-5.242188 2.347657-5.242188 5.238282v24.984375h38.820313v-24.984375c0-2.890625 2.34375-5.238282 5.238281-5.238282zm0 0" fill="#1d3ba8"/><path d="m82.304688 247.757812h-57.316407c-2.894531 0-5.238281 2.347657-5.238281 5.238282v24.984375h67.796875v-24.984375c0-2.890625-2.347656-5.238282-5.242187-5.238282zm0 0" fill="#06daf7"/><path d="m58.886719 247.757812h-33.898438c-2.894531 0-5.238281 2.347657-5.238281 5.238282v24.984375h33.898438v-24.984375c0-2.890625 2.34375-5.238282 5.238281-5.238282zm0 0" fill="#05b8e2"/><path d="m125.25 163.304688v-22.316407c0-2.183593-1.769531-3.953125-3.949219-3.953125h-22.320312c-2.179688 0-3.949219 1.769532-3.949219 3.953125v22.316407c0 2.183593 1.769531 3.953124 3.949219 3.953124h22.320312c2.179688 0 3.949219-1.769531 3.949219-3.953124zm0 0" fill="#f9ce00"/><path d="m110.140625 163.304688v-22.316407c0-2.183593 1.769531-3.953125 3.953125-3.953125h-15.113281c-2.179688 0-3.949219 1.769532-3.949219 3.953125v22.316407c0 2.183593 1.769531 3.953124 3.949219 3.953124h15.113281c-2.183594 0-3.953125-1.769531-3.953125-3.953124zm0 0" fill="#f4b500"/><path d="m122.894531 277.980469h77.640625v90.664062h-77.640625zm0 0" fill="#406bcc"/><path d="m122.894531 277.980469h38.820313v90.664062h-38.820313zm0 0" fill="#284cb2"/><path d="m19.75 341.496094c3.324219 7.753906 7.042969 15.296875 11.121094 22.613281h22.777344v-86.128906h-33.898438zm0 0" fill="#06daf7"/><path d="m82.304688 364.109375h-28.65625v-86.128906h33.898437v80.890625c0 2.894531-2.347656 5.238281-5.242187 5.238281zm0 0" fill="#55f3ff"/><path d="m110.140625 99.25c-8.347656 0-15.109375-6.765625-15.109375-15.113281v-37.851563c0-8.347656 6.761719-15.113281 15.109375-15.113281s15.109375 6.765625 15.109375 15.113281v37.851563c0 8.347656-6.761719 15.113281-15.109375 15.113281zm0 0" fill="#f95d95"/><path d="m110.140625 72.25c-8.347656 0-15.109375-6.765625-15.109375-15.113281v27c0 8.347656 6.761719 15.113281 15.109375 15.113281s15.109375-6.765625 15.109375-15.113281v-27c0 8.347656-6.761719 15.113281-15.109375 15.113281zm0 0" fill="#e5387f"/><path d="m80.824219 426.847656h178.597656v-30.21875h-206.871094c8.5625 10.851563 18.027344 20.960938 28.273438 30.21875zm0 0" fill="#60d882"/><path d="m157.828125 396.625h-105.277344c8.5625 10.855469 18.027344 20.964844 28.273438 30.222656h77.304687c-3.839844 0-7.535156-1.46875-10.316406-4.113281-10.382812-9.847656-3.285156-26.109375 10.015625-26.109375zm0 0" fill="#37c47a"/><path d="m259.421875 396.625h177.46875v30.222656h-177.46875zm0 0" fill="#37c47a"/><path d="m450.246094 512h-121.039063c-27.988281 0-50.757812-22.769531-50.757812-50.757812v-272.203126c0-27.988281 22.769531-50.757812 50.757812-50.757812h121.039063c27.988281 0 50.757812 22.769531 50.757812 50.757812v272.203126c0 27.988281-22.769531 50.757812-50.757812 50.757812zm0 0" fill="#284cb2"/><path d="m336.199219 497.460938c0-7.8125 4.789062-14.496094 11.585937-17.300782v-308.910156c-5.121094-3.339844-8.511718-9.105469-8.511718-15.675781 0-7.804688 4.78125-14.484375 11.574218-17.292969h-21.640625c-27.988281 0-50.757812 22.769531-50.757812 50.753906v272.207032c0 27.988281 22.769531 50.757812 50.757812 50.757812h13.9375c-4.234375-3.429688-6.945312-8.667969-6.945312-14.539062zm0 0" fill="#1d3ba8"/><path d="m450.246094 168.503906h-16.667969c-3.617187 0-6.796875 2.300782-8.035156 5.699219-3.25 8.914063-11.824219 15.320313-21.824219 15.320313h-27.984375c-10.003906 0-18.574219-6.40625-21.824219-15.320313-1.242187-3.398437-4.417968-5.699219-8.035156-5.699219h-16.667969c-11.34375 0-20.535156 9.191406-20.535156 20.535156v272.203126c0 11.34375 9.191406 20.535156 20.535156 20.535156h121.039063c11.339844 0 20.535156-9.191406 20.535156-20.53125v-272.207032c0-11.34375-9.195312-20.535156-20.535156-20.535156zm0 0" fill="#d6eafc"/><path d="m340.003906 461.242188v-272.203126c0-7.308593 1.5625-14.253906 4.355469-20.535156h-15.152344c-11.339843 0-20.535156 9.191406-20.535156 20.535156v272.203126c0 11.34375 9.195313 20.535156 20.535156 20.535156h15.152344c-2.792969-6.28125-4.355469-13.226563-4.355469-20.535156zm0 0" fill="#b7dbf6"/><path d="m420.953125 259.160156-28.5625-28.5625c-1.46875-1.46875-3.855469-1.46875-5.328125 0l-28.5625 28.5625c-.707031.707032-1.101562 1.664063-1.101562 2.664063v44.824219c0 2.082031 1.6875 3.769531 3.769531 3.769531h57.121093c2.082032 0 3.769532-1.6875 3.769532-3.769531v-44.824219c-.003906-1-.398438-1.957031-1.105469-2.664063zm0 0" fill="#284cb2"/><path d="m389.726562 306.648438v-44.824219c0-1 .398438-1.957031 1.105469-2.664063l15.058594-15.0625-13.5-13.5c-1.472656-1.46875-3.855469-1.46875-5.332031 0l-28.558594 28.5625c-.707031.707032-1.105469 1.664063-1.105469 2.664063v44.824219c0 2.082031 1.691407 3.769531 3.773438 3.769531h32.328125c-2.082032 0-3.769532-1.6875-3.769532-3.769531zm0 0" fill="#1d3ba8"/><path d="m374.617188 376.566406v-22.316406c0-2.183594-1.769532-3.953125-3.953126-3.953125h-22.320312c-2.179688 0-3.949219 1.769531-3.949219 3.953125v22.316406c0 2.183594 1.769531 3.953125 3.949219 3.953125h22.320312c2.183594 0 3.953126-1.769531 3.953126-3.953125zm0 0" fill="#f95d95"/><path d="m435.058594 376.566406v-22.316406c0-2.183594-1.769532-3.953125-3.953125-3.953125h-22.316407c-2.183593 0-3.953124 1.769531-3.953124 3.953125v22.316406c0 2.183594 1.769531 3.953125 3.953124 3.953125h22.316407c2.183593 0 3.953125-1.769531 3.953125-3.953125zm0 0" fill="#60d882"/><path d="m374.617188 437.011719v-22.320313c0-2.179687-1.769532-3.953125-3.953126-3.953125h-22.320312c-2.179688 0-3.949219 1.769531-3.949219 3.953125v22.320313c0 2.179687 1.769531 3.949219 3.949219 3.949219h22.320312c2.183594 0 3.953126-1.769532 3.953126-3.949219zm0 0" fill="#f9ce00"/><path d="m435.058594 437.011719v-22.320313c0-2.179687-1.769532-3.953125-3.953125-3.953125h-22.316407c-2.183593 0-3.953124 1.769531-3.953124 3.953125v22.320313c0 2.179687 1.769531 3.949219 3.953124 3.949219h22.316407c2.183593 0 3.953125-1.769532 3.953125-3.949219zm0 0" fill="#06daf7"/><path d="m359.503906 376.566406v-22.316406c0-2.183594 1.769532-3.953125 3.953125-3.953125h-15.113281c-2.179688 0-3.949219 1.769531-3.949219 3.953125v22.316406c0 2.183594 1.769531 3.953125 3.949219 3.953125h15.113281c-2.183593 0-3.953125-1.769531-3.953125-3.953125zm0 0" fill="#e5387f"/><path d="m419.949219 376.566406v-22.316406c0-2.183594 1.765625-3.953125 3.949219-3.953125h-15.109376c-2.183593 0-3.953124 1.769531-3.953124 3.953125v22.316406c0 2.183594 1.769531 3.953125 3.953124 3.953125h15.109376c-2.183594 0-3.949219-1.769531-3.949219-3.953125zm0 0" fill="#37c47a"/><path d="m359.503906 437.011719v-22.320313c0-2.179687 1.769532-3.949218 3.953125-3.949218h-15.113281c-2.179688 0-3.949219 1.769531-3.949219 3.949218v22.320313c0 2.179687 1.769531 3.953125 3.949219 3.953125h15.113281c-2.183593-.003906-3.953125-1.773438-3.953125-3.953125zm0 0" fill="#f4b500"/><path d="m419.949219 437.011719v-22.320313c0-2.179687 1.765625-3.949218 3.949219-3.949218h-15.109376c-2.183593 0-3.953124 1.769531-3.953124 3.949218v22.320313c0 2.179687 1.769531 3.953125 3.953124 3.953125h15.109376c-2.183594-.003906-3.949219-1.773438-3.949219-3.953125zm0 0" fill="#05b8e2"/></svg>