<svg height="512pt" viewBox="0 -11 512 512" width="512pt" xmlns="http://www.w3.org/2000/svg"><path d="m256 0c-129.589844 0-235.664062 100.613281-244.402344 227.984375l57.355469 175.234375c44.941406 53.078125 112.050781 86.785156 187.046875 86.785156s142.105469-33.707031 187.046875-86.785156l57.355469-175.234375c-8.738282-127.371094-114.8125-227.984375-244.402344-227.984375zm0 0" fill="#83e26f"/><path d="m492.308594 202.949219h-210.824219c-6.628906 0-12.050781-5.421875-12.050781-12.050781v-146.070313c0-6.628906 5.421875-12.050781 12.050781-12.050781h210.824219c6.628906 0 12.050781 5.421875 12.050781 12.050781v146.070313c0 6.628906-5.421875 12.050781-12.050781 12.050781zm0 0" fill="#f95d95"/><path d="m313.929688 189.980469v-146.070313c0-6.628906 5.421874-12.050781 12.046874-12.050781h-44.492187c-6.628906 0-12.050781 5.421875-12.050781 12.050781v146.070313c0 6.628906 5.421875 12.050781 12.050781 12.050781h44.492187c-6.625 0-12.046874-5.421875-12.046874-12.050781zm0 0" fill="#e5387f"/><path d="m386.894531 236.777344c-4.21875 0-7.640625-3.421875-7.640625-7.640625v-27.105469c0-4.222656 3.421875-7.640625 7.640625-7.640625 4.222657 0 7.644531 3.421875 7.644531 7.640625v27.105469c0 4.21875-3.421874 7.640625-7.644531 7.640625zm0 0" fill="#55f3ff"/><path d="m472.429688 90.21875h-55.050782c-4.222656 0-7.644531-3.421875-7.644531-7.644531 0-4.21875 3.421875-7.640625 7.644531-7.640625h55.050782c4.222656 0 7.640624 3.421875 7.640624 7.640625 0 4.222656-3.417968 7.644531-7.640624 7.644531zm0 0" fill="#e5387f"/><path d="m417.375 92.765625h-20.289062c-5.625 0-10.191407-4.5625-10.191407-10.191406 0-5.628907 4.566407-10.1875 10.191407-10.1875h20.289062c5.628906 0 10.191406 4.558593 10.191406 10.1875 0 5.628906-4.5625 10.191406-10.191406 10.191406zm0 0" fill="#fe99b8"/><path d="m472.429688 125.507812h-20.660157c-4.222656 0-7.644531-3.421874-7.644531-7.644531 0-4.21875 3.421875-7.640625 7.644531-7.640625h20.660157c4.222656 0 7.640624 3.421875 7.640624 7.640625 0 4.222657-3.417968 7.644531-7.640624 7.644531zm0 0" fill="#e5387f"/><path d="m451.765625 128.054688h-54.679687c-5.625 0-10.191407-4.5625-10.191407-10.191407 0-5.628906 4.566407-10.191406 10.191407-10.191406h54.679687c5.628906 0 10.191406 4.5625 10.191406 10.191406 0 5.628907-4.5625 10.191407-10.191406 10.191407zm0 0" fill="#fe99b8"/><path d="m421.644531 117.863281c0-5.628906 4.566407-10.191406 10.191407-10.191406h-34.75c-5.628907 0-10.191407 4.5625-10.191407 10.191406 0 5.628907 4.566407 10.191407 10.191407 10.191407h34.75c-5.625 0-10.191407-4.5625-10.191407-10.191407zm0 0" fill="#fc7ba7"/><path d="m472.429688 160.792969h-55.050782c-4.222656 0-7.644531-3.421875-7.644531-7.640625 0-4.222656 3.421875-7.640625 7.644531-7.640625h55.050782c4.222656 0 7.640624 3.421875 7.640624 7.640625s-3.417968 7.640625-7.640624 7.640625zm0 0" fill="#e5387f"/><path d="m417.375 163.339844h-20.289062c-5.625 0-10.191407-4.5625-10.191407-10.1875 0-5.628906 4.566407-10.191406 10.191407-10.191406h20.289062c5.628906 0 10.191406 4.5625 10.191406 10.191406 0 5.625-4.5625 10.1875-10.191406 10.1875zm0 0" fill="#fe99b8"/><path d="m404.089844 82.574219c0-5.628907 4.5625-10.1875 10.191406-10.1875h-17.195312c-5.628907 0-10.191407 4.558593-10.191407 10.1875 0 5.628906 4.566407 10.191406 10.191407 10.191406h17.195312c-5.628906 0-10.191406-4.5625-10.191406-10.191406zm0 0" fill="#fc7ba7"/><path d="m404.089844 153.152344c0-5.628906 4.5625-10.191406 10.191406-10.191406h-17.195312c-5.628907 0-10.191407 4.5625-10.191407 10.191406 0 5.625 4.566407 10.1875 10.191407 10.1875h17.195312c-5.628906 0-10.191406-4.5625-10.191406-10.1875zm0 0" fill="#fc7ba7"/><path d="m492.308594 24.21875c-23.527344 0-188.109375 0-210.824219 0-10.859375 0-19.691406 8.832031-19.691406 19.691406v146.074219c0 10.855469 8.832031 19.691406 19.691406 19.691406h210.824219c10.859375 0 19.691406-8.835937 19.691406-19.691406v-146.074219c0-10.859375-8.832031-19.691406-19.691406-19.691406zm4.40625 165.761719c0 2.425781-1.984375 4.40625-4.40625 4.40625h-210.824219c-2.425781 0-4.40625-1.980469-4.40625-4.402344v-146.074219c0-2.425781 1.984375-4.40625 4.40625-4.40625h84.234375c2.773438 0 5.46875 1.183594 7.183594 3.367188 3.261718 4.148437 8.316406 6.820312 13.992187 6.820312s10.730469-2.671875 13.996094-6.820312c1.714844-2.183594 4.410156-3.367188 7.183594-3.367188h84.234375c2.425781 0 4.40625 1.980469 4.40625 4.402344zm0 0" fill="#1d3ba8"/><path d="m230.519531 229.136719h-210.828125c-3.25 0-6.207031 1.308593-8.378906 3.421875-.207031 4.121094-.3125 8.269531-.3125 12.441406 0 58.488281 20.507812 112.179688 54.707031 154.304688h164.8125c6.625 0 12.046875-5.421876 12.046875-12.046876v-146.074218c0-6.625-5.421875-12.046875-12.046875-12.046875zm0 0" fill="#f9ce00"/><path d="m230.519531 202.03125h-210.828125c-6.625 0-12.046875-5.421875-12.046875-12.050781v-146.070313c0-6.628906 5.417969-12.050781 12.046875-12.050781h210.828125c6.625 0 12.046875 5.421875 12.046875 12.050781v146.070313c0 6.628906-5.421875 12.050781-12.046875 12.050781zm0 0" fill="#d6eafc"/><path d="m51.96875 241.183594c0-6.625 5.421875-12.046875 12.046875-12.046875h-44.324219c-3.25 0-6.207031 1.308593-8.378906 3.421875-.207031 4.121094-.3125 8.269531-.3125 12.441406 0 50.167969 15.097656 96.796875 40.96875 135.632812zm0 0" fill="#f4b500"/><path d="m51.96875 189.980469v-146.070313c0-6.628906 5.421875-12.050781 12.046875-12.050781h-44.324219c-6.625 0-12.046875 5.421875-12.046875 12.050781v146.070313c0 6.628906 5.417969 12.050781 12.046875 12.050781h44.328125c-6.628906 0-12.050781-5.421875-12.050781-12.050781zm0 0" fill="#b7dbf6"/><path d="m501 245c0-4.171875-.105469-8.320312-.3125-12.441406-2.171875-2.113282-5.128906-3.421875-8.378906-3.421875h-210.824219c-6.628906 0-12.050781 5.421875-12.050781 12.046875v146.074218c0 6.625 5.421875 12.046876 12.050781 12.046876h164.8125c34.195313-42.125 54.703125-95.816407 54.703125-154.304688zm0 0" fill="#406bcc"/><path d="m313.929688 387.257812v-146.074218c0-6.625 5.421874-12.046875 12.046874-12.046875h-44.492187c-6.628906 0-12.050781 5.421875-12.050781 12.046875v146.074218c0 6.625 5.421875 12.046876 12.050781 12.046876h44.492187c-6.625 0-12.046874-5.421876-12.046874-12.046876zm0 0" fill="#284cb2"/><path d="m125.105469 236.777344c-4.222657 0-7.640625-3.421875-7.640625-7.640625v-27.105469c0-4.222656 3.417968-7.640625 7.640625-7.640625 4.21875 0 7.640625 3.421875 7.640625 7.640625v27.105469c0 4.21875-3.421875 7.640625-7.640625 7.640625zm0 0" fill="#55f3ff"/><path d="m125.105469 391.664062c-4.222657 0-7.640625 3.421876-7.640625 7.640626v47.777343c4.964844 3.410157 10.0625 6.644531 15.28125 9.691407v-57.46875c0-4.21875-3.421875-7.640626-7.640625-7.640626zm0 0" fill="#55f3ff"/><path d="m223.257812 418.769531h-62.398437v-19.464843c0-4.21875-3.421875-7.640626-7.644531-7.640626-4.21875 0-7.640625 3.421876-7.640625 7.640626v27.105468c0 4.222656 3.421875 7.644532 7.640625 7.644532h62.402344v52.617187c5.046874.835937 10.140624 1.535156 15.285156 2.058594v-62.320313c0-4.21875-3.421875-7.640625-7.644532-7.640625zm0 0" fill="#a6ffff"/><path d="m186.5625 426.410156c0-3.371094 1.972656-6.273437 4.820312-7.640625h-30.523437v-19.464843c0-4.21875-3.421875-7.640626-7.644531-7.640626s-7.644532 3.421876-7.644532 7.640626v27.109374c0 4.21875 3.421876 7.640626 7.644532 7.640626h38.167968c-2.847656-1.367188-4.820312-4.269532-4.820312-7.644532zm0 0" fill="#55f3ff"/><path d="m358.785156 391.664062c-4.222656 0-7.644531 3.421876-7.644531 7.640626v19.464843h-62.398437c-4.222657 0-7.644532 3.421875-7.644532 7.640625v62.320313c5.148438-.523438 10.238282-1.222657 15.285156-2.058594v-52.617187h62.402344c4.222656 0 7.644532-3.421876 7.644532-7.644532v-27.105468c-.003907-4.21875-3.421876-7.640626-7.644532-7.640626zm0 0" fill="#a6ffff"/><path d="m386.894531 391.664062c-4.21875 0-7.640625 3.421876-7.640625 7.640626v57.46875c5.222656-3.046876 10.316406-6.28125 15.285156-9.691407v-47.777343c0-4.21875-3.421874-7.640626-7.644531-7.640626zm0 0" fill="#a6ffff"/><path d="m97.957031 111.855469-26-26c-1.339843-1.339844-3.515625-1.339844-4.855469 0l-26 26c-.640624.644531-1.003906 1.515625-1.003906 2.425781v40.808594c0 1.894531 1.535156 3.429687 3.429688 3.429687h52c1.898437 0 3.433594-1.535156 3.433594-3.429687v-40.808594c0-.910156-.363282-1.785156-1.003907-2.425781zm0 0" fill="#284cb2"/><path d="m69.527344 155.085938v-40.804688c0-.910156.363281-1.785156 1.007812-2.425781l13.710938-13.710938-12.289063-12.289062c-1.339843-1.339844-3.515625-1.339844-4.855469 0l-26 26c-.644531.644531-1.003906 1.515625-1.003906 2.425781v40.808594c0 1.894531 1.535156 3.429687 3.429688 3.429687h29.433594c-1.894532 0-3.433594-1.535156-3.433594-3.433593zm0 0" fill="#1d3ba8"/><path d="m155.675781 104.332031v-20.320312c0-1.984375-1.613281-3.597657-3.597656-3.597657h-20.320313c-1.984374 0-3.597656 1.613282-3.597656 3.597657v20.320312c0 1.984375 1.613282 3.597657 3.597656 3.597657h20.320313c1.984375 0 3.597656-1.613282 3.597656-3.597657zm0 0" fill="#f95d95"/><path d="m210.699219 104.332031v-20.320312c0-1.984375-1.609375-3.597657-3.597657-3.597657h-20.316406c-1.988281 0-3.597656 1.613282-3.597656 3.597657v20.320312c0 1.984375 1.609375 3.597657 3.597656 3.597657h20.316406c1.988282 0 3.597657-1.613282 3.597657-3.597657zm0 0" fill="#60d882"/><path d="m155.675781 159.355469v-20.316407c0-1.988281-1.613281-3.597656-3.597656-3.597656h-20.320313c-1.984374 0-3.597656 1.609375-3.597656 3.597656v20.316407c0 1.988281 1.613282 3.597656 3.597656 3.597656h20.320313c1.984375 0 3.597656-1.609375 3.597656-3.597656zm0 0" fill="#f9ce00"/><path d="m210.699219 159.355469v-20.316407c0-1.988281-1.609375-3.597656-3.597657-3.597656h-20.316406c-1.988281 0-3.597656 1.609375-3.597656 3.597656v20.316407c0 1.988281 1.609375 3.597656 3.597656 3.597656h20.316406c1.988282 0 3.597657-1.609375 3.597657-3.597656zm0 0" fill="#06daf7"/><path d="m141.917969 104.328125v-20.316406c0-1.988281 1.609375-3.597657 3.597656-3.597657h-13.757813c-1.984374 0-3.597656 1.613282-3.597656 3.597657v20.316406c0 1.988281 1.609375 3.597656 3.597656 3.597656h13.757813c-1.988281.003907-3.597656-1.609375-3.597656-3.597656zm0 0" fill="#e5387f"/><path d="m196.941406 104.328125v-20.316406c0-1.988281 1.613282-3.597657 3.597656-3.597657h-13.753906c-1.988281 0-3.597656 1.613282-3.597656 3.597657v20.316406c0 1.988281 1.609375 3.597656 3.597656 3.597656h13.753906c-1.984374.003907-3.597656-1.609375-3.597656-3.597656zm0 0" fill="#37c47a"/><path d="m141.917969 159.355469v-20.316407c0-1.988281 1.609375-3.597656 3.597656-3.597656h-13.757813c-1.984374 0-3.597656 1.609375-3.597656 3.597656v20.316407c0 1.988281 1.609375 3.597656 3.597656 3.597656h13.757813c-1.988281 0-3.597656-1.609375-3.597656-3.597656zm0 0" fill="#f4b500"/><path d="m196.941406 159.355469v-20.316407c0-1.988281 1.613282-3.597656 3.597656-3.597656h-13.753906c-1.988281 0-3.597656 1.609375-3.597656 3.597656v20.316407c0 1.988281 1.609375 3.597656 3.597656 3.597656h13.753906c-1.984374 0-3.597656-1.609375-3.597656-3.597656zm0 0" fill="#05b8e2"/><path d="m335.476562 93.578125c-4.222656 0-7.640624-3.421875-7.640624-7.640625v-14.296875c0-4.222656 3.417968-7.644531 7.640624-7.644531 4.21875 0 7.640626 3.421875 7.640626 7.644531v14.296875c0 4.21875-3.421876 7.640625-7.640626 7.640625zm0 0" fill="#97cbef"/><path d="m345.863281 75.09375h-20.773437c-4.222656 0-7.644532-3.421875-7.644532-7.640625 0-4.222656 3.421876-7.644531 7.644532-7.644531h20.773437c4.222657 0 7.644531 3.421875 7.644531 7.644531 0 4.21875-3.421874 7.640625-7.644531 7.640625zm0 0" fill="#d6eafc"/><path d="m334.113281 67.453125c0-4.222656 3.421875-7.644531 7.644531-7.644531h-16.667968c-4.222656 0-7.644532 3.421875-7.644532 7.644531 0 4.21875 3.421876 7.640625 7.644532 7.640625h16.667968c-4.222656 0-7.644531-3.421875-7.644531-7.640625zm0 0" fill="#b7dbf6"/><path d="m205.808594 265.847656h-72.757813c-2.699219 0-4.890625 2.1875-4.890625 4.890625v17.734375c0 2.699219 2.191406 4.886719 4.890625 4.886719h72.757813c2.703125 0 4.890625-2.1875 4.890625-4.886719v-17.734375c0-2.703125-2.1875-4.890625-4.890625-4.890625zm0 0" fill="#d6eafc"/><path d="m205.5 307.117188h-72.449219c-2.699219 0-4.890625 2.1875-4.890625 4.890624v17.730469c0 2.703125 2.191406 4.890625 4.890625 4.890625h72.757813c2.699218 0 4.890625-2.1875 4.890625-4.890625v-17.425781c0-2.867188-2.328125-5.195312-5.199219-5.195312zm0 0" fill="#d6eafc"/><path d="m168.480469 288.472656v-17.734375c0-2.703125 2.1875-4.890625 4.886719-4.890625h-40.316407c-2.699219 0-4.890625 2.1875-4.890625 4.890625v17.734375c0 2.699219 2.191406 4.886719 4.890625 4.886719h40.316407c-2.699219 0-4.886719-2.1875-4.886719-4.886719zm0 0" fill="#b7dbf6"/><path d="m168.480469 329.738281v-17.730469c0-2.703124 2.1875-4.890624 4.886719-4.890624h-40.316407c-2.699219 0-4.890625 2.1875-4.890625 4.890624v17.730469c0 2.703125 2.191406 4.890625 4.890625 4.890625h40.316407c-2.699219 0-4.886719-2.1875-4.886719-4.890625zm0 0" fill="#b7dbf6"/><path d="m190.066406 365.199219h-41.269531c-4.222656 0-7.644531-3.421875-7.644531-7.640625 0-4.222656 3.421875-7.644532 7.644531-7.644532h41.269531c4.21875 0 7.640625 3.421876 7.640625 7.644532 0 4.21875-3.421875 7.640625-7.640625 7.640625zm0 0" fill="#f4b500"/><path d="m168.480469 357.558594c0-4.222656 3.417969-7.644532 7.640625-7.644532h-27.324219c-4.222656 0-7.640625 3.421876-7.640625 7.644532 0 4.21875 3.417969 7.640625 7.640625 7.640625h27.324219c-4.222656 0-7.640625-3.421875-7.640625-7.640625zm0 0" fill="#f29b00"/><path d="m323.882812 361.671875c-4.222656 0-7.644531-3.425781-7.644531-7.644531v-46.941406c0-4.222657 3.421875-7.644532 7.644531-7.644532 4.21875 0 7.640626 3.421875 7.640626 7.644532v46.941406c0 4.21875-3.421876 7.644531-7.640626 7.644531zm0 0" fill="#97cbef"/><path d="m344.199219 349.9375c-1.296875 0-2.609375-.332031-3.8125-1.027344l-40.652344-23.472656c-3.65625-2.109375-4.910156-6.785156-2.796875-10.441406 2.109375-3.652344 6.785156-4.90625 10.4375-2.796875l40.65625 23.472656c3.652344 2.113281 4.90625 6.785156 2.796875 10.441406-1.417969 2.453125-3.984375 3.824219-6.628906 3.824219zm0 0" fill="#b7dbf6"/><path d="m303.5625 349.9375c-2.640625 0-5.210938-1.371094-6.625-3.824219-2.113281-3.65625-.859375-8.328125 2.796875-10.441406l40.652344-23.472656c3.652343-2.109375 8.328125-.855469 10.441406 2.796875 2.109375 3.65625.855469 8.332031-2.796875 10.441406l-40.65625 23.472656c-1.203125.695313-2.515625 1.027344-3.8125 1.027344zm0 0" fill="#d6eafc"/><path d="m352.976562 302.261719c-4.222656 0-7.640624-3.421875-7.640624-7.640625v-19.738282c0-4.222656 3.417968-7.644531 7.640624-7.644531 4.21875 0 7.640626 3.421875 7.640626 7.644531v19.738282c0 4.222656-3.421876 7.640625-7.640626 7.640625zm0 0" fill="#06daf7"/><path d="m362.84375 292.394531h-19.738281c-4.21875 0-7.640625-3.421875-7.640625-7.640625 0-4.222656 3.421875-7.644531 7.640625-7.644531h19.738281c4.222656 0 7.644531 3.421875 7.644531 7.644531 0 4.21875-3.421875 7.640625-7.644531 7.640625zm0 0" fill="#55f3ff"/><path d="m473.164062 268.015625c0-4.136719-3.351562-7.488281-7.484374-7.488281h-56.132813c-4.136719 0-7.488281 3.351562-7.488281 7.488281v92.414063c0 4.132812 3.351562 7.484374 7.488281 7.484374h56.132813c.902343 0 1.761718-.167968 2.566406-.460937 1.703125-2.945313 3.335937-5.933594 4.917968-8.953125zm0 0" fill="#d6eafc"/><path d="m444.777344 333.859375c-10.84375 0-19.636719-8.792969-19.636719-19.636719 0-10.847656 8.792969-19.636718 19.636719-19.636718.160156 0 .3125.019531.46875.023437v-10.71875c-.070313 0-.140625.011719-.210938.011719-6.777344 0-12.273437-5.496094-12.273437-12.273438 0-4.914062 2.894531-9.140625 7.066406-11.101562h-30.285156c-4.132813 0-7.484375 3.351562-7.484375 7.488281v92.414063c0 4.132812 3.351562 7.484374 7.484375 7.484374h30.089843c-4.066406-2-6.871093-6.171874-6.871093-11.007812 0-6.777344 5.496093-12.273438 12.273437-12.273438.070313 0 .140625.011719.210938.011719v-10.808593c-.15625.003906-.308594.023437-.46875.023437zm0 0" fill="#b7dbf6"/><path d="m230.519531 221.492188h-210.828125c-2.734375 0-5.335937.5625-7.703125 1.574218-.640625 7.226563-.988281 14.539063-.988281 21.933594 0 15.644531 1.484375 30.9375 4.285156 45.765625v-49.582031c0-2.421875 1.984375-4.40625 4.40625-4.40625h84.234375c2.777344 0 5.46875 1.1875 7.1875 3.371094 3.261719 4.148437 8.316407 6.820312 13.992188 6.820312s10.730469-2.671875 13.992187-6.820312c1.71875-2.183594 4.410156-3.371094 7.1875-3.371094h84.234375c2.421875 0 4.402344 1.984375 4.402344 4.40625v146.074218c0 2.421876-1.980469 4.402344-4.402344 4.402344h-170.789062c3.941406 5.265625 8.097656 10.359375 12.445312 15.285156h158.34375c10.875 0 19.691407-8.816406 19.691407-19.6875v-146.074218c-.003907-10.875-8.816407-19.691406-19.691407-19.691406zm0 0" fill="#1d3ba8"/><path d="m230.519531 24.21875c-23.53125 0-188.109375 0-210.828125 0-10.855468 0-19.691406 8.832031-19.691406 19.691406v146.070313c0 10.859375 8.835938 19.691406 19.691406 19.691406h210.828125c10.855469 0 19.6875-8.832031 19.6875-19.691406v-146.070313c0-10.859375-8.832031-19.691406-19.6875-19.691406zm4.40625 165.761719c0 2.425781-1.984375 4.40625-4.40625 4.40625h-210.828125c-2.425781 0-4.40625-1.980469-4.40625-4.40625v-146.070313c0-2.425781 1.984375-4.40625 4.40625-4.40625h84.234375c2.777344 0 5.46875 1.183594 7.1875 3.367188 3.261719 4.148437 8.316407 6.820312 13.992188 6.820312s10.730469-2.671875 13.992187-6.820312c1.71875-2.183594 4.410156-3.367188 7.1875-3.367188h84.234375c2.421875 0 4.402344 1.980469 4.402344 4.402344v146.074219zm0 0" fill="#1d3ba8"/><path d="m281.484375 221.492188c-10.875 0-19.691406 8.816406-19.691406 19.691406v146.074218c0 10.875 8.816406 19.6875 19.691406 19.6875h158.34375c4.34375-4.925781 8.5-10.015624 12.445313-15.285156h-170.789063c-2.425781 0-4.40625-1.980468-4.40625-4.402344v-146.074218c0-2.421875 1.980469-4.40625 4.40625-4.40625h84.234375c2.773438 0 5.46875 1.1875 7.183594 3.371094 3.261718 4.148437 8.316406 6.820312 13.992187 6.820312s10.730469-2.671875 13.996094-6.820312c1.714844-2.183594 4.410156-3.371094 7.183594-3.371094h84.234375c2.421875 0 4.40625 1.984375 4.40625 4.40625v49.582031c2.800781-14.828125 4.285156-30.121094 4.285156-45.765625 0-7.394531-.347656-14.707031-.988281-21.933594-2.367188-1.011718-4.96875-1.574218-7.703125-1.574218zm0 0" fill="#1d3ba8"/><path d="m420.152344 303.152344c-2.984375-2.984375-2.984375-7.824219 0-10.808594l12.054687-12.054688c2.984375-2.984374 7.824219-2.984374 10.808594 0l12.054687 12.054688c2.988282 2.984375 2.988282 7.824219.003907 10.808594s-7.824219 2.984375-10.808594 0l-6.652344-6.652344-6.652343 6.652344c-2.988282 2.984375-7.824219 2.984375-10.808594 0zm0 0" fill="#97cbef"/><path d="m437.609375 350.292969c-2.023437 0-3.96875-.804688-5.402344-2.238281l-12.054687-12.058594c-2.984375-2.984375-2.984375-7.820313 0-10.804688 2.984375-2.988281 7.824218-2.988281 10.808594 0l6.648437 6.652344 6.65625-6.652344c2.980469-2.988281 7.820313-2.988281 10.804687 0 2.984376 2.984375 2.984376 7.820313 0 10.804688-10.824218 10.027344-12.214843 14.296875-17.460937 14.296875zm0 0" fill="#97cbef"/><path d="m363.8125 106.246094c-9.039062-15.652344-29.054688-21.015625-44.710938-11.976563-15.652343 9.035157-21.015624 29.054688-11.980468 44.707031 9.039062 15.65625 29.058594 21.019532 44.710937 11.980469 15.65625-9.039062 21.019531-29.054687 11.980469-44.710937zm0 0" fill="#f9ce00"/><path d="m351.84375 150.960938c.324219-.1875.640625-.390626.960938-.589844-17.054688-1.578125-22.4375-23.796875-8.101563-33.03125-15.277344 7.855468-31.78125-8.183594-24.503906-23.664063-.363281.191407-.726563.386719-1.089844.59375-15.164063 8.753907-20.671875 27.8125-12.785156 43.226563 9.285156 17.574218 30.035156 22.40625 45.519531 13.464844zm0 0" fill="#f4b500"/><path d="m335.476562 162.988281c-22.261718 0-40.375-18.109375-40.375-40.371093 0-22.261719 18.113282-40.375 40.375-40.375 22.261719 0 40.371094 18.113281 40.371094 40.375 0 22.261718-18.109375 40.371093-40.371094 40.371093zm0-65.460937c-13.835937 0-25.089843 11.253906-25.089843 25.089844 0 13.832031 11.253906 25.085937 25.089843 25.085937 13.832032 0 25.089844-11.253906 25.089844-25.085937 0-13.835938-11.257812-25.089844-25.089844-25.089844zm0 0" fill="#284cb2"/><path d="m335.476562 130.257812c-4.222656 0-7.640624-3.421874-7.640624-7.640624v-10.402344c0-4.222656 3.417968-7.640625 7.640624-7.640625 4.21875 0 7.640626 3.421875 7.640626 7.640625v10.402344c0 4.21875-3.421876 7.640624-7.640626 7.640624zm0 0" fill="#1d3ba8"/><path d="m335.476562 132.808594c-5.609374 0-10.1875-4.554688-10.1875-10.1875 0-5.671875 4.609376-10.191406 10.1875-10.191406 5.710938 0 10.191407 4.664062 10.191407 10.191406 0 5.519531-4.484375 10.1875-10.191407 10.1875zm0 0" fill="#406bcc"/><path d="m343.171875 146.492188c-16.183594 5.230468-32.785156-6.914063-32.785156-23.878907 0-7.34375 3.171875-13.960937 8.21875-18.550781-7.109375 1.410156-12.472657-6.144531-9.078125-12.34375-8.8125 7.410156-14.425782 18.507812-14.425782 30.894531 0 28.828125 29.484376 48.34375 55.9375 37.25-7.429687.921875-12.191406-7.480469-7.867187-13.371093zm0 0" fill="#1d3ba8"/><path d="m326.738281 426.410156c0-3.3125 1.871094-6.191406 4.609375-7.640625h-42.609375c-4.21875 0-7.640625 3.421875-7.640625 7.640625v62.320313c5.144532-.519531 10.238282-1.222657 15.285156-2.058594v-52.617187h34.964844c-2.738281-1.453126-4.609375-4.328126-4.609375-7.644532zm0 0" fill="#55f3ff"/><path d="m88.917969 318.144531c-4.222657 0-7.644531-3.421875-7.644531-7.644531v-16.632812c0-6.476563-5.265626-11.746094-11.746094-11.746094-6.476563 0-11.746094 5.269531-11.746094 11.746094v16.632812c0 4.222656-3.417969 7.644531-7.640625 7.644531-4.21875 0-7.640625-3.421875-7.640625-7.644531v-16.632812c0-14.90625 12.125-27.03125 27.03125-27.03125 14.902344 0 27.03125 12.125 27.03125 27.03125v16.632812c-.003906 4.222656-3.421875 7.644531-7.644531 7.644531zm0 0" fill="#d6eafc"/><path d="m67.078125 275.304688c0-3.9375 2.691406-7.238282 6.332031-8.1875-16.414062-2.371094-30.914062 10.421874-30.914062 26.75v16.632812c0 4.222656 3.421875 7.644531 7.644531 7.644531 4.21875 0 7.640625-3.421875 7.640625-7.644531v-16.632812c0-6.824219 5.863281-12.332032 12.828125-11.691407-2.132813-1.535156-3.53125-4.039062-3.53125-6.871093zm0 0" fill="#b7dbf6"/><path d="m92.503906 360.359375h-45.949218c-5.289063 0-9.617188-4.328125-9.617188-9.617187v-34.699219c0-5.289063 4.328125-9.617188 9.617188-9.617188h45.949218c5.292969 0 9.617188 4.328125 9.617188 9.617188v34.699219c0 5.289062-4.324219 9.617187-9.617188 9.617187zm0 0" fill="#284cb2"/><path d="m59.335938 351.898438c0-4.460938 2.847656-8.140626 6.679687-9.5625-3.183594-1.753907-5.300781-5.152344-5.300781-8.941407 0-3.917969 2.199218-7.226562 5.328125-8.941406-3.949219-1.441406-6.707031-5.242187-6.707031-9.566406 0-3.574219 1.832031-6.648438 4.53125-8.460938h-17.3125c-5.292969 0-9.621094 4.328125-9.621094 9.617188v34.699219c0 5.289062 4.328125 9.617187 9.621094 9.617187h17.300781c-2.742188-1.847656-4.519531-4.988281-4.519531-8.460937zm0 0" fill="#1d3ba8"/><path d="m69.523438 343.582031c-5.71875 0-10.1875-4.679687-10.1875-10.1875 0-6.433593 5.917968-11.257812 12.1875-9.996093 4.855468.988281 8.199218 5.246093 8.199218 9.996093.003906 5.808594-4.761718 10.1875-10.199218 10.1875zm0 0" fill="#406bcc"/><g fill="#122894"><path d="m309.957031 202.03125c0-3.371094 1.964844-6.269531 4.808594-7.644531h-33.285156c-2.421875 0-4.402344-1.980469-4.402344-4.402344v-146.074219c0-2.425781 1.980469-4.40625 4.40625-4.40625h33.207031c-2.800781-1.386718-4.734375-4.269531-4.734375-7.609375 0-3.398437 2-6.320312 4.882813-7.675781-16.097656 0-28.277344 0-33.355469 0-10.859375 0-19.691406 8.832031-19.691406 19.691406v146.070313c0 10.859375 8.832031 19.691406 19.691406 19.691406h33.285156c-2.847656-1.371094-4.8125-4.273437-4.8125-7.640625zm0 0"/><path d="m309.957031 399.269531c0-3.339843 1.929688-6.21875 4.734375-7.609375h-33.207031c-2.425781 0-4.40625-1.980468-4.40625-4.402344v-146.074218c0-2.421875 1.980469-4.40625 4.40625-4.40625h33.285156c-2.84375-1.371094-4.8125-4.273438-4.8125-7.640625 0-3.371094 1.964844-6.269531 4.808594-7.644531h-33.28125c-10.875 0-19.691406 8.816406-19.691406 19.691406v146.074218c0 10.875 8.816406 19.6875 19.691406 19.6875h33.359375c-2.886719-1.355468-4.886719-4.277343-4.886719-7.675781zm0 0"/><path d="m48.070312 202.03125c0-3.371094 1.964844-6.269531 4.808594-7.644531h-33.1875c-2.421875 0-4.40625-1.980469-4.40625-4.40625v-146.070313c0-2.425781 1.980469-4.40625 4.40625-4.40625h33.113282c-2.800782-1.386718-4.734376-4.269531-4.734376-7.609375 0-3.398437 2-6.320312 4.882813-7.675781-16.050781 0-28.191406 0-33.261719 0-10.855468 0-19.691406 8.832031-19.691406 19.691406v146.070313c0 10.859375 8.832031 19.691406 19.691406 19.691406h33.1875c-2.84375-1.371094-4.808594-4.273437-4.808594-7.640625zm0 0"/><path d="m48.070312 229.234375c0-3.449219 2.058594-6.410156 5.011719-7.742187h-33.390625c-2.734375 0-5.335937.5625-7.703125 1.574218-.644531 7.226563-.988281 14.539063-.988281 21.933594 0 15.644531 1.480469 30.9375 4.285156 45.765625v-49.582031c0-2.421875 1.984375-4.40625 4.40625-4.40625h32.984375c-2.734375-1.410156-4.605469-4.253906-4.605469-7.542969zm0 0"/></g></svg>